<svg xmlns="http://www.w3.org/2000/svg" xmlns:xlink="http://www.w3.org/1999/xlink" width="10" height="10" viewBox="0 0 10 10"><defs><linearGradient id="a" x1="5.96" y1="-6.5" x2="4.22" y2="-0.13" gradientTransform="matrix(1, 0, 0, -1, 0, 2)" gradientUnits="userSpaceOnUse"><stop offset="0" stop-color="#f2f2f2" stop-opacity="0.1"/><stop offset="0.34" stop-color="#969696" stop-opacity="0.17"/><stop offset="0.66" stop-color="#454545" stop-opacity="0.23"/><stop offset="0.89" stop-color="#131313" stop-opacity="0.28"/><stop offset="1" stop-opacity="0.3"/></linearGradient><linearGradient id="b" x1="3.67" y1="0.51" x2="5.22" y2="-6.46" gradientTransform="matrix(1, 0, 0, -1, 0, 2)" gradientUnits="userSpaceOnUse"><stop offset="0" stop-color="#fff" stop-opacity="0.1"/><stop offset="1" stop-opacity="0.3"/></linearGradient><linearGradient id="c" x1="0.59" y1="-0.94" x2="9.41" y2="-5.06" gradientTransform="matrix(1, 0, 0, -1, 0, 2)" gradientUnits="userSpaceOnUse"><stop offset="0" stop-color="#fff" stop-opacity="0.2"/><stop offset="1" stop-color="#fff" stop-opacity="0"/></linearGradient></defs><path d="M5,.13A4.87,4.87,0,1,0,9.87,5,4.87,4.87,0,0,0,5,.13Zm.2,8.32C3.75,8.45,2.57,6.9,2.57,5S3.75,1.55,5.2,1.55,7.84,3.1,7.84,5,6.66,8.45,5.2,8.45Z" fill="#ee3124"/><path d="M5,.13A4.87,4.87,0,1,0,9.87,5,4.87,4.87,0,0,0,5,.13Zm.2,8.32C3.75,8.45,2.57,6.9,2.57,5S3.75,1.55,5.2,1.55,7.84,3.1,7.84,5,6.66,8.45,5.2,8.45Z" fill="url(#a)"/><path d="M6.62,9.06a4.06,4.06,0,0,1,0-8.12A3.94,3.94,0,0,1,8,1.21,4.87,4.87,0,1,0,5,9.87,4.84,4.84,0,0,0,8,8.79,3.94,3.94,0,0,1,6.62,9.06Z" fill="#ee3124"/><path d="M6.62,9.06a4.06,4.06,0,0,1,0-8.12A3.94,3.94,0,0,1,8,1.21,4.87,4.87,0,1,0,5,9.87,4.84,4.84,0,0,0,8,8.79,3.94,3.94,0,0,1,6.62,9.06Z" fill="url(#b)"/><path d="M5,.13A4.87,4.87,0,1,0,9.87,5,4.87,4.87,0,0,0,5,.13Zm.2,8.32C3.75,8.45,2.57,6.9,2.57,5S3.75,1.55,5.2,1.55,7.84,3.1,7.84,5,6.66,8.45,5.2,8.45Z" fill="url(#c)"/></svg>