<svg xmlns="http://www.w3.org/2000/svg" xmlns:xlink="http://www.w3.org/1999/xlink" width="10" height="10" viewBox="0 0 10 10"><defs><linearGradient id="a" x1="5.05" y1="1.63" x2="5.05" y2="-7.85" gradientTransform="matrix(1, 0, 0, -1, 0, 2)" gradientUnits="userSpaceOnUse"><stop offset="0" stop-color="#15bef0"/><stop offset="0.16" stop-color="#18b2e8"/><stop offset="0.43" stop-color="#2094d2"/><stop offset="0.8" stop-color="#2e62af"/><stop offset="1" stop-color="#374499"/></linearGradient><linearGradient id="b" x1="5.05" y1="-3.11" x2="8.41" y2="-6.46" gradientTransform="matrix(1, 0, 0, -1, 0, 2)" gradientUnits="userSpaceOnUse"><stop offset="0" stop-opacity="0.1"/><stop offset="1" stop-opacity="0"/></linearGradient><linearGradient id="c" x1="0.57" y1="-1.02" x2="9.54" y2="-5.2" gradientTransform="matrix(1, 0, 0, -1, 0, 2)" gradientUnits="userSpaceOnUse"><stop offset="0" stop-color="#fff" stop-opacity="0.2"/><stop offset="1" stop-color="#fff" stop-opacity="0"/></linearGradient></defs><path d="M5.05,9.85A4.74,4.74,0,1,0,.31,5.11,4.74,4.74,0,0,0,5.05,9.85Z" fill="url(#a)"/><path d="M9.79,5.11a4.68,4.68,0,0,0-.15-1.19l-1.7-1.7L5.67,5.73,2.17,8l1.7,1.7a4.6,4.6,0,0,0,1.18.16A4.74,4.74,0,0,0,9.79,5.11Z" fill="url(#b)"/><path d="M5.05,10.06a5,5,0,1,1,5-4.95A4.95,4.95,0,0,1,5.05,10.06Zm0-9.49A4.54,4.54,0,1,0,9.59,5.11,4.54,4.54,0,0,0,5.05.57Z" fill="#f2f2f2"/><path d="M7.94,2.22,4.43,4.49,5.67,5.73Z" fill="#ef373e"/><path d="M7.94,2.22,5.05,5.11l.62.62Z" opacity="0.1" style="isolation:isolate"/><path d="M2.17,8l3.5-2.26L4.43,4.49Z" fill="#fff"/><path d="M2.17,8,5.05,5.11l.62.62Z" opacity="0.1" style="isolation:isolate"/><path d="M5.05,10A5,5,0,0,1,.3,6.46C.26,6.31.22,6.15.19,6c0,.13,0,.26.08.38a4.95,4.95,0,0,0,9.52.16A4.56,4.56,0,0,0,9.92,6c0,.14-.07.28-.11.42A5,5,0,0,1,5.05,10Z" opacity="0.1" style="isolation:isolate"/><path d="M5.05.26A5,5,0,0,1,9.8,3.73a4.95,4.95,0,0,0-9.5,0A5,5,0,0,1,5.05.26Z" fill="#fff" opacity="0.2" style="isolation:isolate"/><path d="M5.05,10.06A5,5,0,1,0,.11,5.11,4.95,4.95,0,0,0,5.05,10.06Z" fill="url(#c)"/></svg>