<svg xmlns="http://www.w3.org/2000/svg" xmlns:xlink="http://www.w3.org/1999/xlink" width="10" height="10" viewBox="0 0 10 10"><defs><linearGradient id="a" x1="6.85" y1="-0.18" x2="8.71" y2="-2.04" gradientTransform="matrix(1, 0, 0, -1, 0, 2)" gradientUnits="userSpaceOnUse"><stop offset="0" stop-opacity="0.1"/><stop offset="1" stop-opacity="0"/></linearGradient><linearGradient id="b" x1="0.85" y1="-0.19" x2="3.39" y2="-2.73" xlink:href="#a"/><linearGradient id="c" x1="4.47" y1="-5.48" x2="5.62" y2="-6.62" xlink:href="#a"/><linearGradient id="d" x1="0.53" y1="-0.87" x2="9.54" y2="-5.07" gradientTransform="matrix(1, 0, 0, -1, 0, 2)" gradientUnits="userSpaceOnUse"><stop offset="0" stop-color="#fff" stop-opacity="0.2"/><stop offset="1" stop-color="#fff" stop-opacity="0"/></linearGradient></defs><path d="M3,5A2.08,2.08,0,0,1,5,2.9a2,2,0,0,1,.88.21H9.64A5,5,0,0,0,1.11,1.92L3,5.14S3,5,3,5Z" fill="#f44336"/><path d="M5,7A2.06,2.06,0,0,1,3,5.14L1.11,1.92a5,5,0,0,0,3.25,8L6.2,6.68A2,2,0,0,1,5,7Z" fill="#00b060"/><path d="M5.92,3.11A2.05,2.05,0,0,1,6.2,6.68L4.36,9.89a5.06,5.06,0,0,0,.68,0,5,5,0,0,0,4.6-6.83Z" fill="#ffc107"/><path d="M5,6.63A1.66,1.66,0,1,0,3.38,5,1.65,1.65,0,0,0,5,6.63Z" fill="#2196f3"/><path d="M6.88,4l2.76-.93H5.92A2.06,2.06,0,0,1,6.88,4Z" fill="url(#a)"/><path d="M3.31,3.84,1.12,1.91,3,5.13A2,2,0,0,1,3.31,3.84Z" fill="url(#b)"/><path d="M4.92,7,4.35,9.89,6.21,6.67A2.06,2.06,0,0,1,4.92,7Z" fill="url(#c)"/><path d="M5,9.94a5,5,0,1,0-5-5A5,5,0,0,0,5,9.94Z" fill="url(#d)"/></svg>