<svg xmlns="http://www.w3.org/2000/svg" xmlns:xlink="http://www.w3.org/1999/xlink" width="10" height="10" viewBox="0 0 10 10"><defs><linearGradient id="a" x1="6.98" y1="825.79" x2="13.8" y2="825.79" gradientTransform="translate(-4.63 -818.92)" gradientUnits="userSpaceOnUse"><stop offset="0" stop-color="#0c59a4"/><stop offset="1" stop-color="#114a8b"/></linearGradient><radialGradient id="b" cx="10.75" cy="858.9" r="3.65" gradientTransform="translate(-4.63 -809.03) scale(1 0.95)" gradientUnits="userSpaceOnUse"><stop offset="0.72" stop-opacity="0"/><stop offset="0.95" stop-opacity="0.53"/><stop offset="1"/></radialGradient><linearGradient id="c" x1="10.58" y1="822.84" x2="6.32" y2="827.48" gradientTransform="translate(-4.63 -818.92)" gradientUnits="userSpaceOnUse"><stop offset="0" stop-color="#1b9de2"/><stop offset="0.16" stop-color="#1595df"/><stop offset="0.67" stop-color="#0680d7"/><stop offset="1" stop-color="#0078d4"/></linearGradient><radialGradient id="d" cx="-1510.67" cy="1631.68" r="5.48" gradientTransform="matrix(0.15, -0.99, 0.8, 0.12, -1075.94, -1683.65)" gradientUnits="userSpaceOnUse"><stop offset="0.76" stop-opacity="0"/><stop offset="0.95" stop-opacity="0.5"/><stop offset="1"/></radialGradient><radialGradient id="e" cx="-387.87" cy="-476.42" r="7.74" gradientTransform="matrix(-0.04, 1, -2.13, -0.08, -1029.2, 351.67)" gradientUnits="userSpaceOnUse"><stop offset="0" stop-color="#35c1f1"/><stop offset="0.11" stop-color="#34c1ed"/><stop offset="0.23" stop-color="#2fc2df"/><stop offset="0.31" stop-color="#2bc3d2"/><stop offset="0.67" stop-color="#36c752"/></radialGradient><radialGradient id="f" cx="69.18" cy="-726.67" r="3.72" gradientTransform="matrix(0.28, 0.96, -0.78, 0.23, -576.89, 103.79)" gradientUnits="userSpaceOnUse"><stop offset="0" stop-color="#66eb6e"/><stop offset="1" stop-color="#66eb6e" stop-opacity="0"/></radialGradient></defs><path d="M8.94,7.39a2.87,2.87,0,0,1-.4.18,4,4,0,0,1-1.37.25A3.18,3.18,0,0,1,3.78,5a1.19,1.19,0,0,1,.63-1.05C2.77,4,2.35,5.71,2.35,6.7A3,3,0,0,0,5.52,9.82a4,4,0,0,0,1-.18l0,0a4.86,4.86,0,0,0,2.54-2,.16.16,0,0,0,0-.22A.15.15,0,0,0,8.94,7.39Z" fill="url(#a)"/><path d="M8.94,7.39a2.87,2.87,0,0,1-.4.18,4,4,0,0,1-1.37.25A3.18,3.18,0,0,1,3.78,5a1.19,1.19,0,0,1,.63-1.05C2.77,4,2.35,5.71,2.35,6.7A3,3,0,0,0,5.52,9.82a4,4,0,0,0,1-.18l0,0a4.86,4.86,0,0,0,2.54-2,.16.16,0,0,0,0-.22A.15.15,0,0,0,8.94,7.39Z" opacity="0.35" fill="url(#b)" style="isolation:isolate"/><path d="M4.15,9.34A3.11,3.11,0,0,1,4,4.21a3.14,3.14,0,0,1,.46-.28A1.28,1.28,0,0,1,5,3.78a1.22,1.22,0,0,1,1,.5A1.2,1.2,0,0,1,6.23,5s.93-3-3.06-3a3.21,3.21,0,0,0-3.06,3,4.88,4.88,0,0,0,6.44,4.7,2.86,2.86,0,0,1-2.4-.3Z" fill="url(#c)"/><path d="M4.15,9.34A3.11,3.11,0,0,1,4,4.21a3.14,3.14,0,0,1,.46-.28A1.28,1.28,0,0,1,5,3.78a1.22,1.22,0,0,1,1,.5A1.2,1.2,0,0,1,6.23,5s.93-3-3.06-3a3.21,3.21,0,0,0-3.06,3,4.88,4.88,0,0,0,6.44,4.7,2.86,2.86,0,0,1-2.4-.3Z" opacity="0.41" fill="url(#d)" style="isolation:isolate"/><path d="M5.93,5.8S5.8,5.89,5.8,6A.37.37,0,0,0,6,6.29a3.16,3.16,0,0,0,1.59.33A2.25,2.25,0,0,0,8.73,6.3a2.34,2.34,0,0,0,1.16-2A3.35,3.35,0,0,0,9.46,2.6,4.92,4.92,0,0,0,5,.1,4.88,4.88,0,0,0,.11,4.93,2.85,2.85,0,0,1,3.16,2.4a3.77,3.77,0,0,1,1.61.39A2.73,2.73,0,0,1,6,3.91,2.39,2.39,0,0,1,6.23,5,1.42,1.42,0,0,1,5.93,5.8Z" fill="url(#e)"/><path d="M5.93,5.8S5.8,5.89,5.8,6A.37.37,0,0,0,6,6.29a3.16,3.16,0,0,0,1.59.33A2.25,2.25,0,0,0,8.73,6.3a2.34,2.34,0,0,0,1.16-2A3.35,3.35,0,0,0,9.46,2.6,4.92,4.92,0,0,0,5,.1,4.88,4.88,0,0,0,.11,4.93,2.85,2.85,0,0,1,3.16,2.4a3.77,3.77,0,0,1,1.61.39A2.73,2.73,0,0,1,6,3.91,2.39,2.39,0,0,1,6.23,5,1.42,1.42,0,0,1,5.93,5.8Z" fill="url(#f)"/></svg>