<svg xmlns="http://www.w3.org/2000/svg" xmlns:xlink="http://www.w3.org/1999/xlink" width="10" height="10" viewBox="0 0 10 10"><defs><linearGradient id="a" x1="2270.46" y1="-332.9" x2="2245.68" y2="-356.81" gradientTransform="matrix(0.33, 0, 0, -0.33, -740.25, -108.46)" gradientUnits="userSpaceOnUse"><stop offset="0.05" stop-color="#fff44f"/><stop offset="0.11" stop-color="#ffe847"/><stop offset="0.23" stop-color="#ffc830"/><stop offset="0.37" stop-color="#ff980e"/><stop offset="0.4" stop-color="#ff8b16"/><stop offset="0.46" stop-color="#ff672a"/><stop offset="0.53" stop-color="#ff3647"/><stop offset="0.7" stop-color="#e31587"/></linearGradient><radialGradient id="b" cx="-5747.57" cy="8133.81" r="30.55" gradientTransform="matrix(0.34, 0, 0, -0.33, 1961.96, 2683.85)" gradientUnits="userSpaceOnUse"><stop offset="0.13" stop-color="#ffbd4f"/><stop offset="0.19" stop-color="#ffac31"/><stop offset="0.25" stop-color="#ff9d17"/><stop offset="0.28" stop-color="#ff980e"/><stop offset="0.4" stop-color="#ff563b"/><stop offset="0.47" stop-color="#ff3750"/><stop offset="0.71" stop-color="#f5156c"/><stop offset="0.78" stop-color="#eb0878"/><stop offset="0.86" stop-color="#e50080"/></radialGradient><radialGradient id="c" cx="-5758.74" cy="8121.32" r="30.55" gradientTransform="matrix(0.34, 0, 0, -0.33, 1961.96, 2683.85)" gradientUnits="userSpaceOnUse"><stop offset="0.3" stop-color="#960e18"/><stop offset="0.35" stop-color="#b11927" stop-opacity="0.74"/><stop offset="0.43" stop-color="#db293d" stop-opacity="0.34"/><stop offset="0.5" stop-color="#f5334b" stop-opacity="0.09"/><stop offset="0.53" stop-color="#ff3750" stop-opacity="0"/></radialGradient><radialGradient id="d" cx="-5755.05" cy="8140.74" r="22.13" gradientTransform="matrix(0.34, 0, 0, -0.33, 1961.96, 2683.85)" gradientUnits="userSpaceOnUse"><stop offset="0.13" stop-color="#fff44f"/><stop offset="0.25" stop-color="#ffdc3e"/><stop offset="0.51" stop-color="#ff9d12"/><stop offset="0.53" stop-color="#ff980e"/></radialGradient><radialGradient id="e" cx="-5762.12" cy="8113.34" r="14.55" gradientTransform="matrix(0.34, 0, 0, -0.33, 1961.96, 2683.85)" gradientUnits="userSpaceOnUse"><stop offset="0.35" stop-color="#3a8ee6"/><stop offset="0.47" stop-color="#5c79f0"/><stop offset="0.67" stop-color="#9059ff"/><stop offset="1" stop-color="#c139e6"/></radialGradient><radialGradient id="f" cx="-7418.1" cy="7066.4" r="7.71" gradientTransform="matrix(0.33, -0.08, -0.09, -0.37, 3090.33, 2028.71)" gradientUnits="userSpaceOnUse"><stop offset="0.21" stop-color="#9059ff" stop-opacity="0"/><stop offset="0.28" stop-color="#8c4ff3" stop-opacity="0.06"/><stop offset="0.75" stop-color="#7716a8" stop-opacity="0.45"/><stop offset="0.97" stop-color="#6e008b" stop-opacity="0.6"/></radialGradient><radialGradient id="g" cx="-5759.12" cy="8135.06" r="10.47" gradientTransform="matrix(0.34, 0, 0, -0.33, 1961.96, 2683.85)" gradientUnits="userSpaceOnUse"><stop offset="0" stop-color="#ffe226"/><stop offset="0.12" stop-color="#ffdb27"/><stop offset="0.29" stop-color="#ffc82a"/><stop offset="0.5" stop-color="#ffa930"/><stop offset="0.73" stop-color="#ff7e37"/><stop offset="0.79" stop-color="#ff7139"/></radialGradient><radialGradient id="h" cx="-5750.9" cy="8141.7" r="44.65" gradientTransform="matrix(0.34, 0, 0, -0.33, 1961.96, 2683.85)" gradientUnits="userSpaceOnUse"><stop offset="0.11" stop-color="#fff44f"/><stop offset="0.46" stop-color="#ff980e"/><stop offset="0.62" stop-color="#ff5634"/><stop offset="0.72" stop-color="#ff3647"/><stop offset="0.9" stop-color="#e31587"/></radialGradient><radialGradient id="i" cx="-9871.35" cy="29548.4" r="32.71" gradientTransform="matrix(0.04, 0.33, 0.22, -0.02, -6104.31, 3849.31)" gradientUnits="userSpaceOnUse"><stop offset="0" stop-color="#fff44f"/><stop offset="0.06" stop-color="#ffe847"/><stop offset="0.17" stop-color="#ffc830"/><stop offset="0.3" stop-color="#ff980e"/><stop offset="0.36" stop-color="#ff8b16"/><stop offset="0.46" stop-color="#ff672a"/><stop offset="0.57" stop-color="#ff3647"/><stop offset="0.74" stop-color="#e31587"/></radialGradient><radialGradient id="j" cx="-5759.37" cy="8131.18" r="27.88" gradientTransform="matrix(0.34, 0, 0, -0.33, 1961.96, 2683.85)" gradientUnits="userSpaceOnUse"><stop offset="0.14" stop-color="#fff44f"/><stop offset="0.48" stop-color="#ff980e"/><stop offset="0.59" stop-color="#ff5634"/><stop offset="0.66" stop-color="#ff3647"/><stop offset="0.9" stop-color="#e31587"/></radialGradient><radialGradient id="k" cx="-5752.01" cy="8129.55" r="30.51" gradientTransform="matrix(0.34, 0, 0, -0.33, 1961.96, 2683.85)" gradientUnits="userSpaceOnUse"><stop offset="0.09" stop-color="#fff44f"/><stop offset="0.23" stop-color="#ffe141"/><stop offset="0.51" stop-color="#ffaf1e"/><stop offset="0.63" stop-color="#ff980e"/></radialGradient><linearGradient id="l" x1="2270.05" y1="-332.87" x2="2249.07" y2="-353.85" gradientTransform="matrix(0.33, 0, 0, -0.33, -740.25, -108.46)" gradientUnits="userSpaceOnUse"><stop offset="0.17" stop-color="#fff44f" stop-opacity="0.8"/><stop offset="0.27" stop-color="#fff44f" stop-opacity="0.63"/><stop offset="0.49" stop-color="#fff44f" stop-opacity="0.22"/><stop offset="0.6" stop-color="#fff44f" stop-opacity="0"/></linearGradient></defs><path d="M9.59,3.37a2.67,2.67,0,0,0-1-1.21,4.89,4.89,0,0,1,.5,1.45h0C8.54,2.27,7.59,1.72,6.81.53L6.7.35s0-.07-.06-.1A1.07,1.07,0,0,1,6.57.06h0A3.47,3.47,0,0,0,4.84,2.71a2.61,2.61,0,0,0-1.37.51l-.12-.09A2.12,2.12,0,0,1,3.33,2a3.58,3.58,0,0,0-1.19.89h0A2.4,2.4,0,0,1,2,1.65l-.17.08a3.15,3.15,0,0,0-.48.41,4,4,0,0,0-.47.53h0A4.11,4.11,0,0,0,.19,4.13v0s0,.25,0,.3h0a5,5,0,0,0-.08.66v0A4.87,4.87,0,0,0,5,10,4.91,4.91,0,0,0,9.89,6l0-.19A4.73,4.73,0,0,0,9.59,3.37ZM3.88,7.13l.06,0h0ZM9.1,3.62Z" fill="url(#a)"/><path d="M9.59,3.37a2.67,2.67,0,0,0-1-1.21,4.89,4.89,0,0,1,.5,1.45h0A4.23,4.23,0,0,1,9,6.86,4.31,4.31,0,0,1,4.85,9.2,5,5,0,0,1,.09,5.27a2.09,2.09,0,0,1,0-.8,3,3,0,0,0-.08.66v0A4.87,4.87,0,0,0,5,10,4.91,4.91,0,0,0,9.89,6l0-.19A4.73,4.73,0,0,0,9.59,3.37Z" fill="url(#b)"/><path d="M9.59,3.37a2.67,2.67,0,0,0-1-1.21,4.89,4.89,0,0,1,.5,1.45h0A4.23,4.23,0,0,1,9,6.86,4.31,4.31,0,0,1,4.85,9.2,5,5,0,0,1,.09,5.27a2.09,2.09,0,0,1,0-.8,3,3,0,0,0-.08.66v0A4.87,4.87,0,0,0,5,10,4.91,4.91,0,0,0,9.89,6l0-.19A4.73,4.73,0,0,0,9.59,3.37Z" fill="url(#c)"/><path d="M7.18,3.93l0,0a2.65,2.65,0,0,0-.47-.58A2.38,2.38,0,0,1,6.54.05h0a3.48,3.48,0,0,0-1.7,2.66H5A2.5,2.5,0,0,1,7.18,3.93Z" fill="url(#d)"/><path d="M5,4.23a1.14,1.14,0,0,1-.59.53c-1.41,0-1.64.83-1.64.83A2,2,0,0,0,4,7.16L4,7.2l.15.06a2.34,2.34,0,0,0,.64.12A2,2,0,0,0,6,3.65a1.82,1.82,0,0,1,1.2.28A2.52,2.52,0,0,0,5,2.71H4.84a2.61,2.61,0,0,0-1.37.51l.34.32A8.25,8.25,0,0,0,5,4.23Z" fill="url(#e)"/><path d="M5,4.23a1.14,1.14,0,0,1-.59.53c-1.41,0-1.64.83-1.64.83A2,2,0,0,0,4,7.16L4,7.2l.15.06a2.34,2.34,0,0,0,.64.12A2,2,0,0,0,6,3.65a1.82,1.82,0,0,1,1.2.28A2.52,2.52,0,0,0,5,2.71H4.84a2.61,2.61,0,0,0-1.37.51l.34.32A8.25,8.25,0,0,0,5,4.23Z" fill="url(#f)"/><path d="M3.24,3.06l.1.07A2.21,2.21,0,0,1,3.33,2a3.48,3.48,0,0,0-1.19.89A2.6,2.6,0,0,1,3.24,3.06Z" fill="url(#g)"/><path d="M.09,5.27A5,5,0,0,0,4.85,9.2,4.31,4.31,0,0,0,9,6.86,4.19,4.19,0,0,0,9.1,3.62h0A3.19,3.19,0,0,1,7.78,6.54h0A3.59,3.59,0,0,1,4,7.17l-.07,0A2.17,2.17,0,0,1,2.5,5a1.28,1.28,0,0,1-1.17-.72,2,2,0,0,1,1.82-.07A2.52,2.52,0,0,0,5,4.23a7.33,7.33,0,0,1-1.21-.69c-.18-.17-.26-.25-.34-.31l-.12-.1-.1-.06a2.56,2.56,0,0,0-1.11-.22h0A2.52,2.52,0,0,1,2,1.65l-.17.08a3.72,3.72,0,0,0-.48.41,4,4,0,0,0-.47.53h0A4.11,4.11,0,0,0,.19,4.13,3.37,3.37,0,0,0,.09,5.27Z" fill="url(#h)"/><path d="M6.75,3.38A2.39,2.39,0,0,1,7.22,4L7.29,4a2.24,2.24,0,0,1,.49,2.52A3.17,3.17,0,0,0,9.1,3.62C8.54,2.27,7.59,1.72,6.81.53A1.74,1.74,0,0,0,6.7.35L6.64.25A1.07,1.07,0,0,1,6.57.06h0A2.38,2.38,0,0,0,6.75,3.38Z" fill="url(#i)"/><path d="M7.29,4,7.22,4l0,0A1.73,1.73,0,0,0,6,3.65,2,2,0,0,1,4.82,7.38a2.34,2.34,0,0,1-.64-.12L4,7.2,4,7.16H4a3.55,3.55,0,0,0,3.83-.62h0A2.24,2.24,0,0,0,7.29,4Z" fill="url(#j)"/><path d="M2.78,5.59S3,4.76,4.42,4.76A1.17,1.17,0,0,0,5,4.24a2.54,2.54,0,0,1-1.86-.08,1.93,1.93,0,0,0-1.82.07A1.28,1.28,0,0,0,2.5,5,2.18,2.18,0,0,0,3.88,7.13l.06,0A2,2,0,0,1,2.78,5.59Z" fill="url(#k)"/><path d="M9.59,3.37a2.67,2.67,0,0,0-1-1.21,4.89,4.89,0,0,1,.5,1.45h0C8.54,2.27,7.59,1.72,6.81.53L6.7.35s0-.07-.06-.1A1.07,1.07,0,0,1,6.57.06h0A3.47,3.47,0,0,0,4.84,2.71H5A2.52,2.52,0,0,1,7.19,3.93,1.82,1.82,0,0,0,6,3.65,2,2,0,0,1,4.82,7.38a2.34,2.34,0,0,1-.64-.12L4,7.2,4,7.16H4l-.07,0,.06,0A2,2,0,0,1,2.78,5.59S3,4.76,4.41,4.76A1.16,1.16,0,0,0,5,4.23a7.75,7.75,0,0,1-1.2-.69l-.34-.32-.12-.09A2.12,2.12,0,0,1,3.34,2a3.52,3.52,0,0,0-1.2.89h0A2.4,2.4,0,0,1,2,1.65l-.17.08a3.77,3.77,0,0,0-.48.4,4.78,4.78,0,0,0-.47.54h0A4.11,4.11,0,0,0,.19,4.13v0l-.06.3h0a5.08,5.08,0,0,0-.07.67v0A4.87,4.87,0,0,0,5,10,4.91,4.91,0,0,0,9.89,6l0-.19A4.73,4.73,0,0,0,9.59,3.37Zm-.49.25Z" fill="url(#l)"/></svg>