<svg width="24" height="29" viewBox="0 0 24 29" fill="none" xmlns="http://www.w3.org/2000/svg">
<path d="M23.6795 7.18047L16.3432 0.300518C16.1386 0.108698 15.8625 0 15.5727 0H1.09091C0.4875 0 0 0.457172 0 1.02304V27.6221C0 28.188 0.4875 28.6452 1.09091 28.6452H22.9091C23.5125 28.6452 24 28.188 24 27.6221V7.90619C24 7.63445 23.8841 7.37229 23.6795 7.18047ZM21.4841 8.37615H15.0682V2.35939L21.4841 8.37615ZM21.5455 26.3433H2.45455V2.30184H12.75V9.20737C12.75 9.56349 12.9009 9.90502 13.1694 10.1568C13.4379 10.4086 13.8021 10.5501 14.1818 10.5501H21.5455V26.3433ZM13.0909 13.0438C13.0909 12.9031 12.9682 12.788 12.8182 12.788H11.1818C11.0318 12.788 10.9091 12.9031 10.9091 13.0438V16.4965H7.22727C7.07727 16.4965 6.95455 16.6116 6.95455 16.7523V18.2869C6.95455 18.4275 7.07727 18.5426 7.22727 18.5426H10.9091V21.9954C10.9091 22.1361 11.0318 22.2512 11.1818 22.2512H12.8182C12.9682 22.2512 13.0909 22.1361 13.0909 21.9954V18.5426H16.7727C16.9227 18.5426 17.0455 18.4275 17.0455 18.2869V16.7523C17.0455 16.6116 16.9227 16.4965 16.7727 16.4965H13.0909V13.0438Z" fill="black"/>
</svg>
