<?xml version="1.0" encoding="UTF-8"?>
<svg width="24px" height="12px" viewBox="0 0 24 12" version="1.1" xmlns="http://www.w3.org/2000/svg" xmlns:xlink="http://www.w3.org/1999/xlink">
    <!-- Generator: Sketch 47.1 (45422) - http://www.bohemiancoding.com/sketch -->
    <title>24px_Apigee_Analytics_White@3x</title>
    <desc>Created with Sketch.</desc>
    <defs></defs>
    <g id="Page-1" stroke="none" stroke-width="1" fill="none" fill-rule="evenodd">
        <g id="24px_Apigee_Analytics_White" transform="translate(0.000000, -6.000000)">
            <rect id="Rectangle" x="0" y="0" width="24" height="24"></rect>
            <g id="API_Analytics_Hex-Zerostate_42px" transform="translate(0.000000, 6.500000)" fill-rule="nonzero" fill="#FFFFFF">
                <path d="M1.76,10.2028571 C0.159626144,8.78636494 -0.397906617,6.52772425 0.359496544,4.52922804 C1.1168997,2.53073184 3.0313661,1.20894555 5.16857143,1.20894555 C7.30577676,1.20894555 9.22024315,2.53073184 9.97764631,4.52922804 C10.7350495,6.52772425 10.1775167,8.78636494 8.57714286,10.2028571 C6.62636203,11.9125916 3.71078082,11.9125916 1.76,10.2028571 L1.76,10.2028571 Z M8,3.95714286 C7.00590505,2.76149371 5.36915817,2.31697694 3.90680558,2.84549047 C2.44445299,3.374004 1.47007801,4.76221468 1.47007801,6.31714286 C1.47007801,7.87207104 2.44445299,9.26028172 3.90680558,9.78879525 C5.36915817,10.3173088 7.00590505,9.872792 8,8.67714286 C9.13496272,7.30849285 9.13496272,5.32579287 8,3.95714286 L8,3.95714286 Z" id="Shape"></path>
                <path d="M15.4285714,10.2028571 C13.8281976,8.78636494 13.2706648,6.52772425 14.028068,4.52922804 C14.7854711,2.53073184 16.6999375,1.20894555 18.8371429,1.20894555 C20.9743482,1.20894555 22.8888146,2.53073184 23.6462177,4.52922804 C24.4036209,6.52772425 23.8460881,8.78636494 22.2457143,10.2028571 C20.2949335,11.9125916 17.3793523,11.9125916 15.4285714,10.2028571 Z M21.6742857,3.95714286 C20.6801908,2.76149371 19.0434439,2.31697694 17.5810913,2.84549047 C16.1187387,3.374004 15.1443637,4.76221468 15.1443637,6.31714286 C15.1443637,7.87207104 16.1187387,9.26028172 17.5810913,9.78879525 C19.0434439,10.3173088 20.6801908,9.872792 21.6742857,8.67714286 C22.8092484,7.30849285 22.8092484,5.32579287 21.6742857,3.95714286 L21.6742857,3.95714286 Z" id="Shape"></path>
                <circle id="Oval" cx="5.16571429" cy="6.31714286" r="2.02857143"></circle>
                <circle id="Oval" cx="18.8342857" cy="6.31714286" r="2.02857143"></circle>
                <path d="M14.8571429,0.762857143 C15.0059509,0.676006866 15.0754944,0.498222334 15.025111,0.333454845 C14.9747275,0.168687355 14.8176467,0.0602011674 14.6457143,0.0714285714 L9.34857143,0.0714285714 C9.17778696,0.0631999899 9.02344886,0.17262459 8.97469027,0.336507613 C8.92593169,0.500390636 8.99535095,0.676387677 9.14285714,0.762857143 C10.3485642,1.62441649 11.2427231,2.85338382 11.6914286,4.26571429 C11.7396404,4.39937688 11.8664797,4.48846434 12.0085714,4.48846434 C12.1506632,4.48846434 12.2775025,4.39937688 12.3257143,4.26571429 C12.7698905,2.8557558 13.6578182,1.62708846 14.8571429,0.762857143 Z" id="Shape"></path>
            </g>
        </g>
    </g>
</svg>