<?xml version="1.0" encoding="UTF-8"?>
<svg width="22px" height="21px" viewBox="0 0 22 21" version="1.1" xmlns="http://www.w3.org/2000/svg" xmlns:xlink="http://www.w3.org/1999/xlink">
    <!-- Generator: Sketch 46.1 (44463) - http://www.bohemiancoding.com/sketch -->
    <title>Icon_API-Analytics_White@3x</title>
    <desc>Created with Sketch.</desc>
    <defs></defs>
    <g id="Spanner" stroke="none" stroke-width="1" fill="none" fill-rule="evenodd">
        <g id="Apigee-API-Analytics" transform="translate(-137.000000, -254.000000)" fill-rule="nonzero" fill="#FFFFFF">
            <path d="M154.78506,264.334746 L156.672602,262.447204 C158.502612,260.459795 158.43838,257.382434 156.527035,255.473116 C154.61569,253.563798 151.538262,253.50283 149.552796,255.334949 L147.665254,257.22249 L145.777713,255.334949 C143.787019,253.54162 140.740685,253.621011 138.846102,255.515594 C136.95152,257.410177 136.872129,260.456511 138.665457,262.447204 L140.552998,264.334746 L138.665457,266.222287 C137.282161,267.468437 136.699269,269.376125 137.149836,271.18261 C137.600403,272.989095 139.010905,274.399597 140.81739,274.850164 C142.623875,275.300731 144.531563,274.717839 145.777713,273.334543 L147.665254,271.447002 L149.552796,273.334543 C150.798946,274.717839 152.706633,275.300731 154.513118,274.850164 C156.319603,274.399597 157.730105,272.989095 158.180672,271.18261 C158.631239,269.376125 158.048347,267.468437 156.665051,266.222287 L154.78506,264.334746 Z M147.665254,267.671919 C146.780181,267.671919 145.931358,267.320325 145.305516,266.694484 C144.679675,266.068642 144.328081,265.219819 144.328081,264.334746 L144.328081,264.334746 C144.328081,262.491676 145.822184,260.997573 147.665254,260.997573 L147.665254,260.997573 C148.550328,260.997573 149.399151,261.349167 150.024992,261.975008 C150.650833,262.600849 151.002427,263.449672 151.002427,264.334746 L151.002427,264.334746 C151.002427,265.219819 150.650833,266.068642 150.024992,266.694484 C149.399151,267.320325 148.550328,267.671919 147.665254,267.671919 Z M150.926926,256.724179 C152.141268,255.604916 154.022211,255.642402 155.190994,256.80916 C156.359777,257.975917 156.400526,259.856792 155.283371,261.073074 L153.39583,262.960616 L149.046935,258.59662 L150.926926,256.724179 Z M140.047137,261.073074 C138.844138,259.870075 138.844138,257.919628 140.047137,256.716629 C141.250137,255.51363 143.200584,255.51363 144.403583,256.716629 L146.291124,258.60417 L141.927128,262.953065 L140.047137,261.073074 Z M144.403583,271.952863 C143.625379,272.731067 142.491122,273.03499 141.428075,272.750148 C140.365029,272.465305 139.534695,271.634971 139.249852,270.571925 C138.96501,269.508878 139.268933,268.374621 140.047137,267.596417 L141.934679,265.708876 L146.283574,270.072872 L144.403583,271.952863 Z M155.283371,271.952863 C154.080806,273.15335 152.133266,273.15335 150.930701,271.952863 L149.043159,270.065321 L153.40338,265.716426 L155.290921,267.603967 C156.486814,268.808176 156.483438,270.752814 155.283371,271.952863 L155.283371,271.952863 Z" id="Icon_API-Analytics_White"></path>
        </g>
    </g>
</svg>