<?xml version="1.0" encoding="UTF-8"?>
<svg width="127px" height="115px" viewBox="0 0 127 115" version="1.1" xmlns="http://www.w3.org/2000/svg" xmlns:xlink="http://www.w3.org/1999/xlink">
    <!-- Generator: Sketch 46.1 (44463) - http://www.bohemiancoding.com/sketch -->
    <title>API_Platform 128px Blue Hexagon@3x</title>
    <desc>Created with Sketch.</desc>
    <defs></defs>
    <g id="Page-1" stroke="none" stroke-width="1" fill="none" fill-rule="evenodd">
        <g id="API_Platform-128px-Blue-Hexagon" fill-rule="nonzero">
            <g id="BASE" fill="#4285F4">
                <path d="M125.489612,51.715969 L99.3934884,6.33054264 C97.3966493,2.78940176 93.6746023,0.56976319 89.6099225,0.496124031 L37.4077519,0.496124031 C33.3425006,0.567759166 29.6195336,2.78794639 27.624186,6.33054264 L1.51813953,51.5968992 C-0.501426804,55.1111889 -0.501426804,59.4339274 1.51813953,62.9482171 L27.6142636,108.591628 C29.5891586,112.18311 33.3022211,114.476472 37.3978295,114.634419 L89.6,114.634419 C93.6953911,114.493842 97.4151208,112.209996 99.3934884,108.621395 L125.489612,63.235969 C127.523213,59.6652094 127.523213,55.2867285 125.489612,51.715969 Z" id="Shape"></path>
            </g>
            <g id="art" transform="translate(37.705426, 32.744186)" fill="#000000" opacity="0.07">
                <path d="M49.5131783,1.22046512 L31.6527132,2.6096124 L25.2031008,9.05922481 L16.620155,0.496124031 L3.60186047,2.36155039 L1.12124031,14.5165891 L11.0437209,24.4390698 L0.873178295,34.6096124 L2.14325581,48.5010853 L35.5324031,81.8604651 L51.8945736,81.8604651 C55.9899648,81.7198884 59.7096945,79.4360422 61.688062,75.8474419 L84.5097674,36.1575194 L49.5131783,1.22046512 Z" id="Shape"></path>
            </g>
            <g id="Guides" transform="translate(34.728682, 29.767442)" fill="#FFFFFF">
                <path d="M47.4889922,27.7829457 L52.4502326,22.8217054 C57.2602577,17.5979703 57.0914288,9.50939068 52.0676229,4.49091228 C47.043817,-0.527566119 38.9550628,-0.68781294 33.7364341,4.12775194 L28.7751938,9.08899225 L23.8139535,4.12775194 C18.5815858,-0.585857347 10.574559,-0.377185457 5.59481082,4.60256276 C0.615062605,9.58231097 0.406390715,17.5893377 5.12,22.8217054 L10.0812403,27.7829457 L5.12,32.744186 C1.48412552,36.019585 -0.0479550378,41.0337773 1.13632119,45.7819676 C2.32059741,50.5301579 6.02798162,54.2375421 10.7761719,55.4218183 C15.5243622,56.6060946 20.5385546,55.074014 23.8139535,51.4381395 L28.7751938,46.4768992 L33.7364341,51.4381395 C37.011833,55.074014 42.0260254,56.6060946 46.7742157,55.4218183 C51.522406,54.2375421 55.2297902,50.5301579 56.4140664,45.7819676 C57.5983426,41.0337773 56.0662621,36.019585 52.4303876,32.744186 L47.4889922,27.7829457 Z M28.7751938,36.5544186 C26.4488546,36.5544186 24.2177961,35.6302839 22.5728259,33.9853137 C20.9278556,32.3403434 20.0037209,30.109285 20.0037209,27.7829457 L20.0037209,27.7829457 C20.0037209,22.938595 23.9308431,19.0114729 28.7751938,19.0114729 L28.7751938,19.0114729 C31.101533,19.0114729 33.3325915,19.9356075 34.9775617,21.5805778 C36.622532,23.225548 37.5466667,25.4566065 37.5466667,27.7829457 L37.5466667,27.7829457 C37.5466667,30.109285 36.622532,32.3403434 34.9775617,33.9853137 C33.3325915,35.6302839 31.101533,36.5544186 28.7751938,36.5544186 Z M37.3482171,7.77922481 C40.5400119,4.83733863 45.4839079,4.93586829 48.5559538,8.00259006 C51.6279997,11.0693118 51.7351049,16.0130294 48.7987597,19.2099225 L43.8375194,24.1711628 L32.4068217,12.7007752 L37.3482171,7.77922481 Z M8.75162791,19.2099225 C5.58964808,16.0479424 5.58964818,10.92136 8.75162813,7.75938007 C11.9136081,4.59740012 17.0401905,4.59740002 20.2021705,7.75937984 L25.1634109,12.7206202 L13.6930233,24.1513178 L8.75162791,19.2099225 Z M20.2021705,47.8065116 C18.1567281,49.8519541 15.1754308,50.6507903 12.3813045,49.9021064 C9.58717815,49.1534225 7.40471705,46.9709614 6.65603316,44.1768351 C5.90734927,41.3827087 6.70618547,38.4014114 8.75162791,36.355969 L13.7128682,31.3947287 L25.1435659,42.8651163 L20.2021705,47.8065116 Z M48.7987597,47.8065116 C45.6379207,50.9618891 40.5189785,50.9618891 37.3581395,47.8065116 L32.3968992,42.8452713 L43.8573643,31.4145736 L48.8186047,36.375814 C51.9619054,39.5409718 51.9530316,44.6522871 48.7987597,47.8065116 L48.7987597,47.8065116 Z" id="Shape"></path>
            </g>
        </g>
    </g>
</svg>