<svg xmlns="http://www.w3.org/2000/svg" viewBox="0 0 128 128"><defs><style>.cls-1{fill:#4285f4;}.cls-2{opacity:0.07;}.cls-3{fill:#fff;}</style></defs><title>API_Analytics_Hex 128px</title><g id="BASE"><path class="cls-1" d="M126.47,58.12l-26.3-45.74A11.56,11.56,0,0,0,90.31,6.5H37.7a11.55,11.55,0,0,0-9.86,5.88L1.53,58a11.48,11.48,0,0,0,0,11.44l26.3,46a11.77,11.77,0,0,0,9.86,6.09H90.3a11.73,11.73,0,0,0,9.87-6.06l26.3-45.74A11.73,11.73,0,0,0,126.47,58.12Z"/></g><g id="shadow"><path class="cls-2" d="M92.8,54,77,52.28,72,47.2,56,48.63l7.28,7.28,0,2.75,6.73,6.73L70.32,69,55.22,53.91l-18.54-.58L32.5,65.87,35.24,74,82.73,121.5H90.3a11.73,11.73,0,0,0,9.87-6.06l19.74-34.33Z"/></g><g id="art"><path class="cls-3" d="M35.91,74.64a14.17,14.17,0,1,1,18.69,0A14.19,14.19,0,0,1,35.91,74.64ZM53,57.51a10.12,10.12,0,1,0,0,12.95A10.13,10.13,0,0,0,53,57.51Z"/><path class="cls-3" d="M73.4,74.64a14.17,14.17,0,1,1,18.69,0A14.19,14.19,0,0,1,73.4,74.64ZM90.53,57.51a10.12,10.12,0,1,0,0,12.95A10.13,10.13,0,0,0,90.53,57.51Z"/><circle class="cls-3" cx="45.26" cy="63.99" r="5.57"/><circle class="cls-3" cx="82.74" cy="63.99" r="5.57"/><path class="cls-3" d="M71.85,48.75a1,1,0,0,0-.59-1.84H56.74a1,1,0,0,0-.59,1.84,18.82,18.82,0,0,1,7,9.6.93.93,0,0,0,1.74,0A18.82,18.82,0,0,1,71.85,48.75Z"/></g></svg>