<svg xmlns="http://www.w3.org/2000/svg" viewBox="0 0 128 128"><defs><style>.cls-1{fill:#4285f4;}.cls-2{opacity:0.07;}.cls-3{fill:#fff;}</style></defs><title>API_Monetization_Hex 128px</title><g id="BASE"><path class="cls-1" d="M126.47,58.12l-26.3-45.74A11.56,11.56,0,0,0,90.31,6.5H37.7a11.55,11.55,0,0,0-9.86,5.88L1.53,58a11.48,11.48,0,0,0,0,11.44l26.3,46a11.77,11.77,0,0,0,9.86,6.09H90.3a11.73,11.73,0,0,0,9.87-6.06l26.3-45.74A11.73,11.73,0,0,0,126.47,58.12Z"/></g><g id="shadow"><path class="cls-2" d="M84.58,36.58,79,42.12l5.63,5.63L79,53.13l5.5,5.5-2.74-.58L71.33,47.58l-5.55,5.55,5.59,5.59-5.59,5.41,5.53,5.53-2,.2L58.08,58.59l-5.55,5.55,5.61,5.61-3,10.2L44.82,69.6l-5.53,16.7L74.5,121.5H90.3a11.73,11.73,0,0,0,9.87-6.06l23.1-40.17Z"/></g><g id="art"><path class="cls-3" d="M46,83.51a3.92,3.92,0,0,1-7.85,0V72.37a3.92,3.92,0,0,1,7.85,0Z"/><path class="cls-3" d="M59.23,83.51a3.92,3.92,0,1,1-7.85,0V72.37a3.92,3.92,0,1,1,7.85,0Z"/><path class="cls-3" d="M72.48,83.51a3.92,3.92,0,1,1-7.85,0V72.37a3.92,3.92,0,1,1,7.85,0Z"/><path class="cls-3" d="M85.73,83.51a3.92,3.92,0,0,1-7.85,0V72.37a3.92,3.92,0,0,1,7.85,0Z"/><circle class="cls-3" cx="55.31" cy="61.36" r="3.92" transform="translate(-27.19 57.08) rotate(-45)"/><circle class="cls-3" cx="68.56" cy="61.36" r="3.92" transform="translate(-23.31 66.45) rotate(-45)"/><circle class="cls-3" cx="68.56" cy="50.36" r="3.92" transform="translate(-15.53 63.23) rotate(-45)"/><circle class="cls-3" cx="81.81" cy="61.36" r="3.92" transform="translate(-19.43 75.82) rotate(-45)"/><circle class="cls-3" cx="81.81" cy="50.36" r="3.92" transform="translate(-11.65 72.6) rotate(-45)"/><circle class="cls-3" cx="81.81" cy="39.35" r="3.92" transform="translate(-3.86 69.37) rotate(-45)"/></g></svg>