<?xml version="1.0" encoding="UTF-8" standalone="no"?>
<svg width="26px" height="26px" viewBox="0 0 26 26" version="1.1" xmlns="http://www.w3.org/2000/svg" xmlns:xlink="http://www.w3.org/1999/xlink">
    <!-- Generator: Sketch 39.1 (31720) - http://www.bohemiancoding.com/sketch -->
    <title>api? copy</title>
    <desc>Created with Sketch.</desc>
    <defs></defs>
    <g id="Page-1" stroke="none" stroke-width="1" fill="none" fill-rule="evenodd">
        <g id="Layer_1-Copy-12" transform="translate(1.000000, 1.000000)" fill="#FFFFFF">
            <path d="M17.3985789,12.1354421 L12.1354421,17.5370825 L6.87230531,12.1354421 L12.1354421,6.73380171 L17.3985789,12.1354421 L17.3985789,12.1354421 Z M12.1354421,15.6392088 L15.5493687,12.1354421 L12.1354421,8.63167536 L8.72151553,12.1354421 L12.1354421,15.6392088 L12.1354421,15.6392088 Z" id="Shape"></path>
            <polygon id="Shape" points="17.2207702 15.7851991 20.3146412 15.7851991 23.8708147 12.1354421 20.3146412 8.48568508 17.2207702 8.48568508 20.7769437 12.1354421"></polygon>
            <polygon id="Shape" points="8.57926859 17.3545946 8.57926859 20.5298832 12.1354421 24.1796403 15.6916156 20.5298832 15.6916156 17.3545946 12.1354421 20.9678541"></polygon>
            <polygon id="Shape" points="12.1354421 0.0912439255 8.57926859 3.74100095 8.57926859 6.91628956 12.1354421 3.26653253 15.6916156 6.91628956 15.6916156 3.74100095"></polygon>
            <polygon id="Shape" points="7.05011398 8.48568508 3.95624303 8.48568508 0.40006952 12.1354421 3.95624303 15.7851991 7.05011398 15.7851991 3.49394047 12.1354421"></polygon>
        </g>
    </g>
</svg>