<?xml version="1.0" encoding="UTF-8"?>
<svg width="22px" height="24px" viewBox="0 0 22 24" version="1.1" xmlns="http://www.w3.org/2000/svg" xmlns:xlink="http://www.w3.org/1999/xlink">
    <!-- Generator: Sketch 47.1 (45422) - http://www.bohemiancoding.com/sketch -->
    <title>424px_Apigee_Monetization_White@3x</title>
    <desc>Created with Sketch.</desc>
    <defs></defs>
    <g id="Page-1" stroke="none" stroke-width="1" fill="none" fill-rule="evenodd">
        <g id="424px_Apigee_Monetization_White" transform="translate(-1.000000, -1.000000)">
            <rect id="Rectangle-Copy" x="0" y="1" width="24" height="24"></rect>
            <path d="M4.96993939,22.7658182 C4.96993939,23.7419898 4.17859591,24.5333333 3.20242424,24.5333333 C2.22625258,24.5333333 1.43490909,23.7419898 1.43490909,22.7658182 L1.43490909,17.7476364 C1.43490909,16.7714647 2.22625258,15.9801212 3.20242424,15.9801212 C4.17859591,15.9801212 4.96993939,16.7714647 4.96993939,17.7476364 L4.96993939,22.7658182 Z" id="Shape" fill="#FFFFFF" fill-rule="nonzero"></path>
            <path d="M10.936,22.7658182 C10.936,23.3972905 10.5991135,23.9807951 10.0522424,24.2965312 C9.50537134,24.6122674 8.83159836,24.6122674 8.28472726,24.2965312 C7.73785617,23.9807951 7.40096968,23.3972905 7.4009697,22.7658182 L7.4009697,17.7476364 C7.4009697,16.7714647 8.19231319,15.9801212 9.16848485,15.9801212 C10.1446565,15.9801212 10.936,16.7714647 10.936,17.7476364 L10.936,22.7658182 Z" id="Shape" fill="#FFFFFF" fill-rule="nonzero"></path>
            <path d="M16.9020606,22.7658182 C16.9020606,23.7419898 16.1107171,24.5333333 15.1345455,24.5333333 C14.1583738,24.5333333 13.3670303,23.7419898 13.3670303,22.7658182 L13.3670303,17.7476364 C13.3670303,16.7714647 14.1583738,15.9801212 15.1345455,15.9801212 C16.1107171,15.9801212 16.9020606,16.7714647 16.9020606,17.7476364 L16.9020606,22.7658182 Z" id="Shape" fill="#FFFFFF" fill-rule="nonzero"></path>
            <path d="M22.8681212,22.7658182 C22.8681212,23.7419898 22.0767777,24.5333333 21.1006061,24.5333333 C20.1244344,24.5333333 19.3330909,23.7419898 19.3330909,22.7658182 L19.3330909,17.7476364 C19.3330909,16.7714647 20.1244344,15.9801212 21.1006061,15.9801212 C22.0767777,15.9801212 22.8681212,16.7714647 22.8681212,17.7476364 L22.8681212,22.7658182 Z" id="Shape" fill="#FFFFFF" fill-rule="nonzero"></path>
            <circle id="Oval" fill="#FFFFFF" fill-rule="nonzero" transform="translate(9.168545, 12.795062) rotate(-45.000000) translate(-9.168545, -12.795062) " cx="9.16854517" cy="12.7950622" r="1.76751515"></circle>
            <circle id="Oval" fill="#FFFFFF" fill-rule="nonzero" transform="translate(15.137975, 12.797269) rotate(-45.000000) translate(-15.137975, -12.797269) " cx="15.137975" cy="12.7972688" r="1.76751515"></circle>
            <circle id="Oval" fill="#FFFFFF" fill-rule="nonzero" transform="translate(15.134530, 7.836975) rotate(-45.000000) translate(-15.134530, -7.836975) " cx="15.1345295" cy="7.83697489" r="1.76751515"></circle>
            <circle id="Oval" fill="#FFFFFF" fill-rule="nonzero" transform="translate(21.101829, 12.793900) rotate(-45.000000) translate(-21.101829, -12.793900) " cx="21.101829" cy="12.7938996" r="1.76751515"></circle>
            <circle id="Oval" fill="#FFFFFF" fill-rule="nonzero" transform="translate(21.103959, 7.839181) rotate(-45.000000) translate(-21.103959, -7.839181) " cx="21.1039593" cy="7.83918146" r="1.76751515"></circle>
            <circle id="Oval" fill="#FFFFFF" fill-rule="nonzero" transform="translate(21.100514, 2.884463) rotate(-45.000000) translate(-21.100514, -2.884463) " cx="21.1005139" cy="2.88446332" r="1.76751515"></circle>
        </g>
    </g>
</svg>