<?xml version="1.0" encoding="UTF-8"?>
<svg width="32px" height="32px" viewBox="0 0 32 32" version="1.1" xmlns="http://www.w3.org/2000/svg" xmlns:xlink="http://www.w3.org/1999/xlink">
    <!-- Generator: Sketch 46.1 (44463) - http://www.bohemiancoding.com/sketch -->
    <title>32px_API_Platform Colored@3x</title>
    <desc>Created with Sketch.</desc>
    <defs></defs>
    <g id="Spanner" stroke="none" stroke-width="1" fill="none" fill-rule="evenodd">
        <g id="Cloud-Products-Page" transform="translate(-513.000000, -1580.000000)" fill-rule="nonzero" fill="#2B85E7">
            <g id="32px_API_Platform-Colored" transform="translate(513.000000, 1580.000000)">
                <path d="M14.5749481,25.417301 L18.8600692,29.7024221 C20.796869,31.639222 23.6198163,32.3956285 26.265534,31.6867105 C28.9112518,30.9777926 30.9777926,28.9112518 31.6867105,26.265534 C32.3956285,23.6198163 31.639222,20.796869 29.7024221,18.8600692 L25.417301,14.5749481 L14.5749481,25.417301 Z M17.2157785,6.383391 L13.1299654,2.29757785 C10.1295313,-0.655810196 5.30842455,-0.635654402 2.33278959,2.34271804 C-0.642845381,5.32109048 -0.658567966,10.1422137 2.29757785,13.1399308 L6.383391,17.2257439 L17.2157785,6.383391 Z M4.41024221,11.017301 C2.80033751,9.16041515 2.89943096,6.37500813 4.63721954,4.63721954 C6.37500813,2.89943096 9.16041515,2.80033751 11.017301,4.41024221 L14.4055363,7.79847751 L7.78851211,14.4254671 L4.41024221,11.017301 Z M27.5897578,27.5897578 C26.7112575,28.4691035 25.5192479,28.963186 24.276263,28.963186 C23.033278,28.963186 21.8412684,28.4691035 20.9627682,27.5897578 L17.7140484,24.3410381 L24.3410381,17.7140484 L27.5897578,20.982699 C29.4077353,22.8098802 29.4077353,25.7625766 27.5897578,27.5897578 Z" id="Shape"></path>
                <path d="M26.8423529,16 L29.7024221,13.1399308 C32.6964552,10.1458977 32.6964552,5.29161095 29.7024221,2.29757785 C26.7083891,-0.696455236 21.8541023,-0.696455236 18.8600692,2.29757785 L16,5.15764706 L5.15764706,16 L2.29757785,18.8600692 C-0.696455236,21.8541023 -0.696455236,26.7083891 2.29757785,29.7024221 C5.29161095,32.6964552 10.1458977,32.6964552 13.1399308,29.7024221 L16,26.8423529 L26.8423529,16 Z M16,21.0823529 C13.193094,21.0823529 10.9176471,18.806906 10.9176471,16 L10.9176471,16 C10.9176471,13.193094 13.193094,10.9176471 16,10.9176471 L16,10.9176471 C18.806906,10.9176471 21.0823529,13.193094 21.0823529,16 L21.0823529,16 C21.0823529,18.806906 18.806906,21.0823529 16,21.0823529 Z M20.982699,4.41024221 C22.8395848,2.80033751 25.6249919,2.89943096 27.3627805,4.63721954 C29.100569,6.37500813 29.1996625,9.16041515 27.5897578,11.017301 L24.7296886,13.8773702 L18.102699,7.27031142 L20.982699,4.41024221 Z M11.017301,27.5897578 C9.16041515,29.1996625 6.37500813,29.100569 4.63721954,27.3627805 C2.89943096,25.6249919 2.80033751,22.8395848 4.41024221,20.982699 L7.27031142,18.1226298 L13.897301,24.7496194 L11.017301,27.5897578 Z" id="Shape"></path>
            </g>
        </g>
    </g>
</svg>