<?xml version="1.0" encoding="UTF-8"?>
<svg width="24px" height="24px" viewBox="0 0 24 24" version="1.1" xmlns="http://www.w3.org/2000/svg" xmlns:xlink="http://www.w3.org/1999/xlink">
    <!-- Generator: Sketch 47.1 (45422) - http://www.bohemiancoding.com/sketch -->
    <title>24px_Apigee_Sense_White@3x</title>
    <desc>Created with Sketch.</desc>
    <defs></defs>
    <g id="Page-1" stroke="none" stroke-width="1" fill="none" fill-rule="evenodd">
        <g id="24px_Apigee_Sense_White" fill-rule="nonzero" fill="#FFFFFF">
            <path d="M23.3028571,8.42285714 L22.8571429,8.31428571 L21.5485714,8 C21.5142857,7.92 21.4742857,7.84571429 21.44,7.77142857 C21.4057143,7.69714286 21.3371429,7.53714286 21.28,7.42285714 C21.2228571,7.30857143 21.1657143,7.20571429 21.1085714,7.09714286 C21.0514286,6.98857143 20.9885714,6.87428571 20.9257143,6.76571429 L20.7314286,6.45142857 L20.5257143,6.13714286 L20.3085714,5.83428571 L20.08,5.53714286 L19.84,5.25142857 L19.5942857,4.97142857 L19.3314286,4.70285714 L19.0628571,4.44571429 L18.7828571,4.2 L18.4971429,3.96 L18.2,3.73142857 L17.9028571,3.51428571 L17.5885714,3.30857143 L17.2742857,3.11428571 L16.9428571,2.93142857 L16.6171429,2.76 L16.2685714,2.6 L16,2.45142857 L15.6857143,1.14285714 L15.5771429,0.72 C15.4792281,0.299885422 15.1056552,0.00197287719 14.6742857,-2.47665022e-16 L9.32571429,-2.47665022e-16 C8.90102199,-0.000626991093 8.52968124,0.286104475 8.42285714,0.697142857 L8.31428571,1.14285714 L8,2.45142857 L7.77142857,2.56 L7.42285714,2.72 L7.09714286,2.89142857 L6.76571429,3.07428571 L6.45142857,3.26857143 L6.13714286,3.47428571 L5.83428571,3.69142857 L5.53714286,3.92 L5.25142857,4.16 L4.97142857,4.40571429 L4.70285714,4.66857143 L4.44,4.93714286 L4.19428571,5.21714286 L3.95428571,5.50285714 L3.72571429,5.8 L3.50857143,6.09714286 L3.30285714,6.41142857 L3.10857143,6.72571429 C3.04571429,6.83428571 2.98285714,6.94857143 2.92571429,7.05714286 C2.86857143,7.16571429 2.80571429,7.27428571 2.75428571,7.38857143 C2.70285714,7.50285714 2.64571429,7.61714286 2.59428571,7.73714286 C2.54285714,7.85714286 2.52,7.88571429 2.48571429,7.96571429 L1.14285714,8.31428571 L0.72,8.42285714 C0.299885422,8.52077189 0.00197287719,8.89434476 -2.44799933e-16,9.32571429 L-2.44799933e-16,14.6685714 C-0.000626991093,15.0932637 0.286104475,15.4646045 0.697142857,15.5714286 L1.12,15.68 L2.45142857,16.0228571 C2.48571429,16.1028571 2.52571429,16.1771429 2.56,16.2514286 C2.59428571,16.3257143 2.66285714,16.4857143 2.72,16.5942857 C2.77714286,16.7028571 2.83428571,16.8171429 2.89142857,16.9257143 C2.94857143,17.0342857 3.01142857,17.1485714 3.07428571,17.2571429 L3.26857143,17.5714286 L3.47428571,17.8857143 L3.69142857,18.1885714 L3.92,18.4857143 L4.16,18.7714286 L4.40571429,19.0514286 L4.66857143,19.32 L4.93714286,19.5828571 L5.21714286,19.8285714 L5.50285714,20.0685714 L5.8,20.2971429 L6.09714286,20.5142857 L6.41142857,20.72 L6.72571429,20.9142857 L7.05714286,21.0971429 L7.38857143,21.2685714 L7.73714286,21.4285714 L7.96571429,21.5371429 L8.30857143,22.8685714 L8.41714286,23.2914286 C8.52005596,23.7090782 8.89557644,24.0019369 9.32571429,24 L14.6685714,24 C15.0932637,24.000627 15.4646045,23.7138955 15.5714286,23.3028571 L15.68,22.88 L16.0228571,21.5485714 L16.2514286,21.44 L16.5942857,21.28 L16.9257143,21.1085714 L17.2571429,20.9257143 L17.5714286,20.7314286 L17.8857143,20.5257143 L18.1885714,20.3085714 L18.4857143,20.08 L18.7714286,19.84 L19.0514286,19.5942857 L19.32,19.3314286 L19.5771429,19.0628571 L19.8228571,18.7828571 L20.0628571,18.4971429 L20.2914286,18.2 L20.5085714,17.9028571 L20.7142857,17.5885714 L20.9085714,17.2742857 C20.9714286,17.1657143 21.0342857,17.0514286 21.0914286,16.9428571 C21.1485714,16.8342857 21.2114286,16.7257143 21.2628571,16.6171429 C21.3142857,16.5085714 21.3714286,16.3885714 21.4228571,16.2685714 C21.4742857,16.1485714 21.4971429,16.12 21.5314286,16.04 L22.8628571,15.6971429 L23.2857143,15.5885714 C23.7077258,15.4874199 24.0039661,15.1082323 24,14.6742857 L24,9.32571429 C24.000627,8.90102199 23.7138955,8.52968124 23.3028571,8.42285714 Z M12,20 C8.61643637,19.9983192 5.59982439,17.8681669 4.4662754,14.6801311 C3.3327264,11.4920953 4.32740144,7.93567607 6.95038931,5.79828507 C9.57337719,3.66089408 13.2573849,3.40480074 16.1508763,5.15871436 C19.0443677,6.91262799 20.5215461,10.2972167 19.84,13.6114286 C19.0748445,17.3322152 15.7986461,20.001887 12,20 Z" id="Shape"></path>
            <path d="M12,5.85142857 C11.5501853,5.85175461 11.1017723,5.90157828 10.6628571,6 L10.9942857,7.48 C12.9118954,7.05313593 14.8900638,7.88330163 15.9287404,9.55081201 C16.9674169,11.2183224 16.8402918,13.3598557 15.6116324,14.8927731 C14.3829729,16.4256904 12.3204828,17.0159957 10.4668411,16.3652636 C8.61319941,15.7145316 7.37228266,13.9645455 7.37142857,12 L5.85142857,12 C5.85142857,15.3957622 8.60423777,18.1485714 12,18.1485714 C15.3957622,18.1485714 18.1485714,15.3957622 18.1485714,12 C18.1485714,8.60423777 15.3957622,5.85142857 12,5.85142857 Z" id="Shape"></path>
            <path d="M12,8.90285714 C11.773191,8.90276281 11.547063,8.92767522 11.3257143,8.97714286 L11.6571429,10.4571429 C12.3104279,10.3141875 12.982847,10.5987796 13.3350182,11.1672802 C13.6871893,11.7357809 13.6425385,12.4645789 13.2236018,12.9858366 C12.804665,13.5070942 12.1025335,13.7074725 11.4715857,13.4858368 C10.8406378,13.2642011 10.4180632,12.6687426 10.4171429,12 L8.90285714,12 C8.90285714,13.7105048 10.2894952,15.0971429 12,15.0971429 C13.7105048,15.0971429 15.0971429,13.7105048 15.0971429,12 C15.0971429,10.2894952 13.7105048,8.90285714 12,8.90285714 Z" id="Shape"></path>
        </g>
    </g>
</svg>