<svg xmlns="http://www.w3.org/2000/svg" viewBox="0 0 128 128"><defs><style>.cls-1{fill:#4285f4;}.cls-2{opacity:0.07;}.cls-3{fill:#fff;}</style></defs><title>Apigee_Sense_Hex 128px</title><g id="BASE"><path class="cls-1" d="M126.47,58.12l-26.3-45.74A11.56,11.56,0,0,0,90.31,6.5H37.7a11.55,11.55,0,0,0-9.86,5.88L1.53,58a11.48,11.48,0,0,0,0,11.44l26.3,46a11.77,11.77,0,0,0,9.86,6.09H90.3a11.73,11.73,0,0,0,9.87-6.06l26.3-45.74A11.73,11.73,0,0,0,126.47,58.12Z"/></g><g id="shadow"><path class="cls-2" d="M72.85,32.8,46.17,46.5,32.81,72.86,81.45,121.5H90.3a11.73,11.73,0,0,0,9.87-6.06l20.19-35.12Z"/></g><g id="art"><path class="cls-3" d="M94.06,54.49l-1.12-.29-3.54-.92c-.09-.21-.19-.4-.28-.61s-.28-.62-.43-.92-.3-.58-.46-.87-.32-.59-.49-.88-.35-.56-.52-.84-.36-.56-.55-.84-.39-.53-.58-.8-.4-.53-.61-.79-.42-.51-.64-.76-.43-.5-.66-.74-.46-.48-.69-.71-.47-.47-.71-.69-.49-.44-.74-.66-.5-.43-.75-.64-.53-.41-.79-.61l-.79-.58-.84-.55L78,40.28l-.88-.49-.87-.46-.92-.43-.61-.28-.92-3.55-.29-1.12a2.48,2.48,0,0,0-2.4-1.86H56.89a2.48,2.48,0,0,0-2.4,1.86l-.29,1.12-.92,3.54-.61.28-.92.43-.87.46-.88.49-.84.52-.84.55-.8.58c-.27.2-.53.4-.79.61s-.51.42-.76.64-.5.43-.74.66-.47.46-.71.69-.47.47-.69.71-.44.49-.66.74-.43.5-.64.75-.41.53-.61.79-.39.53-.58.8-.37.56-.55.84-.35.55-.52.84-.33.59-.49.88-.31.58-.46.87-.29.61-.43.92-.2.4-.28.61l-3.55.92-1.12.29a2.48,2.48,0,0,0-1.86,2.4V71.11a2.48,2.48,0,0,0,1.86,2.4l1.12.29,3.54.92c.09.21.19.4.28.61s.28.62.43.92.3.59.46.88.32.59.49.88.35.56.52.84.36.56.55.84.39.53.58.8.4.53.61.79.42.51.64.75.43.5.66.74.46.47.69.71.47.47.71.69.49.44.74.66.5.43.75.64.53.41.79.61l.8.58.84.55.84.52.88.49.87.46.92.43.61.28.92,3.54.29,1.12a2.48,2.48,0,0,0,2.4,1.86H71.11a2.48,2.48,0,0,0,2.4-1.86l.29-1.12.92-3.54.61-.28.92-.43.88-.46.88-.49.84-.52.84-.55.8-.58c.27-.2.53-.4.79-.61s.51-.42.76-.64.5-.43.74-.66.48-.46.71-.69.47-.47.69-.71.44-.49.66-.74.43-.5.64-.75.41-.53.61-.79.39-.53.58-.8.37-.56.55-.84.35-.55.52-.83.33-.59.49-.88.31-.58.46-.87.29-.61.43-.92.2-.4.28-.61l3.54-.92,1.12-.29a2.48,2.48,0,0,0,1.86-2.4V56.89a2.48,2.48,0,0,0-1.86-2.4ZM64,85.28a21.25,21.25,0,1,1,20.85-17A21.21,21.21,0,0,1,64,85.28Z"/><path class="cls-3" d="M64,47.65a16.31,16.31,0,0,0-3.55.4L61.33,52a12.31,12.31,0,1,1-9.64,12h-4A16.35,16.35,0,1,0,64,47.65Z"/><path class="cls-3" d="M64,55.77a8.21,8.21,0,0,0-1.79.2l.88,3.94A4.2,4.2,0,1,1,59.8,64h-4A8.23,8.23,0,1,0,64,55.77Z"/></g></svg>