<svg width="13" height="15" xmlns="http://www.w3.org/2000/svg"><path d="M12.89 11.005c-.352.781-.522 1.13-.974 1.82-.633.962-1.526 2.165-2.629 2.172-.982.01-1.235-.64-2.57-.629-1.331.007-1.61.642-2.593.632-1.104-.01-1.948-1.093-2.581-2.055C-.228 10.25-.415 7.087.679 5.405c.774-1.191 1.998-1.892 3.149-1.892 1.172 0 1.908.643 2.876.643.94 0 1.512-.644 2.867-.644 1.024 0 2.107.558 2.881 1.52-2.532 1.39-2.12 5.005.437 5.973zm-4.348-8.57C9.035 1.802 9.409.91 9.273 0 8.47.055 7.53.568 6.98 1.233c-.498.606-.91 1.506-.75 2.376.878.028 1.786-.496 2.312-1.174z" fill="#ACAEB0"/></svg>