<?xml version="1.0" encoding="UTF-8"?>
<svg width="21px" height="24px" viewBox="0 0 21 24" version="1.1" xmlns="http://www.w3.org/2000/svg" xmlns:xlink="http://www.w3.org/1999/xlink">
    <!-- Generator: Sketch 45 (43475) - http://www.bohemiancoding.com/sketch -->
    <title>Shape@3x</title>
    <desc>Created with Sketch.</desc>
    <defs></defs>
    <g id="Page-1" stroke="none" stroke-width="1" fill="none" fill-rule="evenodd">
        <g id="ASL-White-24-2@3x" fill-rule="nonzero" fill="#FFFFFF">
            <path d="M8.97473027,22.4077789 L2.04850452,17.7450478 C1.83471118,17.9070896 1.56831788,18.0021089 1.27986654,18.0021089 C0.573160752,18.0021089 0.0005,17.4294481 0.0005,16.7227423 C0.0005,16.2451008 0.26180298,15.8285432 0.649515518,15.6088111 L0.649515518,7.52114454 C0.26180298,7.30141249 0.0005,6.88485481 0.0005,6.40721333 C0.0005,5.70050754 0.573160752,5.12784679 1.27986654,5.12784679 C1.55983402,5.12784679 1.81944022,5.21777574 2.02984003,5.37048527 L8.94673352,1.44415348 C8.93994643,1.39070514 8.93655288,1.33556003 8.93655288,1.27956654 C8.93655288,0.572860752 9.50921363,0.0002 10.2159194,0.0002 C10.9226252,0.0002 11.495286,0.572860752 11.495286,1.27956654 C11.495286,1.33556003 11.4918924,1.39070514 11.4842569,1.44415348 L18.362973,5.34927561 C18.5674341,5.20929187 18.8151629,5.12784679 19.0815562,5.12784679 C19.788262,5.12784679 20.3617712,5.70050754 20.3617712,6.40721333 C20.3617712,6.95187733 20.0215683,7.41679302 19.5413816,7.60174124 L19.5413816,15.5282144 C20.0215683,15.7131626 20.3617712,16.1780783 20.3617712,16.7227423 C20.3617712,17.4294481 19.788262,18.0021089 19.0815562,18.0021089 C18.8227984,18.0021089 18.5818567,17.9257541 18.3807892,17.7934058 L11.4655924,22.4459563 C11.4851053,22.5341885 11.495286,22.6258142 11.495286,22.7199851 C11.495286,23.4266909 10.9226252,24.0002 10.2159194,24.0002 C9.50921363,24.0002 8.93655288,23.4266909 8.93655288,22.7199851 C8.93655288,22.61224 8.94927868,22.5078885 8.97473027,22.4077789 L8.97473027,22.4077789 Z M18.6123986,8.21257937 L16.7315262,11.7045374 L18.6123986,15.0022149 L18.6123986,8.21257937 Z M17.8123703,16.5649425 L14.9838504,14.9513117 L11.5911536,21.2514284 L17.8429122,17.0417356 C17.8166123,16.9399292 17.8021897,16.8330325 17.8021897,16.7227423 C17.8021897,16.669294 17.8055832,16.616694 17.8123703,16.5649425 L17.8123703,16.5649425 Z M17.8149155,6.58622284 C17.8064316,6.52768418 17.8021897,6.46829714 17.8021897,6.40721333 C17.8021897,6.30795213 17.8140671,6.21123609 17.8352768,6.1179136 L11.495286,2.51990731 L14.8481086,8.40007274 L17.8149155,6.58622284 Z M1.5793469,8.1302859 L1.5793469,15.1413503 L3.55354182,11.7215051 L1.5793469,8.1302859 Z M2.55668792,16.6455392 C2.55838469,16.6709908 2.55923308,16.6972907 2.55923308,16.7227423 C2.55923308,16.8016423 2.5515976,16.8788454 2.53802342,16.9535034 L8.71766922,21.1148382 L5.37672397,15.0378471 L2.55668792,16.6455392 Z M2.5515976,6.54634868 L5.50058837,8.34916956 L8.83220137,2.57844596 L2.53378149,6.15354582 C2.54990083,6.23499091 2.55923308,6.32067792 2.55923308,6.40721333 C2.55923308,6.45472296 2.55668792,6.50053582 2.5515976,6.54634868 L2.5515976,6.54634868 Z M17.8607284,7.64670571 L15.307934,9.2077365 L16.188559,10.7517996 L17.8607284,7.64670571 Z M14.1753383,14.490638 L11.8083405,13.140007 C11.5300698,13.5005712 11.133025,13.7644193 10.6757448,13.871316 L10.6757448,20.9909738 L14.1753383,14.490638 Z M14.6173475,13.6710968 L15.6693465,11.7172632 L14.5146928,9.69216507 L12.0857628,11.1776895 C12.1756918,11.4059054 12.2248982,11.6544826 12.2248982,11.9149372 C12.2248982,12.0421951 12.2130208,12.1669079 12.1901143,12.2882271 L14.6173475,13.6710968 Z M15.4250113,14.1317706 L17.8259445,15.5002177 L16.2123138,12.670001 L15.4250113,14.1317706 Z M6.18438773,14.5771734 L9.74591341,21.0554512 L9.74591341,13.8687708 C9.30560092,13.7635709 8.92213032,13.513297 8.64810154,13.1713973 L6.18438773,14.5771734 Z M5.73728815,13.7635709 L8.25020837,12.3348884 C8.22136323,12.1991466 8.20694067,12.0591628 8.20694067,11.9149372 C8.20694067,11.6544826 8.25614707,11.4059054 8.34607602,11.1776895 L5.82976226,9.63956512 L4.62081178,11.7325341 L5.73728815,13.7635709 Z M4.92877601,14.2225479 L4.07699616,12.6742429 L2.33016878,15.6995885 L4.92877601,14.2225479 Z M2.27502367,7.46599943 L4.09735744,10.7806447 L5.03567268,9.15428816 L2.27502367,7.46599943 Z M11.5521278,10.4149902 L14.054019,8.8853497 L10.6757448,2.95937141 L10.6757448,9.95855837 C11.0066155,10.0366099 11.3060958,10.1961065 11.5521278,10.4149902 L11.5521278,10.4149902 Z M8.879711,10.4149902 C9.12234948,10.1978033 9.4184363,10.0391551 9.74591341,9.96110353 L9.74591341,2.85586828 L6.29382956,8.83444653 L8.879711,10.4149902 Z" id="Shape"></path>
        </g>
    </g>
</svg>