<?xml version="1.0" encoding="UTF-8"?>
<svg width="143px" height="128px" viewBox="0 0 143 128" version="1.1" xmlns="http://www.w3.org/2000/svg" xmlns:xlink="http://www.w3.org/1999/xlink">
    <!-- Generator: Sketch 44.1 (41455) - http://www.bohemiancoding.com/sketch -->
    <title>ASL Hexagon 128@3x</title>
    <desc>Created with Sketch.</desc>
    <defs></defs>
    <g id="Page-1" stroke="none" stroke-width="1" fill="none" fill-rule="evenodd">
        <g id="ASL-Hexagon-128" fill-rule="nonzero">
            <g id="BASE" fill="#4285F4">
                <path d="M140.466811,57.3306725 L111.251714,6.51939262 C108.908286,2.47392625 104.67679,0 100.295358,0 L41.8679393,0 C37.1866377,0 33.0995228,2.7432538 30.9115835,6.52494577 L1.6964859,57.2251627 C-0.564098474,61.1577171 -0.564098474,65.9954283 1.6964859,69.9279826 L30.9115835,120.961388 C33.2494577,125.017961 37.483731,127.722343 41.8651627,127.722343 L100.292581,127.722343 C104.976659,127.722343 109.063774,124.770846 111.248937,120.991931 L140.461258,70.1806508 C142.722927,66.1963967 142.725036,61.3168798 140.466811,57.3306725 Z" id="Shape"></path>
            </g>
            <g id="shadow" transform="translate(39.149675, 25.544469)" fill="#000000" opacity="0.07">
                <path d="M99.254613,48.2140323 L66.274013,15.4072017 L62.3035141,17.2008677 L32.1582646,0.0277657267 L0.122169197,18.4142299 L0.008329718,54.4957918 L30.4229067,75.0813015 L28.3404772,79.0129284 L51.5862195,102.177874 L61.1429067,102.177874 C65.8269848,102.177874 69.9140998,99.2263774 72.0992625,95.447462 L99.254613,48.2140323 Z" id="Combined-Shape"></path>
            </g>
            <g id="art" transform="translate(34.984816, 21.657267)" fill="#FFFFFF">
                <circle id="Oval" cx="36.3536659" cy="4.66741866" r="4.53136659"></circle>
                <circle id="Oval" cx="67.6928416" cy="22.7901085" r="4.53136659"></circle>
                <circle id="Oval" cx="4.78125813" cy="22.7901085" r="4.53136659"></circle>
                <circle id="Oval" cx="36.3536659" cy="80.431757" r="4.53136659"></circle>
                <circle id="Oval" cx="36.3536659" cy="42.2372234" r="7.10524946"></circle>
                <circle id="Oval" cx="67.6928416" cy="59.2520607" r="4.53136659"></circle>
                <circle id="Oval" cx="4.78125813" cy="59.2520607" r="4.53136659"></circle>
                <path d="M36.1926247,43.7809978 L1.23002169,22.8150976 L36.1981779,2.59331887 L71.1357918,22.4236009 L36.1926247,43.7809978 Z M7.69388286,22.8650759 L36.1787419,39.946551 L64.6774837,22.5263341 L36.2120607,6.37223427 L7.69388286,22.8650759 Z" id="Shape"></path>
                <path d="M36.203731,82.5641649 L1.12451193,59.0382646 L36.3009111,39.5606074 L70.8636876,59.2465076 L36.203731,82.5641649 Z M7.41344902,59.3048156 L36.2009544,78.613102 L64.6441649,59.4797397 L36.2786985,43.3145336 L7.41344902,59.3048156 Z" id="Shape"></path>
                <rect id="Rectangle-path" transform="translate(20.124303, 51.481373) rotate(-28.800000) translate(-20.124303, -51.481373) " x="18.4847366" y="18.5734336" width="3.27913232" height="65.8158785"></rect>
                <rect id="Rectangle-path" transform="translate(51.883766, 51.984602) rotate(-61.700000) translate(-51.883766, -51.984602) " x="19.2159999" y="50.3450354" width="65.3355315" height="3.27913232"></rect>
                <rect id="Rectangle-path" transform="translate(20.311514, 31.869654) rotate(-60.000000) translate(-20.311514, -31.869654) " x="-10.9929542" y="30.2300878" width="62.6089371" height="3.27913232"></rect>
                <rect id="Rectangle-path" transform="translate(52.097478, 32.017749) rotate(-29.690000) translate(-52.097478, -32.017749) " x="50.4579123" y="0.314842567" width="3.27913232" height="63.4058134"></rect>
                <rect id="Rectangle-path" x="34.7127115" y="4.1954013" width="3.27913232" height="76.0891974"></rect>
                <rect id="Rectangle-path" x="2.56277657" y="23.1621692" width="3.27913232" height="36.7146204"></rect>
                <rect id="Rectangle-path" x="66.0463341" y="22.7790022" width="3.27913232" height="36.7146204"></rect>
            </g>
        </g>
    </g>
</svg>