<?xml version="1.0" encoding="UTF-8"?>
<svg width="24px" height="21px" viewBox="0 0 24 21" version="1.1" xmlns="http://www.w3.org/2000/svg" xmlns:xlink="http://www.w3.org/1999/xlink">
    <!-- Generator: Sketch 48.2 (47327) - http://www.bohemiancoding.com/sketch -->
    <title>Auto_ML_White_24px@3x</title>
    <desc>Created with Sketch.</desc>
    <defs></defs>
    <g id="Page-1" stroke="none" stroke-width="1" fill="none" fill-rule="evenodd">
        <g id="Auto_ML_White_24px" transform="translate(0.000000, -1.000000)">
            <rect id="Rectangle" x="0" y="0" width="24" height="24"></rect>
            <g id="art" transform="translate(0.000000, 1.000000)" fill="#FFFFFF" fill-rule="nonzero">
                <polygon id="Shape" points="17.49 5.00625 18.93375 2.505 17.49 0.00375 14.3625 0.00375 15.80625 2.505 14.3625 5.00625"></polygon>
                <polygon id="Shape" points="11.23125 0.00375 6.0975 0.00375 0.24375 10.14 3.06 15.015 8.835 5.00625 11.23125 5.00625 12.675 2.505"></polygon>
                <polygon id="Shape" points="6.51 15.99375 5.06625 18.495 6.51 21 9.6375 21 8.19375 18.495 9.6375 15.99375"></polygon>
                <polygon id="Shape" points="20.94 5.985 15.165 15.99375 12.76875 15.99375 11.325 18.495 12.76875 21 17.90625 21 23.75625 10.86"></polygon>
            </g>
        </g>
    </g>
</svg>