<svg width="1440" height="564" viewBox="0 0 1440 564" fill="none" xmlns="http://www.w3.org/2000/svg">
<mask id="mask0" mask-type="alpha" maskUnits="userSpaceOnUse" x="0" y="0" width="1440" height="564">
<rect width="1440" height="564" fill="#188038"/>
</mask>
<g mask="url(#mask0)">
<path d="M1453.22 -568.784H-75.4032V960.093H1453.22V-568.784Z" fill="#34A853"/>
<path d="M370.847 124.655L444.263 129.163L403.657 190.49L363.043 251.826L330.233 185.991L297.43 120.156L370.847 124.655Z" fill="#188038"/>
<path d="M1059.52 303.924L1059.44 230.364L1123.19 267.076L1186.93 303.789L1123.26 340.636L1059.6 377.484L1059.52 303.924Z" fill="#188038"/>
<path d="M1361.6 22.7848L1361.52 -50.7671L1425.26 -14.0548L1489 22.6574L1425.34 59.505L1361.67 96.3446L1361.6 22.7848Z" fill="#188038"/>
<path d="M201.405 532.583L209.759 459.501L268.873 503.277L327.987 547.061L260.511 576.359L193.043 605.665L201.405 532.583Z" fill="#188038"/>
<path d="M1373.51 590.104L1372.02 663.648L1309.07 625.574L1246.13 587.5L1310.58 552.03L1375.02 516.561L1373.51 590.104Z" fill="#188038"/>
<path d="M720.975 399.575L710.558 472.394L652.702 426.97L594.847 381.545L663.111 354.15L731.383 326.764L720.975 399.575Z" fill="#188038"/>
<path d="M100.274 280.168L89.8659 352.98L32.0103 307.555L-25.8453 262.131L42.4187 234.736L110.691 207.349L100.274 280.168Z" fill="#188038"/>
<path d="M833.548 53.9704L829.176 127.403L767.768 86.8998L706.369 46.4049L772.14 13.4754L837.92 -19.4541L833.548 53.9704Z" fill="#188038"/>
</g>
</svg>
