<svg width="375" height="440" viewBox="0 0 375 440" fill="none" xmlns="http://www.w3.org/2000/svg">
<mask id="mask0" mask-type="alpha" maskUnits="userSpaceOnUse" x="0" y="0" width="375" height="440">
<rect width="375" height="440" fill="#188038"/>
</mask>
<g mask="url(#mask0)">
<path d="M380.849 -186.168H-375.669V570.476H380.849V-186.168Z" fill="#34A853"/>
<path d="M186.008 245.736L185.968 209.331L217.518 227.5L249.063 245.669L217.553 263.905L186.047 282.141L186.008 245.736Z" fill="#188038"/>
<path d="M335.506 106.601L335.466 70.2002L367.012 88.3692L398.557 106.538L367.051 124.774L335.541 143.006L335.506 106.601Z" fill="#188038"/>
<path d="M198.475 -16.8034L234.879 -16.8428L216.711 14.7026L198.542 46.248L180.306 14.742L162.07 -16.7679L198.475 -16.8034Z" fill="#188038"/>
<path d="M106.522 447.936L115.114 412.56L141.453 437.685L167.796 462.814L132.865 473.061L97.9339 483.308L106.522 447.936Z" fill="#188038"/>
<path d="M341.403 387.368L340.662 423.765L309.511 404.922L278.364 386.079L310.256 368.525L342.148 350.971L341.403 387.368Z" fill="#188038"/>
<path d="M18.4599 293.075L13.3048 329.114L-15.3281 306.633L-43.9609 284.153L-10.1769 270.595L23.611 257.041L18.4599 293.075Z" fill="#188038"/>
<path d="M74.1727 122.034L72.009 158.376L41.6184 138.331L11.2317 118.29L43.7821 101.993L76.3365 85.6963L74.1727 122.034Z" fill="#188038"/>
</g>
</svg>
