<?xml version="1.0" encoding="UTF-8"?>
<svg width="128px" height="114px" viewBox="0 0 128 114" version="1.1" xmlns="http://www.w3.org/2000/svg" xmlns:xlink="http://www.w3.org/1999/xlink">
    <!-- Generator: Sketch 42 (36781) - http://www.bohemiancoding.com/sketch -->
    <title>BeyondCorp</title>
    <desc>Created with Sketch.</desc>
    <defs>
        <linearGradient x1="50.0017931%" y1="-7.80335985e-16%" x2="50.0017931%" y2="99.991214%" id="linearGradient-1">
            <stop stop-color="#468FF8" offset="0%"></stop>
            <stop stop-color="#4A89E6" offset="100%"></stop>
        </linearGradient>
        <path d="M127.2,51.31 L100.95,5.77 C98.9327107,2.23045817 95.1839138,0.0322306985 91.11,0 L38.61,0 C34.5381536,0.0301725214 30.789836,2.22430968 28.77,5.76 L2.52,51.27 C0.487432889,54.7946301 0.487432889,59.1353699 2.52,62.66 L28.77,108.13 C30.7970739,111.649249 34.5487018,113.818636 38.61,113.82 L91.1,113.82 C95.1592343,113.820697 98.9103829,111.6554 100.94,108.14 L127.19,62.68 C129.226214,59.1644517 129.230027,54.8291246 127.2,51.31 Z" id="path-2"></path>
    </defs>
    <g id="Page-1" stroke="none" stroke-width="1" fill="none" fill-rule="evenodd">
        <g id="Product-Logos" transform="translate(-168.000000, -170.000000)">
            <g id="BeyondCorp" transform="translate(167.000000, 170.000000)">
                <g id="Layer_1">
                    <mask id="mask-3" fill="white">
                        <use xlink:href="#path-2"></use>
                    </mask>
                    <use id="hex-2" fill="url(#linearGradient-1)" fill-rule="nonzero" xlink:href="#path-2"></use>
                    <path d="M88.59,23.11 L80.93,24 C76.13,30.43 70.29,28.36 64.44,28.36 C52.9597582,28.355833 42.5920719,35.2237333 38.1182699,45.7963898 C33.6444678,56.3690463 35.9336105,68.5926628 43.93,76.83 L42,79.11 L91,128.11 L133.57,68.11 L88.59,23.11 Z" id="Shape" fill="#231F20" fill-rule="nonzero" opacity="0.07" mask="url(#mask-3)"></path>
                    <path d="M89.65,37.91 C88.6305358,39.0016624 87.5487258,40.0333886 86.41,41 C89.8173584,45.6385149 91.6533151,51.2444895 91.65,57 C91.652621,66.6629509 86.5265897,75.6013093 78.1850916,80.4790174 C69.8435934,85.3567254 59.5400323,85.4408525 51.12,80.7 L56.89,80.7 C55.7763355,79.3449427 54.8077143,77.8769286 54,76.32 L45.33,76.32 C44.0886843,75.0962209 42.9669371,73.7568212 41.98,72.32 L52.22,72.32 C51.693298,70.8866264 51.2492355,69.4242253 50.89,67.94 L39.55,67.94 C38.9758431,66.6457009 38.504389,65.3082423 38.14,63.94 L50.14,63.94 C49.9266667,62.52 49.7766667,61.06 49.69,59.56 L37.36,59.56 C37.28,58.72 37.24,57.86 37.24,57 L37.24,55.55 L49.54,55.55 C49.54,54.06 49.66,52.55 49.81,51.17 L37.81,51.17 C38.1093873,49.8074086 38.5139321,48.4700705 39.02,47.17 L50.46,47.17 C50.7487651,45.691533 51.1159502,44.2294685 51.56,42.79 L41.26,42.79 C42.1358162,41.3678956 43.1400083,40.0289728 44.26,38.79 L53.06,38.79 C53.7299737,37.2643532 54.5295709,35.7989827 55.45,34.41 L49.31,34.41 C57.0022124,29.220291 66.8204653,28.3442008 75.31,32.09 C76.1626629,35.8712922 77.6251175,39.4885875 79.64,42.8 C79.64,42.8 89.49,37.18 91,31.23 C91.9693093,26.9540906 89.373481,22.6797725 85.1323234,21.5682223 C80.8911658,20.4566721 76.5325513,22.9083245 75.28,27.11 L75.28,27.33 C62.3379052,22.5935416 47.8190235,26.7996244 39.4128531,37.7206204 C31.0066826,48.6416164 30.6561039,63.753405 38.5467905,75.0524722 C46.4374771,86.3515394 60.7456903,91.2263827 73.893506,87.0951848 C87.0413218,82.9639869 95.9899447,70.781573 96,57 C96.2010607,50.0869008 93.951902,43.3252567 89.65,37.91 L89.65,37.91 Z M79.52,28.13 C79.9100466,26.6347977 81.162475,25.5218485 82.6931558,25.3102292 C84.2238366,25.0986098 85.7312491,25.8300061 86.5123399,27.1632966 C87.2934307,28.4965871 87.1943369,30.169134 86.2612755,31.4008657 C85.3282142,32.6325975 83.7449843,33.1808817 82.25,32.79 C80.2096927,32.2565371 78.9876767,30.1706049 79.52,28.13 Z" id="Shape" fill="#FFFFFF" fill-rule="nonzero" mask="url(#mask-3)"></path>
                </g>
            </g>
        </g>
    </g>
</svg>
