<?xml version="1.0" encoding="UTF-8"?>
<svg width="24px" height="24px" viewBox="0 0 24 24" version="1.1" xmlns="http://www.w3.org/2000/svg" xmlns:xlink="http://www.w3.org/1999/xlink">
    <!-- Generator: Sketch 41.2 (35397) - http://www.bohemiancoding.com/sketch -->
    <title>beyondcorp</title>
    <desc>Created with Sketch.</desc>
    <defs></defs>
    <g id="Page-1" stroke="none" stroke-width="1" fill="none" fill-rule="evenodd">
        <g id="beyondcorp" fill="#FFFFFF">
            <path d="M21.5127348,5.98165934 C21.1274364,6.36939875 20.7185326,6.73593646 20.2880708,7.07943712 C21.5803231,8.72523805 22.2767227,10.7152887 22.2754225,12.7585482 C22.2787132,16.1915372 20.3360275,19.3678759 17.1732949,21.1006518 C14.0105623,22.8334277 10.1036921,22.8619029 6.91257669,21.1754371 L9.09439488,21.1754371 C8.67130191,20.6948959 8.30312462,20.1741251 7.99589685,19.6216593 L4.7184265,19.6216593 C4.24833912,19.186471 3.82364709,18.7102381 3.4501261,18.1994371 L7.33186523,18.1994371 C7.13178397,17.6909889 6.96296955,17.1722121 6.82625258,16.6456593 L2.52807076,16.6456593 C2.310419,16.18548 2.13184152,15.7099313 1.99399962,15.2234371 L6.53313005,15.2234371 C6.45281385,14.7191408 6.39589685,14.2012149 6.36237907,13.6696593 L1.70087709,13.6696593 C1.67052136,13.3701038 1.65344626,13.0669927 1.65344626,12.760326 C1.65344626,12.5878816 1.65913796,12.416326 1.66862412,12.2465482 L6.33107472,12.2465482 C6.34245812,11.7176593 6.37660831,11.1985482 6.43447393,10.6927705 L1.89439488,10.6927705 C2.00790035,10.20827 2.16140573,9.73276518 2.35352531,9.27054823 L6.66403914,9.27054823 C6.77401114,8.74604342 6.91365473,8.22738601 7.08237907,7.71677045 L3.17502729,7.71677045 C3.50729117,7.21109403 3.8883326,6.73502745 4.31336721,6.29454823 L7.64870318,6.29454823 C7.90214637,5.75338396 8.20459588,5.23355776 8.5527348,4.74077045 L6.22577827,4.74077045 C9.13994863,2.89998294 12.8582065,2.58888655 16.0743158,3.91677045 C16.4357387,5.80477045 17.7144739,7.72032601 17.7144739,7.72032601 C17.7144739,7.72032601 21.4548692,5.72743712 22.0439601,3.61632601 C22.3225425,2.61899927 22.0121443,1.55816707 21.2296893,0.833434648 C20.4472344,0.108702223 19.3115963,-0.169826337 18.2505589,0.102767981 C17.1895215,0.375362299 16.3642817,1.15766593 16.0856992,2.15499267 C16.0781103,2.18077045 16.0733672,2.20654823 16.0676755,2.23232601 C11.1611008,0.554042505 5.65973708,2.05212713 2.4773018,5.9331411 C-0.705133467,9.81415507 -0.8330719,15.1810648 2.16124724,19.1913645 C5.15556638,23.2016642 10.5800547,24.928438 15.5617107,23.4571252 C20.5433667,21.9858124 23.9307612,17.6564831 23.9298099,12.7621038 C23.9298099,10.0972149 23.1339206,7.86343712 21.5127348,5.98165934 Z M17.674632,2.50877045 C17.8781129,1.78516454 18.6688494,1.35293424 19.4412105,1.54312794 C20.2135717,1.73332163 20.6753645,2.47398686 20.4728985,3.19784267 C20.2704324,3.92169849 19.4803027,4.35490195 18.7076755,4.16565934 C18.3359965,4.07462253 18.0182245,3.8487946 17.8244327,3.53797371 C17.6306409,3.22715282 17.5767458,2.85686739 17.674632,2.50877045 L17.674632,2.50877045 Z" id="Shape"></path>
        </g>
    </g>
</svg>