<?xml version="1.0" encoding="UTF-8" standalone="no"?>
<svg width="42px" height="41px" viewBox="0 0 42 41" version="1.1" xmlns="http://www.w3.org/2000/svg" xmlns:xlink="http://www.w3.org/1999/xlink">
    <!-- Generator: Sketch 41 (35326) - http://www.bohemiancoding.com/sketch -->
    <title>bigdata</title>
    <desc>Created with Sketch.</desc>
    <defs></defs>
    <g id="Page-1" stroke="none" stroke-width="1" fill="none" fill-rule="evenodd">
        <g id="Pricing_list" transform="translate(-366.000000, -1119.000000)" fill="#2B85E7">
            <g id="bigdata" transform="translate(366.000000, 1119.000000)">
                <path d="M19.3538988,0.170834365 C9.15298632,0.170834365 0.882998525,8.42370373 0.882998525,18.6047393 C0.882998525,28.7847815 9.15298632,37.0378496 19.3538988,37.0378496 C29.5548113,37.0378496 37.8247991,28.7847815 37.8247991,18.6047393 C37.8247991,8.42370373 29.5548113,0.170834365 19.3538988,0.170834365 M19.3538988,32.5908486 C11.6134769,32.5908486 5.33911641,26.3293249 5.33911641,18.6047393 C5.33911641,10.8801537 11.6134769,4.61723934 19.3538988,4.61723934 C27.0943207,4.61723934 33.3694775,10.8801537 33.3694775,18.6047393 C33.3694775,26.3293249 27.0943207,32.5908486 19.3538988,32.5908486" id="Fill-4"></path>
                <path d="M10.5861987,17.8928774 L10.5861987,23.6221438 C11.4350968,25.0784507 12.6367734,26.300318 14.0749629,27.1786717 L14.0749629,17.8928774 L10.5861987,17.8928774" id="Fill-5"></path>
                <path d="M17.5030063,13.062826 L17.5030063,28.4887519 C18.0960802,28.5970312 18.7028911,28.6635882 19.3260269,28.6635882 C19.8950116,28.6635882 20.4486668,28.6037862 20.9927659,28.5133879 L20.9927659,13.062826 L17.5030063,13.062826" id="Fill-6"></path>
                <path d="M24.7417341,20.274426 L24.7417341,27.0781408 C26.2010266,26.148727 27.4076804,24.8670577 28.2314938,23.3430017 L28.2314938,20.274426 L24.7417341,20.274426" id="Fill-7"></path>
                <path d="M32.646202,29.9585689 L30.7325977,31.8698475 C30.3949497,32.2058114 30.3949497,32.7543602 30.7325977,33.0913175 L37.9906368,40.3327191 C38.3272894,40.6694777 38.8779583,40.6694777 39.2146109,40.3327191 L41.1282152,38.4244206 C41.4638724,38.0884568 41.4638724,37.5389145 41.1282152,37.203348 L33.8691807,29.9585689 C33.5335235,29.6232011 32.9818592,29.6232011 32.646202,29.9585689" id="Fill-8"></path>
            </g>
        </g>
    </g>
</svg>