<?xml version="1.0" encoding="UTF-8" standalone="no"?>
<svg width="24px" height="24px" viewBox="0 0 24 24" version="1.1" xmlns="http://www.w3.org/2000/svg" xmlns:xlink="http://www.w3.org/1999/xlink">
    <!-- Generator: Sketch 39.1 (31720) - http://www.bohemiancoding.com/sketch -->
    <title>bigquery copy</title>
    <desc>Created with Sketch.</desc>
    <defs></defs>
    <g id="Page-1" stroke="none" stroke-width="1" fill="none" fill-rule="evenodd">
        <g id="bigquery-logo-copy-2" transform="translate(0.000000, 1.000000)" fill="#FFFFFF">
            <path d="M10.8523835,0.0621515595 C5.04111997,0.0621515595 0.329867092,4.71808236 0.329867092,10.4618056 C0.329867092,16.2049683 5.04111997,20.8610112 10.8523835,20.8610112 C16.663647,20.8610112 21.3748999,16.2049683 21.3748999,10.4618056 C21.3748999,4.71808236 16.663647,0.0621515595 10.8523835,0.0621515595 M10.8523835,18.3521954 C6.44281411,18.3521954 2.86843169,14.8197003 2.86843169,10.4618056 C2.86843169,6.10391082 6.44281411,2.57063109 10.8523835,2.57063109 C15.2619529,2.57063109 18.8367889,6.10391082 18.8367889,10.4618056 C18.8367889,14.8197003 15.2619529,18.3521954 10.8523835,18.3521954" id="Fill-4"></path>
            <path d="M5.85759348,10.0602022 L5.85759348,13.2924196 C6.3411944,14.1140083 7.02576644,14.8033358 7.84507531,15.298867 L7.84507531,10.0602022 L5.85759348,10.0602022" id="Fill-5"></path>
            <path d="M9.79796562,7.33528509 L9.79796562,16.0379605 C10.1358285,16.0990473 10.4815169,16.136596 10.8365054,16.136596 C11.160645,16.136596 11.4760517,16.1028582 11.7860145,16.0518592 L11.7860145,7.33528509 L9.79796562,7.33528509" id="Fill-6"></path>
            <path d="M13.9217296,11.4037744 L13.9217296,15.2421516 C14.7530604,14.7178143 15.4404678,13.994749 15.9097785,13.1349391 L15.9097785,11.4037744 L13.9217296,11.4037744" id="Fill-7"></path>
            <path d="M18.4247528,16.8671711 L17.3346093,17.9454362 C17.1422577,18.1349732 17.1422577,18.444442 17.3346093,18.6345395 L21.4693744,22.7198416 C21.661159,22.909827 21.9748644,22.909827 22.1666489,22.7198416 L23.2567925,21.6432578 C23.4480099,21.4537208 23.4480099,21.1436915 23.2567925,20.9543787 L19.1214602,16.8671711 C18.9302428,16.6779703 18.6159702,16.6779703 18.4247528,16.8671711" id="Fill-8"></path>
        </g>
    </g>
</svg>