<?xml version="1.0" encoding="UTF-8" standalone="no"?>
<svg width="26px" height="26px" viewBox="0 0 26 26" version="1.1" xmlns="http://www.w3.org/2000/svg" xmlns:xlink="http://www.w3.org/1999/xlink">
    <!-- Generator: Sketch 39.1 (31720) - http://www.bohemiancoding.com/sketch -->
    <title>bigtable copy</title>
    <desc>Created with Sketch.</desc>
    <defs></defs>
    <g id="Page-1" stroke="none" stroke-width="1" fill="none" fill-rule="evenodd">
        <g id="bigtable-logo-copy-2" transform="translate(1.000000, 0.000000)" fill="#FFFFFF">
            <path d="M19.4881918,6.53523631 L19.4954029,14.0480355 C19.4957635,14.2100934 19.4099513,14.3597971 19.270777,14.440826 L18.0611141,15.1450147 L18.0560663,7.36878058 C18.0560663,7.04539156 17.8848026,6.74634756 17.6068145,6.58465306 L11.5884262,3.08296772 C10.6535064,2.53938348 10.0488552,1.55758897 9.9709753,0.481684609 L19.0382189,5.75110878 C19.3165675,5.91280329 19.4878313,6.21184729 19.4881918,6.53523631" id="Fill-7"></path>
            <path d="M21.6663061,16.0632215 L15.2138093,19.8261615 C15.0746349,19.9071905 14.9033712,19.9071905 14.7638363,19.8261615 L13.5541734,19.1223362 L20.2341806,15.2300405 C20.5121687,15.068346 20.6830719,14.769302 20.6830719,14.445913 L20.6830719,7.44254234 C20.6830719,6.35501052 21.2242654,5.33615344 22.1097891,4.73007155 L22.1151974,15.2787306 C22.115558,15.6021196 21.9442942,15.9011636 21.6663061,16.0632215" id="Fill-8"></path>
            <path d="M14.5676942,22.7283054 L8.1079863,18.9780829 C7.96881197,18.8974173 7.88263926,18.7477137 7.88263926,18.5856558 L7.88263926,17.1776418 L14.5673337,21.0615802 C14.8456824,21.2232747 15.1882098,21.2232747 15.4661979,21.0612169 L21.4845863,17.5598949 C22.4187849,17.0155839 23.5649901,16.9788847 24.5283937,17.4487072 L15.4665585,22.7275787 C15.1885704,22.8896366 14.8460429,22.8896366 14.5676942,22.7283054" id="Fill-9"></path>
            <path d="M5.29096809,19.8654042 L5.28375699,12.352605 C5.28339643,12.1905471 5.36920858,12.0404801 5.50838291,11.9598145 L6.71804579,11.2556259 L6.72273301,19.03186 C6.72309356,19.355249 6.89435731,19.654293 7.17234541,19.8159875 L13.1907337,23.3176728 C14.1256535,23.8612571 14.7303047,24.8430516 14.8081846,25.9189559 L5.74094105,20.6491684 C5.46259239,20.4878372 5.29132865,20.1887932 5.29096809,19.8654042" id="Fill-10"></path>
            <path d="M3.11285379,10.3374191 L9.56535064,6.57447902 C9.70452497,6.49345009 9.87578871,6.49345009 10.0153236,6.57447902 L11.2249865,7.27830433 L4.54497927,11.1702366 C4.26699117,11.3322945 4.09608798,11.6313385 4.09608798,11.9547275 L4.09572742,18.9580982 C4.09608798,20.04563 3.55453398,21.0644871 2.66937083,21.6702056 L2.6639625,11.12191 C2.66360195,10.7985209 2.83486569,10.4994769 3.11285379,10.3374191" id="Fill-11"></path>
            <path d="M10.2114657,3.67233512 L16.6711736,7.42255763 C16.8103479,7.5032232 16.8961601,7.65292688 16.8961601,7.81498475 L16.8961601,9.22263537 L10.2118262,5.3390603 C9.93347756,5.1773658 9.59095006,5.1773658 9.31296196,5.3390603 L3.29457364,8.841109 C2.36037498,9.38505659 1.21380927,9.4217558 0.25076618,8.95193333 L9.31260141,3.67306183 C9.59058951,3.51100397 9.933117,3.51100397 10.2114657,3.67233512" id="Fill-12"></path>
            <path d="M12.3866955,15.1283002 C12.3016045,15.1283002 12.2161529,15.105772 12.1397152,15.0614422 L7.87903371,12.5826109 L7.87903371,13.6639656 L12.3866955,16.2866869 L16.8947179,13.6639656 L16.8947179,12.5826109 L12.6340364,15.0614422 C12.5575987,15.105772 12.4721471,15.1283002 12.3866955,15.1283002" id="Fill-13"></path>
            <path d="M12.6340364,17.2939165 C12.5575987,17.3382462 12.4721471,17.3604111 12.3866955,17.3604111 C12.3016045,17.3604111 12.2161529,17.3382462 12.1397152,17.2939165 L7.87903371,14.8147218 L7.87903371,15.6148371 C7.87903371,15.7863423 7.96989364,15.9447666 8.11772129,16.0305192 L12.148729,18.375998 C12.2961961,18.4621139 12.477916,18.4621139 12.6253831,18.375998 L16.6563908,16.0305192 C16.8038579,15.9447666 16.8947179,15.7863423 16.8947179,15.6148371 L16.8947179,14.8147218 L12.6340364,17.2939165" id="Fill-14"></path>
            <path d="M12.3866955,14.054576 L16.8947179,11.4318547 L16.8947179,10.9238796 C16.8947179,10.7520111 16.8038579,10.5935868 16.6563908,10.5078342 L12.6253831,8.16235542 C12.477916,8.07660283 12.2961961,8.07660283 12.148729,8.16235542 L8.11772129,10.5078342 C7.96989364,10.5935868 7.87903371,10.7520111 7.87903371,10.9238796 L7.87903371,11.4318547 L12.3866955,14.054576" id="Fill-15"></path>
        </g>
    </g>
</svg>