<svg xmlns="http://www.w3.org/2000/svg" xmlns:xlink="http://www.w3.org/1999/xlink" viewBox="0 0 444 216"><defs><style>.cls-1,.cls-12,.cls-5,.cls-6,.cls-9{fill:none;}.cls-2{clip-path:url(#clip-path);}.cls-3,.cls-8{fill:#fff;}.cls-4{fill:#f8f9fa;}.cls-5{stroke:#dadce0;}.cls-5,.cls-6,.cls-9{stroke-linecap:round;}.cls-12,.cls-5,.cls-6,.cls-9{stroke-miterlimit:10;}.cls-6{stroke:#bdc1c6;}.cls-6,.cls-9{stroke-width:12px;}.cls-7{fill:#1a73e8;}.cls-8{font-size:16.45px;font-family:GoogleSans-Medium, Google Sans;font-weight:500;}.cls-9{stroke:#e8eaed;}.cls-10{opacity:0.35;}.cls-11{fill:#408f3e;}.cls-12{stroke:#fff;stroke-width:1.5px;}</style><clipPath id="clip-path"><rect class="cls-1" width="444" height="216"/></clipPath></defs><g id="UI"><g class="cls-2"><rect class="cls-3" x="-1.24" y="-2.03" width="447.8" height="217.81"/><rect class="cls-4" x="-4.63" y="133.18" width="453.25" height="88.23"/><line class="cls-5" x1="125.59" y1="7.51" x2="125.59" y2="216.2"/><line class="cls-6" x1="156.81" y1="165.25" x2="326.61" y2="165.25"/><line class="cls-6" x1="156.81" y1="184.46" x2="242.45" y2="184.46"/><circle class="cls-7" cx="125.47" cy="174.85" r="13.41"/><text class="cls-8" transform="translate(120.77 180.71)">3</text><line class="cls-9" x1="156.82" y1="1.73" x2="326.61" y2="1.73"/><line class="cls-9" x1="156.82" y1="20.94" x2="242.45" y2="20.94"/><circle class="cls-3" cx="125.47" cy="11.45" r="13.41"/><g class="cls-10"><circle class="cls-7" cx="125.47" cy="11.45" r="13.41"/><text class="cls-8" transform="translate(121.71 17.31)">1</text></g><circle class="cls-11" cx="137.25" cy="1.97" r="6.93"/><path class="cls-3" d="M137.25-4.46A6.43,6.43,0,1,1,130.82,2a6.43,6.43,0,0,1,6.43-6.43m0-1A7.43,7.43,0,1,0,144.68,2a7.43,7.43,0,0,0-7.43-7.43Z"/><polyline class="cls-12" points="133.7 2 136.07 4.36 140.8 -0.37"/><line class="cls-9" x1="156.82" y1="81.16" x2="326.61" y2="81.16"/><line class="cls-9" x1="156.82" y1="100.37" x2="242.45" y2="100.37"/><circle class="cls-3" cx="125.47" cy="90.63" r="13.41"/><g class="cls-10"><circle class="cls-7" cx="125.47" cy="90.63" r="13.41"/><text class="cls-8" transform="translate(120.61 96.49)">2</text></g><circle class="cls-11" cx="137.25" cy="81.15" r="6.93"/><path class="cls-3" d="M137.25,74.72a6.43,6.43,0,1,1-6.43,6.43,6.43,6.43,0,0,1,6.43-6.43m0-1a7.43,7.43,0,1,0,7.43,7.43,7.43,7.43,0,0,0-7.43-7.43Z"/><polyline class="cls-12" points="133.7 81.17 136.07 83.54 140.8 78.81"/></g></g></svg>
