<svg xmlns="http://www.w3.org/2000/svg" width="50" height="50" viewBox="0 0 10 10"><path d="M0,8.92a.84.84,0,0,0,.84.86H3.62a.85.85,0,0,0,.85-.86V5.51a.86.86,0,0,0-.85-.86H2.27a.42.42,0,0,1-.43-.42.38.38,0,0,1,0-.13A3.4,3.4,0,0,1,4,1.87H4A.86.86,0,0,0,3.62.22.87.87,0,0,0,3.3.28l0,0A5.13,5.13,0,0,0,0,5.08Zm5.5,0a.85.85,0,0,0,.85.86H9.13A.84.84,0,0,0,10,8.92V5.51a.85.85,0,0,0-.84-.86H7.77a.42.42,0,0,1-.42-.42.73.73,0,0,1,0-.13,3.39,3.39,0,0,1,2.1-2.23h0A.85.85,0,0,0,10,1.08.84.84,0,0,0,9.13.22a.83.83,0,0,0-.32.06l0,0A5.12,5.12,0,0,0,5.53,5.08Z" fill="#ececec" fill-rule="evenodd"/></svg>
