<?xml version="1.0" encoding="UTF-8"?>
<svg width="48px" height="48px" viewBox="0 0 48 48" version="1.1" xmlns="http://www.w3.org/2000/svg" xmlns:xlink="http://www.w3.org/1999/xlink">
    <!-- Generator: Sketch 43.2 (39069) - http://www.bohemiancoding.com/sketch -->
    <title>IOT Blue 48@3x</title>
    <desc>Created with Sketch.</desc>
    <defs></defs>
    <g id="Page-1" stroke="none" stroke-width="1" fill="none" fill-rule="evenodd">
        <g id="IOT-Blue-48" fill-rule="nonzero" fill="#4285F4">
            <path d="M25.1590372,38.1542232 L25.1590372,24.9873085 L22.6382495,24.9873085 L22.6382495,38.1542232 C20.239755,38.7875968 18.6838308,41.102565 19.0031747,43.5626376 C19.3225186,46.0227103 21.4179301,47.8636959 23.8986433,47.8636959 C26.3793565,47.8636959 28.4747681,46.0227103 28.794112,43.5626376 C29.1134558,41.102565 27.5575317,38.7875968 25.1590372,38.1542232 Z M23.8986433,45.3426696 C22.5644587,45.3426696 21.4828884,44.2610993 21.4828884,42.9269147 C21.4828884,41.5927301 22.5644587,40.5111597 23.8986433,40.5111597 C25.2328279,40.5111597 26.3143982,41.5927301 26.3143982,42.9269147 C26.31324,44.2606192 25.2323479,45.3415114 23.8986433,45.3426696 Z" id="Shape"></path>
            <path d="M37.7923851,31.9908972 L37.7923851,25.0062144 L35.2715974,25.0062144 L35.2715974,31.9908972 C32.8731029,32.6242707 31.3171788,34.939239 31.6365226,37.3993116 C31.9558665,39.8593842 34.0512781,41.7003698 36.5319912,41.7003698 C39.0127044,41.7003698 41.108116,39.8593842 41.4274599,37.3993116 C41.7468037,34.939239 40.1908796,32.6242707 37.7923851,31.9908972 Z M36.5319912,39.1793435 C35.1978066,39.1793435 34.1162363,38.0977732 34.1162363,36.7635886 C34.1162363,35.429404 35.1978066,34.3478337 36.5319912,34.3478337 C37.8661759,34.3478337 38.9477462,35.429404 38.9477462,36.7635886 C38.9465879,38.0972932 37.8656958,39.1781853 36.5319912,39.1793435 Z" id="Shape"></path>
            <path d="M12.5677024,32.0665208 L12.5677024,24.9957112 L10.0469147,24.9957112 L10.0469147,31.9908972 C7.56988586,32.6450094 6.00489724,35.0853092 6.44372116,37.6093869 C6.88254507,40.1334646 9.17932673,41.9023757 11.731778,41.6820869 C14.2842292,41.4617981 16.243975,39.3255282 16.2438512,36.7635886 C16.2595546,34.5336313 14.7361025,32.5870948 12.5677024,32.0665208 Z M11.3073085,39.1814442 C9.97312393,39.1814442 8.89155361,38.0998739 8.89155361,36.7656893 C8.89155361,35.4315047 9.97312393,34.3499344 11.3073085,34.3499344 C12.6414931,34.3499344 13.7230635,35.4315047 13.7230635,36.7656893 C13.7207479,38.0985734 12.6401942,39.1781875 11.3073085,39.1793435 L11.3073085,39.1814442 Z" id="Shape"></path>
            <path d="M38.3889716,6.69059081 C37.3969314,6.69010233 36.4114314,6.85115958 35.4711597,7.16743982 C33.392293,2.77449617 28.9540507,-0.0137480317 24.094164,0.0200512544 C19.2342773,0.0538505405 14.8352455,2.90355575 12.8176805,7.32498906 C9.39037999,5.97801582 5.4896227,6.81573114 2.91756057,9.45111009 C0.345498441,12.0864891 -0.3971253,16.0064615 1.03278191,19.3999982 C2.46268911,22.7935349 5.78674505,24.9999634 9.46923414,24.9999125 L9.67929978,24.9999125 L9.67929978,24.9999125 L10.0490153,24.9999125 L10.0490153,18.2231947 C8.93274358,17.6424365 8.35780191,16.3741128 8.65673954,15.1518284 C8.95567716,13.9295441 10.0510997,13.0697462 11.3094092,13.0697462 C12.5677186,13.0697462 13.6631412,13.9295441 13.9620788,15.1518284 C14.2610165,16.3741128 13.6860748,17.6424365 12.5698031,18.2231947 L12.5698031,24.9978118 L35.2715974,24.9978118 L35.2715974,18.2231947 C34.1553256,17.6424365 33.580384,16.3741128 33.8793216,15.1518284 C34.1782592,13.9295441 35.2736818,13.0697462 36.5319912,13.0697462 C37.7903007,13.0697462 38.8857233,13.9295441 39.1846609,15.1518284 C39.4835985,16.3741128 38.9086569,17.6424365 37.7923851,18.2231947 L37.7923851,24.9747046 C37.9898468,24.9873085 38.1894092,24.9978118 38.3889716,24.9978118 C43.4449511,24.9978118 47.5436324,20.8991306 47.5436324,15.843151 C47.5436324,10.7871714 43.4449511,6.68849015 38.3889716,6.68849015 L38.3889716,6.69059081 Z M25.1548359,14.4021007 L25.1548359,24.9978118 L22.6340481,24.9978118 L22.6340481,14.4021007 C21.5177764,13.8213424 20.9428347,12.5530187 21.2417724,11.3307343 C21.54071,10.10845 22.6361326,9.24865206 23.894442,9.24865206 C25.1527515,9.24865206 26.248174,10.10845 26.5471117,11.3307343 C26.8460493,12.5530187 26.2711076,13.8213424 25.1548359,14.4021007 L25.1548359,14.4021007 Z" id="Shape"></path>
        </g>
    </g>
</svg>