<?xml version="1.0" encoding="UTF-8"?>
<svg width="128px" height="128px" viewBox="0 0 128 128" version="1.1" xmlns="http://www.w3.org/2000/svg" xmlns:xlink="http://www.w3.org/1999/xlink">
    <!-- Generator: Sketch 47.1 (45422) - http://www.bohemiancoding.com/sketch -->
    <title>cloud-tasks</title>
    <desc>Created with Sketch.</desc>
    <defs>
        <linearGradient x1="50.0019532%" y1="0.00219423355%" x2="50.0019532%" y2="100%" id="linearGradient-1">
            <stop stop-color="#4387FD" offset="0%"></stop>
            <stop stop-color="#4683EA" offset="100%"></stop>
        </linearGradient>
        <path d="M27.8676743,107.73971 L1.6739065,62.4666778 C-0.375970019,58.9237837 -0.375970019,54.5587581 1.6739065,51.0158641 L27.8676743,5.74283197 C29.9172314,2.20048996 33.7047295,0.0180626129 37.8038436,0.0174251508 L90.1913793,0.0174251508 C94.2904935,0.0180626129 98.0779916,2.20048996 100.127549,5.74283197 L126.321316,51.0158641 C128.371193,54.5587581 128.371193,58.9237837 126.321316,62.4666778 L100.127549,107.73971 C98.0779916,111.282052 94.2904935,113.464479 90.1913793,113.465116 L37.8038436,113.465116 C33.7047295,113.464479 29.9172314,111.282052 27.8676743,107.73971 L27.8676743,107.73971 Z" id="path-2"></path>
        <path d="M27.8676743,107.73971 L1.6739065,62.4666778 C-0.375970019,58.9237837 -0.375970019,54.5587581 1.6739065,51.0158641 L27.8676743,5.74283197 C29.9172314,2.20048996 33.7047295,0.0180626129 37.8038436,0.0174251508 L90.1913793,0.0174251508 C94.2904935,0.0180626129 98.0779916,2.20048996 100.127549,5.74283197 L126.321316,51.0158641 C128.371193,54.5587581 128.371193,58.9237837 126.321316,62.4666778 L100.127549,107.73971 C98.0779916,111.282052 94.2904935,113.464479 90.1913793,113.465116 L37.8038436,113.465116 C33.7047295,113.464479 29.9172314,111.282052 27.8676743,107.73971 L27.8676743,107.73971 Z" id="path-4"></path>
        <path d="M27.8676743,107.73971 L1.6739065,62.4666778 C-0.375970019,58.9237837 -0.375970019,54.5587581 1.6739065,51.0158641 L27.8676743,5.74283197 C29.9172314,2.20048996 33.7047295,0.0180626129 37.8038436,0.0174251508 L90.1913793,0.0174251508 C94.2904935,0.0180626129 98.0779916,2.20048996 100.127549,5.74283197 L126.321316,51.0158641 C128.371193,54.5587581 128.371193,58.9237837 126.321316,62.4666778 L100.127549,107.73971 C98.0779916,111.282052 94.2904935,113.464479 90.1913793,113.465116 L37.8038436,113.465116 C33.7047295,113.464479 29.9172314,111.282052 27.8676743,107.73971 L27.8676743,107.73971 Z" id="path-6"></path>
        <path d="M27.8676743,107.73971 L1.6739065,62.4666778 C-0.375970019,58.9237837 -0.375970019,54.5587581 1.6739065,51.0158641 L27.8676743,5.74283197 C29.9172314,2.20048996 33.7047295,0.0180626129 37.8038436,0.0174251508 L90.1913793,0.0174251508 C94.2904935,0.0180626129 98.0779916,2.20048996 100.127549,5.74283197 L126.321316,51.0158641 C128.371193,54.5587581 128.371193,58.9237837 126.321316,62.4666778 L100.127549,107.73971 C98.0779916,111.282052 94.2904935,113.464479 90.1913793,113.465116 L37.8038436,113.465116 C33.7047295,113.464479 29.9172314,111.282052 27.8676743,107.73971 L27.8676743,107.73971 Z" id="path-8"></path>
        <path d="M27.8676743,107.73971 L1.6739065,62.4666778 C-0.375970019,58.9237837 -0.375970019,54.5587581 1.6739065,51.0158641 L27.8676743,5.74283197 C29.9172314,2.20048996 33.7047295,0.0180626129 37.8038436,0.0174251508 L90.1913793,0.0174251508 C94.2904935,0.0180626129 98.0779916,2.20048996 100.127549,5.74283197 L126.321316,51.0158641 C128.371193,54.5587581 128.371193,58.9237837 126.321316,62.4666778 L100.127549,107.73971 C98.0779916,111.282052 94.2904935,113.464479 90.1913793,113.465116 L37.8038436,113.465116 C33.7047295,113.464479 29.9172314,111.282052 27.8676743,107.73971 L27.8676743,107.73971 Z" id="path-10"></path>
        <path d="M1.6739065,62.4666778 C-0.375970019,58.9237837 -0.375970019,54.5587581 1.6739065,51.0158641 L27.8676743,5.74283197 C29.9172314,2.20048996 33.7047295,0.0180626129 37.8038436,0.0174251508 L90.1913793,0.0174251508 C94.2904935,0.0180626129 98.0779916,2.20048996 100.127549,5.74283197 L126.321316,51.0158641 C128.371193,54.5587581 128.371193,58.9237837 126.321316,62.4666778 L100.127549,107.73971 C98.0779916,111.282052 94.2904935,113.464479 90.1913793,113.465116 L37.8038436,113.465116 C33.7047295,113.464479 29.9172314,111.282052 27.8676743,107.73971 L1.6739065,62.4666778 Z" id="path-12"></path>
    </defs>
    <g id="Page-1" stroke="none" stroke-width="1" fill="none" fill-rule="evenodd">
        <g id="cloud-tasks">
            <g id="128px_Tasks" transform="translate(0.000000, 7.000000)">
                <g id="Mask" fill-rule="nonzero" fill="url(#linearGradient-1)">
                    <path d="M27.8676743,107.73971 L1.6739065,62.4666778 C-0.375970019,58.9237837 -0.375970019,54.5587581 1.6739065,51.0158641 L27.8676743,5.74283197 C29.9172314,2.20048996 33.7047295,0.0180626129 37.8038436,0.0174251508 L90.1913793,0.0174251508 C94.2904935,0.0180626129 98.0779916,2.20048996 100.127549,5.74283197 L126.321316,51.0158641 C128.371193,54.5587581 128.371193,58.9237837 126.321316,62.4666778 L100.127549,107.73971 C98.0779916,111.282052 94.2904935,113.464479 90.1913793,113.465116 L37.8038436,113.465116 C33.7047295,113.464479 29.9172314,111.282052 27.8676743,107.73971 L27.8676743,107.73971 Z" id="path-2"></path>
                </g>
                <g id="Shape-Clipped">
                    <mask id="mask-3" fill="white">
                        <use xlink:href="#path-2"></use>
                    </mask>
                    <g id="path-2"></g>
                    <polygon id="Shape" fill="#000000" fill-rule="nonzero" opacity="0.07" mask="url(#mask-3)" points="90.6685246 36.1085628 126.736095 71.6235102 101.581926 115.140421 80.7946373 121.429255 37.1657986 77.6298928 43.1141976 36.1207635 53.8108479 46.4068272 55.0101926 36.1085628 65.7895516 46.4068272 66.9022659 36.1085628 78.4250291 47.2083841 78.7792031 36.1085628 90.2396002 47.3079564 88.0905431 36.9786601"></polygon>
                </g>
                <g id="Rectangle-path-Clipped">
                    <mask id="mask-5" fill="white">
                        <use xlink:href="#path-4"></use>
                    </mask>
                    <g id="path-2"></g>
                    <rect id="Rectangle-path" fill="#FFFFFF" fill-rule="nonzero" mask="url(#mask-5)" x="37.1702039" y="36.094956" width="5.94621061" height="41.5344217"></rect>
                </g>
                <g id="Rectangle-path-Clipped">
                    <mask id="mask-7" fill="white">
                        <use xlink:href="#path-6"></use>
                    </mask>
                    <g id="path-2"></g>
                    <rect id="Rectangle-path" fill="#FFFFFF" fill-rule="nonzero" mask="url(#mask-7)" x="84.7398888" y="36.094956" width="5.94621061" height="41.5344217"></rect>
                </g>
                <g id="Rectangle-path-Clipped">
                    <mask id="mask-9" fill="white">
                        <use xlink:href="#path-8"></use>
                    </mask>
                    <g id="path-2"></g>
                    <rect id="Rectangle-path" fill="#FFFFFF" fill-rule="nonzero" mask="url(#mask-9)" x="60.9550463" y="36.094956" width="5.94621061" height="41.5344217"></rect>
                </g>
                <g id="Rectangle-path-Clipped">
                    <mask id="mask-11" fill="white">
                        <use xlink:href="#path-10"></use>
                    </mask>
                    <g id="path-2"></g>
                    <rect id="Rectangle-path" fill="#FFFFFF" fill-rule="nonzero" mask="url(#mask-11)" x="49.0626251" y="36.094956" width="5.94621061" height="41.5344217"></rect>
                </g>
                <g id="Rectangle-path-Clipped">
                    <mask id="mask-13" fill="white">
                        <use xlink:href="#path-12"></use>
                    </mask>
                    <g id="path-2"></g>
                    <rect id="Rectangle-path" fill="#FFFFFF" fill-rule="nonzero" mask="url(#mask-13)" x="72.8474675" y="36.094956" width="5.94621061" height="41.5344217"></rect>
                </g>
            </g>
        </g>
    </g>
</svg>