<?xml version="1.0" encoding="UTF-8" standalone="no"?>
<svg width="42px" height="42px" viewBox="0 0 42 42" version="1.1" xmlns="http://www.w3.org/2000/svg" xmlns:xlink="http://www.w3.org/1999/xlink">
    <!-- Generator: Sketch 41 (35326) - http://www.bohemiancoding.com/sketch -->
    <title>compute</title>
    <desc>Created with Sketch.</desc>
    <defs></defs>
    <g id="Page-1" stroke="none" stroke-width="1" fill="none" fill-rule="evenodd">
        <g id="Pricing_list" transform="translate(-370.000000, -614.000000)" fill="#2B85E7">
            <g id="compute" transform="translate(370.000000, 614.000000)">
                <path d="M16.2646886,15.1646058 C15.7137905,15.1646058 15.2626809,15.6147925 15.2626809,16.1637405 L15.2635056,25.5518208 C15.2635056,26.0999458 15.7146152,26.5517785 16.2646886,26.5517785 L25.6720156,26.5517785 C26.2229137,26.5517785 26.6740233,26.0999458 26.6740233,25.5518208 L26.6740233,16.1637405 C26.6740233,15.6147925 26.2237384,15.1637828 25.6728403,15.1637828 L16.2646886,15.1646058 Z" id="Fill-4"></path>
                <path d="M40.5660565,14.4074362 C41.0608752,14.4074362 41.4649771,14.002515 41.4649771,13.5103548 L41.4649771,12.0486882 C41.4649771,11.5565279 41.0608752,11.1516068 40.5660565,11.1516068 L35.9898089,11.1516068 L35.9898089,6.88265154 C35.9898089,6.33452657 35.5378745,5.88351684 34.9886258,5.88351684 L30.6936,5.88351684 L30.6944247,1.29934857 C30.6944247,0.808834337 30.2903229,0.40391319 29.7963289,0.40391319 L28.3300164,0.404736201 C27.8360224,0.404736201 27.4319205,0.808834337 27.4319205,1.30099459 L27.4327452,5.88351684 L22.6000165,5.88351684 L22.6000165,1.29934857 C22.6000165,0.808834337 22.1959147,0.40391319 21.7019207,0.40391319 L20.2356082,0.404736201 C19.7416142,0.404736201 19.3366876,0.808834337 19.3366876,1.30099459 L19.338337,5.88351684 L14.5056083,5.88433985 L14.5056083,1.29934857 C14.5056083,0.808834337 14.1015065,0.40391319 13.6075125,0.40391319 L12.1412,0.404736201 C11.6480307,0.404736201 11.2431041,0.808834337 11.2431041,1.30099459 L11.2439288,5.88433985 L6.94972776,5.88433985 C6.39882967,5.88433985 5.94772002,6.33452657 5.94772002,6.88265154 L5.94772002,11.1516068 L1.37147232,11.1516068 C0.879127778,11.1516068 0.474201194,11.5565279 0.474201194,12.0478652 L0.475025891,13.5120008 C0.475025891,14.0041611 0.879127778,14.4074362 1.37229702,14.4074362 L5.94772002,14.4074362 L5.94854471,19.2302775 L1.37147232,19.2294545 C0.879127778,19.2294545 0.474201194,19.6335526 0.474201194,20.1257129 L0.475025891,21.5882024 C0.475025891,22.0820087 0.879127778,22.4844608 1.37229702,22.4844608 L5.94854471,22.4844608 L5.94854471,27.3081252 L1.37147232,27.3073021 C0.879127778,27.3073021 0.474201194,27.7114003 0.474201194,28.2035605 L0.475025891,29.6660501 C0.475025891,30.1590334 0.879127778,30.5623085 1.37229702,30.5623085 L5.94854471,30.5623085 L5.94854471,34.8329098 C5.94854471,35.3810348 6.39965437,35.8320445 6.94972776,35.8320445 L11.2439288,35.8320445 L11.2439288,40.4137437 C11.2439288,40.90755 11.6488554,41.3108251 12.1428493,41.3108251 L13.6066878,41.3108251 C14.0998571,41.3108251 14.5039589,40.90755 14.5039589,40.4137437 L14.5056083,35.8320445 L19.3366876,35.8320445 L19.338337,40.4137437 C19.338337,40.90755 19.7424389,41.3108251 20.2364329,41.3108251 L21.701096,41.3108251 C22.1942653,41.3108251 22.5983671,40.90755 22.5983671,40.4137437 L22.6000165,35.8320445 L27.4319205,35.8320445 L27.4327452,40.4137437 C27.4327452,40.90755 27.8368471,41.3108251 28.3308411,41.3108251 L29.7946795,41.3108251 C30.2894982,41.3108251 30.6936,40.90755 30.6936,40.4137437 L30.6944247,35.8320445 L34.9878011,35.8320445 C35.5378745,35.8320445 35.9889842,35.3810348 35.9889842,34.8329098 L35.9898089,30.5623085 L40.5660565,30.5614855 C41.0608752,30.5614855 41.4649771,30.1590334 41.4649771,29.6660501 L41.4649771,28.2043835 C41.4649771,27.7114003 41.0608752,27.3081252 40.5660565,27.3081252 L35.9898089,27.3081252 L35.9898089,22.4844608 L40.5660565,22.4836378 C41.0608752,22.4836378 41.4649771,22.0811857 41.4649771,21.5882024 L41.4649771,20.1273589 C41.4649771,19.6343756 41.0608752,19.2302775 40.5660565,19.2302775 L35.9898089,19.2302775 L35.9898089,14.4074362 L40.5660565,14.4074362 L40.5660565,14.4074362 Z M9.32568191,32.4766308 L9.32568191,9.23893049 L32.6126717,9.23728447 L32.6101976,32.4766308 L9.32568191,32.4766308 Z" id="Fill-5"></path>
            </g>
        </g>
    </g>
</svg>