<svg width="128" height="115" xmlns="http://www.w3.org/2000/svg"><g fill-rule="nonzero" fill="none"><path d="M126.475 51.62L100.17 5.87C98.06 2.227 94.25 0 90.305 0H37.697c-4.215 0-7.895 2.47-9.865 5.875L1.527 51.525a11.475 11.475 0 0 0 0 11.438l26.305 45.95c2.105 3.652 5.918 6.087 9.863 6.087h52.607c4.218 0 7.898-2.657 9.865-6.06l26.303-45.75a11.727 11.727 0 0 0 .005-11.57z" fill="#4285F4"/><path d="M123.588 68.213L84.645 29.268l-3.477 1.647-37.83 9.532L48.3 45.41l-4.957 25.233 4.75 4.75-4.75 10.34L72.623 115h17.68c4.217 0 7.897-2.657 9.865-6.06l23.42-40.727z" fill="#000" opacity=".07"/><g fill="#FFF"><path d="M58.432 40.447H43.337v-11.18h41.308V40.42H69.678v15.035h-11.25z"/><path d="M43.343 44.435h11.134V59.39H69.55v26.343H58.42v-15.09H43.342V44.434zm30.204-.013h11.118v41.31H73.547v-41.31z"/><path d="M54.405 85.733h-11.05V74.61h11.05z"/></g></g></svg>
