<?xml version="1.0" encoding="UTF-8" standalone="no"?>
<svg width="24px" height="24px" viewBox="0 0 24 24" version="1.1" xmlns="http://www.w3.org/2000/svg" xmlns:xlink="http://www.w3.org/1999/xlink">
    <!-- Generator: Sketch 3.8.3 (29802) - http://www.bohemiancoding.com/sketch -->
    <title>compute-button-icon</title>
    <desc>Created with Sketch.</desc>
    <defs></defs>
    <g id="Page-2" stroke="none" stroke-width="1" fill="none" fill-rule="evenodd">
        <g id="Group-2" fill="#FFFFFF">
            <path d="M9.195105,8.59362688 C8.87430643,8.59362688 8.61161659,8.85572411 8.61161659,9.17531983 L8.61209683,14.6410294 C8.61209683,14.960146 8.87478667,15.2232015 9.195105,15.2232015 L14.6731727,15.2232015 C14.9939713,15.2232015 15.2566611,14.960146 15.2566611,14.6410294 L15.2566611,9.17531983 C15.2566611,8.85572411 14.9944515,8.59314772 14.673653,8.59314772 L9.195105,8.59362688 Z" id="Fill-4"></path>
            <path d="M23.3462597,8.1528052 C23.6344021,8.1528052 23.8697184,7.91706144 23.8697184,7.63052735 L23.8697184,6.77954986 C23.8697184,6.49301577 23.6344021,6.257272 23.3462597,6.257272 L20.6814225,6.257272 L20.6814225,3.77190024 C20.6814225,3.45278368 20.4182524,3.19020729 20.0984143,3.19020729 L17.5973381,3.19020729 L17.5978183,0.521319545 C17.5978183,0.235743765 17.362502,0 17.0748398,0 L16.2209778,0.000479153994 C15.9333156,0.000479153994 15.6979993,0.235743765 15.6979993,0.522277853 L15.6984795,3.19020729 L12.8842885,3.19020729 L12.8842885,0.521319545 C12.8842885,0.235743765 12.6489722,0 12.36131,0 L11.507448,0.000479153994 C11.2197858,0.000479153994 10.9839892,0.235743765 10.9839892,0.522277853 L10.9849497,3.19020729 L8.17075868,3.19068644 L8.17075868,0.521319545 C8.17075868,0.235743765 7.93544237,0 7.64778018,0 L6.79391813,0.000479153994 C6.50673618,0.000479153994 6.27093963,0.235743765 6.27093963,0.522277853 L6.27141987,3.19068644 L3.77082386,3.19068644 C3.45002529,3.19068644 3.18733545,3.45278368 3.18733545,3.77190024 L3.18733545,6.257272 L0.522498263,6.257272 C0.235796551,6.257272 0,6.49301577 0,6.7790707 L0.000480237374,7.63148566 C0.000480237374,7.91801975 0.235796551,8.1528052 0.5229785,8.1528052 L3.18733545,8.1528052 L3.18781569,10.9606476 L0.522498263,10.9601685 C0.235796551,10.9601685 0,11.1954331 0,11.4819672 L0.000480237374,12.3334238 C0.000480237374,12.6209162 0.235796551,12.8552225 0.5229785,12.8552225 L3.18781569,12.8552225 L3.18781569,15.6635441 L0.522498263,15.6630649 C0.235796551,15.6630649 0,15.8983295 0,16.1848636 L0.000480237374,17.0363202 C0.000480237374,17.3233335 0.235796551,17.5581189 0.5229785,17.5581189 L3.18781569,17.5581189 L3.18781569,20.044449 C3.18781569,20.3635656 3.45050553,20.626142 3.77082386,20.626142 L6.27141987,20.626142 L6.27141987,23.2935923 C6.27141987,23.5810846 6.50721642,23.8158701 6.7948786,23.8158701 L7.64729994,23.8158701 C7.93448189,23.8158701 8.1697982,23.5810846 8.1697982,23.2935923 L8.17075868,20.626142 L10.9839892,20.626142 L10.9849497,23.2935923 C10.9849497,23.5810846 11.220266,23.8158701 11.5079282,23.8158701 L12.3608298,23.8158701 C12.6480117,23.8158701 12.883328,23.5810846 12.883328,23.2935923 L12.8842885,20.626142 L15.6979993,20.626142 L15.6984795,23.2935923 C15.6984795,23.5810846 15.9337958,23.8158701 16.221458,23.8158701 L17.0738794,23.8158701 C17.3620218,23.8158701 17.5973381,23.5810846 17.5973381,23.2935923 L17.5978183,20.626142 L20.0979341,20.626142 C20.4182524,20.626142 20.6809423,20.3635656 20.6809423,20.044449 L20.6814225,17.5581189 L23.3462597,17.5576398 C23.6344021,17.5576398 23.8697184,17.3233335 23.8697184,17.0363202 L23.8697184,16.1853428 C23.8697184,15.8983295 23.6344021,15.6635441 23.3462597,15.6635441 L20.6814225,15.6635441 L20.6814225,12.8552225 L23.3462597,12.8547433 C23.6344021,12.8547433 23.8697184,12.620437 23.8697184,12.3334238 L23.8697184,11.4829255 C23.8697184,11.1959122 23.6344021,10.9606476 23.3462597,10.9606476 L20.6814225,10.9606476 L20.6814225,8.1528052 L23.3462597,8.1528052 L23.3462597,8.1528052 Z M5.15438773,18.6726311 L5.15438773,5.14371812 L18.7148505,5.14275981 L18.7134097,18.6726311 L5.15438773,18.6726311 Z" id="Fill-5"></path>
        </g>
    </g>
</svg>