<?xml version="1.0" encoding="UTF-8" standalone="no"?>
<svg width="26px" height="26px" viewBox="0 0 26 26" version="1.1" xmlns="http://www.w3.org/2000/svg" xmlns:xlink="http://www.w3.org/1999/xlink">
    <!-- Generator: Sketch 39.1 (31720) - http://www.bohemiancoding.com/sketch -->
    <title>container-registry copy 4</title>
    <desc>Created with Sketch.</desc>
    <defs></defs>
    <g id="Page-1" stroke="none" stroke-width="1" fill="none" fill-rule="evenodd">
        <g id="container-registry-copy-3" transform="translate(0.000000, 2.000000)" fill="#FFFFFF">
            <g id="Group" transform="translate(0.428571, 0.282051)">
                <polygon id="Fill-4" points="9.47619048 7.94644525 12.5714286 9.7129383 15.6666667 7.94644525 15.6666667 4.41345913 12.5714286 2.64696608 9.47619048 4.41345913"></polygon>
                <polygon id="Fill-5" points="13.7321429 15.1556848 16.827381 16.9221779 19.922619 15.1556848 19.922619 11.6226987 16.827381 9.85620566 13.7321429 11.6226987"></polygon>
                <polygon id="Fill-6" points="5.2202381 15.2512091 8.31547619 17.0177022 11.4107143 15.2512091 11.4107143 11.718223 8.31547619 9.95172997 5.2202381 11.718223"></polygon>
                <polygon id="Fill-7" points="5.60714286 3.29203205 2.51190476 5.05623344 2.51190476 16.4706432 5.60714286 18.2340807 5.60714286 20.9420668 0.19047619 17.8532821 0.19047619 3.67321261 5.60714286 0.586337607"></polygon>
                <polygon id="Fill-8" points="19.5357143 3.29203205 22.6309524 5.05623344 22.6309524 16.4706432 19.5357143 18.2340807 19.5357143 20.9420668 24.952381 17.8532821 24.952381 3.67321261 19.5357143 0.586337607"></polygon>
            </g>
        </g>
    </g>
</svg>