<svg width="19" height="19" viewBox="0 0 19 19" fill="none" xmlns="http://www.w3.org/2000/svg">
<path d="M17.771 6.25999C17.7476 6.1785 17.7091 6.09989 17.6549 6.02822C17.6147 5.97517 17.5686 5.92935 17.5181 5.89102C17.3817 5.72201 17.2254 5.56811 17.0514 5.43357L10.6335 0.472034C10.6145 0.457282 10.5947 0.443559 10.5743 0.430828C9.6504 -0.143609 8.50256 -0.143609 7.57872 0.430828C7.55829 0.443523 7.53851 0.457282 7.51946 0.472034L1.10161 5.43357C0.411812 5.96683 0 6.80571 0 7.67759V15.3198C3.54613e-05 16.8838 1.27242 18.1562 2.83644 18.1562H11.5584C11.95 18.1562 12.2675 17.8387 12.2675 17.4471C12.2675 17.0554 11.9501 16.738 11.5584 16.738H2.83644C2.05445 16.738 1.41824 16.1017 1.41824 15.3198V7.67759C1.41824 7.24167 1.62416 6.82223 1.96902 6.55556L8.3555 1.61829C8.80316 1.35357 9.34991 1.35357 9.79757 1.61829L15.9854 6.40198L9.80044 11.0809C9.35083 11.3482 8.80065 11.3479 8.35121 11.0801L4.14777 7.93288C3.83429 7.69813 3.38985 7.76203 3.15513 8.07551C2.92042 8.38898 2.98428 8.83338 3.29776 9.06814L7.52812 12.2355C7.54446 12.2477 7.56134 12.2592 7.57865 12.27C8.0406 12.5573 8.55852 12.7009 9.07646 12.7009C9.59438 12.7009 10.1123 12.5573 10.5743 12.27C10.5926 12.2586 10.6104 12.2464 10.6276 12.2334L16.7333 7.61444C16.7343 7.63543 16.7348 7.65646 16.7348 7.67756V9.15059C16.7348 9.54222 17.0522 9.8597 17.4439 9.8597C17.8356 9.8597 18.153 9.54226 18.153 9.15059V7.67756C18.153 7.17695 18.0172 6.68723 17.771 6.25999Z" fill="#009DE0"/>
<path d="M17.945 13.5881L15.8511 11.498C15.4391 11.0861 14.7687 11.0861 14.3571 11.4976L12.2629 13.5881C11.9857 13.8648 11.9853 14.3138 12.262 14.5909C12.5387 14.8681 12.9877 14.8685 13.2648 14.5918L14.3948 13.4639V17.4471C14.3948 17.8387 14.7122 18.1562 15.1039 18.1562C15.4956 18.1562 15.813 17.8388 15.813 17.4471V13.4639L16.943 14.5918C17.0814 14.73 17.2627 14.7991 17.444 14.7991C17.6256 14.7991 17.8073 14.7296 17.9459 14.5909C18.2225 14.3138 18.2221 13.8648 17.945 13.5881Z" fill="#009DE0"/>
</svg>
