<?xml version="1.0" encoding="UTF-8" standalone="no"?>
<svg width="26px" height="26px" viewBox="0 0 26 26" version="1.1" xmlns="http://www.w3.org/2000/svg" xmlns:xlink="http://www.w3.org/1999/xlink">
    <!-- Generator: Sketch 39.1 (31720) - http://www.bohemiancoding.com/sketch -->
    <title>container-engine copy</title>
    <desc>Created with Sketch.</desc>
    <defs></defs>
    <g id="Page-1" stroke="none" stroke-width="1" fill="none" fill-rule="evenodd">
        <g id="container-engine-logo-copy-2" transform="translate(2.000000, 0.000000)" fill="#FFFFFF">
            <path d="M20.8417145,6.26927696 L11.340684,0.758833262 C11.0056179,0.564522496 10.5931053,0.564522496 10.2580392,0.758833262 L0.757008664,6.26927696 C0.421942544,6.46358773 0.215686275,6.82278045 0.215686275,7.21140198 L0.215686275,18.2326925 C0.215686275,18.6217172 0.421942544,18.9805068 0.757008664,19.1748175 L10.2580392,24.6856644 C10.5931053,24.8799751 11.0056179,24.8799751 11.340684,24.6856644 L20.8417145,19.1748175 C21.1767807,18.9805068 21.3830369,18.6217172 21.3830369,18.2326925 L21.3830369,7.21140198 C21.3830369,6.82278045 21.1767807,6.46358773 20.8417145,6.26927696 L20.8417145,6.26927696 Z M19.5379663,17.1768836 L16.22342,15.2543358 L16.22342,10.1901618 L11.3286457,13.0290341 L11.3286457,18.7075848 L15.6941359,16.1750947 L19.0090834,18.0976425 L10.7993616,22.8594657 L2.58963976,18.0976425 L5.90458732,16.1750947 L10.2700775,18.7075848 L10.2700775,13.0290341 L5.37530324,10.1901618 L5.37530324,15.2543358 L2.06075695,17.1768836 L2.06075695,7.65364039 L10.2700775,2.89181721 L10.2700775,6.73691283 L5.90458732,9.26899981 L10.7993616,12.1082752 L15.6941359,9.26899981 L11.3286457,6.73691283 L11.3286457,2.89181721 L19.5379663,7.65364039 L19.5379663,17.1768836 L19.5379663,17.1768836 Z" id="Fill-4"></path>
        </g>
    </g>
</svg>