<?xml version="1.0" encoding="UTF-8" standalone="no"?>
<svg width="26px" height="26px" viewBox="0 0 26 26" version="1.1" xmlns="http://www.w3.org/2000/svg" xmlns:xlink="http://www.w3.org/1999/xlink">
    <!-- Generator: Sketch 42 (36781) - http://www.bohemiancoding.com/sketch -->
    <title>white-cta-icon</title>
    <desc>Created with Sketch.</desc>
    <defs></defs>
    <g id="Custom-Icons" stroke="none" stroke-width="1" fill="none" fill-rule="evenodd">
        <g id="Sprites-Copy" transform="translate(-267.000000, -509.000000)" fill-rule="nonzero" fill="#FFFFFF">
            <path d="M280,510 C273.35082,510 268,515.437035 268,522.104348 C268,528.811347 273.390164,534.208696 280,534.208696 C286.609836,534.208696 292,528.771661 292,522.104348 C292,515.437035 286.64918,510 280,510 Z M280,531.867199 C278.15082,531.867199 276.459016,531.351276 274.963934,530.438489 L279.252459,527.938247 L279.252459,527.938247 L279.252459,522.461525 L274.570492,519.723165 L274.570492,525.199886 L277.87541,527.104833 L273.704918,529.525702 C271.619672,527.739815 270.321311,525.080827 270.321311,522.144034 C270.321311,518.492887 272.327869,515.317976 275.239344,513.651148 L275.239344,518.532573 L275.239344,518.532573 L280,521.231247 L284.681967,518.492887 L280,515.794212 L276.695082,517.738845 L276.695082,513.016165 C277.718033,512.619301 278.859016,512.42087 280.039344,512.42087 C285.35082,512.42087 289.678689,516.786372 289.678689,522.144034 L289.678689,522.223407 L285.390164,519.723165 L285.390164,519.723165 L285.390164,519.723165 L285.390164,519.723165 L285.390164,519.723165 L280.708197,522.461525 L280.708197,527.938247 L285.390164,525.199886 L285.390164,521.350306 L289.521311,523.771176 C288.734426,528.33511 284.760656,531.867199 280,531.867199 Z" id="Shape"></path>
        </g>
    </g>
</svg>