<?xml version="1.0" encoding="UTF-8"?>
<svg width="128px" height="115px" viewBox="0 0 128 115" version="1.1" xmlns="http://www.w3.org/2000/svg" xmlns:xlink="http://www.w3.org/1999/xlink">
    <!-- Generator: Sketch 42 (36781) - http://www.bohemiancoding.com/sketch -->
    <title>container-optimized-os</title>
    <desc>Created with Sketch.</desc>
    <defs></defs>
    <g id="Page-1" stroke="none" stroke-width="1" fill="none" fill-rule="evenodd">
        <g id="Product-Logos" transform="translate(-347.000000, -559.000000)" fill-rule="nonzero">
            <g id="container-optimized-os" transform="translate(347.000000, 559.000000)">
                <g id="Layer_1">
                    <path d="M28.3569231,108.388174 L2.46153846,62.8090435 C0.393846154,59.2027826 0.393846154,54.8953043 2.46153846,51.2890435 L28.3569231,5.70991304 C30.4246154,2.10365217 34.1661538,0 38.2030769,0 L89.8953846,0 C93.9323077,0 97.6738462,2.20382609 99.7415385,5.70991304 L125.636923,51.2890435 C127.704615,54.8953043 127.704615,59.2027826 125.636923,62.8090435 L99.7415385,108.388174 C97.6738462,111.994435 93.9323077,114.098087 89.8953846,114.098087 L38.1046154,114.098087 C34.0676923,114.098087 30.3261538,111.894261 28.3569231,108.388174 Z" id="Shape" fill="#4386FA"></path>
                    <path d="M76.2092308,114.098087 L40.96,76.9335652 L37.9076923,43.8761739 L64.5907692,28.4493913 L88.4184615,39.6688696 L120.32,72.1252174 C115.101538,81.6417391 102.793846,103.279304 99.6430769,108.588522 C97.9692308,111.493565 94.5230769,114.298435 89.8953846,114.298435" id="Shape" fill="#407ADE"></path>
                    <path d="M64,26.7464348 C47.36,26.7464348 33.9692308,40.4702609 33.9692308,57.2994783 C33.9692308,74.2288696 47.4584615,87.8525217 64,87.8525217 C80.5415385,87.8525217 94.0307692,74.1286957 94.0307692,57.2994783 C94.0307692,40.4702609 80.64,26.7464348 64,26.7464348 Z M64,81.9422609 C59.3723077,81.9422609 55.1384615,80.64 51.3969231,78.336 L62.1292308,72.0250435 L62.1292308,72.0250435 L62.1292308,58.2010435 L50.4123077,51.2890435 L50.4123077,65.1130435 L58.6830769,69.9213913 L48.2461538,76.032 C43.0276923,71.5241739 39.7784615,64.8125217 39.7784615,57.3996522 C39.7784615,48.1836522 44.8,40.1697391 52.0861538,35.9624348 L52.0861538,48.2838261 L52.0861538,48.2838261 L64,55.0956522 L75.7169231,48.1836522 L64,41.3718261 L55.7292308,46.2803478 L55.7292308,34.3596522 C58.2892308,33.357913 61.1446154,32.8570435 64.0984615,32.8570435 C77.3907692,32.8570435 88.2215385,43.8761739 88.2215385,57.3996522 L88.2215385,57.6 L77.4892308,51.2890435 L77.4892308,51.2890435 L77.4892308,51.2890435 L77.4892308,51.2890435 L77.4892308,51.2890435 L65.7723077,58.2010435 L65.7723077,72.0250435 L77.4892308,65.1130435 L77.4892308,55.3961739 L87.8276923,61.5067826 C85.8584615,73.0267826 75.9138462,81.9422609 64,81.9422609 Z" id="Shape" fill="#FFFFFF"></path>
                </g>
            </g>
        </g>
    </g>
</svg>
