<svg width="36" height="36" viewBox="0 0 36 36" fill="none" xmlns="http://www.w3.org/2000/svg">
<path d="M5.29384 4.79634C8.67316 1.70335 13.158 0 17.9218 0C22.6857 0 27.1704 1.70335 30.5497 4.79634C33.9636 7.92084 35.8437 12.085 35.8437 16.5217C35.8437 19.9818 34.7122 23.2601 32.5625 26.0548L35.7416 33.9188C35.9552 34.4471 35.8273 35.0522 35.4181 35.4488C35.1514 35.7074 34.8001 35.8437 34.4432 35.8437C34.2526 35.8437 34.0603 35.8048 33.8787 35.7248L24.8719 31.7544C22.6708 32.61 20.3356 33.0435 17.9218 33.0435C14.9005 33.0435 11.9132 32.3374 9.283 31.0015C8.59356 30.6513 8.3185 29.8086 8.66868 29.1191C9.01886 28.4296 9.8616 28.1546 10.5511 28.5047C12.7904 29.642 15.339 30.2432 17.9218 30.2432C20.1658 30.2432 22.3265 29.8067 24.3441 28.946C24.7004 28.7939 25.1038 28.7964 25.4583 28.9526L31.8531 31.7716L29.6573 26.3398C29.4618 25.8561 29.5513 25.3037 29.8898 24.9067C31.9529 22.4864 33.0434 19.5869 33.0434 16.5217C33.0434 8.95569 26.2599 2.80029 17.9218 2.80029C9.58375 2.80029 2.80025 8.95569 2.80025 16.5217C2.80025 19.1271 3.60869 21.6621 5.13835 23.8525C5.58108 24.4865 5.42608 25.3593 4.79203 25.802C4.15818 26.2448 3.28512 26.0897 2.84246 25.4557C0.982857 22.7928 -4.57764e-05 19.7035 -4.57764e-05 16.5217C-4.57764e-05 12.085 1.88 7.92084 5.29384 4.79634Z" fill="#009DE0"/>
</svg>
