<?xml version="1.0" encoding="UTF-8"?>
<svg width="129px" height="114px" viewBox="0 0 129 114" version="1.1" xmlns="http://www.w3.org/2000/svg" xmlns:xlink="http://www.w3.org/1999/xlink">
    <!-- Generator: Sketch 42 (36781) - http://www.bohemiancoding.com/sketch -->
    <title>datastudio</title>
    <desc>Created with Sketch.</desc>
    <defs></defs>
    <g id="Page-1" stroke="none" stroke-width="1" fill="none" fill-rule="evenodd">
        <g id="Product-Logos" transform="translate(-682.000000, -364.000000)" fill-rule="nonzero">
            <g id="datastudio" transform="translate(681.000000, 364.000000)">
                <g id="Data_Studio_Hex_Logo_128px_Marketing_Blue">
                    <g id="BASE" fill="#4285F4">
                        <path d="M28.79,108.22 L2.54,62.75 C0.485722858,59.1918876 0.485722858,54.8081124 2.54,51.25 L28.79,5.78 C30.8367655,2.21011891 34.6349952,0.00592537921 38.75,3.38621275e-14 L91.25,3.38621275e-14 C95.3730903,-0.014580179 99.1884677,2.17926181 101.25,5.75 L127.5,51.22 C129.554277,54.7781124 129.554277,59.1618876 127.5,62.72 L101.25,108.19 C99.1884677,111.760738 95.3730903,113.95458 91.25,113.94 L38.75,113.94 C34.6473717,113.94645 30.8520142,111.766787 28.79,108.22 Z" id="Shape"></path>
                    </g>
                    <g id="shadow" transform="translate(39.000000, 31.000000)" fill="#3D7BE2">
                        <path d="M62.21,77.22 L85.45,37 L50.53,1.88 L40.26,0.35 L27.52,0.35 L0.43,24.43 L0.43,40.68 L1.06,41.31 L1.06,49.68 L34.2,83 L52.2,83 C56.3328715,83.0120104 60.1543544,80.8053999 62.21,77.22 Z" id="Shape"></path>
                    </g>
                    <g id="art" transform="translate(39.000000, 31.000000)" fill="#FFFFFF">
                        <path d="M47.46,0.35 L35.56,0.35 L35.56,17.06 C35.5909221,21.9157462 33.7042532,26.5874976 30.31,30.06 C26.8800386,33.5810924 22.1654924,35.5557147 17.25,35.53 L0.43,35.53 L0.43,47.54 C0.451688262,49.8008458 2.27915419,51.6283117 4.54,51.65 L25.54,51.65 C39.95,51.65 51.54,40.65 51.54,25.81 L51.54,4.46 C51.518637,2.21066116 49.709122,0.387840921 47.46,0.35 L47.46,0.35 Z" id="Shape"></path>
                        <path d="M0.43,4.46 L0.43,32.46 L17.25,32.46 C21.3598251,32.4841062 25.3023854,30.8341519 28.17,27.89 C31.0057513,24.988175 32.5862099,21.0873158 32.57,17.03 L32.57,0.35 L4.57,0.35 C2.29744725,0.355370542 0.451897838,2.18754641 0.43,4.46 L0.43,4.46 Z" id="Shape"></path>
                    </g>
                </g>
            </g>
        </g>
    </g>
</svg>