<?xml version="1.0" encoding="UTF-8" standalone="no"?>
<svg width="26px" height="26px" viewBox="0 0 26 26" version="1.1" xmlns="http://www.w3.org/2000/svg" xmlns:xlink="http://www.w3.org/1999/xlink">
    <!-- Generator: Sketch 39.1 (31720) - http://www.bohemiancoding.com/sketch -->
    <title>datastore copy</title>
    <desc>Created with Sketch.</desc>
    <defs></defs>
    <g id="Page-1" stroke="none" stroke-width="1" fill="none" fill-rule="evenodd">
        <g id="Dataproc_128px-Copy-2" transform="translate(2.000000, -33.000000)">
            <g id="shadow" transform="translate(0.225093, 0.252142)"></g>
        </g>
        <g id="CloudDatastore-logo-Copy-2" transform="translate(1.000000, 5.000000)" fill="#FFFFFF">
            <g id="art" transform="translate(0.597701, 0.007100)">
                <g id="Group">
                    <path d="M5.47299652,0.179497461 L0.741093825,0.180576717 C0.371130714,0.180576717 0.0684437316,0.490493852 0.0684437316,0.867438519 L0.0684437316,5.72023189 C0.0684437316,6.09825581 0.371797915,6.40811615 0.741705426,6.40811615 L5.47232932,6.40811615 C5.84229244,6.40811615 6.14497942,6.09819901 6.14497942,5.72023189 L6.14497942,0.867438519 C6.14497942,0.490437049 5.84295964,0.179497461 5.47299652,0.179497461" id="Shape"></path>
                    <path d="M14.5971965,9.49694935 L9.86523817,9.49729016 C9.49527506,9.49729016 9.19264368,9.80680968 9.19264368,10.1838111 L9.19331088,15.0380246 C9.19331088,15.4152533 9.49594226,15.7245456 9.86590537,15.7245456 L14.5965293,15.7245456 C14.9664924,15.7245456 15.269791,15.4153101 15.269791,15.0380246 L15.2704582,10.1838111 C15.2704582,9.80680968 14.9671596,9.49694935 14.5971965,9.49694935" id="Shape"></path>
                    <path d="M23.7227308,9.49694935 L18.9908281,9.49729016 C18.620865,9.49729016 18.3188452,9.80680968 18.3188452,10.1838111 L18.3188452,15.0380246 C18.3188452,15.4152533 18.6214766,15.7245456 18.9914397,15.7245456 L23.7220636,15.7245456 C24.0920267,15.7245456 24.3953253,15.4153101 24.3953253,15.0380246 L24.3959925,10.1838111 C24.3959925,9.80680968 24.0926383,9.49694935 23.7227308,9.49694935" id="Shape"></path>
                    <path d="M5.47299652,9.49694935 L0.741093825,9.4980286 C0.371130714,9.4980286 0.0677765303,9.80794574 0.0677765303,10.1848904 L0.0684437316,15.038763 C0.0684437316,15.4160485 0.371797915,15.725284 0.741705426,15.725284 L5.47232932,15.725284 C5.84095803,15.725284 6.14431222,15.4161053 6.14431222,15.038763 L6.14497942,10.1845496 C6.14497942,9.80788893 5.84156963,9.49694935 5.47299652,9.49694935 L5.47299652,9.49694935 Z M4.79639882,14.3374165 L1.41641272,14.3374165 L1.41641272,10.8843625 L4.79639882,10.8843625 L4.79639882,14.3374165 L4.79639882,14.3374165 Z" id="Shape"></path>
                    <path d="M14.5978081,0.179497461 L9.86590537,0.180576717 C9.49594226,0.180576717 9.19331088,0.490493852 9.19331088,0.867438519 L9.19331088,5.72131115 C9.19331088,6.09825581 9.49666506,6.40817295 9.86657257,6.40817295 L14.5971965,6.40817295 C14.9664368,6.40817295 15.269791,6.09825581 15.269791,5.72131115 L15.269791,0.867438519 C15.269791,0.490437049 14.9671596,0.179497461 14.5978081,0.179497461 L14.5978081,0.179497461 Z M13.9212104,5.01996458 L10.5412799,5.01996458 L10.5412799,1.56759222 L13.9212104,1.56759222 L13.9212104,5.01996458 L13.9212104,5.01996458 Z" id="Shape"></path>
                    <path d="M23.723398,0.179497461 L18.9914397,0.180576717 C18.620865,0.180576717 18.318178,0.490493852 18.318178,0.867438519 L18.3188452,5.72131115 C18.3188452,6.09825581 18.6221994,6.40817295 18.9921069,6.40817295 L23.722008,6.40817295 C24.0919711,6.40817295 24.3946581,6.09825581 24.3946581,5.72131115 L24.3952697,0.867438519 C24.3952697,0.490437049 24.0919711,0.179497461 23.723398,0.179497461 L23.723398,0.179497461 Z M23.0466891,5.01996458 L19.6667586,5.01996458 L19.6667586,1.56759222 L23.0466891,1.56759222 L23.0466891,5.01996458 L23.0466891,5.01996458 Z" id="Shape"></path>
                </g>
            </g>
        </g>
    </g>
</svg>
