<?xml version="1.0" encoding="UTF-8" standalone="no"?>
<svg width="26px" height="26px" viewBox="0 0 26 26" version="1.1" xmlns="http://www.w3.org/2000/svg" xmlns:xlink="http://www.w3.org/1999/xlink">
    <!-- Generator: Sketch 39.1 (31720) - http://www.bohemiancoding.com/sketch -->
    <title>datalab copy</title>
    <desc>Created with Sketch.</desc>
    <defs></defs>
    <g id="Page-1" stroke="none" stroke-width="1" fill="none" fill-rule="evenodd">
        <g id="datalab-logo-copy-2" transform="translate(5.000000, 1.000000)" fill="#FFFFFF">
            <path d="M7.32314507,5.63351249 C7.32314507,6.11768603 6.93404208,6.51002739 6.45386489,6.51002739 C5.97368771,6.51002739 5.58458472,6.11768603 5.58458472,5.63351249 C5.58458472,5.14969627 5.97368771,4.75699759 6.45386489,4.75699759 C6.93404208,4.75699759 7.32314507,5.14969627 7.32314507,5.63351249" id="Fill-4"></path>
            <path d="M11.0376966,4.19099693 C11.0376966,4.91707858 10.4536877,5.50594795 9.73359911,5.50594795 C9.01351052,5.50594795 8.42985604,4.91707858 8.42985604,4.19099693 C8.42985604,3.46491528 9.01351052,2.87604592 9.73359911,2.87604592 C10.4536877,2.87604592 11.0376966,3.46491528 11.0376966,4.19099693" id="Fill-5"></path>
            <path d="M8.62688815,1.05012209 C8.62688815,1.53429563 8.23778516,1.92663699 7.75760797,1.92663699 C7.27743079,1.92663699 6.8883278,1.53429563 6.8883278,1.05012209 C6.8883278,0.565948545 7.27743079,0.173607182 7.75760797,0.173607182 C8.23778516,0.173607182 8.62688815,0.565948545 8.62688815,1.05012209" id="Fill-6"></path>
            <path d="M11.4179402,20.5492734 L10.8041639,19.4773025 L15.0066888,19.4773025 L10.8254264,12.1750365 L10.6797785,12.1761084 L14.2773865,18.4053316 L4.92190476,18.4053316 L3.80066445,20.3631078 C3.72305648,20.4988908 3.72305648,20.665761 3.80066445,20.8015439 L5.16465116,23.1838207 L14.1494574,23.1838207 L15.639247,20.5825045 L15.6204651,20.5492734 L11.4179402,20.5492734" id="Fill-7"></path>
            <path d="M15.8054485,20.0958297 L11.0607309,11.8091371 C11.0224585,11.7426749 11.0022591,11.6669223 11.0022591,11.5900977 L11.0022591,9.82956407 L11.6943522,9.82956407 C11.7925138,9.82956407 11.8715393,9.75095286 11.8715393,9.65233154 L11.8715393,8.64289224 C11.8715393,8.54391359 11.7925138,8.46423041 11.6943522,8.46423041 L4.66002215,8.46423041 C4.56221484,8.46423041 4.48283499,8.54391359 4.48283499,8.64289224 L4.48283499,9.65233154 C4.48283499,9.75095286 4.56221484,9.82956407 4.66002215,9.82956407 L5.35211517,9.82956407 L5.35211517,11.5900977 C5.35211517,11.6669223 5.33191584,11.7426749 5.29364341,11.8091371 L0.548925803,20.0958297 C0.393709856,20.3670384 0.393709856,20.701136 0.548925803,20.9723446 L2.28252492,23.9999479 C2.43774086,24.2711565 2.72478405,24.438384 3.03557032,24.438384 L13.318804,24.438384 C13.6295903,24.438384 13.9166334,24.2711565 14.0718494,23.9999479 L15.8054485,20.9723446 C15.9606645,20.701136 15.9606645,20.3670384 15.8054485,20.0958297 L15.8054485,20.0958297 Z M14.3248726,20.7161436 L13.1433887,22.7796876 C13.0657807,22.9151133 12.9222591,22.998727 12.7670432,22.998727 L3.58733112,22.998727 C3.43211517,22.998727 3.28859358,22.9151133 3.2109856,22.7796876 L2.02950166,20.7161436 C1.95189369,20.5807179 1.95189369,20.4134905 2.02950166,20.2780648 L6.62644518,12.2497171 C6.70263566,12.1164354 6.74303433,11.9652875 6.74303433,11.8116383 L6.74303433,9.82956407 L9.61133998,9.82956407 L9.61133998,11.8116383 C9.61133998,11.9652875 9.65138427,12.1164354 9.72792913,12.2497171 L14.3248726,20.2780648 C14.4024806,20.4134905 14.4024806,20.5807179 14.3248726,20.7161436 L14.3248726,20.7161436 Z" id="Fill-8"></path>
            <polyline id="Fill-9" points="8.01665559 14.8142289 12.2581617 14.8142289 11.6209967 13.7990724 7.43548173 13.7990724 8.01665559 14.8142289"></polyline>
            <polyline id="Fill-10" points="8.88593577 16.2613897 9.49368771 17.3226409 13.8213068 17.3226409 13.1968992 16.2613897 8.88593577 16.2613897"></polyline>
        </g>
    </g>
</svg>