<?xml version="1.0" encoding="UTF-8"?>
<svg width="24px" height="24px" viewBox="0 0 24 24" version="1.1" xmlns="http://www.w3.org/2000/svg" xmlns:xlink="http://www.w3.org/1999/xlink">
    <!-- Generator: Sketch 41.2 (35397) - http://www.bohemiancoding.com/sketch -->
    <title>Datastudio</title>
    <desc>Created with Sketch.</desc>
    <defs></defs>
    <g id="Page-1" stroke="none" stroke-width="1" fill="none" fill-rule="evenodd">
        <g id="Datastudio" fill="#FFFFFF">
            <g id="art">
                <path d="M21.9046154,0.161538462 L16.4123077,0.161538462 L16.4123077,7.87384615 C16.4265794,10.1149598 15.5558092,12.2711528 13.9892308,13.8738462 C12.4061717,15.4989657 10.2302273,16.4103299 7.96153846,16.3984615 L0.198461538,16.3984615 L0.198461538,21.9415385 C0.208471506,22.9850058 1.05191732,23.8284516 2.09538462,23.8384615 L11.7876923,23.8384615 C18.4384615,23.8384615 23.7876923,18.7615385 23.7876923,11.9123077 L23.7876923,2.05846154 C23.7778324,1.02030515 22.9426717,0.179003502 21.9046154,0.161538462 L21.9046154,0.161538462 Z" id="Shape"></path>
                <path d="M0.198461538,2.05846154 L0.198461538,14.9815385 L7.96153846,14.9815385 C9.85838083,14.9926644 11.6780241,14.231147 13.0015385,12.8723077 C14.3103468,11.5330038 15.0397892,9.73260727 15.0323077,7.86 L15.0323077,0.161538462 L2.10923077,0.161538462 C1.06036027,0.164017173 0.208568233,1.00963681 0.198461538,2.05846154 L0.198461538,2.05846154 Z" id="Shape"></path>
            </g>
        </g>
    </g>
</svg>