<svg xmlns="http://www.w3.org/2000/svg" xmlns:xlink="http://www.w3.org/1999/xlink" viewBox="0 0 432 243"><defs><style>.cls-1{fill:none;}.cls-2{fill:#f1f3f4;}.cls-3{fill:#34a853;}.cls-4{clip-path:url(#clip-path);}.cls-5{fill:#fff;}.cls-6{clip-path:url(#clip-path-2);}.cls-7{fill:#fbbc04;}.cls-8{fill:#fdd663;}.cls-9{fill:#f8f9fa;}</style><clipPath id="clip-path"><ellipse class="cls-1" cx="171.37" cy="102.14" rx="45.89" ry="46.04"/></clipPath><clipPath id="clip-path-2"><path class="cls-1" d="M217.26,102.14a45.91,45.91,0,0,0-8.1-26.08c-15.92-4.4-28.85-.27-34,6.5-11.9,15.57-4.53,28.53-9.93,42.38-3.69,9.47-8.56,13.8-14.06,18.52a45.5,45.5,0,0,0,20.22,4.72A46,46,0,0,0,217.26,102.14Z"/></clipPath></defs><g id="BG"><ellipse class="cls-2" cx="247.3" cy="100.66" rx="65.16" ry="65.37"/><ellipse class="cls-2" cx="180.79" cy="152.97" rx="54.57" ry="54.75"/><path class="cls-2" d="M142.26,70.55h0a1.11,1.11,0,0,1-.65,1L139,72.77a6.71,6.71,0,0,0-3.35,3.35l-1.19,2.63a1.12,1.12,0,0,1-1,.66h0a1.12,1.12,0,0,1-1-.66l-1.19-2.63a6.71,6.71,0,0,0-3.35-3.35l-2.62-1.2a1.11,1.11,0,0,1-.65-1h0a1.11,1.11,0,0,1,.65-1l2.62-1.19A6.77,6.77,0,0,0,131.23,65l1.19-2.63a1.12,1.12,0,0,1,1-.66h0a1.12,1.12,0,0,1,1,.66L135.64,65A6.77,6.77,0,0,0,139,68.34l2.62,1.19A1.11,1.11,0,0,1,142.26,70.55Z"/></g><g id="_04" data-name="04"><ellipse class="cls-3" cx="171.37" cy="102.14" rx="45.89" ry="46.04"/><g class="cls-4"><ellipse class="cls-5" cx="173.01" cy="146.4" rx="35.22" ry="35.34"/><ellipse class="cls-5" cx="171.37" cy="88.98" rx="15.91" ry="15.96"/></g><g class="cls-6"><ellipse class="cls-7" cx="171.37" cy="102.14" rx="45.89" ry="46.04"/><g class="cls-4"><ellipse class="cls-8" cx="173.01" cy="146.4" rx="35.22" ry="35.34"/><ellipse class="cls-8" cx="171.37" cy="88.98" rx="15.91" ry="15.96"/></g></g><path class="cls-9" d="M278.19,176l35.9-36a1.74,1.74,0,0,0,.3-2.09,74.86,74.86,0,0,0-11.28-15.39c-9.49-9.53-16.36-10-25.15-18.83a50.27,50.27,0,0,1-10.58-15.49,1.74,1.74,0,0,0-2.84-.55l-37.22,37.34Z"/><path class="cls-7" d="M295.56,158.53l18.53-18.6a1.74,1.74,0,0,0,.3-2.09,74.86,74.86,0,0,0-11.28-15.39c-9.49-9.53-16.36-10-25.15-18.83a50.27,50.27,0,0,1-10.58-15.49,1.74,1.74,0,0,0-2.84-.55L240,112.24a31.49,31.49,0,0,1,10.71,7c5.59,5.61-.47,10.76,2.09,13.34,3.73,3.73,10.36-5.33,16.74,1.06,2.93,2.95,3.44,8.57,10.7,15.85C287.7,157,295.56,158.53,295.56,158.53Z"/><path class="cls-3" d="M232.72,121.16l49.22,49.38a1.19,1.19,0,0,1,0,1.66l-5.69,5.7a12.31,12.31,0,0,1-17.44,0l-.37-.36a13.12,13.12,0,0,0-20.72,2.79l-4.22,7.42a13.13,13.13,0,0,1-20.73,2.8h0a13.22,13.22,0,0,1,2.79-20.79l7.4-4.24a13.21,13.21,0,0,0,2.78-20.79l-.36-.37a12.38,12.38,0,0,1,0-17.49l5.69-5.71A1.16,1.16,0,0,1,232.72,121.16Z"/></g></svg>