<?xml version="1.0" encoding="UTF-8"?>
<svg width="22px" height="24px" viewBox="0 0 22 24" version="1.1" xmlns="http://www.w3.org/2000/svg" xmlns:xlink="http://www.w3.org/1999/xlink">
    <!-- Generator: Sketch 41.2 (35397) - http://www.bohemiancoding.com/sketch -->
    <title>Dataprep Logo</title>
    <desc>Created with Sketch.</desc>
    <defs></defs>
    <g id="Page-1" stroke="none" stroke-width="1" fill="none" fill-rule="evenodd">
        <g id="Cloud-Data-Prep" transform="translate(-189.000000, -260.000000)" fill="#FFFFFF">
            <g id="Dataprep-Logo" transform="translate(189.000000, 260.000000)">
                <rect id="Rectangle-path" x="9.268" y="-3.55271368e-15" width="2" height="23.8"></rect>
                <path d="M9.056,10.708 C9.65246753,10.708 10.136,11.1915325 10.136,11.788 C10.136,12.3844675 9.65246753,12.868 9.056,12.868 C8.45953247,12.868 7.976,12.3844675 7.976,11.788 C7.9781936,11.1924435 8.46044346,10.7101936 9.056,10.708 L9.056,10.708 Z M9.056,9.764 C7.94027078,9.76841878 7.03854471,10.6749191 7.04001764,11.7906561 C7.04149057,12.9063931 7.94560691,13.8105094 9.06134391,13.8119824 C10.1770809,13.8134553 11.0835812,12.9117292 11.088,11.796 C11.088,10.6781757 10.1818243,9.772 9.064,9.772 L9.056,9.764 Z" id="Shape"></path>
                <path d="M2.024,10.708 C2.62046753,10.708 3.104,11.1915325 3.104,11.788 C3.104,12.3844675 2.62046753,12.868 2.024,12.868 C1.42753247,12.868 0.944,12.3844675 0.944,11.788 C0.946193601,11.1924435 1.42844346,10.7101936 2.024,10.708 L2.024,10.708 Z M2.024,9.764 C0.906175666,9.764 0,10.6701757 0,11.788 C0,12.9058243 0.906175666,13.812 2.024,13.812 C3.14182433,13.812 4.048,12.9058243 4.048,11.788 C4.048,11.2512018 3.83475776,10.7363895 3.45518413,10.3568159 C3.0756105,9.97724224 2.56079818,9.764 2.024,9.764 L2.024,9.764 Z" id="Shape"></path>
                <path d="M15.928,3.42 L10.564,3.42 C10.3360731,3.45695887 10.177505,3.6666212 10.204,3.896 L10.204,7.244 C10.177505,7.4733788 10.3360731,7.68304113 10.564,7.72 L15.928,7.72 C16.1559269,7.68304113 16.314495,7.4733788 16.288,7.244 L16.288,3.908 C16.3215167,3.67428817 16.1611922,3.4569594 15.928,3.42 L15.928,3.42 Z" id="Shape"></path>
                <path d="M21.068,9.7 L11.168,9.7 C10.804,9.7 10.504,9.912 10.504,10.176 L10.504,13.508 C10.504,13.768 10.804,13.984 11.168,13.984 L21.068,13.984 C21.432,13.984 21.732,13.772 21.732,13.508 L21.732,10.176 C21.732,9.908 21.432,9.7 21.068,9.7 Z" id="Shape"></path>
                <path d="M14.028,15.984 L9.832,15.984 C9.676,15.984 9.548,16.196 9.548,16.46 L9.548,19.808 C9.548,20.068 9.676,20.284 9.832,20.284 L14.028,20.284 C14.184,20.284 14.308,20.072 14.308,19.808 L14.308,16.456 C14.312,16.196 14.184,15.984 14.028,15.984 Z" id="Shape"></path>
                <path d="M5.604,17.032 C6.20046753,17.032 6.684,17.5155325 6.684,18.112 C6.684,18.7084675 6.20046753,19.192 5.604,19.192 C5.00753247,19.192 4.524,18.7084675 4.524,18.112 C4.5261936,17.5164435 5.00844346,17.0341936 5.604,17.032 L5.604,17.032 Z M5.604,16.088 C4.48617567,16.088 3.58,16.9941757 3.58,18.112 C3.58,19.2298243 4.48617567,20.136 5.604,20.136 C6.72182433,20.136 7.628,19.2298243 7.628,18.112 C7.628,16.9941757 6.72182433,16.088 5.604,16.088 L5.604,16.088 Z" id="Shape"></path>
                <path d="M5.604,4.504 C6.20046753,4.504 6.684,4.98753247 6.684,5.584 C6.684,6.18046753 6.20046753,6.664 5.604,6.664 C5.00753247,6.664 4.524,6.18046753 4.524,5.584 C4.5261936,4.98844346 5.00844346,4.5061936 5.604,4.504 L5.604,4.504 Z M5.604,3.56 C4.48617567,3.56 3.58,4.46617567 3.58,5.584 C3.58,6.70182433 4.48617567,7.608 5.604,7.608 C6.72182433,7.608 7.628,6.70182433 7.628,5.584 C7.628,5.04720182 7.41475776,4.5323895 7.03518413,4.15281587 C6.6556105,3.77324224 6.14079818,3.56 5.604,3.56 L5.604,3.56 Z" id="Shape"></path>
            </g>
        </g>
    </g>
</svg>