<svg xmlns="http://www.w3.org/2000/svg" xmlns:xlink="http://www.w3.org/1999/xlink" viewBox="0 0 768 432"><defs><style>.cls-1{fill:none;}.cls-2{fill:#f1f3f4;}.cls-3{fill:#fff;}.cls-4{fill:#d2e3fc;}.cls-5{clip-path:url(#clip-path);}.cls-6{fill:#4285f4;}.cls-7{clip-path:url(#clip-path-2);}.cls-8{fill:#fdd663;}.cls-9{fill:#fcc934;}.cls-10{fill:#fbbc04;}.cls-11{fill:#f29900;}.cls-12{fill:#f8f9fa;}.cls-13{fill:#202124;opacity:0.1;}.cls-14{fill:#f9ab00;}.cls-15{fill:#188038;}.cls-16{fill:#34a853;}</style><clipPath id="clip-path"><circle class="cls-1" cx="309.7" cy="215.93" r="57.95"/></clipPath><clipPath id="clip-path-2"><path class="cls-1" d="M524.63,321.47c-31.47-7.38-58.21-67.68-81-107.68-48.41-84.9-62.41-80-121.79-49.18-21.85,11.33,5.61,36.5-18.07,47.72-29.24,13.86-38.54,18.54-3.46,69.52,28.12,40.86,56.25,41.31,84,41.31C454.29,323.38,524.63,321.47,524.63,321.47Z"/></clipPath></defs><g id="BG"><circle class="cls-2" cx="420.13" cy="181.74" r="125.23"/><circle class="cls-2" cx="292.19" cy="211.8" r="89.1"/><path class="cls-2" d="M580.86,375.14a112.35,112.35,0,1,0-204.28,0Z"/><circle class="cls-2" cx="624.71" cy="214.92" r="3.12"/><path class="cls-2" d="M621.14,268.56h0a2.27,2.27,0,0,0,1.32,2.06l5.34,2.43a13.69,13.69,0,0,1,6.79,6.79l2.43,5.34a2.26,2.26,0,0,0,2.06,1.33h0a2.28,2.28,0,0,0,2.07-1.33l2.42-5.34a13.71,13.71,0,0,1,6.8-6.79l5.33-2.43a2.26,2.26,0,0,0,1.33-2.06h0a2.28,2.28,0,0,0-1.33-2.07l-5.33-2.42a13.73,13.73,0,0,1-6.8-6.8l-2.42-5.33a2.28,2.28,0,0,0-2.07-1.33h0a2.26,2.26,0,0,0-2.06,1.33l-2.43,5.33a13.71,13.71,0,0,1-6.79,6.8l-5.34,2.42A2.28,2.28,0,0,0,621.14,268.56Z"/></g><g id="_04" data-name="04"><rect class="cls-3" x="223.42" y="113" width="319.68" height="205.86" rx="15.6"/><path class="cls-2" d="M527.5,114.2a14.42,14.42,0,0,1,14.4,14.4V303.26a14.42,14.42,0,0,1-14.4,14.4H239a14.42,14.42,0,0,1-14.4-14.4V128.6A14.42,14.42,0,0,1,239,114.2H527.5m0-2.4H239a16.8,16.8,0,0,0-16.8,16.8V303.26a16.8,16.8,0,0,0,16.8,16.8H527.5a16.8,16.8,0,0,0,16.8-16.8V128.6a16.8,16.8,0,0,0-16.8-16.8Z"/><circle class="cls-4" cx="309.7" cy="215.93" r="57.95" transform="translate(24.61 463.45) rotate(-75.85)"/><g class="cls-5"><circle class="cls-6" cx="311.77" cy="271.64" r="44.48"/><circle class="cls-6" cx="309.7" cy="199.36" r="20.09"/></g><rect class="cls-4" x="395.19" y="172.58" width="64.15" height="8.38" rx="4.19"/><rect class="cls-6" x="395.19" y="250.9" width="64.15" height="8.38" rx="4.19"/><rect class="cls-4" x="395.19" y="198.34" width="112.03" height="8.38" rx="4.06"/><rect class="cls-4" x="395.19" y="224.09" width="100.89" height="8.38" rx="4.19"/><g class="cls-7"><rect class="cls-8" x="223.41" y="113" width="319.71" height="205.86" rx="15.6"/><path class="cls-9" d="M527.52,114.2a14.41,14.41,0,0,1,14.39,14.4V303.26a14.41,14.41,0,0,1-14.39,14.4H239a14.42,14.42,0,0,1-14.4-14.4V128.6A14.42,14.42,0,0,1,239,114.2H527.52m0-2.4H239a16.8,16.8,0,0,0-16.8,16.8V303.26a16.8,16.8,0,0,0,16.8,16.8H527.52a16.8,16.8,0,0,0,16.8-16.8V128.6a16.8,16.8,0,0,0-16.8-16.8Z"/><circle class="cls-10" cx="309.7" cy="215.93" r="57.95" transform="translate(24.61 463.45) rotate(-75.85)"/><g class="cls-5"><circle class="cls-11" cx="311.77" cy="271.64" r="44.48"/><circle class="cls-11" cx="309.7" cy="199.36" r="20.09"/></g><rect class="cls-10" x="395.19" y="172.58" width="64.15" height="8.38" rx="4.19"/><rect class="cls-10" x="395.19" y="250.9" width="64.15" height="8.38" rx="4.19"/><rect class="cls-10" x="395.19" y="198.34" width="112.03" height="8.38" rx="4.06"/><rect class="cls-10" x="395.19" y="224.09" width="100.89" height="8.38" rx="4.19"/></g><path class="cls-12" d="M568.62,260.51l19.87-31.13c7.38-11.57,3.51-26.69-8.3-32.06-26.13-11.87-35.61-19.12-51.68-36.55-2.79-3-5.78-4.33-7.61-.05-2,4.7-5.36,10.95-12.09,21.49-5.29,8.29-18,20.07-16.86,22.78,2.94,5.58,9.93,10.83,19.79,18.28a.94.94,0,0,1-.84,1.63c-8.71-2.62-14.17-6.2-23.81-11.56-2.56-1.55-7.23,12.63-7.23,12.63,15.34,17.89,32.12,28.67,60.63,43.34C550.18,274.3,562.42,270.22,568.62,260.51Z"/><path class="cls-10" d="M535.43,218.32c6.22-12.12,20.32,4.09,24.19-3.79,2.92-5.94-7.66-6.62-8.9-12.65-2-9.76,12.47-13,1-21a142.76,142.76,0,0,1-23.25-20.14c-2.79-3-5.78-4.33-7.61-.05-2,4.7-5.36,10.95-12.09,21.49-5.29,8.29-18,20.07-16.86,22.78,2.94,5.58,9.93,10.83,19.79,18.28a.94.94,0,0,1-.84,1.63c-8.71-2.62-14.17-6.2-23.81-11.56-2.56-1.55-7.23,12.63-7.23,12.63,8.41,11.5,22,21.79,38.33,31.41,5.51-10.06,10.57-7.65,14.48-15C537.79,232.74,530.57,227.8,535.43,218.32Z"/><path class="cls-13" d="M481.84,220.67c12.11,14.64,35.33,27.43,66.29,42.66l-3.89,7.9c-27.74-13.6-51.82-28.07-64.38-45.26C479.86,226,480.69,223.46,481.84,220.67Z"/><rect class="cls-14" x="620.84" y="261.66" width="9.65" height="7.84" transform="translate(1140.22 -178.51) rotate(116.2)"/><path class="cls-15" d="M537.72,267.74,570,202.25l12.82,6.31a12.69,12.69,0,0,1,5.79,17h0a12.71,12.71,0,0,0,8,17.84L617,249.15a16,16,0,0,1,10,22.48h0a16,16,0,0,1-23.94,5.77l-17.05-12.72a12.7,12.7,0,0,0-19,4.57h0a12.71,12.71,0,0,1-17,5.79l-11.85-5.83A1.11,1.11,0,0,1,537.72,267.74Z"/><path class="cls-16" d="M541.5,260.07l32.14-65.31a1.3,1.3,0,0,1,1.75-.59L587,199.9a12.7,12.7,0,0,1,5.79,17h0a12.7,12.7,0,0,0,8,17.83l20.49,5.76a16,16,0,0,1,10,22.48h0a16,16,0,0,1-23.94,5.76l-17-12.72a12.7,12.7,0,0,0-19,4.57h0a12.69,12.69,0,0,1-17,5.79Z"/></g></svg>