<svg xmlns="http://www.w3.org/2000/svg" viewBox="0 0 128 128"><defs><style>.cls-1{fill:#4285f4;}.cls-2{opacity:0.07;}.cls-3{fill:#fff;}</style></defs><title>128px_Dataprep</title><g id="Art"><path class="cls-1" d="M27.74,115.22,1.49,69.75a11.5,11.5,0,0,1,0-11.5L27.74,12.78A11.5,11.5,0,0,1,37.7,7H90.2a11.5,11.5,0,0,1,10,5.75l26.25,45.47a11.5,11.5,0,0,1,0,11.5l-26.25,45.47a11.5,11.5,0,0,1-10,5.75H37.7A11.5,11.5,0,0,1,27.74,115.22Z"/><path class="cls-2" d="M100.05,115.07,117.5,85.31,77.88,45.54l-8.93,2.62L65.37,38.2l-.83,22.92-.58,21.51L61.31,94.07l26.75,26.75h2A11.5,11.5,0,0,0,100.05,115.07Z"/><rect class="cls-3" x="61.45" y="34.23" width="5" height="59.5"/><path class="cls-3" d="M60.92,61a2.7,2.7,0,1,1-2.7,2.7,2.71,2.71,0,0,1,2.7-2.7m0-2.36A5.06,5.06,0,1,0,66,63.72a5.06,5.06,0,0,0-5.06-5.06Z"/><path class="cls-3" d="M43.34,61a2.7,2.7,0,1,1-2.7,2.7,2.71,2.71,0,0,1,2.7-2.7m0-2.36a5.06,5.06,0,1,0,5.06,5.06,5.06,5.06,0,0,0-5.06-5.06Z"/><path class="cls-3" d="M78.1,42.78H64.69a1.08,1.08,0,0,0-.9,1.19v8.37a1.08,1.08,0,0,0,.9,1.19H78.1a1.08,1.08,0,0,0,.9-1.19V44A1.08,1.08,0,0,0,78.1,42.78Z"/><path class="cls-3" d="M90.95,58.48H66.2c-.91,0-1.66.53-1.66,1.19V68c0,.65.75,1.19,1.66,1.19H90.95c.91,0,1.66-.53,1.66-1.19V59.67C92.61,59,91.86,58.48,90.95,58.48Z"/><path class="cls-3" d="M73.35,74.19H62.86c-.39,0-.71.53-.71,1.19v8.37c0,.65.32,1.19.71,1.19H73.35c.39,0,.7-.53.7-1.19V75.37C74.06,74.72,73.74,74.19,73.35,74.19Z"/><path class="cls-3" d="M52.29,76.81a2.7,2.7,0,1,1-2.7,2.7,2.71,2.71,0,0,1,2.7-2.7m0-2.36a5.06,5.06,0,1,0,5.06,5.06,5.06,5.06,0,0,0-5.06-5.06Z"/><path class="cls-3" d="M52.29,45.49a2.7,2.7,0,1,1-2.7,2.7,2.71,2.71,0,0,1,2.7-2.7m0-2.36a5.06,5.06,0,1,0,5.06,5.06,5.06,5.06,0,0,0-5.06-5.06Z"/></g></svg>