<svg xmlns="http://www.w3.org/2000/svg" xmlns:xlink="http://www.w3.org/1999/xlink" viewBox="0 0 512 512"><defs><style>.cls-1{fill:none;}.cls-2{fill:#4285f4;}.cls-3{clip-path:url(#clip-path);}.cls-4{opacity:0.07;}.cls-5{fill:#fff;}</style><clipPath id="clip-path"><path class="cls-1" d="M502,233.1,398,52.19c-8.34-14.44-23.45-23.25-39-23.25H150.89c-16.67,0-31.23,9.77-39,23.24L7.84,232.73a45.39,45.39,0,0,0,0,45.23l104,181.74c8.34,14.44,23.46,24.07,39,24.07H358.95c16.68,0,31.23-10.51,39-24L502,278.88A46.38,46.38,0,0,0,502,233.1Z"/></clipPath></defs><title>512px_DTA</title><g id="Guides"><path class="cls-2" d="M502,233.1,398,52.19c-8.34-14.44-23.45-23.25-39-23.25H150.89c-16.67,0-31.23,9.77-39,23.24L7.84,232.73a45.39,45.39,0,0,0,0,45.23l104,181.74c8.34,14.44,23.46,24.07,39,24.07H358.95c16.68,0,31.23-10.51,39-24L502,278.88A46.38,46.38,0,0,0,502,233.1Z"/><g class="cls-3"><polygon class="cls-4" points="387.97 496.59 210.69 319.9 210.69 191.27 367.63 190.23 576.04 396.71 387.97 496.59"/></g><path class="cls-5" d="M365.56,190H214a4,4,0,0,0-4,4v26.46a4,4,0,0,0,4,4H365.56a4,4,0,0,0,4-4V193.93A4,4,0,0,0,365.56,190ZM229.15,216a8.62,8.62,0,1,1,8.62-8.62A8.62,8.62,0,0,1,229.15,216Z"/><path class="cls-5" d="M365.56,239.21H214a4,4,0,0,0-4,4v26.46a4,4,0,0,0,4,4H365.56a4,4,0,0,0,4-4V243.17A4,4,0,0,0,365.56,239.21ZM229.15,265.59a8.62,8.62,0,1,1,8.62-8.62A8.62,8.62,0,0,1,229.15,265.59Z"/><path class="cls-5" d="M366.27,288.44H214.71a4,4,0,0,0-4,4v26.46a4,4,0,0,0,4,4H366.27a4,4,0,0,0,4-4V292.4A4,4,0,0,0,366.27,288.44Zm-136.41,26a8.62,8.62,0,1,1,8.62-8.62A8.62,8.62,0,0,1,229.86,314.47Z"/><path class="cls-5" d="M183.18,230.1h-26.1a9.89,9.89,0,1,1,0-19.78h26.1a9.89,9.89,0,1,1,0,19.78Z"/><path class="cls-5" d="M183.18,266.18H136.24a9.89,9.89,0,0,1,0-19.78h46.94a9.89,9.89,0,1,1,0,19.78Z"/><path class="cls-5" d="M183.18,302.26h-26.1a9.89,9.89,0,1,1,0-19.77h26.1a9.89,9.89,0,1,1,0,19.77Z"/></g></svg>