<?xml version="1.0" encoding="UTF-8"?>
<svg width="24px" height="14px" viewBox="0 0 24 14" version="1.1" xmlns="http://www.w3.org/2000/svg" xmlns:xlink="http://www.w3.org/1999/xlink">
    <!-- Generator: Sketch 45 (43475) - http://www.bohemiancoding.com/sketch -->
    <title>24px_DTA Alpha 2@3x</title>
    <desc>Created with Sketch.</desc>
    <defs></defs>
    <g id="Page-1" stroke="none" stroke-width="1" fill="none" fill-rule="evenodd">
        <g id="24px_DTA-Alpha-2" transform="translate(0.000000, -5.000000)">
            <rect id="Rectangle" x="0" y="0" width="24" height="24"></rect>
            <g id="Group" transform="translate(0.000000, 5.500000)" fill-rule="nonzero" fill="#FFFFFF">
                <path d="M23.11,0.13 L8.7,0.13 C8.59921773,0.13 8.50256325,0.170035599 8.43129942,0.241299423 C8.3600356,0.312563247 8.32,0.409217734 8.32,0.51 L8.32,3 C8.32,3.10078227 8.3600356,3.19743675 8.43129942,3.26870058 C8.50256325,3.3399644 8.59921773,3.38 8.7,3.38 L23.11,3.38 C23.3198682,3.38 23.49,3.2098682 23.49,3 L23.49,0.51 C23.49,0.409217734 23.4499644,0.312563247 23.3787006,0.241299423 C23.3074368,0.170035599 23.2107823,0.13 23.11,0.13 Z M10.11,2.61 C9.66823003,2.57214679 9.33656641,2.18998761 9.36128024,1.74728816 C9.38599406,1.30458871 9.7581326,0.961719496 10.2013708,0.973272124 C10.644609,0.984824751 10.9983812,1.34661422 11,1.79 C11.0002674,2.01458873 10.9084058,2.22945775 10.7458624,2.38444101 C10.5833189,2.53942426 10.3643215,2.62095571 10.14,2.61 L10.11,2.61 Z" id="Shape"></path>
                <path d="M23.11,4.81 L8.7,4.81 C8.59921773,4.81 8.50256325,4.8500356 8.43129942,4.92129942 C8.3600356,4.99256325 8.32,5.08921773 8.32,5.19 L8.32,7.71 C8.32,7.81078227 8.3600356,7.90743675 8.43129942,7.97870058 C8.50256325,8.0499644 8.59921773,8.09 8.7,8.09 L23.11,8.09 C23.3198682,8.09 23.49,7.9198682 23.49,7.71 L23.49,5.19 C23.49,5.08921773 23.4499644,4.99256325 23.3787006,4.92129942 C23.3074368,4.8500356 23.2107823,4.81 23.11,4.81 Z M10.11,7.32 C9.66823003,7.28214679 9.33656641,6.89998761 9.36128024,6.45728816 C9.38599406,6.01458871 9.7581326,5.6717195 10.2013708,5.68327212 C10.644609,5.69482475 10.9983812,6.05661422 11,6.5 C11.0002674,6.72458873 10.9084058,6.93945775 10.7458624,7.09444101 C10.5833189,7.24942426 10.3643215,7.33095571 10.14,7.32 L10.11,7.32 Z" id="Shape"></path>
                <path d="M23.18,9.5 L8.77,9.5 C8.5601318,9.5 8.39,9.6701318 8.39,9.88 L8.39,12.4 C8.39,12.5007823 8.4300356,12.5974368 8.50129942,12.6687006 C8.57256325,12.7399644 8.66921773,12.78 8.77,12.78 L23.18,12.78 C23.3898682,12.78 23.56,12.6098682 23.56,12.4 L23.56,9.87 C23.5545783,9.66404715 23.3860242,9.49992865 23.18,9.5 L23.18,9.5 Z M10.21,12 C9.75712651,12 9.39,11.6328735 9.39,11.18 C9.39,10.7271265 9.75712651,10.36 10.21,10.36 C10.6628735,10.36 11.03,10.7271265 11.03,11.18 C11.03,11.3974775 10.9436074,11.6060477 10.7898276,11.7598276 C10.6360477,11.9136074 10.4274775,12 10.21,12 L10.21,12 Z" id="Shape"></path>
                <path d="M5.77,3.95 L3.29,3.95 C2.77085234,3.95 2.35,3.52914766 2.35,3.01 C2.35,2.49085234 2.77085234,2.07 3.29,2.07 L5.77,2.07 C6.28914766,2.07 6.71,2.49085234 6.71,3.01 C6.71,3.52914766 6.28914766,3.95 5.77,3.95 Z" id="Shape"></path>
                <path d="M5.77,7.38 L1.3,7.38 C0.780852335,7.38 0.36,6.95914766 0.36,6.44 C0.36,5.92085234 0.780852335,5.5 1.3,5.5 L5.77,5.5 C6.28914766,5.5 6.71,5.92085234 6.71,6.44 C6.71,6.95914766 6.28914766,7.38 5.77,7.38 L5.77,7.38 Z" id="Shape"></path>
                <path d="M5.77,10.81 L3.29,10.81 C2.95417034,10.81 2.64385092,10.630837 2.47593609,10.34 C2.30802125,10.049163 2.30802125,9.69083701 2.47593609,9.39999999 C2.64385092,9.10916297 2.95417034,8.92999999 3.29,8.93 L5.77,8.93 C6.28914766,8.93 6.71,9.35085234 6.71,9.87 C6.71,10.3891477 6.28914766,10.81 5.77,10.81 L5.77,10.81 Z" id="Shape"></path>
            </g>
        </g>
    </g>
</svg>