<?xml version="1.0" encoding="UTF-8"?>
<svg width="42px" height="23px" viewBox="0 0 42 23" version="1.1" xmlns="http://www.w3.org/2000/svg" xmlns:xlink="http://www.w3.org/1999/xlink">
    <!-- Generator: Sketch 46.2 (44496) - http://www.bohemiancoding.com/sketch -->
    <title>datatransfer</title>
    <desc>Created with Sketch.</desc>
    <defs></defs>
    <g id="Page-1" stroke="none" stroke-width="1" fill="none" fill-rule="evenodd">
        <g id="Product-Logos" transform="translate(-1159.000000, -966.000000)" fill="#2382EA">
            <g id="datatransfer" transform="translate(1159.000000, 966.000000)">
                <path d="M17.5095,4.4 C16.7095,4.4 16.0095,3.8 16.0095,3 C16.0095,2.2 16.6095,1.6 17.5095,1.6 C18.4095,1.6 18.9095,2.2 18.9095,3 C18.9095,3.8 18.3095,4.4 17.5095,4.4 M40.5095,0 L15.0095,0 C14.6095,0 14.3095,0.3 14.3095,0.7 L14.3095,5.2 C14.3095,5.6 14.6095,5.9 15.0095,5.9 L40.5095,5.9 C40.9095,5.9 41.2095,5.6 41.2095,5.2 L41.2095,0.7 C41.2095,0.3 40.9095,0 40.5095,0" id="Fill-1"></path>
                <path d="M17.5095,12.8 C16.7095,12.8 16.0095,12.2 16.0095,11.4 C16.0095,10.6 16.6095,10 17.5095,10 C18.4095,10 18.9095,10.6 18.9095,11.4 C18.9095,12.2 18.3095,12.8 17.5095,12.8 M40.5095,8.3 L15.0095,8.3 C14.6095,8.3 14.3095,8.6 14.3095,9 L14.3095,13.5 C14.3095,13.9 14.6095,14.2 15.0095,14.2 L40.5095,14.2 C40.9095,14.2 41.2095,13.9 41.2095,13.5 L41.2095,9 C41.2095,8.6 40.9095,8.3 40.5095,8.3" id="Fill-3"></path>
                <path d="M17.6095,21 C16.8095,21 16.2095,20.4 16.2095,19.6 C16.2095,18.8 16.8095,18.1 17.7095,18.1 C18.5095,18.1 19.1095,18.7 19.1095,19.6 C19.1095,20.5 18.4095,21 17.6095,21 M40.6095,16.6 L15.1095,16.6 C14.7095,16.6 14.4095,16.9 14.4095,17.3 L14.4095,21.8 C14.4095,22.2 14.7095,22.5 15.1095,22.5 L40.6095,22.5 C41.0095,22.5 41.3095,22.2 41.3095,21.8 L41.3095,17.2 C41.3095,16.8 41.0095,16.6 40.6095,16.6" id="Fill-5"></path>
                <path d="M9.8095,6.8 L5.4095,6.8 C4.5095,6.9 3.7095,6.2 3.6095,5.3 C3.5095,4.4 4.2095,3.6 5.1095,3.5 L9.8095,3.5 C10.7095,3.4 11.5095,4.1 11.6095,5 C11.7095,5.9 11.0095,6.7 10.1095,6.8 L9.8095,6.8 Z" id="Fill-7"></path>
                <g id="Group-11" transform="translate(0.000000, 9.500000)">
                    <path d="M9.8095,3.3 L1.8095,3.3 C0.9095,3.4 0.1095,2.7 0.0095,1.8 C-0.0905,0.9 0.6095,0.1 1.5095,-1.77635684e-15 L9.8095,-1.77635684e-15 C10.7095,0.1 11.4095,0.9 11.3095,1.8 C11.3095,2.7 10.6095,3.3 9.8095,3.3" id="Fill-9"></path>
                </g>
                <path d="M9.8095,19 L5.4095,19 C4.5095,19.1 3.7095,18.4 3.6095,17.5 C3.5095,16.6 4.2095,15.8 5.1095,15.7 L9.8095,15.7 C10.7095,15.6 11.5095,16.3 11.6095,17.2 C11.7095,18.1 11.0095,18.9 10.1095,19 L9.8095,19 Z" id="Fill-12"></path>
            </g>
        </g>
    </g>
</svg>