<?xml version="1.0" encoding="UTF-8" standalone="no"?>
<svg width="26px" height="26px" viewBox="0 0 26 26" version="1.1" xmlns="http://www.w3.org/2000/svg" xmlns:xlink="http://www.w3.org/1999/xlink">
    <!-- Generator: Sketch 39.1 (31720) - http://www.bohemiancoding.com/sketch -->
    <title>dataflow copy</title>
    <desc>Created with Sketch.</desc>
    <defs></defs>
    <g id="Page-1" stroke="none" stroke-width="1" fill="none" fill-rule="evenodd">
        <g id="dataflow-logo-copy-2" transform="translate(4.000000, 0.000000)" fill="#FFFFFF">
            <g id="Group">
                <path d="M18.4812794,13.1629885 C18.4812794,13.957227 17.8368821,14.6010057 17.0421054,14.6010057 C16.247228,14.6010057 15.6029314,13.957227 15.6029314,13.1629885 C15.6029314,12.3688506 16.247228,11.7249713 17.0421054,11.7249713 C17.8368821,11.7249713 18.4812794,12.3688506 18.4812794,13.1629885" id="Fill-7"></path>
                <path d="M3.055001,13.1629885 C3.055001,13.957227 2.4107044,14.6010057 1.615827,14.6010057 C0.82105026,14.6010057 0.176653007,13.957227 0.176653007,13.1629885 C0.176653007,12.3688506 0.82105026,11.7249713 1.615827,11.7249713 C2.4107044,11.7249713 3.055001,12.3688506 3.055001,13.1629885" id="Fill-8"></path>
                <path d="M10.7681402,11.0059626 C10.7681402,11.8002011 10.1238436,12.4439799 9.32896619,12.4439799 C8.53408879,12.4439799 7.8897922,11.8002011 7.8897922,11.0059626 C7.8897922,10.2118247 8.53408879,9.5679454 9.32896619,9.5679454 C10.1238436,9.5679454 10.7681402,10.2118247 10.7681402,11.0059626" id="Fill-9"></path>
                <path d="M10.7681402,15.3200144 C10.7681402,16.1142529 10.1238436,16.7581322 9.32896619,16.7581322 C8.53408879,16.7581322 7.8897922,16.1142529 7.8897922,15.3200144 C7.8897922,14.5258764 8.53408879,13.8819971 9.32896619,13.8819971 C10.1238436,13.8819971 10.7681402,14.5258764 10.7681402,15.3200144" id="Fill-10"></path>
                <polyline id="Fill-11" points="11.498598 4.24764368 15.9197953 1.69706897 13.7799575 0.462614943 13.7206714 0.462614943 9.3291675 2.99609195 9.32896619 2.99609195 4.93746233 0.462614943 4.87817617 0.462614943 2.73833843 1.69706897 7.1595357 4.24764368 0.491403118 8.07320402 0.491403118 10.7692098 2.76622004 10.7692098 2.76622004 9.32475575 8.23463834 6.1304023 8.23463834 8.47681034 10.4233947 8.47681034 10.4233947 6.1304023 15.8816468 9.32475575 15.8816468 10.7692098 18.1665293 10.7692098 18.1665293 8.07320402 11.498598 4.24764368"></polyline>
                <polyline id="Fill-12" points="15.8816468 16.975977 10.4233947 20.1702299 10.4233947 17.8513793 8.23463834 17.8513793 8.23463834 20.1702299 2.76622004 16.975977 2.76622004 15.531523 0.491403118 15.531523 0.491403118 18.2275287 7.16557504 22.0565086 2.73833843 24.6105029 4.87817617 25.8449569 4.93746233 25.8449569 9.32906685 23.3114799 13.7206714 25.8449569 13.7799575 25.8449569 15.9197953 24.6105029 11.4925587 22.0565086 18.1665293 18.2275287 18.1665293 15.531523 15.8816468 15.531523 15.8816468 16.975977"></polyline>
            </g>
        </g>
    </g>
</svg>