<?xml version="1.0" encoding="UTF-8" standalone="no"?>
<svg width="26px" height="26px" viewBox="0 0 26 26" version="1.1" xmlns="http://www.w3.org/2000/svg" xmlns:xlink="http://www.w3.org/1999/xlink">
    <!-- Generator: Sketch 39.1 (31720) - http://www.bohemiancoding.com/sketch -->
    <title>dataproc copy</title>
    <desc>Created with Sketch.</desc>
    <defs></defs>
    <g id="Page-1" stroke="none" stroke-width="1" fill="none" fill-rule="evenodd">
        <g id="Dataproc_128px-Copy-2" transform="translate(2.000000, 3.000000)">
            <g id="shadow" transform="translate(0.225093, 0.252142)"></g>
        </g>
        <g id="art-copy-8" transform="translate(2.000000, 1.000000)" fill="#FFFFFF">
            <g id="Group">
                <path d="M15.7739696,2.74404896 C15.7739696,2.74404896 15.7740477,2.74420563 15.7741258,2.74428397 C16.1835314,3.45576499 16.3998898,4.26775031 16.3996945,5.09270012 C16.3994993,6.34818115 15.9118829,7.52834272 15.026731,8.41592166 C14.1415791,9.30350061 12.9648257,9.79219584 11.7131806,9.792 C10.0444766,9.79160832 8.48908642,8.89012485 7.65407063,7.43935373 C7.24458685,6.72791187 7.02830663,5.91588739 7.02846282,5.09085924 C7.02889233,2.49925092 9.13125007,0.391167687 11.7149767,0.391559364 C13.3836417,0.39195104 14.9389928,1.29339535 15.7739696,2.74404896 L15.7739696,2.74404896 Z M9.74178582,6.23028641 C10.1476773,6.93550061 10.9032719,7.37366952 11.7136101,7.37390453 C12.9679885,7.3740612 13.9887109,6.35057038 13.9889452,5.09226928 C13.9890623,4.691388 13.8843778,4.29747858 13.6862544,3.95323378 C13.28048,3.24805875 12.5248854,2.80988984 11.7144691,2.809694 C10.4600907,2.80953733 9.43936836,3.83302815 9.43913408,5.09132925 C9.43897789,5.49232803 9.54370141,5.88611995 9.74178582,6.23028641 L9.74178582,6.23028641 Z" id="Shape"></path>
                <path d="M7.02842377,16.6085092 C7.92536779,16.9872215 8.73859546,17.5949474 9.3712317,18.4088127 L9.3712317,6.65850673 L7.02979041,5.09497185 L7.02842377,16.6085092 L7.02842377,16.6085092 Z" id="Shape"></path>
                <path d="M23.4776296,15.2223647 C23.4776296,15.2223647 23.4777468,15.2225214 23.4777858,15.2225998 C24.313114,16.6741151 24.3133092,18.4765728 23.4784106,19.9265606 C22.1861958,22.1707124 19.3147723,22.9419241 17.0774298,21.6457087 C16.3658409,21.2333905 15.7734229,20.639765 15.3643296,19.9289498 C14.5289233,18.4774737 14.528611,16.6750159 15.3636268,15.2248715 C16.6558806,12.9807589 19.5273821,12.2095471 21.7646466,13.5057625 C22.4761964,13.9180808 23.0685754,14.5116671 23.4776296,15.2223647 L23.4776296,15.2223647 Z M17.4520057,18.7198825 C17.649934,19.0637356 17.9373184,19.3513831 18.2831559,19.5518042 C19.3693597,20.1811114 20.7635647,19.8066683 21.3908906,18.7171016 C21.7963526,18.0129449 21.7960011,17.1371554 21.3899535,16.4315496 L21.3898754,16.4314321 C21.1920253,16.0876573 20.9046799,15.8000881 20.5588424,15.5997062 C19.4726385,14.970399 18.0784335,15.3448421 17.4510686,16.4343696 C17.0455676,17.1386047 17.045919,18.0143158 17.4520057,18.7198825 L17.4520057,18.7198825 Z" id="Shape"></path>
                <path d="M8.89349411,8.76521909 L19.2398025,14.757131 L21.7638266,13.5052534 L11.6191559,7.63010037 C10.8437255,8.2200049 9.91242033,8.62257038 8.89349411,8.76521909 L8.89349411,8.76521909 Z" id="Shape"></path>
                <path d="M8.83347918,15.6773758 C8.83347918,15.6773758 8.83344014,15.6772583 8.83347918,15.6773758 L8.83394775,15.6781983 C9.45951651,16.7655324 9.6255435,18.0321763 9.30137697,19.2447687 C8.97721045,20.4573611 8.20170198,21.4707466 7.1177238,22.0982521 C4.88038128,23.3933709 2.0094654,22.6214541 0.717914442,20.3774982 C0.0919161642,19.2893023 -0.074110824,18.0226585 0.250055699,16.8101053 C0.574183175,15.5974345 1.34973069,14.5841273 2.43370887,13.9565826 C4.67093425,12.6616206 7.54204536,13.4336548 8.83347918,15.6773758 L8.83347918,15.6773758 Z M2.80539535,19.1680392 C3.43268217,20.2579192 4.82657479,20.6326756 5.91281769,20.0038776 C6.43912949,19.6992313 6.81561872,19.2072069 6.97301637,18.6185165 C7.13037496,18.029787 7.04978237,17.4148152 6.74603732,16.8869131 L6.745764,16.8864431 C6.11871146,15.7969939 4.72481883,15.42212 3.63861499,16.0509963 C3.11234223,16.3556818 2.73581395,16.8476671 2.57841631,17.4363966 C2.42105771,18.0251652 2.5016503,18.6401371 2.80539535,19.1680392 L2.80539535,19.1680392 Z" id="Shape"></path>
                <path d="M18.1206822,13.0124455 L7.29972093,19.2792754 L7.14751651,22.0794517 L16.9250301,16.4185459 C16.8033994,15.4501248 17.7346265,13.9688813 18.1206822,13.0124455 L18.1206822,13.0124455 Z" id="Shape"></path>
            </g>
        </g>
    </g>
</svg>
