<?xml version="1.0" encoding="UTF-8" standalone="no"?>
<svg width="26px" height="26px" viewBox="0 0 26 26" version="1.1" xmlns="http://www.w3.org/2000/svg" xmlns:xlink="http://www.w3.org/1999/xlink">
    <!-- Generator: Sketch 39.1 (31720) - http://www.bohemiancoding.com/sketch -->
    <title>debugger copy</title>
    <desc>Created with Sketch.</desc>
    <defs></defs>
    <g id="Page-1" stroke="none" stroke-width="1" fill="none" fill-rule="evenodd">
        <g id="Group-8-Copy" transform="translate(2.000000, -1.000000)" fill="#FFFFFF">
            <polygon id="Fill-7-Copy-2" points="0 8.46947151 3.14085534 8.46947151 3.14085534 5.52412519 6.04010642 5.52412519 6.04010642 2.33333333 0 2.33333333"></polygon>
            <polygon id="Fill-8-Copy-2" points="9.96666667 11.6666667 19.2684306 11.6666667 9.96666667 27.6206259"></polygon>
            <polygon id="Fill-9-Copy-2" points="13.2558994 15.9539593 3.83333333 15.9539593 13.2558994 0"></polygon>
            <polygon id="Fill-10-Copy" points="22.9067731 2.33333333 16.8666667 2.33333333 16.8666667 5.52412519 19.7659178 5.52412519 19.7659178 8.46947151 22.9067731 8.46947151"></polygon>
            <polygon id="Fill-11-Copy" points="0 25.5805826 6.04010642 25.5805826 6.04010642 22.3897908 3.14085534 22.3897908 3.14085534 19.4444444 0 19.4444444"></polygon>
            <polygon id="Fill-12-Copy" points="22.9067731 19.4444444 19.7659178 19.4444444 19.7659178 22.3897908 16.8666667 22.3897908 16.8666667 25.5805826 22.9067731 25.5805826"></polygon>
        </g>
    </g>
</svg>