<svg xmlns="http://www.w3.org/2000/svg" xmlns:xlink="http://www.w3.org/1999/xlink" width="128" height="128" viewBox="0 0 128 128"><defs><linearGradient id="a" x1="63.9997" y1="7.0336" x2="63.9997" y2="120.7894" gradientUnits="userSpaceOnUse"><stop offset="0" stop-color="#4387fd"/><stop offset="1" stop-color="#4683ea"/></linearGradient><clipPath id="b"><path d="M27.7911,115.2166L1.5406,69.7493a11.499,11.499,0,0,1,0-11.499l26.25-45.4672a11.499,11.499,0,0,1,9.9585-5.75H90.25a11.499,11.499,0,0,1,9.9585,5.75l26.25,45.4672a11.499,11.499,0,0,1,0,11.499l-26.25,45.4672a11.499,11.499,0,0,1-9.9585,5.75H37.75A11.499,11.499,0,0,1,27.7911,115.2166Z" fill="none"/></clipPath></defs><title>Debugger</title><path d="M27.7906,115.2166L1.54,69.7493a11.499,11.499,0,0,1,0-11.499L27.7906,12.7831a11.4991,11.4991,0,0,1,9.9585-5.75H90.25a11.4991,11.4991,0,0,1,9.9585,5.75L126.4594,58.25a11.499,11.499,0,0,1,0,11.499l-26.2506,45.4672a11.4991,11.4991,0,0,1-9.9585,5.75H37.7491A11.4991,11.4991,0,0,1,27.7906,115.2166Z" fill="url(#a)"/><g clip-path="url(#b)"><polygon points="123.229 77.292 86.969 41.031 75.979 44.021 67.979 36.021 63 51 53 41 41.013 52.988 52.013 63.988 48.042 67.979 61.292 81.229 60.958 89.083 46.958 75.083 41 87 76 122 98 122 123.229 77.292" opacity="0.07"/></g><path d="M41,53h6V47h6V41H41V53Z" fill="#fff"/><path d="M41,87H53V81H47V75H41V87Z" fill="#fff"/><path d="M60,60H80L60,92V60Z" fill="#fff"/><path d="M68,68H48L68,36V68Z" fill="#fff"/><path d="M87,41H75v6h6v6h6V41Z" fill="#fff"/><path d="M87,75H81v6H75v6H87V75Z" fill="#fff"/></svg>
