<?xml version="1.0" encoding="UTF-8"?>
<svg width="128px" height="115px" viewBox="0 0 128 115" version="1.1" xmlns="http://www.w3.org/2000/svg" xmlns:xlink="http://www.w3.org/1999/xlink">
    <!-- Generator: Sketch 48.2 (47327) - http://www.bohemiancoding.com/sketch -->
    <title>API_Developer_Portal_Hex 128px@3x</title>
    <desc>Created with Sketch.</desc>
    <defs></defs>
    <g id="Page-1" stroke="none" stroke-width="1" fill="none" fill-rule="evenodd">
        <g id="API_Developer_Portal_Hex-128px" transform="translate(-1.000000, 0.000000)" fill-rule="nonzero">
            <g id="BASE" fill="#4285F4">
                <path d="M127.47,51.62 L101.17,5.88 C99.1575606,2.31119396 95.4064352,0.0742144647 91.31,2.66453526e-15 L38.7,2.66453526e-15 C34.6029889,0.0721947845 30.8509362,2.30972722 28.84,5.88 L2.53,51.53 C0.483142281,55.0793822 0.483142281,59.4506178 2.53,63 L28.83,109 C30.8431384,112.584846 34.5809758,114.859392 38.69,115 L91.3,115 C95.4273864,114.858325 99.1761765,112.556636 101.17,108.94 L127.47,63.2 C129.508118,59.6090365 129.508118,55.2109635 127.47,51.62 Z" id="Shape"></path>
            </g>
            <g id="shadow" transform="translate(23.000000, 28.000000)" fill="#000000" opacity="0.07">
                <path d="M83.19,29 L70.45,16.28 L62.55,8.38 L41.87,0.68 L27.35,7.61 L21.35,8.38 L34.94,22 L30.69,29 L0.69,29 L58.69,87 L68.3,87 C72.4273864,86.858325 76.1761765,84.5566363 78.17,80.94 L99,44.75 L83.19,29 Z" id="Shape"></path>
            </g>
            <g id="art" transform="translate(23.000000, 27.000000)" fill="#FFFFFF">
                <path d="M41.95,6.88 C48.0813137,6.86850603 53.9634283,9.30558779 58.29,13.65 L62.56,9.38 C51.1801431,-1.99975572 32.7298569,-1.99975572 21.35,9.38 L25.62,13.65 C29.9441283,9.3080501 35.8221508,6.87117243 41.95,6.88 Z" id="Shape"></path>
                <path d="M41.95,53.09 C35.8186863,53.101494 29.9365717,50.6644122 25.61,46.32 L21.34,50.59 C32.7198569,61.9697557 51.1701431,61.9697557 62.55,50.59 L58.28,46.32 C53.9558717,50.6619499 48.0778492,53.0988276 41.95,53.09 Z" id="Shape"></path>
                <path d="M42,42.66 C36.1460316,42.6797365 31.0406964,38.6864136 29.65,33 L13.55,33 L13.55,42.8 L0.71,30 L13.55,17.17 L13.55,27 L29.65,27 C31.0328462,21.3056397 36.1401624,17.3024963 42,17.32 C47.8225031,17.348574 52.875998,21.3418663 54.25,27 L70.35,27 L70.35,17.2 L83.19,30 L70.35,42.8 L70.35,33 L54.25,33 C52.8681897,38.6501939 47.8166484,42.633695 42,42.66 Z M42,23.35 C39.3108242,23.3297528 36.8749785,24.933553 35.8308824,27.4118467 C34.7867863,29.8901404 35.3406385,32.7534894 37.2335899,34.6636755 C39.1265413,36.5738617 41.984753,37.1536424 44.4724078,36.1320507 C46.9600627,35.1104589 48.5858737,32.6892488 48.59,30 C48.5956029,26.3483685 45.6515323,23.377493 42,23.35 Z" id="Shape"></path>
            </g>
        </g>
    </g>
</svg>