<?xml version="1.0" encoding="UTF-8"?>
<svg width="24px" height="18px" viewBox="0 0 24 18" version="1.1" xmlns="http://www.w3.org/2000/svg" xmlns:xlink="http://www.w3.org/1999/xlink">
    <!-- Generator: Sketch 48.2 (47327) - http://www.bohemiancoding.com/sketch -->
    <title>API_Developer_Portal_White_24px@3x</title>
    <desc>Created with Sketch.</desc>
    <defs></defs>
    <g id="Page-1" stroke="none" stroke-width="1" fill="none" fill-rule="evenodd">
        <g id="API_Developer_Portal_White_24px" transform="translate(0.000000, -3.000000)">
            <rect id="Rectangle" x="0" y="0" width="24" height="24"></rect>
            <g id="API_Developer_Portal_Hex-128px-Copy" transform="translate(0.000000, 3.500000)" fill="#FFFFFF" fill-rule="nonzero">
                <g id="art">
                    <path d="M11.9857143,1.96571429 C13.7375182,1.9624303 15.4181224,2.65873937 16.6542857,3.9 L17.8742857,2.68 C14.622898,-0.571358778 9.35138769,-0.571358778 6.1,2.68 L7.32,3.9 C8.55546522,2.65944289 10.2349002,1.96319212 11.9857143,1.96571429 Z" id="Shape"></path>
                    <path d="M11.9857143,15.1685714 C10.2339104,15.1718554 8.55330619,14.4755463 7.31714286,13.2342857 L6.09714286,14.4542857 C9.34853054,17.7056445 14.6200409,17.7056445 17.8714286,14.4542857 L16.6514286,13.2342857 C15.4159634,14.4748428 13.7365284,15.1710936 11.9857143,15.1685714 Z" id="Shape"></path>
                    <path d="M12,12.1885714 C10.3274376,12.1942104 8.86877041,11.053261 8.47142857,9.42857143 L3.87142857,9.42857143 L3.87142857,12.2285714 L0.202857143,8.57142857 L3.87142857,4.90571429 L3.87142857,7.71428571 L8.47142857,7.71428571 C8.86652749,6.08732562 10.3257607,4.94357037 12,4.94857143 C13.6635723,4.95673543 15.107428,6.09767607 15.5,7.71428571 L20.1,7.71428571 L20.1,4.91428571 L23.7685714,8.57142857 L20.1,12.2285714 L20.1,9.42857143 L15.5,9.42857143 C15.105197,11.0429125 13.6618995,12.1810557 12,12.1885714 Z M12,6.67142857 C11.2316641,6.66564365 10.5357081,7.12387228 10.237395,7.83195619 C9.93908181,8.54004011 10.0973253,9.35813982 10.6381686,9.9039073 C11.1790118,10.4496748 11.9956437,10.6153264 12.7064022,10.323443 C13.4171608,10.0315597 13.8816782,9.33978538 13.8828571,8.57142857 C13.884458,7.5281053 13.0432949,6.6792837 12,6.67142857 Z" id="Shape"></path>
                </g>
            </g>
        </g>
    </g>
</svg>