<?xml version="1.0" encoding="UTF-8" standalone="no"?>
<svg width="26px" height="26px" viewBox="0 0 26 26" version="1.1" xmlns="http://www.w3.org/2000/svg" xmlns:xlink="http://www.w3.org/1999/xlink">
    <!-- Generator: Sketch 39.1 (31720) - http://www.bohemiancoding.com/sketch -->
    <title>devtools copy</title>
    <desc>Created with Sketch.</desc>
    <defs></defs>
    <g id="Page-1" stroke="none" stroke-width="1" fill="none" fill-rule="evenodd">
        <g id="devtools-logo-copy-2" transform="translate(0.000000, 7.000000)" fill="#FFFFFF">
            <path d="M19.4797573,5.57335557 L16.4558005,0.447790847 C16.330664,0.235454843 16.0989687,0.104760147 15.8486957,0.104760147 L9.80078193,0.104760147 C9.55050893,0.104760147 9.31881362,0.235454843 9.19367711,0.447790847 L6.17007078,5.57335557 C6.04458375,5.78569157 6.04458375,6.04708096 6.17007078,6.25941697 L9.19367711,11.3849817 C9.31881362,11.5973177 9.55050893,11.7280124 9.80078193,11.7280124 L15.8486957,11.7280124 C16.0989687,11.7280124 16.330664,11.5973177 16.4558005,11.3849817 L19.4797573,6.25941697 C19.6048938,6.04708096 19.6048938,5.78569157 19.4797573,5.57335557 L19.4797573,5.57335557 Z M12.8247388,8.43594676 C11.4030199,8.43594676 10.2505022,7.30771879 10.2505022,5.91638627 C10.2505022,4.52505375 11.4030199,3.39682577 12.8247388,3.39682577 C14.2464577,3.39682577 15.3993259,4.52505375 15.3993259,5.91638627 C15.3993259,7.30771879 14.2464577,8.43594676 12.8247388,8.43594676 L12.8247388,8.43594676 Z" id="Fill-4"></path>
            <path d="M23.1314998,6.12735015 L20.9761375,9.78097013 C20.8103404,10.0622553 21.0174992,10.4135187 21.3490934,10.4135187 L22.6404179,10.4135187 C22.7942973,10.4135187 22.9366094,10.3329065 23.0133738,10.2025549 L25.4179575,6.12735015 C25.4947219,5.99665545 25.4947219,5.83611708 25.4179575,5.70576542 L23.0133738,1.63021767 C22.9362588,1.49952297 22.7942973,1.41925379 22.6404179,1.41925379 L21.3490934,1.41925379 C21.0174992,1.41925379 20.8099899,1.77051723 20.975787,2.0518024 L23.1314998,5.70576542 C23.2086148,5.83611708 23.2086148,5.99665545 23.1314998,6.12735015" id="Fill-5"></path>
            <path d="M3.00905966,10.4135187 L4.30038423,10.4135187 C4.63197843,10.4135187 4.83913718,10.0622553 4.67334007,9.78097013 L2.51797776,6.12735015 C2.44086282,5.99665545 2.44086282,5.83611708 2.51797776,5.70576542 L4.6736906,2.0518024 C4.8394877,1.77051723 4.63197843,1.41925379 4.30038423,1.41925379 L3.00905966,1.41925379 C2.85518032,1.41925379 2.71321874,1.49952297 2.63610381,1.63021767 L0.231520054,5.70576542 C0.154755645,5.83611708 0.154755645,5.99665545 0.231520054,6.12735015 L2.63610381,10.2025549 C2.71286822,10.3329065 2.85518032,10.4135187 3.00905966,10.4135187" id="Fill-6"></path>
        </g>
    </g>
</svg>