<?xml version="1.0" encoding="UTF-8"?>
<svg width="128px" height="116px" viewBox="0 0 128 116" version="1.1" xmlns="http://www.w3.org/2000/svg" xmlns:xlink="http://www.w3.org/1999/xlink">
    <!-- Generator: Sketch 47.1 (45422) - http://www.bohemiancoding.com/sketch -->
    <title>128px_Dialogflow_Hexagon@3x</title>
    <desc>Created with Sketch.</desc>
    <defs></defs>
    <g id="Page-1" stroke="none" stroke-width="1" fill="none" fill-rule="evenodd">
        <g id="128px_Dialogflow_Hexagon" fill-rule="nonzero">
            <g id="BASE" fill="#4285F4">
                <path d="M126.47,52.12 L100.17,6.38 C98.1575606,2.81119396 94.4064352,0.574214465 90.31,0.5 L37.7,0.5 C33.6029889,0.572194784 29.8509362,2.80972722 27.84,6.38 L1.53,52 C-0.505344201,55.5417451 -0.505344201,59.8982549 1.53,63.44 L27.83,109.44 C29.8203239,113.059541 33.5623947,115.37082 37.69,115.53 L90.3,115.53 C94.4273864,115.388325 98.1761765,113.086636 100.17,109.47 L126.47,63.73 C128.519489,60.1313439 128.519489,55.7186561 126.47,52.12 Z" id="Shape"></path>
            </g>
            <g id="shadow" transform="translate(35.000000, 37.000000)" fill="#000000" opacity="0.07">
                <path d="M57.37,0.7 L0.44,0.82 L21.32,21.7 L0.49,35.18 L18.93,53.61 L16.93,57.23 L38.18,78.48 L55.31,78.48 C59.4343673,78.3368359 63.1794825,76.0350714 65.17,72.42 L88.51,31.83 L57.37,0.7 Z" id="Shape"></path>
            </g>
            <g id="art" transform="translate(34.000000, 22.000000)" fill="#FFFFFF">
                <path d="M30.48,31.36 L58.37,15.7 L33.09,1.1 C31.1871834,0.00140831103 28.8428166,0.00140831103 26.94,1.1 L1.44,15.82 L30.48,31.36 Z" id="Shape"></path>
                <path d="M30.54,37.92 L-1.50428173e-14,21.6 L-1.50428173e-14,46.6 C-0.0170684337,48.4195938 0.955755445,50.1048005 2.54,51 L16.28,59.06 C17.0411698,59.5089117 17.5088003,60.3263147 17.51,61.21 L17.51,71.21 C17.5075851,71.7425003 17.7895338,72.235811 18.2495758,72.5039969 C18.7096178,72.7721829 19.2778126,72.7744714 19.74,72.51 L57.43,51 C59.0226666,50.114353 60.0073562,48.4323346 60,46.61 L60,21.39 L30.54,37.92 Z" id="Shape"></path>
            </g>
        </g>
    </g>
</svg>