<?xml version="1.0" encoding="UTF-8"?>
<svg width="20px" height="24px" viewBox="0 0 20 24" version="1.1" xmlns="http://www.w3.org/2000/svg" xmlns:xlink="http://www.w3.org/1999/xlink">
    <!-- Generator: Sketch 47.1 (45422) - http://www.bohemiancoding.com/sketch -->
    <title>24px_Dialogflow_White@3x</title>
    <desc>Created with Sketch.</desc>
    <defs></defs>
    <g id="Page-1" stroke="none" stroke-width="1" fill="none" fill-rule="evenodd">
        <g id="24px_Dialogflow_White" transform="translate(-2.000000, 0.000000)">
            <rect id="Rectangle" x="0" y="0" width="24" height="24"></rect>
            <path d="M12.3888626,10.3159306 L2.75126233,5.15861974 L11.2140312,0.273444928 C11.8455252,-0.0911483092 12.6235579,-0.0911483092 13.2550519,0.273444928 L21.6448087,5.11879494 L12.3888626,10.3159306 Z M12.2229993,12.4552045 L21.9999864,6.96933906 L21.9999864,15.3391834 C22.0024277,15.9439676 21.6756356,16.5021846 21.1470721,16.7961071 L8.63876781,23.9347016 C8.48538015,24.0224726 8.29681148,24.0217131 8.14413582,23.9327093 C7.99146017,23.8437056 7.89788894,23.6799889 7.89869038,23.5032663 L7.89869038,20.1845334 C7.89829223,19.8912619 7.74309815,19.6199877 7.49048623,19.4710059 L2.93054724,16.7961071 C2.40477879,16.4990143 2.08192453,15.9397393 2.08758909,15.3358647 L2.08758909,7.03903245 L12.2229993,12.4552045 Z" id="Combined-Shape" fill="#FFFFFF" fill-rule="nonzero"></path>
        </g>
    </g>
</svg>