<?xml version="1.0" encoding="UTF-8"?>
<svg width="32px" height="24px" viewBox="0 0 32 24" version="1.1" xmlns="http://www.w3.org/2000/svg" xmlns:xlink="http://www.w3.org/1999/xlink">
    <!-- Generator: Sketch 42 (36781) - http://www.bohemiancoding.com/sketch -->
    <title>DLP logo</title>
    <desc>Created with Sketch.</desc>
    <defs></defs>
    <g id="Page-1" stroke="none" stroke-width="1" fill="none" fill-rule="evenodd">
        <g id="Product_IAP" transform="translate(-182.000000, -261.000000)" fill-rule="nonzero" fill="#FFFFFF">
            <g id="hero-content" transform="translate(169.000000, 140.000000)">
                <g id="CTA" transform="translate(1.000000, 108.000000)">
                    <g id="DLP-logo" transform="translate(12.000000, 13.000000)">
                        <g id="DLP-42px">
                            <path d="M20.255325,1.671825 C16.6471206,-0.597022019 11.9228877,0.108501578 9.135,3.33255 C7.74709138,4.89570143 6.99690672,6.92312192 7.03305,9.0132 C7.03262852,11.8720594 8.45217597,14.5444363 10.821225,16.14465 L10.554975,16.588125 L9.663975,16.832925 C8.264175,19.291575 7.7562,19.975425 6.425925,22.31205 L8.750175,23.65395 C10.0956,21.28905 10.6038,20.60325 11.9895,18.1677 L11.727,17.2131 L11.9556,16.810425 C16.0913815,18.7636532 21.0329261,17.1587125 23.2317405,13.1481011 C25.4305549,9.13748958 24.1262,4.10823961 20.255325,1.671825 L20.255325,1.671825 Z M17.2269,14.748525 C14.8920097,15.3825536 12.4051897,14.5463984 10.9276715,12.6305057 C9.4501533,10.7146129 9.27341666,8.09694348 10.4799895,5.9998295 C11.6865624,3.90271551 14.0384161,2.73986858 16.4373424,3.0542851 C18.8362687,3.36870162 20.8090155,5.09835457 21.4344,7.435575 C22.2806503,10.6153804 20.4012284,13.8819564 17.2269,14.748525 Z" id="Shape"></path>
                            <path d="M0.084825,6.936075 L0.2766,5.244975 L2.1417,5.244975 L2.1417,5.795625 L0.818475,5.795625 L0.735975,6.5109 C0.889574524,6.4279432 1.06150605,6.38477982 1.236075,6.38535 C1.51561732,6.37022223 1.7878365,6.47787179 1.981425,6.6801 C2.17296286,6.91078782 2.26933366,7.20582784 2.2509,7.5051 C2.2543519,7.70573204 2.20766558,7.9040522 2.115075,8.082075 C2.0269086,8.24946754 1.89122225,8.38705872 1.725075,8.47755 C1.54086277,8.57499637 1.33468243,8.62342279 1.12635,8.618175 C0.933110732,8.61978053 0.741971068,8.5780312 0.567,8.496 C0.402122956,8.420624 0.260967782,8.30164183 0.158775,8.1519 C0.0586173048,8.00218117 0.00351271762,7.82687206 0,7.646775 L0.65385,7.646775 C0.659891142,7.76894545 0.711638837,7.88438055 0.798825,7.970175 C0.888194484,8.04950877 1.00493868,8.09093413 1.124325,8.085675 C1.25894851,8.09263094 1.38823395,8.03226026 1.469325,7.924575 C1.5580799,7.78970049 1.60061475,7.62964206 1.590525,7.4685 C1.60119161,7.31135448 1.55142441,7.15607008 1.4514,7.0344 C1.34745998,6.92935582 1.20318895,6.87436548 1.0557,6.883575 C0.917850835,6.87730899 0.782380979,6.92107167 0.67425,7.0068 L0.61035,7.06635 L0.084825,6.936075 Z" id="Shape"></path>
                            <polygon id="Shape" points="5.441625 8.5725 4.781625 8.5725 4.781625 6.026475 3.992775 6.271125 3.992775 5.73405 5.371125 5.2404 5.4417 5.2404"></polygon>
                            <polygon id="Shape" points="1.5906 13.04475 0.9306 13.04475 0.9306 10.4988 0.14175 10.74345 0.14175 10.206375 1.520025 9.7125 1.5906 9.7125"></polygon>
                            <path d="M6.0771,11.668875 C6.10191844,12.0428091 6.00136762,12.4143457 5.79135,12.724725 C5.58802532,12.9746556 5.27641109,13.1108629 4.954875,13.09035 C4.63638816,13.1096836 4.32764322,12.9766327 4.122975,12.73185 C3.9124361,12.4315768 3.80872736,12.0693489 3.82845,11.70315 L3.82845,11.09085 C3.80221329,10.715572 3.90412129,10.3424999 4.1175,10.032675 C4.32159325,9.78650141 4.63079858,9.65234529 4.95,9.671475 C5.26833296,9.65201361 5.57702104,9.78473391 5.7819,10.02915 C5.99288713,10.3287751 6.09679865,10.6907349 6.076875,11.05665 L6.0771,11.668875 Z M5.4165,10.9956 C5.43084997,10.7882519 5.39186148,10.5806834 5.30325,10.392675 C5.2305373,10.2681688 5.09391278,10.1952153 4.95,10.20405 C4.81084966,10.1955692 4.6784528,10.2648719 4.606125,10.38405 C4.5196011,10.5581124 4.47904049,10.7514143 4.4883,10.945575 L4.4883,11.755575 C4.47546941,11.9632957 4.5136276,12.171003 4.59945,12.3606 C4.6690112,12.490286 4.80768394,12.5676323 4.954575,12.558675 C5.09805149,12.5685412 5.23431491,12.4946381 5.3043,12.369 C5.38761632,12.1870338 5.42601793,11.9877209 5.416275,11.787825 L5.4165,10.9956 Z" id="Shape"></path>
                            <polygon id="Shape" points="26.98845 8.438925 26.32845 8.438925 26.32845 5.892975 25.5396 6.137625 25.5396 5.60055 26.91795 5.1069 26.988525 5.1069"></polygon>
                            <path d="M29.333625,6.8025 L29.5254,5.1114 L31.3905,5.1114 L31.3905,5.6625 L30.0675,5.6625 L29.985,6.377775 C30.1385984,6.2948152 30.3105307,6.25165163 30.4851,6.252225 C30.7646423,6.23709723 31.0368615,6.34474679 31.23045,6.546975 C31.4219879,6.77766282 31.5183587,7.07270284 31.499925,7.371975 C31.5033769,7.57260704 31.4566906,7.7709272 31.3641,7.94895 C31.2759299,8.11633988 31.1402445,8.25393011 30.9741,8.344425 C30.7898878,8.44187137 30.5837074,8.49029779 30.375375,8.48505 C30.1819589,8.48673418 29.9906312,8.44498297 29.8155,8.362875 C29.650623,8.287499 29.5094678,8.16851683 29.407275,8.018775 C29.3071173,7.86905617 29.2520127,7.69374706 29.2485,7.51365 L29.9025,7.51365 C29.9085411,7.63582045 29.9602888,7.75125555 30.047475,7.83705 C30.1368445,7.91638377 30.2535887,7.95780913 30.372975,7.95255 C30.5075985,7.95950594 30.6368839,7.89913526 30.717975,7.79145 C30.8067299,7.65657549 30.8492647,7.49651706 30.839175,7.335375 C30.8498416,7.17822948 30.8000744,7.02294508 30.70005,6.901275 C30.5962596,6.79614742 30.4521057,6.74099595 30.30465,6.75 C30.1668008,6.74373399 30.031331,6.78749667 29.9232,6.873225 L29.8593,6.932775 L29.333625,6.8025 Z" id="Shape"></path>
                            <path d="M27.623925,11.668875 C27.6487434,12.0428091 27.5481926,12.4143457 27.338175,12.724725 C27.1232119,12.9566126 26.8217286,13.0889976 26.5055337,13.0903479 C26.1893389,13.0916983 25.8867359,12.9618931 25.6698,12.73185 C25.4592611,12.4315768 25.3555524,12.0693489 25.375275,11.70315 L25.375275,11.09085 C25.3490774,10.7155884 25.4510113,10.3425448 25.6644,10.03275 C25.8799657,9.80293065 26.1808186,9.67225865 26.4959139,9.67159137 C26.8110093,9.6709241 27.1124128,9.80032071 27.32895,10.029225 C27.5399371,10.3288501 27.6438486,10.6908099 27.623925,11.056725 L27.623925,11.668875 Z M26.963325,10.9956 C26.977675,10.7882519 26.9386865,10.5806834 26.850075,10.392675 C26.7773996,10.2682441 26.640884,10.1953024 26.49705,10.20405 C26.3578997,10.1955692 26.2255028,10.2648719 26.153175,10.38405 C26.0666511,10.5581124 26.0260905,10.7514143 26.03535,10.945575 L26.03535,11.755575 C26.0225194,11.9632957 26.0606776,12.171003 26.1465,12.3606 C26.2160612,12.490286 26.3547339,12.5676323 26.501625,12.558675 C26.6451015,12.5685412 26.7813649,12.4946381 26.85135,12.369 C26.9346663,12.1870338 26.9730679,11.9877209 26.963325,11.787825 L26.963325,10.9956 Z" id="Shape"></path>
                            <path d="M29.333625,11.408175 L29.5254,9.7173 L31.3905,9.7173 L31.3905,10.26795 L30.0675,10.26795 L29.985,10.983225 C30.1385984,10.9002652 30.3105307,10.8571016 30.4851,10.857675 C30.7646423,10.8425472 31.0368615,10.9501968 31.23045,11.152425 C31.4220465,11.3831136 31.5184475,11.6781906 31.5,11.9775 C31.5034043,12.1781269 31.4567207,12.3764356 31.364175,12.554475 C31.2759475,12.7217657 31.140271,12.8592685 30.974175,12.949725 C30.7899063,13.0469982 30.5837523,13.0953409 30.37545,13.090125 C30.1820448,13.0918612 29.9907165,13.0501611 29.815575,12.9681 C29.6507566,12.8927373 29.5096162,12.7738454 29.40735,12.624225 C29.3072497,12.4744787 29.2521505,12.2991868 29.248575,12.1191 L29.9025,12.1191 C29.9085411,12.2412704 29.9602888,12.3567056 30.047475,12.4425 C30.1369125,12.5217034 30.2536223,12.5630628 30.372975,12.55785 C30.5076206,12.5647443 30.6368994,12.5043205 30.717975,12.3966 C30.8067277,12.2618085 30.8492646,12.1018214 30.839175,11.94075 C30.84988,11.7835998 30.8001084,11.6283016 30.70005,11.50665 C30.59611,11.4016058 30.451839,11.3466155 30.30435,11.355825 C30.1665146,11.349661 30.0310795,11.3934124 29.9229,11.47905 L29.859,11.538375 L29.333625,11.408175 Z" id="Shape"></path>
                        </g>
                    </g>
                </g>
            </g>
        </g>
    </g>
</svg>