<?xml version="1.0" encoding="UTF-8"?>
<svg width="128px" height="114px" viewBox="0 0 128 114" version="1.1" xmlns="http://www.w3.org/2000/svg" xmlns:xlink="http://www.w3.org/1999/xlink">
    <!-- Generator: Sketch 42 (36781) - http://www.bohemiancoding.com/sketch -->
    <title>DLP</title>
    <desc>Created with Sketch.</desc>
    <defs>
        <path d="M28.7908,108.2166 L2.54,62.7494 C0.485901491,59.191597 0.485901491,54.808203 2.54,51.2504 L28.79,5.7832 C30.8439668,2.22521265 34.6401092,0.0333124623 38.7484,0.0332 L91.25,0.0332 C95.3582908,0.0333124623 99.1544332,2.22521265 101.2084,5.7832 L127.4591,51.25 C129.513199,54.807803 129.513199,59.191197 127.4591,62.749 L101.2086,108.2162 C99.1546332,111.774187 95.3584908,113.966088 91.2502,113.9662 L38.7492,113.9662 C34.6409917,113.96617 30.8448684,111.774433 28.7908,108.2166 L28.7908,108.2166 Z" id="path-1"></path>
    </defs>
    <g id="Page-1" stroke="none" stroke-width="1" fill="none" fill-rule="evenodd">
        <g id="Product-Logos" transform="translate(-339.000000, -170.000000)">
            <g id="DLP" transform="translate(338.000000, 170.000000)">
                <g id="DLP-128px">
                    <path d="M28.7906,108.2166 L2.54,62.7493 C0.485880864,59.1915025 0.485880864,54.8080975 2.54,51.2503 L28.7906,5.7831 C30.8447419,2.22530436 34.6408876,0.0336148576 38.7491,0.0336 L91.25,0.0336 C95.3582179,0.0335942312 99.1543732,2.22528926 101.2085,5.7831 L127.4594,51.25 C129.513499,54.807803 129.513499,59.191197 127.4594,62.749 L101.2088,108.2163 C99.1546732,111.774111 95.3585179,113.965806 91.2503,113.9658 L38.7491,113.9658 C34.6409495,113.965847 30.8448181,111.77428 28.7906,108.2166 L28.7906,108.2166 Z" id="Shape" fill="#4285F4" fill-rule="nonzero"></path>
                    <g id="Clipped">
                        <mask id="mask-2" fill="white">
                            <use xlink:href="#path-1"></use>
                        </mask>
                        <g id="Shape"></g>
                        <polygon id="Shape" fill="#000000" fill-rule="nonzero" opacity="0.07" mask="url(#mask-2)" points="103.748 47.291 102.711 50.671 100.865 51.001 99.283 49.748 99.254 50.777 103.345 54.868 101.587 54.868 101.381 54.662 92.536 45.831 92.536 49.221 91.732 46.903 91.732 44.606 89.365 45.711 91.285 47.631 91.31 51.385 83.349 43.424 77.937 42.101 75.624 51.698 67.528 43.603 61.802 49.577 67.211 54.985 56.379 60.587 65.952 70.16 56 68.75 44.961 51.827 39.273 46.14 39.273 49.155 38.58 48.461 38.58 44.936 36.244 46.04 38.164 47.96 38.164 51.714 45.269 58.82 45.595 60.516 40.519 55.44 38.783 54.78 30.883 46.88 29.732 46.84 30.322 48.992 30.322 50.539 28.536 50.869 26.831 50.275 26.792 50.677 35.518 59.404 36.219 59.901 36.53 61.933 30.391 55.794 29.635 55.246 26.75 57.066 28.9 59.216 28.9 61.944 28.695 62.74 46.236 80.281 42.218 85.587 78.228 121.569 123.148 121.569 128.62 72.163"></polygon>
                    </g>
                    <path d="M76.3129,34.7013 C67.4171555,29.1073697 55.7697076,30.8467655 48.8964,38.7956 C45.4746855,42.649382 43.6251988,47.6477535 43.7143,52.8006 C43.8036,60.2176 47.0968,66.0197 53.0536,70.3824 L52.3972,71.4757 L50.2006,72.0793 C46.7496,78.1409 45.4971,79.827 42.2176,85.5874 L47.9476,88.8957 C51.2647,83.0657 52.5176,81.3745 55.9337,75.3699 L55.287,73.0165 L55.8506,72.0238 C66.0467549,76.8383353 78.2287406,72.8813799 83.6494696,62.9941649 C89.0701986,53.1069499 85.8551763,40.7084862 76.3129,34.7013 L76.3129,34.7013 Z M68.8466,66.94 C63.0901849,68.5030209 56.959269,66.4414709 53.3167163,61.718002 C49.6741637,56.994533 49.238567,50.5409778 52.2133304,45.3708588 C55.1880939,40.2007397 60.9863645,37.3340034 66.9006085,38.1092879 C72.8148526,38.8845723 77.6783246,43.1489315 79.22,48.9111 C81.3057055,56.7504718 76.6722501,64.8033863 68.8466,66.94 L68.8466,66.94 Z" id="Shape" fill="#FFFFFF" fill-rule="nonzero"></path>
                    <path d="M26.5848,47.68 L27.0576,43.5107 L31.6559,43.5107 L31.6559,44.8683 L28.3936,44.8683 L28.1907,46.6318 C28.5693568,46.4271051 28.993259,46.3205279 29.4237,46.3218 C30.1129347,46.2844242 30.784134,46.5498432 31.2614,47.0485 C31.733625,47.6172139 31.9712309,48.344587 31.9258,49.0824 C31.9343373,49.5770419 31.8192583,50.0659904 31.591,50.5049 C31.3737467,50.9175337 31.0393719,51.2567445 30.6299,51.4799 C30.175731,51.7201053 29.6674148,51.839462 29.1538,51.8265 C28.6770514,51.8305762 28.2054651,51.7276132 27.7738,51.5252 C27.3673286,51.3393789 27.0193378,51.0460555 26.7674,50.6769 C26.5204692,50.3077627 26.3846286,49.8755301 26.376,49.4315 L27.9881,49.4315 C28.0030311,49.7326827 28.1305956,50.0172579 28.3455,50.2288 C28.5658049,50.4243803 28.8535892,50.5265251 29.1479,50.5136 C29.4798743,50.5308741 29.798731,50.3820518 29.9987,50.1165 C30.2174604,49.7839993 30.3222876,49.3894322 30.2974,48.9922 C30.3236453,48.6048499 30.2009514,48.2221022 29.9544,47.9222 C29.6981767,47.6632092 29.3425097,47.5276146 28.9789,47.5503 C28.6391794,47.5349899 28.305362,47.6429123 28.0389,47.8542 L27.8813,48.001 L26.5848,47.68 Z" id="Shape" fill="#FFFFFF" fill-rule="nonzero"></path>
                    <polygon id="Shape" fill="#FFFFFF" fill-rule="nonzero" points="39.7914 51.714 38.1639 51.714 38.1639 45.4372 36.2191 46.0403 36.2191 44.7161 39.6173 43.4991 39.7914 43.4991"></polygon>
                    <polygon id="Shape" fill="#FFFFFF" fill-rule="nonzero" points="30.2972 62.74 28.67 62.74 28.67 56.4632 26.7252 57.0663 26.7252 55.7421 30.1234 54.5251 30.2975 54.5251"></polygon>
                    <path d="M41.3582,59.3479 C41.4193318,60.2697788 41.1713952,61.1857296 40.6536,61.9509 C40.1236156,62.5225369 39.3803609,62.8488734 38.6008475,62.8521899 C37.8213341,62.8555065 37.0753294,62.5355064 36.5405,61.9684 C36.0214256,61.2281303 35.7657154,60.3351161 35.8143,59.4323 L35.8143,57.9223 C35.7497016,56.9971115 36.0010064,56.0773881 36.5271,55.3136 C37.0585297,54.7469626 37.800252,54.4247656 38.5770999,54.4230998 C39.3539478,54.4214339 40.097045,54.7404469 40.6309,55.3048 C41.1510281,56.0434385 41.4071998,56.9357417 41.3581,57.8378 L41.3582,59.3479 Z M39.7296,57.6879 C39.7649733,57.1767216 39.6688535,56.6650005 39.4504,56.2015 C39.2712875,55.8948337 38.9348962,55.7149997 38.5804,55.7364 C38.2375149,55.7153039 37.9111397,55.8858059 37.7326,56.1793 C37.5194469,56.608482 37.4196163,57.0850528 37.4426,57.5637 L37.4426,59.56 C37.4109584,60.072103 37.5050237,60.584175 37.7166,61.0516 C37.8881298,61.371328 38.2300399,61.5620026 38.5922,61.5399 C38.9459334,61.5641785 39.2818623,61.381954 39.4544,61.0722 C39.6598177,60.6235929 39.7545057,60.1322169 39.7305,59.6394 L39.7296,57.6879 Z" id="Shape" fill="#FFFFFF" fill-rule="nonzero"></path>
                    <polygon id="Shape" fill="#FFFFFF" fill-rule="nonzero" points="92.9127 51.3849 91.2852 51.3849 91.2852 45.1081 89.3404 45.7112 89.3404 44.387 92.7386 43.17 92.9127 43.17"></polygon>
                    <path d="M98.6945,47.3506 L99.1673,43.1813 L103.7656,43.1813 L103.7656,44.539 L100.5034,44.539 L100.3,46.3025 C100.678654,46.0977971 101.102558,45.9912193 101.533,45.9925 C102.222235,45.9551242 102.893434,46.2205432 103.3707,46.7192 C103.842925,47.2879139 104.080531,48.015287 104.0351,48.7531 C104.043637,49.2477419 103.928558,49.7366904 103.7003,50.1756 C103.483037,50.5882266 103.148665,50.9274349 102.7392,51.1506 C102.285031,51.3908053 101.776715,51.510162 101.2631,51.4972 C100.786351,51.5012762 100.314765,51.3983132 99.8831,51.1959 C99.4766286,51.0100789 99.1286378,50.7167555 98.8767,50.3476 C98.6297692,49.9784627 98.4939286,49.5462301 98.4853,49.1022 L100.0974,49.1022 C100.112331,49.4033827 100.239896,49.6879579 100.4548,49.8995 C100.675105,50.0950803 100.962889,50.1972251 101.2572,50.1843 C101.589174,50.2015741 101.908031,50.0527518 102.108,49.7872 C102.32676,49.4546993 102.431588,49.0601322 102.4067,48.6629 C102.432945,48.2755499 102.310251,47.8928022 102.0637,47.5929 C101.807477,47.3339092 101.45181,47.1983146 101.0882,47.221 C100.748479,47.2056899 100.414662,47.3136123 100.1482,47.5249 L99.9906,47.6717 L98.6945,47.3506 Z" id="Shape" fill="#FFFFFF" fill-rule="nonzero"></path>
                    <path d="M94.4795,59.3479 C94.5406318,60.2697788 94.2926952,61.1857296 93.7749,61.9509 C93.2449156,62.5225369 92.5016609,62.8488734 91.7221475,62.8521899 C90.9426341,62.8555065 90.1966294,62.5355064 89.6618,61.9684 C89.1427256,61.2281303 88.8870154,60.3351161 88.9356,59.4323 L88.9356,57.9223 C88.8710016,56.9971115 89.1223064,56.0773881 89.6484,55.3136 C90.1798297,54.7469626 90.921552,54.4247656 91.6983999,54.4230998 C92.4752478,54.4214339 93.218345,54.7404469 93.7522,55.3048 C94.2723281,56.0434385 94.5284998,56.9357417 94.4794,57.8378 L94.4795,59.3479 Z M92.8509,57.6879 C92.8862733,57.1767216 92.7901535,56.6650005 92.5717,56.2015 C92.3925875,55.8948337 92.0561962,55.7149997 91.7017,55.7364 C91.3588149,55.7153039 91.0324397,55.8858059 90.8539,56.1793 C90.6407469,56.608482 90.5409163,57.0850528 90.5639,57.5637 L90.5639,59.56 C90.5322584,60.072103 90.6263237,60.584175 90.8379,61.0516 C91.0094298,61.371328 91.3513399,61.5620026 91.7135,61.5399 C92.0672334,61.5641785 92.4031623,61.381954 92.5757,61.0722 C92.7811177,60.6235929 92.8758057,60.1322169 92.8518,59.6394 L92.8509,57.6879 Z" id="Shape" fill="#FFFFFF" fill-rule="nonzero"></path>
                    <path d="M98.6945,58.7051 L99.1673,54.5364 L103.7656,54.5364 L103.7656,55.894 L100.5034,55.894 L100.3,57.6576 C100.678654,57.4528971 101.102558,57.3463193 101.533,57.3476 C102.222235,57.3102242 102.893434,57.5756432 103.3707,58.0743 C103.843074,58.6431276 104.080691,59.3707142 104.0351,60.1087 C104.043515,60.6033288 103.928443,61.0922475 103.7003,61.5312 C103.48287,61.9435778 103.148528,62.2825818 102.7392,62.5057 C102.284897,62.7454993 101.776645,62.8646688 101.2631,62.8518 C100.786389,62.8560428 100.314802,62.7532505 99.8831,62.551 C99.4767672,62.3651956 99.1288123,62.0720754 98.8767,61.7032 C98.629912,61.3339943 98.4940849,60.9018045 98.4853,60.4578 L100.0974,60.4578 C100.112331,60.7589827 100.239896,61.0435579 100.4548,61.2551 C100.675291,61.4503151 100.962989,61.5522502 101.2572,61.5394 C101.589248,61.5564687 101.908083,61.4074692 102.108,61.1418 C102.326762,60.8094867 102.431594,60.415076 102.4067,60.018 C102.433027,59.6306399 102.310324,59.2478627 102.0637,58.948 C101.807477,58.6890092 101.45181,58.5534146 101.0882,58.5761 C100.748512,58.5610344 100.414778,58.6689298 100.1482,58.88 L99.9906,59.0263 L98.6945,58.7051 Z" id="Shape" fill="#FFFFFF" fill-rule="nonzero"></path>
                    <path d="M56.3932,60.5744 C56.3932,59.3352 56.3555,58.1281 56.4044,56.926 C56.4778586,55.9765079 56.9654861,55.1074689 57.7376,54.55 C58.6928532,53.7806636 59.7904654,53.2072887 60.9676,52.8627 C64.1051136,51.8007896 67.55279,52.1939151 70.3707,53.9349 C70.7454888,54.1576966 71.0948262,54.4207559 71.4125,54.7194 C72.2439345,55.445709 72.6803468,56.5241727 72.588,57.6243 C72.54,58.5936 72.578,59.5691 72.578,60.5743 L56.3932,60.5744 Z" id="Shape" fill="#FFFFFF" fill-rule="nonzero"></path>
                    <path d="M64.4724,50.4558 C62.7797667,50.4529267 61.2561545,49.4289601 60.614149,47.8628041 C59.9721435,46.2966481 60.3386468,44.497877 61.5422471,43.307767 C62.7458475,42.117657 64.5486351,41.7714511 66.1074555,42.4310682 C67.6662759,43.0906852 68.6730047,44.6257419 68.6568,46.3183 C68.6320193,48.611333 66.7655666,50.4568659 64.4724,50.4558 Z" id="Shape" fill="#FFFFFF" fill-rule="nonzero"></path>
                </g>
            </g>
        </g>
    </g>
</svg>
