<?xml version="1.0" encoding="UTF-8"?>
<svg width="22px" height="24px" viewBox="0 0 22 24" version="1.1" xmlns="http://www.w3.org/2000/svg" xmlns:xlink="http://www.w3.org/1999/xlink">
    <!-- Generator: Sketch 46.1 (44463) - http://www.bohemiancoding.com/sketch -->
    <title>DNS_White_24px@3x</title>
    <desc>Created with Sketch.</desc>
    <defs></defs>
    <g id="Page-1" stroke="none" stroke-width="1" fill="none" fill-rule="evenodd">
        <g id="DNS_White_24px" transform="translate(-1.000000, 0.000000)">
            <rect id="Rectangle-Copy" x="0" y="0" width="24" height="24"></rect>
            <g id="24_DNS_" transform="translate(1.714286, 0.000000)" fill-rule="nonzero" fill="#FFFFFF">
                <g id="Group">
                    <path d="M1.84450084,18.7881009 C4.36606437,22.9510214 9.5015833,24.7183108 14.0509433,22.9887117 C18.6003034,21.2591125 21.2646321,16.5264369 20.3836969,11.7397739 C19.5027617,6.95311082 15.3280753,3.47908434 10.461025,3.48247699 L10.461025,0.136254017 L5.93693154,4.47965144 L5.93693154,4.47965144 L10.461025,9.08405425 L10.461025,5.73783127 C14.2422252,5.73732741 17.4850743,8.43569505 18.1718609,12.154001 C18.8586475,15.872307 16.7936776,19.551051 13.2617821,20.9013064 C9.72988662,22.2515618 5.7374499,20.8885847 3.76857905,17.6604237 L1.84450084,18.7881009 Z" id="Shape"></path>
                    <path d="M4.99998911,16.0810065 L4.99998911,12.0019607 L6.31170851,12.0019607 C6.6510229,11.9966906 6.98573282,12.0809452 7.28211317,12.246235 C7.56649438,12.408824 7.79864416,12.649099 7.95135777,12.9389031 C8.11545462,13.247831 8.19944205,13.5929848 8.19563205,13.94277 L8.19563205,14.1301585 C8.2012189,14.4793386 8.11955658,14.8243906 7.95805022,15.1340254 C7.80503497,15.423611 7.5729581,15.6638106 7.28880562,15.8266935 C6.99805872,15.9949845 6.66772112,16.0827665 6.33178585,16.0810065 L4.99998911,16.0810065 Z M5.98377866,12.7648995 L5.98377866,15.3481837 L6.31840096,15.3481837 C6.57136989,15.3618016 6.81460002,15.2489628 6.96756822,15.0470236 C7.1371084,14.7812494 7.21686794,14.468076 7.19511138,14.153582 L7.19511138,13.9762322 C7.21685703,13.6627933 7.13707006,13.3506855 6.96756822,13.0861369 C6.80901408,12.8799879 6.55776729,12.7669269 6.29832362,12.7849769 L5.98377866,12.7648995 Z" id="Shape"></path>
                    <polygon id="Shape" points="12.1040205 16.0810065 11.1269234 16.0810065 9.68135505 13.5445695 9.68135505 16.0810065 8.70091172 16.0810065 8.70091172 12.0019607 9.68470127 12.0019607 11.1269234 14.5383977 11.1269234 12.0019607 12.1073667 12.0019607"></polygon>
                    <path d="M14.827846,15.0135614 C14.8337365,14.8836786 14.7763761,14.7589823 14.6739197,14.6789391 C14.5095368,14.5688462 14.3288652,14.4852855 14.138524,14.4313186 C13.9246751,14.3614478 13.7156443,14.277612 13.5127803,14.1803518 C12.9840771,13.9215773 12.7197255,13.5657622 12.7197255,13.1129067 C12.7159677,12.8966769 12.7855574,12.685549 12.9171527,12.5139328 C13.0632189,12.3315192 13.2564958,12.1926376 13.4759719,12.112386 C13.7386158,12.0066683 14.0193731,11.9532449 14.302489,11.9551136 C14.572812,11.9510139 14.8408992,12.0046314 15.0888514,12.112386 C15.3120531,12.204231 15.5038377,12.358821 15.6409782,12.5574337 C15.7724649,12.7554762 15.8401916,12.9890162 15.8350591,13.2266783 L14.8311922,13.2266783 C14.8390647,13.0819963 14.7827474,12.941203 14.6772659,12.8418626 C14.562361,12.7457203 14.4152898,12.6966966 14.2656805,12.7046675 C14.1182374,12.6968666 13.9723533,12.7380436 13.8507489,12.8217853 C13.7475506,12.8816489 13.6840306,12.9919293 13.6840306,13.1112336 C13.6840306,13.2305379 13.7475506,13.3408183 13.8507489,13.4006819 C14.0324011,13.5183718 14.231019,13.6075242 14.4396841,13.6650335 C14.6800286,13.7378347 14.912163,13.8353984 15.1323523,13.9561549 C15.5397689,14.1475981 15.8003538,14.5567164 15.8015969,15.0068689 C15.8135015,15.3357286 15.6634716,15.6495412 15.4000501,15.8467709 C15.0751436,16.0662429 14.68727,16.173202 14.2957965,16.1512772 C13.9877247,16.15585 13.6821499,16.0954192 13.3990088,15.9739273 C13.1531931,15.8746515 12.9423945,15.704615 12.7933424,15.4853788 C12.6558262,15.2734327 12.5847485,15.0252433 12.5892228,14.7726333 L13.5730124,14.7726333 C13.5587059,14.9502228 13.6207797,15.1254903 13.7436697,15.2544894 C13.9014853,15.3714526 14.0968274,15.4262437 14.2924503,15.4084157 C14.4285497,15.4162156 14.5635264,15.3798305 14.6772659,15.3046828 C14.7748017,15.2405496 14.8318668,15.1302238 14.827846,15.0135614 Z" id="Shape"></path>
                    <circle id="Oval" cx="1.35260607" cy="11.0047862" r="1.31171941"></circle>
                    <circle id="Oval" cx="3.47076521" cy="7.23693916" r="1.31171941"></circle>
                    <circle id="Oval" cx="1.33922118" cy="15.3247601" r="1.31171941"></circle>
                </g>
            </g>
        </g>
    </g>
</svg>