<?xml version="1.0" encoding="UTF-8"?>
<svg width="127px" height="115px" viewBox="0 0 127 115" version="1.1" xmlns="http://www.w3.org/2000/svg" xmlns:xlink="http://www.w3.org/1999/xlink">
    <!-- Generator: Sketch 46.1 (44463) - http://www.bohemiancoding.com/sketch -->
    <title>DNS_Blue-Hex_128px@3x</title>
    <desc>Created with Sketch.</desc>
    <defs></defs>
    <g id="Page-1" stroke="none" stroke-width="1" fill="none" fill-rule="evenodd">
        <g id="DNS_Blue-Hex_128px" fill-rule="nonzero">
            <path d="M125.489612,51.715969 L99.3934884,6.33054264 C97.3966493,2.78940176 93.6746023,0.56976319 89.6099225,0.496124031 L37.4077519,0.496124031 C33.3425006,0.567759166 29.6195336,2.78794639 27.624186,6.33054264 L1.51813953,51.5968992 C-0.501426804,55.1111889 -0.501426804,59.4339274 1.51813953,62.9482171 L27.6142636,108.591628 C29.5891586,112.18311 33.3022211,114.476472 37.3978295,114.634419 L89.6,114.634419 C93.6953911,114.493842 97.4151208,112.209996 99.3934884,108.621395 L125.489612,63.235969 C127.523213,59.6652094 127.523213,55.2867285 125.489612,51.715969 Z" id="Shape" fill="#4285F4"></path>
            <path d="M85.1051163,36.0086822 L78.2288372,31.5931783 L64.019845,17.404031 L60.5271318,31.4939535 L64.0297674,43.9367442 L73.3172093,53.224186 L71.4418605,55.0796899 L68.9017054,52.5891473 L66.1928682,55.8635659 L46.0006202,35.6713178 L40.4837209,41.1485271 L52.2617054,52.9265116 L48.620155,55.7643411 L39.6899225,46.8341085 L34.2027907,52.3510078 L63.503876,81.6223256 L62.6207752,82.6145736 L39.6899225,59.6936434 L34.2127132,65.1906977 L46.328062,77.3060465 L43.0734884,78.5463566 L79.1714729,114.604651 L89.6,114.604651 C93.6953911,114.464074 97.4151208,112.180228 99.3934884,108.591628 L120.677209,71.5807752 L85.1051163,36.0086822 Z" id="Shape" fill="#000000" opacity="0.0700000003"></path>
            <path d="M38.4694574,72.711938 C45.9465936,85.0561537 61.1748338,90.2966576 74.66495,85.1679158 C88.1550663,80.039174 96.0555412,66.0054761 93.4433235,51.8116905 C90.8311058,37.617905 78.452001,27.3164515 64.019845,27.3265116 L64.019845,17.404031 L50.6046512,30.2834109 L50.6046512,30.2834109 L64.019845,43.9367442 L64.019845,34.0142636 C75.232154,34.0127695 84.8481021,42.0141791 86.8846153,53.0399892 C88.9211284,64.0657994 82.7979189,74.974297 72.3248678,78.9781794 C61.8518166,82.9820618 50.0131327,78.9404559 44.1748837,69.368062 L38.4694574,72.711938 Z" id="Shape" fill="#FFFFFF"></path>
            <path d="M47.8263566,64.6846512 L47.8263566,52.5891473 L51.715969,52.5891473 C52.7221304,52.57352 53.7146383,52.8233582 54.5934884,53.3134884 C55.4367576,53.79561 56.1251462,54.5080922 56.5779845,55.3674419 C57.0645772,56.2834988 57.3136233,57.3069758 57.3023256,58.344186 L57.3023256,58.899845 C57.3188921,59.9352611 57.0767407,60.9584361 56.5978295,61.8765891 C56.1440968,62.7352909 55.4559244,63.4475494 54.6133333,63.9305426 C53.751188,64.4295721 52.7716453,64.6898701 51.7755039,64.6846512 L47.8263566,64.6846512 Z M50.7435659,54.8514729 L50.7435659,62.5116279 L51.735814,62.5116279 C52.4859371,62.5520088 53.207182,62.2174106 53.6607752,61.6186047 C54.163509,60.8305105 54.4000181,59.9018642 54.3355039,58.9693023 L54.3355039,58.4434109 C54.3999858,57.5139775 54.1633953,56.588491 53.6607752,55.804031 C53.1906181,55.192742 52.4456016,54.8574846 51.6762791,54.9110078 L50.7435659,54.8514729 Z" id="Shape" fill="#FFFFFF"></path>
            <polygon id="Shape" fill="#FFFFFF" points="68.8917829 64.6846512 65.9944186 64.6846512 61.707907 57.1634109 61.707907 64.6846512 58.8006202 64.6846512 58.8006202 52.5891473 61.7178295 52.5891473 65.9944186 60.1103876 65.9944186 52.5891473 68.9017054 52.5891473"></polygon>
            <path d="M76.9686822,61.5193798 C76.9861491,61.1342413 76.8160598,60.7644821 76.5122481,60.5271318 C76.0248071,60.2006758 75.4890655,59.9528953 74.9246512,59.7928682 C74.2905296,59.5856821 73.6706951,59.3370855 73.0691473,59.0486822 C71.5013953,58.2813437 70.7175194,57.2262532 70.7175194,55.8834109 C70.7063765,55.2422294 70.9127291,54.6161766 71.3029457,54.1072868 C71.7360727,53.56638 72.3091925,53.1545573 72.96,52.9165891 C73.7388122,52.6031068 74.5713356,52.4446914 75.4108527,52.4502326 C76.2124355,52.4380761 77.0073886,52.5970667 77.7426357,52.9165891 C78.4044907,53.188935 78.9731853,53.6473373 79.379845,54.2362791 C79.7697398,54.82353 79.970568,55.5160412 79.9553488,56.2207752 L76.9786047,56.2207752 C77.0019489,55.7917529 76.8349525,55.3742617 76.5221705,55.0796899 C76.1814456,54.7946012 75.7453386,54.6492322 75.3017054,54.6728682 C74.8644957,54.6497365 74.4319088,54.7718376 74.0713178,55.020155 C73.7653064,55.1976671 73.5769519,55.5246791 73.5769519,55.8784496 C73.5769519,56.2322201 73.7653064,56.5592321 74.0713178,56.7367442 C74.6099672,57.0857276 75.1989243,57.350089 75.8176744,57.5206202 C76.5303624,57.7364958 77.2187055,58.0257994 77.8716279,58.383876 C79.0797315,58.9515582 79.8524381,60.1647077 79.856124,61.4995349 C79.8914247,62.4746953 79.4465443,63.4052368 78.6654264,63.9900775 C77.7019884,64.640873 76.5518354,64.9580364 75.3910078,64.8930233 C74.4774892,64.906583 73.5713751,64.7273888 72.7317829,64.3671318 C72.0028714,64.0727513 71.3777947,63.5685458 70.935814,62.9184496 C70.5280403,62.2899706 70.3172752,61.5540201 70.3305426,60.8049612 L73.2477519,60.8049612 C73.2053292,61.3315636 73.3893955,61.8512802 73.7537984,62.2337984 C74.2217655,62.5806268 74.8010091,62.7430976 75.3810853,62.6902326 C75.7846577,62.7133614 76.1849011,62.6054697 76.5221705,62.3826357 C76.8113912,62.192463 76.980605,61.8653163 76.9686822,61.5193798 Z" id="Shape" fill="#FFFFFF"></path>
            <circle id="Oval" fill="#FFFFFF" cx="37.0108527" cy="49.6322481" r="3.8896124"></circle>
            <circle id="Oval" fill="#FFFFFF" cx="43.2917829" cy="38.4595349" r="3.8896124"></circle>
            <circle id="Oval" fill="#FFFFFF" cx="36.9711628" cy="62.4421705" r="3.8896124"></circle>
        </g>
    </g>
</svg>