<svg width="18" height="18" viewBox="0 0 18 18" fill="none" xmlns="http://www.w3.org/2000/svg">
<path d="M2.8125 0H5.48438C7.03519 0 8.29688 1.26169 8.29688 2.8125V5.48438C8.29688 7.03519 7.03519 8.29688 5.48438 8.29688H2.8125C1.26169 8.29688 0 7.03519 0 5.48438V2.8125C0 1.26169 1.26169 0 2.8125 0ZM1.40625 5.48438C1.40625 6.25978 2.03709 6.89062 2.8125 6.89062H5.48438C6.25978 6.89062 6.89062 6.25978 6.89062 5.48438V2.8125C6.89062 2.03709 6.25978 1.40625 5.48438 1.40625H2.8125C2.03709 1.40625 1.40625 2.03709 1.40625 2.8125V5.48438Z" fill="#009DE0"/>
<path d="M12.5156 0H15.1875C16.7383 0 18 1.26169 18 2.8125V5.48438C18 7.03519 16.7383 8.29688 15.1875 8.29688H12.5156C10.9648 8.29688 9.70312 7.03519 9.70312 5.48438V2.8125C9.70312 1.26169 10.9648 0 12.5156 0ZM11.1094 5.48438C11.1094 6.25978 11.7402 6.89062 12.5156 6.89062H15.1875C15.9629 6.89062 16.5938 6.25978 16.5938 5.48438V2.8125C16.5938 2.03709 15.9629 1.40625 15.1875 1.40625H12.5156C11.7402 1.40625 11.1094 2.03709 11.1094 2.8125V5.48438Z" fill="#009DE0"/>
<path d="M12.5156 9.70312H15.1875C16.7383 9.70312 18 10.9648 18 12.5156V15.1875C18 16.7383 16.7383 18 15.1875 18H12.5156C10.9648 18 9.70312 16.7383 9.70312 15.1875V12.5156C9.70312 10.9648 10.9648 9.70312 12.5156 9.70312ZM11.1094 15.1875C11.1094 15.9629 11.7402 16.5938 12.5156 16.5938H15.1875C15.9629 16.5938 16.5938 15.9629 16.5938 15.1875V12.5156C16.5938 11.7402 15.9629 11.1094 15.1875 11.1094H12.5156C11.7402 11.1094 11.1094 11.7402 11.1094 12.5156V15.1875Z" fill="#009DE0"/>
<path d="M0.703125 14.4844C1.09146 14.4844 1.40625 14.7992 1.40625 15.1875C1.40625 15.9629 2.03709 16.5938 2.8125 16.5938H5.48438C6.25978 16.5938 6.89062 15.9629 6.89062 15.1875V12.5156C6.89062 11.7402 6.25978 11.1094 5.48438 11.1094H2.8125C2.25334 11.1094 1.74723 11.4405 1.52314 11.953C1.36758 12.3088 0.952981 12.471 0.597199 12.3155C0.241383 12.1599 0.0791016 11.7454 0.234668 11.3896C0.682663 10.3651 1.69453 9.70312 2.8125 9.70312H5.48438C7.03519 9.70312 8.29688 10.9648 8.29688 12.5156V15.1875C8.29688 16.7383 7.03519 18 5.48438 18H2.8125C1.26169 18 0 16.7383 0 15.1875C0 14.7992 0.314789 14.4844 0.703125 14.4844Z" fill="#009DE0"/>
</svg>
