<?xml version="1.0" encoding="UTF-8" standalone="no"?>
<svg width="26px" height="26px" viewBox="0 0 26 26" version="1.1" xmlns="http://www.w3.org/2000/svg" xmlns:xlink="http://www.w3.org/1999/xlink">
    <!-- Generator: Sketch 39.1 (31720) - http://www.bohemiancoding.com/sketch -->
    <title>endpoints copy</title>
    <desc>Created with Sketch.</desc>
    <defs></defs>
    <g id="Page-1" stroke="none" stroke-width="1" fill="none" fill-rule="evenodd">
        <g id="art-copy-5" transform="translate(0.000000, 8.000000)" fill="#FFFFFF">
            <g id="Group">
                <polygon id="Shape" points="18.8273016 5.36953267 17.7299077 4.2717165 8.37812329 4.2717165 7.27984644 5.36953267 8.37812329 6.46780952 8.37812329 6.46596678 17.7299077 6.46596678 17.7299077 6.46780952"></polygon>
                <path d="M6.7486364,8.86748763 L3.254866,5.37367885 L6.74568032,1.88263418 C6.90776523,1.72147065 6.90776523,1.45530897 6.74568032,1.29318568 L5.78046512,0.327970469 C5.61814987,0.16611591 5.35244887,0.16611591 5.19055592,0.327970469 L0.439379845,5.08033666 C0.277026209,5.24192248 0.277026209,5.50766187 0.439379845,5.66978516 L1.40390402,6.63453968 C1.40528608,6.63592174 1.40712883,6.63638243 1.4084725,6.63776449 L5.19332004,10.4221513 C5.35586563,10.5846969 5.62133629,10.5842362 5.78411222,10.4221513 L6.7486364,9.45739683 C6.91052935,9.29527353 6.91052935,9.02961093 6.7486364,8.86748763" id="Shape"></path>
                <path d="M19.3570912,1.88263418 L22.8504393,5.37667331 L19.3593946,8.86748763 C19.1980007,9.02888151 19.1975017,9.29485124 19.3593946,9.45739683 L20.3252625,10.4221513 C20.4876161,10.5846969 20.7530867,10.5846969 20.9156323,10.4221513 L25.6661174,5.67070653 C25.8282407,5.50862163 25.8282407,5.24315098 25.6661174,5.08079734 L24.7018619,4.11627316 C24.7000192,4.1148911 24.6981764,4.11443042 24.696756,4.11304836 L20.9124075,0.328431155 C20.7494013,0.16611591 20.4843145,0.16611591 20.3220377,0.328431155 L19.3570528,1.29318568 C19.195275,1.45530897 19.195275,1.72097158 19.3570912,1.88263418" id="Shape"></path>
            </g>
        </g>
    </g>
</svg>