<svg xmlns="http://www.w3.org/2000/svg" xmlns:xlink="http://www.w3.org/1999/xlink" width="128" height="128" viewBox="0 0 128 128"><defs><linearGradient id="a" x1="63.9997" y1="7.0336" x2="63.9997" y2="120.7894" gradientUnits="userSpaceOnUse"><stop offset="0" stop-color="#4387fd"/><stop offset="1" stop-color="#4683ea"/></linearGradient><clipPath id="b"><path d="M27.7911,115.2166L1.5406,69.7493a11.499,11.499,0,0,1,0-11.499l26.25-45.4672a11.499,11.499,0,0,1,9.9585-5.75H90.25a11.499,11.499,0,0,1,9.9585,5.75l26.25,45.4672a11.499,11.499,0,0,1,0,11.499l-26.25,45.4672a11.499,11.499,0,0,1-9.9585,5.75H37.75A11.499,11.499,0,0,1,27.7911,115.2166Z" fill="none"/></clipPath></defs><title>Cloud-Endpoints</title><path d="M27.7906,115.2166L1.54,69.7493a11.499,11.499,0,0,1,0-11.499L27.7906,12.7831a11.4991,11.4991,0,0,1,9.9585-5.75H90.25a11.4991,11.4991,0,0,1,9.9585,5.75L126.4594,58.25a11.499,11.499,0,0,1,0,11.499l-26.2506,45.4672a11.4991,11.4991,0,0,1-9.9585,5.75H37.7491A11.4991,11.4991,0,0,1,27.7906,115.2166Z" fill="url(#a)"/><g clip-path="url(#b)"><polygon points="121.125 81.875 86.219 46.969 91 63.75 87.531 71.219 76.031 59.718 63.476 61.273 49.009 46.806 35.125 64 41.264 80.951 82.156 121.844 98 122 121.125 81.875" opacity="0.07"/></g><polygon points="39.25 64 49.065 47 41.065 47 31.25 64 41.065 81 49.065 81 39.25 64" fill="#fff"/><polygon points="88.25 64 78.435 81 86.435 81 96.25 64 86.435 47 78.435 47 88.25 64" fill="#fff"/><polygon points="49 64 51.309 68 76.691 68 79 64 76.691 60 51.309 60 49 64" fill="#fff"/></svg>
