<?xml version="1.0" encoding="UTF-8" standalone="no"?>
<svg width="26px" height="26px" viewBox="0 0 26 26" version="1.1" xmlns="http://www.w3.org/2000/svg" xmlns:xlink="http://www.w3.org/1999/xlink">
    <!-- Generator: Sketch 39.1 (31720) - http://www.bohemiancoding.com/sketch -->
    <title>errors-cta copy</title>
    <desc>Created with Sketch.</desc>
    <defs></defs>
    <g id="Custom-Icons" stroke="none" stroke-width="1" fill="none" fill-rule="evenodd">
        <g id="Sprites-Copy" transform="translate(-267.000000, -720.000000)" fill="#FFFFFF">
            <g id="Errors_128px-Copy-3" transform="translate(268.000000, 721.000000)">
                <g id="Errors_128px">
                    <g id="Page-1">
                        <g id="Errors_128px">
                            <g id="Group" transform="translate(0.443918, 0.033121)">
                                <polygon id="Shape" points="7.31733277 20.6672287 3.12206198 16.3946766 3.12206198 7.45212574 7.31733277 3.17957365 8.78079932 3.17957365 11.7077324 0 5.85386621 0 0 5.96170059 0 17.8851018 5.85386621 23.8468024 11.7077324 23.8468024 8.78079932 20.6672287 7.31733277 20.6672287"></polygon>
                                <polygon id="Shape" points="17.5615986 0 14.6346655 0 11.7077324 3.17957365 16.0981321 3.17957365 20.2934029 7.45212574 20.2934029 16.3946766 16.0981321 20.6672287 11.7077324 20.6672287 14.6346655 23.8468024 17.5615986 23.8468024 23.4154649 17.8851018 23.4154649 5.96170059"></polygon>
                            </g>
                            <g id="Group" transform="translate(6.297784, 5.994821)">
                                <polygon id="Shape" points="5.85386621 11.9234012 2.92693311 8.94255089 5.8571834 5.95832229 2.9302503 2.977472 5.85386621 0 2.92693311 0 0 2.9808503 0 8.94255089 2.92693311 11.9234012 5.85386621 11.9234012"></polygon>
                                <polygon id="Shape" points="8.78079932 0 5.85386621 2.9808503 8.78411651 5.96507889 5.8571834 8.94592918 8.78079932 11.9234012 11.7077324 8.94255089 11.7077324 2.9808503"></polygon>
                            </g>
                        </g>
                    </g>
                </g>
            </g>
        </g>
    </g>
</svg>