<?xml version="1.0" encoding="UTF-8"?>
<svg width="127px" height="116px" viewBox="0 0 127 116" version="1.1" xmlns="http://www.w3.org/2000/svg" xmlns:xlink="http://www.w3.org/1999/xlink">
    <!-- Generator: Sketch 42 (36781) - http://www.bohemiancoding.com/sketch -->
    <title>Errors</title>
    <desc>Created with Sketch.</desc>
    <defs></defs>
    <g id="Page-1" stroke="none" stroke-width="1" fill="none" fill-rule="evenodd">
        <g id="Product-Logos" transform="translate(-1019.000000, -348.000000)">
            <g id="Errors" transform="translate(1018.000000, 348.000000)">
                <g id="Errors_128px">
                    <g id="Page-1">
                        <g id="Errors_128px">
                            <path d="M2.52031008,63.4098189 C0.482133333,59.8145684 0.482133333,55.3850274 2.52031008,51.7897768 L28.5674171,5.84397474 C30.6055938,2.24872421 34.3723659,0.0339536842 38.4487194,0.0339536842 L90.5429333,0.0339536842 C94.6192868,0.0339536842 98.3860589,2.24872421 100.424236,5.84397474 L126.471343,51.7897768 C128.509519,55.3850274 128.509519,59.8145684 126.471343,63.4098189 L100.424236,109.355621 C98.3860589,112.950872 94.6192868,115.165642 90.5429333,115.165642 L38.4487194,115.165642 C34.3723659,115.165743 30.605693,112.950973 28.5674171,109.355722 L2.52031008,63.4098189 Z" id="Shape" fill="#4386FB"></path>
                            <path d="M122.172626,70.8657853 L94.2632682,42.4424084 L85.0144248,38.6529347 L83.7572465,39.6936758 L76.8082357,32.6166568 L69.731324,32.6166568 L64.4956279,27.2844126 L51.5254574,32.0873432 L37.5952868,46.2741221 L40.5377984,49.2708379 L37.5952868,52.8214232 L37.5952868,69.1260632 L49.6117085,87.9164968 L76.3691659,115.166855 L90.5939349,115.166855 C94.7779473,115.166754 98.4297178,112.506947 100.383752,109.099352 L122.172626,70.8657853 Z" id="Shape" fill="#000000" opacity="0.0799999982"></path>
                            <g id="Group" transform="translate(34.728682, 27.284211)" fill="#FFFFFF">
                                <polygon id="Shape" points="18.6046512 52.5473684 7.9379845 41.6842105 7.9379845 18.9473684 18.6046512 8.08421053 22.3255814 8.08421053 29.7674419 0 14.8837209 0 0 15.1578947 0 45.4736842 14.8837209 60.6315789 29.7674419 60.6315789 22.3255814 52.5473684 18.6046512 52.5473684"></polygon>
                                <polygon id="Shape" points="44.6511628 0 37.2093023 0 29.7674419 8.08421053 40.9302326 8.08421053 51.5968992 18.9473684 51.5968992 41.6842105 40.9302326 52.5473684 29.7674419 52.5473684 37.2093023 60.6315789 44.6511628 60.6315789 59.5348837 45.4736842 59.5348837 15.1578947"></polygon>
                            </g>
                            <g id="Group" transform="translate(49.612403, 42.442105)" fill="#FFFFFF">
                                <polygon id="Shape" points="14.8837209 30.3157895 7.44186047 22.7368421 14.892155 15.1493053 7.45029457 7.57035789 14.8837209 0 7.44186047 0 0 7.57894737 0 22.7368421 7.44186047 30.3157895 14.8837209 30.3157895"></polygon>
                                <polygon id="Shape" points="22.3255814 0 14.8837209 7.57894737 22.3340155 15.1664842 14.892155 22.7454316 22.3255814 30.3157895 29.7674419 22.7368421 29.7674419 7.57894737"></polygon>
                            </g>
                        </g>
                    </g>
                </g>
            </g>
        </g>
    </g>
</svg>
