<?xml version="1.0" encoding="utf-8"?>
<!-- Generator: Adobe Illustrator 19.2.1, SVG Export Plug-In . SVG Version: 6.00 Build 0)  -->
<svg version="1.1" id="Warstwa_1" xmlns="http://www.w3.org/2000/svg" xmlns:xlink="http://www.w3.org/1999/xlink" x="0px" y="0px"
	 viewBox="0 0 1205.7 299.8" style="enable-background:new 0 0 1205.7 299.8;" xml:space="preserve">
<style type="text/css">
	.st0{clip-path:url(#SVGID_2_);fill:url(#SVGID_3_);}
	.st1{clip-path:url(#SVGID_5_);fill:url(#SVGID_6_);}
	.st2{clip-path:url(#SVGID_8_);fill:url(#SVGID_9_);}
	.st3{clip-path:url(#SVGID_11_);fill:url(#SVGID_12_);}
	.st4{clip-path:url(#SVGID_14_);}
</style>
<g>
	<defs>
		<path id="SVGID_1_" d="M85.8,52.1C82.2,54,78.7,56,75.3,58c-3.8,2.4-6.1,6.6-10.3,8.5c-5.2,2.3-12.9,2.6-18.3,4.3
			c-6.7,3.1-15.8,7.3-41.4,54.7c-4.3,8.7-2.7,10.2-2.2,10.5c0.4,0.2,1.1,0.3,1.5,0.1c7.8-2.5,7.8-2.5,15.8-3.5
			c-2.1,4.2-2.8,6.7-2.8,9.8c0.1,2.3,0.3,4.7,0.5,7.2c0.9,6.8,7,5.8,12.5,1.9c16.7-12.4,36.1-23.4,57.6-32.8
			c9.1-4.3,14.9-12.1,14.7-19.9c-1.4-18.1-2-33.5-1.7-46c-0.2-2.6-2-3.9-4.9-3.9C93.7,48.9,90.1,50,85.8,52.1"/>
	</defs>
	<clipPath id="SVGID_2_">
		<use xlink:href="#SVGID_1_"  style="overflow:visible;"/>
	</clipPath>
	
		<linearGradient id="SVGID_3_" gradientUnits="userSpaceOnUse" x1="2.728484e-12" y1="298.7565" x2="1" y2="298.7565" gradientTransform="matrix(-74.8538 -49.357 -49.357 74.8538 14816.8301 -22247.8008)">
		<stop  offset="0" style="stop-color:#39B6B8"/>
		<stop  offset="1" style="stop-color:#26878A"/>
	</linearGradient>
	<polygon class="st0" points="72.2,203.5 -48.5,123.9 32,1.9 152.6,81.5 	"/>
</g>
<g>
	<defs>
		<path id="SVGID_4_" d="M90.2,136.4c-28,11.4-52.2,25.3-72,40.8c-6.2,5.3-9.7,13.1-9.1,20.5c0.1,0.5,0.1,1.1,0.2,1.6
			c0.4,3.1,0.8,6.3,1.2,9.4c0.9,5.1,2.5,5.9,6.7,7.9C8.2,237.1,8.2,237.1,1.5,253c-3.3,8.6-0.1,13.5,1.4,15.2
			c10.6,11.6,25.1,18,37.3,27.3c1.3,0.9,4.2,2.9,8.4,2.7c6.4-0.4,6.4-0.4,31.4-43l3.5,2.4c4,2.4,6.9,3,11.5,2.1
			c4.6-1.1,9.3-2.2,14.1-3.3c9.3-2.7,14.4-10.8,13.1-20.7c-5.5-29.9-10.3-59.6-13.9-87.8c-0.1-0.7-0.2-1.4-0.3-2.1
			c-1.2-6.9-5.4-10.6-11.4-10.6C94.6,135.2,92.5,135.6,90.2,136.4"/>
	</defs>
	<clipPath id="SVGID_5_">
		<use xlink:href="#SVGID_4_"  style="overflow:visible;"/>
	</clipPath>
	
		<linearGradient id="SVGID_6_" gradientUnits="userSpaceOnUse" x1="6.366463e-12" y1="298.7857" x2="1" y2="298.7857" gradientTransform="matrix(-111.3806 -1.7497 -1.7497 111.3806 594.2574 -33061.9414)">
		<stop  offset="0" style="stop-color:#C9D200"/>
		<stop  offset="1" style="stop-color:#779913"/>
	</linearGradient>
	<polygon class="st1" points="123.5,300.5 -4.4,298.5 -1.8,133.2 126.1,135.2 	"/>
</g>
<g>
	<defs>
		<path id="SVGID_7_" d="M174.9,17.3l-3.5-0.8c-4-0.7-7.3-0.6-12.8,0.4c-5.5,1.2-11,2.5-16.3,4c-9.6,2.9-16.3,7.4-18,12
			c-1.1,15-0.7,34.2,1.2,58c1.3,8.8,10.3,10.8,18.7,8.8c6.2-1.6,12.5-3,18.9-4.4c26.9-5.5,53.8-8.3,79.9-8.6
			c10.4-0.5,16.8-5.3,16.7-12.7c-0.3-3.7-0.6-7.4-0.8-10.8c-0.7-5.1-3.3-6.8-9.2-10.7c17.4-8.9,20.1-10.2,34.8-14.8
			c4.3-1.4,5-2.8,5.1-5.4C287,24.8,253.1,8,239.2,2.5c-3.8-1.2-7.7-2.5-13.4-2.5C216.2,0,201.7,3.6,174.9,17.3"/>
	</defs>
	<clipPath id="SVGID_8_">
		<use xlink:href="#SVGID_7_"  style="overflow:visible;"/>
	</clipPath>
	
		<linearGradient id="SVGID_9_" gradientUnits="userSpaceOnUse" x1="-2.000888e-11" y1="299.2715" x2="1" y2="299.2715" gradientTransform="matrix(166.0195 0 0 -166.0195 123.6394 49735.793)">
		<stop  offset="0" style="stop-color:#932683"/>
		<stop  offset="1" style="stop-color:#5D1253"/>
	</linearGradient>
	<rect x="123.1" y="0" class="st2" width="166.5" height="101.8"/>
</g>
<g>
	<defs>
		<path id="SVGID_10_" d="M165,113.9c-6.4,1.3-12.7,2.7-18.9,4.3c-10.3,3.1-16.3,11-15.6,20.6c0.1,0.7,0.2,1.4,0.3,2.1
			c5.1,39.6,12.4,82.3,20.9,124.1c2.6,10,10.8,15.3,21.3,13.7c6.3-1.3,12.6-2.5,19-3.9c1.2-0.2,2.4-0.5,3.5-0.7c8-2,8-2,19.7-18.9
			c29.6,18.2,38.4,23.6,64.4,38c1.9,0.9,5.8,2.8,11.5,1.7c4.5-0.9,8.7-3.5,11.4-7c17.3-22.7,30.9-47.8,47.8-70.7
			c2.2-3.3,3.5-6.6,2.2-11.7c-1.1-3-1.1-3-62.1-48.8l7.7-8.3c2.9-3.5,3.8-6.1,3.4-10.5c-0.8-5.4-1.5-10.7-2.2-16
			c-0.1-0.6-0.2-1.3-0.2-1.9c-1.6-8.4-8.8-14.2-18.8-15.1c-7-0.3-14.2-0.5-21.4-0.5C228.5,104.3,196.8,107.4,165,113.9"/>
	</defs>
	<clipPath id="SVGID_11_">
		<use xlink:href="#SVGID_10_"  style="overflow:visible;"/>
	</clipPath>
	
		<linearGradient id="SVGID_12_" gradientUnits="userSpaceOnUse" x1="-1.728040e-11" y1="299.0076" x2="1" y2="299.0076" gradientTransform="matrix(98.6718 131.4184 131.4184 -98.6718 -39080.3047 29667.7617)">
		<stop  offset="0" style="stop-color:#F6A906"/>
		<stop  offset="1" style="stop-color:#E95E1D"/>
	</linearGradient>
	<polygon class="st3" points="273.1,-3.3 445.9,226.9 210.5,403.6 37.7,173.4 	"/>
</g>
<rect x="442.7" y="38.4" width="28.1" height="124.9"/>
<g>
	<defs>
		<rect id="SVGID_13_" width="1205.7" height="299.8"/>
	</defs>
	<clipPath id="SVGID_14_">
		<use xlink:href="#SVGID_13_"  style="overflow:visible;"/>
	</clipPath>
	<path class="st4" d="M497.8,71.7c4.6-1.3,10.4-2.6,17.7-3.7c7.2-1.1,14.8-1.7,22.7-1.7c8.1,0,14.8,1,20.1,3.1
		c5.3,2.1,9.6,5.1,12.7,8.9c3.1,3.8,5.3,8.4,6.6,13.7c1.3,5.3,2,11.2,2,17.7v53.5h-26.8v-50.3c0-8.6-1.1-14.8-3.4-18.4
		c-2.3-3.6-6.6-5.4-12.8-5.4c-1.9,0-4,0.1-6.1,0.3c-2.2,0.2-4.1,0.4-5.8,0.6v73.2h-26.8V71.7z"/>
	<path class="st4" d="M603,44.9l26.8-4.3v27.9h32.3v22.4h-32.3v33.3c0,5.6,1,10.2,3,13.5c2,3.4,6,5,12,5c2.9,0,5.9-0.3,8.9-0.8
		c3.1-0.5,5.9-1.3,8.4-2.3l3.8,20.9c-3.2,1.3-6.9,2.5-10.8,3.4c-4,1-8.8,1.4-14.6,1.4c-7.3,0-13.4-1-18.2-3c-4.8-2-8.6-4.7-11.5-8.3
		c-2.9-3.5-4.9-7.8-6-12.9c-1.2-5.1-1.7-10.6-1.7-16.8V44.9z"/>
	<path class="st4" d="M738.9,106.3c-0.1-2.3-0.5-4.5-1.2-6.7c-0.7-2.2-1.7-4.1-3.1-5.8c-1.4-1.7-3.1-3-5.2-4.1
		c-2.1-1.1-4.7-1.6-7.8-1.6c-3,0-5.6,0.5-7.7,1.5c-2.2,1-4,2.4-5.4,4.1c-1.4,1.7-2.6,3.6-3.3,5.8c-0.8,2.2-1.4,4.5-1.7,6.8H738.9z
		 M675.8,116.5c0-8.4,1.3-15.8,3.9-22.1c2.6-6.3,6-11.5,10.2-15.7c4.2-4.2,9-7.4,14.5-9.6c5.5-2.1,11.1-3.2,16.9-3.2
		c13.4,0,24.1,4.1,31.9,12.3c7.8,8.2,11.7,20.3,11.7,36.3c0,1.6-0.1,3.3-0.2,5.1c-0.1,1.9-0.2,3.5-0.3,5h-60.9
		c0.6,5.5,3.2,9.9,7.8,13.1c4.6,3.2,10.7,4.9,18.4,4.9c4.9,0,9.8-0.4,14.5-1.3c4.7-0.9,8.6-2,11.6-3.3l3.6,21.8
		c-1.4,0.7-3.4,1.4-5.8,2.2c-2.4,0.7-5.1,1.4-8,1.9c-2.9,0.5-6.1,1-9.4,1.4c-3.4,0.4-6.7,0.5-10.1,0.5c-8.5,0-15.9-1.3-22.3-3.8
		c-6.3-2.5-11.5-6-15.7-10.4c-4.2-4.4-7.2-9.6-9.2-15.6C676.8,130,675.8,123.5,675.8,116.5"/>
	<path class="st4" d="M808.4,112.8c0,15,6.1,22.5,18.2,22.5c2.8,0,5.4-0.4,7.8-1.1c2.4-0.7,4.4-1.6,6.1-2.5V88.8
		c-1.3-0.2-2.9-0.4-4.7-0.6c-1.8-0.2-3.9-0.3-6.3-0.3c-7.1,0-12.4,2.3-15.9,7C810.2,99.6,808.4,105.6,808.4,112.8 M867.3,151.3
		c0,15.5-3.9,27-11.8,34.5c-7.9,7.5-20,11.2-36.5,11.2c-5.7,0-11.5-0.5-17.3-1.5c-5.8-1-11.1-2.4-16-4.1l4.7-22.5
		c4.2,1.7,8.6,3,13.2,3.9c4.6,1,9.9,1.4,15.8,1.4c7.7,0,13.1-1.7,16.3-5.1c3.2-3.4,4.8-7.7,4.8-13v-3.4c-2.9,1.3-5.8,2.3-8.9,3
		c-3.1,0.7-6.4,1-10,1c-13.1,0-23.1-3.9-30.1-11.6c-7-7.8-10.4-18.6-10.4-32.5c0-6.9,1.1-13.3,3.2-19c2.2-5.7,5.3-10.6,9.5-14.7
		c4.1-4.1,9.2-7.2,15.2-9.5c6-2.2,12.8-3.3,20.3-3.3c3.2,0,6.6,0.2,10,0.5c3.4,0.3,6.8,0.7,10.2,1.2c3.4,0.5,6.6,1,9.6,1.7
		c3.1,0.7,5.8,1.3,8.2,2.1V151.3z"/>
	<path class="st4" d="M949.7,92.2c-2.4-0.6-5.2-1.2-8.5-1.9c-3.2-0.6-6.7-1-10.4-1c-1.7,0-3.7,0.1-6,0.4c-2.3,0.3-4.1,0.6-5.3,1
		v72.4h-26.8V73.5c4.8-1.7,10.5-3.3,17-4.8c6.5-1.5,13.9-2.3,21.9-2.3c1.4,0,3.2,0.1,5.2,0.3c2,0.2,4.1,0.4,6.1,0.7
		c2,0.3,4.1,0.7,6.1,1.1c2,0.4,3.8,0.9,5.2,1.5L949.7,92.2z"/>
	<path class="st4" d="M1049.5,160c-4.6,1.3-10.4,2.6-17.6,3.7c-7.2,1.1-14.8,1.7-22.7,1.7c-8,0-14.7-1.1-20.1-3.3
		c-5.3-2.2-9.6-5.2-12.7-9.1c-3.1-3.9-5.3-8.6-6.7-14c-1.3-5.4-2-11.4-2-17.9V68.4h26.8V118c0,8.6,1.1,14.9,3.4,18.7
		c2.3,3.9,6.5,5.8,12.8,5.8c1.9,0,4-0.1,6.1-0.3c2.2-0.2,4.1-0.4,5.8-0.6V68.4h26.8V160z"/>
	<path class="st4" d="M1126.8,112.9c0-8.6-1.1-14.8-3.3-18.4c-2.2-3.6-6-5.4-11.4-5.4c-1.7,0-3.4,0.1-5.2,0.3
		c-1.8,0.2-3.5,0.4-5.2,0.6v73.2h-26.8V71.7c2.3-0.6,5-1.2,8-1.9c3.1-0.7,6.3-1.3,9.7-1.8c3.4-0.5,6.9-1,10.5-1.2
		c3.6-0.3,7.2-0.5,10.6-0.5c6.8,0,12.4,0.9,16.7,2.6c4.3,1.7,7.8,3.8,10.5,6.2c3.8-2.8,8.3-4.9,13.2-6.5c5-1.6,9.6-2.3,13.8-2.3
		c7.5,0,13.8,1,18.6,3.2c4.9,2.1,8.7,5.1,11.6,8.9c2.9,3.8,4.9,8.4,5.9,13.7c1.1,5.3,1.6,11.2,1.6,17.7v53.5h-26.8v-50.3
		c0-8.6-1.1-14.8-3.3-18.4c-2.2-3.6-6-5.4-11.4-5.4c-1.4,0-3.5,0.4-6,1.1c-2.6,0.7-4.7,1.6-6.4,2.7c0.9,2.8,1.4,5.7,1.6,8.8
		c0.2,3.1,0.4,6.3,0.4,9.8v51.7h-26.8V112.9z"/>
	<path class="st4" d="M477.4,269.9c-0.7-1.7-1.6-3.8-2.8-6.4c-1.2-2.6-2.4-5.4-3.7-8.4c-1.3-3-2.7-6.1-4.3-9.3
		c-1.5-3.2-2.9-6.2-4.3-9c-1.3-2.8-2.6-5.4-3.7-7.6c-1.2-2.2-2.1-3.9-2.8-5.1c-0.8,8.3-1.4,17.2-1.9,26.8
		c-0.5,9.6-0.9,19.4-1.3,29.2h-10c0.3-6.3,0.6-12.7,0.9-19.1c0.3-6.4,0.7-12.7,1.2-18.9c0.5-6.2,0.9-12.2,1.5-18.1
		c0.5-5.9,1.1-11.5,1.7-16.7h8.9c1.9,3.1,3.9,6.7,6.1,10.9c2.2,4.2,4.3,8.6,6.5,13.2c2.2,4.6,4.3,9.2,6.3,13.8
		c2,4.6,3.9,8.8,5.6,12.5c1.7-3.8,3.5-8,5.6-12.5c2-4.6,4.1-9.2,6.3-13.8c2.2-4.6,4.3-9,6.5-13.2c2.2-4.2,4.2-7.9,6.1-10.9h8.9
		c2.4,23.5,4.2,47.7,5.4,72.8h-10c-0.4-9.8-0.8-19.5-1.2-29.2c-0.5-9.6-1.1-18.6-1.9-26.8c-0.7,1.2-1.6,2.9-2.8,5.1
		c-1.2,2.2-2.4,4.8-3.7,7.6c-1.3,2.8-2.7,5.9-4.3,9c-1.5,3.2-2.9,6.3-4.3,9.3c-1.3,3-2.6,5.8-3.7,8.4c-1.1,2.6-2.1,4.7-2.8,6.4
		H477.4z"/>
	<path class="st4" d="M554.1,273c2.3,0,4.3-0.1,6.1-0.2c1.8-0.1,3.3-0.3,4.5-0.6v-16.3c-0.7-0.3-1.8-0.6-3.4-0.9
		c-1.6-0.2-3.5-0.4-5.7-0.4c-1.5,0-3,0.1-4.7,0.3c-1.6,0.2-3.1,0.7-4.5,1.3c-1.4,0.7-2.5,1.6-3.4,2.7c-0.9,1.2-1.4,2.7-1.4,4.6
		c0,3.5,1.1,5.9,3.4,7.3C547.2,272.3,550.2,273,554.1,273 M553.3,224c3.9,0,7.2,0.5,9.9,1.5c2.7,1,4.9,2.4,6.5,4.3
		c1.6,1.9,2.8,4.1,3.5,6.6c0.7,2.6,1.1,5.4,1.1,8.5v34.2c-0.9,0.1-2,0.4-3.5,0.6c-1.5,0.2-3.2,0.5-5.1,0.7c-1.9,0.2-3.9,0.4-6.1,0.6
		c-2.2,0.2-4.4,0.3-6.6,0.3c-3.1,0-5.9-0.3-8.5-1c-2.6-0.6-4.8-1.6-6.7-3c-1.9-1.4-3.4-3.2-4.4-5.4c-1-2.2-1.6-4.9-1.6-8.1
		c0-3,0.6-5.6,1.9-7.8c1.2-2.2,2.9-3.9,5-5.3c2.1-1.3,4.6-2.3,7.4-2.9c2.8-0.6,5.7-1,8.8-1c1,0,2,0.1,3.1,0.2c1.1,0.1,2.1,0.3,3,0.4
		c1,0.2,1.8,0.3,2.5,0.5c0.7,0.1,1.2,0.2,1.5,0.3v-2.7c0-1.6-0.2-3.2-0.5-4.8c-0.3-1.6-1-3-1.9-4.2c-0.9-1.2-2.2-2.2-3.7-2.9
		c-1.6-0.7-3.6-1.1-6.1-1.1c-3.2,0-6,0.2-8.4,0.7c-2.4,0.5-4.2,1-5.4,1.4l-1.1-8.1c1.2-0.6,3.3-1.1,6.3-1.6
		C546.6,224.3,549.8,224,553.3,224"/>
	<path class="st4" d="M590.5,226.9c2.2-0.6,5.2-1.2,8.9-1.8c3.7-0.6,8-0.9,12.8-0.9c4.3,0,8,0.6,10.8,1.9c2.9,1.2,5.2,2.9,6.9,5.1
		c1.7,2.2,2.9,4.9,3.6,7.9c0.7,3.1,1.1,6.5,1.1,10.2V280h-9.8v-28.6c0-3.3-0.2-6.2-0.7-8.6c-0.5-2.4-1.2-4.3-2.3-5.8
		c-1-1.5-2.5-2.5-4.2-3.2c-1.8-0.7-3.9-1-6.5-1c-1.1,0-2.1,0-3.3,0.1c-1.1,0.1-2.2,0.2-3.2,0.3c-1,0.1-1.9,0.2-2.7,0.4
		c-0.8,0.1-1.4,0.2-1.7,0.3V280h-9.8V226.9z"/>
	<path class="st4" d="M669.3,273c2.3,0,4.4-0.1,6.1-0.2c1.8-0.1,3.3-0.3,4.5-0.6v-16.3c-0.7-0.3-1.8-0.6-3.4-0.9
		c-1.6-0.2-3.5-0.4-5.7-0.4c-1.5,0-3,0.1-4.7,0.3c-1.6,0.2-3.1,0.7-4.5,1.3c-1.4,0.7-2.5,1.6-3.4,2.7c-0.9,1.2-1.4,2.7-1.4,4.6
		c0,3.5,1.1,5.9,3.3,7.3C662.4,272.3,665.4,273,669.3,273 M668.4,224c3.9,0,7.2,0.5,9.9,1.5c2.7,1,4.9,2.4,6.5,4.3
		c1.6,1.9,2.8,4.1,3.5,6.6c0.7,2.6,1.1,5.4,1.1,8.5v34.2c-0.8,0.1-2,0.4-3.5,0.6c-1.5,0.2-3.2,0.5-5.1,0.7c-1.9,0.2-3.9,0.4-6.1,0.6
		c-2.2,0.2-4.4,0.3-6.6,0.3c-3.1,0-5.9-0.3-8.5-1c-2.6-0.6-4.8-1.6-6.7-3c-1.9-1.4-3.4-3.2-4.4-5.4c-1-2.2-1.6-4.9-1.6-8.1
		c0-3,0.6-5.6,1.8-7.8c1.2-2.2,2.9-3.9,5-5.3c2.1-1.3,4.6-2.3,7.4-2.9c2.8-0.6,5.7-1,8.8-1c1,0,2,0.1,3,0.2c1.1,0.1,2.1,0.3,3,0.4
		c1,0.2,1.8,0.3,2.5,0.5c0.7,0.1,1.2,0.2,1.5,0.3v-2.7c0-1.6-0.2-3.2-0.5-4.8c-0.4-1.6-1-3-1.9-4.2c-0.9-1.2-2.2-2.2-3.7-2.9
		c-1.6-0.7-3.6-1.1-6.1-1.1c-3.2,0-6,0.2-8.5,0.7c-2.4,0.5-4.2,1-5.4,1.4l-1.1-8.1c1.3-0.6,3.4-1.1,6.3-1.6
		C661.8,224.3,665,224,668.4,224"/>
	<path class="st4" d="M739.8,234c-1-0.3-2.3-0.6-3.9-0.8c-1.7-0.3-3.9-0.4-6.7-0.4c-5.2,0-9.3,1.7-12.1,5.2c-2.8,3.4-4.3,8-4.3,13.7
		c0,3.1,0.4,5.8,1.2,8.1c0.8,2.2,1.9,4.1,3.2,5.6c1.4,1.5,3,2.6,4.7,3.3c1.8,0.7,3.6,1,5.5,1c2.6,0,5-0.4,7.1-1.1
		c2.2-0.7,3.9-1.6,5.1-2.6V234z M739.9,274.6c-0.8,0.6-2.5,1.3-4.9,2.1c-2.4,0.9-5.2,1.3-8.5,1.3c-3.3,0-6.4-0.5-9.3-1.6
		c-2.9-1.1-5.4-2.7-7.6-4.9c-2.2-2.2-3.9-5-5.1-8.2c-1.3-3.3-1.9-7.2-1.9-11.8c0-4,0.6-7.6,1.8-11c1.2-3.3,2.9-6.2,5.2-8.6
		c2.3-2.4,5.1-4.3,8.4-5.7c3.3-1.4,7-2.1,11.2-2.1c4.5,0,8.5,0.3,11.9,1c3.4,0.7,6.3,1.3,8.6,1.9v48.7c0,8.4-2.2,14.5-6.5,18.3
		c-4.4,3.8-10.9,5.7-19.8,5.7c-3.4,0-6.7-0.3-9.7-0.8c-3-0.6-5.7-1.2-7.9-2l1.8-8.5c1.9,0.8,4.4,1.4,7.2,2c2.8,0.6,5.8,0.9,8.9,0.9
		c5.8,0,10-1.2,12.5-3.5c2.6-2.3,3.8-6,3.8-11V274.6z"/>
	<path class="st4" d="M800.8,247.4c0.1-4.4-1-8-3.3-10.9c-2.3-2.8-5.4-4.3-9.4-4.3c-2.3,0-4.2,0.4-6,1.3c-1.7,0.9-3.2,2-4.4,3.4
		c-1.2,1.4-2.1,3-2.8,4.8c-0.7,1.8-1.1,3.7-1.3,5.6H800.8z M763.3,252.8c0-4.8,0.7-9,2.1-12.6c1.4-3.6,3.3-6.6,5.6-9
		c2.3-2.4,5-4.2,8-5.4c3-1.2,6.1-1.8,9.3-1.8c7.4,0,13,2.3,16.9,6.9s5.9,11.6,5.9,21v1.6c0,0.7,0,1.3-0.1,1.9h-37.4
		c0.4,5.7,2.1,10,4.9,12.9c2.9,3,7.4,4.4,13.4,4.4c3.5,0,6.3-0.3,8.7-0.9c2.4-0.6,4.1-1.2,5.3-1.7l1.4,8.2c-1.2,0.6-3.3,1.3-6.2,2
		c-3,0.7-6.4,1.1-10.1,1.1c-4.8,0-8.9-0.7-12.4-2.2c-3.5-1.4-6.3-3.4-8.6-5.9c-2.2-2.5-3.9-5.5-5-9
		C763.9,260.7,763.3,256.9,763.3,252.8"/>
	<path class="st4" d="M825.1,226.9c2.3-0.6,5.2-1.2,8.9-1.8c3.7-0.6,8-0.9,12.8-0.9c3.5,0,6.4,0.5,8.8,1.4c2.4,0.9,4.4,2.3,6,4.1
		c0.5-0.3,1.3-0.8,2.3-1.5c1-0.7,2.4-1.2,3.9-1.8c1.5-0.6,3.3-1.1,5.2-1.6c1.9-0.5,3.9-0.7,6.1-0.7c4.2,0,7.6,0.6,10.3,1.9
		c2.7,1.2,4.7,3,6.3,5.2c1.5,2.2,2.5,4.9,3.1,8c0.5,3.1,0.8,6.4,0.8,10.1V280h-9.8v-28.6c0-3.2-0.2-6-0.5-8.3
		c-0.3-2.3-0.9-4.2-1.8-5.8c-0.9-1.5-2.1-2.7-3.6-3.4c-1.5-0.7-3.5-1.1-5.8-1.1c-3.3,0-6,0.4-8.1,1.3c-2.1,0.9-3.6,1.7-4.4,2.4
		c0.6,1.8,1,3.8,1.3,6c0.3,2.2,0.4,4.4,0.4,6.8V280h-9.8v-28.6c0-3.2-0.2-6-0.5-8.3c-0.4-2.3-1-4.2-1.8-5.8
		c-0.9-1.5-2.1-2.7-3.6-3.4c-1.5-0.7-3.4-1.1-5.7-1.1c-1,0-2,0-3.1,0.1c-1.1,0.1-2.2,0.2-3.2,0.3c-1,0.1-1.9,0.2-2.8,0.4
		c-0.8,0.1-1.4,0.2-1.7,0.3V280h-9.8V226.9z"/>
	<path class="st4" d="M950.1,247.4c0.1-4.4-1-8-3.3-10.9c-2.3-2.8-5.4-4.3-9.4-4.3c-2.2,0-4.2,0.4-5.9,1.3c-1.7,0.9-3.2,2-4.4,3.4
		c-1.2,1.4-2.1,3-2.8,4.8c-0.7,1.8-1.1,3.7-1.3,5.6H950.1z M912.5,252.8c0-4.8,0.7-9,2.1-12.6c1.4-3.6,3.3-6.6,5.5-9
		c2.3-2.4,5-4.2,8-5.4c3-1.2,6.1-1.8,9.2-1.8c7.4,0,13,2.3,16.9,6.9c3.9,4.6,5.9,11.6,5.9,21v1.6c0,0.7-0.1,1.3-0.1,1.9h-37.4
		c0.4,5.7,2.1,10,4.9,12.9c2.9,3,7.4,4.4,13.5,4.4c3.4,0,6.3-0.3,8.7-0.9c2.3-0.6,4.1-1.2,5.3-1.7l1.4,8.2c-1.2,0.6-3.3,1.3-6.3,2
		c-3,0.7-6.4,1.1-10.1,1.1c-4.8,0-8.9-0.7-12.4-2.2c-3.5-1.4-6.3-3.4-8.5-5.9c-2.3-2.5-3.9-5.5-5-9
		C913.1,260.7,912.5,256.9,912.5,252.8"/>
	<path class="st4" d="M974.3,226.9c2.2-0.6,5.2-1.2,8.9-1.8c3.7-0.6,8-0.9,12.8-0.9c4.3,0,7.9,0.6,10.8,1.9c2.9,1.2,5.2,2.9,6.9,5.1
		c1.7,2.2,2.9,4.9,3.6,7.9c0.7,3.1,1.1,6.5,1.1,10.2V280h-9.8v-28.6c0-3.3-0.2-6.2-0.7-8.6c-0.5-2.4-1.2-4.3-2.3-5.8
		c-1-1.5-2.4-2.5-4.2-3.2c-1.8-0.7-3.9-1-6.5-1c-1,0-2.1,0-3.2,0.1c-1.1,0.1-2.2,0.2-3.2,0.3c-1,0.1-1.9,0.2-2.7,0.4
		c-0.8,0.1-1.4,0.2-1.7,0.3V280h-9.8V226.9z"/>
	<path class="st4" d="M1043.8,225.4h20.7v8.2h-20.7v25.2c0,2.7,0.2,5,0.6,6.8c0.4,1.8,1.1,3.2,1.9,4.2c0.9,1,1.9,1.7,3.1,2.2
		c1.3,0.4,2.7,0.6,4.4,0.6c2.9,0,5.3-0.3,7.1-1c1.8-0.6,3-1.1,3.7-1.4l1.9,8.1c-1,0.5-2.7,1.1-5.2,1.8c-2.5,0.7-5.2,1.1-8.4,1.1
		c-3.7,0-6.8-0.5-9.2-1.4c-2.4-1-4.4-2.3-5.9-4.3c-1.5-1.9-2.5-4.2-3.1-7c-0.6-2.8-0.9-6-0.9-9.6v-48.8l9.8-1.7V225.4z"/>
</g>
</svg>
