<?xml version="1.0" encoding="utf-8"?>
<!-- Generator: Adobe Illustrator 23.0.5, SVG Export Plug-In . SVG Version: 6.00 Build 0)  -->
<svg version="1.1" baseProfile="basic" id="Layer_1"
	 xmlns="http://www.w3.org/2000/svg" xmlns:xlink="http://www.w3.org/1999/xlink" x="0px" y="0px" viewBox="0 0 288.32 227.11"
	 xml:space="preserve">
<path fill="#ECC054" d="M144.16,0c-35.72,0-64.68,28.96-64.68,64.68c0,35.72,28.96,64.68,64.68,64.68
	c35.72,0,64.68-28.96,64.68-64.68C208.84,28.96,179.88,0,144.16,0z M148.29,105.63H110.2V89.36l35.07-4.06
	c0.47,1.43,1.58,2.55,3.01,3.02V105.63z M148.29,79.34c-1.41,0.47-2.52,1.57-3,2.98l-35.08,4.06V75.94l35.58-8.75
	c0.58,0.9,1.46,1.58,2.5,1.92V79.34z M148.29,60.13c-1.8,0.59-3.11,2.22-3.24,4.19l-34.84,8.57V61.91l35.44-12.64
	c0.58,1.02,1.51,1.8,2.64,2.18V60.13z M148.29,42.47c-1.7,0.56-2.96,2.04-3.2,3.86L110.2,58.77V48.22l35.76-15.62
	c0.58,0.78,1.38,1.36,2.32,1.67V42.47z M148.29,25.29c-1.89,0.62-3.27,2.39-3.27,4.49c0,0,0,0,0,0L110.2,44.99V31.98l38.08-20.05
	V25.29z M178.11,105.63h-26.87V88.32c1.41-0.47,2.52-1.57,3-2.97l23.87,4.29V105.63z M178.11,86.63l-23.86-4.29
	c-0.47-1.42-1.58-2.53-3.01-3V69.11c0.98-0.33,1.83-0.95,2.41-1.78l24.46,8.69V86.63z M178.11,72.88l-23.61-8.39
	c-0.06-2.04-1.4-3.74-3.25-4.35v-8.68c1.03-0.34,1.91-1,2.49-1.89l20.06,9.03l4.32,2.1V72.88z M178.11,60.62l-1.37-0.71l1.37,0.62
	V60.62z M178.11,57.28l-23.63-10.64c-0.13-1.96-1.44-3.58-3.24-4.18v-8.2c0.99-0.33,1.85-0.96,2.43-1.8l24.44,12.75V57.28z
	 M178.11,41.88l-23.62-12.33c-0.1-2-1.42-3.66-3.24-4.26v-11.7l26.87,20.11V41.88z"/>
<g>
	<path fill="#ECC054" d="M0,184.88l0.09-29.95l5.82,0.02l-0.07,24.85l15.27,0.04l-0.01,5.1L0,184.88z"/>
	<path fill="#ECC054" d="M39.7,185.21c-2.39-0.01-4.42-0.41-6.09-1.22c-1.67-0.81-3.02-1.91-4.04-3.32
		c-1.02-1.41-1.77-3.01-2.24-4.79c-0.47-1.79-0.71-3.65-0.7-5.59L26.66,155l5.82,0.02l-0.04,15.27c0,1.24,0.11,2.44,0.35,3.61
		c0.24,1.17,0.63,2.22,1.19,3.15c0.56,0.93,1.3,1.66,2.23,2.2c0.93,0.54,2.08,0.81,3.46,0.81c1.41,0,2.58-0.27,3.52-0.81
		c0.94-0.54,1.69-1.28,2.24-2.21c0.55-0.93,0.96-1.97,1.21-3.14c0.26-1.17,0.39-2.35,0.39-3.56l0.04-15.27l5.78,0.02l-0.04,15.27
		c-0.01,2.05-0.26,3.98-0.75,5.78c-0.5,1.8-1.28,3.38-2.33,4.74c-1.06,1.36-2.42,2.43-4.08,3.19S42,185.21,39.7,185.21z"/>
	<path fill="#ECC054" d="M61.8,185.06l0.09-29.95l5.82,0.02l-0.04,14.24l12.61-14.24l6.41,0.02l-11.51,13.27l12.14,16.72l-6.58-0.02
		l-9.29-12.95l-3.81,3.96l-0.03,8.96L61.8,185.06z"/>
	<path fill="#ECC054" d="M111.1,163.1c-0.2-0.2-0.55-0.47-1.07-0.8c-0.52-0.34-1.15-0.66-1.9-0.98c-0.75-0.31-1.55-0.59-2.42-0.83
		c-0.87-0.24-1.76-0.36-2.66-0.37c-1.58,0-2.76,0.29-3.57,0.87c-0.8,0.58-1.21,1.41-1.21,2.47c0,0.81,0.25,1.46,0.75,1.93
		c0.5,0.48,1.26,0.88,2.27,1.22c1.01,0.34,2.28,0.71,3.79,1.1c1.97,0.48,3.67,1.07,5.12,1.76c1.45,0.69,2.55,1.59,3.32,2.7
		c0.77,1.11,1.15,2.57,1.15,4.39c0,1.6-0.3,2.96-0.9,4.09c-0.59,1.13-1.41,2.04-2.45,2.74c-1.04,0.7-2.23,1.21-3.55,1.52
		s-2.73,0.47-4.22,0.47c-1.49,0-2.98-0.16-4.47-0.48c-1.49-0.31-2.92-0.76-4.3-1.34c-1.38-0.58-2.64-1.28-3.79-2.1l2.59-5.01
		c0.25,0.25,0.7,0.59,1.35,1c0.65,0.41,1.43,0.82,2.36,1.23c0.93,0.41,1.94,0.76,3.03,1.04c1.1,0.29,2.21,0.43,3.33,0.43
		c1.57,0,2.77-0.25,3.59-0.78c0.82-0.53,1.23-1.28,1.23-2.25c0-0.9-0.32-1.6-0.96-2.1c-0.65-0.51-1.54-0.95-2.7-1.33
		c-1.15-0.38-2.52-0.8-4.09-1.25c-1.88-0.54-3.46-1.14-4.72-1.8c-1.26-0.66-2.2-1.5-2.82-2.51c-0.62-1.01-0.92-2.27-0.92-3.78
		c0.01-2.04,0.5-3.76,1.47-5.14c0.97-1.38,2.29-2.43,3.95-3.14c1.66-0.71,3.5-1.06,5.53-1.06c1.41,0,2.73,0.16,3.99,0.48
		c1.25,0.31,2.42,0.72,3.52,1.23c1.1,0.51,2.08,1.06,2.95,1.65L111.1,163.1z"/>
	<path fill="#ECC054" d="M134.91,185.48c-2.39-0.01-4.42-0.41-6.09-1.22c-1.67-0.81-3.02-1.91-4.04-3.32
		c-1.02-1.41-1.77-3.01-2.24-4.79c-0.47-1.79-0.71-3.65-0.7-5.59l0.04-15.27l5.82,0.02l-0.04,15.27c0,1.24,0.11,2.44,0.35,3.61
		c0.24,1.17,0.63,2.22,1.19,3.15c0.56,0.93,1.3,1.66,2.23,2.2c0.93,0.54,2.08,0.81,3.46,0.81c1.41,0,2.58-0.27,3.52-0.81
		c0.94-0.55,1.69-1.28,2.24-2.21c0.55-0.93,0.96-1.97,1.21-3.14c0.26-1.17,0.39-2.35,0.39-3.56l0.04-15.27l5.78,0.02l-0.04,15.27
		c-0.01,2.05-0.26,3.98-0.75,5.78c-0.5,1.8-1.28,3.38-2.33,4.74c-1.06,1.36-2.42,2.43-4.08,3.19S137.22,185.49,134.91,185.48z"/>
	<path fill="#ECC054" d="M174.93,163.28c-0.2-0.2-0.55-0.47-1.07-0.8c-0.52-0.34-1.15-0.66-1.9-0.98c-0.75-0.31-1.55-0.59-2.42-0.83
		c-0.87-0.24-1.76-0.36-2.66-0.37c-1.58,0-2.76,0.29-3.57,0.87c-0.8,0.59-1.21,1.41-1.21,2.47c0,0.81,0.25,1.46,0.75,1.93
		s1.26,0.88,2.27,1.22c1.01,0.34,2.28,0.71,3.79,1.1c1.97,0.48,3.67,1.07,5.12,1.76c1.45,0.69,2.55,1.59,3.32,2.7
		c0.77,1.11,1.15,2.57,1.15,4.39c0,1.6-0.3,2.96-0.9,4.09c-0.59,1.13-1.41,2.05-2.45,2.74c-1.04,0.7-2.23,1.2-3.55,1.52
		s-2.73,0.47-4.22,0.47c-1.49,0-2.98-0.16-4.47-0.48c-1.49-0.31-2.92-0.76-4.3-1.34c-1.38-0.58-2.64-1.28-3.79-2.1l2.59-5.01
		c0.25,0.25,0.7,0.59,1.35,1c0.65,0.41,1.43,0.82,2.36,1.23c0.93,0.41,1.94,0.76,3.03,1.04c1.1,0.29,2.21,0.43,3.33,0.43
		c1.57,0,2.77-0.26,3.59-0.78c0.82-0.53,1.23-1.28,1.23-2.25c0-0.9-0.32-1.6-0.96-2.1c-0.65-0.51-1.54-0.95-2.7-1.33
		c-1.15-0.38-2.52-0.8-4.09-1.25c-1.88-0.54-3.46-1.14-4.72-1.8c-1.26-0.66-2.2-1.5-2.82-2.51c-0.62-1.01-0.92-2.27-0.92-3.78
		c0.01-2.04,0.5-3.76,1.47-5.14c0.97-1.38,2.29-2.43,3.95-3.14c1.66-0.71,3.5-1.06,5.53-1.06c1.41,0,2.73,0.16,3.99,0.48
		c1.25,0.31,2.42,0.72,3.52,1.23c1.1,0.51,2.08,1.06,2.95,1.65L174.93,163.28z"/>
	<path fill="#ECC054" d="M198.82,185.67c-2.19-0.01-4.18-0.43-5.97-1.28c-1.78-0.85-3.31-2-4.59-3.45c-1.28-1.45-2.26-3.09-2.96-4.9
		c-0.7-1.82-1.04-3.68-1.04-5.59c0.01-2,0.38-3.9,1.13-5.71c0.75-1.81,1.78-3.43,3.09-4.84c1.31-1.42,2.86-2.54,4.65-3.36
		c1.79-0.82,3.75-1.23,5.89-1.23c2.17,0.01,4.14,0.45,5.92,1.33c1.78,0.88,3.31,2.05,4.57,3.51c1.26,1.47,2.24,3.1,2.94,4.9
		c0.7,1.8,1.04,3.66,1.04,5.57c-0.01,1.97-0.38,3.86-1.11,5.67c-0.74,1.81-1.76,3.43-3.07,4.84c-1.31,1.42-2.86,2.53-4.65,3.34
		C202.88,185.27,200.93,185.67,198.82,185.67z M190.18,170.45c0,1.29,0.19,2.55,0.58,3.76c0.39,1.21,0.96,2.29,1.7,3.23
		c0.74,0.94,1.65,1.69,2.74,2.24c1.08,0.55,2.31,0.83,3.69,0.83c1.41,0,2.66-0.28,3.76-0.85c1.1-0.57,2.01-1.34,2.75-2.31
		c0.73-0.97,1.29-2.05,1.68-3.24c0.38-1.19,0.58-2.4,0.58-3.61c0-1.29-0.2-2.54-0.6-3.74c-0.4-1.2-0.98-2.27-1.72-3.21
		c-0.74-0.94-1.65-1.69-2.74-2.24c-1.08-0.55-2.3-0.83-3.65-0.83c-1.43,0-2.69,0.28-3.78,0.85c-1.08,0.57-1.99,1.34-2.73,2.29
		s-1.29,2.02-1.68,3.2C190.37,168.01,190.18,169.22,190.18,170.45z"/>
	<path fill="#ECC054" d="M230.26,155.68l5.4,0.02l3.39,9.92l3.49-9.9l5.36,0.01l-5.19,13.61l3.77,9.54l8.55-23.22l6.33,0.02
		l-12.07,29.92l-5.02-0.01L239.02,173l-5.27,12.56l-5.02-0.01l-11.85-29.99l6.24,0.02l8.45,23.27l3.74-9.52L230.26,155.68z"/>
	<path fill="#ECC054" d="M288.32,180.61l-0.01,5.1l-20.8-0.06l0.09-29.95l20.42,0.06l-0.02,5.1l-14.6-0.04l-0.02,7.21l12.61,0.04
		l-0.01,4.72l-12.61-0.04l-0.02,7.8L288.32,180.61z"/>
</g>
<g>
	<path fill="#ECC054" d="M28.29,226.36l0.06-19.66l-7.72,14.62l-3.25-0.01l-7.64-14.66l-0.06,19.66l-5.82-0.02l0.09-29.95l6.24,0.02
		l8.81,17.07L28,196.41l6.2,0.02l-0.09,29.95L28.29,226.36z"/>
	<path fill="#ECC054" d="M43.52,226.41l0.09-29.95l5.82,0.02l-0.09,29.95L43.52,226.41z"/>
	<path fill="#ECC054" d="M79.57,221.41l-0.01,5.1l-20.8-0.06l0.09-29.95l20.42,0.06l-0.01,5.1l-14.6-0.04l-0.02,7.21l12.61,0.04
		l-0.01,4.72l-12.61-0.04l-0.02,7.8L79.57,221.41z"/>
	<path fill="#ECC054" d="M105.18,204.48c-0.2-0.2-0.55-0.47-1.07-0.81c-0.52-0.34-1.15-0.66-1.9-0.98
		c-0.74-0.31-1.55-0.59-2.42-0.83c-0.87-0.24-1.76-0.36-2.66-0.37c-1.58,0-2.76,0.29-3.57,0.87s-1.21,1.41-1.21,2.47
		c0,0.81,0.25,1.46,0.75,1.93c0.51,0.48,1.26,0.88,2.27,1.22c1.01,0.34,2.28,0.71,3.79,1.1c1.97,0.48,3.67,1.07,5.12,1.76
		c1.45,0.69,2.55,1.59,3.32,2.7s1.15,2.57,1.15,4.39c0,1.6-0.3,2.96-0.9,4.09c-0.59,1.13-1.41,2.05-2.45,2.74
		c-1.04,0.7-2.23,1.21-3.55,1.52c-1.32,0.32-2.73,0.47-4.22,0.47c-1.49,0-2.98-0.16-4.47-0.48c-1.49-0.31-2.92-0.76-4.3-1.34
		c-1.38-0.58-2.64-1.28-3.79-2.1l2.59-5.01c0.25,0.25,0.7,0.59,1.35,1c0.65,0.41,1.43,0.82,2.36,1.23c0.93,0.41,1.94,0.76,3.03,1.04
		c1.1,0.29,2.21,0.43,3.33,0.43c1.57,0,2.77-0.26,3.59-0.78c0.82-0.53,1.23-1.28,1.23-2.25c0-0.9-0.32-1.6-0.96-2.1
		c-0.65-0.51-1.54-0.95-2.7-1.33c-1.15-0.38-2.52-0.8-4.09-1.25c-1.88-0.54-3.46-1.14-4.72-1.8c-1.26-0.66-2.2-1.5-2.82-2.51
		c-0.62-1.01-0.92-2.27-0.92-3.78c0.01-2.04,0.5-3.76,1.47-5.14c0.97-1.38,2.29-2.43,3.95-3.14c1.66-0.71,3.5-1.06,5.53-1.06
		c1.41,0,2.73,0.16,3.99,0.48c1.25,0.31,2.42,0.72,3.52,1.23c1.1,0.51,2.08,1.06,2.95,1.65L105.18,204.48z"/>
	<path fill="#ECC054" d="M114.45,222.23l16.77-20.41l-16.24-0.05l0.01-5.1l23.16,0.07l-0.01,4.39l-16.22,20.41l16.28,0.05l-0.01,5.1
		l-23.75-0.07L114.45,222.23z"/>
	<path fill="#ECC054" d="M145.91,226.7l0.09-29.95l5.82,0.02l-0.04,14.24l12.61-14.24l6.41,0.02l-11.51,13.27l12.14,16.72
		l-6.58-0.02l-9.29-12.96l-3.81,3.96l-0.03,8.96L145.91,226.7z"/>
	<path fill="#ECC054" d="M185.52,196.87l5.91,0.02l10.92,29.98l-5.99-0.02l-2.47-7.47l-11-0.03l-2.52,7.46l-5.99-0.02L185.52,196.87
		z M192.55,215.28l-4.08-12.37l-4.18,12.35L192.55,215.28z"/>
	<path fill="#ECC054" d="M214.69,207.67l-0.06,19.24l-5.82-0.02l0.09-29.95l4.64,0.01l15.43,19.79l0.06-19.7l5.82,0.02l-0.09,29.91
		l-4.85-0.01L214.69,207.67z"/>
	<path fill="#ECC054" d="M244.16,226.99l0.09-29.95l5.82,0.02l-0.09,29.95L244.16,226.99z"/>
	<path fill="#ECC054" d="M267.62,197.11l5.91,0.02l10.92,29.98l-5.99-0.02l-2.47-7.47l-11-0.03l-2.52,7.46l-5.99-0.02L267.62,197.11
		z M274.64,215.52l-4.08-12.37l-4.18,12.35L274.64,215.52z"/>
</g>
</svg>
