<?xml version="1.0" encoding="utf-8"?>
<!-- Generator: Adobe Illustrator 23.0.5, SVG Export Plug-In . SVG Version: 6.00 Build 0)  -->
<svg version="1.1" baseProfile="basic" id="Layer_1"
	 xmlns="http://www.w3.org/2000/svg" xmlns:xlink="http://www.w3.org/1999/xlink" x="0px" y="0px" viewBox="0 0 173.69 227.3"
	 xml:space="preserve">
<g>
	<path fill="#C72C27" d="M86.84,0C51.12,0,22.16,28.96,22.16,64.68s28.96,64.68,64.68,64.68s64.68-28.96,64.68-64.68
		C151.54,28.96,122.57,0,86.84,0z M72.33,29.87l16.56,21.66c-0.23,0.35-0.4,0.74-0.53,1.15l-13.71,2.16
		c-0.53-0.86-1.34-1.53-2.32-1.87V29.87z M69.33,92.95H52.4v-0.03V78.26c2.14,0,3.93-1.49,4.37-3.47l9.95-0.91
		c0.49,1.12,1.44,1.99,2.61,2.41V92.95z M69.33,68.01c-1.34,0.47-2.38,1.56-2.78,2.92l-10.19,0.93c-0.74-1.43-2.23-2.42-3.97-2.42
		v-5.35c2.13,0,3.9-1.47,4.36-3.44l10.09-1.59c0.51,1.01,1.4,1.8,2.49,2.18V68.01z M69.33,52.97c-1.42,0.5-2.51,1.68-2.85,3.16
		l-10.09,1.59c-0.51-1-1.4-1.77-2.47-2.16l15.42-27.44L69.33,52.97L69.33,52.97z M91.12,92.95h-7.06H72.33V76.28
		c1.43-0.5,2.53-1.7,2.86-3.18l13.26-1.21c0.47,1.19,1.44,2.12,2.66,2.55L91.12,92.95L91.12,92.95z M91.12,66.16
		c-1.29,0.46-2.3,1.48-2.73,2.77l-13.57,1.24c-0.51-1-1.4-1.78-2.48-2.16v-6.77c1.53-0.54,2.67-1.87,2.91-3.51l13.24-2.09
		c0.48,1.15,1.44,2.03,2.63,2.45C91.12,58.09,91.12,66.16,91.12,66.16z M121.29,92.95H99.06h-4.95V74.44
		c1.11-0.39,2.02-1.2,2.52-2.24l24.66,4.37V92.95z M121.29,73.56l-24.35-4.32c-0.36-1.44-1.43-2.59-2.83-3.09V58.1
		c1.1-0.39,1.99-1.18,2.5-2.19l24.68,4.88V73.56z M96.96,52.96c-0.46-1.95-2.23-3.41-4.34-3.41c-0.46,0-0.9,0.09-1.32,0.22
		L73.76,26.84l36.6,17.26l10.93,13.61L96.96,52.96z"/>
</g>
<g>
	<path fill="#C72C27" d="M24.93,160.69l-9.58-0.03l-0.07,24.85l-5.78-0.02l0.07-24.85L0,160.62l0.02-5.1l24.93,0.07L24.93,160.69z"
		/>
	<path fill="#C72C27" d="M37.18,155.62l5.91,0.02l10.92,29.98l-5.99-0.02l-2.47-7.47l-11-0.03l-2.52,7.46l-5.99-0.02L37.18,155.62z
		 M44.2,174.03l-4.08-12.37l-4.18,12.35L44.2,174.03z"/>
	<path fill="#C72C27" d="M84.62,177.99c0,1.69-0.45,3.1-1.32,4.24c-0.88,1.14-2.05,2-3.53,2.58c-1.48,0.59-3.09,0.88-4.83,0.87
		l-14.47-0.04l0.09-29.95l16.03,0.05c1.41,0,2.62,0.38,3.65,1.13c1.02,0.75,1.81,1.71,2.35,2.88s0.82,2.39,0.81,3.65
		c0,1.43-0.37,2.8-1.11,4.09s-1.81,2.25-3.21,2.86c1.71,0.51,3.07,1.43,4.06,2.75C84.13,174.42,84.62,176.05,84.62,177.99z
		 M78.76,176.88c0-0.76-0.15-1.44-0.46-2.05s-0.72-1.08-1.24-1.44c-0.52-0.35-1.12-0.53-1.79-0.53l-8.94-0.03l-0.02,7.89l8.65,0.02
		c0.7,0,1.34-0.17,1.92-0.52s1.04-0.82,1.38-1.41C78.58,178.23,78.76,177.58,78.76,176.88z M66.36,160.68l-0.02,7.55l7.76,0.02
		c0.65,0,1.24-0.15,1.77-0.46c0.54-0.31,0.97-0.74,1.29-1.3s0.49-1.24,0.49-2.02c0-0.76-0.14-1.42-0.44-1.98
		c-0.29-0.56-0.69-1-1.18-1.31s-1.05-0.47-1.67-0.47L66.36,160.68z"/>
	<path fill="#C72C27" d="M113.13,180.69l-0.01,5.1l-20.8-0.06l0.09-29.95l20.42,0.06l-0.01,5.1l-14.6-0.04l-0.02,7.21l12.61,0.04
		l-0.01,4.72l-12.61-0.04l-0.02,7.8L113.13,180.69z"/>
	<path fill="#C72C27" d="M120.83,185.82l0.09-29.95l5.82,0.02l-0.07,24.85l15.27,0.04l-0.01,5.1L120.83,185.82z"/>
	<path fill="#C72C27" d="M156.86,155.97l5.91,0.02l10.92,29.98l-5.99-0.02l-2.47-7.47l-11-0.03l-2.52,7.46l-5.99-0.02L156.86,155.97
		z M163.88,174.38l-4.08-12.37l-4.18,12.35L163.88,174.38z"/>
</g>
<g>
	<path fill="#C72C27" d="M28.37,227.16c-2.19-0.01-4.18-0.43-5.97-1.28c-1.78-0.85-3.31-2-4.59-3.45s-2.26-3.09-2.96-4.9
		c-0.7-1.82-1.04-3.68-1.04-5.59c0.01-2,0.38-3.9,1.13-5.71c0.75-1.81,1.78-3.43,3.09-4.84c1.31-1.42,2.86-2.54,4.65-3.36
		c1.79-0.82,3.75-1.23,5.89-1.23c2.17,0.01,4.14,0.45,5.92,1.33s3.31,2.05,4.57,3.51c1.26,1.47,2.24,3.1,2.94,4.9
		c0.7,1.8,1.04,3.66,1.04,5.57c0,1.97-0.38,3.86-1.11,5.67c-0.74,1.81-1.76,3.43-3.07,4.84c-1.31,1.41-2.86,2.53-4.65,3.34
		C32.43,226.76,30.48,227.16,28.37,227.16z M19.72,211.95c0,1.29,0.19,2.55,0.58,3.76c0.39,1.21,0.96,2.29,1.7,3.23
		c0.74,0.94,1.65,1.69,2.74,2.24c1.08,0.55,2.31,0.83,3.69,0.83c1.41,0,2.66-0.28,3.76-0.85c1.1-0.57,2.01-1.34,2.75-2.31
		c0.73-0.97,1.29-2.05,1.68-3.24c0.38-1.19,0.58-2.4,0.58-3.61c0-1.29-0.2-2.54-0.6-3.74c-0.4-1.2-0.98-2.27-1.72-3.21
		c-0.74-0.94-1.65-1.69-2.74-2.24c-1.08-0.55-2.3-0.83-3.65-0.83c-1.43,0-2.69,0.28-3.78,0.85c-1.08,0.57-1.99,1.34-2.73,2.29
		c-0.73,0.95-1.29,2.02-1.68,3.2C19.92,209.5,19.72,210.71,19.72,211.95z"/>
	<path fill="#C72C27" d="M50.64,227.01l0.09-29.95l20.12,0.06l-0.01,5.1l-14.3-0.04l-0.02,7.72l11.9,0.03l-0.01,4.72l-11.9-0.03
		l-0.04,12.4L50.64,227.01z"/>
	<path fill="#C72C27" d="M98.83,222.05l-0.01,5.1l-20.8-0.06l0.09-29.95l20.42,0.06l-0.01,5.1l-14.6-0.04l-0.02,7.21l12.61,0.04
		l-0.01,4.72l-12.61-0.04l-0.02,7.8L98.83,222.05z"/>
	<path fill="#C72C27" d="M106.54,227.17l0.09-29.95l13.25,0.04c1.38,0,2.65,0.29,3.82,0.85c1.17,0.57,2.18,1.33,3.03,2.29
		c0.86,0.96,1.51,2.03,1.97,3.21c0.46,1.18,0.69,2.39,0.69,3.63c0,1.27-0.23,2.48-0.67,3.65s-1.07,2.18-1.89,3.05
		c-0.82,0.87-1.78,1.54-2.88,2.02l6.8,11.28l-6.41-0.02l-6.13-10.06l-5.82-0.02l-0.03,10.04L106.54,227.17z M112.41,212.05l7.3,0.02
		c0.73,0,1.38-0.21,1.94-0.65c0.56-0.43,1.01-1.02,1.35-1.75s0.51-1.54,0.51-2.44c0-0.96-0.19-1.79-0.58-2.51s-0.89-1.29-1.49-1.71
		c-0.6-0.42-1.26-0.64-1.96-0.64l-7.04-0.02L112.41,212.05z"/>
	<path fill="#C72C27" d="M159.88,202.48l-9.58-0.03l-0.07,24.85l-5.78-0.02l0.07-24.85l-9.58-0.03l0.01-5.1l24.93,0.07
		L159.88,202.48z"/>
</g>
</svg>
