<?xml version="1.0" encoding="utf-8"?>
<!-- Generator: Adobe Illustrator 19.0.1, SVG Export Plug-In . SVG Version: 6.00 Build 0)  -->
<svg version="1.1" id="Layer_1" xmlns="http://www.w3.org/2000/svg" xmlns:xlink="http://www.w3.org/1999/xlink" x="0px" y="0px"
   viewBox="-335 237 128 128" style="enable-background:new -335 237 128 128;" xml:space="preserve">
<style type="text/css">
  .st0{fill:url(#SVGID_1_);}
  .st1{opacity:7.000000e-02;enable-background:new;}
  .st2{fill:#FFFFFF;}
</style>
<g id="background_FPO">
</g>
<g id="BASE">
</g>
<g id="shadow">
    <linearGradient id="SVGID_1_" gradientUnits="userSpaceOnUse" x1="-271.0003" y1="359.9664" x2="-271.0003" y2="246.2106" gradientTransform="matrix(1 0 0 -1 0 604)">
    <stop  offset="0" style="stop-color:#4387FD"/>
    <stop  offset="1" style="stop-color:#4683EA"/>
  </linearGradient>
  <path class="st0" d="M-307.2,352.2l-26.3-45.5c-2.1-3.6-2.1-7.9,0-11.5l26.3-45.5c2.1-3.6,5.9-5.7,10-5.7h52.5
    c4.1,0,7.9,2.2,10,5.7l26.3,45.5c2.1,3.6,2.1,7.9,0,11.5l-26.3,45.5c-2.1,3.6-5.9,5.7-10,5.7h-52.5
    C-301.4,358-305.2,355.8-307.2,352.2z"/>
</g>
<g id="art2">
  <polyline class="st1" points="-257.4,358 -288.5,326.9 -303,301.1 -287.6,274 -287.6,274 -272.6,273.6 -254.8,273.6 -213.3,315.1
    -213.3,315.1 -236.1,354.4 -239.9,356.8"/>
</g>
<g id="Guides">
</g>
<g>
  <path class="st2" d="M-262.7,301.1c0,4.6-3.8,8.4-8.4,8.4c-4.6,0-8.4-3.8-8.4-8.4c0-4.6,3.8-8.4,8.4-8.4
    C-266.5,292.6-262.7,296.4-262.7,301.1z"/>
  <g>
    <path class="st2" d="M-240,298.9l-6.3-11h-12.8l7.5,13.1v0l-2,3.5l-7.7,13.3l-2.4,4.1l-4.1,7.1h10.4c1.5,0,2.9-0.8,3.6-2.1
      l13.7-23.8C-239.2,301.8-239.2,300.2-240,298.9z"/>
  </g>
  <g>
    <path class="st2" d="M-280.7,317.8l-9.7-16.8v0l-6.4-11.2l-5.2,9.1c-0.7,1.3-0.7,2.9,0,4.2l13.7,23.8c0.7,1.3,2.1,2.1,3.6,2.1
      h12.6l6.5-11.2H-280.7z"/>
  </g>
  <g>
    <path class="st2" d="M-248.4,284.2l-5.2-9.1c-0.7-1.3-2.1-2.1-3.6-2.1h-27.3c-1.5,0-2.9,0.8-3.6,2.1l-6.3,11l6.4,11.1l7.5-13.1
      H-248.4z"/>
  </g>
</g>
</svg>
