<?xml version="1.0" encoding="UTF-8" standalone="no"?>
<svg width="26px" height="26px" viewBox="0 0 26 26" version="1.1" xmlns="http://www.w3.org/2000/svg" xmlns:xlink="http://www.w3.org/1999/xlink">
    <!-- Generator: Sketch 39.1 (31720) - http://www.bohemiancoding.com/sketch -->
    <title>genomics copy</title>
    <desc>Created with Sketch.</desc>
    <defs></defs>
    <g id="Page-1" stroke="none" stroke-width="1" fill="none" fill-rule="evenodd">
        <g id="genomics-logo-copy-2" transform="translate(2.000000, 0.000000)" fill="#FFFFFF">
            <polyline id="Fill-4" points="6.249375 9.04334459 13.0921484 9.04334459 13.8857813 8.23260135 13.0921484 7.42273649 6.249375 7.42273649 6.249375 9.04334459"></polyline>
            <path d="M6.661875,8.23172297 C6.661875,8.97746622 6.07019531,9.58222973 5.34058594,9.58222973 C4.61054688,9.58222973 4.01929688,8.97746622 4.01929688,8.23172297 C4.01929688,7.48597973 4.61054688,6.88121622 5.34058594,6.88121622 C6.07019531,6.88121622 6.661875,7.48597973 6.661875,8.23172297" id="Fill-5"></path>
            <path d="M18.3773047,8.23172297 C18.3773047,9.2014527 17.6081641,9.98760135 16.6594141,9.98760135 C15.7106641,9.98760135 14.9419531,9.2014527 14.9419531,8.23172297 C14.9419531,7.26243243 15.7106641,6.47628378 16.6594141,6.47628378 C17.6081641,6.47628378 18.3773047,7.26243243 18.3773047,8.23172297" id="Fill-6"></path>
            <polyline id="Fill-7" points="8.16492187 17.9443919 8.958125 18.7551351 15.7016406 18.7551351 15.7016406 17.134527 8.958125 17.134527 8.16492187 17.9443919"></polyline>
            <path d="M7.12421875,17.9435135 C7.12421875,18.9132432 6.35507812,19.6993919 5.40632812,19.6993919 C4.45800781,19.6993919 3.68886719,18.9132432 3.68886719,17.9435135 C3.68886719,16.974223 4.45800781,16.1880743 5.40632812,16.1880743 C6.35507812,16.1880743 7.12421875,16.974223 7.12421875,17.9435135" id="Fill-8"></path>
            <path d="M17.9476172,17.9435135 C17.9476172,18.6896959 17.3563672,19.2940203 16.6263281,19.2940203 C15.8967188,19.2940203 15.3050391,18.6896959 15.3050391,17.9435135 C15.3050391,17.1977703 15.8967188,16.5930068 16.6263281,16.5930068 C17.3563672,16.5930068 17.9476172,17.1977703 17.9476172,17.9435135" id="Fill-9"></path>
            <polyline id="Fill-10" points="2.85441406 3.10594595 16.4772266 3.10594595 17.2704297 2.29564189 16.4772266 1.48665541 2.85441406 1.48533784 2.85441406 3.10594595"></polyline>
            <path d="M3.28066406,2.29564189 C3.28066406,3.04138514 2.68898437,3.64614865 1.959375,3.64614865 C1.22976562,3.64614865 0.638085937,3.04138514 0.638085937,2.29564189 C0.638085937,1.54945946 1.22976562,0.945135135 1.959375,0.945135135 C2.68898437,0.945135135 3.28066406,1.54945946 3.28066406,2.29564189" id="Fill-11"></path>
            <path d="M21.7623828,2.29564189 C21.7623828,3.26493243 20.9932422,4.05108108 20.0444922,4.05108108 C19.0957422,4.05108108 18.3270312,3.26493243 18.3270312,2.29564189 C18.3270312,1.32591216 19.0957422,0.539763514 20.0444922,0.539763514 C20.9932422,0.539763514 21.7623828,1.32591216 21.7623828,2.29564189" id="Fill-12"></path>
            <polyline id="Fill-13" points="4.69347656 23.8800338 5.48582031 24.6903378 19.1253906 24.6903378 19.1253906 23.0710473 5.48582031 23.0697297 4.69347656 23.8800338"></polyline>
            <path d="M3.66609375,23.8800338 C3.66609375,24.8497635 2.89695312,25.6359122 1.94863281,25.6359122 C0.999882812,25.6359122 0.230742187,24.8497635 0.230742187,23.8800338 C0.230742187,22.9103041 0.999882812,22.1245946 1.94863281,22.1245946 C2.89695312,22.1245946 3.66609375,22.9103041 3.66609375,23.8800338" id="Fill-14"></path>
            <path d="M21.3713672,23.8800338 C21.3713672,24.625777 20.7796875,25.2305405 20.0500781,25.2305405 C19.3204687,25.2305405 18.7287891,24.625777 18.7287891,23.8800338 C18.7287891,23.1342905 19.3204687,22.529527 20.0500781,22.529527 C20.7796875,22.529527 21.3713672,23.1342905 21.3713672,23.8800338" id="Fill-15"></path>
            <path d="M12.7174609,13.0878378 C12.7174609,14.0575676 11.94875,14.843277 11,14.843277 C10.05125,14.843277 9.28210938,14.0575676 9.28210938,13.0878378 C9.28210938,12.1181081 10.05125,11.3319595 11,11.3319595 C11.94875,11.3319595 12.7174609,12.1181081 12.7174609,13.0878378" id="Fill-16"></path>
        </g>
    </g>
</svg>