<?xml version="1.0" encoding="UTF-8"?>
<svg width="24px" height="24px" viewBox="0 0 24 24" version="1.1" xmlns="http://www.w3.org/2000/svg" xmlns:xlink="http://www.w3.org/1999/xlink">
    <!-- Generator: Sketch 42 (36781) - http://www.bohemiancoding.com/sketch -->
    <title>GPU_white</title>
    <desc>Created with Sketch.</desc>
    <defs></defs>
    <g id="Page-1" stroke="none" stroke-width="1" fill="none" fill-rule="evenodd">
        <g id="Artboard" transform="translate(-454.000000, -441.000000)" fill-rule="nonzero" fill="#FFFFFF">
            <g id="GPU_white" transform="translate(454.000000, 441.000000)">
                <path d="M17.8550943,5.30264151 L17.9184906,5.30264151 C18.1761383,5.35534409 18.3774861,5.55669185 18.4301887,5.81433962 L18.4301887,5.87773585 L18.4301887,17.610566 L18.4301887,17.6739623 C18.3774861,17.93161 18.1761383,18.1329578 17.9184906,18.1856604 L17.8550943,18.1856604 L6.13584906,18.1856604 L6.07245283,18.1856604 C5.81083686,18.1385219 5.60345595,17.9382921 5.54716981,17.6784906 L5.54716981,17.6150943 L5.54716981,5.89132075 L5.54716981,5.82792453 C5.59987239,5.57027676 5.80122015,5.368929 6.05886792,5.31622642 L6.12226415,5.31622642 L17.8550943,5.31622642 L17.8550943,5.30264151 Z M18.3984906,0.0135849057 L15.8535849,0.0135849057 L15.8535849,2.83018868 L13.5486792,2.83018868 L13.5486792,0 L10.9811321,0 L10.9811321,2.83018868 L8.14188679,2.83018868 L8.14188679,0 L5.59245283,0 L5.59245283,2.89358491 C4.35337725,3.14025799 3.38478629,4.10884895 3.13811321,5.34792453 L0,5.34792453 L0,7.89283019 L3.07924528,7.89283019 L3.07924528,10.754717 L0,10.754717 L0,13.2996226 L3.07924528,13.2996226 L3.07924528,15.6045283 L0,15.6045283 L0,18.149434 L3.13811321,18.149434 C3.38478629,19.3885095 4.35337725,20.3571005 5.59245283,20.6037736 L5.59245283,23.7735849 L8.13735849,23.7735849 L8.13735849,20.6671698 L10.9811321,20.6671698 L10.9811321,23.7690566 L13.5260377,23.7690566 L13.5260377,20.6671698 L15.8309434,20.6671698 L15.8309434,23.7690566 L18.3758491,23.7690566 L18.3758491,20.5992453 C19.6149246,20.3525722 20.5835156,19.3839812 20.8301887,18.1449057 L23.7509434,18.1449057 L23.7509434,15.6090566 L20.9162264,15.6090566 L20.9162264,13.3041509 L23.7735849,13.3041509 L23.7735849,10.754717 L20.9162264,10.754717 L20.9162264,7.89735849 L23.7735849,7.89735849 L23.7735849,5.34792453 L20.8528302,5.34792453 C20.6061571,4.10884895 19.6375661,3.14025799 18.3984906,2.89358491 L18.3984906,0 L18.3984906,0.0135849057 Z" id="Shape"></path>
                <polygon id="Shape" points="12.9283019 6.33962264 12.9283019 10.6369811 15.2830189 10.6369811 11.085283 16.469434 11.085283 12.1222642 8.60377358 12.1222642"></polygon>
            </g>
        </g>
    </g>
</svg>