<svg xmlns="http://www.w3.org/2000/svg" viewBox="0 0 128 128"><defs><style>.cls-1{fill:#4285f4;}.cls-2{opacity:0.07;}.cls-3{fill:#fff;}</style></defs><title>128px</title><g id="art"><path class="cls-1" d="M28.14,114.73l-26-45a11.39,11.39,0,0,1,0-11.39l26-45A11.39,11.39,0,0,1,38,7.58H90a11.39,11.39,0,0,1,9.86,5.69l26,45a11.39,11.39,0,0,1,0,11.39l-26,45A11.39,11.39,0,0,1,90,120.42H38A11.39,11.39,0,0,1,28.14,114.73Z"/><path class="cls-2" d="M46.53,81.41l38.79,39h4.74a11.14,11.14,0,0,0,9.64-5.57l18.62-32-31.08-31-9.55-5.18-30.16.92Z"/><path class="cls-3" d="M77.18,49.46l.14,0a1.45,1.45,0,0,1,1.13,1.13l0,.14V76.64l0,.14a1.45,1.45,0,0,1-1.13,1.13l-.14,0H51.3l-.14,0A1.45,1.45,0,0,1,50,76.79l0-.14V50.76l0-.14a1.45,1.45,0,0,1,1.13-1.13l.14,0H77.18m1.2-11.71H72.76V44H67.67V37.75H62V44H55.73V37.75H50.1v6.39a6.9,6.9,0,0,0-5.42,5.42H37.75v5.62h6.8V61.5h-6.8v5.62h6.8v5.09h-6.8v5.62h6.93a6.9,6.9,0,0,0,5.42,5.42v7h5.62V83.39H62v6.85h5.62V83.39h5.09v6.85h5.62v-7a6.9,6.9,0,0,0,5.42-5.42h6.45V72.22H83.94V67.13h6.31V61.5H83.94V55.19h6.31V49.56H83.8a6.9,6.9,0,0,0-5.42-5.42V37.75Z"/><polygon class="cls-3" points="66.19 52.17 66.19 61.66 71.39 61.66 62.12 74.54 62.12 64.94 56.64 64.94 66.19 52.17"/></g></svg>