<svg width="1413" height="270" xmlns="http://www.w3.org/2000/svg" xmlns:xlink="http://www.w3.org/1999/xlink"><defs><path d="M68.79.39C30.987.39.411 30.97.411 68.782c0 51.293 68.38 127.012 68.38 127.012s68.379-75.719 68.379-127.012C137.17 30.97 106.594.39 68.79.39z" id="a"/></defs><g fill="none" fill-rule="evenodd"><g transform="matrix(-1 0 0 1 1412 -209.386)" opacity=".5" stroke="#094A9F"><path d="M459 516.515C459 469.84 421.168 432 374.5 432S290 469.839 290 516.515h169z"/><ellipse cx="366.5" cy="216.509" rx="49.5" ry="49.509"/><ellipse cx="49.5" cy="294.509" rx="49.5" ry="49.509"/><path d="M17 344.473h151V495.5H17z"/><path d="M2.394 173.755L168 .01V347.5z"/><g transform="translate(167 249)"><ellipse cx="109.938" cy="98.478" rx="40.702" ry="40.709"/><path d="M47.587 186.32L2.678 108.338a19.765 19.765 0 0 1 0-19.722l44.909-77.98A19.663 19.663 0 0 1 64.623.776h89.816a19.663 19.663 0 0 1 17.037 9.86l44.908 77.981a19.765 19.765 0 0 1 0 19.722l-44.908 77.98a19.663 19.663 0 0 1-17.037 9.861H64.623a19.663 19.663 0 0 1-17.036-9.86z"/></g></g><g transform="translate(1 -117)"><path d="M245.025 407.794c0-53.96 43.735-97.702 97.685-97.702s97.685 43.743 97.685 97.702h-195.37z" stroke="#094A9F" opacity=".5"/><g transform="translate(165 192)"><mask id="b" fill="#fff"><use xlink:href="#a"/></mask><use stroke="#094A9F" opacity=".5" fill-rule="nonzero" transform="matrix(-1 0 0 1 137.58 0)" xlink:href="#a"/><path d="M69.197 44.356c-13.262 0-24.014 10.753-24.014 24.018s10.752 24.019 24.014 24.019c8.58 0 16.508-4.578 20.797-12.01a24.022 24.022 0 0 0 0-24.018 24.013 24.013 0 0 0-20.797-12.009z" stroke="#094A9F" opacity=".5" mask="url(#b)" transform="matrix(-1 0 0 1 138.395 0)"/></g><path stroke="#094A9F" opacity=".5" d="M172.944.057L285.338 112.45 172.924 224.866 60.529 112.47zM191.314 332v89.298H102V332z"/><g transform="matrix(-1 0 0 1 393 99)" stroke="#094A9F"><ellipse opacity=".5" cx="65.937" cy="65.949" rx="25.235" ry="25.24"/><path d="M67.78 91.403l31.318 32.139M3.469 86.905L42.118 58.02" opacity=".5" stroke-linecap="square"/><path d="M106.431 14.868L88.124 52.709" opacity=".588" stroke-linecap="square"/><ellipse opacity=".5" cx="65.937" cy="65.949" rx="65.937" ry="65.949"/></g><ellipse stroke="#094A9F" opacity=".5" transform="matrix(-1 0 0 1 165.838 0)" cx="82.919" cy="251.555" rx="82.919" ry="82.934"/></g></g></svg>