<svg version="1.1" id="Layer_1" xmlns="http://www.w3.org/2000/svg" xmlns:xlink="http://www.w3.org/1999/xlink" x="0" y="0" viewBox="0 0 1820.7 456.5" xml:space="preserve"><style/><path d="M1654.5 53.9c-26.4-14.9-53.8-24.6-80-27.5-28.8-3.2-57.8-5-86.7-6.5-39.2-2-78.4-3.3-117.7-4.1-47.2-1.1-94.4-1.5-141.6-1.6-52.8-.1-105.7.3-158.5 1.1-56.1.8-112.2 2.1-168.3 3.9-57 1.8-114 4-171 6.8-55.6 2.7-111.2 6-166.7 9.9-51.8 3.7-103.6 7.9-155.3 13.1-45.7 4.6-91.4 9.9-136.9 16.5-37.3 5.4-74.6 11.6-111.4 20-44.9 10.1-101 21.7-128.7 66.1C7.5 190.3 7.9 242 25.6 283.8c25.7 60.8 79.9 119.3 141.2 135.2 17.7 4.6 36 6.7 54 8.7 53.5 5.9 107.4 8.2 161.2 10.2 75.3 2.8 150.7 4 226.1 4.4 87.8.5 175.7-.1 263.5-1.6 91.2-1.6 182.4-4.1 273.6-7.8 85.5-3.5 170.9-7.9 256.3-14.2 81-5.9 165.6-11.5 247.2-25.4 62.5-10.7 163-17.3 161.3-108.8-1.6-90.6-74-184.8-155.5-230.6z" fill="#5374d4"/><defs><path id="SVGID_1_" d="M286 182.9c-.3-2-2.3-3.4-4.3-3.1-.8.1-1.5.5-2 1l-19.3 19.4-15.2-29c-1-1.8-3.2-2.5-5-1.6-.7.4-1.2.9-1.6 1.6l-8.3 15.8-20.9-38.9c-1-1.8-3.2-2.5-5-1.5-1 .6-1.8 1.6-1.9 2.7l-20.2 129.1 53.9 30.2c3.4 1.9 7.5 1.9 10.9 0l54.4-30.2-15.5-95.5z"/></defs><clipPath id="SVGID_2_"><use xlink:href="#SVGID_1_" overflow="visible"/></clipPath><g clip-path="url(#SVGID_2_)"><path d="M182.2 278.5l20.2-129.1c.3-2 2.2-3.4 4.2-3.1 1.2.2 2.2.9 2.7 1.9l20.9 38.9 8.3-15.8c1-1.8 3.2-2.5 5-1.6.7.4 1.2.9 1.6 1.6l56.3 107.2H182.2z" fill="#ffa000"/><linearGradient id="SVGID_3_" gradientUnits="userSpaceOnUse" x1="205.419" y1="567.843" x2="197.97" y2="563.951" gradientTransform="translate(0 -333.507)"><stop offset="0" stop-color="#a52714"/><stop offset=".4" stop-color="#a52714" stop-opacity=".5"/><stop offset=".8" stop-color="#a52714" stop-opacity="0"/></linearGradient><path d="M251.1 147.2l-98.7-8.4v178.8l29.8-39.1 68.9-131.3z" opacity=".12" fill="url(#SVGID_3_)"/><path d="M251.9 228.3l-21.7-41.1-48 91.4 69.7-50.3z" fill="#f57c00"/><linearGradient id="SVGID_4_" gradientUnits="userSpaceOnUse" x1="237.074" y1="557.011" x2="233.741" y2="553.677" gradientTransform="translate(0 -333.507)"><stop offset="0" stop-color="#a52714" stop-opacity=".8"/><stop offset=".5" stop-color="#a52714" stop-opacity=".21"/><stop offset="1" stop-color="#a52714" stop-opacity="0"/></linearGradient><path d="M152.4 138.9h178.8v178.8H152.4V138.9z" opacity=".2" fill="url(#SVGID_4_)"/><path d="M301.4 278.5L286 182.9c-.3-2-2.3-3.4-4.3-3.1-.8.1-1.5.5-2 1l-97.4 97.6 53.9 30.2c3.4 1.9 7.5 1.9 10.9 0l54.3-30.1z" fill="#ffca28"/><path d="M286 182.9c-.3-2-2.3-3.4-4.3-3.1-.8.1-1.5.5-2 1l-19.3 19.4-15.2-29c-1-1.8-3.2-2.5-5-1.6-.7.4-1.2.9-1.6 1.6l-8.3 15.8-20.9-38.9c-1-1.8-3.2-2.5-5-1.5-1 .6-1.8 1.6-1.9 2.7l-20.2 129.1h-.1l.1.1.5.3 77.5-77.6 19.4-19.4c1.5-1.5 3.8-1.5 5.3 0 .5.6.9 1.3 1 2l15.3 94.7.1-.1-15.4-95.5zm-103.6 95.5l20-128c.3-2 2.2-3.4 4.2-3.1 1.2.2 2.2.9 2.7 1.9l20.9 38.9 8.3-15.8c1-1.8 3.2-2.5 5-1.6.7.4 1.2.9 1.6 1.6l14.9 28.3-77.6 77.8z" fill="#fff" fill-opacity=".2"/><path d="M247 307.9c-3.4 1.9-7.5 1.9-10.9 0l-53.8-30.2-.1.9 53.9 30.2c3.4 1.9 7.5 1.9 10.9 0l54.4-30.2-.1-.9-54.3 30.2z" opacity=".2" fill="#a52714"/><linearGradient id="SVGID_5_" gradientUnits="userSpaceOnUse" x1="178.98" y1="508.645" x2="303.463" y2="633.128" gradientTransform="translate(0 -333.507)"><stop offset="0" stop-color="#fff" stop-opacity=".1"/><stop offset="1" stop-color="#fff" stop-opacity="0"/></linearGradient><path d="M286 182.9c-.3-2-2.3-3.4-4.3-3.1-.8.1-1.5.5-2 1l-19.3 19.4-15.2-29c-1-1.8-3.2-2.5-5-1.6-.7.4-1.2.9-1.6 1.6l-8.3 15.8-20.9-38.9c-1-1.8-3.2-2.5-5-1.5-1 .6-1.8 1.6-1.9 2.7l-20.2 129.1 53.9 30.2c3.4 1.9 7.5 1.9 10.9 0l54.4-30.2-15.5-95.5z" fill="url(#SVGID_5_)"/></g></svg>