<svg width="320" height="240" xmlns="http://www.w3.org/2000/svg" xmlns:xlink="http://www.w3.org/1999/xlink"><defs><path d="M61.187.347C27.56.347.366 27.537.366 61.155c0 45.607 60.82 112.93 60.82 112.93s60.821-67.323 60.821-112.93c0-33.618-27.195-60.808-60.82-60.808z" id="a"/></defs><g fill="none" fill-rule="evenodd"><path d="M-76.406 258.58c0-47.976 38.9-86.869 86.887-86.869 47.986 0 86.886 38.893 86.886 86.87H-76.406z" stroke="#094A9F" opacity=".5"/><g transform="translate(-67.586 -3.288)"><mask id="b" fill="#fff"><use xlink:href="#a"/></mask><use stroke="#094A9F" opacity=".5" fill-rule="nonzero" transform="matrix(-1 0 0 1 122.373 0)" xlink:href="#a"/><path d="M61.549 39.438c-11.797 0-21.36 9.561-21.36 21.356 0 11.794 9.563 21.355 21.36 21.355A21.36 21.36 0 0 0 80.047 71.47a21.352 21.352 0 0 0 0-21.355 21.36 21.36 0 0 0-18.498-10.678z" stroke="#094A9F" opacity=".5" mask="url(#b)" transform="matrix(-1 0 0 1 123.097 0)"/></g><g opacity=".5" stroke="#094A9F"><path d="M350.582-36.48l-82.763 95.206 95.188 82.746 82.762-95.207z"/><g transform="matrix(-1 0 0 1 434.09 117.01)"><ellipse cx="97.786" cy="87.559" rx="36.203" ry="36.196"/><path d="M42.327 165.661L2.382 96.327a17.568 17.568 0 0 1 0-17.535L42.327 9.457A17.49 17.49 0 0 1 57.48.69h79.888a17.49 17.49 0 0 1 15.153 8.767l39.944 69.335a17.568 17.568 0 0 1 0 17.535l-39.944 69.334a17.49 17.49 0 0 1-15.153 8.768H57.48a17.49 17.49 0 0 1-15.153-8.768z"/></g></g></g></svg>