<svg xmlns="http://www.w3.org/2000/svg" xmlns:xlink="http://www.w3.org/1999/xlink" viewBox="0 0 840 472.5"><defs><style>.cls-1,.cls-11,.cls-20,.cls-28,.cls-5,.cls-7{fill:none;}.cls-2{fill:#f7f8f9;}.cls-3{fill:#e8f0fe;}.cls-4{fill:#2484fb;}.cls-5{stroke:#d2e3fc;fill-rule:evenodd;}.cls-11,.cls-20,.cls-28,.cls-5,.cls-7{stroke-linecap:round;stroke-linejoin:round;stroke-width:2.4px;}.cls-6{fill:#fce8e6;}.cls-7{stroke:#fad2cf;}.cls-8{fill:#b30000;}.cls-9{fill:#fd2b25;}.cls-10{fill:#e6f4ea;}.cls-11{stroke:#ceead6;}.cls-12{fill:#f8f9fa;}.cls-13{fill:#34a853;}.cls-14{fill:#81c995;}.cls-15{fill:#fef7e0;}.cls-16{clip-path:url(#clip-path);}.cls-17{fill:#ffa700;}.cls-18{fill:#ffd448;}.cls-19{fill:#f98000;}.cls-20{stroke:#fde293;}.cls-21{fill:#4285f4;}.cls-22{fill:#3362b5;}.cls-23,.cls-31{fill:#fff;}.cls-24{clip-path:url(#clip-path-2);}.cls-25{clip-path:url(#clip-path-3);}.cls-26{fill:#d2e3fc;}.cls-27{fill:#aecbfa;}.cls-28{stroke:#dadce0;}.cls-29{fill:#fbbc04;}.cls-30{fill:#ea4335;}.cls-31{stroke:#eff1f2;stroke-miterlimit:10;stroke-width:1.64px;}.cls-32{fill:#e9b900;}.cls-33{fill:#d62b1c;}.cls-34{fill:#5580fd;}.cls-35{fill:#64aa3d;}.cls-36{fill:#e8eaed;}</style><clipPath id="clip-path"><path class="cls-1" d="M81.42,194.09l115.17,29.15c3.36.85,3.85,6.15.79,8.48l-10.56,8L170,281.54c-1.77,4.41-6.53,5.89-9.43,2.93l-13.89-14.18-16,12.19c-4,3.06-9.1,2-11.5-2.34l-42.8-77.86C74.24,198.43,77.54,193.11,81.42,194.09Z"/></clipPath><clipPath id="clip-path-2"><circle class="cls-1" cx="179.86" cy="379.91" r="18.5"/></clipPath><clipPath id="clip-path-3"><rect class="cls-1" x="230.4" y="329.94" width="365.44" height="93.29"/></clipPath></defs><g id="_04" data-name="04"><path class="cls-2" d="M386.16,305.53H447a0,0,0,0,1,0,0V424a0,0,0,0,1,0,0H281.1a0,0,0,0,1,0,0V410.59A105.06,105.06,0,0,1,386.16,305.53Z"/><circle class="cls-2" cx="379.81" cy="288.95" r="81.07"/><path class="cls-2" d="M612.06,424a109.25,109.25,0,1,0-198.63,0Z"/><path class="cls-2" d="M250.15,424H324.8a68.71,68.71,0,1,0-74.65,0Z"/><rect class="cls-3" x="432.79" y="200.75" width="148.12" height="148.12" rx="74.06"/><path class="cls-4" d="M433.51,259.1a40.95,40.95,0,0,1,0-11.56l-12.45-9.74a3,3,0,0,1-.71-3.78l11.81-20.41a3,3,0,0,1,3.59-1.3l14.7,5.9a42.73,42.73,0,0,1,10-5.78l2.24-15.64a2.89,2.89,0,0,1,2.89-2.48h23.6a2.87,2.87,0,0,1,2.89,2.48l2.25,15.64a45.18,45.18,0,0,1,10,5.78l14.69-5.9a2.88,2.88,0,0,1,3.6,1.3L534.35,234a2.91,2.91,0,0,1-.71,3.78l-12.45,9.74a40,40,0,0,1,0,11.56l12.45,9.74a3,3,0,0,1,.71,3.77L522.55,293a3,3,0,0,1-3.6,1.3l-14.69-5.9a43.29,43.29,0,0,1-10,5.78L492,309.85a2.87,2.87,0,0,1-2.89,2.47h-23.6a2.88,2.88,0,0,1-2.89-2.47l-2.24-15.64a45.35,45.35,0,0,1-10-5.78l-14.7,5.9a2.87,2.87,0,0,1-3.59-1.3l-11.81-20.42a3,3,0,0,1,.71-3.77ZM477.35,274a20.65,20.65,0,1,0-20.65-20.65A20.67,20.67,0,0,0,477.35,274Z"/><path class="cls-5" d="M579.17,320.91l-4.54-18.5a2.3,2.3,0,0,0-1.58-1.64l-18.3-5.31a2.27,2.27,0,0,0-2.21.54l-13.75,13.19a2.29,2.29,0,0,0-.64,2.19l4.55,18.5a2.31,2.31,0,0,0,1.58,1.65l18.3,5.31a2.28,2.28,0,0,0,2.21-.55l13.75-13.19A2.26,2.26,0,0,0,579.17,320.91Z"/><rect class="cls-6" x="254.1" y="93.76" width="148.12" height="148.12" rx="74.06"/><path class="cls-7" d="M399.35,183.44H297.24a6.31,6.31,0,0,0-6.31,6.31h0a6.31,6.31,0,0,0,6.31,6.3h63.31a8.92,8.92,0,0,1,8.92,8.93h0a8.92,8.92,0,0,1-8.92,8.92H328.14"/><circle class="cls-8" cx="328.16" cy="126.38" r="19.23"/><path id="SVGID" class="cls-9" d="M328.16,78.9a47.51,47.51,0,0,0-47.52,47.52c0,28.85,18.71,40.13,34.68,64.83,9.62,14.94,6.74,23.87,12.84,23.87s3.46-8.93,13.11-23.85c15.94-24.72,34.41-36,34.41-64.85A47.51,47.51,0,0,0,328.16,78.9Zm0,65.63a18.16,18.16,0,1,1,18.15-18.15A18.16,18.16,0,0,1,328.16,144.53Z"/><rect class="cls-10" x="595.84" y="121.7" width="148.12" height="148.12" rx="74.06"/><circle class="cls-11" cx="702.13" cy="168.85" r="13.55"/><path class="cls-12" d="M715,201.45c-17.2-22.47-22.32-33.08-29-55.38-1.16-3.87-3.15-6.4-6.32-3.69-3.48,3-8.66,6.59-18.3,12.18-7.58,4.4-22.71,8.14-22.77,11,.32,6.08,4.12,13.82,9.48,24.79a.84.84,0,0,1-1.35,1c-6.23-6.36-9.41-12-15.38-21.08-1.53-2.53-10.85,7.09-10.85,7.09,5.92,22.34,15.75,39.41,33.87,65.37C660.53,251.47,722.79,211.62,715,201.45Z"/><path class="cls-13" d="M669.7,197.55c6.19-1.79,4.25,13.28,12.08,13.28,6.07,0,5.68-14.06,7-19.7,2.06-9.14,15.35-4.86,8.9-17a154.77,154.77,0,0,1-11.64-28c-1.16-3.87-3.15-6.4-6.32-3.69-3.48,3-8.66,6.59-18.3,12.18-7.58,4.4-22.71,8.14-22.77,11,.32,6.08,4.12,13.82,9.47,24.78a.83.83,0,0,1-1.34.95c-6.23-6.36-9.41-12-15.38-21.07-1.53-2.53-10.85,7.09-10.85,7.09,2.28,12,7.54,25.16,15.54,39a5.11,5.11,0,0,0,7.54,1.49c6.55-5,11.91-1.11,18.15-5.1C669.91,207.39,663.84,199.25,669.7,197.55Z"/><path class="cls-14" d="M654,237.85,710,196.52a1.29,1.29,0,0,1,1.8.27l7.63,10.32a12.54,12.54,0,0,1-2.64,17.55h0a12.55,12.55,0,0,0-1.1,19.27L731,258.28a15.81,15.81,0,0,1-1.4,24.28h0a15.81,15.81,0,0,1-23.62-5.8l-9.2-18.9a12.55,12.55,0,0,0-18.74-4.61h0a12.55,12.55,0,0,1-17.55-2.63l-7-9.45A2.38,2.38,0,0,1,654,237.85Z"/><rect class="cls-15" x="85.1" y="179.26" width="148.12" height="148.12" rx="74.06"/><g class="cls-16"><polygon class="cls-17" points="186.82 239.75 166.42 290.44 78.64 200.84 186.82 239.75"/><polygon class="cls-18" points="205.54 225.51 70.31 191.28 123.46 287.96 205.54 225.51"/><path class="cls-17" d="M173.79,249.67,70.31,191.28l116.51,48.47Z"/><polygon class="cls-19" points="173.78 249.67 166.42 290.44 146.68 270.29 173.78 249.67"/></g><path class="cls-20" d="M176.43,288.65c5.79,7.78,28.69,13.1,34.48,4.66,7.42-10.83-4.2-19.95-11.24-8.32-6.28,10.39-.63,23.29,9.36,27.89"/><path class="cls-21" d="M207.43,354.67l-27.88-8.09-27.25,8.09v23.12c0,10.47,7,32.07,27.25,40.79C200.8,410,207,387.83,207.43,377.79Z"/><circle class="cls-22" cx="179.86" cy="379.91" r="18.5"/><circle class="cls-23" cx="179.78" cy="373.51" r="7.2"/><g class="cls-24"><ellipse class="cls-23" cx="179.78" cy="394.45" rx="16.26" ry="10.3"/></g><g class="cls-25"><path class="cls-26" d="M420.69,383.14c-44.32-54.32-138.59-34.41-168.44-12.93L302.56,404S436.56,402.59,420.69,383.14Z"/><path class="cls-27" d="M270.42,421.65l139.41,24.22V390.24a19.51,19.51,0,0,0-19.39-19.51l-84-.52Z"/><path class="cls-27" d="M571,422,431.23,445.87V397.7a27,27,0,0,1,26.85-27l76.51-.48Z"/><path class="cls-23" d="M570.63,421.94c-.26-.27-43.26-43.35-79.36-45.58-19.79-1.22-38.3,4.35-49.51,14.9-5.22,4.9-8.09,10.29-8.09,15.18H407.09c0-12.3,5.84-16.77,16.46-26.75C440,364.21,465.94,356,492.9,357.63c46.54,2.87,89.68,47.2,91.12,48.68Z"/><path class="cls-23" d="M270.42,421.65l-10.27-15.13c1.45-1.47,41.17-46,87.71-48.89,27-1.67,52.89,6.58,69.35,22.06,10.62,10,16.46,14.45,16.46,26.75H407.09c0-4.89-2.87-10.28-8.09-15.18-11.21-10.55-29.72-16.12-49.5-14.9C313.39,378.59,270.7,421.36,270.42,421.65Z"/><polygon class="cls-21" points="431.23 445.88 409.83 445.88 407.09 406.44 433.67 406.44 431.23 445.88"/></g><line class="cls-28" x1="421.1" y1="85.77" x2="422.85" y2="155.3"/><path class="cls-29" d="M813.75,276.55h0a1.21,1.21,0,0,0,.57-1.2l-.41-3.16a7.48,7.48,0,0,1,1.18-5.08l1.77-2.64a1.27,1.27,0,0,0,0-1.34h0a1.25,1.25,0,0,0-1.21-.57l-3.15.42a7.42,7.42,0,0,1-5.08-1.19L804.79,260a1.21,1.21,0,0,0-1.33,0h0a1.21,1.21,0,0,0-.57,1.2l.41,3.16a7.48,7.48,0,0,1-1.18,5.08l-1.77,2.65a1.25,1.25,0,0,0,0,1.33h0a1.25,1.25,0,0,0,1.21.57l3.15-.41a7.36,7.36,0,0,1,5.08,1.18l2.65,1.76A1.21,1.21,0,0,0,813.75,276.55Z"/><path class="cls-21" d="M431.58,54.37h0a1.47,1.47,0,0,0-.9-1.31l-3.5-1.46a8.87,8.87,0,0,1-4.52-4.27L421,43.93a1.49,1.49,0,0,0-1.36-.82h0a1.47,1.47,0,0,0-1.31.9l-1.46,3.5A8.87,8.87,0,0,1,412.59,52l-3.4,1.67a1.5,1.5,0,0,0-.82,1.36h0a1.47,1.47,0,0,0,.9,1.31l3.5,1.47a8.82,8.82,0,0,1,4.52,4.26L419,65.5a1.47,1.47,0,0,0,1.36.82h0a1.47,1.47,0,0,0,1.31-.9l1.47-3.5a8.82,8.82,0,0,1,4.26-4.52l3.4-1.67A1.46,1.46,0,0,0,431.58,54.37Z"/><path class="cls-30" d="M64.43,342.78h0a1.21,1.21,0,0,0,1.22-.47l1.83-2.51a7.23,7.23,0,0,1,4.25-2.8l3-.69a1.2,1.2,0,0,0,.91-.93h0a1.21,1.21,0,0,0-.47-1.22l-2.51-1.83a7.23,7.23,0,0,1-2.8-4.25l-.69-3a1.19,1.19,0,0,0-.93-.91h0a1.18,1.18,0,0,0-1.21.47l-1.83,2.51a7.28,7.28,0,0,1-4.26,2.8l-3,.69a1.19,1.19,0,0,0-.91.93h0a1.18,1.18,0,0,0,.47,1.21L60,334.58a7.28,7.28,0,0,1,2.8,4.26l.69,3A1.22,1.22,0,0,0,64.43,342.78Z"/><circle class="cls-29" cx="30.4" cy="294.51" r="5.56"/><circle class="cls-13" cx="787.24" cy="324.38" r="5.56"/><line class="cls-28" x1="93.85" y1="338.16" x2="143.49" y2="343.59"/><path class="cls-13" d="M332.69,283.86h0a1.08,1.08,0,0,0,1,.54l2.79-.27a6.56,6.56,0,0,1,4.44,1.19l2.28,1.63a1.08,1.08,0,0,0,1.17.06h0A1.09,1.09,0,0,0,345,286l-.27-2.79a6.58,6.58,0,0,1,1.19-4.44l1.63-2.28a1.08,1.08,0,0,0,.06-1.17h0a1.08,1.08,0,0,0-1-.54l-2.79.27a6.55,6.55,0,0,1-4.44-1.19L337,272.19a1.1,1.1,0,0,0-1.18-.06h0a1.06,1.06,0,0,0-.53,1.05l.27,2.79a6.58,6.58,0,0,1-1.2,4.44l-1.63,2.28A1.08,1.08,0,0,0,332.69,283.86Z"/><line class="cls-28" x1="350.91" y1="297.6" x2="379.81" y2="338.32"/><line class="cls-28" x1="699.76" y1="336.08" x2="784.44" y2="282.93"/><line class="cls-28" x1="736.03" y1="343.8" x2="774.21" y2="329.31"/><circle class="cls-13" cx="532.53" cy="121.44" r="5.56"/><line class="cls-28" x1="514.55" y1="173.18" x2="527.94" y2="134.6"/><circle class="cls-29" cx="400.99" cy="312.46" r="5.56"/><line class="cls-28" x1="412.17" y1="352.53" x2="404.4" y2="325.29"/><line class="cls-28" x1="126.55" y1="328.8" x2="45.86" y2="299.59"/><ellipse class="cls-31" cx="638.24" cy="390.37" rx="29.84" ry="29.84"/><path class="cls-32" d="M626.42,390.38a12.29,12.29,0,0,1,.63-3.89l-6.76-5.3a20.5,20.5,0,0,0,0,18.38l6.75-5.31A12.23,12.23,0,0,1,626.42,390.38Z"/><path class="cls-33" d="M627.07,386.42a12.34,12.34,0,0,1,11.57-8.49,11.22,11.22,0,0,1,7.92,3.08l5.82-5.8a19.69,19.69,0,0,0-13.74-5.33,20.52,20.52,0,0,0-18.34,11.3h0l6.76,5.3S627.06,386.44,627.07,386.42Z"/><path class="cls-34" d="M658.37,390.82a23.92,23.92,0,0,0-.36-4.12H638.65v7.87H649.8a9.56,9.56,0,0,1-4.1,6.24l-.05,0,6.62,5.07h0C656.15,402.34,658.38,397.06,658.37,390.82Z"/><path class="cls-35" d="M638.66,402.81a12.32,12.32,0,0,1-11.58-8.47l0-.08-6.75,5.31v0a20.52,20.52,0,0,0,18.36,11.27,19.7,19.7,0,0,0,13.6-4.94l-6.62-5.07A12.39,12.39,0,0,1,638.66,402.81Z"/><rect class="cls-36" x="30.38" y="421.58" width="780" height="2.4" rx="1.2"/></g></svg>