<?xml version="1.0" encoding="UTF-8" standalone="no"?>
<svg width="26px" height="26px" viewBox="0 0 26 26" version="1.1" xmlns="http://www.w3.org/2000/svg" xmlns:xlink="http://www.w3.org/1999/xlink">
    <!-- Generator: Sketch 39.1 (31720) - http://www.bohemiancoding.com/sketch -->
    <title>iam copy</title>
    <desc>Created with Sketch.</desc>
    <defs></defs>
    <g id="Page-1" stroke="none" stroke-width="1" fill="none" fill-rule="evenodd">
        <g id="Layer_1-Copy-13" transform="translate(4.000000, 2.000000)" fill="#FFFFFF">
            <path d="M9,0.0166778149 L0.346153846,3.93694537 L0.346153846,9.83500557 C0.346153846,15.2739353 4.05,20.3596878 9,21.5958082 C13.95,20.3596878 17.6538462,15.2739353 17.6538462,9.83500557 L17.6538462,3.93694537 L9,0.0166778149 L9,0.0166778149 Z M9,4.18416945 C10.5230769,4.18416945 11.7692308,5.45560758 11.7692308,7.00958751 C11.7692308,8.56356745 10.5230769,9.83500557 9,9.83500557 C7.47692308,9.83500557 6.23076923,8.56356745 6.23076923,7.00958751 C6.23076923,5.45560758 7.47692308,4.18416945 9,4.18416945 L9,4.18416945 Z M14.1923077,15.8743367 C14.1923077,15.9449721 14.1576923,16.0156076 14.1230769,16.086243 C14.0538462,16.1921962 13.9846154,16.2628317 13.9153846,16.3687848 C12.6346154,18.1346711 10.8692308,19.4061093 8.96538462,19.9711929 C7.06153846,19.4061093 5.33076923,18.1346711 4.01538462,16.3687848 C3.94615385,16.2628317 3.87692308,16.1921962 3.80769231,16.086243 C3.77307692,16.0156076 3.73846154,15.9449721 3.73846154,15.8743367 L3.73846154,14.3203567 C3.73846154,12.1659755 7.2,11.071126 8.93076923,11.071126 C10.6615385,11.071126 14.1230769,12.1659755 14.1230769,14.3203567 L14.1230769,15.8743367 L14.1923077,15.8743367 Z" id="Shape"></path>
        </g>
    </g>
</svg>