<?xml version="1.0" encoding="UTF-8"?>
<svg width="32px" height="17px" viewBox="0 0 32 17" version="1.1" xmlns="http://www.w3.org/2000/svg" xmlns:xlink="http://www.w3.org/1999/xlink">
    <!-- Generator: Sketch 42 (36781) - http://www.bohemiancoding.com/sketch -->
    <title>IAP_white</title>
    <desc>Created with Sketch.</desc>
    <defs></defs>
    <g id="Page-1" stroke="none" stroke-width="1" fill="none" fill-rule="evenodd">
        <g id="Product_IAP" transform="translate(-181.000000, -264.000000)" fill-rule="nonzero" fill="#FFFFFF">
            <g id="hero-content" transform="translate(169.000000, 140.000000)">
                <g id="CTA" transform="translate(1.000000, 108.000000)">
                    <g id="IAP_white" transform="translate(11.000000, 16.000000)">
                        <path d="M15.8156952,16.6849524 C12.5258425,16.6851373 9.55982703,14.7035201 8.30072677,11.6641455 C7.0416265,8.62477098 7.73740625,5.12620771 10.0636181,2.79986515 C12.3898299,0.473522582 15.888354,-0.222453797 18.9277994,1.03647564 C21.9672447,2.29540507 23.9490286,5.26130915 23.9490286,8.5511619 C23.9437391,13.0409591 20.3054921,16.6794106 15.8156952,16.6849524 Z M15.8156952,2.2072381 C13.2497829,2.20708401 10.9364412,3.75263373 9.95440227,6.12318339 C8.97236336,8.49373305 9.51502852,11.2224303 11.3293481,13.0368587 C13.1436676,14.8512872 15.8723322,15.3941163 18.2429408,14.4122197 C20.6135495,13.4303232 22.1592381,11.1170742 22.1592381,8.5511619 C22.1552497,5.04931159 19.3175453,2.21143675 15.8156952,2.2072381 Z" id="Shape"></path>
                        <path d="M12.2361905,12.1003429 C12.2361905,11.552381 12.2195048,11.0184381 12.2411429,10.4869333 C12.2736836,10.0671011 12.4893114,9.68285562 12.8307048,9.43634286 C13.2531982,9.09611181 13.7386546,8.84256118 14.2592762,8.69020952 C15.6467289,8.22066388 17.1713151,8.39450403 18.4174476,9.16434286 C18.5831923,9.26285812 18.7376827,9.37917941 18.8781714,9.5112381 C19.2459932,9.83247803 19.4390313,10.3095569 19.3980952,10.7961905 C19.3768381,11.2248381 19.3938286,11.6562286 19.3938286,12.1006476 L12.2361905,12.1003429 Z" id="Shape"></path>
                        <path d="M15.8090667,7.62575238 C15.0605307,7.62451385 14.3867244,7.17170472 14.102793,6.47910772 C13.8188615,5.78651073 13.9809302,4.99103308 14.513198,4.46472653 C15.0454659,3.93841998 15.8427184,3.78532073 16.5320737,4.07703463 C17.221429,4.36874852 17.6666206,5.04761181 17.6594286,5.79611429 C17.6484433,6.81009553 16.8231073,7.62618781 15.8090667,7.62575238 Z" id="Shape"></path>
                        <rect id="Rectangle-path" x="26.0940952" y="7.56944762" width="4.59108571" height="1.4375619"></rect>
                        <polygon id="Shape" points="28.3946667 10.2377143 30.3451429 8.288 28.3946667 6.33828571 30.0502857 6.33828571 32 8.288 30.0502857 10.2377143"></polygon>
                        <path d="M25.4028952,3.31177143 L28.6376381,0.076952381" id="Shape"></path>
                        <rect id="Rectangle-path" transform="translate(26.555430, 2.159110) rotate(-45.000000) translate(-26.555430, -2.159110) " x="24.925373" y="1.44032907" width="3.26011429" height="1.4375619"></rect>
                        <polygon id="Shape" points="27.4666667 4.00533333 27.4674286 1.2472381 24.7093333 1.248 25.880381 0.076952381 28.6377143 0.076952381 28.6377143 2.83428571"></polygon>
                        <path d="M25.4028952,13.4400762 L28.6375619,16.6747429" id="Shape"></path>
                        <rect id="Rectangle-path" transform="translate(26.555515, 14.592588) rotate(-45.000000) translate(-26.555515, -14.592588) " x="25.8367337" y="12.9624168" width="1.4375619" height="3.26034286"></rect>
                        <polygon id="Shape" points="24.7093333 15.504 27.4674286 15.5047619 27.4666667 12.7466667 28.6377143 13.9169524 28.6377143 16.6750476 25.880381 16.6750476"></polygon>
                        <path d="M2.26369524,10.6394667 C1.01349088,10.6394667 1.53105877e-16,9.62597579 0,8.37577143 C-1.53105877e-16,7.12556707 1.01349088,6.11207619 2.26369524,6.11207619 C3.5138996,6.11207619 4.52739048,7.12556707 4.52739048,8.37577143 C4.52592103,9.62536662 3.51329043,10.6379972 2.26369524,10.6394667 L2.26369524,10.6394667 Z M2.26369524,7.1184 C1.56939441,7.1184 1.00655238,7.68124203 1.00655238,8.37554286 C1.00655238,9.06984369 1.56939441,9.63268571 2.26369524,9.63268571 C2.95799607,9.63268571 3.5208381,9.06984369 3.5208381,8.37554286 C3.52008233,7.68154298 2.95769507,7.11912163 2.26369524,7.11832381 L2.26369524,7.1184 Z" id="Shape"></path>
                    </g>
                </g>
            </g>
        </g>
    </g>
</svg>