<?xml version="1.0" encoding="UTF-8"?>
<svg width="128px" height="114px" viewBox="0 0 128 114" version="1.1" xmlns="http://www.w3.org/2000/svg" xmlns:xlink="http://www.w3.org/1999/xlink">
    <!-- Generator: Sketch 42 (36781) - http://www.bohemiancoding.com/sketch -->
    <title>IAP</title>
    <desc>Created with Sketch.</desc>
    <defs>
        <path d="M28.7908,108.2166 L2.54,62.7494 C0.485901491,59.191597 0.485901491,54.808203 2.54,51.2504 L28.79,5.7832 C30.8439668,2.22521265 34.6401092,0.0333124623 38.7484,0.0332 L91.25,0.0332 C95.3582908,0.0333124623 99.1544332,2.22521265 101.2084,5.7832 L127.4591,51.25 C129.513199,54.807803 129.513199,59.191197 127.4591,62.749 L101.2086,108.2162 C99.1546332,111.774187 95.3584908,113.966088 91.2502,113.9662 L38.7492,113.9662 C34.6409917,113.96617 30.8448684,111.774433 28.7908,108.2166 L28.7908,108.2166 Z" id="path-1"></path>
    </defs>
    <g id="Page-1" stroke="none" stroke-width="1" fill="none" fill-rule="evenodd">
        <g id="Product-Logos" transform="translate(-510.000000, -170.000000)">
            <g id="IAP" transform="translate(509.000000, 170.000000)">
                <g id="IAP-128px">
                    <path d="M28.7906,108.2166 L2.54,62.7493 C0.485880864,59.1915025 0.485880864,54.8080975 2.54,51.2503 L28.7906,5.7831 C30.8447419,2.22530436 34.6408876,0.0336148576 38.7491,0.0336 L91.25,0.0336 C95.3582179,0.0335942312 99.1543732,2.22528926 101.2085,5.7831 L127.4594,51.25 C129.513499,54.807803 129.513499,59.191197 127.4594,62.749 L101.2088,108.2163 C99.1546732,111.774111 95.3585179,113.965806 91.2503,113.9658 L38.7491,113.9658 C34.6409495,113.965847 30.8448181,111.77428 28.7906,108.2166 L28.7906,108.2166 Z" id="Shape" fill="#4285F4" fill-rule="nonzero"></path>
                    <g id="Clipped">
                        <mask id="mask-2" fill="white">
                            <use xlink:href="#path-1"></use>
                        </mask>
                        <g id="Shape"></g>
                        <g id="Group" mask="url(#mask-2)" fill-rule="nonzero" fill="#000000" opacity="0.07">
                            <g transform="translate(20.000000, 39.000000)" id="Shape">
                                <path d="M9.96,21.2858 L71.0919,82.4179 L128.8419,82.4179 L125.6775,55.7936 L70.5811,0.7721 L69.4821,0.8394 L63.8308,6.4907 L74.708,17.3678 L65.2246,17.8109 L52.8082,5.3947 L52.0555,5.5981 L52.5669,5.7563 L58.6979,15.7769 L56.8288,23.3963 L45.5811,12.1487 L38.9747,14.8706 L44.3447,20.2406 L47.1213,23.0171 L34.3592,26.3785 L41.562,33.5813 L34.712,32.3242 L26.7309,26.2566 L15.56,14.03 L16.1784,18.3384 C16.1784,18.3384 14.63,23.6875 9.96,21.2858"></path>
                                <path d="M1.2728,18.1573 L0.6107,18.1573 L1.4086,18.9552 C1.32944861,18.6961231 1.28381054,18.4279742 1.2728,18.1573 Z"></path>
                            </g>
                        </g>
                    </g>
                    <path d="M62.3652,39.4829 C52.4778347,39.4832314 44.4627791,47.4987347 44.463,57.3861 C44.4632209,67.2734653 52.4786347,75.2886104 62.366,75.2885 C72.2533653,75.2883895 80.2686,67.2730653 80.2686,57.3857 C80.2574123,47.5026602 72.2482402,39.4937565 62.3652,39.4829 L62.3652,39.4829 Z M62.3652,71.3491 C54.6534922,71.3488239 48.4021159,65.0970745 48.4023,57.3853667 C48.4024841,49.6736589 54.6541589,43.422208 62.3658667,43.4223 C70.0775744,43.4223921 76.3291,49.6739922 76.3291,57.3857 C76.3204472,65.0940811 70.0735814,71.3407232 62.3652,71.3491 L62.3652,71.3491 Z" id="Shape" fill="#FFFFFF" fill-rule="nonzero"></path>
                    <path d="M69.1069,59.499 C68.7977127,59.2083329 68.4576956,58.9523141 68.0929,58.7355 C65.350176,57.0409802 61.9944992,56.6583417 58.9407,57.6919 C57.7948115,58.0272657 56.726321,58.5853492 55.7964,59.3342 C55.0450252,59.8767638 54.5704701,60.7224777 54.4989,61.6465 C54.4513,62.8165 54.488,63.9915 54.488,65.1976 L70.2418,65.1976 C70.2418,64.2195 70.2044,63.2699 70.2511,62.3265 C70.3410139,61.2556767 69.9162159,60.2059334 69.1069,59.499 L69.1069,59.499 Z" id="Shape" fill="#FFFFFF" fill-rule="nonzero"></path>
                    <path d="M62.3516,55.3488 C64.5949184,55.3605044 66.4238754,53.5531492 66.4388241,51.3098501 C66.4537728,49.066551 64.6490645,47.2349821 62.4057894,47.2167891 C60.1625143,47.198596 58.3283373,49.0006535 58.3069,51.2439 C58.295277,52.3256866 58.7157471,53.367402 59.4750584,54.1380146 C60.2343696,54.9086272 61.2697598,55.3444405 62.3516,55.3488 L62.3516,55.3488 Z" id="Shape" fill="#FFFFFF" fill-rule="nonzero"></path>
                    <polygon id="Shape" fill="#FFFFFF" fill-rule="nonzero" points="93.697 52.515 90.052 52.515 92.763 55.225 84.989 55.225 84.989 58.389 92.764 58.389 90.052 61.099 93.697 61.099 97.988 56.807"></polygon>
                    <polygon id="Shape" fill="#FFFFFF" fill-rule="nonzero" points="82.349 44.735 84.587 46.972 88.012 43.547 88.011 47.38 90.588 44.803 90.588 38.734 84.518 38.734 81.941 41.311 85.774 41.31"></polygon>
                    <polygon id="Shape" fill="#FFFFFF" fill-rule="nonzero" points="88.012 70.453 84.587 67.028 82.349 69.265 85.774 72.69 81.941 72.689 84.518 75.266 90.587 75.266 90.587 69.196 88.011 66.62"></polygon>
                    <path d="M32.5381,52.2534 C29.9166903,52.2536761 27.7918159,54.3789236 27.792,57.0003333 C27.7921841,59.621743 29.9173569,61.746692 32.5387666,61.7466 C35.1601764,61.7465079 37.2852,59.6214097 37.2852,57 C37.2823886,54.3794954 35.1586049,52.2559353 32.5381,52.2534 L32.5381,52.2534 Z M32.5381,59.6372 C31.0816798,59.6369239 29.9012159,58.456087 29.9014,56.9996667 C29.9015841,55.5432465 31.0823464,54.362708 32.5387666,54.3628001 C33.9951869,54.3628921 35.1758,55.5435798 35.1758,57 C35.1742563,58.4560406 33.9941409,59.6359323 32.5381,59.6372 L32.5381,59.6372 Z" id="Shape" fill="#FFFFFF" fill-rule="nonzero"></path>
                </g>
            </g>
        </g>
    </g>
</svg>
