<svg id="logo_x5F_meet_x5F_192px_x5F_clr" xmlns="http://www.w3.org/2000/svg" xmlns:xlink="http://www.w3.org/1999/xlink" viewBox="0 0 24 24"><style>.st0{clip-path:url(#SVGID_2_)}.st1{fill:#00897b}.st2{opacity:.2}.st3{fill:#263238}.st4{opacity:.2;fill:#fff;enable-background:new}.st5{clip-path:url(#SVGID_4_);fill:url(#SVGID_5_)}.st6{fill:#e0e0e0}.st7{fill:#f5f5f5}.st10,.st8,.st9{enable-background:new}.st8,.st9{opacity:.2;fill:#263238}.st9{opacity:.1;fill:#212121}.st10{opacity:.4;fill:#fff}.st11{fill:url(#SVGID_6_)}</style><defs><path id="SVGID_1_" d="M0 0h24v24H0z"/></defs><clipPath id="SVGID_2_"><use xlink:href="#SVGID_1_" overflow="visible"/></clipPath><g class="st0"><path class="st1" d="M21.5 10.5C21.5 5.3 17.2 1 12 1s-9.5 4.3-9.5 9.5c0 5 4.5 9 9.5 9V23c5.8-2.9 9.5-7.6 9.5-12.5z"/><g class="st2"><path class="st3" d="M12 19.4c-4.9 0-9.5-4-9.5-8.9v.1c0 5 4.5 9 9.5 9v-.2zm0 3.5v.1c5.8-2.9 9.5-7.6 9.5-12.5v-.1c0 4.9-3.8 9.6-9.5 12.5z"/></g><path class="st4" d="M12 1.1c5.2 0 9.5 4.2 9.5 9.4v-.1C21.5 5.3 17.2 1 12 1s-9.5 4.3-9.5 9.5v.1c0-5.3 4.3-9.5 9.5-9.5z"/><defs><path id="SVGID_3_" d="M21.5 10.5C21.5 5.3 17.2 1 12 1s-9.5 4.3-9.5 9.5c0 5 4.5 9 9.5 9V23c5.8-2.9 9.5-7.6 9.5-12.5z"/></defs><clipPath id="SVGID_4_"><use xlink:href="#SVGID_3_" overflow="visible"/></clipPath><linearGradient id="SVGID_5_" gradientUnits="userSpaceOnUse" x1="989.281" y1="-702.271" x2="1071.255" y2="-784.245" gradientTransform="matrix(.125 0 0 -.125 -114.625 -79.875)"><stop offset="0" stop-color="#263238" stop-opacity=".2"/><stop offset="1" stop-color="#263238" stop-opacity=".02"/></linearGradient><path class="st5" d="M17.2 12.3l-6.7-6.7-.8 3.9.6 3.5 7.1 7.1 3.8-3.8z"/><image width="442" height="438" xlink:href="18988E9D066C421F.png" transform="translate(6.24 4.559) scale(.02946)" overflow="visible" opacity=".2"/><path class="st6" d="M13.3 14.2V13c-1.5-.8-2.7-2-3.5-3.5H8.5v1.2c.8 1.5 2.1 2.7 3.5 3.5h1.3z"/><path class="st7" d="M16.9 12.2l-2.1-.3c-.2 0-.3 0-.4.1l-2.3 2.3c1.4.8 3 1.3 4.8 1.3.2 0 .4-.2.4-.4v-2.5c-.1-.4-.2-.5-.4-.5zm-6.3-6.3c.1.7.2 1.5.4 2.1 0 .2 0 .3-.1.4l-2.3 2.3c-.9-1.4-1.4-3-1.4-4.8 0-.2.2-.4.4-.4h2.5c.3 0 .5.1.5.4z"/><path class="st8" d="M9.7 9.5c.1 0 .1.1 0 0l1.1-1c.1-.1.1-.2.1-.4 0 .1 0 .2-.1.2L9.7 9.5z"/><path class="st8" d="M16.8 15.5c-1.7 0-3.4-.5-4.8-1.3-1.5-.8-2.7-2.1-3.5-3.5-.8-1.4-1.2-3-1.2-4.7 0 1.7.5 3.4 1.3 4.8.8 1.5 2.1 2.7 3.5 3.5 1.4.8 3 1.3 4.8 1.3.2 0 .4-.2.4-.4v-.1c-.1.2-.2.4-.5.4z"/><path class="st9" d="M9.8 9.6s0-.1 0 0l-1.3 1.1v.1l1.3-1.2z"/><path class="st10" d="M7.7 5.6h2.5c.2 0 .3.1.4.4.1.7.2 1.5.4 2.1V8c-.1-.6-.3-1.4-.4-2.1 0-.3-.2-.4-.4-.4H7.7c-.2 0-.4.2-.4.4V6c0-.2.1-.4.4-.4zm9.2 6.6l-2.1-.3c-.2 0-.3 0-.4.1l-1.1 1c-1.5-.8-2.7-2-3.5-3.5.8 1.5 2 2.8 3.5 3.5l-1.1 1.1h.1l1.1-1.1 1.1-1.1c.1-.1.3-.1.4-.1.6.1 1.4.2 2.1.3.3 0 .4.1.4.4v-.1c-.2-.1-.3-.2-.5-.2z"/><radialGradient id="SVGID_6_" cx="958.667" cy="-668.833" r="155.19" gradientTransform="matrix(.125 0 0 -.125 -114.625 -79.875)" gradientUnits="userSpaceOnUse"><stop offset="0" stop-color="#fff" stop-opacity=".1"/><stop offset="1" stop-color="#fff" stop-opacity="0"/></radialGradient><path class="st11" d="M21.5 10.5C21.5 5.3 17.2 1 12 1s-9.5 4.3-9.5 9.5c0 5 4.5 9 9.5 9V23c5.8-2.9 9.5-7.6 9.5-12.5z"/></g></svg>