<svg xmlns="http://www.w3.org/2000/svg" xmlns:xlink="http://www.w3.org/1999/xlink" width="24" height="24" viewBox="0 0 192 192"><path opacity=".2" fill="#FFF" d="M96 76c-29.82 0-54 24.18-54 54 0 .38.02.75.03 1.12.6-29.3 24.53-52.88 53.97-52.88 28.31 0 51.71 19.53 54 47.25 0-.75 0 0 0 0C147.72 97.78 124.31 76 96 76z"/><path fill="#F67C01" d="M96 20h54v56H96z"/><circle fill="#FFD600" cx="96" cy="130" r="54"/><path fill="#F9A825" d="M96 76h54v52H96z"/><path opacity=".2" fill="#FFF" d="M96 20h54v1H96z"/><path opacity=".2" fill="#BF360C" d="M96 183c-29.49 0-53.44-24.64-53.97-54-.01.33-.03.66-.03 1 0 29.82 24.18 54 54 54s54-24.18 54-54c0-.34-.02-.67-.03-1-.53 29.36-24.48 54-53.97 54z"/><path opacity=".2" fill="#FFF" d="M96 76c-29.82 0-54 24.18-54 54 0 .34.02.67.03 1 .53-29.36 24.48-54 53.97-54v-1z"/><defs><path id="a" d="M96 20v56c-29.82 0-54 24.18-54 54s24.18 54 54 54 54-24.18 54-54c0-.67-.03-1.34-.05-2h.05V20H96z"/></defs><clipPath id="b"><use xlink:href="#a" overflow="visible"/></clipPath><radialGradient id="c" cx="96" cy="96" r="96" gradientUnits="userSpaceOnUse"><stop offset="0" stop-color="#fff" stop-opacity=".1"/><stop offset="1" stop-color="#fff" stop-opacity="0"/></radialGradient><path clip-path="url(#b)" fill="url(#c)" d="M0 0h192v192H0z"/></svg>