<svg id="Warstwa_1" data-name="Warstwa 1" xmlns="http://www.w3.org/2000/svg" viewBox="0 0 80.935 104.513"><defs><style>.cls-1{fill:#aaa;}</style></defs><path class="cls-1" d="M50.625,94.7c1.462.026,2.925.019,4.389.013l1.937,0,1.982,0c1.5.005,2.988.011,4.479-.012a2.382,2.382,0,0,0,1.926-.654,2.461,2.461,0,0,0,.111-2.088l-.559-2.135c-.84-3.218-1.71-6.545-2.613-9.8a1.83,1.83,0,0,1,.679-2.225,9.456,9.456,0,0,0,2.878-10.617,9.359,9.359,0,0,0-8.853-6.073q-.1,0-.2,0a9.378,9.378,0,0,0-5.751,16.583,2.144,2.144,0,0,1,.746,2.559c-1.153,4.171-2.19,8.03-3.171,11.8A1.817,1.817,0,0,0,50.625,94.7Zm.555-25.775a6.168,6.168,0,0,1,5.669-4.52h.028a6.22,6.22,0,0,1,5.9,4.238,6.116,6.116,0,0,1-2.466,6.933,8.683,8.683,0,0,1-.971.567,1.79,1.79,0,0,0-.951,2.359Q59.6,83,60.78,87.5l.536,2.033c.07.265.129.531.193.823l.2.9H52.3l1.03-3.887c.718-2.711,1.43-5.4,2.149-8.083.6-2.242.588-2.274-1.359-3.455A6.321,6.321,0,0,1,51.18,68.928Z" transform="translate(-16.225 -4.437)"/><path class="cls-1" d="M94.622,42.77H86.506v-.4c0-.714.011-1.418.023-2.115.025-1.557.05-3.028-.051-4.507L86.4,34.565a50.76,50.76,0,0,0-.888-7.691C82.99,15.523,72.7,6.2,61.056,4.713,45.092,2.666,31.379,12.147,27.7,27.755a29.734,29.734,0,0,0-.66,5.654c-.076,2.026-.061,4.04-.044,6.171.007.914.015,1.843.015,2.791v.4l-5.98,0-1.161,0q-.723,0-1.447.007c-1.612.016-2.186.6-2.2,2.249l0,.716V58.6q0,4.769.009,9.537.012,9.96-.009,19.919v5.181A16.363,16.363,0,0,0,32.663,108.95h.2c11.38-.129,22.951-.1,34.14-.076,4.845.011,9.673.007,14.533.022.622,0,1.246-.013,1.867-.042,7.223-.342,13.627-6.85,13.706-13.928q.037-3.415.055-6.832V44.631C97.063,43.22,96.7,42.772,94.622,42.77ZM37.526,16.1c6.081-6.268,13.42-9.014,21.823-8.151a25.837,25.837,0,0,1,22.988,20.24,38.173,38.173,0,0,1,.652,7.485c.022,1.051.044,2.1.1,3.142.044.772.034,1.536.022,2.344,0,.371-.01.75-.01,1.14v.4H30.483l-.027-.369C29.78,33.187,30.167,23.682,37.526,16.1ZM93.843,93.658a11.714,11.714,0,0,1-11.764,11.933c-1.419.022-2.852.028-4.275.028-1.14,0-2.273,0-3.389-.008q-1.7-.008-3.4-.009l-11.06,0q-13.554,0-27.1-.006c-6.541-.008-11.5-3.847-12.939-10.02a12.664,12.664,0,0,1-.281-2.9q-.026-22.314-.009-44.63c0-.3.021-.6.044-.928l.052-.852H93.844Z" transform="translate(-16.225 -4.437)"/></svg>