<svg id="Warstwa_1" data-name="Warstwa 1" xmlns="http://www.w3.org/2000/svg" viewBox="0 0 89.623 104.513"><defs><style>.cls-1,.cls-2{fill:#aaa;}.cls-2{stroke:#1d1d1b;stroke-miterlimit:10;stroke-width:2.4px;}</style></defs><path class="cls-1" d="M14.613,52.6H48.819A3.121,3.121,0,0,1,51.155,53.7a3.826,3.826,0,0,1-.058,3.2c-.239.685-.553,1.361-.884,2.076-.339.731-.69,1.488-.974,2.29-1.255,3.53-.4,6.68,2.343,8.641a9.027,9.027,0,0,0,9.994-.071c2.674-2,3.531-5.238,2.294-8.673a23.339,23.339,0,0,0-1-2.279c-.232-.479-.465-.958-.67-1.45-.672-1.6-.791-2.9-.334-3.653A3.438,3.438,0,0,1,64.5,52.6H98.78a2.539,2.539,0,0,0,1.8-4.334l-7.533-7.532-.471-.42q-1.391-1.394-2.789-2.778c-2.08-2.066-4.231-4.2-6.292-6.344-1.206-1.253-1.783-2.368-1.624-3.139.162-.787,1.164-1.6,2.821-2.3.421-.177.853-.338,1.283-.5a17.9,17.9,0,0,0,2.959-1.319,6.361,6.361,0,0,0,3.009-7.675,7.993,7.993,0,0,0-7.046-5.823c-3.114-.206-5.621,1.557-7.063,4.973-.226.535-.419,1.084-.612,1.633-.2.569-.388,1.107-.612,1.614-.551,1.242-1.232,2.011-1.916,2.165A3.449,3.449,0,0,1,72.1,19.73c-.992-.853-1.908-1.784-2.878-2.77-.35-.355-.7-.711-1.054-1.062-2.848-2.831-5.693-5.667-8.585-8.551l-2.92-2.911-1.041,1.04Q53.6,7.5,51.6,9.489c-3.43,3.411-6.67,6.632-9.94,9.97-.8.816-1.681,1.921-1.406,3.238.277,1.335,1.555,2.018,2.769,2.512.447.181.9.351,1.354.521a21.6,21.6,0,0,1,2.789,1.194,6.254,6.254,0,0,1,3.351,6.453,7.866,7.866,0,0,1-5.953,6.312,6.077,6.077,0,0,1-6.666-2.857,16.272,16.272,0,0,1-1.356-3.076l-.26-.7c-.624-1.672-1.307-3.2-2.768-3.522s-2.722.781-3.9,1.94c-2.513,2.474-5,4.974-7.487,7.475l-9.306,9.325a2.538,2.538,0,0,0,1.8,4.334Zm9.6-11.579c2.48-2.493,4.959-4.986,7.464-7.452a9.412,9.412,0,0,1,1.161-1.017,10.071,10.071,0,0,1,.674,1.528l.25.683A18.738,18.738,0,0,0,35.4,38.4a9.037,9.037,0,0,0,9.8,4.168,10.736,10.736,0,0,0,8.228-8.731,9.171,9.171,0,0,0-4.848-9.5,23.932,23.932,0,0,0-3.17-1.368c-.429-.161-.858-.322-1.281-.493a6.132,6.132,0,0,1-.842-.4,5.236,5.236,0,0,1,.477-.548c3.256-3.323,6.49-6.538,9.913-9.942q1.49-1.48,2.992-2.978l.836.833c2.894,2.886,5.739,5.723,8.588,8.554.346.344.689.692,1.031,1.04.97.985,1.972,2,3.058,2.938,2.21,1.9,4.025,1.988,5.159,1.734,1.664-.375,3-1.67,3.964-3.847.272-.615.489-1.235.7-1.835.171-.49.342-.98.544-1.458.943-2.231,2.33-3.305,4.148-3.179a5.1,5.1,0,0,1,4.41,3.7A3.429,3.429,0,0,1,87.42,21.4a15.488,15.488,0,0,1-2.482,1.09c-.468.176-.936.351-1.394.544-2.655,1.115-4.191,2.6-4.566,4.423s.431,3.749,2.387,5.782c2.084,2.165,4.247,4.313,6.339,6.391q1.6,1.592,3.2,3.189l6.885,6.831H64.435l-.125.006c-2.965.252-4.338,1.547-4.969,2.59-.986,1.628-.94,3.756.136,6.321.227.539.481,1.067.736,1.594a20.934,20.934,0,0,1,.881,1.992c.785,2.181.318,4.116-1.282,5.31A6.056,6.056,0,0,1,53.3,67.5c-2.074-1.482-1.84-3.674-1.278-5.255.238-.672.545-1.334.87-2.035.347-.748.7-1.522.992-2.344,1.007-2.883.423-4.727-.244-5.766a5.739,5.739,0,0,0-4.611-2.442l-33.422-.007Z" transform="translate(-11.881 -4.436)"/><path class="cls-1" d="M101.5,58.45h-2.95c0,8.422,0,37.193,0,46.468A1.083,1.083,0,0,1,97.472,106H15.925a1.081,1.081,0,0,1-1.084-1.088l-.009-46.452H11.881l.01,46.447a4.03,4.03,0,0,0,4.034,4.042H97.472a4.036,4.036,0,0,0,4.032-4.03C101.5,95.644,101.5,66.873,101.5,58.45Z" transform="translate(-11.881 -4.436)"/><path class="cls-2" d="M100.024,58.45" transform="translate(-11.881 -4.436)"/></svg>