<svg id="Warstwa_1" data-name="Warstwa 1" xmlns="http://www.w3.org/2000/svg" viewBox="0 0 106.984 102.547"><defs><style>.cls-1{fill:#aaa;}</style></defs><path class="cls-1" d="M109.968,47a39.208,39.208,0,0,0-3.226-12.052A46.206,46.206,0,0,0,90.575,15.868,57.906,57.906,0,0,0,62.963,5.9a62.445,62.445,0,0,0-15.014.3,59.558,59.558,0,0,0-16.216,4.632A51.089,51.089,0,0,0,11.926,26.126c-6.09,7.912-9.018,16.625-8.7,25.9a39.46,39.46,0,0,0,2.439,12.59A45.133,45.133,0,0,0,22.459,85.8c.184.129.2.166.2.361q-.017,7.327-.01,14.657v7.318l1.482-1.4c.135-.126.236-.221.334-.319l2.511-2.511q5.194-5.193,10.374-10.4c.205-.207.229-.206.465-.127a57.969,57.969,0,0,0,13.361,2.7,61.653,61.653,0,0,0,13.022-.191,60.227,60.227,0,0,0,14.551-3.595c9.592-3.739,17.009-9.125,22.676-16.467C108.162,67.09,111.037,57.39,109.968,47ZM25.018,83.657a43.174,43.174,0,0,1-14.73-16.449A36.213,36.213,0,0,1,6.639,54.865c-1.07-9.676,1.6-18.734,7.931-26.921A47.019,47.019,0,0,1,30.486,15,56.107,56.107,0,0,1,47.111,9.58,59.737,59.737,0,0,1,61.2,8.963a56.118,56.118,0,0,1,20.129,5.253C90.9,18.8,97.805,25.107,102.434,33.485a36.219,36.219,0,0,1,4.474,15.622c.509,9.028-2.154,17.176-8.14,24.909a46.187,46.187,0,0,1-15.279,12.6A55.712,55.712,0,0,1,65.773,92.44a59.875,59.875,0,0,1-14.762.406,60.563,60.563,0,0,1-13.431-2.9,1.411,1.411,0,0,0-1.589.387q-3.678,3.692-7.368,7.372l-2.764,2.763V97.979q0-6.353.011-12.7A1.773,1.773,0,0,0,25.018,83.657Z" transform="translate(-3.201 -5.584)"/><path class="cls-1" d="M84.46,55.286c-.095-.052-.182-.1-.27-.146l-.921-.473c-1.405-.723-2.809-1.446-4.231-2.173,0-1.032-.015-2.144-.035-3.394q1.1-.577,2.2-1.165l3.943-2.1-.263-.9c-.023-.076-.043-.147-.067-.217l-.58-1.737c-.4-1.2-.811-2.432-1.2-3.651a1.33,1.33,0,0,0-1.587-.962q-1.74.276-3.483.542l-2.22.345c-.676-.929-1.355-1.846-2.019-2.729q1.044-2.115,2.077-4.238l.97-2.056L70.23,25.538l-.1-.07-.67.849-.02.027a.505.505,0,0,1-.052.066L65.3,30.488c-.518-.167-1.036-.331-1.555-.5l-.119-.037c-.516-.164-1.031-.327-1.548-.493-.187-1.031-.367-2.061-.548-3.093L61,23.394l-.149-.54-.712-.266-6.286.028a1.182,1.182,0,0,0-1.2,1.061l-.432,2.663c-.173,1.062-.347,2.124-.515,3.188-1.284.422-2.285.758-3.224,1.081q-1.584-1.551-3.18-3.09l-.288-.279c-.229-.221-.461-.44-.694-.66l-.872-.825-1.987,1.461c-1.165.858-2.321,1.709-3.483,2.552a1.324,1.324,0,0,0-.45,1.825c.627,1.214,1.251,2.455,1.854,3.657l.756,1.5c-.317.436-.632.875-.946,1.313l-.127.177q-.454.633-.912,1.264c-.564-.075-1.127-.158-1.691-.241l-5.115-.721-.105-.016-2.429,7.65,2.188,1.14c1.334.688,2.668,1.375,4.017,2.061,0,1.03.012,2.143.032,3.394-.41.212-.819.43-1.227.648l-4.949,2.638,2.518,7.573.9-.1c.123-.012.232-.024.341-.04l.336-.052q2.67-.408,5.341-.824c.677.936,1.357,1.857,2.021,2.742q-1.047,2.117-2.082,4.239l-.46.941c-.045.091-.087.184-.129.279l-.374.827,6.638,4.762.664-.855.02-.028c.012-.016.022-.032.029-.04L46.1,74.025q1.325-1.317,2.648-2.641c1.076.352,2.153.695,3.233,1.038q.279,1.624.566,3.247L53,78.238A1.193,1.193,0,0,0,54.242,79.3q2.949-.029,5.9-.036a1.206,1.206,0,0,0,1.263-1.079q.246-1.554.5-3.105l.042-.258c.134-.823.269-1.646.4-2.47.453-.146.906-.3,1.357-.444l1.306-.428c.127-.042.258-.095.389-.15l.029-.012c.047-.02.1-.043.152-.062.046.048.1.1.138.151.092.1.184.2.277.294l4.013,3.871.544.438.616-.323,1.447-1.039.413-.3q1.583-1.16,3.165-2.316a1.231,1.231,0,0,0,.373-1.651c-.961-1.893-1.826-3.61-2.642-5.247.619-.883,1.283-1.81,1.973-2.758.558.075,1.115.157,1.671.239l5.243.738,2.426-7.63Zm-3.606,4.942-2.2-.309q-1.587-.223-3.17-.455a1.416,1.416,0,0,0-1.421.616h0c-.944,1.338-1.926,2.707-2.915,4.068a1.355,1.355,0,0,0-.118,1.509q1.175,2.307,2.335,4.624l.12.237-2.65,1.946L67.884,69.6c-.332-.323-.675-.656-1.026-.974a1.412,1.412,0,0,0-1.3-.3c-1.723.558-3.392,1.113-4.96,1.649a1.42,1.42,0,0,0-.878,1.079q-.376,2.247-.737,4.5l-.147.887h-3.3l-.441-2.5c-.169-.964-.337-1.929-.514-2.892a1.412,1.412,0,0,0-.907-1.02c-.729-.238-1.459-.471-2.189-.7l-.2-.064q-1.27-.405-2.539-.818a1.306,1.306,0,0,0-1.4.373L43.5,72.652l-2.679-1.926.651-1.338c.579-1.185,1.157-2.369,1.744-3.549a1.325,1.325,0,0,0-.127-1.473c-.942-1.268-1.932-2.615-3.029-4.118a1.309,1.309,0,0,0-1.344-.543c-1.631.26-3.263.51-4.915.764l-.477.073-1.038-3.115,2.944-1.566c.625-.332,1.251-.665,1.881-.992a1.323,1.323,0,0,0,.749-1.249c-.021-1.878-.031-3.54-.032-5.079a1.36,1.36,0,0,0-.8-1.283q-1.863-.953-3.719-1.917l-1.1-.568.995-3.127,2.29.323c1.028.145,2.055.29,3.082.443a1.4,1.4,0,0,0,1.418-.623c1.02-1.441,1.974-2.773,2.915-4.07a1.355,1.355,0,0,0,.109-1.507q-1.1-2.169-2.19-4.344l-.257-.512,2.649-1.945.641.618c1.061,1.023,2.114,2.039,3.158,3.064a1.553,1.553,0,0,0,1.7.395c1.6-.558,3.232-1.092,4.634-1.549a1.38,1.38,0,0,0,1-1.176q.387-2.48.8-4.954l.062-.377h3.3c.037.2.074.4.109.6l.1.553c.245,1.4.491,2.806.728,4.212a1.306,1.306,0,0,0,.972,1.081c1.892.6,3.425,1.086,4.824,1.543a1.355,1.355,0,0,0,1.471-.361q1.665-1.668,3.341-3.326l.5-.494,2.679,1.913-.38.78q-1,2.053-2.013,4.105a1.328,1.328,0,0,0,.126,1.473q1.524,2.052,3.029,4.115a1.3,1.3,0,0,0,1.345.546c1.593-.254,3.188-.5,4.8-.747l.594-.09,1.036,3.114L78.847,46c-.633.337-1.266.673-1.9,1a1.31,1.31,0,0,0-.751,1.248c.02,1.859.028,3.52.028,5.077a1.354,1.354,0,0,0,.8,1.286c1.348.69,2.693,1.385,4.052,2.088l.771.4Z" transform="translate(-3.201 -5.584)"/><path class="cls-1" d="M57.007,40.582h-.041a10.313,10.313,0,0,0-7.274,3.045,10.07,10.07,0,0,0-3.023,7.223A10.328,10.328,0,0,0,57.031,61.293h.032a10.3,10.3,0,0,0,7.323-3.1,10.154,10.154,0,0,0,2.993-7.242A10.432,10.432,0,0,0,57.007,40.582Zm-5.6,15.424a7.557,7.557,0,0,1,5.6-12.613c.095,0,.191,0,.287.006a7.543,7.543,0,1,1-.566,15.075A7.581,7.581,0,0,1,51.408,56.006Z" transform="translate(-3.201 -5.584)"/></svg>