<svg width="41" height="41" viewBox="0 0 41 41" fill="none" xmlns="http://www.w3.org/2000/svg">
<path d="M4.44585 19.6156C3.89384 19.5733 3.34185 19.6579 2.85354 19.8271C2.49262 19.954 2.11047 19.7002 2.11047 19.3196V13.0183C2.11047 12.4051 2.59878 11.9187 3.21447 11.9187H14.4243C14.8064 11.9187 15.0824 11.5381 14.9338 11.1786C14.7427 10.6923 14.6578 10.1637 14.7215 9.59273C14.8701 7.83766 16.3138 6.42092 18.076 6.29404C20.199 6.14603 21.9612 7.81652 21.9612 9.90991C21.9612 10.354 21.8763 10.7769 21.7276 11.1786C21.6003 11.5381 21.855 11.9187 22.2372 11.9187H33.4895C34.1052 11.9187 34.5935 12.4051 34.5935 13.0183V19.3196C34.5935 19.7002 34.9756 19.9751 35.3365 19.8271C35.8248 19.6368 36.3556 19.5522 36.9288 19.6156C38.691 19.7636 40.1134 21.2015 40.2408 22.9566C40.3894 25.0711 38.7122 26.8262 36.6104 26.8262C36.1645 26.8262 35.7399 26.7416 35.3365 26.5936C34.9756 26.4667 34.5935 26.7205 34.5935 27.1011V33.4024C34.5935 34.0156 34.1052 34.502 33.4895 34.502H22.2796C21.8975 34.502 21.6215 34.1213 21.7701 33.7619C21.9612 33.2755 22.0461 32.7469 21.9824 32.176C21.8338 30.4209 20.3901 29.0042 18.628 28.8773C16.5049 28.7293 14.7427 30.3998 14.7427 32.4932C14.7427 32.9372 14.8277 33.3601 14.9763 33.7619C15.1037 34.1213 14.8489 34.502 14.4667 34.502H3.25693C2.64124 34.502 2.15293 34.0156 2.15293 33.4024V27.1011C2.15293 26.7205 2.53508 26.4456 2.89601 26.5936C3.29939 26.7416 3.724 26.8262 4.16985 26.8262C6.27169 26.8262 7.94891 25.0711 7.8003 22.9566C7.63045 21.1804 6.20799 19.7425 4.44585 19.6156Z" fill="#4285F4"/>
<path d="M27.5008 1.11035L11.2836 1.11035C9.75214 1.11035 8.49414 2.34099 8.49414 3.89981L8.49414 35.5412C8.49414 37.0726 9.72479 38.3306 11.2836 38.3306H27.5008C29.0323 38.3306 30.2903 37.1 30.2903 35.5412V3.89981C30.263 2.36834 29.0323 1.11035 27.5008 1.11035Z" stroke="#202124" stroke-width="0.75" stroke-miterlimit="10" stroke-linecap="round" stroke-linejoin="round"/>
<path d="M15.8517 5.05047C16.4094 5.05047 16.8615 4.59834 16.8615 4.04061C16.8615 3.48289 16.4094 3.03076 15.8517 3.03076C15.2939 3.03076 14.8418 3.48289 14.8418 4.04061C14.8418 4.59834 15.2939 5.05047 15.8517 5.05047Z" fill="#202124"/>
<path d="M18.832 4.10645H22.3052" stroke="#202124" stroke-width="0.75" stroke-miterlimit="10" stroke-linecap="round" stroke-linejoin="round"/>
<path d="M28.9431 39.7733H12.7258C11.5651 39.7733 10.5863 39.0758 10.1621 38.0872L11.5233 38.3758H27.3924L28.4022 38.2315L29.1236 37.7987L29.7006 37.2217L30.1334 36.5003L30.2777 35.4905V5.1949V3.46372L29.9891 2.76001C30.9996 3.17779 31.7118 4.18155 31.7325 5.34246V36.9838C31.7271 38.5205 30.4798 39.7733 28.9431 39.7733Z" fill="#202124"/>
</svg>
