<svg width="41" height="41" viewBox="0 0 41 41" fill="none" xmlns="http://www.w3.org/2000/svg">
<g clip-path="url(#clip0_1989:43569)">
<path d="M14.6344 5.28566C15.2279 3.10694 15.5246 2.01757 15.9524 1.70735C16.4777 1.32641 17.1883 1.32641 17.7136 1.70735C18.1414 2.01757 18.4381 3.10693 19.0316 5.28566L19.2669 6.14951C19.9116 8.51617 20.2339 9.69949 20.7408 10.7452C21.8348 13.0022 23.5825 14.8779 25.7567 16.1285C26.764 16.7079 27.9216 17.1129 30.2369 17.923C31.4973 18.364 32.1274 18.5845 32.3767 18.8459C32.9292 19.4254 32.9292 20.3367 32.3767 20.9161C32.1274 21.1776 31.4973 21.3981 30.2369 21.839C27.9216 22.6491 26.764 23.0542 25.7567 23.6336C23.5825 24.8841 21.8348 26.7598 20.7408 29.0169C20.2339 30.0625 19.9116 31.2459 19.2669 33.6125L19.0316 34.4764C18.4381 36.6551 18.1414 37.7445 17.7136 38.0547C17.1883 38.4356 16.4777 38.4356 15.9524 38.0547C15.5246 37.7445 15.2279 36.6551 14.6344 34.4764L14.3991 33.6125C13.7544 31.2459 13.4321 30.0625 12.9252 29.0169C11.8312 26.7598 10.0835 24.8841 7.90932 23.6336C6.90201 23.0542 5.74438 22.6491 3.42912 21.839C2.16876 21.3981 1.53858 21.1776 1.28931 20.9161C0.736797 20.3367 0.736797 19.4254 1.28931 18.8459C1.53858 18.5845 2.16876 18.364 3.42912 17.923C5.74438 17.1129 6.90201 16.7079 7.90932 16.1285C10.0835 14.8779 11.8312 13.0022 12.9252 10.7452C13.4321 9.69949 13.7544 8.51617 14.3991 6.14951L14.6344 5.28566Z" fill="#FBBC04"/>
<path d="M33.8364 27.3194C34.0602 26.2372 35.6058 26.2372 35.8296 27.3193L35.8696 27.5126C36.3352 29.7641 37.8422 31.6607 39.9303 32.6231C40.6788 32.9681 40.6788 34.0319 39.9303 34.3769C37.8422 35.3393 36.3352 37.2359 35.8696 39.4874L35.8296 39.6806C35.6058 40.7628 34.0602 40.7628 33.8364 39.6807L33.7964 39.4874C33.3308 37.2359 31.8238 35.3393 29.7358 34.3769C28.9872 34.0319 28.9872 32.9681 29.7358 32.6231C31.8238 31.6607 33.3308 29.7641 33.7964 27.5126L33.8364 27.3194Z" fill="#FBBC04"/>
<path d="M30.7975 1.14823C30.9583 0.389264 32.0417 0.389263 32.2025 1.14823L32.2339 1.29629C32.5704 2.88397 33.6441 4.21585 35.1243 4.88149C35.6578 5.12142 35.6578 5.87891 35.1243 6.11883C33.6441 6.78447 32.5704 8.11635 32.2339 9.70403L32.2025 9.85209C32.0417 10.6111 30.9583 10.6111 30.7975 9.85209L30.7661 9.70403C30.4296 8.11635 29.3559 6.78447 27.8757 6.11883C27.3422 5.87891 27.3422 5.12142 27.8757 4.88149C29.3559 4.21585 30.4296 2.88397 30.7661 1.2963L30.7975 1.14823Z" fill="#FBBC04"/>
<path d="M4.94022 33.0604C4.06717 33.0604 3.37598 32.3506 3.37598 31.4952V9.49261C3.37598 8.61905 4.08535 7.92749 4.94022 7.92749H36.0793C36.9524 7.92749 37.6435 8.63725 37.6435 9.49261V31.4952C37.6435 32.3688 36.9342 33.0604 36.0793 33.0604H4.94022Z" stroke="#202124" stroke-width="0.75" stroke-miterlimit="10" stroke-linecap="round" stroke-linejoin="round"/>
<path d="M3.35742 13.7699H37.6432V9.4931C37.6432 8.61954 36.9338 7.92798 36.079 7.92798H4.92165C4.04859 7.92798 3.35742 8.63774 3.35742 9.4931V13.7699V13.7699Z" stroke="#202124" stroke-width="0.75" stroke-miterlimit="10" stroke-linecap="round" stroke-linejoin="round"/>
<path d="M4.92578 33.0458C4.92578 33.9011 5.61697 34.6109 6.49003 34.6109H37.6291C38.484 34.6109 39.1933 33.9193 39.1933 33.0458V11.0431C39.1933 10.1878 38.5022 9.47803 37.6291 9.47803V31.2965V31.9167L37.4015 32.3818L36.9363 32.847L36.4712 33.002H35.6959L4.92578 33.0458Z" fill="#202124"/>
<path d="M10.5785 12.0706C11.1779 12.0706 11.6638 11.5847 11.6638 10.9852C11.6638 10.3858 11.1779 9.8999 10.5785 9.8999C9.97909 9.8999 9.49316 10.3858 9.49316 10.9852C9.49316 11.5847 9.97909 12.0706 10.5785 12.0706Z" fill="#202124"/>
<path d="M6.85682 12.0706C7.45624 12.0706 7.94216 11.5847 7.94216 10.9852C7.94216 10.3858 7.45624 9.8999 6.85682 9.8999C6.25741 9.8999 5.77148 10.3858 5.77148 10.9852C5.77148 11.5847 6.25741 12.0706 6.85682 12.0706Z" fill="#202124"/>
</g>
<defs>
<clipPath id="clip0_1989:43569">
<rect width="40" height="40" fill="white" transform="translate(0.5 0.5)"/>
</clipPath>
</defs>
</svg>
