<svg width="41" height="41" viewBox="0 0 41 41" fill="none" xmlns="http://www.w3.org/2000/svg">
<path d="M8.41199 20.6229H10.2038C10.9467 20.6229 11.6241 21.0818 11.8645 21.8029C11.9956 22.1962 12.1704 22.5895 12.3452 22.961C12.673 23.6384 12.5419 24.4469 12.0174 24.9713L10.7501 26.2387C10.0727 26.9379 10.0727 28.0523 10.7501 28.7297L12.5637 30.5434C13.2629 31.2208 14.3774 31.2208 15.0548 30.5434L16.3221 29.276C16.8465 28.7516 17.655 28.5986 18.3324 28.9264C18.7039 29.1012 19.0972 29.2542 19.4905 29.4071C20.1898 29.6475 20.6705 30.3249 20.6705 31.0678V32.8596C20.6705 33.8429 21.4571 34.6295 22.4404 34.6077H25.0189C26.0022 34.6077 26.7888 33.8211 26.767 32.8377V31.0459C26.767 30.303 27.2259 29.6256 27.9469 29.3853C28.3403 29.2542 28.7336 29.0793 29.1051 28.9045C29.7824 28.5768 30.5909 28.7079 31.1154 29.2323L32.3827 30.4997C33.082 31.1771 34.1964 31.1771 34.8738 30.4997L36.6874 28.686C37.3648 27.9868 37.3648 26.8724 36.6874 26.195L35.42 24.9276C34.8956 24.4032 34.7427 23.5947 35.0704 22.9173C35.2452 22.5458 35.3982 22.1525 35.5512 21.7592C35.7915 21.06 36.4689 20.5792 37.2118 20.5792H39.0036C39.9869 20.5792 40.7736 19.7926 40.7517 18.8093V16.2309C40.7517 15.2476 39.9651 14.4609 38.9818 14.4828H37.19C36.4471 14.4828 35.7697 14.0239 35.5293 13.3028C35.3982 12.9095 35.2234 12.5161 35.0486 12.1447C34.7208 11.4673 34.8519 10.6588 35.3763 10.1344L36.6437 8.867C37.3211 8.16776 37.3211 7.05336 36.6437 6.37598L34.8301 4.56232C34.1308 3.88493 33.0164 3.88493 32.339 4.56232L31.0717 5.8297C30.5472 6.35412 29.7387 6.50708 29.0614 6.17931C28.6899 6.0045 28.2966 5.85154 27.9032 5.69858C27.204 5.45822 26.7233 4.78084 26.7233 4.0379V2.2461C26.7233 1.26279 25.9366 0.476152 24.9533 0.498003H22.3749C21.3916 0.498003 20.605 1.28464 20.6268 2.26794V4.05974C20.6268 4.80268 20.1679 5.48008 19.4468 5.72044C19.0535 5.85155 18.6602 6.02635 18.2887 6.20116C17.6113 6.52892 16.8028 6.39782 16.2784 5.87339L15.011 4.60602C14.3118 3.92864 13.1974 3.92864 12.52 4.60602L10.7064 6.41967C10.029 7.11891 10.029 8.23332 10.7064 8.91071L11.9737 10.1781C12.4982 10.7025 12.6511 11.511 12.3234 12.1884C12.1485 12.5599 11.9956 12.9532 11.8426 13.3465C11.6023 14.0457 10.9249 14.5265 10.1819 14.5265H8.39014C7.40684 14.5265 6.62019 15.3131 6.64205 16.2964V18.8748C6.6639 19.8581 7.45053 20.6448 8.41199 20.6229ZM23.686 9.89401C27.9032 9.87216 31.312 13.2809 31.3339 17.4982C31.3557 21.7155 27.9469 25.1243 23.7297 25.1461C19.5124 25.168 16.1036 21.7592 16.0818 17.5419C16.0599 13.3246 19.4687 9.89401 23.686 9.89401Z" fill="#34A853"/>
<path d="M22.9378 15.2953L17.9123 36.9069C17.6826 37.9417 16.3042 38.1782 15.7873 37.2321L11.9967 30.7279L5.65027 38.4147C5.21952 38.9173 4.5016 38.9764 4.01342 38.5625L3.06576 37.7347L2.11811 36.9069C1.62993 36.4634 1.57249 35.7243 1.97453 35.2217L8.32093 27.535L1.48634 24.7264C0.509972 24.3125 0.509973 22.9229 1.45763 22.509L21.3583 13.9353C22.2198 13.551 23.1675 14.3493 22.9378 15.2953Z" stroke="#202124" stroke-width="0.75" stroke-miterlimit="10" stroke-linecap="round" stroke-linejoin="round"/>
<path d="M18.8147 38.6375L23.8401 17.0259C24.0132 16.313 23.5177 15.684 22.8944 15.5818L17.9328 36.8088L17.6227 37.429L17.0025 37.7391H16.3823L15.8862 37.5841L12.899 32.4586L12.041 30.762L5.68403 38.3593L5.37394 38.6694L4.75374 38.8245H4.44365L3.9785 38.5144L2.64404 37.429C2.5429 37.8534 2.67186 38.3209 3.02046 38.6375L3.96811 39.4653L4.91576 40.2931C5.40395 40.707 6.12187 40.6479 6.55262 40.1453L12.899 32.4586L15.8862 37.5841L16.6896 38.9627C17.2065 39.9088 18.5849 39.6723 18.8147 38.6375Z" fill="#202124"/>
</svg>
