<svg width="40" height="41" viewBox="0 0 40 41" fill="none" xmlns="http://www.w3.org/2000/svg">
<path d="M35.2708 38.3882L5.9375 38.2146V35.0885C5.9375 26.9259 12.5332 20.5 20.6909 20.5C28.8487 20.5 35.2708 27.0996 35.2708 35.2622V38.3882Z" fill="#EA4335"/>
<path d="M20.5188 18.8603C25.12 18.8603 28.8501 15.1279 28.8501 10.5239C28.8501 5.91981 25.12 2.1875 20.5188 2.1875C15.9176 2.1875 12.1875 5.91981 12.1875 10.5239C12.1875 15.1279 15.9176 18.8603 20.5188 18.8603Z" fill="#EA4335"/>
<path d="M3.21777 33.6722V10.1664C3.21777 9.11702 4.06186 8.3125 5.08178 8.3125H34.9176C35.9727 8.3125 36.7816 9.152 36.7816 10.1664V26.6764C36.7816 27.7258 35.9375 28.5303 34.9176 28.5303H12.6433C12.2212 28.5303 11.7992 28.6702 11.4475 28.95L4.73009 34.3718C4.1322 34.8965 3.21777 34.4767 3.21777 33.6722Z" stroke="#202124" stroke-width="0.75" stroke-miterlimit="10" stroke-linecap="round" stroke-linejoin="round"/>
<path d="M38.3441 28.239V11.729C38.3441 10.8454 37.7303 10.0945 36.8747 9.91553V26.7501L36.5622 27.5313L35.9372 28.239L35.3122 28.4688H34.6872H12.4997L12.0309 28.6251L11.0934 29.2501L4.78027 34.4063V35.2348C4.78027 36.0393 5.6947 36.459 6.29259 35.9344L13.01 30.5126C13.3617 30.2328 13.7837 30.0929 14.2058 30.0929H36.4801C37.5 30.0929 38.3441 29.2884 38.3441 28.239Z" fill="#202124"/>
<path d="M12.8927 20.0355C13.4548 20.0355 13.9105 19.5798 13.9105 19.0177C13.9105 18.4557 13.4548 18 12.8927 18C12.3307 18 11.875 18.4557 11.875 19.0177C11.875 19.5798 12.3307 20.0355 12.8927 20.0355Z" fill="#202124"/>
<path d="M20.3927 20.0355C20.9548 20.0355 21.4105 19.5798 21.4105 19.0177C21.4105 18.4557 20.9548 18 20.3927 18C19.8307 18 19.375 18.4557 19.375 19.0177C19.375 19.5798 19.8307 20.0355 20.3927 20.0355Z" fill="#202124"/>
<path d="M27.5802 20.0355C28.1423 20.0355 28.598 19.5798 28.598 19.0177C28.598 18.4557 28.1423 18 27.5802 18C27.0182 18 26.5625 18.4557 26.5625 19.0177C26.5625 19.5798 27.0182 20.0355 27.5802 20.0355Z" fill="#202124"/>
</svg>
