<?xml version="1.0" encoding="utf-8"?>
<!-- Generator: Adobe Illustrator 25.4.1, SVG Export Plug-In . SVG Version: 6.00 Build 0)  -->
<svg version="1.1" id="Warstwa_46" xmlns="http://www.w3.org/2000/svg" xmlns:xlink="http://www.w3.org/1999/xlink" x="0px" y="0px"
	 viewBox="0 0 54 54" style="enable-background:new 0 0 54 54;" xml:space="preserve">
<style type="text/css">
	.st0{fill:#7D7D7D;}
</style>
<g>
	<path class="st0" d="M3.35,5.9c2.05-1.94,4.71-2.91,7.97-2.91s5.91,0.97,7.94,2.91c2.02,1.94,3.04,4.69,3.04,8.27
		c0,3.57-1.02,6.33-3.04,8.27c-2.03,1.94-4.68,2.91-7.94,2.91s-5.92-0.97-7.97-2.91s-3.07-4.7-3.07-8.27
		C0.27,10.59,1.3,7.84,3.35,5.9z M8.08,14.17c0,3,1.06,4.5,3.18,4.5c1.01,0,1.81-0.37,2.38-1.13c0.57-0.75,0.86-1.87,0.86-3.37
		c0-3.04-1.08-4.57-3.24-4.57C9.14,9.6,8.08,11.12,8.08,14.17z M45.19,3.71L19.72,50.29H8.81L34.28,3.71H45.19z M34.8,31.57
		c2.03-1.94,4.67-2.91,7.94-2.91c3.26,0,5.91,0.97,7.94,2.91s3.05,4.7,3.05,8.27c0,3.57-1.02,6.33-3.05,8.27
		c-2.03,1.94-4.67,2.91-7.94,2.91c-3.27,0-5.91-0.97-7.94-2.91c-2.03-1.94-3.04-4.7-3.04-8.27C31.76,36.26,32.77,33.51,34.8,31.57z
		 M40.33,36.39c-0.55,0.75-0.82,1.9-0.82,3.44c0,3,1.06,4.5,3.18,4.5c1.01,0,1.8-0.37,2.38-1.13c0.57-0.75,0.86-1.87,0.86-3.37
		c0-1.5-0.29-2.64-0.86-3.41c-0.58-0.77-1.37-1.16-2.38-1.16C41.66,35.27,40.88,35.65,40.33,36.39z"/>
</g>
</svg>
