<svg xmlns="http://www.w3.org/2000/svg" viewBox="0 0 54 54" xmlns:v="https://vecta.io/nano"><path d="M27.22 53.12c-14.21 0-25.77-11.56-25.77-25.77S13.02 1.58 27.22 1.58c14.21 0 25.77 11.56 25.77 25.77S41.43 53.12 27.22 53.12z" fill="#fff"/><path d="M27.22 2.09c13.93 0 25.27 11.33 25.27 25.27S41.16 52.62 27.22 52.62 1.96 41.28 1.96 27.35 13.29 2.09 27.22 2.09m0-1C12.71 1.09.95 12.85.95 27.36s11.76 26.27 26.27 26.27 26.27-11.76 26.27-26.27S41.73 1.09 27.22 1.09z" fill="#bbb"/><path d="M24.94 37.58c-.65.65-1.69.65-2.33 0l-1.55-1.55c-.65-.65-.65-1.69 0-2.33l6.63-6.63-6.63-6.63c-.65-.65-.65-1.69 0-2.33l1.55-1.57c.65-.65 1.69-.65 2.33 0l9.35 9.35c.65.65.65 1.69.01 2.34l-9.36 9.35z" fill="#3b4144"/></svg>