<?xml version="1.0" encoding="utf-8"?>
<!-- Generator: Adobe Illustrator 26.0.1, SVG Export Plug-In . SVG Version: 6.00 Build 0)  -->
<svg version="1.1" id="Warstwa_42" xmlns="http://www.w3.org/2000/svg" xmlns:xlink="http://www.w3.org/1999/xlink" x="0px" y="0px"
	 viewBox="0 0 54 54" style="enable-background:new 0 0 54 54;" xml:space="preserve">
<style type="text/css">
	.st0{fill:#727272;}
</style>
<path class="st0" d="M27,0.36C12.31,0.36,0.36,12.31,0.36,27c0,14.69,11.95,26.64,26.64,26.64c14.69,0,26.64-11.95,26.64-26.64
	C53.64,12.31,41.69,0.36,27,0.36z M27,49.86C14.39,49.86,4.14,39.61,4.14,27C4.14,14.39,14.39,4.14,27,4.14
	c12.61,0,22.86,10.26,22.86,22.86C49.86,39.61,39.61,49.86,27,49.86z"/>
<g>
	<path class="st0" d="M21.47,32.27h7.14v4.87h-13.6V32.5l6.66-7.26h-6.6v-4.87h13.3V25L21.47,32.27z"/>
	<path class="st0" d="M39.46,26.89l-1.94,0.57v9.68h-5.89v-8.01l-1.94,0.57v-5.08l1.94-0.57v-9.02h5.89v7.35l1.94-0.57V26.89z"/>
</g>
</svg>
