<?xml version="1.0" encoding="utf-8"?>
<!-- Generator: Adobe Illustrator 25.4.1, SVG Export Plug-In . SVG Version: 6.00 Build 0)  -->
<svg version="1.1" id="Warstwa_26" xmlns="http://www.w3.org/2000/svg" xmlns:xlink="http://www.w3.org/1999/xlink" x="0px" y="0px"
	 viewBox="0 0 54 54" style="enable-background:new 0 0 54 54;" xml:space="preserve">
<style type="text/css">
	.st0{fill:#FFFFFF;}
</style>
<g>
	<path class="st0" d="M47.81,22.9c-0.59-0.25-1.28,0.02-1.53,0.61c-0.25,0.59,0.02,1.28,0.61,1.53c2.24,0.96,3.58,2.07,3.58,2.97
		c0,1.8-5.49,4.88-17.27,5.78c-0.64,0.05-1.12,0.61-1.07,1.25c0.05,0.61,0.56,1.08,1.16,1.08c0.03,0,0.06,0,0.09,0
		c5.27-0.4,10.05-1.33,13.45-2.6c3.96-1.48,5.97-3.33,5.97-5.51C52.81,26.04,51.13,24.32,47.81,22.9L47.81,22.9z"/>
	<path class="st0" d="M27.97,35.84c0.33-0.5,0.21-1.2-0.27-1.57l-5.02-3.83c-0.51-0.39-1.24-0.29-1.63,0.22
		c-0.39,0.51-0.29,1.24,0.22,1.63l2.18,1.66c-5.12-0.22-9.84-0.9-13.55-1.98c-4.71-1.37-6.38-2.99-6.38-3.96
		c0-0.91,1.34-2.02,3.57-2.97c0.59-0.25,0.87-0.94,0.62-1.53c-0.25-0.59-0.94-0.87-1.53-0.62c-3.31,1.41-4.99,3.13-4.99,5.12
		c0,2.52,2.79,4.66,8.06,6.2c3.95,1.15,8.97,1.87,14.38,2.08l-2.37,1.8c-0.51,0.39-0.61,1.12-0.22,1.63
		c0.23,0.3,0.58,0.46,0.93,0.46c0.25,0,0.49-0.08,0.71-0.24l5.02-3.83C27.81,36.05,27.9,35.95,27.97,35.84L27.97,35.84z"/>
	<g>
		<path class="st0" d="M13.9,16.31c0.73-0.64,1.71-0.96,2.96-0.96c0.83,0,1.53,0.14,2.12,0.43c0.59,0.29,1.04,0.68,1.34,1.17
			c0.3,0.5,0.45,1.05,0.45,1.67c0,0.73-0.18,1.32-0.55,1.78c-0.36,0.46-0.79,0.77-1.27,0.93v0.07c0.63,0.21,1.12,0.56,1.49,1.04
			c0.36,0.49,0.55,1.11,0.55,1.87c0,0.68-0.16,1.29-0.47,1.81c-0.31,0.52-0.77,0.93-1.37,1.23c-0.6,0.3-1.31,0.45-2.14,0.45
			c-1.32,0-2.38-0.33-3.17-0.98c-0.79-0.65-1.2-1.63-1.25-2.94h2.74c0.01,0.49,0.15,0.87,0.41,1.15c0.26,0.28,0.65,0.42,1.16,0.42
			c0.43,0,0.76-0.12,1-0.37c0.24-0.25,0.36-0.58,0.36-0.98c0-0.53-0.17-0.91-0.5-1.15c-0.34-0.24-0.87-0.36-1.61-0.36h-0.53v-2.3
			h0.53c0.56,0,1.02-0.1,1.36-0.29c0.35-0.19,0.52-0.54,0.52-1.03c0-0.4-0.11-0.71-0.33-0.93c-0.22-0.22-0.52-0.33-0.91-0.33
			c-0.42,0-0.73,0.13-0.93,0.38c-0.2,0.25-0.32,0.57-0.36,0.94h-2.76C12.79,17.86,13.18,16.95,13.9,16.31z"/>
		<path class="st0" d="M28.16,17.98c-0.22-0.2-0.53-0.31-0.94-0.31c-0.63,0-1.08,0.27-1.36,0.82c-0.28,0.55-0.42,1.41-0.43,2.59
			c0.24-0.39,0.59-0.69,1.05-0.91c0.46-0.22,0.96-0.33,1.51-0.33c1.08,0,1.95,0.34,2.6,1.03c0.66,0.68,0.98,1.64,0.98,2.86
			c0,0.8-0.16,1.51-0.49,2.12c-0.33,0.61-0.8,1.08-1.42,1.42c-0.62,0.34-1.36,0.51-2.21,0.51c-1.7,0-2.88-0.53-3.54-1.6
			c-0.66-1.06-0.99-2.59-0.99-4.59c0-2.09,0.35-3.65,1.05-4.67c0.7-1.02,1.82-1.53,3.36-1.53c0.83,0,1.52,0.16,2.09,0.49
			c0.57,0.33,1,0.75,1.29,1.28c0.29,0.53,0.47,1.11,0.52,1.74h-2.63C28.53,18.49,28.38,18.18,28.16,17.98z M26.13,22.49
			c-0.31,0.28-0.47,0.68-0.47,1.2c0,0.53,0.15,0.94,0.44,1.24c0.29,0.3,0.71,0.45,1.25,0.45c0.48,0,0.87-0.15,1.15-0.44
			c0.28-0.29,0.42-0.69,0.42-1.2c0-0.52-0.14-0.93-0.41-1.22c-0.28-0.3-0.67-0.45-1.19-0.45C26.84,22.07,26.45,22.21,26.13,22.49z"
			/>
		<path class="st0" d="M34.28,17.02c0.73-1.09,1.92-1.64,3.55-1.64c1.63,0,2.81,0.55,3.55,1.64c0.73,1.09,1.1,2.59,1.1,4.48
			c0,1.92-0.37,3.42-1.1,4.51c-0.73,1.09-1.92,1.64-3.55,1.64c-1.63,0-2.81-0.55-3.55-1.64c-0.73-1.09-1.1-2.6-1.1-4.51
			C33.18,19.61,33.55,18.12,34.28,17.02z M39.34,18.93c-0.24-0.6-0.74-0.9-1.5-0.9s-1.26,0.3-1.5,0.9c-0.24,0.6-0.36,1.46-0.36,2.57
			c0,0.75,0.04,1.37,0.13,1.86c0.09,0.49,0.27,0.89,0.54,1.19c0.27,0.3,0.67,0.45,1.2,0.45c0.53,0,0.93-0.15,1.2-0.45
			c0.27-0.3,0.45-0.7,0.54-1.19c0.09-0.49,0.13-1.11,0.13-1.86C39.7,20.39,39.58,19.54,39.34,18.93z"/>
		<path class="st0" d="M46.83,17.26c-0.39,0.36-0.87,0.55-1.45,0.55c-0.57,0-1.05-0.18-1.44-0.55c-0.39-0.36-0.58-0.85-0.58-1.46
			c0-0.61,0.19-1.09,0.58-1.46c0.39-0.36,0.87-0.55,1.44-0.55c0.57,0,1.06,0.18,1.45,0.55c0.39,0.36,0.59,0.85,0.59,1.46
			C47.42,16.41,47.23,16.89,46.83,17.26z M45.96,15.21c-0.15-0.15-0.34-0.22-0.57-0.22c-0.22,0-0.41,0.07-0.55,0.22
			c-0.15,0.15-0.22,0.34-0.22,0.59c0,0.23,0.07,0.42,0.22,0.58c0.15,0.15,0.33,0.23,0.55,0.23c0.23,0,0.42-0.08,0.57-0.23
			c0.15-0.15,0.22-0.35,0.22-0.58C46.18,15.56,46.11,15.36,45.96,15.21z"/>
	</g>
</g>
</svg>
