<?xml version="1.0" encoding="utf-8"?>
<!-- Generator: Adobe Illustrator 25.4.1, SVG Export Plug-In . SVG Version: 6.00 Build 0)  -->
<svg version="1.1" id="Warstwa_43" xmlns="http://www.w3.org/2000/svg" xmlns:xlink="http://www.w3.org/1999/xlink" x="0px" y="0px"
	 viewBox="0 0 54 54" style="enable-background:new 0 0 54 54;" xml:space="preserve">
<style type="text/css">
	.st0{fill:#7D7D7D;}
</style>
<path class="st0" d="M52.26,18.08c-0.19,0-0.37,0.04-0.56,0.11l-15.79,5.83l-0.96-0.33c2.16-3.24,3.93-6.61,3.93-9.05
	c0-6.31-5.32-11.42-11.89-11.42S15.11,8.34,15.11,14.65c0,1.1,0.37,2.4,0.97,3.77L2.12,23.29C1,23.73,0.25,24.83,0.25,26.04v23.24
	c0,0.85,0.7,1.49,1.49,1.49c0.19,0,0.37-0.04,0.56-0.11l15.79-5.83l15.97,5.64c1.21,0.4,2.51,0.41,3.71,0.02l14.11-4.91
	c1.13-0.46,1.87-1.54,1.87-2.76V19.57C53.75,18.72,53.05,18.08,52.26,18.08z M16.6,42.21L3.22,47.15L3.1,26.08l13.5-4.69V42.21z
	 M27,6.2c4.91,0,8.92,3.79,8.92,8.45c0,2.51-3.54,8.26-8.92,14.56c-5.38-6.31-8.92-12.05-8.92-14.56C18.08,9.99,22.09,6.2,27,6.2
	L27,6.2z M34.43,47.45L19.57,42.2V24.47c2.27,3.28,4.84,6.31,6.29,7.96c0.3,0.34,0.72,0.51,1.14,0.51s0.84-0.17,1.14-0.51
	c1.19-1.35,3.13-3.63,5.04-6.21l1.24,0.44V47.45z M37.4,47.47V26.65l13.38-4.94l0.12,21.07L37.4,47.47z M29.23,15.11
	c0-1.24-1-2.23-2.23-2.23s-2.23,0.99-2.23,2.23c0,1.23,1,2.23,2.23,2.23S29.23,16.35,29.23,15.11z"/>
</svg>
