<?xml version="1.0" encoding="utf-8"?>
<!-- Generator: Adobe Illustrator 26.0.1, SVG Export Plug-In . SVG Version: 6.00 Build 0)  -->
<svg version="1.1" id="Warstwa_78" xmlns="http://www.w3.org/2000/svg" xmlns:xlink="http://www.w3.org/1999/xlink" x="0px" y="0px"
	 viewBox="0 0 54 54" style="enable-background:new 0 0 54 54;" xml:space="preserve">
<style type="text/css">
	.st0{fill:#6F6F6E;}
</style>
<path class="st0" d="M28.95,2.9l5.33,16.51l17.37-0.03c2.01,0,2.77,2.6,1.2,3.72L38.79,33.28l5.41,16.5
	c0.64,1.94-1.62,3.44-3.18,2.32L27,41.86L12.98,52.09c-1.66,1.21-3.85-0.57-3.12-2.4l5.36-16.41L1.14,23.11
	c-1.63-1.15-0.7-3.72,1.2-3.72l17.37,0.03L25.04,2.9c0.61-1.88,3.32-1.84,3.89,0H28.95L28.95,2.9z M30.85,22.11L30.85,22.11
	L27,10.19l-3.79,11.82c-0.23,0.86-1.05,1.53-2.01,1.53L8.68,23.51l10.14,7.33c0.7,0.53,1.02,1.44,0.74,2.3l-3.89,11.89l10.04-7.32
	c0.7-0.58,1.75-0.63,2.49-0.06l10.13,7.38l-3.91-11.89c-0.28-0.83,0-1.75,0.76-2.3l10.14-7.33l-12.36,0.01
	C32.04,23.59,31.17,23.06,30.85,22.11L30.85,22.11z"/>
</svg>
