<?xml version="1.0" encoding="utf-8"?>
<!-- Generator: Adobe Illustrator 26.0.1, SVG Export Plug-In . SVG Version: 6.00 Build 0)  -->
<svg version="1.1" id="Warstwa_8" xmlns="http://www.w3.org/2000/svg" xmlns:xlink="http://www.w3.org/1999/xlink" x="0px" y="0px"
	 viewBox="0 0 54 54" style="enable-background:new 0 0 54 54;" xml:space="preserve">
<style type="text/css">
	.st0{fill:#060607;}
</style>
<g>
	<path class="st0" d="M50.98,41.61c1.79,1.79,1.79,4.69,0,6.48l-3.24,3.24c-1.79,1.79-4.69,1.79-6.48,0L26.66,36.75L12.07,51.34
		c-1.79,1.79-4.69,1.79-6.48,0L2.34,48.1c-1.79-1.79-1.79-4.69,0-6.48l14.59-14.59L2.34,12.43c-1.79-1.79-1.79-4.69,0-6.48L5.59,2.7
		c1.79-1.79,4.69-1.79,6.48,0l14.59,14.59L41.25,2.7c1.79-1.79,4.69-1.79,6.48,0l3.24,3.24c1.79,1.79,1.79,4.69,0,6.48L36.39,27.02
		L50.98,41.61z"/>
</g>
</svg>
