<svg xmlns="http://www.w3.org/2000/svg" viewBox="0 0 54 54" xmlns:v="https://vecta.io/nano"><path d="M51 11.81v5.06H3.75v-5.06c0-2.79 2.27-5.06 5.06-5.06h5.06V1.69c0-.93.76-1.69 1.69-1.69h3.37c.93 0 1.69.76 1.69 1.69v5.06h13.5V1.69c0-.93.76-1.69 1.69-1.69h3.37c.93 0 1.69.76 1.69 1.69v5.06h5.06c2.8 0 5.07 2.27 5.07 5.06zM3.75 20.25H51v28.69c0 2.79-2.27 5.06-5.06 5.06H8.81c-2.79 0-5.06-2.27-5.06-5.06V20.25zm6.75 12.23c0 .7.57 1.27 1.27 1.27h4.22c.7 0 1.27-.57 1.27-1.27v-4.22c0-.7-.57-1.27-1.27-1.27h-4.22c-.7 0-1.27.57-1.27 1.27v4.22zm0 13.5c0 .7.57 1.27 1.27 1.27h4.22c.7 0 1.27-.57 1.27-1.27v-4.22c0-.7-.57-1.27-1.27-1.27h-4.22c-.7 0-1.27.57-1.27 1.27v4.22zM24 32.48c0 .7.57 1.27 1.27 1.27h4.22c.7 0 1.27-.57 1.27-1.27v-4.22c0-.7-.57-1.27-1.27-1.27h-4.22c-.7 0-1.27.57-1.27 1.27v4.22zm0 13.5c0 .7.57 1.27 1.27 1.27h4.22c.7 0 1.27-.57 1.27-1.27v-4.22c0-.7-.57-1.27-1.27-1.27h-4.22c-.7 0-1.27.57-1.27 1.27v4.22zm13.5-13.5c0 .7.57 1.27 1.27 1.27h4.22c.7 0 1.27-.57 1.27-1.27v-4.22c0-.7-.57-1.27-1.27-1.27h-4.22c-.7 0-1.27.57-1.27 1.27v4.22zm0 13.5c0 .7.57 1.27 1.27 1.27h4.22c.7 0 1.27-.57 1.27-1.27v-4.22c0-.7-.57-1.27-1.27-1.27h-4.22c-.7 0-1.27.57-1.27 1.27v4.22z" fill="#727272"/></svg>