<?xml version="1.0" encoding="utf-8"?>
<!-- Generator: Adobe Illustrator 26.0.1, SVG Export Plug-In . SVG Version: 6.00 Build 0)  -->
<svg version="1.1" id="Warstwa_79" xmlns="http://www.w3.org/2000/svg" xmlns:xlink="http://www.w3.org/1999/xlink" x="0px" y="0px"
	 viewBox="0 0 54 54" style="enable-background:new 0 0 54 54;" xml:space="preserve">
<style type="text/css">
	.st0{fill:#7D7D7D;}
</style>
<path class="st0" d="M41.86,29.73c0-1.14,0.92-2.05,2.07-2.05c1.14,0,2.02,0.92,2.02,2.05l0,20.09c0,1.15-0.89,2.04-2.02,2.04h-0.07
	l-33.78,0c-1.14,0-2.04-0.89-2.04-2.04v-0.06l0-20.03c0-1.14,0.9-2.05,2.04-2.05c1.14,0,2.07,0.92,2.07,2.05l0,18.01h6.58l0-20.25
	c0-0.64,0.54-1.21,1.24-1.21h0.03h14.01c0.7,0,1.27,0.57,1.27,1.21v0.06v20.19h6.58V29.73L41.86,29.73z M21.2,47.73L21.2,47.73h11.6
	l0-19.01H21.2L21.2,47.73L21.2,47.73z M3.81,30.28L3.81,30.28L26.99,7.1l23.18,23.18c0.82,0.81,2.1,0.81,2.91,0
	c0.8-0.8,0.8-2.1,0-2.9L28.47,2.81l-0.03-0.03c-0.82-0.84-2.1-0.84-2.91,0L0.92,27.38c-0.8,0.8-0.8,2.1,0,2.9
	C1.71,31.1,3.02,31.1,3.81,30.28L3.81,30.28z"/>
</svg>
