<?xml version="1.0" encoding="utf-8"?>
<!-- Generator: Adobe Illustrator 26.0.1, SVG Export Plug-In . SVG Version: 6.00 Build 0)  -->
<svg version="1.1" id="Warstwa_64" xmlns="http://www.w3.org/2000/svg" xmlns:xlink="http://www.w3.org/1999/xlink" x="0px" y="0px"
	 viewBox="0 0 54 54" style="enable-background:new 0 0 54 54;" xml:space="preserve">
<style type="text/css">
	.st0{fill:#727272;}
</style>
<path class="st0" d="M53.87,6.13V0.13h0h-5.99H6.15H0.13v5.99l0,0l0,41.72h0v6.02h0v0h6.02v0h41.72v0h5.99v0l0,0v-6.02l0,0V6.13
	L53.87,6.13z M48.87,48.85H5.15l0-43.72h43.72L48.87,48.85z"/>
<g>
	<path class="st0" d="M17.07,8.63c-5.1,0-9.25,4.15-9.25,9.25s4.15,9.25,9.25,9.25s9.25-4.15,9.25-9.25S22.17,8.63,17.07,8.63z
		 M17.07,26.13c-4.55,0-8.25-3.7-8.25-8.25s3.7-8.25,8.25-8.25c4.55,0,8.25,3.7,8.25,8.25S21.62,26.13,17.07,26.13z"/>
	<path class="st0" d="M39.19,10.89c-3.85,0-6.99,3.14-6.99,6.99s3.14,6.99,6.99,6.99s6.99-3.14,6.99-6.99S43.04,10.89,39.19,10.89z
		 M39.19,23.87c-3.3,0-5.99-2.69-5.99-5.99s2.69-5.99,5.99-5.99c3.3,0,5.99,2.69,5.99,5.99S42.49,23.87,39.19,23.87z"/>
</g>
<path class="st0" d="M16.51,31.01c-3.85,0-6.99,3.14-6.99,6.99s3.14,6.99,6.99,6.99c3.85,0,6.99-3.14,6.99-6.99
	S20.36,31.01,16.51,31.01z M16.51,43.99c-3.3,0-5.99-2.69-5.99-5.99s2.69-5.99,5.99-5.99c3.3,0,5.99,2.69,5.99,5.99
	S19.81,43.99,16.51,43.99z"/>
<path class="st0" d="M38.62,31.01c-3.85,0-6.99,3.14-6.99,6.99s3.14,6.99,6.99,6.99c3.85,0,6.99-3.14,6.99-6.99
	S42.48,31.01,38.62,31.01z M38.62,43.99c-3.3,0-5.99-2.69-5.99-5.99s2.69-5.99,5.99-5.99c3.3,0,5.99,2.69,5.99,5.99
	S41.92,43.99,38.62,43.99z"/>
</svg>
