<svg xmlns="http://www.w3.org/2000/svg" viewBox="0 0 54 54" xmlns:v="https://vecta.io/nano"><path d="M10.13 23.13l5.5-4.81 12.51 13.22 7.96-8.41 7.77 7.21V10.88H10.13v12.25zm0 4.36v15.62h8l7.96-9.15L15.5 22.61l-5.37 4.88zM22 43.32l21.87-.2v-7.99l-7.96-7.51L22 43.32zM8.81 7.08H45.2c1.26 0 2.27 1.08 2.27 2.4v35.03c0 1.33-1.02 2.4-2.27 2.4H8.81c-1.26 0-2.27-1.08-2.27-2.4V9.48c-.01-1.32 1.01-2.4 2.27-2.4zm23.95 14.04c-1.88 0-3.41-1.61-3.41-3.61S30.88 14 32.76 14s3.41 1.52 3.41 3.51-1.53 3.61-3.41 3.61z" fill="#fff"/></svg>