<?xml version="1.0" encoding="utf-8"?>
<!-- Generator: Adobe Illustrator 25.4.1, SVG Export Plug-In . SVG Version: 6.00 Build 0)  -->
<svg version="1.1" id="Warstwa_27" xmlns="http://www.w3.org/2000/svg" xmlns:xlink="http://www.w3.org/1999/xlink" x="0px" y="0px"
	 viewBox="0 0 54 54" style="enable-background:new 0 0 54 54;" xml:space="preserve">
<style type="text/css">
	.st0{fill:#727272;}
</style>
<g>
	<path class="st0" d="M52.61,18.75l-2.65-2.65c-0.89-0.89-2.16-1.22-3.33-0.93c0.28-1.17-0.04-2.44-0.93-3.33l-5.75-5.75
		c-0.53-0.53-1.2-0.87-1.91-0.99c-0.12-0.71-0.45-1.38-0.99-1.91l-1.8-1.8c-1.38-1.38-3.62-1.38-5,0L12.18,19.46
		c-1.38,1.38-1.38,3.62,0,5l3.85,3.85c0.36,0.36,0.54,0.86,0.48,1.37c-0.06,0.51-0.34,0.96-0.77,1.23
		C4.27,38.21,3.19,39.29,2.73,39.75c-3.17,3.18-3.18,8.34,0,11.52c3.17,3.18,8.34,3.18,11.52,0c0.46-0.46,1.54-1.54,8.85-13.01
		c0.27-0.43,0.72-0.71,1.23-0.76c0.51-0.06,1.01,0.12,1.37,0.48l3.85,3.85c1.38,1.38,3.62,1.38,5,0l18.07-18.07
		C53.99,22.37,53.99,20.13,52.61,18.75z M32.04,39.32l-3.85-3.85c-1.12-1.12-2.68-1.66-4.25-1.49c-1.57,0.17-2.98,1.05-3.82,2.38
		c-3.24,5.09-7.32,11.37-8.37,12.41c-1.8,1.8-4.72,1.8-6.52,0c-1.8-1.8-1.8-4.72,0-6.52c1.05-1.05,7.33-5.13,12.41-8.37
		c1.33-0.85,2.21-2.25,2.38-3.82c0.17-1.57-0.38-3.13-1.49-4.25l-3.85-3.85l2.81-2.81l0,0l17.37,17.37L32.04,39.32z M37.35,34.01
		L37.35,34.01L19.99,16.65L32.75,3.88l1.8,1.8l-2.02,4.47c-0.07,0.15-0.04,0.33,0.08,0.45c0,0,0,0,0,0c0.12,0.12,0.3,0.15,0.45,0.07
		l4.37-2.1l5.75,5.75l-7.69,11.46c-0.11,0.16-0.09,0.37,0.05,0.51c0,0,0,0,0,0c0.14,0.14,0.35,0.16,0.51,0.05l11.4-7.74l2.65,2.65
		L37.35,34.01z"/>
	<circle class="st0" cx="9.04" cy="44.96" r="2.08"/>
</g>
</svg>
