<?xml version="1.0" encoding="utf-8"?>
<!-- Generator: Adobe Illustrator 26.0.0, SVG Export Plug-In . SVG Version: 6.00 Build 0)  -->
<svg version="1.1" id="Warstwa_61" xmlns="http://www.w3.org/2000/svg" xmlns:xlink="http://www.w3.org/1999/xlink" x="0px" y="0px"
	 viewBox="0 0 54 54" style="enable-background:new 0 0 54 54;" xml:space="preserve">
<path d="M54,26.98l-4.18-1.4C49.11,13.98,39.71,4.69,28.06,4.16l-1-4.16l-1,4.15C13.89,4.64,4.14,14.69,4.13,26.98h-4.14l4.19,1.4
	C4.89,40.35,14.85,49.87,27,49.87c0.02,0,0.04,0,0.05,0V54l1.4-4.18C40.39,49.07,49.87,39.12,49.87,27c0-0.01,0-0.01,0-0.02H54z
	 M42.84,10.88c2.24,2.21,4.03,4.88,5.2,7.85c-0.71,0.28-1.52,0.59-2.33,0.91c-1.04-2.64-2.62-5.02-4.62-6.98L42.84,10.88z
	 M35.7,6.13c-0.31,0.72-0.66,1.56-0.97,2.3c-1.87-0.78-3.89-1.28-6-1.46l-0.61-2.55C30.8,4.54,33.35,5.14,35.7,6.13z M28.74,23
	v-5.07h1.12v6.82h-1.12l-3.36-5.08v5.08h-1.12v-6.82h1.12L28.74,23z M18.77,5.94l0.89,2.34c-2.64,1.04-5.02,2.61-6.98,4.6
	l-1.78-1.75C13.11,8.89,15.79,7.11,18.77,5.94z M4.39,26.98c0-3.08,0.63-6.02,1.75-8.7l2.3,0.96c-1,2.38-1.56,5-1.56,7.74H4.92H4.39
	z M11.14,43.1c-2.24-2.2-4.01-4.87-5.19-7.83l2.33-0.92c1.04,2.64,2.61,5.01,4.6,6.97L11.14,43.1z M18.37,47.9l0.94-2.31
	c2.37,0.98,4.96,1.53,7.68,1.53c0.02,0,0.04,0,0.05,0v2.49c-0.02,0-0.04,0-0.05,0C23.95,49.61,21.03,49,18.37,47.9z M35.32,48.02
	c-0.3-0.77-0.66-1.68-0.92-2.33c2.63-1.05,4.99-2.62,6.94-4.61l1.78,1.75C40.93,45.07,38.28,46.85,35.32,48.02z M27,46.86
	C16.05,46.86,7.14,37.95,7.14,27c0-10.39,8.02-18.93,18.2-19.78L20.6,26.98h5.26c0,0.01,0,0.01,0,0.02c0,0.63,0.51,1.15,1.15,1.15
	s1.15-0.51,1.15-1.15c0-0.01,0-0.01,0-0.02h5.39L28.8,7.23C38.91,8.14,46.86,16.65,46.86,27C46.86,37.95,37.95,46.86,27,46.86z
	 M47.89,35.64c-0.68-0.29-1.49-0.63-2.3-0.97c0.98-2.37,1.53-4.96,1.53-7.68c0-0.01,0-0.01,0-0.02l2.49,0c0,0.01,0,0.01,0,0.02
	C49.61,30.06,49,32.98,47.89,35.64z"/>
</svg>
