<svg xmlns="http://www.w3.org/2000/svg" viewBox="0 0 54 54" xmlns:v="https://vecta.io/nano"><path d="M52.95 47.16L37.02 31.23a2.05 2.05 0 0 0-1.46-.6c-.5 0-.98.18-1.35.51l-2.25-2.25A17.41 17.41 0 0 0 30.59 5.8C23.8-1 12.75-1 5.96 5.79c-6.81 6.81-6.81 17.83 0 24.63 6.26 6.26 16.22 6.79 23.09 1.37l2.25 2.25c-.71.81-.68 2.04.09 2.81l15.93 15.93c.8.8 2.11.8 2.91 0l1.36-1.36 1.36-1.36c.8-.8.8-2.1 0-2.9zM27.68 27.51c-5.2 5.2-13.61 5.2-18.81 0s-5.2-13.61 0-18.81c5.19-5.19 13.63-5.19 18.81 0 5.2 5.2 5.2 13.62 0 18.81z" fill="#fff"/></svg>