<svg xmlns="http://www.w3.org/2000/svg" xmlns:xlink="http://www.w3.org/1999/xlink" viewBox="0 0 54 54" xmlns:v="https://vecta.io/nano"><use xlink:href="#B" fill-opacity=".7"/><use xlink:href="#B" fill="none" stroke="#fff"/><defs ><path id="B" d="M48.11 7.44C35.94-1.61 28.4 10.5 27.12 12.8 25.84 10.5 18.3-1.61 6.13 7.44c-4.06 3.02-10.65 16.26 4.01 28.4 3.52 2.91 10.84 8 14.66 11.81.78.73 1.52 1.57 2.2 2.51.05.06.08.13.13.19.05-.06.08-.13.13-.19.68-.95 1.42-1.79 2.2-2.52 3.82-3.82 11.13-8.89 14.65-11.81 14.65-12.13 8.06-25.37 4-28.39z"/></defs></svg>