<svg xmlns="http://www.w3.org/2000/svg" width="24.1" height="24.1" viewBox="0 0 24.1 24.1"><defs><style>.a,.b,.d{fill:none;}.a,.b{stroke:#002349;}.b{stroke-linecap:round;stroke-linejoin:round;}.c{stroke:none;}</style></defs><g class="a"><rect class="c" width="24.1" height="24.1" rx="3"/><rect class="d" x="0.5" y="0.5" width="23.1" height="23.1" rx="2.5"/></g><g transform="translate(4.59 4.591)"><path class="b" d="M6.794,3h7.588a3.794,3.794,0,0,1,3.794,3.794v7.588a3.794,3.794,0,0,1-3.794,3.794H6.794A3.794,3.794,0,0,1,3,14.382V6.794A3.794,3.794,0,0,1,6.794,3Z" transform="translate(-3 -3)"/><path class="b" d="M18.1,14.525a3.035,3.035,0,1,1-2.557-2.557A3.035,3.035,0,0,1,18.1,14.525Z" transform="translate(-7.479 -7.415)"/><path class="b" d="M26.25,9.75h0" transform="translate(-14.489 -6.335)"/></g></svg>