<svg xmlns="http://www.w3.org/2000/svg" xmlns:xlink="http://www.w3.org/1999/xlink" viewBox="0 0 1205.7 299.8"><defs><path id="a" d="M85.8 52.1C82.2 54 78.7 56 75.3 58c-3.8 2.4-6.1 6.6-10.3 8.5-5.2 2.3-12.9 2.6-18.3 4.3-6.7 3.1-15.8 7.3-41.4 54.7-4.3 8.7-2.7 10.2-2.2 10.5.4.2 1.1.3 1.5.1 7.8-2.5 7.8-2.5 15.8-3.5-2.1 4.2-2.8 6.7-2.8 9.8.1 2.3.3 4.7.5 7.2.9 6.8 7 5.8 12.5 1.9 16.7-12.4 36.1-23.4 57.6-32.8 9.1-4.3 14.9-12.1 14.7-19.9-1.4-18.1-2-33.5-1.7-46-.2-2.6-2-3.9-4.9-3.9-2.6 0-6.2 1.1-10.5 3.2"/></defs><clipPath id="b"><use xlink:href="#a" overflow="visible"/></clipPath><linearGradient id="c" gradientUnits="userSpaceOnUse" x1="0" y1="298.757" x2="1" y2="298.757" gradientTransform="scale(-89.6616 89.6616) rotate(-33.4 -496.158 151.343)"><stop offset="0" stop-color="#39b6b8"/><stop offset="1" stop-color="#26878a"/></linearGradient><path clip-path="url(#b)" fill="url(#c)" d="M72.2 203.5l-120.7-79.6L32 1.9l120.6 79.6z"/><defs><path id="d" d="M90.2 136.4c-28 11.4-52.2 25.3-72 40.8-6.2 5.3-9.7 13.1-9.1 20.5.1.5.1 1.1.2 1.6.4 3.1.8 6.3 1.2 9.4.9 5.1 2.5 5.9 6.7 7.9-9 20.5-9 20.5-15.7 36.4-3.3 8.6-.1 13.5 1.4 15.2 10.6 11.6 25.1 18 37.3 27.3 1.3.9 4.2 2.9 8.4 2.7 6.4-.4 6.4-.4 31.4-43l3.5 2.4c4 2.4 6.9 3 11.5 2.1 4.6-1.1 9.3-2.2 14.1-3.3 9.3-2.7 14.4-10.8 13.1-20.7-5.5-29.9-10.3-59.6-13.9-87.8l-.3-2.1c-1.2-6.9-5.4-10.6-11.4-10.6-2 0-4.1.4-6.4 1.2"/></defs><clipPath id="e"><use xlink:href="#d" overflow="visible"/></clipPath><linearGradient id="f" gradientUnits="userSpaceOnUse" x1="0" y1="298.786" x2="1" y2="298.786" gradientTransform="scale(-111.3943 111.3943) rotate(-.9 -18897.279 191.212)"><stop offset="0" stop-color="#c9d200"/><stop offset="1" stop-color="#779913"/></linearGradient><path clip-path="url(#e)" fill="url(#f)" d="M123.5 300.5l-127.9-2 2.6-165.3 127.9 2z"/><defs><path id="g" d="M174.9 17.3l-3.5-.8c-4-.7-7.3-.6-12.8.4-5.5 1.2-11 2.5-16.3 4-9.6 2.9-16.3 7.4-18 12-1.1 15-.7 34.2 1.2 58 1.3 8.8 10.3 10.8 18.7 8.8 6.2-1.6 12.5-3 18.9-4.4 26.9-5.5 53.8-8.3 79.9-8.6 10.4-.5 16.8-5.3 16.7-12.7-.3-3.7-.6-7.4-.8-10.8-.7-5.1-3.3-6.8-9.2-10.7 17.4-8.9 20.1-10.2 34.8-14.8 4.3-1.4 5-2.8 5.1-5.4C287 24.8 253.1 8 239.2 2.5c-3.8-1.2-7.7-2.5-13.4-2.5-9.6 0-24.1 3.6-50.9 17.3"/></defs><clipPath id="h"><use xlink:href="#g" overflow="visible"/></clipPath><linearGradient id="i" gradientUnits="userSpaceOnUse" x1="0" y1="299.272" x2="1" y2="299.272" gradientTransform="matrix(166.0195 0 0 -166.0195 123.64 49735.793)"><stop offset="0" stop-color="#932683"/><stop offset="1" stop-color="#5d1253"/></linearGradient><path clip-path="url(#h)" fill="url(#i)" d="M123.1 0h166.5v101.8H123.1z"/><defs><path id="j" d="M165 113.9c-6.4 1.3-12.7 2.7-18.9 4.3-10.3 3.1-16.3 11-15.6 20.6l.3 2.1c5.1 39.6 12.4 82.3 20.9 124.1 2.6 10 10.8 15.3 21.3 13.7 6.3-1.3 12.6-2.5 19-3.9 1.2-.2 2.4-.5 3.5-.7 8-2 8-2 19.7-18.9 29.6 18.2 38.4 23.6 64.4 38 1.9.9 5.8 2.8 11.5 1.7 4.5-.9 8.7-3.5 11.4-7 17.3-22.7 30.9-47.8 47.8-70.7 2.2-3.3 3.5-6.6 2.2-11.7-1.1-3-1.1-3-62.1-48.8l7.7-8.3c2.9-3.5 3.8-6.1 3.4-10.5-.8-5.4-1.5-10.7-2.2-16-.1-.6-.2-1.3-.2-1.9-1.6-8.4-8.8-14.2-18.8-15.1-7-.3-14.2-.5-21.4-.5-30.4-.1-62.1 3-93.9 9.5"/></defs><clipPath id="k"><use xlink:href="#j" overflow="visible"/></clipPath><linearGradient id="l" gradientUnits="userSpaceOnUse" x1="0" y1="299.008" x2="1" y2="299.008" gradientTransform="scale(164.3378 -164.3378) rotate(-53.1 -299.55 147.696)"><stop offset="0" stop-color="#f6a906"/><stop offset="1" stop-color="#e95e1d"/></linearGradient><path clip-path="url(#k)" fill="url(#l)" d="M273.1-3.3l172.8 230.2-235.4 176.7L37.7 173.4z"/><path d="M442.7 38.4h28.1v124.9h-28.1z"/><defs><path id="m" d="M0 0h1205.7v299.8H0z"/></defs><clipPath id="n"><use xlink:href="#m" overflow="visible"/></clipPath><path d="M497.8 71.7c4.6-1.3 10.4-2.6 17.7-3.7 7.2-1.1 14.8-1.7 22.7-1.7 8.1 0 14.8 1 20.1 3.1 5.3 2.1 9.6 5.1 12.7 8.9 3.1 3.8 5.3 8.4 6.6 13.7 1.3 5.3 2 11.2 2 17.7v53.5h-26.8v-50.3c0-8.6-1.1-14.8-3.4-18.4-2.3-3.6-6.6-5.4-12.8-5.4-1.9 0-4 .1-6.1.3-2.2.2-4.1.4-5.8.6v73.2h-26.8V71.7zM603 44.9l26.8-4.3v27.9h32.3v22.4h-32.3v33.3c0 5.6 1 10.2 3 13.5 2 3.4 6 5 12 5 2.9 0 5.9-.3 8.9-.8 3.1-.5 5.9-1.3 8.4-2.3l3.8 20.9c-3.2 1.3-6.9 2.5-10.8 3.4-4 1-8.8 1.4-14.6 1.4-7.3 0-13.4-1-18.2-3-4.8-2-8.6-4.7-11.5-8.3-2.9-3.5-4.9-7.8-6-12.9-1.2-5.1-1.7-10.6-1.7-16.8V44.9zm135.9 61.4c-.1-2.3-.5-4.5-1.2-6.7s-1.7-4.1-3.1-5.8c-1.4-1.7-3.1-3-5.2-4.1-2.1-1.1-4.7-1.6-7.8-1.6-3 0-5.6.5-7.7 1.5-2.2 1-4 2.4-5.4 4.1-1.4 1.7-2.6 3.6-3.3 5.8-.8 2.2-1.4 4.5-1.7 6.8h35.4zm-63.1 10.2c0-8.4 1.3-15.8 3.9-22.1 2.6-6.3 6-11.5 10.2-15.7 4.2-4.2 9-7.4 14.5-9.6 5.5-2.1 11.1-3.2 16.9-3.2 13.4 0 24.1 4.1 31.9 12.3 7.8 8.2 11.7 20.3 11.7 36.3 0 1.6-.1 3.3-.2 5.1-.1 1.9-.2 3.5-.3 5h-60.9c.6 5.5 3.2 9.9 7.8 13.1 4.6 3.2 10.7 4.9 18.4 4.9 4.9 0 9.8-.4 14.5-1.3 4.7-.9 8.6-2 11.6-3.3l3.6 21.8c-1.4.7-3.4 1.4-5.8 2.2-2.4.7-5.1 1.4-8 1.9-2.9.5-6.1 1-9.4 1.4-3.4.4-6.7.5-10.1.5-8.5 0-15.9-1.3-22.3-3.8-6.3-2.5-11.5-6-15.7-10.4-4.2-4.4-7.2-9.6-9.2-15.6-2.1-6-3.1-12.5-3.1-19.5m132.6-3.7c0 15 6.1 22.5 18.2 22.5 2.8 0 5.4-.4 7.8-1.1 2.4-.7 4.4-1.6 6.1-2.5V88.8c-1.3-.2-2.9-.4-4.7-.6-1.8-.2-3.9-.3-6.3-.3-7.1 0-12.4 2.3-15.9 7-3.4 4.7-5.2 10.7-5.2 17.9m58.9 38.5c0 15.5-3.9 27-11.8 34.5S835.5 197 819 197c-5.7 0-11.5-.5-17.3-1.5-5.8-1-11.1-2.4-16-4.1l4.7-22.5c4.2 1.7 8.6 3 13.2 3.9 4.6 1 9.9 1.4 15.8 1.4 7.7 0 13.1-1.7 16.3-5.1 3.2-3.4 4.8-7.7 4.8-13v-3.4c-2.9 1.3-5.8 2.3-8.9 3-3.1.7-6.4 1-10 1-13.1 0-23.1-3.9-30.1-11.6-7-7.8-10.4-18.6-10.4-32.5 0-6.9 1.1-13.3 3.2-19 2.2-5.7 5.3-10.6 9.5-14.7 4.1-4.1 9.2-7.2 15.2-9.5 6-2.2 12.8-3.3 20.3-3.3 3.2 0 6.6.2 10 .5 3.4.3 6.8.7 10.2 1.2 3.4.5 6.6 1 9.6 1.7 3.1.7 5.8 1.3 8.2 2.1v79.7zm82.4-59.1c-2.4-.6-5.2-1.2-8.5-1.9-3.2-.6-6.7-1-10.4-1-1.7 0-3.7.1-6 .4-2.3.3-4.1.6-5.3 1v72.4h-26.8V73.5c4.8-1.7 10.5-3.3 17-4.8s13.9-2.3 21.9-2.3c1.4 0 3.2.1 5.2.3 2 .2 4.1.4 6.1.7 2 .3 4.1.7 6.1 1.1 2 .4 3.8.9 5.2 1.5l-4.5 22.2zm99.8 67.8c-4.6 1.3-10.4 2.6-17.6 3.7-7.2 1.1-14.8 1.7-22.7 1.7-8 0-14.7-1.1-20.1-3.3-5.3-2.2-9.6-5.2-12.7-9.1-3.1-3.9-5.3-8.6-6.7-14-1.3-5.4-2-11.4-2-17.9V68.4h26.8V118c0 8.6 1.1 14.9 3.4 18.7 2.3 3.9 6.5 5.8 12.8 5.8 1.9 0 4-.1 6.1-.3 2.2-.2 4.1-.4 5.8-.6V68.4h26.8V160zm77.3-47.1c0-8.6-1.1-14.8-3.3-18.4-2.2-3.6-6-5.4-11.4-5.4-1.7 0-3.4.1-5.2.3-1.8.2-3.5.4-5.2.6v73.2h-26.8V71.7c2.3-.6 5-1.2 8-1.9 3.1-.7 6.3-1.3 9.7-1.8 3.4-.5 6.9-1 10.5-1.2 3.6-.3 7.2-.5 10.6-.5 6.8 0 12.4.9 16.7 2.6 4.3 1.7 7.8 3.8 10.5 6.2 3.8-2.8 8.3-4.9 13.2-6.5 5-1.6 9.6-2.3 13.8-2.3 7.5 0 13.8 1 18.6 3.2 4.9 2.1 8.7 5.1 11.6 8.9 2.9 3.8 4.9 8.4 5.9 13.7 1.1 5.3 1.6 11.2 1.6 17.7v53.5h-26.8V113c0-8.6-1.1-14.8-3.3-18.4-2.2-3.6-6-5.4-11.4-5.4-1.4 0-3.5.4-6 1.1-2.6.7-4.7 1.6-6.4 2.7.9 2.8 1.4 5.7 1.6 8.8.2 3.1.4 6.3.4 9.8v51.7h-26.8v-50.4zm-649.4 157c-.7-1.7-1.6-3.8-2.8-6.4-1.2-2.6-2.4-5.4-3.7-8.4-1.3-3-2.7-6.1-4.3-9.3-1.5-3.2-2.9-6.2-4.3-9-1.3-2.8-2.6-5.4-3.7-7.6-1.2-2.2-2.1-3.9-2.8-5.1-.8 8.3-1.4 17.2-1.9 26.8-.5 9.6-.9 19.4-1.3 29.2h-10c.3-6.3.6-12.7.9-19.1.3-6.4.7-12.7 1.2-18.9.5-6.2.9-12.2 1.5-18.1.5-5.9 1.1-11.5 1.7-16.7h8.9c1.9 3.1 3.9 6.7 6.1 10.9 2.2 4.2 4.3 8.6 6.5 13.2s4.3 9.2 6.3 13.8c2 4.6 3.9 8.8 5.6 12.5 1.7-3.8 3.5-8 5.6-12.5 2-4.6 4.1-9.2 6.3-13.8 2.2-4.6 4.3-9 6.5-13.2 2.2-4.2 4.2-7.9 6.1-10.9h8.9c2.4 23.5 4.2 47.7 5.4 72.8h-10c-.4-9.8-.8-19.5-1.2-29.2-.5-9.6-1.1-18.6-1.9-26.8-.7 1.2-1.6 2.9-2.8 5.1-1.2 2.2-2.4 4.8-3.7 7.6-1.3 2.8-2.7 5.9-4.3 9-1.5 3.2-2.9 6.3-4.3 9.3-1.3 3-2.6 5.8-3.7 8.4-1.1 2.6-2.1 4.7-2.8 6.4h-8zm76.7 3.1c2.3 0 4.3-.1 6.1-.2 1.8-.1 3.3-.3 4.5-.6v-16.3c-.7-.3-1.8-.6-3.4-.9-1.6-.2-3.5-.4-5.7-.4-1.5 0-3 .1-4.7.3-1.6.2-3.1.7-4.5 1.3-1.4.7-2.5 1.6-3.4 2.7-.9 1.2-1.4 2.7-1.4 4.6 0 3.5 1.1 5.9 3.4 7.3 2.2 1.5 5.2 2.2 9.1 2.2m-.8-49c3.9 0 7.2.5 9.9 1.5s4.9 2.4 6.5 4.3c1.6 1.9 2.8 4.1 3.5 6.6.7 2.6 1.1 5.4 1.1 8.5v34.2c-.9.1-2 .4-3.5.6-1.5.2-3.2.5-5.1.7-1.9.2-3.9.4-6.1.6-2.2.2-4.4.3-6.6.3-3.1 0-5.9-.3-8.5-1-2.6-.6-4.8-1.6-6.7-3-1.9-1.4-3.4-3.2-4.4-5.4-1-2.2-1.6-4.9-1.6-8.1 0-3 .6-5.6 1.9-7.8 1.2-2.2 2.9-3.9 5-5.3 2.1-1.3 4.6-2.3 7.4-2.9 2.8-.6 5.7-1 8.8-1 1 0 2 .1 3.1.2s2.1.3 3 .4c1 .2 1.8.3 2.5.5.7.1 1.2.2 1.5.3v-2.7c0-1.6-.2-3.2-.5-4.8-.3-1.6-1-3-1.9-4.2-.9-1.2-2.2-2.2-3.7-2.9-1.6-.7-3.6-1.1-6.1-1.1-3.2 0-6 .2-8.4.7-2.4.5-4.2 1-5.4 1.4l-1.1-8.1c1.2-.6 3.3-1.1 6.3-1.6 2.4-.6 5.6-.9 9.1-.9m37.2 2.9c2.2-.6 5.2-1.2 8.9-1.8 3.7-.6 8-.9 12.8-.9 4.3 0 8 .6 10.8 1.9 2.9 1.2 5.2 2.9 6.9 5.1 1.7 2.2 2.9 4.9 3.6 7.9.7 3.1 1.1 6.5 1.1 10.2V280h-9.8v-28.6c0-3.3-.2-6.2-.7-8.6-.5-2.4-1.2-4.3-2.3-5.8-1-1.5-2.5-2.5-4.2-3.2-1.8-.7-3.9-1-6.5-1-1.1 0-2.1 0-3.3.1-1.1.1-2.2.2-3.2.3-1 .1-1.9.2-2.7.4-.8.1-1.4.2-1.7.3V280h-9.8v-53.1zm78.8 46.1c2.3 0 4.4-.1 6.1-.2 1.8-.1 3.3-.3 4.5-.6v-16.3c-.7-.3-1.8-.6-3.4-.9-1.6-.2-3.5-.4-5.7-.4-1.5 0-3 .1-4.7.3-1.6.2-3.1.7-4.5 1.3-1.4.7-2.5 1.6-3.4 2.7-.9 1.2-1.4 2.7-1.4 4.6 0 3.5 1.1 5.9 3.3 7.3 2.3 1.5 5.3 2.2 9.2 2.2m-.9-49c3.9 0 7.2.5 9.9 1.5s4.9 2.4 6.5 4.3c1.6 1.9 2.8 4.1 3.5 6.6.7 2.6 1.1 5.4 1.1 8.5v34.2c-.8.1-2 .4-3.5.6-1.5.2-3.2.5-5.1.7-1.9.2-3.9.4-6.1.6-2.2.2-4.4.3-6.6.3-3.1 0-5.9-.3-8.5-1-2.6-.6-4.8-1.6-6.7-3-1.9-1.4-3.4-3.2-4.4-5.4-1-2.2-1.6-4.9-1.6-8.1 0-3 .6-5.6 1.8-7.8 1.2-2.2 2.9-3.9 5-5.3 2.1-1.3 4.6-2.3 7.4-2.9 2.8-.6 5.7-1 8.8-1 1 0 2 .1 3 .2 1.1.1 2.1.3 3 .4 1 .2 1.8.3 2.5.5.7.1 1.2.2 1.5.3v-2.7c0-1.6-.2-3.2-.5-4.8-.4-1.6-1-3-1.9-4.2-.9-1.2-2.2-2.2-3.7-2.9-1.6-.7-3.6-1.1-6.1-1.1-3.2 0-6 .2-8.5.7-2.4.5-4.2 1-5.4 1.4l-1.1-8.1c1.3-.6 3.4-1.1 6.3-1.6 2.8-.6 6-.9 9.4-.9m71.4 10c-1-.3-2.3-.6-3.9-.8-1.7-.3-3.9-.4-6.7-.4-5.2 0-9.3 1.7-12.1 5.2-2.8 3.4-4.3 8-4.3 13.7 0 3.1.4 5.8 1.2 8.1.8 2.2 1.9 4.1 3.2 5.6 1.4 1.5 3 2.6 4.7 3.3 1.8.7 3.6 1 5.5 1 2.6 0 5-.4 7.1-1.1 2.2-.7 3.9-1.6 5.1-2.6v-32zm.1 40.6c-.8.6-2.5 1.3-4.9 2.1-2.4.9-5.2 1.3-8.5 1.3s-6.4-.5-9.3-1.6c-2.9-1.1-5.4-2.7-7.6-4.9-2.2-2.2-3.9-5-5.1-8.2-1.3-3.3-1.9-7.2-1.9-11.8 0-4 .6-7.6 1.8-11 1.2-3.3 2.9-6.2 5.2-8.6 2.3-2.4 5.1-4.3 8.4-5.7 3.3-1.4 7-2.1 11.2-2.1 4.5 0 8.5.3 11.9 1 3.4.7 6.3 1.3 8.6 1.9v48.7c0 8.4-2.2 14.5-6.5 18.3-4.4 3.8-10.9 5.7-19.8 5.7-3.4 0-6.7-.3-9.7-.8-3-.6-5.7-1.2-7.9-2l1.8-8.5c1.9.8 4.4 1.4 7.2 2 2.8.6 5.8.9 8.9.9 5.8 0 10-1.2 12.5-3.5 2.6-2.3 3.8-6 3.8-11v-2.2zm60.9-27.2c.1-4.4-1-8-3.3-10.9-2.3-2.8-5.4-4.3-9.4-4.3-2.3 0-4.2.4-6 1.3-1.7.9-3.2 2-4.4 3.4-1.2 1.4-2.1 3-2.8 4.8-.7 1.8-1.1 3.7-1.3 5.6h27.2zm-37.5 5.4c0-4.8.7-9 2.1-12.6 1.4-3.6 3.3-6.6 5.6-9 2.3-2.4 5-4.2 8-5.4 3-1.2 6.1-1.8 9.3-1.8 7.4 0 13 2.3 16.9 6.9s5.9 11.6 5.9 21v1.6c0 .7 0 1.3-.1 1.9h-37.4c.4 5.7 2.1 10 4.9 12.9 2.9 3 7.4 4.4 13.4 4.4 3.5 0 6.3-.3 8.7-.9 2.4-.6 4.1-1.2 5.3-1.7l1.4 8.2c-1.2.6-3.3 1.3-6.2 2-3 .7-6.4 1.1-10.1 1.1-4.8 0-8.9-.7-12.4-2.2-3.5-1.4-6.3-3.4-8.6-5.9-2.2-2.5-3.9-5.5-5-9-1.1-3.6-1.7-7.4-1.7-11.5m61.8-25.9c2.3-.6 5.2-1.2 8.9-1.8 3.7-.6 8-.9 12.8-.9 3.5 0 6.4.5 8.8 1.4 2.4.9 4.4 2.3 6 4.1.5-.3 1.3-.8 2.3-1.5 1-.7 2.4-1.2 3.9-1.8 1.5-.6 3.3-1.1 5.2-1.6 1.9-.5 3.9-.7 6.1-.7 4.2 0 7.6.6 10.3 1.9 2.7 1.2 4.7 3 6.3 5.2 1.5 2.2 2.5 4.9 3.1 8 .5 3.1.8 6.4.8 10.1V280h-9.8v-28.6c0-3.2-.2-6-.5-8.3-.3-2.3-.9-4.2-1.8-5.8-.9-1.5-2.1-2.7-3.6-3.4-1.5-.7-3.5-1.1-5.8-1.1-3.3 0-6 .4-8.1 1.3-2.1.9-3.6 1.7-4.4 2.4.6 1.8 1 3.8 1.3 6 .3 2.2.4 4.4.4 6.8V280h-9.8v-28.6c0-3.2-.2-6-.5-8.3-.4-2.3-1-4.2-1.8-5.8-.9-1.5-2.1-2.7-3.6-3.4-1.5-.7-3.4-1.1-5.7-1.1-1 0-2 0-3.1.1s-2.2.2-3.2.3c-1 .1-1.9.2-2.8.4-.8.1-1.4.2-1.7.3V280h-9.8v-53.1zm125 20.5c.1-4.4-1-8-3.3-10.9-2.3-2.8-5.4-4.3-9.4-4.3-2.2 0-4.2.4-5.9 1.3-1.7.9-3.2 2-4.4 3.4-1.2 1.4-2.1 3-2.8 4.8-.7 1.8-1.1 3.7-1.3 5.6h27.1zm-37.6 5.4c0-4.8.7-9 2.1-12.6 1.4-3.6 3.3-6.6 5.5-9 2.3-2.4 5-4.2 8-5.4 3-1.2 6.1-1.8 9.2-1.8 7.4 0 13 2.3 16.9 6.9 3.9 4.6 5.9 11.6 5.9 21v1.6c0 .7-.1 1.3-.1 1.9h-37.4c.4 5.7 2.1 10 4.9 12.9 2.9 3 7.4 4.4 13.5 4.4 3.4 0 6.3-.3 8.7-.9 2.3-.6 4.1-1.2 5.3-1.7l1.4 8.2c-1.2.6-3.3 1.3-6.3 2s-6.4 1.1-10.1 1.1c-4.8 0-8.9-.7-12.4-2.2-3.5-1.4-6.3-3.4-8.5-5.9-2.3-2.5-3.9-5.5-5-9-1-3.6-1.6-7.4-1.6-11.5m61.8-25.9c2.2-.6 5.2-1.2 8.9-1.8 3.7-.6 8-.9 12.8-.9 4.3 0 7.9.6 10.8 1.9 2.9 1.2 5.2 2.9 6.9 5.1 1.7 2.2 2.9 4.9 3.6 7.9.7 3.1 1.1 6.5 1.1 10.2V280h-9.8v-28.6c0-3.3-.2-6.2-.7-8.6-.5-2.4-1.2-4.3-2.3-5.8-1-1.5-2.4-2.5-4.2-3.2-1.8-.7-3.9-1-6.5-1-1 0-2.1 0-3.2.1s-2.2.2-3.2.3c-1 .1-1.9.2-2.7.4-.8.1-1.4.2-1.7.3V280h-9.8v-53.1zm69.5-1.5h20.7v8.2h-20.7v25.2c0 2.7.2 5 .6 6.8.4 1.8 1.1 3.2 1.9 4.2.9 1 1.9 1.7 3.1 2.2 1.3.4 2.7.6 4.4.6 2.9 0 5.3-.3 7.1-1 1.8-.6 3-1.1 3.7-1.4l1.9 8.1c-1 .5-2.7 1.1-5.2 1.8s-5.2 1.1-8.4 1.1c-3.7 0-6.8-.5-9.2-1.4-2.4-1-4.4-2.3-5.9-4.3-1.5-1.9-2.5-4.2-3.1-7-.6-2.8-.9-6-.9-9.6v-48.8l9.8-1.7v17z" clip-path="url(#n)"/></svg>