<?xml version="1.0" encoding="utf-8"?>
<!-- Generator: Adobe Illustrator 16.0.0, SVG Export Plug-In . SVG Version: 6.00 Build 0)  -->
<!DOCTYPE svg PUBLIC "-//W3C//DTD SVG 1.1//EN" "http://www.w3.org/Graphics/SVG/1.1/DTD/svg11.dtd">
<svg version="1.1" id="Layer_1" xmlns="http://www.w3.org/2000/svg" xmlns:xlink="http://www.w3.org/1999/xlink" x="0px" y="0px"
	 width="190px" height="48px" viewBox="0 0 190 48" enable-background="new 0 0 190 48" xml:space="preserve">
<g>
	<g>
		<path fill="#048169" d="M0,47.039h10.466V14.247c0,0-4.141-3.905-10.466-5.459V47.039z M131.86,47.039h10.466V20.841V8.788
			c-6.323,1.554-10.466,5.459-10.466,5.459V47.039z M28.773,8.168c-8.713,0.307-14.818,6.079-14.818,6.079v32.792H24.42V21.275
			c0.407-1.652,2.765-2.76,4.55-3.147c3.822-0.832,8.008,1.454,8.008,5.508v23.403h0.698h9.767V23.127
			C47.443,12.097,37.501,7.859,28.773,8.168z M184.459,25.811c-1.009-10.084-9.432-17.688-19.589-17.688
			c-10.856,0-19.688,8.838-19.688,19.701c0,10.859,8.832,19.693,19.688,19.693c5.124,0,9.964-1.986,13.689-5.605l1.345,5.127H190
			L184.459,25.811z M164.87,37.24c-5.187,0-9.405-4.219-9.405-9.406c0-5.184,4.219-9.404,9.405-9.404s9.405,4.22,9.405,9.404
			C174.275,33.021,170.057,37.24,164.87,37.24z M88.398,8.212c-10.814,0-19.61,8.797-19.61,19.608
			c0,10.814,8.796,19.609,19.61,19.609c8.115,0,15.278-4.883,18.248-12.436l0.16-0.41H95.502l-0.087,0.092
			c-1.864,1.906-4.356,2.957-7.017,2.957c-3.888,0-7.449-2.35-8.996-5.891h28.208l0.047-0.244c0.231-1.225,0.35-2.459,0.35-3.678
			C108.006,17.009,99.21,8.212,88.398,8.212z M79.55,23.572c1.63-3.394,5.056-5.563,8.848-5.563s7.213,2.168,8.845,5.563H79.55z
			 M125.751,8.168c-8.715,0.307-14.819,6.079-14.819,6.079v32.792h10.465V20.776c1.226-1.884,5.345-2.695,6.976-2.763V8.215
			C127.493,8.154,126.616,8.138,125.751,8.168z M61.396,8.635V0H50.932v41.424c0,0,6.104,5.771,14.819,6.08
			c0.866,0.029,1.743,0.014,2.623-0.047V37.66c-1.63-0.068-5.751-0.879-6.977-2.766V19.131h6.977V8.667h-6.977V8.635z"/>
	</g>
</g>
</svg>
