<?xml version="1.0" encoding="UTF-8" standalone="no"?>
<svg width="26px" height="26px" viewBox="0 0 26 26" version="1.1" xmlns="http://www.w3.org/2000/svg" xmlns:xlink="http://www.w3.org/1999/xlink">
    <!-- Generator: Sketch 39.1 (31720) - http://www.bohemiancoding.com/sketch -->
    <title>interconnect</title>
    <desc>Created with Sketch.</desc>
    <defs></defs>
    <g id="Custom-Icons" stroke="none" stroke-width="1" fill="none" fill-rule="evenodd">
        <g id="Sprites-Copy" transform="translate(-267.000000, -53.000000)" fill="#FFFFFF">
            <g id="Layer_1-Copy-7" transform="translate(267.000000, 55.000000)">
                <rect id="Rectangle-path" x="19.4331984" y="9.25657895" width="5.46558704" height="2.48684211"></rect>
                <rect id="Rectangle-path" x="17.611336" y="2.625" width="2.4291498" height="15.75"></rect>
                <rect id="Rectangle-path" x="0.607287449" y="9.25657895" width="4.8582996" height="2.48684211"></rect>
                <path d="M20.0404858,2.625 L7.48987854,2.625 L7.48987854,0.552631579 C7.48987854,0.303947368 7.69230769,0.138157895 7.89473684,0.138157895 L19.6356275,0.138157895 C19.8785425,0.138157895 20.0404858,0.345394737 20.0404858,0.552631579 L20.0404858,2.625 L20.0404858,2.625 Z" id="Shape"></path>
                <path d="M19.6356275,20.8618421 L7.89473684,20.8618421 C7.65182186,20.8618421 7.48987854,20.6546053 7.48987854,20.4473684 L7.48987854,18.375 L20.0404858,18.375 L20.0404858,20.4473684 C20.0404858,20.6546053 19.8380567,20.8618421 19.6356275,20.8618421 L19.6356275,20.8618421 Z" id="Shape"></path>
                <path d="M5.42510121,15.4736842 C5.22267206,15.4736842 5.06072874,15.3078947 5.06072874,15.1006579 L5.06072874,5.89934211 C5.06072874,5.69210526 5.22267206,5.52631579 5.42510121,5.52631579 L14.4129555,5.52631579 C14.6153846,5.52631579 14.7773279,5.69210526 14.7773279,5.89934211 L14.7773279,15.1006579 C14.7773279,15.3078947 14.6153846,15.4736842 14.4129555,15.4736842 L5.42510121,15.4736842 Z" id="Shape"></path>
            </g>
        </g>
    </g>
</svg>