<?xml version="1.0" encoding="UTF-8"?>
<svg width="24px" height="24px" viewBox="0 0 24 24" version="1.1" xmlns="http://www.w3.org/2000/svg" xmlns:xlink="http://www.w3.org/1999/xlink">
    <!-- Generator: Sketch 43.2 (39069) - http://www.bohemiancoding.com/sketch -->
    <title>IOT White 24@3x</title>
    <desc>Created with Sketch.</desc>
    <defs></defs>
    <g id="Page-1" stroke="none" stroke-width="1" fill="none" fill-rule="evenodd">
        <g id="IOT-White-24" fill-rule="nonzero" fill="#FFFFFF">
            <path d="M12.5795186,19.0771116 L12.5795186,12.4936543 L11.3191247,12.4936543 L11.3191247,19.0771116 C10.1198775,19.3937984 9.34191542,20.5512825 9.50158735,21.7813188 C9.66125928,23.0113551 10.7089651,23.9318479 11.9493217,23.9318479 C13.1896783,23.9318479 14.237384,23.0113551 14.397056,21.7813188 C14.5567279,20.5512825 13.7787658,19.3937984 12.5795186,19.0771116 Z M11.9493217,22.6713348 C11.2822294,22.6713348 10.7414442,22.1305496 10.7414442,21.4634573 C10.7414442,20.796365 11.2822294,20.2555799 11.9493217,20.2555799 C12.616414,20.2555799 13.1571991,20.796365 13.1571991,21.4634573 C13.15662,22.1303096 12.6161739,22.6707557 11.9493217,22.6713348 Z" id="Shape"></path>
            <path d="M18.8961926,15.9954486 L18.8961926,12.5031072 L17.6357987,12.5031072 L17.6357987,15.9954486 C16.4365514,16.3121354 15.6585894,17.4696195 15.8182613,18.6996558 C15.9779332,19.9296921 17.025639,20.8501849 18.2659956,20.8501849 C19.5063522,20.8501849 20.554058,19.9296921 20.7137299,18.6996558 C20.8734019,17.4696195 20.0954398,16.3121354 18.8961926,15.9954486 Z M18.2659956,19.5896718 C17.5989033,19.5896718 17.0581182,19.0488866 17.0581182,18.3817943 C17.0581182,17.714702 17.5989033,17.1739168 18.2659956,17.1739168 C18.9330879,17.1739168 19.4738731,17.714702 19.4738731,18.3817943 C19.473294,19.0486466 18.9328479,19.5890927 18.2659956,19.5896718 Z" id="Shape"></path>
            <path d="M6.2838512,16.0332604 L6.2838512,12.4978556 L5.02345733,12.4978556 L5.02345733,15.9954486 C3.78494293,16.3225047 3.00244862,17.5426546 3.22186058,18.8046935 C3.44127254,20.0667323 4.58966336,20.9511879 5.86588899,20.8410435 C7.14211461,20.7308991 8.1219875,19.6627641 8.1219256,18.3817943 C8.12977729,17.2668157 7.36805123,16.2935474 6.2838512,16.0332604 Z M5.65365427,19.5907221 C4.98656197,19.5907221 4.44577681,19.0499369 4.44577681,18.3828446 C4.44577681,17.7157523 4.98656197,17.1749672 5.65365427,17.1749672 C6.32074657,17.1749672 6.86153173,17.7157523 6.86153173,18.3828446 C6.86037395,19.0492867 6.32009708,19.5890938 5.65365427,19.5896718 L5.65365427,19.5907221 Z" id="Shape"></path>
            <path d="M19.1944858,3.3452954 C18.6984657,3.34505117 18.2057157,3.42557979 17.7355799,3.58371991 C16.6961465,1.38724808 14.4770253,-0.00687401583 12.047082,0.0100256272 C9.61713865,0.0269252702 7.41762275,1.45177788 6.40884026,3.66249453 C4.69519,2.98900791 2.74481135,3.40786557 1.45878029,4.72555505 C0.172749221,6.04324453 -0.19856265,8.00323077 0.516390954,9.69999911 C1.23134456,11.3967675 2.89337253,12.4999817 4.73461707,12.4999562 L4.83964989,12.4999562 L4.83964989,12.4999562 L5.02450766,12.4999562 L5.02450766,9.11159737 C4.46637179,8.82121827 4.17890096,8.18705638 4.32836977,7.57591422 C4.47783858,6.96477205 5.02554987,6.53487308 5.6547046,6.53487308 C6.28385932,6.53487308 6.83157061,6.96477205 6.98103942,7.57591422 C7.13050823,8.18705638 6.8430374,8.82121827 6.28490153,9.11159737 L6.28490153,12.4989059 L17.6357987,12.4989059 L17.6357987,9.11159737 C17.0776628,8.82121827 16.790192,8.18705638 16.9396608,7.57591422 C17.0891296,6.96477205 17.6368409,6.53487308 18.2659956,6.53487308 C18.8951504,6.53487308 19.4428616,6.96477205 19.5923305,7.57591422 C19.7417993,8.18705638 19.4543284,8.82121827 18.8961926,9.11159737 L18.8961926,12.4873523 C18.9949234,12.4936543 19.0947046,12.4989059 19.1944858,12.4989059 C21.7224756,12.4989059 23.7718162,10.4495653 23.7718162,7.92157549 C23.7718162,5.39358571 21.7224756,3.34424508 19.1944858,3.34424508 L19.1944858,3.3452954 Z M12.5774179,7.20105033 L12.5774179,12.4989059 L11.3170241,12.4989059 L11.3170241,7.20105033 C10.7588882,6.91067122 10.4714174,6.27650933 10.6208862,5.66536717 C10.770355,5.054225 11.3180663,4.62432603 11.947221,4.62432603 C12.5763757,4.62432603 13.124087,5.054225 13.2735558,5.66536717 C13.4230246,6.27650933 13.1355538,6.91067122 12.5774179,7.20105033 L12.5774179,7.20105033 Z" id="Shape"></path>
        </g>
    </g>
</svg>