<?xml version="1.0" encoding="UTF-8"?>
<svg width="144px" height="128px" viewBox="0 0 144 128" version="1.1" xmlns="http://www.w3.org/2000/svg" xmlns:xlink="http://www.w3.org/1999/xlink">
    <!-- Generator: Sketch 43.2 (39069) - http://www.bohemiancoding.com/sketch -->
    <title>IOT Hexagon 128@3x</title>
    <desc>Created with Sketch.</desc>
    <defs></defs>
    <g id="Page-1" stroke="none" stroke-width="1" fill="none" fill-rule="evenodd">
        <g id="IOT-Hexagon-128" fill-rule="nonzero">
            <g id="Art">
                <path d="M31.3389934,121.303107 L1.92980306,70.3635886 C-0.371706557,66.377257 -0.371706557,61.465894 1.92980306,57.4795624 L31.3389934,6.54004376 C33.6401444,2.55433332 37.8925778,0.098747883 42.4948796,0.0980306346 L101.31326,0.0980306346 C105.915562,0.098747883 110.167996,2.55433332 112.469147,6.54004376 L141.878337,57.4795624 C144.179847,61.465894 144.179847,66.377257 141.878337,70.3635886 L112.469147,121.303107 C110.167996,125.288818 105.915562,127.744403 101.31326,127.74512 L42.4948796,127.74512 C37.8925778,127.744403 33.6401444,125.288818 31.3389934,121.303107 L31.3389934,121.303107 Z" id="Shape" fill="#4285F4"></path>
                <path d="M99.2434136,43.8813129 L70.8621444,41.4893654 L67.6411379,40.7527352 L67.2602188,40.9740044 L63.0196937,40.3326039 L63.887965,42.9206127 L61.3391685,44.3938731 L45.2341357,49.7155361 L43.6936543,61.7592998 L69.6465646,87.6309847 L67.3414442,94.0533917 L99.795186,126.507133 L101.041575,127.705908 C105.559387,127.80954 109.872735,125.652867 112.541969,121.174267 L135.974092,80.595186 L99.2434136,43.8813129 Z" id="Shape" fill="#000000" opacity="0.07"></path>
            </g>
            <g id="Guides" transform="translate(40.332604, 31.929978)" fill="#FFFFFF">
                <path d="M33.212779,50.9423195 L33.212779,33.3864333 L29.8517287,33.3864333 L29.8517287,50.9423195 C26.653736,51.7868176 24.5791705,54.8734419 25.0049623,58.1535387 C25.4307541,61.4336356 28.2246363,63.888283 31.5322538,63.888283 C34.8398714,63.888283 37.6337535,61.4336356 38.0595453,58.1535387 C38.4853371,54.8734419 36.4107716,51.7868176 33.212779,50.9423195 Z M31.5322538,60.5269147 C29.753341,60.5269147 28.3112473,59.0848209 28.3112473,57.3059081 C28.3112473,55.5269953 29.753341,54.0849015 31.5322538,54.0849015 C33.3111666,54.0849015 34.7532604,55.5269953 34.7532604,57.3059081 C34.7517161,59.0841808 33.3105266,60.5253704 31.5322538,60.5269147 Z" id="Shape"></path>
                <path d="M50.0572429,42.7245514 L50.0572429,33.4116411 L46.6961926,33.4116411 L46.6961926,42.7245514 C43.4981999,43.5690495 41.4236344,46.6556738 41.8494262,49.9357707 C42.275218,53.2158675 45.0691002,55.670515 48.3767177,55.670515 C51.6843353,55.670515 54.4782174,53.2158675 54.9040092,49.9357707 C55.329801,46.6556738 53.2552355,43.5690495 50.0572429,42.7245514 Z M48.3767177,52.3091466 C46.5978049,52.3091466 45.1557112,50.8670528 45.1557112,49.08814 C45.1557112,47.3092272 46.5978049,45.8671335 48.3767177,45.8671335 C50.1556305,45.8671335 51.5977243,47.3092272 51.5977243,49.08814 C51.59618,50.8664128 50.1549905,52.3076023 48.3767177,52.3091466 Z" id="Shape"></path>
                <path d="M16.4243326,42.8253829 L16.4243326,33.3976368 L13.0632823,33.3976368 L13.0632823,42.7245514 C9.7605772,43.5967011 7.67392571,46.8504342 8.25902427,50.2158711 C8.84412283,53.581308 11.9064984,55.9398562 15.3097667,55.6461378 C18.713035,55.3524194 21.3260294,52.5040595 21.3258643,49.08814 C21.3468022,46.1148637 19.3155327,43.5194816 16.4243326,42.8253829 Z M14.7438074,52.3119475 C12.9648946,52.3119475 11.5228009,50.8698537 11.5228009,49.0909409 C11.5228009,47.3120281 12.9648946,45.8699344 14.7438074,45.8699344 C16.5227202,45.8699344 17.964814,47.3120281 17.964814,49.0909409 C17.9617266,50.8681197 16.5209883,52.3076053 14.7438074,52.3091466 L14.7438074,52.3119475 Z" id="Shape"></path>
                <path d="M50.8526915,8.99080963 C49.5299713,8.99015833 48.2159712,9.20490132 46.9622757,9.62660832 C44.1904534,3.76935011 38.272797,0.0516911729 31.792948,0.0967568877 C25.3130991,0.141822602 19.4477234,3.94142955 16.7576368,9.83667396 C12.1879027,8.04070964 6.986893,9.1576634 3.55747682,12.671502 C0.12806065,16.1853406 -0.862104338,21.4119706 1.0444386,25.9366862 C2.95098155,30.4614018 7.38305613,33.4033064 12.2930416,33.4032385 L12.5731291,33.4032385 L12.5731291,33.4032385 L13.0660832,33.4032385 L13.0660832,24.3676149 C11.5777208,23.5932706 10.8111319,21.9021722 11.2097154,20.2724598 C11.6082989,18.6427473 13.0688624,17.4963501 14.7466083,17.4963501 C16.4243543,17.4963501 17.8849177,18.6427473 18.2835012,20.2724598 C18.6820847,21.9021722 17.9154958,23.5932706 16.4271335,24.3676149 L16.4271335,33.4004376 L46.6961926,33.4004376 L46.6961926,24.3676149 C45.2078302,23.5932706 44.4412414,21.9021722 44.8398249,20.2724598 C45.2384084,18.6427473 46.6989718,17.4963501 48.3767177,17.4963501 C50.0544637,17.4963501 51.5150271,18.6427473 51.9136106,20.2724598 C52.3121941,21.9021722 51.5456052,23.5932706 50.0572429,24.3676149 L50.0572429,33.369628 C50.3205252,33.3864333 50.5866083,33.4004376 50.8526915,33.4004376 C57.5939976,33.4004376 63.0589059,27.9355293 63.0589059,21.1942232 C63.0589059,14.4529171 57.5939976,8.98800875 50.8526915,8.98800875 L50.8526915,8.99080963 Z M33.2071772,19.2728228 L33.2071772,33.4004376 L29.8461269,33.4004376 L29.8461269,19.2728228 C28.3577646,18.4984785 27.5911757,16.8073801 27.9897592,15.1776677 C28.3883427,13.5479552 29.8489061,12.401558 31.5266521,12.401558 C33.204398,12.401558 34.6649615,13.5479552 35.063545,15.1776677 C35.4621284,16.8073801 34.6955396,18.4984785 33.2071772,19.2728228 L33.2071772,19.2728228 Z" id="Shape"></path>
            </g>
        </g>
    </g>
</svg>