<?xml version="1.0" encoding="UTF-8"?>
<svg width="23px" height="24px" viewBox="0 0 23 24" version="1.1" xmlns="http://www.w3.org/2000/svg" xmlns:xlink="http://www.w3.org/1999/xlink">
    <!-- Generator: Sketch 42 (36781) - http://www.bohemiancoding.com/sketch -->
    <title>JobsAPI_white</title>
    <desc>Created with Sketch.</desc>
    <defs></defs>
    <g id="Page-1" stroke="none" stroke-width="1" fill="none" fill-rule="evenodd">
        <g id="Artboard" transform="translate(-250.000000, -404.000000)" fill="#FFFFFF">
            <g id="JobsAPI_white" transform="translate(250.000000, 404.000000)">
                <path d="M5.38521905,19.4868952 C7.25874286,19.4868952 8.7776,17.9680381 8.7776,16.0945143 C8.7776,14.2209905 7.25874286,12.7025143 5.38521905,12.7025143 C3.51169524,12.7025143 1.9928381,14.2209905 1.9928381,16.0945143 C1.9928381,17.9680381 3.51169524,19.4868952 5.38521905,19.4868952 Z M9.57112381,18.9867048 L12.9330286,22.3630857 C13.081981,22.512419 13.0808381,22.7539429 12.9315048,22.9025143 L12.1676952,23.6590857 C12.0183619,23.8072762 11.7776,23.8065143 11.6294095,23.6575619 L8.27131429,20.2846095 C7.45112381,20.8507048 6.45721905,21.1828952 5.38521905,21.1828952 C4.59474286,21.1828952 3.84655238,21.0027048 3.17912381,20.681181 C2.88274286,20.5383238 2.60198095,20.3676571 2.34064762,20.1722286 C2.20998095,20.0743238 2.08426667,19.9707048 1.96388571,19.8609905 C1.90369524,19.8065143 1.84464762,19.7501333 1.78712381,19.6926095 C1.44198095,19.3474667 1.14598095,18.9528 0.910933333,18.5200381 C0.754361905,18.2316571 0.624838095,17.9265143 0.525409524,17.6076571 C0.500647619,17.5280381 0.477790476,17.4476571 0.456838095,17.3661333 C0.415314286,17.2038476 0.381028571,17.0381333 0.355504762,16.8693714 C0.316647619,16.6168 0.296838095,16.3581333 0.296838095,16.0945143 C0.296838095,13.2842286 2.57493333,11.0061333 5.38521905,11.0061333 C8.19550476,11.0061333 10.4736,13.2842286 10.4736,16.0945143 C10.4736,17.169181 10.1398857,18.1653714 9.57112381,18.9867048 Z" id="Fill-7"></path>
                <path d="M10.008,4.3927619 L16.6853333,4.3927619 L16.6853333,1.8887619 L10.008,1.8887619 L10.008,4.3927619 Z M21.9782857,4.3927619 L18.3546667,4.3927619 L18.3546667,1.8887619 C18.3546667,0.966857143 17.6072381,0.219428571 16.6853333,0.219428571 L10.008,0.219428571 C9.08609524,0.219428571 8.33866667,0.966857143 8.33866667,1.8887619 L8.33866667,4.3927619 L4.71504762,4.3927619 C4.41142857,4.3927619 4.16533333,4.63885714 4.16533333,4.94247619 L4.16533333,9.27580952 C4.56152381,9.20533333 4.9687619,9.16647619 5.38514286,9.16647619 C9.21142857,9.16647619 12.3131429,12.2685714 12.3131429,16.0944762 C12.3131429,16.3718095 12.2952381,16.6441905 12.263619,16.9127619 L21.9782857,16.9127619 C22.2819048,16.9127619 22.528,16.6666667 22.528,16.3630476 L22.528,4.94247619 C22.528,4.63885714 22.2819048,4.3927619 21.9782857,4.3927619 L21.9782857,4.3927619 Z" id="Fill-9"></path>
                <path d="M18.3547048,1.8888 C18.3547048,1.42784762 18.1680381,1.01032381 17.8659429,0.708228571 C17.5638476,0.406133333 17.1463238,0.219466667 16.6853714,0.219466667" id="Fill-11"></path>
                <path d="M22.5280381,4.94251429 C22.5280381,4.79089524 22.4667048,4.65337143 22.3668952,4.55394286 C22.2674667,4.45451429 22.1303238,4.3928 21.9783238,4.3928" id="Fill-12"></path>
            </g>
        </g>
    </g>
</svg>