<?xml version="1.0" encoding="UTF-8"?>
<svg width="128px" height="116px" viewBox="0 0 128 116" version="1.1" xmlns="http://www.w3.org/2000/svg" xmlns:xlink="http://www.w3.org/1999/xlink">
    <!-- Generator: Sketch 42 (36781) - http://www.bohemiancoding.com/sketch -->
    <title>JobsAPI</title>
    <desc>Created with Sketch.</desc>
    <defs>
        <path d="M37.75,0.389 C33.641,0.389 29.845,2.581 27.791,6.139 L1.541,51.606 C0.523,53.368 0.01,55.333 0,57.299 L0,57.412 C0.01,59.378 0.523,61.343 1.541,63.105 L27.791,108.572 C29.845,112.13 33.641,114.322 37.75,114.322 L90.25,114.322 C94.359,114.322 98.155,112.13 100.209,108.572 L126.459,63.105 C127.477,61.343 127.99,59.378 128,57.411 L128,57.3 C127.99,55.333 127.477,53.368 126.459,51.606 L100.209,6.139 C98.155,2.581 94.359,0.389 90.25,0.389 L37.75,0.389 Z M0,0.389 L128,0.389 L128,114.322 L0,114.322 L0,0.389 Z" id="path-1"></path>
        <path d="M100.169417,6.27390105 C98.061017,2.61822105 94.239117,0.389 90.305617,0.389 L37.696917,0.389 C33.482017,0.389 29.801117,2.86266737 27.831917,6.27147579 L1.52751703,51.9741453 C-0.579582971,55.6297242 -0.436782971,60.0119726 1.52521703,63.4238126 L27.829617,109.427215 C29.937917,113.082288 33.760317,115.520891 37.693917,115.520891 L90.302117,115.520891 C94.518717,115.520891 98.199017,112.861084 100.168217,109.453488 L126.471317,63.6563347 C128.580217,60.0005537 128.436817,55.47956 126.473817,52.0684274 L100.169417,6.27390105 Z" id="path-3"></path>
        <polygon id="path-5" points="0 115 128 115 128 0.389 0 0.389"></polygon>
    </defs>
    <g id="Page-1" stroke="none" stroke-width="1" fill="none" fill-rule="evenodd">
        <g id="Product-Logos" transform="translate(-169.000000, -724.000000)">
            <g id="JobsAPI" transform="translate(169.000000, 723.000000)">
                <g id="Layer_1">
                    <path d="M100.169417,6.88490105 C98.061017,3.22922105 94.239117,1 90.305617,1 L37.696917,1 C33.482017,1 29.801117,3.47366737 27.831917,6.88247579 L1.52751703,52.5851453 C-0.579582971,56.2407242 -0.436782971,60.6229726 1.52521703,64.0348126 L27.829617,110.038215 C29.937917,113.693288 33.760317,116.131891 37.693917,116.131891 L90.302117,116.131891 C94.518717,116.131891 98.199017,113.472084 100.168217,110.064488 L126.471317,64.2673347 C128.580217,60.6115537 128.436817,56.09056 126.473817,52.6794274 L100.169417,6.88490105 Z" id="Shape" fill="#4487FB"></path>
                    <g id="Page-1">
                        <g id="Group-3" transform="translate(0.000000, 1.611000)">
                            <mask id="mask-2" fill="white">
                                <use xlink:href="#path-1"></use>
                            </mask>
                            <g id="Clip-2"></g>
                            <path d="M37.75,0.389 C33.641,0.389 29.845,2.581 27.791,6.139 L27.791,6.139 L1.541,51.606 C0.523,53.368 0.01,55.333 0,57.299 L0,57.299 L0,57.412 C0.01,59.378 0.523,61.343 1.541,63.105 L1.541,63.105 L27.791,108.572 C29.845,112.13 33.641,114.322 37.75,114.322 L37.75,114.322 L90.25,114.322 C94.359,114.322 98.155,112.13 100.209,108.572 L100.209,108.572 L126.459,63.105 C127.477,61.343 127.99,59.378 128,57.411 L128,57.411 L128,57.3 C127.99,55.333 127.477,53.368 126.459,51.606 L126.459,51.606 L100.209,6.139 C98.155,2.581 94.359,0.389 90.25,0.389 L90.25,0.389 L37.75,0.389 Z" id="Fill-1" mask="url(#mask-2)"></path>
                        </g>
                        <g id="Group-6" transform="translate(0.000000, 0.611000)">
                            <mask id="mask-4" fill="white">
                                <use xlink:href="#path-3"></use>
                            </mask>
                            <use id="Shape" fill="#4487FB" xlink:href="#path-3"></use>
                            <polygon id="Fill-4" fill="#407ADE" mask="url(#mask-4)" points="120.0116 76.2519 87.7136 43.9539 85.9056 43.8679 75.8976 33.8599 52.7266 35.9379 52.7266 45.9459 39.9336 56.3489 47.4396 63.8549 38.8156 63.3759 32.1446 70.6509 33.6916 83.6929 65.9976 115.9999 97.0626 115.4899"></polygon>
                        </g>
                        <g id="Group-13" transform="translate(0.000000, 1.611000)">
                            <path d="M43.1362,82.1531 C48.0542,82.1531 52.0412,78.1661 52.0412,73.2481 C52.0412,68.3301 48.0542,64.3441 43.1362,64.3441 C38.2182,64.3441 34.2312,68.3301 34.2312,73.2481 C34.2312,78.1661 38.2182,82.1531 43.1362,82.1531 Z M54.1242,80.8401 L62.9492,89.7031 C63.3402,90.0951 63.3372,90.7291 62.9452,91.1191 L60.9402,93.1051 C60.5482,93.4941 59.9162,93.4921 59.5272,93.1011 L50.7122,84.2471 C48.5592,85.7331 45.9502,86.6051 43.1362,86.6051 C41.0612,86.6051 39.0972,86.1321 37.3452,85.2881 C36.5672,84.9131 35.8302,84.4651 35.1442,83.9521 C34.8012,83.6951 34.4712,83.4231 34.1552,83.1351 C33.9972,82.9921 33.8422,82.8441 33.6912,82.6931 C32.7852,81.7871 32.0082,80.7511 31.3912,79.6151 C30.9802,78.8581 30.6402,78.0571 30.3792,77.2201 C30.3142,77.0111 30.2542,76.8001 30.1992,76.5861 C30.0902,76.1601 30.0002,75.7251 29.9332,75.2821 C29.8312,74.6191 29.7792,73.9401 29.7792,73.2481 C29.7792,65.8711 35.7592,59.8911 43.1362,59.8911 C50.5132,59.8911 56.4932,65.8711 56.4932,73.2481 C56.4932,76.0691 55.6172,78.6841 54.1242,80.8401 Z" id="Fill-7" fill="#FFFFFF"></path>
                            <mask id="mask-6" fill="white">
                                <use xlink:href="#path-5"></use>
                            </mask>
                            <g id="Clip-10"></g>
                            <path d="M55.271,42.531 L72.799,42.531 L72.799,35.958 L55.271,35.958 L55.271,42.531 Z M86.693,42.531 L77.181,42.531 L77.181,35.958 C77.181,33.538 75.219,31.576 72.799,31.576 L55.271,31.576 C52.851,31.576 50.889,33.538 50.889,35.958 L50.889,42.531 L41.377,42.531 C40.58,42.531 39.934,43.177 39.934,43.974 L39.934,55.349 C40.974,55.164 42.043,55.062 43.136,55.062 C53.18,55.062 61.322,63.205 61.322,73.248 C61.322,73.976 61.275,74.691 61.192,75.396 L86.693,75.396 C87.49,75.396 88.136,74.75 88.136,73.953 L88.136,43.974 C88.136,43.177 87.49,42.531 86.693,42.531 L86.693,42.531 Z" id="Fill-9" fill="#FFFFFF" mask="url(#mask-6)"></path>
                            <path d="M77.1811,35.9581 C77.1811,34.7481 76.6911,33.6521 75.8981,32.8591 C75.1051,32.0661 74.0091,31.5761 72.7991,31.5761" id="Fill-11" fill="#FFFFFF" mask="url(#mask-6)"></path>
                            <path d="M88.1361,43.9741 C88.1361,43.5761 87.9751,43.2151 87.7131,42.9541 C87.4521,42.6931 87.0921,42.5311 86.6931,42.5311" id="Fill-12" fill="#FFFFFF" mask="url(#mask-6)"></path>
                        </g>
                    </g>
                </g>
            </g>
        </g>
    </g>
</svg>