<?xml version="1.0" encoding="UTF-8"?>
<svg width="27px" height="24px" viewBox="0 0 27 24" version="1.1" xmlns="http://www.w3.org/2000/svg" xmlns:xlink="http://www.w3.org/1999/xlink">
    <!-- Generator: Sketch 48.2 (47327) - http://www.bohemiancoding.com/sketch -->
    <title>Cloud KMS</title>
    <desc>Created with Sketch.</desc>
    <defs>
        <linearGradient x1="50.0003516%" y1="0%" x2="50.0003516%" y2="99.8449123%" id="linearGradient-1">
            <stop stop-color="#4387FD" offset="0%"></stop>
            <stop stop-color="#4683EA" offset="100%"></stop>
        </linearGradient>
    </defs>
    <g id="logos" stroke="none" stroke-width="1" fill="none" fill-rule="evenodd" transform="translate(-165.000000, -346.000000)">
        <g id="Cloud-KMS" transform="translate(165.000000, 346.000000)">
            <g id="IAM_128px-Copy">
                <g id="IAM">
                    <path d="M5.85075789,22.7888632 L0.324336842,13.2111368 C-0.108104634,12.4616142 -0.108104634,11.5383858 0.324336842,10.7888632 L5.85065263,1.21113684 C6.28291091,0.461748571 7.08224993,2.22129628e-05 7.94736842,0 L19,0 C19.8650508,8.99263375e-05 20.6643019,0.461807206 21.0965263,1.21113684 L26.6228421,10.7888632 C27.0552836,11.5383858 27.0552836,12.4616142 26.6228421,13.2111368 L21.0965263,22.7888632 C20.6643019,23.5381928 19.8650508,23.9999101 19,24 L7.94736842,24 C7.08228754,23.9999402 6.28299738,23.5382189 5.85075789,22.7888632 L5.85075789,22.7888632 Z" id="Shape" fill="url(#linearGradient-1)"></path>
                    <path d="M19.0001474,7.89436849 L11.249566,6.71196832 L9.89473684,15.0526316 L10.394694,16.8052842 L17.5823572,23.9929053 L19.0001474,23.9929053 C19.8650571,23.9928848 20.6642527,23.5314323 21.0966737,22.7823789 L25.785536,14.6664497 L19.0001474,7.89436849 Z" id="Shape" fill="#000000" opacity="0.07"></path>
                </g>
            </g>
            <g id="security-key-(2)" transform="translate(8.000000, 5.500000)" fill="#FFFFFF" fill-rule="nonzero">
                <path d="M5.5,0 L11,2.36363636 L11,5.90909091 C11,9.18863636 8.65333333,12.2554545 5.5,13 C2.34666667,12.2554545 0,9.18863636 0,5.90909091 L0,2.36363636 L5.5,0 Z M4.88888889,6.42553511 L4.88888889,10.6363636 L6.11111111,10.6363636 L6.11111111,10.0454545 L6.72222222,10.0454545 L6.72222222,8.86363636 L6.11111111,8.86363636 L6.11111111,8.27272727 L6.72222222,8.27272727 L6.72222222,7.09090909 L6.11111111,7.09090909 L6.11111111,6.42553511 C7.16541662,6.16314619 7.94444444,5.2377233 7.94444444,4.13636364 C7.94444444,2.83096332 6.85002939,1.77272727 5.5,1.77272727 C4.14997061,1.77272727 3.05555556,2.83096332 3.05555556,4.13636364 C3.05555556,5.2377233 3.83458337,6.16314619 4.88888889,6.42553511 Z M5.5,5.31818182 C6.17501469,5.31818182 6.72222222,4.7890638 6.72222222,4.13636364 C6.72222222,3.48366348 6.17501469,2.95454545 5.5,2.95454545 C4.82498531,2.95454545 4.27777778,3.48366348 4.27777778,4.13636364 C4.27777778,4.7890638 4.82498531,5.31818182 5.5,5.31818182 Z" id="Shape"></path>
            </g>
        </g>
    </g>
</svg>