<svg xmlns="http://www.w3.org/2000/svg" xmlns:xlink="http://www.w3.org/1999/xlink" width="128" height="128" viewBox="0 0 128 128"><defs><linearGradient id="a" x1="63.9997" y1="7.0336" x2="63.9997" y2="120.7894" gradientUnits="userSpaceOnUse"><stop offset="0" stop-color="#4387fd"/><stop offset="1" stop-color="#4683ea"/></linearGradient><clipPath id="b"><path d="M27.7911,115.2166L1.5406,69.7493a11.499,11.499,0,0,1,0-11.499l26.25-45.4672a11.499,11.499,0,0,1,9.9585-5.75H90.25a11.499,11.499,0,0,1,9.9585,5.75l26.25,45.4672a11.499,11.499,0,0,1,0,11.499l-26.25,45.4672a11.499,11.499,0,0,1-9.9585,5.75H37.75A11.499,11.499,0,0,1,27.7911,115.2166Z" fill="none"/></clipPath></defs><title> Cloud-Launcher</title><path d="M27.7906,115.2166L1.54,69.7493a11.499,11.499,0,0,1,0-11.499L27.7906,12.7831a11.4991,11.4991,0,0,1,9.9585-5.75H90.25a11.4991,11.4991,0,0,1,9.9585,5.75L126.4594,58.25a11.499,11.499,0,0,1,0,11.499l-26.2506,45.4672a11.4991,11.4991,0,0,1-9.9585,5.75H37.7491A11.4991,11.4991,0,0,1,27.7906,115.2166Z" fill="url(#a)"/><g clip-path="url(#b)"><polygon points="117.792 90.875 76.01 49.094 54.417 50.333 54.91 73.082 47.91 66.082 45.417 91 76.208 121.792 98 122 117.792 90.875" opacity="0.07"/></g><rect x="59" y="85" width="10" height="3" fill="#fff"/><polygon points="82.504 91 89.363 71.436 80.09 66.082 74.372 84.02 77.598 91 82.504 91" fill="#fff"/><polygon points="45.496 91 38.637 71.436 47.91 66.082 53.628 84.02 50.402 91 45.496 91" fill="#fff"/><path d="M64,37L52,49V64.8205L57,82H71.02L76,64.8205V49Zm0,26a6,6,0,1,1,6-6A6,6,0,0,1,64,63Z" fill="#fff"/></svg>
