<?xml version="1.0" encoding="UTF-8" standalone="no"?>
<svg width="26px" height="26px" viewBox="0 0 26 26" version="1.1" xmlns="http://www.w3.org/2000/svg" xmlns:xlink="http://www.w3.org/1999/xlink">
    <!-- Generator: Sketch 39.1 (31720) - http://www.bohemiancoding.com/sketch -->
    <title>load-balancing copy</title>
    <desc>Created with Sketch.</desc>
    <defs></defs>
    <g id="Page-1" stroke="none" stroke-width="1" fill="none" fill-rule="evenodd">
        <g id="Load-Balancing-Copy-2" transform="translate(0.000000, 3.000000)" fill="#FFFFFF">
            <rect id="Rectangle-path" x="12.1113281" y="5.56882591" width="1.77734375" height="11.0951417"></rect>
            <path d="M3.31877051,9.64979757 L4.62109375,9.64979757 L4.62109375,17.3016194 L2.84375,17.3016194 L2.84375,10.1269779 C2.84375,9.8634385 3.05642393,9.64979757 3.31877051,9.64979757 L3.31877051,9.64979757 Z" id="Shape"></path>
            <path d="M21.3789062,9.64979757 L22.6812295,9.64979757 C22.9435761,9.64979757 23.15625,9.8634385 23.15625,10.1269779 L23.15625,17.3016194 L21.3789062,17.3016194 L21.3789062,9.64979757 L21.3789062,9.64979757 Z" id="Shape"></path>
            <path d="M3.3158252,9.64979757 L22.6841748,9.64979757 C22.8093769,9.64979757 22.9294511,9.69976007 23.0179824,9.78869388 C23.1065136,9.87762769 23.15625,9.99824783 23.15625,10.1240192 L23.15625,11.4352227 L2.84375,11.4352227 L2.84375,10.1240192 C2.84375,9.86211384 3.05510526,9.64979757 3.3158252,9.64979757 L3.3158252,9.64979757 Z" id="Shape"></path>
            <rect id="Rectangle-path" x="5.25585938" y="0.0850202429" width="15.4882812" height="6.12145749" rx="0.5"></rect>
            <rect id="Rectangle-path" x="9.69921875" y="15.1336032" width="6.6015625" height="5.3562753" rx="0.5"></rect>
            <path d="M0.431640625,15.6279079 C0.431640625,15.354911 0.651286423,15.1336032 0.927830764,15.1336032 L6.53701299,15.1336032 C6.81105123,15.1336032 7.03320312,15.3637557 7.03320312,15.6279079 L7.03320312,19.9955738 C7.03320312,20.2685708 6.81355733,20.4898785 6.53701299,20.4898785 L0.927830764,20.4898785 C0.653792517,20.4898785 0.431640625,20.2597261 0.431640625,19.9955738 L0.431640625,15.6279079 Z" id="Rectangle-path"></path>
            <rect id="Rectangle-path" x="18.9667969" y="15.1336032" width="6.6015625" height="5.3562753" rx="0.5"></rect>
        </g>
    </g>
</svg>