<?xml version="1.0" encoding="UTF-8"?>
<svg width="127px" height="116px" viewBox="0 0 127 116" version="1.1" xmlns="http://www.w3.org/2000/svg" xmlns:xlink="http://www.w3.org/1999/xlink">
    <!-- Generator: Sketch 42 (36781) - http://www.bohemiancoding.com/sketch -->
    <title>logging</title>
    <desc>Created with Sketch.</desc>
    <defs></defs>
    <g id="Page-1" stroke="none" stroke-width="1" fill="none" fill-rule="evenodd">
        <g id="Product-Logos" transform="translate(-520.000000, -549.000000)">
            <g id="logging" transform="translate(519.000000, 549.000000)">
                <g id="Logs_128px">
                    <g id="Page-1">
                        <g id="Logs_128px">
                            <path d="M2.52031008,63.4098189 C0.482133333,59.8145684 0.482133333,55.3850274 2.52031008,51.7897768 L28.5674171,5.84397474 C30.6055938,2.24872421 34.3723659,0.0339536842 38.4487194,0.0339536842 L90.5429333,0.0339536842 C94.6192868,0.0339536842 98.3860589,2.24872421 100.424236,5.84397474 L126.471343,51.7897768 C128.509519,55.3850274 128.509519,59.8145684 126.471343,63.4098189 L100.424236,109.355621 C98.3860589,112.950872 94.6192868,115.165642 90.5429333,115.165642 L38.4487194,115.165642 C34.3723659,115.165743 30.605693,112.950973 28.5674171,109.355722 L2.52031008,63.4098189 Z" id="Shape" fill="#4386FA"></path>
                            <path d="M94.2635659,31.3263158 L76.8,39.4105263 L60.5271318,39.4105263 L49.6124031,28.2947368 L42.8956775,39.4105263 L42.6666667,39.4105263 L34.7286822,43.4526316 L42.3193798,51.1831579 L40.6821705,82.8631579 L72.4004713,115.165743 L90.5429333,115.165743 C94.6192868,115.165743 98.3860589,112.950973 100.424236,109.355722 L126.213457,63.8648589 L94.2635659,31.3263158 L94.2635659,31.3263158 L94.2635659,31.3263158 Z" id="Shape" fill="#000000" opacity="0.0800000057"></path>
                            <rect id="Rectangle-path" fill="#FFFFFF" x="57.5503876" y="31.3263158" width="36.7131783" height="11.1157895"></rect>
                            <rect id="Rectangle-path" fill="#FFFFFF" x="42.6666667" y="57.6" width="15.875969" height="3.03157895"></rect>
                            <rect id="Rectangle-path" fill="#FFFFFF" x="57.5503876" y="53.5578947" width="36.7131783" height="11.1157895"></rect>
                            <rect id="Rectangle-path" fill="#FFFFFF" x="42.6666667" y="79.8315789" width="15.875969" height="3.03157895"></rect>
                            <rect id="Rectangle-path" fill="#FFFFFF" x="40.6821705" y="43.4526316" width="2.97674419" height="39.4105263"></rect>
                            <g id="Group" transform="translate(34.728682, 28.294737)" fill="#FFFFFF">
                                <rect id="Rectangle-path" x="0" y="0" width="14.8837209" height="15.1578947"></rect>
                                <rect id="Rectangle-path" x="22.8217054" y="47.4947368" width="36.7131783" height="11.1157895"></rect>
                            </g>
                        </g>
                    </g>
                </g>
            </g>
        </g>
    </g>
</svg>
