<?xml version="1.0" encoding="utf-8"?>
<!-- Generator: Adobe Illustrator 26.0.1, SVG Export Plug-In . SVG Version: 6.00 Build 0)  -->
<svg version="1.1" id="Warstwa_1" xmlns="http://www.w3.org/2000/svg" xmlns:xlink="http://www.w3.org/1999/xlink" x="0px" y="0px"
	 viewBox="0 0 595.3 595.3" style="enable-background:new 0 0 595.3 595.3;" xml:space="preserve">
<style type="text/css">
	.st0{fill:none;}
	.st1{fill:#050607;}
</style>
<rect class="st0" width="595.3" height="595.3"/>
<path class="st1" d="M207.6,404.2c-3.5,0-5.9-2-6.4-7.1l-4-38.8c-0.5-5.1,1.6-7.1,5.4-7.1c3.7,0,6.3,2,6.7,7.1l3.3,38.8
	C213.1,402.3,211.1,404.2,207.6,404.2 M224,357.9c-0.8-12.7-8.8-20.4-21.7-20.3c-5.8,0-10.4,1.5-13.6,4.4c-3.2,2.9-4.8,7.3-4.8,12.5
	c0,1.1,0.1,2.3,0.2,3.6l4.7,39.5c1.4,12.5,8.9,20.2,20.6,20.2h0.2c5.4,0,9.9-1.6,12.8-4.8s4.4-7.7,4.4-13.3c0-0.8,0-1.6-0.1-2.4
	L224,357.9z M177.4,229.6c4.6,0,8.4-3.8,8.4-8.4c0.1-18.1,9.3-31.1,24.9-40.8c15.5-9.6,37.3-14.7,59.2-14.7c22,0,44.1,5.2,59.8,14.8
	c15.8,9.8,25.1,22.8,25.2,40.8c0,4.6,3.8,8.4,8.4,8.4c4.6,0,8.4-3.8,8.4-8.4c0.1-24.6-14-43.6-33.2-55.1
	c-19.3-11.7-44-17.2-68.5-17.3c-24.4,0-48.9,5.5-68,17.2c-19.1,11.5-33,30.5-32.9,55.1C169.1,225.8,172.8,229.6,177.4,229.6
	 M254.5,374.2c-6.1-5.5-11.8-9.9-12.1-17l0,0c0-0.3,0-0.5,0-0.8c0.2-4.5,1.4-5.2,4.7-5.4c3.4,0.2,4.9,1.2,5.2,6.3l0.1,3.1
	c0,0.7,0.6,1.2,1.2,1.2h11.6c0.3,0,0.6-0.1,0.9-0.4c0.2-0.2,0.4-0.6,0.4-0.9l0-2.4c0-12.6-7.3-20.5-20.1-20.4c-6,0-10.7,1.6-14,4.8
	c-3.2,3.2-4.8,7.9-4.8,13.5c0,0.7,0,1.4,0.1,2.1c0.7,11.4,7.3,17.9,13.4,23.3c6.2,5.5,11.7,9.9,11.9,17c0,0.2,0,0.3,0,0.5
	c-0.2,4.7-1.5,5.4-4.5,5.6c-3.1-0.2-4.7-1.1-5.1-6.2l-0.3-5.4c0-0.7-0.6-1.2-1.2-1.2h-11.1c-0.3,0-0.7,0.1-0.9,0.4
	c-0.2,0.2-0.4,0.6-0.3,0.9l0.3,4.7c0.6,12.5,7.5,20.3,19.1,20.3h0.2c5.7,0,10.3-1.8,13.4-5.3c3.1-3.5,4.5-8.5,4.5-14.6
	c0-0.2,0-0.4,0-0.5C266.9,386.2,260.6,379.6,254.5,374.2 M307.2,338.5h-35.8c-0.3,0-0.6,0.1-0.9,0.4c-0.2,0.2-0.4,0.5-0.4,0.9
	l0.1,10.9c0,0.7,0.6,1.2,1.2,1.2h20.6l-22.5,52.8l-0.1,0.5l0.1,10.6c0,0.7,0.6,1.2,1.2,1.2h33.4c0.7,0,1.2-0.5,1.2-1.2l0.4-10.9
	c0-0.3-0.1-0.7-0.4-0.9c-0.2-0.2-0.5-0.4-0.9-0.4h-20.1l23.3-52.8l0.1-0.5l0.4-10.6c0-0.3-0.1-0.7-0.3-0.9
	C307.8,338.7,307.5,338.5,307.2,338.5 M403.2,338.5h-12.6c-0.4,0-0.8,0.2-1,0.6l-17.6,28.4l3.4-27.6c0-0.4-0.1-0.7-0.3-1
	c-0.2-0.3-0.6-0.4-0.9-0.4h-12.6c-0.6,0-1.2,0.5-1.2,1.1l-8.2,76.1c0,0.4,0.1,0.7,0.3,1c0.2,0.3,0.6,0.4,0.9,0.4h11.4
	c0.6,0,1.1-0.5,1.2-1.1l2.9-23.1l2.8-4.3l6.5,27.5c0.1,0.6,0.6,1,1.2,1H391c0.4,0,0.7-0.2,1-0.5c0.2-0.3,0.3-0.7,0.2-1.1l-9.9-41.6
	l22-33.5c0.2-0.4,0.3-0.9,0-1.3C404.1,338.8,403.7,338.5,403.2,338.5 M357.2,339.1c-0.2-0.3-0.6-0.5-1-0.5h-12c-0.5,0-1,0.3-1.2,0.8
	l-10.7,30.4l-6.2-30.3c-0.1-0.6-0.6-1-1.2-1h-13.2c-0.4,0-0.7,0.2-1,0.5s-0.3,0.7-0.2,1.1l12.6,50.7l-1.6,25c0,0.3,0.1,0.7,0.3,0.9
	c0.2,0.3,0.6,0.4,0.9,0.4H334c0.6,0,1.2-0.5,1.2-1.1l2-25l20-50.7C357.5,339.8,357.4,339.4,357.2,339.1 M416.6,246.9
	c-0.2-0.3-0.6-0.4-0.9-0.4h-13.8c-0.6,0-1.1,0.5-1.2,1.1l-9.5,75.5c0,0.4,0.1,0.7,0.3,1c0.2,0.3,0.6,0.4,0.9,0.4h12.8
	c0.6,0,1.1-0.5,1.2-1.1l10.5-75.5C416.9,247.5,416.8,247.1,416.6,246.9 M353,275.7l2.2-27.9c0-0.4-0.1-0.7-0.3-0.9
	c-0.2-0.3-0.6-0.4-0.9-0.4h-13.8c-0.7,0-1.2,0.5-1.2,1.2l-4.9,75.5c0,0.3,0.1,0.7,0.3,0.9c0.2,0.2,0.6,0.4,0.9,0.4H348
	c0.6,0,1.2-0.5,1.2-1.1l1.8-22.9l3-4.5l9.1,27.7c0.2,0.5,0.6,0.9,1.2,0.9h13.1c0.4,0,0.8-0.2,1-0.5c0.2-0.3,0.3-0.7,0.2-1.1
	L365,281.5l22-33.1c0.2-0.4,0.3-0.9,0.1-1.3c-0.2-0.4-0.6-0.7-1.1-0.7h-13.8c-0.4,0-0.8,0.2-1,0.6L353,275.7z M310.4,267.3
	c0,0.3,0.1,0.7,0.3,0.9s0.6,0.4,0.9,0.4h12.8c0.7,0,1.2-0.5,1.2-1.2l0.1-2.4c0-0.5,0-1.1,0-1.6c0-5.8-1.7-10.6-5.3-13.8
	c-3.6-3.2-8.8-4.9-15.4-4.9c-13.9-0.1-21.8,7.6-21.8,20.2c0,0.1,0,0.2,0,0.3c0,11.1,6.7,17.5,13,22.8c6.4,5.4,12.1,9.7,12.1,16.4
	c0,0.2,0,0.3,0,0.5c-0.4,5-2,5.9-5.8,6.1c-3.6-0.2-5.1-1-5.3-5.7c0-0.1,0-0.2,0-0.3l0.1-5.4c0-0.3-0.1-0.7-0.4-0.9
	c-0.2-0.2-0.6-0.4-0.9-0.4h-12.4c-0.7,0-1.2,0.5-1.2,1.2l0,4.6c0,0.1,0,0.2,0,0.4c0,6.1,1.7,11.2,5.1,14.6c3.5,3.5,8.5,5.2,15,5.2
	h0.3c12.8,0,20.4-7.7,21-20.2c0-0.5,0-0.9,0-1.4c0-10.7-6.6-16.9-12.7-22.1c-6.2-5.2-11.9-9.6-11.8-16.2c0-0.1,0-0.2,0-0.3
	c0.3-5,1.9-6.1,5.8-6.3c3.8,0.2,5.1,1.1,5.3,5.6c0,0.2,0,0.4,0,0.6L310.4,267.3z M271.6,311.2h-20.1l-1.6-63.5
	c0-0.7-0.6-1.2-1.2-1.2h-13.9c-0.3,0-0.7,0.1-0.9,0.4c-0.2,0.2-0.4,0.6-0.4,0.9l3,75.5c0,0.7,0.6,1.2,1.2,1.2h33.9
	c0.3,0,0.6-0.1,0.9-0.4c0.2-0.2,0.4-0.5,0.4-0.9l0-10.8C272.8,311.7,272.3,311.2,271.6,311.2 M205.9,311.2c-3.7-0.2-5.5-1.3-6.1-6.3
	l-3.3-40.8c0-0.4-0.1-0.7-0.1-1c0.2-4,1.6-4.9,5.3-5.1c4,0.2,5.9,1.4,6.4,6.3l2.8,40.8c0,0.3,0,0.6,0,0.9
	C210.7,310.1,209.4,311,205.9,311.2 M200.9,244.7c-6.5,0-11.6,1.5-15.2,4.6c-3.6,3.1-5.4,7.6-5.4,13.1c0,0.9,0,1.8,0.1,2.7l3.8,39.2
	c1.1,12.5,9.3,20.1,22.2,20.1h0.3c6.2,0,11.2-1.6,14.6-4.9c3.4-3.2,5.1-8,5.1-13.7c0-0.6,0-1.1,0-1.7l-2.1-39.3
	C223.7,252.2,215,244.6,200.9,244.7 M141.9,259.7h5.1c4,0.2,5.6,1,6.4,6l1.4,11.3c0.1,0.6,0.1,1.2,0.1,1.7c-0.2,3.4-1.1,3.8-4.6,4.1
	h-5.2L141.9,259.7z M150.3,324c0.2-0.3,0.3-0.6,0.3-1l-3.7-27h4.8c6.1,0,10.9-1.4,14.2-4.3c3.3-2.9,4.9-7.2,4.8-12.4
	c0-1.1-0.1-2.2-0.2-3.4l-1.2,0.1l1.2-0.1l-1.1-9.8c-1.2-12.5-9.6-19.8-23.8-19.7c-0.1,0-0.2,0-0.3,0h-20.3c-0.4,0-0.7,0.2-0.9,0.4
	c-0.2,0.3-0.3,0.6-0.3,1l11.5,75.4c0.1,0.6,0.6,1,1.2,1h12.8C149.7,324.4,150.1,324.3,150.3,324 M169.1,373.6l12.5-33.4
	c0.1-0.4,0.1-0.8-0.1-1.1c-0.2-0.3-0.6-0.5-1-0.5h-12.6c-0.5,0-1,0.3-1.2,0.8l-9.6,28.4l-4.5-28.2c-0.1-0.6-0.6-1-1.2-1h-12.6
	c-0.4,0-0.7,0.1-0.9,0.4c-0.2,0.3-0.3,0.6-0.3,1l13.3,76.1c0.1,0.6,0.6,1,1.2,1h11.4c0.4,0,0.7-0.2,0.9-0.4c0.2-0.3,0.3-0.6,0.3-1
	l-3.6-23l1.5-4l14.4,27.8c0.2,0.4,0.6,0.7,1.1,0.7h11.7c0.4,0,0.8-0.2,1.1-0.6s0.2-0.8,0-1.2L169.1,373.6z"/>
<rect class="st0" width="595.3" height="595.3"/>
<path class="st1" d="M471.1,246c-0.2-0.3-0.6-0.4-0.9-0.4h-35.8c-0.6,0-1.1,0.5-1.2,1.1l-1.7,12.8c0,0.4,0.1,0.7,0.3,1
	c0.2,0.3,0.6,0.4,0.9,0.4h35.8c0.6,0,1.1-0.5,1.2-1.1l1.7-12.8C471.4,246.6,471.3,246.3,471.1,246 M466.6,271.6h-35.8
	c-0.6,0-1.2,0.5-1.2,1.1l-1.7,12.8c0,0.4,0.1,0.7,0.3,1c0.2,0.3,0.6,0.4,0.9,0.4h35.8c0.6,0,1.1-0.5,1.2-1.1l1.7-12.8
	c0-0.4-0.1-0.7-0.3-1C467.3,271.8,467,271.6,466.6,271.6 M463,297.7h-35.8c-0.6,0-1.1,0.5-1.2,1.1l-1.7,12.8c0,0.4,0.1,0.7,0.3,1
	c0.2,0.3,0.6,0.4,0.9,0.4h35.8c0.6,0,1.1-0.5,1.2-1.1l1.7-12.8c0-0.4-0.1-0.7-0.3-1C463.7,297.8,463.4,297.7,463,297.7 M459.7,323.7
	h-35.8c-0.6,0-1.1,0.5-1.2,1.1l-1.7,12.8c0,0.4,0.1,0.7,0.3,1c0.2,0.3,0.6,0.4,0.9,0.4H458c0.6,0,1.1-0.5,1.2-1.1l1.7-12.8
	c0-0.4-0.1-0.7-0.3-1C460.4,323.9,460,323.7,459.7,323.7 M455.9,349.7h-35.8c-0.6,0-1.1,0.5-1.2,1.1l-1.7,12.8c0,0.4,0.1,0.7,0.3,1
	c0.2,0.3,0.6,0.4,0.9,0.4h35.8c0.6,0,1.1-0.5,1.2-1.1l1.7-12.8c0-0.4-0.1-0.7-0.3-1C456.6,349.9,456.3,349.7,455.9,349.7
	 M452.4,375.8h-35.8c-0.6,0-1.1,0.5-1.2,1.1l-1.7,12.8c0,0.4,0.1,0.7,0.3,1c0.2,0.3,0.6,0.4,0.9,0.4h35.8c0.6,0,1.1-0.5,1.2-1.1
	l1.7-12.8c0-0.4-0.1-0.7-0.3-1C453,375.9,452.7,375.8,452.4,375.8 M448.8,401.8H413c-0.6,0-1.1,0.5-1.2,1.1l-1.7,12.8
	c0,0.4,0.1,0.7,0.3,1c0.2,0.3,0.6,0.4,0.9,0.4h35.8c0.6,0,1.1-0.5,1.2-1.1l1.7-12.8c0-0.4-0.1-0.7-0.3-1
	C449.5,402,449.1,401.8,448.8,401.8 M445.2,431.8H153.6c-0.4,0-0.7,0.1-0.9,0.4c-0.2,0.3-0.3,0.6-0.3,1l2,12.8c0.1,0.6,0.6,1,1.2,1
	h288c0.6,0,1.1-0.5,1.2-1.1l1.7-12.8c0-0.4-0.1-0.7-0.3-1C445.9,431.9,445.6,431.8,445.2,431.8"/>
</svg>
