<svg id="Warstwa_2" data-name="Warstwa 2" xmlns="http://www.w3.org/2000/svg" viewBox="0 0 556.645 145.343"><defs><style>.cls-1{fill:#cf9934;}.cls-2{fill:#1d1d1b;}</style></defs><path class="cls-1" d="M173.83,72.435V45.857h12.8V69.575a9.468,9.468,0,0,0,1.52,5.792,5.092,5.092,0,0,0,4.32,2.009,9.758,9.758,0,0,0,3.36-.581,10.026,10.026,0,0,0,3.12-1.9,13.042,13.042,0,0,0,2.72-3.411V45.857h12.8V73.192a4.338,4.338,0,0,0,.6,2.639,3,3,0,0,0,2.12.905v10.64q-1.761.319-3.08.481a20.184,20.184,0,0,1-2.36.159,9.252,9.252,0,0,1-5.36-1.386,5.906,5.906,0,0,1-2.48-3.915l-.24-2.529a17.45,17.45,0,0,1-7.16,6.052,22.935,22.935,0,0,1-9.56,1.938q-6.4,0-9.76-4.033T173.83,72.435Z" transform="translate(-18.06 -16.833)"/><path class="cls-1" d="M289.189,88.176a32.024,32.024,0,0,1-10.48-1.76,22.7,22.7,0,0,1-8.64-5.2l4.4-8.08a34.053,34.053,0,0,0,7.48,4.24,18.641,18.641,0,0,0,6.84,1.441,8,8,0,0,0,3.84-.756,2.5,2.5,0,0,0,1.36-2.34,2.293,2.293,0,0,0-.8-1.853,7.672,7.672,0,0,0-2.44-1.22q-1.641-.553-4.04-1.183a72.549,72.549,0,0,1-8-3.074,12.235,12.235,0,0,1-4.8-3.665,9.253,9.253,0,0,1-1.6-5.636,12.636,12.636,0,0,1,2.121-7.291,13.883,13.883,0,0,1,6.04-4.848,23.014,23.014,0,0,1,9.36-1.735,26.772,26.772,0,0,1,8.439,1.36,22,22,0,0,1,7.721,4.56l-4.96,8a33.913,33.913,0,0,0-6.4-3.6,14.617,14.617,0,0,0-5.44-1.12,9.176,9.176,0,0,0-2.48.314,3.725,3.725,0,0,0-1.8,1.06,2.743,2.743,0,0,0-.681,1.924,2.606,2.606,0,0,0,.681,1.885,5.435,5.435,0,0,0,2.16,1.216q1.48.509,3.72,1.217a67.54,67.54,0,0,1,8.64,3.023,13.007,13.007,0,0,1,5.16,3.768,9.48,9.48,0,0,1,1.719,5.928,11.784,11.784,0,0,1-4.6,9.853Q297.107,88.177,289.189,88.176Z" transform="translate(-18.06 -16.833)"/><path class="cls-1" d="M314.068,72.435V45.857h12.8V69.575a9.461,9.461,0,0,0,1.521,5.792,5.09,5.09,0,0,0,4.319,2.009,9.754,9.754,0,0,0,3.36-.581,10,10,0,0,0,3.12-1.9,13.042,13.042,0,0,0,2.72-3.411V45.857h12.8V73.192a4.338,4.338,0,0,0,.6,2.639,3,3,0,0,0,2.121.905v10.64q-1.761.319-3.081.481a20.156,20.156,0,0,1-2.36.159,9.252,9.252,0,0,1-5.36-1.386,5.91,5.91,0,0,1-2.48-3.915l-.24-2.529a17.45,17.45,0,0,1-7.16,6.052,22.935,22.935,0,0,1-9.56,1.938q-6.4,0-9.759-4.033T314.068,72.435Z" transform="translate(-18.06 -16.833)"/><path class="cls-1" d="M380.709,88.176a32.03,32.03,0,0,1-10.481-1.76,22.688,22.688,0,0,1-8.639-5.2l4.4-8.08a34.081,34.081,0,0,0,7.481,4.24,18.636,18.636,0,0,0,6.839,1.441,8,8,0,0,0,3.84-.756,2.5,2.5,0,0,0,1.361-2.34,2.3,2.3,0,0,0-.8-1.853,7.679,7.679,0,0,0-2.441-1.22q-1.639-.553-4.04-1.183a72.549,72.549,0,0,1-8-3.074,12.238,12.238,0,0,1-4.8-3.665,9.246,9.246,0,0,1-1.6-5.636,12.643,12.643,0,0,1,2.12-7.291,13.888,13.888,0,0,1,6.04-4.848,23.017,23.017,0,0,1,9.36-1.735,26.778,26.778,0,0,1,8.44,1.36,22.008,22.008,0,0,1,7.721,4.56l-4.96,8a33.917,33.917,0,0,0-6.4-3.6,14.612,14.612,0,0,0-5.439-1.12,9.184,9.184,0,0,0-2.481.314,3.722,3.722,0,0,0-1.8,1.06,2.738,2.738,0,0,0-.681,1.924,2.6,2.6,0,0,0,.681,1.885,5.428,5.428,0,0,0,2.16,1.216q1.479.509,3.719,1.217a67.54,67.54,0,0,1,8.64,3.023,13,13,0,0,1,5.16,3.768,9.474,9.474,0,0,1,1.72,5.928,11.782,11.782,0,0,1-4.6,9.853Q388.628,88.177,380.709,88.176Z" transform="translate(-18.06 -16.833)"/><path class="cls-1" d="M424.388,88.176a24.884,24.884,0,0,1-9.561-1.733,20.554,20.554,0,0,1-7.08-4.731,20.233,20.233,0,0,1-4.359-6.857,23.214,23.214,0,0,1,0-16.318,20.243,20.243,0,0,1,4.359-6.857,20.577,20.577,0,0,1,7.08-4.729,24.865,24.865,0,0,1,9.561-1.735,24.562,24.562,0,0,1,9.519,1.735,20.487,20.487,0,0,1,11.441,11.586,22.671,22.671,0,0,1,0,16.318,20.5,20.5,0,0,1-11.441,11.588A24.581,24.581,0,0,1,424.388,88.176Zm-9.361-21.44a12.029,12.029,0,0,0,1.24,5.592,9.382,9.382,0,0,0,3.32,3.728,8.763,8.763,0,0,0,4.8,1.32,8.632,8.632,0,0,0,4.759-1.358,9.311,9.311,0,0,0,3.321-3.768,12.209,12.209,0,0,0,1.2-5.514,12.391,12.391,0,0,0-1.2-5.591,9.029,9.029,0,0,0-3.321-3.729,9.315,9.315,0,0,0-9.56,0,9.392,9.392,0,0,0-3.32,3.729A12.028,12.028,0,0,0,415.027,66.736Z" transform="translate(-18.06 -16.833)"/><path class="cls-1" d="M505.026,45.857h12.16l-17.36,41.519h-10.56l-6.4-16.924-6.4,16.924h-10.56l-17.36-41.519h12.08l11.28,29.577,4-11.546-7.52-18.031h10.48l4,12.494,4-12.494h10.4l-7.44,18.031,4,11.546Z" transform="translate(-18.06 -16.833)"/><path class="cls-1" d="M539.746,88.176a25.006,25.006,0,0,1-9.521-1.7,21.2,21.2,0,0,1-7.08-4.627,19.782,19.782,0,0,1-4.439-6.764,21.57,21.57,0,0,1-1.521-8.029,22.333,22.333,0,0,1,2.68-10.881,20.752,20.752,0,0,1,7.721-7.934,26,26,0,0,1,24.279-.033,20.466,20.466,0,0,1,7.641,7.837,21.633,21.633,0,0,1,2.639,10.515,19.292,19.292,0,0,1-.12,2.166q-.12,1.064-.2,1.85h-31.04a9.191,9.191,0,0,0,1.561,4.589,8.476,8.476,0,0,0,3.4,2.839,10.261,10.261,0,0,0,4.4.972,11.189,11.189,0,0,0,5.4-1.36,7.358,7.358,0,0,0,3.479-3.68l10.88,3.04a18.116,18.116,0,0,1-4.519,5.8,21.854,21.854,0,0,1-6.88,3.96A25.48,25.48,0,0,1,539.746,88.176Zm-9.28-25.44h18.24a10.465,10.465,0,0,0-1.521-4.388,8.192,8.192,0,0,0-3.2-2.9,9.99,9.99,0,0,0-8.84,0,8.269,8.269,0,0,0-3.16,2.9A10.436,10.436,0,0,0,530.466,62.736Z" transform="translate(-18.06 -16.833)"/><path class="cls-2" d="M212.23,161.376h-12.8V138.255q0-4-1.52-5.878a4.814,4.814,0,0,0-3.921-1.881,7.916,7.916,0,0,0-5.04,2.037,11.029,11.029,0,0,0-3.519,5.252v23.591h-12.8V138.255q0-4.075-1.521-5.916a4.849,4.849,0,0,0-3.92-1.843,7.9,7.9,0,0,0-4.96,2,11.358,11.358,0,0,0-3.6,5.158v23.72h-12.8V119.857H157.35v7.082a15.588,15.588,0,0,1,6.281-5.713,20.152,20.152,0,0,1,9.24-2.01q5.2,0,8,2.4a10.764,10.764,0,0,1,3.6,5.634,16.346,16.346,0,0,1,6.36-5.949,18.814,18.814,0,0,1,8.92-2.089,12.674,12.674,0,0,1,6.479,1.459,9.835,9.835,0,0,1,3.76,3.821,16.708,16.708,0,0,1,1.761,5.082,30.68,30.68,0,0,1,.479,5.321Z" transform="translate(-18.06 -16.833)"/><path class="cls-2" d="M262.31,162.176a25,25,0,0,1-9.52-1.7,21.178,21.178,0,0,1-7.08-4.627,19.785,19.785,0,0,1-4.44-6.764,21.589,21.589,0,0,1-1.52-8.029,22.322,22.322,0,0,1,2.68-10.881,20.756,20.756,0,0,1,7.72-7.934,26,26,0,0,1,24.28-.033,20.463,20.463,0,0,1,7.64,7.837,21.623,21.623,0,0,1,2.64,10.515,19.292,19.292,0,0,1-.12,2.166c-.08.709-.148,1.325-.2,1.85H253.349a9.2,9.2,0,0,0,1.561,4.589,8.489,8.489,0,0,0,3.4,2.839,10.262,10.262,0,0,0,4.4.972,11.183,11.183,0,0,0,5.4-1.36,7.36,7.36,0,0,0,3.48-3.68l10.88,3.04a18.133,18.133,0,0,1-4.52,5.8,21.832,21.832,0,0,1-6.88,3.96A25.472,25.472,0,0,1,262.31,162.176Zm-9.28-25.44h18.24a10.45,10.45,0,0,0-1.52-4.388,8.2,8.2,0,0,0-3.2-2.9,9.99,9.99,0,0,0-8.84,0,8.255,8.255,0,0,0-3.16,2.9A10.436,10.436,0,0,0,253.03,136.736Z" transform="translate(-18.06 -16.833)"/><path class="cls-2" d="M308.229,162.176a32.024,32.024,0,0,1-10.48-1.76,22.7,22.7,0,0,1-8.64-5.2l4.4-8.08a34.053,34.053,0,0,0,7.48,4.24,18.641,18.641,0,0,0,6.84,1.441,8,8,0,0,0,3.84-.756,2.5,2.5,0,0,0,1.36-2.34,2.293,2.293,0,0,0-.8-1.853,7.672,7.672,0,0,0-2.44-1.22q-1.641-.554-4.04-1.183a72.549,72.549,0,0,1-8-3.074,12.235,12.235,0,0,1-4.8-3.665,9.253,9.253,0,0,1-1.6-5.636,12.643,12.643,0,0,1,2.121-7.291,13.883,13.883,0,0,1,6.04-4.848,23.014,23.014,0,0,1,9.36-1.735,26.772,26.772,0,0,1,8.439,1.36,21.99,21.99,0,0,1,7.721,4.56l-4.96,8a33.913,33.913,0,0,0-6.4-3.6,14.617,14.617,0,0,0-5.44-1.12,9.176,9.176,0,0,0-2.48.314,3.725,3.725,0,0,0-1.8,1.06,2.743,2.743,0,0,0-.681,1.924,2.606,2.606,0,0,0,.681,1.885,5.435,5.435,0,0,0,2.16,1.216q1.481.508,3.72,1.217a67.54,67.54,0,0,1,8.64,3.023,13.007,13.007,0,0,1,5.16,3.768,9.48,9.48,0,0,1,1.719,5.928,11.784,11.784,0,0,1-4.6,9.853Q316.149,162.177,308.229,162.176Z" transform="translate(-18.06 -16.833)"/><path class="cls-2" d="M329.428,153.7l21.36-24.96h-20.24v-8.879h33.679v7.679l-21.12,24.96h21.681v8.88h-35.36Z" transform="translate(-18.06 -16.833)"/><path class="cls-2" d="M415.906,149.011a11.572,11.572,0,0,1,2.32-7.172,15.581,15.581,0,0,1,6.4-4.85,23.3,23.3,0,0,1,9.359-1.773,28.83,28.83,0,0,1,5.04.44,19.417,19.417,0,0,1,4.321,1.24v-1.835a6.353,6.353,0,0,0-2.081-5.105q-2.08-1.779-6.32-1.78a18,18,0,0,0-6.6,1.2,36.068,36.068,0,0,0-6.521,3.441l-3.84-8.161a33.473,33.473,0,0,1,8.68-4.08,33.029,33.029,0,0,1,9.56-1.36q9.438,0,14.68,4.43t5.24,12.82v10.741a4.31,4.31,0,0,0,.6,2.628,3,3,0,0,0,2.12.9v10.64q-1.6.319-3,.481a22.253,22.253,0,0,1-2.439.159,8.893,8.893,0,0,1-5.481-1.44,6.236,6.236,0,0,1-2.359-3.92l-.24-1.839a18.788,18.788,0,0,1-6.681,5.479,18.4,18.4,0,0,1-8.119,1.88,15.922,15.922,0,0,1-7.481-1.733,13.521,13.521,0,0,1-5.24-4.731A12.162,12.162,0,0,1,415.906,149.011Zm25.441,1.5a6.657,6.657,0,0,0,1.439-1.541,2.967,2.967,0,0,0,.561-1.619v-3.624a19.385,19.385,0,0,0-3.561-.962,20.921,20.921,0,0,0-3.64-.348,10.523,10.523,0,0,0-5.839,1.5,4.55,4.55,0,0,0-2.321,3.969,4.378,4.378,0,0,0,.8,2.544,5.679,5.679,0,0,0,2.2,1.849,7.394,7.394,0,0,0,3.321.694,11.217,11.217,0,0,0,3.839-.694A10.392,10.392,0,0,0,441.347,150.51Z" transform="translate(-18.06 -16.833)"/><path class="cls-2" d="M504.306,161.376h-12.8V138.255q0-4.075-1.561-5.916a5.131,5.131,0,0,0-4.119-1.843,8,8,0,0,0-3.6.924,11.754,11.754,0,0,0-5.6,6.236v23.72h-12.8V119.857h11.52v7.082a15.785,15.785,0,0,1,4-4.176,17.881,17.881,0,0,1,5.52-2.641,24.333,24.333,0,0,1,6.8-.906,13.08,13.08,0,0,1,6.6,1.459,10.053,10.053,0,0,1,3.84,3.821,15.4,15.4,0,0,1,1.761,5.082,33.447,33.447,0,0,1,.44,5.321Z" transform="translate(-18.06 -16.833)"/><path class="cls-2" d="M531.745,149.011a11.566,11.566,0,0,1,2.32-7.172,15.581,15.581,0,0,1,6.4-4.85,23.3,23.3,0,0,1,9.359-1.773,28.83,28.83,0,0,1,5.04.44,19.408,19.408,0,0,1,4.32,1.24v-1.835a6.352,6.352,0,0,0-2.08-5.105q-2.081-1.779-6.32-1.78a18.013,18.013,0,0,0-6.6,1.2,36.1,36.1,0,0,0-6.52,3.441l-3.84-8.161a33.473,33.473,0,0,1,8.68-4.08,33.024,33.024,0,0,1,9.56-1.36q9.438,0,14.68,4.43t5.24,12.82v10.741a4.3,4.3,0,0,0,.6,2.628,3,3,0,0,0,2.12.9v10.64q-1.6.319-3,.481a22.254,22.254,0,0,1-2.44.159,8.891,8.891,0,0,1-5.48-1.44,6.236,6.236,0,0,1-2.359-3.92l-.241-1.839a18.776,18.776,0,0,1-6.68,5.479,18.4,18.4,0,0,1-8.119,1.88,15.922,15.922,0,0,1-7.481-1.733,13.521,13.521,0,0,1-5.24-4.731A12.162,12.162,0,0,1,531.745,149.011Zm25.44,1.5a6.64,6.64,0,0,0,1.44-1.541,2.966,2.966,0,0,0,.56-1.619v-3.624a19.352,19.352,0,0,0-3.56-.962,20.921,20.921,0,0,0-3.64-.348,10.529,10.529,0,0,0-5.84,1.5,4.551,4.551,0,0,0-2.32,3.969,4.378,4.378,0,0,0,.8,2.544,5.672,5.672,0,0,0,2.2,1.849,7.393,7.393,0,0,0,3.32.694,11.219,11.219,0,0,0,3.84-.694A10.386,10.386,0,0,0,557.185,150.51Z" transform="translate(-18.06 -16.833)"/><path class="cls-1" d="M152.712,36.263a2.2,2.2,0,0,1,1.543,1.543h4.216V29.155h-5.759Z" transform="translate(-18.06 -16.833)"/><path class="cls-1" d="M150.01,37.806a2.2,2.2,0,0,1,1.542-1.543V29.155h-5.881v8.651Z" transform="translate(-18.06 -16.833)"/><path class="cls-1" d="M166.791,76.354a12.879,12.879,0,0,1-2.2.84,8.739,8.739,0,0,1-2.441.361,3.386,3.386,0,0,1-2.719-1.121,5.809,5.809,0,0,1-.96-3.767v-33.7h-4.216a2.2,2.2,0,0,1-4.245,0h-4.339V77.139q0,5.37,3,8.291t8.439,2.924a29.256,29.256,0,0,0,5.84-.638,24.972,24.972,0,0,0,5.521-1.76Z" transform="translate(-18.06 -16.833)"/><path class="cls-2" d="M379.069,155.841a2.2,2.2,0,0,1-1.543-1.543h-4.5v7.078h6.042Z" transform="translate(-18.06 -16.833)"/><path class="cls-2" d="M377.526,153.139a2.2,2.2,0,0,1,1.543-1.543v-48.62h-6.042v50.163Z" transform="translate(-18.06 -16.833)"/><path class="cls-2" d="M398.467,137.73l15.12-17.873h-13.52l-14.24,17.161V102.976h-5.6V151.6a2.2,2.2,0,0,1,1.543,1.543h4.056v-3.863l4.48-4.507,10.959,16.607h13.6Z" transform="translate(-18.06 -16.833)"/><path class="cls-2" d="M381.771,154.3a2.2,2.2,0,0,1-1.543,1.543v5.535h5.6V154.3Z" transform="translate(-18.06 -16.833)"/><path class="cls-1" d="M233.184,36.271a2.2,2.2,0,0,1,1.542,1.542h4.064V28.976h-5.606Z" transform="translate(-18.06 -16.833)"/><path class="cls-1" d="M251.43,63.73l15.12-17.873H253.03L238.79,63.018V38.973h-4.064a2.2,2.2,0,0,1-4.244,0H225.99v48.4h12.8v-12.1l4.479-4.507,10.96,16.607h13.6Z" transform="translate(-18.06 -16.833)"/><path class="cls-1" d="M230.482,37.813a2.2,2.2,0,0,1,1.542-1.542v-7.3H225.99v8.837Z" transform="translate(-18.06 -16.833)"/><path class="cls-2" d="M227.762,106.653A2.2,2.2,0,0,1,229.3,108.2h4.127v-5.22h-5.669Z" transform="translate(-18.06 -16.833)"/><path class="cls-2" d="M229.3,109.356a2.2,2.2,0,0,1-4.245,0h-4.428v5.22h12.8v-5.22Z" transform="translate(-18.06 -16.833)"/><path class="cls-2" d="M220.631,153.139h4.428a2.2,2.2,0,0,1,4.245,0h4.127V119.376h-12.8Z" transform="translate(-18.06 -16.833)"/><path class="cls-2" d="M229.3,154.3a2.2,2.2,0,0,1-1.542,1.543v5.535h5.669V154.3Z" transform="translate(-18.06 -16.833)"/><path class="cls-2" d="M225.059,108.2a2.2,2.2,0,0,1,1.543-1.543v-3.677h-5.971v5.22Z" transform="translate(-18.06 -16.833)"/><path class="cls-2" d="M226.6,155.841a2.2,2.2,0,0,1-1.543-1.543h-4.428v7.078H226.6Z" transform="translate(-18.06 -16.833)"/><path class="cls-2" d="M521.273,109.356a2.2,2.2,0,0,1-4.245,0h-4.242v5.22h12.8v-5.22Z" transform="translate(-18.06 -16.833)"/><path class="cls-2" d="M512.786,153.139h4.242a2.2,2.2,0,0,1,4.245,0h4.313V119.376h-12.8Z" transform="translate(-18.06 -16.833)"/><path class="cls-2" d="M519.73,106.653a2.2,2.2,0,0,1,1.543,1.543h4.313v-5.22H519.73Z" transform="translate(-18.06 -16.833)"/><path class="cls-2" d="M517.028,108.2a2.2,2.2,0,0,1,1.543-1.543v-3.677h-5.785v5.22Z" transform="translate(-18.06 -16.833)"/><path class="cls-2" d="M521.273,154.3a2.2,2.2,0,0,1-1.543,1.543v5.535h5.856V154.3Z" transform="translate(-18.06 -16.833)"/><path class="cls-2" d="M518.571,155.841a2.2,2.2,0,0,1-1.543-1.543h-4.242v7.078h5.785Z" transform="translate(-18.06 -16.833)"/><polygon class="cls-1" points="27.77 90.116 0 96.043 0 114.5 27.77 111.022 27.77 90.116"/><polygon class="cls-1" points="28.93 110.877 56.495 107.424 56.495 83.986 28.93 89.869 28.93 110.877"/><polygon class="cls-1" points="85.088 86.785 103.398 93.276 103.398 74.942 85.088 65.51 85.088 86.785"/><polygon class="cls-1" points="83.928 64.913 65.238 55.284 65.238 79.748 83.928 86.374 83.928 64.913"/><polygon class="cls-1" points="85.088 61.02 103.398 70.921 103.398 53.481 85.088 41.399 85.088 61.02"/><polygon class="cls-1" points="83.928 40.634 65.238 28.301 65.238 50.286 83.928 60.393 83.928 40.634"/><polygon class="cls-1" points="85.088 36.952 103.398 49.699 103.398 32.273 85.088 19.101 85.088 36.952"/><polygon class="cls-1" points="83.928 18.266 65.238 4.82 65.238 23.133 83.928 36.145 83.928 18.266"/><polygon class="cls-1" points="85.088 111.42 103.398 114.774 103.398 97.105 85.088 90.867 85.088 111.42"/><polygon class="cls-1" points="83.928 90.472 65.238 84.105 65.238 107.783 83.928 111.207 83.928 90.472"/><path class="cls-1" d="M46.99,144.455a2.2,2.2,0,0,1,1.508,1.431L74.556,144.6V129.7L46.99,132.541Z" transform="translate(-18.06 -16.833)"/><path class="cls-1" d="M44.258,146.094a2.2,2.2,0,0,1,1.573-1.639v-11.8L18.06,135.527v11.856Z" transform="translate(-18.06 -16.833)"/><path class="cls-1" d="M48.569,147.041A2.207,2.207,0,0,1,46.99,148.7v11.069H74.556V145.763Z" transform="translate(-18.06 -16.833)"/><path class="cls-1" d="M45.831,148.7a2.2,2.2,0,0,1-1.514-1.45L18.06,148.542v11.227H45.831Z" transform="translate(-18.06 -16.833)"/><path class="cls-1" d="M100.488,145.861a2.2,2.2,0,0,1,1.5-1.406v-11.95L83.3,129.491v14.892Z" transform="translate(-18.06 -16.833)"/><path class="cls-1" d="M103.148,144.455a2.2,2.2,0,0,1,1.594,1.771l16.716,1.437V135.646l-18.31-2.954Z" transform="translate(-18.06 -16.833)"/><path class="cls-1" d="M101.989,148.7a2.2,2.2,0,0,1-1.585-1.683L83.3,145.547v14.222h18.691Z" transform="translate(-18.06 -16.833)"/><path class="cls-1" d="M104.622,147.379a2.207,2.207,0,0,1-1.474,1.321v11.069h18.31V148.827Z" transform="translate(-18.06 -16.833)"/><polygon class="cls-1" points="27.77 65.091 0 74.553 0 92.64 27.77 86.342 27.77 65.091"/><polygon class="cls-1" points="28.93 86.079 56.495 79.828 56.495 55.304 28.93 64.696 28.93 86.079"/><polygon class="cls-1" points="28.93 60.422 56.495 50.378 56.495 28.229 28.93 40.167 28.93 60.422"/><polygon class="cls-1" points="27.77 40.669 0 52.695 0 70.964 27.77 60.845 27.77 40.669"/><polygon class="cls-1" points="27.77 15.107 0 29.711 0 49.179 27.77 36.409 27.77 15.107"/><polygon class="cls-1" points="28.93 35.876 56.496 23.2 56.496 0 28.93 14.497 28.93 35.876"/></svg>