<svg id="Warstwa_1" data-name="Warstwa 1" xmlns="http://www.w3.org/2000/svg" viewBox="0 0 492.149 98.119"><defs><style>.cls-1{fill:#1d1d1b;}.cls-2{fill:#d41120;}</style></defs><path class="cls-1" d="M54.369,64.646a11.568,11.568,0,0,1,2.32-7.172,15.573,15.573,0,0,1,6.4-4.85,23.287,23.287,0,0,1,9.359-1.773,28.83,28.83,0,0,1,5.04.439,19.471,19.471,0,0,1,4.321,1.24V50.694a6.347,6.347,0,0,0-2.081-5.1q-2.081-1.782-6.32-1.781a17.987,17.987,0,0,0-6.6,1.2,36.113,36.113,0,0,0-6.521,3.439l-3.84-8.16a33.473,33.473,0,0,1,8.68-4.08,33.029,33.029,0,0,1,9.56-1.359q9.438,0,14.68,4.429T94.609,52.1v10.74a4.312,4.312,0,0,0,.6,2.629,3,3,0,0,0,2.12.9V77.011c-1.067.213-2.067.371-3,.48a21.966,21.966,0,0,1-2.439.158,8.886,8.886,0,0,1-5.481-1.439,6.233,6.233,0,0,1-2.359-3.92l-.24-1.84a18.773,18.773,0,0,1-6.681,5.481A18.414,18.414,0,0,1,69.01,77.81a15.934,15.934,0,0,1-7.481-1.733,13.511,13.511,0,0,1-5.24-4.73A12.167,12.167,0,0,1,54.369,64.646Zm25.441,1.5A6.635,6.635,0,0,0,81.249,64.6a2.965,2.965,0,0,0,.561-1.62V59.36a19.463,19.463,0,0,0-3.561-.963,21.111,21.111,0,0,0-3.64-.347,10.531,10.531,0,0,0-5.839,1.5,4.551,4.551,0,0,0-2.321,3.968,4.379,4.379,0,0,0,.8,2.545,5.681,5.681,0,0,0,2.2,1.85,7.394,7.394,0,0,0,3.321.693,11.216,11.216,0,0,0,3.839-.693A10.393,10.393,0,0,0,79.81,66.144Z" transform="translate(-22.13 -17.81)"/><path class="cls-1" d="M175.17,77.81a25.006,25.006,0,0,1-9.521-1.7,21.183,21.183,0,0,1-7.08-4.627,19.8,19.8,0,0,1-4.439-6.763,21.579,21.579,0,0,1-1.521-8.03,22.329,22.329,0,0,1,2.68-10.88,20.745,20.745,0,0,1,7.721-7.934,26,26,0,0,1,24.279-.033,20.45,20.45,0,0,1,7.641,7.836,21.633,21.633,0,0,1,2.639,10.515,19.305,19.305,0,0,1-.12,2.166q-.12,1.064-.2,1.85h-31.04a9.2,9.2,0,0,0,1.561,4.59,8.481,8.481,0,0,0,3.4,2.838,10.258,10.258,0,0,0,4.4.972,11.211,11.211,0,0,0,5.4-1.359,7.358,7.358,0,0,0,3.479-3.682l10.88,3.041a18.13,18.13,0,0,1-4.519,5.8,21.833,21.833,0,0,1-6.88,3.959A25.457,25.457,0,0,1,175.17,77.81Zm-9.28-25.44h18.24a10.474,10.474,0,0,0-1.521-4.389,8.2,8.2,0,0,0-3.2-2.9,9.99,9.99,0,0,0-8.84,0,8.275,8.275,0,0,0-3.16,2.9A10.445,10.445,0,0,0,165.89,52.37Z" transform="translate(-22.13 -17.81)"/><path class="cls-1" d="M227.567,64.646a11.562,11.562,0,0,1,2.321-7.172,15.569,15.569,0,0,1,6.4-4.85,23.287,23.287,0,0,1,9.359-1.773,28.841,28.841,0,0,1,5.041.439,19.477,19.477,0,0,1,4.32,1.24V50.694a6.35,6.35,0,0,0-2.08-5.1q-2.082-1.782-6.321-1.781a17.991,17.991,0,0,0-6.6,1.2,36.113,36.113,0,0,0-6.521,3.439l-3.84-8.16a33.473,33.473,0,0,1,8.68-4.08,33.031,33.031,0,0,1,9.561-1.359q9.438,0,14.679,4.429T267.808,52.1v10.74a4.313,4.313,0,0,0,.6,2.629,3.007,3.007,0,0,0,2.12.9V77.011c-1.067.213-2.067.371-3,.48a21.966,21.966,0,0,1-2.439.158,8.888,8.888,0,0,1-5.481-1.439,6.237,6.237,0,0,1-2.359-3.92l-.24-1.84a18.764,18.764,0,0,1-6.681,5.481,18.414,18.414,0,0,1-8.119,1.879,15.93,15.93,0,0,1-7.48-1.733,13.521,13.521,0,0,1-5.241-4.73A12.167,12.167,0,0,1,227.567,64.646Zm25.441,1.5a6.635,6.635,0,0,0,1.439-1.541,2.965,2.965,0,0,0,.561-1.62V59.36a19.463,19.463,0,0,0-3.561-.963,21.09,21.09,0,0,0-3.639-.347,10.535,10.535,0,0,0-5.84,1.5,4.551,4.551,0,0,0-2.321,3.968,4.379,4.379,0,0,0,.8,2.545,5.681,5.681,0,0,0,2.2,1.85,7.4,7.4,0,0,0,3.321.693,11.226,11.226,0,0,0,3.84-.693A10.4,10.4,0,0,0,253.008,66.144Z" transform="translate(-22.13 -17.81)"/><path class="cls-2" d="M295.488,77.81a24.9,24.9,0,0,1-9.56-1.733,20.538,20.538,0,0,1-7.08-4.73,20.265,20.265,0,0,1-4.36-6.858,23.229,23.229,0,0,1,0-16.318,20.294,20.294,0,0,1,4.36-6.858,20.561,20.561,0,0,1,7.08-4.728,24.863,24.863,0,0,1,9.56-1.734,24.568,24.568,0,0,1,9.52,1.734,20.473,20.473,0,0,1,11.44,11.586,22.657,22.657,0,0,1,0,16.318,20.484,20.484,0,0,1-11.44,11.588A24.6,24.6,0,0,1,295.488,77.81Zm-9.36-21.44a12.029,12.029,0,0,0,1.24,5.592,9.382,9.382,0,0,0,3.32,3.728,8.771,8.771,0,0,0,4.8,1.321,8.627,8.627,0,0,0,4.76-1.36,9.292,9.292,0,0,0,3.32-3.767,12.2,12.2,0,0,0,1.2-5.514,12.386,12.386,0,0,0-1.2-5.592,9.036,9.036,0,0,0-3.32-3.728,9.309,9.309,0,0,0-9.56,0,9.4,9.4,0,0,0-3.32,3.728A12.035,12.035,0,0,0,286.128,56.37Z" transform="translate(-22.13 -17.81)"/><path class="cls-2" d="M371.967,77.81a25.006,25.006,0,0,1-9.521-1.7,21.173,21.173,0,0,1-7.08-4.627,19.783,19.783,0,0,1-4.439-6.763,21.579,21.579,0,0,1-1.521-8.03,22.329,22.329,0,0,1,2.68-10.88,20.745,20.745,0,0,1,7.721-7.934,26,26,0,0,1,24.279-.033,20.45,20.45,0,0,1,7.641,7.836,21.633,21.633,0,0,1,2.639,10.515,19.305,19.305,0,0,1-.12,2.166q-.12,1.064-.2,1.85h-31.04a9.207,9.207,0,0,0,1.56,4.59,8.491,8.491,0,0,0,3.4,2.838,10.258,10.258,0,0,0,4.4.972,11.211,11.211,0,0,0,5.4-1.359,7.362,7.362,0,0,0,3.479-3.682l10.88,3.041a18.12,18.12,0,0,1-4.52,5.8,21.817,21.817,0,0,1-6.879,3.959A25.457,25.457,0,0,1,371.967,77.81Zm-9.28-25.44h18.24a10.474,10.474,0,0,0-1.521-4.389,8.2,8.2,0,0,0-3.2-2.9,9.99,9.99,0,0,0-8.84,0,8.275,8.275,0,0,0-3.16,2.9A10.431,10.431,0,0,0,362.687,52.37Z" transform="translate(-22.13 -17.81)"/><path class="cls-1" d="M486.872,58.994a9.8,9.8,0,0,1-4.945-1.206,8.777,8.777,0,0,1-3.311-3.288V68.737h-7.681V33.6h6.672v4.11a9.591,9.591,0,0,1,8.448-4.493,10.969,10.969,0,0,1,4.681.993,11.564,11.564,0,0,1,3.72,2.743,12.52,12.52,0,0,1,2.448,4.067,14.26,14.26,0,0,1,.863,5.013,15.265,15.265,0,0,1-1.391,6.622,11.466,11.466,0,0,1-3.865,4.635A9.7,9.7,0,0,1,486.872,58.994Zm-2.592-6.481a4.874,4.874,0,0,0,2.279-.535,6.051,6.051,0,0,0,1.8-1.422,6.22,6.22,0,0,0,1.176-2.073,7.648,7.648,0,0,0,.408-2.493,6.485,6.485,0,0,0-.456-2.47,6.348,6.348,0,0,0-1.273-1.98,5.61,5.61,0,0,0-1.919-1.328,6.111,6.111,0,0,0-2.4-.466,5.616,5.616,0,0,0-1.559.229,5.879,5.879,0,0,0-1.489.666,6.734,6.734,0,0,0-1.271,1.035,5.435,5.435,0,0,0-.96,1.379v5.108a8,8,0,0,0,1.391,2.222,6.933,6.933,0,0,0,1.968,1.55A4.9,4.9,0,0,0,484.28,52.513Z" transform="translate(-22.13 -17.81)"/><path class="cls-1" d="M500.6,23.473h7.68V49.581a3.487,3.487,0,0,0,.576,2.26,2.032,2.032,0,0,0,1.632.672,5.281,5.281,0,0,0,1.465-.215,8.045,8.045,0,0,0,1.319-.5l1.008,5.76a14.915,14.915,0,0,1-3.312,1.055,17.5,17.5,0,0,1-3.5.385,6.951,6.951,0,0,1-5.064-1.755,6.627,6.627,0,0,1-1.8-4.975Z" transform="translate(-22.13 -17.81)"/><path class="cls-1" d="M458.7,58.513V50.689h6.288v7.824Z" transform="translate(-22.13 -17.81)"/><path class="cls-1" d="M34.458,25.658a2.2,2.2,0,0,1,1.562,1.6h4.27V22.13H34.458Z" transform="translate(-22.13 -17.81)"/><path class="cls-1" d="M31.738,27.261a2.2,2.2,0,0,1,1.561-1.6V22.13H27.49v5.131Z" transform="translate(-22.13 -17.81)"/><path class="cls-1" d="M49.57,64.61a17.5,17.5,0,0,1-2.679,1.039,9.938,9.938,0,0,1-2.921.481,3.884,3.884,0,0,1-2.64-.9A3.69,3.69,0,0,1,40.29,62.3V56.139H36a2.2,2.2,0,0,1-1.543,1.542V77.143a16.32,16.32,0,0,0,4.712.667,24.471,24.471,0,0,0,4.56-.44,32.753,32.753,0,0,0,4.44-1.16q2.119-.721,3.88-1.439Z" transform="translate(-22.13 -17.81)"/><path class="cls-1" d="M48.851,35.491H40.29v-7.07H36a2.2,2.2,0,0,1-1.538,1.541V53.436A2.2,2.2,0,0,1,36,54.979H40.29V45.171h8.561Z" transform="translate(-22.13 -17.81)"/><path class="cls-1" d="M27.49,54.979h4.266A2.2,2.2,0,0,1,33.3,53.436V29.965a2.2,2.2,0,0,1-1.548-1.544H27.49v7.07H22.13v9.68h5.36Z" transform="translate(-22.13 -17.81)"/><path class="cls-1" d="M33.3,57.681a2.2,2.2,0,0,1-1.543-1.542H27.49V66.772a11.869,11.869,0,0,0,1.56,6.465,8.745,8.745,0,0,0,4.24,3.51l.009,0Z" transform="translate(-22.13 -17.81)"/><path class="cls-2" d="M441.774,25.658a2.2,2.2,0,0,1,1.561,1.6h4.27V22.13h-5.831Z" transform="translate(-22.13 -17.81)"/><path class="cls-2" d="M439.053,27.261a2.2,2.2,0,0,1,1.561-1.6V22.13h-5.809v5.131Z" transform="translate(-22.13 -17.81)"/><path class="cls-2" d="M456.886,64.61a17.514,17.514,0,0,1-2.68,1.039,9.938,9.938,0,0,1-2.921.481,3.888,3.888,0,0,1-2.64-.9,3.69,3.69,0,0,1-1.04-2.933V56.139h-4.289a2.2,2.2,0,0,1-1.542,1.542V77.143a16.308,16.308,0,0,0,4.711.667,24.489,24.489,0,0,0,4.561-.44,32.739,32.739,0,0,0,4.439-1.16q2.12-.721,3.88-1.439Z" transform="translate(-22.13 -17.81)"/><path class="cls-2" d="M456.166,35.491h-8.561v-7.07h-4.294a2.2,2.2,0,0,1-1.537,1.541V53.436a2.2,2.2,0,0,1,1.542,1.543h4.289V45.171h8.561Z" transform="translate(-22.13 -17.81)"/><path class="cls-2" d="M434.805,54.979h4.267a2.2,2.2,0,0,1,1.542-1.543V29.965a2.2,2.2,0,0,1-1.548-1.544h-4.261v7.07h-5.36v9.68h5.36Z" transform="translate(-22.13 -17.81)"/><path class="cls-2" d="M440.614,57.681a2.2,2.2,0,0,1-1.542-1.542h-4.267V66.772a11.869,11.869,0,0,0,1.56,6.465,8.745,8.745,0,0,0,4.24,3.51l.009,0Z" transform="translate(-22.13 -17.81)"/><path class="cls-1" d="M147.329,48.054a22.089,22.089,0,0,0-3.8-6.858,18.085,18.085,0,0,0-5.759-4.65,15.857,15.857,0,0,0-7.321-1.7,16.188,16.188,0,0,0-8.2,2,14.8,14.8,0,0,0-5.56,5.679V28.421h-4.151a2.2,2.2,0,0,1-4.245,0h-4.4v48.59h11.119V70.05a14.815,14.815,0,0,0,5.68,5.721,16.762,16.762,0,0,0,8.4,2.039,18.463,18.463,0,0,0,14-6.147,21.4,21.4,0,0,0,4.12-6.781,23.164,23.164,0,0,0,1.48-8.354A25.593,25.593,0,0,0,147.329,48.054ZM134.85,60.681a9.5,9.5,0,0,1-2.08,3.3,10.136,10.136,0,0,1-7.281,3.03,8.458,8.458,0,0,1-2.6-.426,11.8,11.8,0,0,1-2.481-1.127,9.618,9.618,0,0,1-2.12-1.748,9.808,9.808,0,0,1-1.6-2.369V52.8a13.2,13.2,0,0,1,2.32-3.611,11.27,11.27,0,0,1,3.28-2.524,8.677,8.677,0,0,1,8.76.543,10.043,10.043,0,0,1,3.32,3.961,12.157,12.157,0,0,1,1.2,5.357A11.67,11.67,0,0,1,134.85,60.681Z" transform="translate(-22.13 -17.81)"/><path class="cls-1" d="M111,25.719a2.2,2.2,0,0,1,1.543,1.542h4.151V18.61H111Z" transform="translate(-22.13 -17.81)"/><path class="cls-1" d="M108.293,27.261a2.2,2.2,0,0,1,1.543-1.542V18.61H103.89v8.651Z" transform="translate(-22.13 -17.81)"/><path class="cls-1" d="M208.689,25.719a2.2,2.2,0,0,1,1.543,1.542h4.216V18.61h-5.759Z" transform="translate(-22.13 -17.81)"/><path class="cls-1" d="M205.987,27.261a2.2,2.2,0,0,1,1.543-1.542V18.61h-5.882v8.651Z" transform="translate(-22.13 -17.81)"/><path class="cls-1" d="M222.769,65.81a12.944,12.944,0,0,1-2.2.839,8.7,8.7,0,0,1-2.44.362,3.389,3.389,0,0,1-2.72-1.121,5.817,5.817,0,0,1-.96-3.768v-33.7h-4.216a2.2,2.2,0,0,1-4.245,0h-4.339V66.6q0,5.37,3,8.291t8.44,2.924a29.2,29.2,0,0,0,5.84-.639,24.946,24.946,0,0,0,5.52-1.76Z" transform="translate(-22.13 -17.81)"/><path class="cls-2" d="M331.161,70.78a2.2,2.2,0,0,1-1.543-1.543h-4.212v7.774h5.755Z" transform="translate(-22.13 -17.81)"/><path class="cls-2" d="M333.863,69.237a2.2,2.2,0,0,1-1.543,1.543v6.231h5.886V69.237Z" transform="translate(-22.13 -17.81)"/><path class="cls-2" d="M339.406,30.091a4.265,4.265,0,0,1,3.52-1.481,13.5,13.5,0,0,1,2.96.36,13.985,13.985,0,0,1,2.8.92l2.319-9.6a33.746,33.746,0,0,0-5.52-1.84,23.723,23.723,0,0,0-5.44-.64,14.041,14.041,0,0,0-7.72,2.121,13.857,13.857,0,0,0-5.12,5.959,21.323,21.323,0,0,0-1.8,9.121V38.45h-5.36v9.68h5.36V68.077h4.212a2.2,2.2,0,0,1,4.245,0h4.343V48.13h9.76V38.45h-9.76V34.53A6.944,6.944,0,0,1,339.406,30.091Z" transform="translate(-22.13 -17.81)"/><path class="cls-2" d="M404.347,70.78a2.2,2.2,0,0,1-1.543-1.543h-4.2v7.774h5.742Z" transform="translate(-22.13 -17.81)"/><path class="cls-2" d="M424.485,34.37h-1.32a12.905,12.905,0,0,0-7.2,2.481,17.655,17.655,0,0,0-5.6,6.64v-8h-11.76V68.077h4.2a2.2,2.2,0,0,1,4.245,0h4.356V51.81a10.431,10.431,0,0,1,5.44-4.36,22.775,22.775,0,0,1,8.4-1.48V34.45A3.193,3.193,0,0,0,424.485,34.37Z" transform="translate(-22.13 -17.81)"/><path class="cls-2" d="M407.049,69.237a2.2,2.2,0,0,1-1.542,1.543v6.231h5.9V69.237Z" transform="translate(-22.13 -17.81)"/><path class="cls-1" d="M275.285,115.626H270.85L259.967,97.991h-.122l.077.985q.211,2.815.212,5.146v11.5h-3.285V93.5h4.389l10.854,17.544h.09q-.03-.348-.121-2.536t-.091-3.413V93.5h3.315Z" transform="translate(-22.13 -17.81)"/><path class="cls-1" d="M281.129,115.626V93.5h3.617v22.13Z" transform="translate(-22.13 -17.81)"/><path class="cls-1" d="M303.106,115.626H290.589V93.5h12.517v3.058h-8.9v6.024h8.34v3.028h-8.34v6.948h8.9Z" transform="translate(-22.13 -17.81)"/><path class="cls-1" d="M311.507,106.786v8.84h-3.618V93.5h6.251q4.284,0,6.343,1.605a5.76,5.76,0,0,1,2.059,4.843q0,4.132-4.3,5.889l6.251,9.793h-4.117l-5.3-8.84Zm0-3h2.512a5.732,5.732,0,0,0,3.663-.938,3.4,3.4,0,0,0,1.135-2.785,3,3,0,0,0-1.225-2.7,6.726,6.726,0,0,0-3.694-.817h-2.391Z" transform="translate(-22.13 -17.81)"/><path class="cls-1" d="M345.05,93.5v14.32A8.5,8.5,0,0,1,344,112.107a7.014,7.014,0,0,1-3.042,2.831,10.575,10.575,0,0,1-4.761.991,8.906,8.906,0,0,1-6.4-2.18,7.887,7.887,0,0,1-2.285-5.994V93.5h3.632v14a5.594,5.594,0,0,0,1.272,4.042,5.24,5.24,0,0,0,3.9,1.3q5.117,0,5.116-5.373V93.5Z" transform="translate(-22.13 -17.81)"/><path class="cls-1" d="M360.126,96.281a5.968,5.968,0,0,0-4.9,2.21,9.453,9.453,0,0,0-1.785,6.1q0,4.073,1.718,6.161a6.067,6.067,0,0,0,4.972,2.089,13.028,13.028,0,0,0,2.724-.28q1.318-.281,2.741-.719v3.1a16.591,16.591,0,0,1-5.9.985q-4.859,0-7.462-2.944t-2.6-8.423a13.62,13.62,0,0,1,1.263-6.04,9.012,9.012,0,0,1,3.656-3.966,11.058,11.058,0,0,1,5.616-1.377,13.928,13.928,0,0,1,6.266,1.422l-1.3,3.012a19.448,19.448,0,0,0-2.369-.93A8.522,8.522,0,0,0,360.126,96.281Z" transform="translate(-22.13 -17.81)"/><path class="cls-1" d="M387.811,115.626h-3.633v-9.974h-10.2v9.974h-3.617V93.5h3.617v9.052h10.2V93.5h3.633Z" transform="translate(-22.13 -17.81)"/><path class="cls-1" d="M413.286,104.53q0,5.406-2.7,8.4t-7.653,3q-5.009,0-7.7-2.975T392.55,104.5q0-5.48,2.7-8.416t7.713-2.937q4.933,0,7.629,2.982T413.286,104.53Zm-16.893,0q0,4.087,1.651,6.2a6.716,6.716,0,0,0,9.756.022q1.641-2.088,1.642-6.222,0-4.07-1.628-6.175a5.751,5.751,0,0,0-4.85-2.1,5.871,5.871,0,0,0-4.912,2.1Q396.393,100.459,396.393,104.53Z" transform="translate(-22.13 -17.81)"/><path class="cls-1" d="M427.606,115.626l-6.418-18.482h-.121q.256,4.117.257,7.72v10.762H418.04V93.5h5.1l6.146,17.605h.091L435.7,93.5h5.116v22.13h-3.481V104.683q0-1.652.083-4.3t.143-3.209h-.121L430.8,115.626Z" transform="translate(-22.13 -17.81)"/><path class="cls-1" d="M466.3,104.53q0,5.406-2.7,8.4t-7.652,3q-5.01,0-7.7-2.975t-2.687-8.453q0-5.48,2.7-8.416t7.712-2.937q4.934,0,7.629,2.982T466.3,104.53Zm-16.893,0q0,4.087,1.65,6.2a6.716,6.716,0,0,0,9.756.022q1.643-2.088,1.643-6.222,0-4.07-1.628-6.175a5.752,5.752,0,0,0-4.851-2.1,5.872,5.872,0,0,0-4.912,2.1Q449.4,100.459,449.4,104.53Z" transform="translate(-22.13 -17.81)"/><path class="cls-1" d="M483.808,109.616a5.571,5.571,0,0,1-2.134,4.633,9.292,9.292,0,0,1-5.888,1.68,14.052,14.052,0,0,1-6.146-1.166v-3.42a16.606,16.606,0,0,0,3.217,1.119,13.613,13.613,0,0,0,3.171.409,5.043,5.043,0,0,0,3.171-.817,2.663,2.663,0,0,0,1.021-2.2,2.75,2.75,0,0,0-.937-2.1,14.15,14.15,0,0,0-3.875-2.043,10.264,10.264,0,0,1-4.27-2.8,5.926,5.926,0,0,1-1.24-3.784,5.3,5.3,0,0,1,1.967-4.359,8.161,8.161,0,0,1,5.283-1.589,15.523,15.523,0,0,1,6.327,1.392l-1.15,2.952a13.819,13.819,0,0,0-5.268-1.242,4.04,4.04,0,0,0-2.664.765,2.512,2.512,0,0,0-.908,2.021,2.842,2.842,0,0,0,.363,1.475,3.708,3.708,0,0,0,1.2,1.158,20.038,20.038,0,0,0,3,1.438,16.419,16.419,0,0,1,3.572,1.892,5.558,5.558,0,0,1,1.666,1.983A5.969,5.969,0,0,1,483.808,109.616Zm-9.021-17.89v-.379q.863-1.059,1.778-2.362t1.446-2.224h4.132v.317a30.947,30.947,0,0,1-2.353,2.384,33.016,33.016,0,0,1-2.642,2.264Z" transform="translate(-22.13 -17.81)"/><path class="cls-1" d="M497.507,96.281a5.967,5.967,0,0,0-4.905,2.21,9.453,9.453,0,0,0-1.785,6.1q0,4.073,1.718,6.161a6.065,6.065,0,0,0,4.972,2.089,13.028,13.028,0,0,0,2.724-.28q1.319-.281,2.74-.719v3.1a16.581,16.581,0,0,1-5.9.985q-4.858,0-7.462-2.944t-2.6-8.423a13.62,13.62,0,0,1,1.263-6.04,9.012,9.012,0,0,1,3.656-3.966,11.055,11.055,0,0,1,5.616-1.377A13.923,13.923,0,0,1,503.8,94.6l-1.3,3.012a19.448,19.448,0,0,0-2.369-.93A8.522,8.522,0,0,0,497.507,96.281Z" transform="translate(-22.13 -17.81)"/><path class="cls-1" d="M507.74,115.626V93.5h3.617v22.13Z" transform="translate(-22.13 -17.81)"/></svg>
