<svg id="Warstwa_2" data-name="Warstwa 2" xmlns="http://www.w3.org/2000/svg" viewBox="0 0 600.983 143.505"><defs><style>.cls-1{fill:#d41120;}.cls-2{fill:#1d1d1b;}.cls-3{fill:#fbbc0c;}.cls-4{fill:#009640;}.cls-5{fill:#682f88;}.cls-6{fill:#e6007e;}.cls-7{fill:#517cbe;}</style></defs><path class="cls-1" d="M26.939,97.507V57.983a2.227,2.227,0,0,1-.644-.255l-8.232,6.891V99.051H25.4A2.209,2.209,0,0,1,26.939,97.507Z" transform="translate(-18.062 -18.061)"/><path class="cls-1" d="M25.483,56.9a2.208,2.208,0,0,1,3.321-2.78L62.8,25.664l.663-.623,34.127,28.87a2.2,2.2,0,0,1,3.312,2.8l7.574,6.406V55.068l-45-37.007H63.06l-45,37v8.043Z" transform="translate(-18.062 -18.061)"/><path class="cls-1" d="M99.6,57.712V97.506a2.21,2.21,0,0,1,1.543,1.545h7.333V64.638l-8.4-7.108A2.22,2.22,0,0,1,99.6,57.712Z" transform="translate(-18.062 -18.061)"/><path class="cls-1" d="M101.14,100.211a2.207,2.207,0,0,1-1.543,1.544v6.715h1.312a7.564,7.564,0,0,0,7.564-7.563v-.7Z" transform="translate(-18.062 -18.061)"/><path class="cls-1" d="M26.939,101.755a2.211,2.211,0,0,1-1.542-1.544H18.063v.7a7.56,7.56,0,0,0,7.56,7.563h1.316Z" transform="translate(-18.062 -18.061)"/><path class="cls-1" d="M28.1,108.47H98.437v-6.715a2.21,2.21,0,0,1-1.541-1.544H29.642a2.207,2.207,0,0,1-1.544,1.544Z" transform="translate(-18.062 -18.061)"/><path class="cls-2" d="M224.528,109.916h-13.79v-2.189l9.715-14.383H211v-2.7h13.263v2.215l-9.756,14.357h10.02Z" transform="translate(-18.062 -18.061)"/><path class="cls-2" d="M245.079,109.916h-3.862l-9.479-15.359h-.106l.067.857q.184,2.453.184,4.483v10.019h-2.86V90.641h3.822l9.453,15.281h.079q-.025-.3-.105-2.209c-.053-1.269-.079-2.262-.079-2.973v-10.1h2.886Z" transform="translate(-18.062 -18.061)"/><path class="cls-2" d="M263.206,109.916l-1.924-5.353h-7.371l-1.884,5.353H248.7l7.211-19.353h3.428l7.212,19.353Zm-2.755-8.068L258.645,96.6c-.132-.352-.315-.9-.547-1.66s-.394-1.311-.481-1.662a29.792,29.792,0,0,1-1.041,3.546l-1.741,5.024Z" transform="translate(-18.062 -18.061)"/><path class="cls-2" d="M267.741,115.3a6.17,6.17,0,0,1-2.163-.33v-2.65a8.081,8.081,0,0,0,1.925.277q2.584,0,2.584-3.27V90.641h3.164v18.576a6.535,6.535,0,0,1-1.4,4.516A5.238,5.238,0,0,1,267.741,115.3Z" transform="translate(-18.062 -18.061)"/><path class="cls-2" d="M295,100.094q0,4.773-2.649,7.3t-7.634,2.525h-5.392V90.641h5.959a9.862,9.862,0,0,1,7.159,2.478A9.266,9.266,0,0,1,295,100.094Zm-3.322.105q0-6.919-6.474-6.921h-2.728v13.988h2.241Q291.682,107.266,291.681,100.2Z" transform="translate(-18.062 -18.061)"/><path class="cls-2" d="M312.338,109.916h-13.79v-2.189l9.716-14.383h-9.452v-2.7h13.263v2.215l-9.756,14.357h10.019ZM303.4,89.1v-.33q.752-.924,1.549-2.057t1.258-1.937h3.6v.275a27.013,27.013,0,0,1-2.05,2.076,28.912,28.912,0,0,1-2.3,1.973Z" transform="translate(-18.062 -18.061)"/><path class="cls-2" d="M340.9,104.682a4.849,4.849,0,0,1-1.86,4.035,8.089,8.089,0,0,1-5.128,1.463,12.218,12.218,0,0,1-5.352-1.016v-2.978a14.508,14.508,0,0,0,2.8.974,11.779,11.779,0,0,0,2.761.356,4.4,4.4,0,0,0,2.762-.711,2.319,2.319,0,0,0,.89-1.912,2.4,2.4,0,0,0-.817-1.832,12.323,12.323,0,0,0-3.375-1.78,8.925,8.925,0,0,1-3.718-2.439,5.162,5.162,0,0,1-1.081-3.3,4.62,4.62,0,0,1,1.713-3.8,7.117,7.117,0,0,1,4.6-1.383,13.528,13.528,0,0,1,5.511,1.213l-1,2.571a12.037,12.037,0,0,0-4.588-1.082,3.517,3.517,0,0,0-2.32.666,2.184,2.184,0,0,0-.792,1.759,2.477,2.477,0,0,0,.317,1.286,3.215,3.215,0,0,0,1.042,1.009,17.3,17.3,0,0,0,2.609,1.252,14.322,14.322,0,0,1,3.112,1.649,4.86,4.86,0,0,1,1.451,1.726A5.228,5.228,0,0,1,340.9,104.682Z" transform="translate(-18.062 -18.061)"/><path class="cls-2" d="M363.5,109.916h-3.427l-3.27-11.5q-.21-.753-.527-2.17t-.382-1.971q-.134.845-.429,2.19t-.5,2l-3.189,11.443h-3.428l-2.492-9.65-2.531-9.625h3.216l2.756,11.232a48.574,48.574,0,0,1,.922,4.774q.145-1.122.436-2.506t.527-2.24l3.138-11.26h3.124l3.216,11.312a42.341,42.341,0,0,1,.977,4.694,34.063,34.063,0,0,1,.949-4.8l2.742-11.207h3.19Z" transform="translate(-18.062 -18.061)"/><path class="cls-2" d="M389.44,100.252q0,4.709-2.353,7.317a9.887,9.887,0,0,1-13.368.019q-2.34-2.589-2.34-7.361t2.353-7.33a8.672,8.672,0,0,1,6.718-2.559,8.492,8.492,0,0,1,6.644,2.6Q389.44,95.531,389.44,100.252Zm-14.713,0a8.646,8.646,0,0,0,1.437,5.4,5.848,5.848,0,0,0,8.5.019,8.651,8.651,0,0,0,1.431-5.418,8.681,8.681,0,0,0-1.418-5.379,5.012,5.012,0,0,0-4.224-1.832,5.119,5.119,0,0,0-4.279,1.832A8.561,8.561,0,0,0,374.727,100.252ZM378.446,89.1v-.33q.75-.924,1.548-2.057t1.259-1.937h3.6v.275a26.827,26.827,0,0,1-2.05,2.076,28.925,28.925,0,0,1-2.3,1.973Z" transform="translate(-18.062 -18.061)"/><path class="cls-2" d="M392.221,115.3a6.164,6.164,0,0,1-2.162-.33v-2.65a8.074,8.074,0,0,0,1.925.277q2.583,0,2.584-3.27V90.641h3.164v18.576a6.535,6.535,0,0,1-1.405,4.516A5.235,5.235,0,0,1,392.221,115.3Z" transform="translate(-18.062 -18.061)"/><path class="cls-2" d="M432.437,100.094q0,4.773-2.65,7.3t-7.633,2.525h-5.392V90.641h5.959a9.861,9.861,0,0,1,7.158,2.478A9.266,9.266,0,0,1,432.437,100.094Zm-3.322.105q0-6.919-6.474-6.921h-2.729v13.988h2.242Q429.114,107.266,429.115,100.2Z" transform="translate(-18.062 -18.061)"/><path class="cls-2" d="M454.769,100.252q0,4.709-2.353,7.317a9.887,9.887,0,0,1-13.368.019q-2.34-2.589-2.34-7.361t2.353-7.33a8.672,8.672,0,0,1,6.718-2.559,8.492,8.492,0,0,1,6.644,2.6Q454.769,95.531,454.769,100.252Zm-14.713,0a8.646,8.646,0,0,0,1.437,5.4,5.849,5.849,0,0,0,8.5.019,8.658,8.658,0,0,0,1.43-5.418A8.674,8.674,0,0,0,450,94.873a5.012,5.012,0,0,0-4.224-1.832,5.119,5.119,0,0,0-4.279,1.832A8.561,8.561,0,0,0,440.056,100.252Z" transform="translate(-18.062 -18.061)"/><path class="cls-2" d="M468.322,109.916l-5.59-16.1h-.106q.224,3.585.224,6.724v9.373h-2.86V90.641h4.442l5.352,15.334h.08l5.51-15.334h4.456v19.275H476.8v-9.531q0-1.439.072-3.744t.125-2.8h-.105l-5.787,16.07Z" transform="translate(-18.062 -18.061)"/><path class="cls-2" d="M159.135,65.541a11.564,11.564,0,0,1,2.32-7.172,15.573,15.573,0,0,1,6.4-4.85,23.3,23.3,0,0,1,9.359-1.773,28.83,28.83,0,0,1,5.04.439,19.406,19.406,0,0,1,4.32,1.241V51.59a6.349,6.349,0,0,0-2.08-5.1q-2.081-1.78-6.32-1.781a17.993,17.993,0,0,0-6.6,1.2,36.14,36.14,0,0,0-6.52,3.439l-3.84-8.16a33.458,33.458,0,0,1,8.68-4.08,33.024,33.024,0,0,1,9.56-1.359q9.438,0,14.68,4.43T199.375,53v10.74a4.3,4.3,0,0,0,.6,2.629,3,3,0,0,0,2.12.9V77.906c-1.068.213-2.068.371-3,.48a22.008,22.008,0,0,1-2.44.159,8.885,8.885,0,0,1-5.48-1.44,6.23,6.23,0,0,1-2.359-3.92l-.241-1.84a18.761,18.761,0,0,1-6.68,5.481,18.414,18.414,0,0,1-8.119,1.879,15.922,15.922,0,0,1-7.481-1.733,13.511,13.511,0,0,1-5.24-4.73A12.167,12.167,0,0,1,159.135,65.541Zm25.44,1.5a6.64,6.64,0,0,0,1.44-1.541,2.963,2.963,0,0,0,.56-1.619V60.256a19.293,19.293,0,0,0-3.56-.963,21.018,21.018,0,0,0-3.64-.348,10.535,10.535,0,0,0-5.84,1.5,4.55,4.55,0,0,0-2.32,3.969,4.381,4.381,0,0,0,.8,2.545,5.68,5.68,0,0,0,2.2,1.849,7.393,7.393,0,0,0,3.32.694,11.219,11.219,0,0,0,3.84-.694A10.367,10.367,0,0,0,184.575,67.039Z" transform="translate(-18.062 -18.061)"/><path class="cls-2" d="M279.936,78.705a25.022,25.022,0,0,1-9.521-1.7,21.2,21.2,0,0,1-7.08-4.627,19.787,19.787,0,0,1-4.439-6.764,21.574,21.574,0,0,1-1.521-8.029,22.33,22.33,0,0,1,2.68-10.881,20.745,20.745,0,0,1,7.721-7.934,26,26,0,0,1,24.279-.033,20.44,20.44,0,0,1,7.64,7.836,21.624,21.624,0,0,1,2.64,10.516,19.318,19.318,0,0,1-.12,2.166c-.08.709-.147,1.324-.2,1.849h-31.04a9.194,9.194,0,0,0,1.56,4.59,8.491,8.491,0,0,0,3.4,2.838,10.255,10.255,0,0,0,4.4.973,11.205,11.205,0,0,0,5.4-1.36,7.362,7.362,0,0,0,3.48-3.681l10.88,3.041a18.13,18.13,0,0,1-4.52,5.8,21.811,21.811,0,0,1-6.88,3.959A25.447,25.447,0,0,1,279.936,78.705Zm-9.281-25.44H288.9a10.475,10.475,0,0,0-1.521-4.388,8.206,8.206,0,0,0-3.2-2.9,9.99,9.99,0,0,0-8.84,0,8.27,8.27,0,0,0-3.16,2.9A10.446,10.446,0,0,0,270.655,53.265Z" transform="translate(-18.062 -18.061)"/><path class="cls-2" d="M332.333,65.541a11.57,11.57,0,0,1,2.32-7.172,15.573,15.573,0,0,1,6.4-4.85,23.3,23.3,0,0,1,9.359-1.773,28.83,28.83,0,0,1,5.04.439,19.415,19.415,0,0,1,4.321,1.241V51.59a6.349,6.349,0,0,0-2.081-5.1q-2.081-1.78-6.32-1.781a17.987,17.987,0,0,0-6.6,1.2,36.113,36.113,0,0,0-6.521,3.439l-3.84-8.16a33.473,33.473,0,0,1,8.68-4.08,33.029,33.029,0,0,1,9.56-1.359q9.438,0,14.68,4.43T372.573,53v10.74a4.312,4.312,0,0,0,.6,2.629,3,3,0,0,0,2.12.9V77.906c-1.067.213-2.067.371-3,.48a21.992,21.992,0,0,1-2.439.159,8.886,8.886,0,0,1-5.481-1.44,6.23,6.23,0,0,1-2.359-3.92l-.24-1.84a18.773,18.773,0,0,1-6.681,5.481,18.414,18.414,0,0,1-8.119,1.879,15.922,15.922,0,0,1-7.481-1.733,13.511,13.511,0,0,1-5.24-4.73A12.167,12.167,0,0,1,332.333,65.541Zm25.441,1.5a6.635,6.635,0,0,0,1.439-1.541,2.965,2.965,0,0,0,.561-1.619V60.256a19.3,19.3,0,0,0-3.561-.963,21.018,21.018,0,0,0-3.64-.348,10.531,10.531,0,0,0-5.839,1.5,4.551,4.551,0,0,0-2.321,3.969,4.381,4.381,0,0,0,.8,2.545,5.688,5.688,0,0,0,2.2,1.849,7.394,7.394,0,0,0,3.321.694,11.217,11.217,0,0,0,3.839-.694A10.373,10.373,0,0,0,357.774,67.039Z" transform="translate(-18.062 -18.061)"/><path class="cls-1" d="M400.254,78.705a24.888,24.888,0,0,1-9.561-1.733,20.547,20.547,0,0,1-7.08-4.73,20.243,20.243,0,0,1-4.359-6.857,23.232,23.232,0,0,1,0-16.319,20.262,20.262,0,0,1,4.359-6.857,20.573,20.573,0,0,1,7.08-4.729,24.869,24.869,0,0,1,9.561-1.734,24.571,24.571,0,0,1,9.52,1.734,20.481,20.481,0,0,1,11.44,11.586,22.66,22.66,0,0,1,0,16.319,20.486,20.486,0,0,1-11.44,11.587A24.59,24.59,0,0,1,400.254,78.705Zm-9.36-21.44a12.026,12.026,0,0,0,1.24,5.592,9.39,9.39,0,0,0,3.319,3.729,8.776,8.776,0,0,0,4.8,1.32,8.634,8.634,0,0,0,4.76-1.359,9.3,9.3,0,0,0,3.32-3.768,12.193,12.193,0,0,0,1.2-5.514,12.378,12.378,0,0,0-1.2-5.591,9.039,9.039,0,0,0-3.32-3.729,9.316,9.316,0,0,0-9.561,0,9.4,9.4,0,0,0-3.319,3.729A12.028,12.028,0,0,0,390.894,57.265Z" transform="translate(-18.062 -18.061)"/><path class="cls-1" d="M476.733,78.705a25.022,25.022,0,0,1-9.521-1.7,21.2,21.2,0,0,1-7.08-4.627,19.787,19.787,0,0,1-4.439-6.764,21.574,21.574,0,0,1-1.521-8.029,22.33,22.33,0,0,1,2.68-10.881,20.749,20.749,0,0,1,7.72-7.934,26,26,0,0,1,24.28-.033,20.44,20.44,0,0,1,7.64,7.836,21.624,21.624,0,0,1,2.64,10.516,19.318,19.318,0,0,1-.12,2.166c-.08.709-.148,1.324-.2,1.849h-31.04a9.194,9.194,0,0,0,1.56,4.59,8.491,8.491,0,0,0,3.4,2.838,10.255,10.255,0,0,0,4.4.973,11.205,11.205,0,0,0,5.4-1.36,7.362,7.362,0,0,0,3.48-3.681l10.88,3.041a18.144,18.144,0,0,1-4.52,5.8,21.811,21.811,0,0,1-6.88,3.959A25.447,25.447,0,0,1,476.733,78.705Zm-9.281-25.44h18.241a10.475,10.475,0,0,0-1.521-4.388,8.206,8.206,0,0,0-3.2-2.9,9.99,9.99,0,0,0-8.84,0,8.27,8.27,0,0,0-3.16,2.9A10.446,10.446,0,0,0,467.452,53.265Z" transform="translate(-18.062 -18.061)"/><path class="cls-2" d="M591.637,59.889a9.8,9.8,0,0,1-4.944-1.206,8.762,8.762,0,0,1-3.311-3.288V69.632H575.7V34.5h6.672v4.109a9.591,9.591,0,0,1,8.448-4.493,10.972,10.972,0,0,1,4.681.993,11.549,11.549,0,0,1,3.719,2.743,12.51,12.51,0,0,1,2.449,4.068,14.251,14.251,0,0,1,.863,5.012,15.251,15.251,0,0,1-1.392,6.622,11.456,11.456,0,0,1-3.864,4.635A9.7,9.7,0,0,1,591.637,59.889Zm-2.591-6.48a4.889,4.889,0,0,0,2.279-.535,6.08,6.08,0,0,0,1.8-1.422,6.252,6.252,0,0,0,1.176-2.074,7.648,7.648,0,0,0,.408-2.493,6.5,6.5,0,0,0-.456-2.469,6.341,6.341,0,0,0-1.273-1.981,5.628,5.628,0,0,0-1.92-1.328,6.1,6.1,0,0,0-2.4-.466,5.593,5.593,0,0,0-1.56.23,5.853,5.853,0,0,0-1.488.666,6.7,6.7,0,0,0-1.271,1.034,5.4,5.4,0,0,0-.96,1.38v5.107a8,8,0,0,0,1.391,2.222,6.94,6.94,0,0,0,1.968,1.551A4.908,4.908,0,0,0,589.046,53.409Z" transform="translate(-18.062 -18.061)"/><path class="cls-2" d="M605.365,24.369h7.68V50.476a3.483,3.483,0,0,0,.576,2.26,2.033,2.033,0,0,0,1.632.673,5.289,5.289,0,0,0,1.465-.216,8.045,8.045,0,0,0,1.319-.5l1.008,5.76a14.864,14.864,0,0,1-3.312,1.055,17.5,17.5,0,0,1-3.5.385,6.951,6.951,0,0,1-5.064-1.755,6.626,6.626,0,0,1-1.8-4.974Z" transform="translate(-18.062 -18.061)"/><path class="cls-2" d="M563.469,59.409V51.585h6.289v7.824Z" transform="translate(-18.062 -18.061)"/><path class="cls-2" d="M139.224,26.553a2.2,2.2,0,0,1,1.562,1.6h4.27V23.025h-5.832Z" transform="translate(-18.062 -18.061)"/><path class="cls-2" d="M136.5,28.156a2.2,2.2,0,0,1,1.562-1.6V23.025h-5.809v5.131Z" transform="translate(-18.062 -18.061)"/><path class="cls-2" d="M154.336,65.506a17.618,17.618,0,0,1-2.68,1.039,9.962,9.962,0,0,1-2.921.48,3.888,3.888,0,0,1-2.639-.9,3.689,3.689,0,0,1-1.04-2.934V57.034h-4.289a2.2,2.2,0,0,1-1.543,1.543V78.038a16.315,16.315,0,0,0,4.712.667,24.479,24.479,0,0,0,4.56-.44,32.607,32.607,0,0,0,4.44-1.16q2.119-.72,3.88-1.439Z" transform="translate(-18.062 -18.061)"/><path class="cls-2" d="M153.616,36.386h-8.56v-7.07h-4.294a2.2,2.2,0,0,1-1.538,1.541V54.332a2.2,2.2,0,0,1,1.543,1.542h4.289V46.066h8.56Z" transform="translate(-18.062 -18.061)"/><path class="cls-2" d="M132.256,55.874h4.266a2.2,2.2,0,0,1,1.543-1.542V30.86a2.2,2.2,0,0,1-1.548-1.544h-4.261v7.07H126.9v9.68h5.36Z" transform="translate(-18.062 -18.061)"/><path class="cls-2" d="M138.065,58.577a2.2,2.2,0,0,1-1.543-1.543h-4.266V67.668a11.871,11.871,0,0,0,1.56,6.465,8.748,8.748,0,0,0,4.24,3.509l.009,0Z" transform="translate(-18.062 -18.061)"/><path class="cls-1" d="M546.54,26.553a2.2,2.2,0,0,1,1.561,1.6h4.27V23.025H546.54Z" transform="translate(-18.062 -18.061)"/><path class="cls-1" d="M543.819,28.156a2.2,2.2,0,0,1,1.561-1.6V23.025h-5.809v5.131Z" transform="translate(-18.062 -18.061)"/><path class="cls-1" d="M561.651,65.506a17.6,17.6,0,0,1-2.679,1.039,9.967,9.967,0,0,1-2.921.48,3.889,3.889,0,0,1-2.64-.9,3.692,3.692,0,0,1-1.04-2.934V57.034h-4.289a2.2,2.2,0,0,1-1.542,1.543V78.038a16.308,16.308,0,0,0,4.711.667,24.471,24.471,0,0,0,4.56-.44,32.607,32.607,0,0,0,4.44-1.16q2.12-.72,3.88-1.439Z" transform="translate(-18.062 -18.061)"/><path class="cls-1" d="M560.932,36.386h-8.561v-7.07h-4.294a2.2,2.2,0,0,1-1.537,1.541V54.332a2.2,2.2,0,0,1,1.542,1.542h4.289V46.066h8.561Z" transform="translate(-18.062 -18.061)"/><path class="cls-1" d="M539.571,55.874h4.266a2.2,2.2,0,0,1,1.543-1.542V30.86a2.2,2.2,0,0,1-1.548-1.544h-4.261v7.07h-5.36v9.68h5.36Z" transform="translate(-18.062 -18.061)"/><path class="cls-1" d="M545.38,58.577a2.2,2.2,0,0,1-1.543-1.543h-4.266V67.668a11.871,11.871,0,0,0,1.56,6.465,8.748,8.748,0,0,0,4.24,3.509l.009,0Z" transform="translate(-18.062 -18.061)"/><path class="cls-2" d="M252.1,48.949a22.072,22.072,0,0,0-3.8-6.857,18.067,18.067,0,0,0-5.76-4.651,15.853,15.853,0,0,0-7.32-1.7,16.188,16.188,0,0,0-8.2,2,14.783,14.783,0,0,0-5.56,5.68V29.316H217.3a2.2,2.2,0,0,1-4.245,0h-4.4v48.59h11.12V70.945a14.808,14.808,0,0,0,5.68,5.721,16.759,16.759,0,0,0,8.4,2.039,18.458,18.458,0,0,0,14-6.147,21.434,21.434,0,0,0,4.12-6.781,23.159,23.159,0,0,0,1.48-8.353A25.6,25.6,0,0,0,252.1,48.949Zm-12.48,12.627a9.481,9.481,0,0,1-2.08,3.3,10.125,10.125,0,0,1-7.28,3.029,8.465,8.465,0,0,1-2.6-.426,11.8,11.8,0,0,1-2.48-1.127,9.6,9.6,0,0,1-2.12-1.748,9.808,9.808,0,0,1-1.6-2.369V53.693a13.2,13.2,0,0,1,2.32-3.611,11.243,11.243,0,0,1,3.28-2.524,8.684,8.684,0,0,1,8.76.543,10.05,10.05,0,0,1,3.32,3.961,12.165,12.165,0,0,1,1.2,5.358A11.643,11.643,0,0,1,239.615,61.576Z" transform="translate(-18.062 -18.061)"/><path class="cls-2" d="M215.761,26.614a2.2,2.2,0,0,1,1.543,1.542h4.151v-8.65h-5.694Z" transform="translate(-18.062 -18.061)"/><path class="cls-2" d="M213.059,28.156a2.2,2.2,0,0,1,1.543-1.542V19.506h-5.947v8.65Z" transform="translate(-18.062 -18.061)"/><path class="cls-2" d="M313.455,26.614A2.2,2.2,0,0,1,315,28.156h4.216v-8.65h-5.759Z" transform="translate(-18.062 -18.061)"/><path class="cls-2" d="M310.753,28.156a2.2,2.2,0,0,1,1.543-1.542V19.506h-5.882v8.65Z" transform="translate(-18.062 -18.061)"/><path class="cls-2" d="M327.534,66.705a13.015,13.015,0,0,1-2.2.84,8.738,8.738,0,0,1-2.44.361,3.389,3.389,0,0,1-2.72-1.121,5.811,5.811,0,0,1-.96-3.768v-33.7H315a2.2,2.2,0,0,1-4.245,0h-4.339V67.49q0,5.37,3,8.291t8.44,2.924a29.186,29.186,0,0,0,5.839-.639,24.955,24.955,0,0,0,5.521-1.76Z" transform="translate(-18.062 -18.061)"/><path class="cls-1" d="M435.927,71.675a2.2,2.2,0,0,1-1.543-1.543h-4.212v7.774h5.755Z" transform="translate(-18.062 -18.061)"/><path class="cls-1" d="M438.629,70.132a2.2,2.2,0,0,1-1.543,1.543v6.231h5.886V70.132Z" transform="translate(-18.062 -18.061)"/><path class="cls-1" d="M444.172,30.986a4.267,4.267,0,0,1,3.52-1.48,13.558,13.558,0,0,1,2.96.359,13.954,13.954,0,0,1,2.8.92l2.32-9.6a33.778,33.778,0,0,0-5.52-1.84,23.779,23.779,0,0,0-5.44-.64,14.041,14.041,0,0,0-7.72,2.121,13.857,13.857,0,0,0-5.12,5.959,21.323,21.323,0,0,0-1.8,9.121v3.439h-5.36v9.68h5.36V68.973h4.212a2.2,2.2,0,0,1,4.245,0h4.343V49.025h9.76v-9.68h-9.76V35.426A6.945,6.945,0,0,1,444.172,30.986Z" transform="translate(-18.062 -18.061)"/><path class="cls-1" d="M509.113,71.675a2.2,2.2,0,0,1-1.543-1.543h-4.2v7.774h5.742Z" transform="translate(-18.062 -18.061)"/><path class="cls-1" d="M529.251,35.265h-1.32a12.905,12.905,0,0,0-7.2,2.481,17.646,17.646,0,0,0-5.6,6.64v-8h-11.76V68.973h4.2a2.2,2.2,0,0,1,4.245,0h4.356V52.705a10.437,10.437,0,0,1,5.439-4.36,22.781,22.781,0,0,1,8.4-1.48V35.345A3.246,3.246,0,0,0,529.251,35.265Z" transform="translate(-18.062 -18.061)"/><path class="cls-1" d="M511.815,70.132a2.2,2.2,0,0,1-1.543,1.543v6.231h5.9V70.132Z" transform="translate(-18.062 -18.061)"/><path class="cls-1" d="M100.91,18.061H77.82l30.65,25.211V25.62a7.561,7.561,0,0,0-7.56-7.559Z" transform="translate(-18.062 -18.061)"/><path class="cls-1" d="M25.621,18.061a7.561,7.561,0,0,0-7.559,7.559V43.272l30.65-25.211Z" transform="translate(-18.062 -18.061)"/><path class="cls-1" d="M63.266,54.822a7.684,7.684,0,1,0,7.685,7.686,7.682,7.682,0,0,0-7.685-7.686Z" transform="translate(-18.062 -18.061)"/><path class="cls-1" d="M97.56,57.3a2.2,2.2,0,0,1-.643-2.439L63.5,26.591,29.481,55.062a2.2,2.2,0,0,1-.641,2.47,2.155,2.155,0,0,1-.742.39V97.506a2.21,2.21,0,0,1,1.544,1.545H96.9a2.208,2.208,0,0,1,1.541-1.544V57.727A2.14,2.14,0,0,1,97.56,57.3Zm-25.9,21.711C68.605,84.5,65.6,89.063,65.47,89.255l-2.2,3.341-2.2-3.341c-.126-.192-3.135-4.759-6.194-10.24-4.321-7.752-6.423-13.114-6.423-16.408a14.821,14.821,0,1,1,29.641,0C78.086,65.9,75.985,71.263,71.664,79.012Z" transform="translate(-18.062 -18.061)"/><path class="cls-2" d="M573.411,83.35l-1-.047c.69-14.625-6.74-27.425-6.815-27.553l.861-.508C566.535,55.372,574.116,68.419,573.411,83.35Z" transform="translate(-18.062 -18.061)"/><path class="cls-2" d="M569.02,84.322c-5.042-14.465-3.506-29.207-3.49-29.354l.994.109c-.015.145-1.525,14.671,3.44,28.915Z" transform="translate(-18.062 -18.061)"/><rect class="cls-3" x="533.976" y="83.641" width="75.64" height="72.189" rx="10.463" transform="translate(-30.164 120.373) rotate(-13.661)"/><path class="cls-4" d="M548.186,155.522,543.295,135.4l5.51-1.34,3.9,16.043,11.558-2.811.992,4.082Z" transform="translate(-18.062 -18.061)"/><path class="cls-5" d="M570.309,128.832l5.947-1.445,13.089,18.131-5.643,1.371-2.712-4.113-7.856,1.908-.521,4.9-5.645,1.373Zm8.751,11.022-4.657-7.065-.9,8.414Z" transform="translate(-18.062 -18.061)"/><path class="cls-6" d="M604.431,124.862l-7.256,1.763,3.9,16.041-5.511,1.34-3.9-16.041-7.291,1.772-.993-4.08,20.06-4.877Z" transform="translate(-18.062 -18.061)"/><path class="cls-7" d="M600.1,100.473a19.916,19.916,0,0,0-4.415-8.73,17.037,17.037,0,0,0-7.475-4.946,17.172,17.172,0,0,0-17.037,4.141,16.892,16.892,0,0,0-4.31,7.518,11.2,11.2,0,0,1,.742,2.07,9.436,9.436,0,0,1,.215,3.8,10.594,10.594,0,0,1-1.075,3.208c-.024.046-.055.087-.079.132.06.3.118.589.191.887a20.093,20.093,0,0,0,3.988,8.219l1.369-.333.571,2.346a17.075,17.075,0,0,0,23.022-.732,16.805,16.805,0,0,0,4.378-7.8A19.918,19.918,0,0,0,600.1,100.473Zm-9.919,7.475a7.833,7.833,0,0,1-1.488,3.726,5.288,5.288,0,0,1-3,1.934,5.5,5.5,0,0,1-3.653-.317,7.433,7.433,0,0,1-3.032-2.627,15.192,15.192,0,0,1-2.324-9.562,7.658,7.658,0,0,1,1.481-3.758,5.426,5.426,0,0,1,3.091-1.986,5.208,5.208,0,0,1,3.564.369,8.054,8.054,0,0,1,3.041,2.658,14.629,14.629,0,0,1,2.324,9.563Z" transform="translate(-18.062 -18.061)"/><path class="cls-1" d="M542.347,132.854a25.4,25.4,0,0,1-.762-5.219,13.573,13.573,0,0,1,.595-4.488,14.621,14.621,0,0,1,2.151-4.19,24.772,24.772,0,0,1,4-4.223q2.625-2.246,4.371-3.8t2.782-2.575a5.574,5.574,0,0,0,1.341-1.837,2.75,2.75,0,0,0,.1-1.666A3.607,3.607,0,0,0,553.867,102a6.947,6.947,0,0,0-2.787.182,9.741,9.741,0,0,0-2.346.888,9.336,9.336,0,0,0-1.979,1.435,13.685,13.685,0,0,0-1.663,1.9,23.664,23.664,0,0,0-1.466,2.3l-8.154-5.521a16.91,16.91,0,0,1,2.275-2.714,23.685,23.685,0,0,1,3.407-2.768,31.492,31.492,0,0,1,4.423-2.474,28.647,28.647,0,0,1,5.258-1.818,20.833,20.833,0,0,1,8.055-.574,10.962,10.962,0,0,1,5.7,2.506,9.8,9.8,0,0,1,3.015,5.188,9.436,9.436,0,0,1,.215,3.8,10.594,10.594,0,0,1-1.075,3.208,15.082,15.082,0,0,1-1.917,2.8q-1.133,1.313-2.276,2.431-1.348,1.107-2.516,2.134t-2.157,1.95a23.774,23.774,0,0,0-1.806,1.863,17.454,17.454,0,0,0-1.5,2.016l17.641-4.287,2.1,8.644Z" transform="translate(-18.062 -18.061)"/></svg>