<?xml version="1.0" encoding="utf-8"?>
<!-- Generator: Adobe Illustrator 18.1.1, SVG Export Plug-In . SVG Version: 6.00 Build 0)  -->
<svg version="1.1" xmlns="http://www.w3.org/2000/svg" xmlns:xlink="http://www.w3.org/1999/xlink" x="0px" y="0px" width="128px"
   height="128px" viewBox="0 0 128 128" style="enable-background:new 0 0 128 128;" xml:space="preserve">
<g id="BASE">
  <linearGradient id="SVGID_1_" gradientUnits="userSpaceOnUse" x1="63.9997" y1="7.0336" x2="63.9997" y2="120.7894">
    <stop  offset="0" style="stop-color:#4387FD"/>
    <stop  offset="1" style="stop-color:#4683EA"/>
  </linearGradient>
  <path style="fill:url(#SVGID_1_);" d="M27.7906,115.2166L1.54,69.7493c-2.0541-3.5578-2.0541-7.9412,0-11.499l26.2506-45.4672
    c2.0541-3.5578,5.8503-5.7495,9.9585-5.7495h52.5012c4.1082,0,7.9044,2.1917,9.9585,5.7495l26.2506,45.4672
    c2.0541,3.5578,2.0541,7.9412,0,11.499l-26.2506,45.4672c-2.0541,3.5578-5.8503,5.7495-9.9585,5.7495H37.7491
    C33.6409,120.9661,29.8448,118.7744,27.7906,115.2166z"/>
</g>
<g id="shadow">
  <g>
    <defs>
      <path id="SVGID_5_" d="M126.4743,58.3011l-26.3044-45.5995c-2.1084-3.6542-5.9312-5.6978-9.8641-5.7017H37.6976
        c-4.2153,0-7.8957,2.2923-9.8656,5.6983L1.528,58.2981c-2.1079,3.6538-1.965,7.9897-0.002,11.4001l26.3044,45.5999
        c2.1079,3.6538,5.9312,5.6979,9.8637,5.7018l29.5939-0.0039l0,0l23.0149,0.0039c4.2152,0,7.8957-2.2923,9.8646-5.6988
        l26.3049-45.5994C128.5797,66.0479,128.4368,61.7115,126.4743,58.3011z"/>
    </defs>
    <clipPath id="SVGID_2_">
      <use xlink:href="#SVGID_5_"  style="overflow:visible;"/>
    </clipPath>
    <polygon style="opacity:0.07;clip-path:url(#SVGID_2_);" points="36,49 44,57 43,58 48,63 43,67 46.8125,70.8125 43.0379,76.1428
      47,80 42.8855,85.032 79.67,121.8091 97.75,121.0833 124,80 88,44"/>
  </g>
</g>
<g id="art">
  <rect x="36" y="44" style="fill:#FFFFFF;" width="52" height="4.9999"/>
  <rect x="43" y="53" style="fill:#FFFFFF;" width="42" height="4.9999"/>
  <rect x="43" y="62" style="fill:#FFFFFF;" width="45" height="4.9999"/>
  <rect x="43" y="80" style="fill:#FFFFFF;" width="45" height="4.9999"/>
  <rect x="43" y="71" style="fill:#FFFFFF;" width="42" height="4.9999"/>
</g>
<g id="Guides">
</g>
</svg>
