<svg id="Warstwa_1" xmlns="http://www.w3.org/2000/svg" xmlns:xlink="http://www.w3.org/1999/xlink" viewBox="0 0 652.1 186.4"><style>.st0{fill:#585056}</style><path class="st0" d="M150.3 44.2v60.4H188V93.1h-24V44.2z"/><defs><path id="SVGID_1_" d="M0 0h652.1v186.4H0z"/></defs><clipPath id="SVGID_2_"><use xlink:href="#SVGID_1_" overflow="visible"/></clipPath><path d="M228.9 79c0 10.6-3.9 15.7-11.1 15.7-7 0-10.9-5.3-10.9-15.7V44.2h-13.7v33.7c0 19.2 9 27.7 24.2 27.7 15.8 0 25.2-8.9 25.2-27.5V44.2H229V79zm25.4-34.8v60.3h13.5V84.9l5.2-6.4 14.8 26.1h15.9l-21-34.6 20-25.7H286l-13.7 20.1c-1.3 2.1-2.8 4.3-4.1 6.6h-.3V44.2h-13.6zm78.5 24.6c-7.8-3-11.2-4.7-11.2-8.5 0-3.1 2.9-5.8 8.8-5.8s10.2 1.7 12.6 2.9l3-11c-3.6-1.6-8.6-3-15.4-3-14.2 0-22.8 7.9-22.8 18.2 0 8.8 6.5 14.3 16.6 17.8 7.2 2.6 10.1 4.7 10.1 8.5 0 3.9-3.3 6.5-9.6 6.5-5.8 0-11.5-1.9-15.1-3.8l-2.8 11.3c3.4 1.9 10.2 3.8 17.1 3.8 16.6 0 24.4-8.7 24.4-18.8-.1-8.6-5.1-14.2-15.7-18.1m24.8-24.6v33.7c0 19.3 8.9 27.7 24.2 27.7 15.8 0 25.2-8.9 25.2-27.5V44.2h-13.6V79c0 10.7-3.9 15.7-11.1 15.7-7 0-10.9-5.3-10.9-15.7V44.2h-13.8zm76.7 50.1c-5.8 0-11.5-1.9-15.1-3.8l-2.8 11.3c3.4 1.9 10.2 3.8 17.1 3.8 16.6 0 24.4-8.7 24.4-18.8 0-8.5-5-14.1-15.7-18-7.8-3-11.2-4.7-11.2-8.5 0-3.1 2.9-5.8 8.8-5.8s10.2 1.7 12.6 2.9l3-11c-3.6-1.6-8.6-3-15.4-3-14.2 0-22.8 7.9-22.8 18.2 0 8.8 6.5 14.3 16.6 17.8 7.3 2.6 10.1 4.7 10.1 8.5-.1 3.8-3.4 6.4-9.6 6.4m59 .4c-9.1 0-14.7-8.3-14.7-20.1 0-11.7 5.4-20.5 14.6-20.5 9.4 0 14.6 9.3 14.6 20.1 0 11.8-5.2 20.5-14.5 20.5m.3-51.4c-17.8 0-29.4 13.5-29.4 31.6 0 17.2 10.5 30.7 28.4 30.7 17.6 0 29.6-12 29.6-31.8.1-16.7-10.1-30.5-28.6-30.5m109.4.9h-13.9L584.2 69c-1.3 7.2-2.6 14.2-3.5 20.9h-.2c-.9-6.7-1.9-13.2-3.2-20.2l-4.8-25.4H558L552.9 69c-1.5 7.4-3 14.7-3.9 21.2h-.2c-1-6.1-2.2-13.9-3.6-21.1l-4.6-24.8H526l14.3 60.3h15l5.7-26c1.4-6.1 2.4-11.8 3.5-18.6h.2c.7 6.9 1.7 12.5 2.9 18.6l5.1 26h14.8L603 44.2z" clip-path="url(#SVGID_2_)" fill="#585056"/><path class="st0" d="M647.3 55.4V44.3h-37.2v60.3h38.5V93.4h-24.8V79.1H646V68h-22.2V55.4z"/><defs><path id="SVGID_3_" d="M0 0h652.1v186.4H0z"/></defs><clipPath id="SVGID_4_"><use xlink:href="#SVGID_3_" overflow="visible"/></clipPath><path d="M194.5 123.8l-6.4 20c-2 6.7-4 14.7-5.7 21.7h-.4c-1.3-7.1-3.2-14.7-5.1-21.6l-5.9-20.1h-18.2l-3.8 60.3h12.6l1.1-22.9c.5-7.5.7-16.8 1.1-25h.2c1.4 7.9 3.5 16.5 5.5 23.6l6.4 23.3h10.7l7.3-23.5c2.3-7.1 4.8-15.7 6.7-23.4h.3c0 8.8.3 17.5.5 24.8l.9 23.1h13.3l-3.3-60.3h-17.8z" clip-path="url(#SVGID_4_)" fill="#585056"/><path class="st0" d="M226.1 123.8h13.7v60.3h-13.7zm39.2 34.8h22.2v-11.1h-22.2V135h23.5v-11.2h-37.2v60.3h38.5v-11.2h-24.8z"/><defs><path id="SVGID_5_" d="M0 0h652.1v186.4H0z"/></defs><clipPath id="SVGID_6_"><use xlink:href="#SVGID_5_" overflow="visible"/></clipPath><path d="M322.8 148.3c-7.8-3-11.2-4.7-11.2-8.5 0-3.1 2.9-5.8 8.8-5.8s10.2 1.7 12.6 2.9l3-11c-3.6-1.6-8.6-3-15.4-3-14.2 0-22.8 7.9-22.8 18.2 0 8.8 6.5 14.3 16.6 17.8 7.3 2.6 10.1 4.7 10.1 8.5 0 3.9-3.3 6.5-9.6 6.5-5.8 0-11.5-1.9-15.1-3.8l-2.8 11.3c3.4 1.9 10.2 3.8 17.1 3.8 16.6 0 24.3-8.7 24.3-18.8.1-8.6-4.9-14.2-15.6-18.1" clip-path="url(#SVGID_6_)" fill="#585056"/><path class="st0" d="M362.2 172.5l28.1-40.8v-7.9h-43.8v11.3h26.1v.3l-28.7 41.4v7.3h46.9v-11.3h-28.6z"/><defs><path id="SVGID_7_" d="M0 0h652.1v186.4H0z"/></defs><clipPath id="SVGID_8_"><use xlink:href="#SVGID_7_" overflow="visible"/></clipPath><path d="M447.7 123.8H431l-13.7 20.1c-1.3 2.1-2.8 4.3-4.1 6.6h-.3v-26.7h-13.5v60.3h13.5v-19.7l5.2-6.4 14.8 26h15.9l-21-34.6 19.9-25.6zm23.8 34.6l3.6-12.8c1-3.5 1.9-8.1 2.8-11.6h.2c.9 3.6 2 8 3 11.6l3.8 12.8h-13.4zm-2-34.6l-18.4 60.3h14.1l4.3-15.5h17.3l4.7 15.5h14.7l-18.7-60.3h-18zm82.1 17.5c0 9.1.3 17.3 1.2 25.2h-.3c-2.7-6.8-6.3-14.3-9.8-20.7l-12.5-22.1h-15.9V184h12.5v-18.2c0-9.8-.2-18.4-.5-26.3l.3-.1c3 7.1 6.9 14.9 10.5 21.3L550 184h14.3v-60.3h-12.5v17.6z" clip-path="url(#SVGID_8_)" fill="#585056"/><path class="st0" d="M576 123.8h13.7v60.3H576z"/><defs><path id="SVGID_9_" d="M0 0h652.1v186.4H0z"/></defs><clipPath id="SVGID_10_"><use xlink:href="#SVGID_9_" overflow="visible"/></clipPath><path d="M617.5 158.4l3.6-12.8c1-3.5 1.9-8.1 2.8-11.6h.2c.9 3.6 2 8 3 11.6l3.8 12.8h-13.4zm-2-34.6l-18.4 60.3h14.1l4.3-15.5h17.3l4.6 15.5h14.7l-18.7-60.3h-17.9z" clip-path="url(#SVGID_10_)" fill="#585056"/><path d="M73.7 0L0 38.8v25.3l73.7-33.8zM0 68.7v23.9l73.7-26.9V36.8zm0 56.6v24.1l73.7-9.3v-30.5zm0-28.1v23.6l73.7-16.7v-32zm0 57.6v31.6h73.7v-39.2zM85.1 104l49.8 17.7V97.8L85.1 72.1zm0-38.4l49.8 26.9V69.8L85.1 36.9zm0 120.8h49.8V155l-49.8-8zm0-156.2l49.8 34.6V42.1L85.1 6.3zm0 110.4l49.8 9.1v-23l-49.8-17z" fill="#cb9742"/></svg>