<svg width="16" height="20" viewBox="0 0 16 20" fill="none" xmlns="http://www.w3.org/2000/svg">
<g clip-path="url(#clip0)">
<path d="M7.98173 19.2262L6.81777 18.0125C5.74543 16.8914 0.400085 11.116 0.400085 7.44274C0.400085 3.33728 3.80125 -0.00360107 7.98173 -0.00360107C12.1622 -0.00360107 15.5634 3.33728 15.5634 7.44274C15.5634 11.1107 10.2171 16.8905 9.1457 18.0116L7.98173 19.2262ZM7.98173 1.7769C4.80192 1.7769 2.21453 4.31841 2.21453 7.44095C2.21453 9.87196 5.76539 14.2751 7.98082 16.6232C10.1963 14.2742 13.748 9.8684 13.748 7.44095C13.7489 4.31841 11.1615 1.7769 7.98173 1.7769ZM7.98173 11.0465C5.95862 11.0465 4.31293 9.42997 4.31293 7.44184C4.31293 5.45372 5.95862 3.83722 7.98173 3.83722C10.0039 3.83722 11.6496 5.45372 11.6496 7.44184C11.6496 9.42997 10.0039 11.0465 7.98173 11.0465ZM7.98173 5.61949C6.95929 5.61949 6.12737 6.43664 6.12737 7.44184C6.12737 8.44704 6.95929 9.26423 7.98173 9.26423C9.00417 9.26423 9.83518 8.44704 9.83518 7.44184C9.83518 6.43664 9.00417 5.61949 7.98173 5.61949Z" fill="#002349"/>
</g>
<defs>
<clipPath id="clip0">
<rect width="15.5634" height="19.2254" fill="white"/>
</clipPath>
</defs>
</svg>
