<svg xmlns="http://www.w3.org/2000/svg" viewBox="0 0 1130 1280" preserveAspectRatio="xMidYMid meet" xmlns:v="https://vecta.io/nano"><path d="M535.5 62.7c-2.2.1-9.8.8-17 1.3-66.8 5.5-138.5 25.4-201 56C177 188.8 69.1 315.7 24.2 465c-11 36.2-17.5 68.8-21.8 108.5-2.1 19.3-3 75.6-1.5 97.1C6.2 745.7 25 815.3 58 882.5c21.6 43.9 45.2 79.8 77.7 118.4 12.5 14.9 48.4 50.8 63.3 63.4 66.2 55.8 138.8 94 221.5 116.7 25.9 7.1 58 13 90 16.6 19 2.2 76.1 3 98.1 1.5 155.9-10.9 298.3-83.9 398.7-204.5 66-79.3 109.5-176.7 124.6-279.1 7.1-48 8-103.2 2.5-150.5-12.7-109.8-57.3-213.8-128-298.5C955.8 206 894.3 157.2 824.1 122 756 87.9 684.5 68.5 607 63c-13.1-.9-61.6-1.1-71.5-.3zM820 424v44H644.5l-175.5.7c0 .5 85.8 86.6 190.7 191.5L850.5 851l-62 62L406 530.5V882h-88V380h502v44z" fill="#1a73e8"/></svg>