<svg width="19" height="15" viewBox="0 0 19 15" fill="none" xmlns="http://www.w3.org/2000/svg">
<path d="M17.441 8.81615C17.8326 8.81615 18.15 8.50807 18.15 8.12802V3.62075C18.15 2.10301 16.8778 0.868225 15.3141 0.868225H2.83594C1.2722 0.868225 0 2.10301 0 3.62075V11.5687C0 13.0864 1.2722 14.3212 2.83594 14.3212H15.3141C16.8778 14.3212 18.15 13.0864 18.15 11.5687C18.15 11.1886 17.8326 10.8805 17.441 10.8805C17.0494 10.8805 16.732 11.1886 16.732 11.5687C16.732 12.3275 16.0959 12.9449 15.3141 12.9449H2.83594C2.05407 12.9449 1.41797 12.3275 1.41797 11.5687V3.76657L7.57745 7.48403C8.03932 7.76276 8.55716 7.90214 9.075 7.90214C9.59284 7.90214 10.1107 7.76276 10.5726 7.48403L16.732 3.76657V8.12802C16.732 8.50807 17.0494 8.81615 17.441 8.81615ZM9.82376 6.31527C9.36193 6.594 8.78807 6.59403 8.32624 6.31527L2.00958 2.50295C2.24241 2.34035 2.52785 2.24449 2.83594 2.24449H15.3141C15.6222 2.24449 15.9076 2.34038 16.1404 2.50299L9.82376 6.31527Z" fill="#009DE0"/>
</svg>
