<?xml version="1.0" encoding="UTF-8" standalone="no"?>
<svg width="26px" height="26px" viewBox="0 0 26 26" version="1.1" xmlns="http://www.w3.org/2000/svg" xmlns:xlink="http://www.w3.org/1999/xlink">
    <!-- Generator: Sketch 39.1 (31720) - http://www.bohemiancoding.com/sketch -->
    <title>machine-learning copy</title>
    <desc>Created with Sketch.</desc>
    <defs></defs>
    <g id="Page-1" stroke="none" stroke-width="1" fill="none" fill-rule="evenodd">
        <g id="Machine-Learning-Copy-2" transform="translate(1.000000, 2.000000)" fill="#FFFFFF">
            <polygon id="Shape" points="17.8333097 14.4957673 18.9767799 12.4942597 23.1457061 12.4942597 24.0289898 10.9476402 21.3790487 6.3077816 17.0481586 6.3077816 15.8480596 4.21529636 14.6208616 4.21529636 14.6208616 2.75965445 16.6782256 2.75965445 17.8783247 4.85213969 20.5477123 4.85213969 17.9497184 0.303258731 12.8202628 0.303258731 12.8202628 6.39875922 14.8834789 6.39875922 15.7237283 7.85440112 12.8202628 7.85440112 12.8202628 10.8566626 15.5556424 10.8566626 16.8038174 8.6731997 20.1091765 8.6731997 20.9411431 10.1288416 17.6351538 10.1288416 16.3869788 12.3123045 12.8202628 12.3123045 12.8202628 17.9529169 17.2674716 17.9529169 16.4354149 19.4085588 12.8202628 19.4085588 12.8202628 21.5920216 17.9497184 21.5920216 22.3143697 13.9499016 19.8081164 13.9499016 18.6646461 15.9514092 14.6208616 15.9514092 14.6208616 14.4957673"></polygon>
            <polygon id="Shape" points="6.27670705 14.4957673 5.13323684 12.4942597 0.964310641 12.4942597 0.0810269421 10.9476402 2.73096807 6.3077816 7.06185812 6.3077816 8.26195717 4.21529636 9.48915522 4.21529636 9.48915522 2.75965445 7.43179113 2.75965445 6.23169209 4.85213969 3.56230449 4.85213969 6.16029835 0.303258731 11.2897539 0.303258731 11.2897539 6.39875922 9.2265379 6.39875922 8.38628851 7.85440112 11.2897539 7.85440112 11.2897539 10.8566626 8.5543744 10.8566626 7.30619937 8.6731997 4.00084031 8.6731997 3.16887368 10.1288416 6.47486294 10.1288416 7.72303797 12.3123045 11.2897539 12.3123045 11.2897539 17.9529169 6.8425452 17.9529169 7.67460187 19.4085588 11.2897539 19.4085588 11.2897539 21.5920216 6.16029835 21.5920216 1.79564707 13.9499016 4.30190042 13.9499016 5.44537063 15.9514092 9.48915522 15.9514092 9.48915522 14.4957673"></polygon>
        </g>
    </g>
</svg>