<?xml version="1.0" encoding="UTF-8" standalone="no"?>
<svg width="26px" height="26px" viewBox="0 0 26 26" version="1.1" xmlns="http://www.w3.org/2000/svg" xmlns:xlink="http://www.w3.org/1999/xlink">
    <!-- Generator: Sketch 39.1 (31720) - http://www.bohemiancoding.com/sketch -->
    <title>monitoring copy</title>
    <desc>Created with Sketch.</desc>
    <defs></defs>
    <g id="Page-1" stroke="none" stroke-width="1" fill="none" fill-rule="evenodd">
        <g id="PredictionAPI_128px-Copy-2" transform="translate(1.000000, -33.000000)">
            <g id="shadow" transform="translate(0.998931, 0.446608)"></g>
        </g>
        <g id="monitoring-logo-copy-2" transform="translate(0.000000, 5.000000)" fill="#FFFFFF">
            <path d="M17.1081728,17.6550555 L9.37132521,17.6550555 C9.15940938,17.6550555 8.98780362,17.4820826 8.98780362,17.2689552 L8.98780362,17.2600749 C8.98780362,17.0465615 9.15940938,16.8739746 9.37132521,16.8739746 L17.1081728,16.8739746 C17.3200886,16.8739746 17.4920783,17.0465615 17.4920783,17.2600749 L17.4920783,17.2689552 C17.4920783,17.4820826 17.3200886,17.6550555 17.1081728,17.6550555" id="Fill-4"></path>
            <polygon id="Fill-5" points="11.7534588 13.8739753 14.726423 13.8739753 14.726423 17.264322 11.7534588 17.264322"></polygon>
            <path d="M21.5084976,11.3500376 C21.3161609,11.3500376 21.1322702,11.2716593 20.9982872,11.1322771 L15.7836988,5.69791538 L12.2774898,9.40602264 C12.0233444,9.67513455 11.6060391,9.70254767 11.3188778,9.46934309 L8.67031377,7.31876443 L5.86281285,11.0662539 C5.72882983,11.2450184 5.51921742,11.3500376 5.29693614,11.3500376 L0.483145072,11.3500376 L0.483145072,13.5477205 C0.483145072,14.0701142 0.908512366,14.4979134 1.42793651,14.4979134 L25.0515615,14.4979134 C25.5713695,14.4979134 25.9963529,14.0701142 25.9963529,13.5477205 L25.9963529,11.3500376 L21.5084976,11.3500376" id="Fill-6"></path>
            <path d="M4.94335917,9.92455534 L7.97889996,5.87204661 C8.09483942,5.71799259 8.2675969,5.61760651 8.45839793,5.59366829 C8.64881506,5.57088838 8.84115172,5.62532852 8.99010705,5.74656401 L11.7004799,7.94733571 L15.2661942,4.1766802 C15.3994094,4.03575359 15.5840679,3.95583083 15.7771724,3.95505863 L15.7798597,3.95505863 C15.9721964,3.95505863 16.1560871,4.03343699 16.2896862,4.1728192 L21.8094795,9.92455534 L25.9963529,9.92455534 L25.9963529,1.19328319 C25.9963529,0.670503387 25.5713695,0.242704256 25.0515615,0.242704256 L1.42793651,0.242704256 C0.908512366,0.242704256 0.483145072,0.670503387 0.483145072,1.19328319 L0.483145072,9.92455534 L4.94335917,9.92455534" id="Fill-7"></path>
        </g>
    </g>
</svg>