<?xml version="1.0" encoding="UTF-8"?>
<svg width="127px" height="114px" viewBox="0 0 127 114" version="1.1" xmlns="http://www.w3.org/2000/svg" xmlns:xlink="http://www.w3.org/1999/xlink">
    <!-- Generator: Sketch 42 (36781) - http://www.bohemiancoding.com/sketch -->
    <title>natural-language</title>
    <desc>Created with Sketch.</desc>
    <defs></defs>
    <g id="Page-1" stroke="none" stroke-width="1" fill="none" fill-rule="evenodd">
        <g id="Product-Logos" transform="translate(-341.000000, -353.000000)">
            <g id="natural-language" transform="translate(340.000000, 353.000000)">
                <g id="shadow">
                    <g id="Layer_9">
                        <path d="M28.4671801,107.836891 L2.51146685,62.5291262 C0.480441631,58.9838097 0.480441631,54.6157901 2.51146685,51.0704737 L28.4671801,5.76280834 C30.4982053,2.2174919 34.2517606,0.0334821048 38.3138111,0.0334821048 L90.2252376,0.0334821048 C94.2872881,0.0334821048 98.0408434,2.2174919 100.071869,5.76280834 L126.027582,51.0704737 C128.058607,54.6157901 128.058607,58.9838097 126.027582,62.5291262 L100.071869,107.836792 C98.0408434,111.382108 94.2872881,113.566118 90.2252376,113.566118 L38.3138111,113.566118 C34.2517606,113.566217 30.4983042,111.382208 28.4671801,107.836891 L28.4671801,107.836891 Z" id="Shape" fill="#4486F8"></path>
                        <path d="M127.00478,60.235602 L93.9328153,26.9052628 L92.0965771,50.9634505 L79.1013181,37.8666662 L62.9514986,42.5169917 L47.4607909,26.9052628 L40.5394255,33.8807013 L40.5394255,64.1075683 L34.6068267,86.6947357 L61.2700024,113.566217 L90.2252376,113.566217 C94.2872881,113.566217 98.0408434,111.382208 100.071869,107.836891 L126.027582,62.5292258 C126.447214,61.7967051 126.758577,61.0237269 127.00478,60.235602 L127.00478,60.235602 Z" id="Shape" fill="#4079DC"></path>
                    </g>
                </g>
                <g id="art" transform="translate(34.606827, 26.905263)" fill="#FFFFFF">
                    <polygon id="Shape" points="51.4158568 0 46.4720244 0 46.4720244 7.97192972 51.4158568 7.97192972 51.4158568 51.8175432 46.4720244 51.8175432 46.4720244 59.7894729 51.4158568 59.7894729 59.3259886 59.7894729 59.3259886 51.8175432 59.3259886 7.97192972 59.3259886 0"></polygon>
                    <polygon id="Shape" points="0 0 0 7.97192972 0 51.8175432 0 59.7894729 7.91013181 59.7894729 12.8539642 59.7894729 12.8539642 51.8175432 7.91013181 51.8175432 7.91013181 7.97192972 12.8539642 7.97192972 12.8539642 0 7.91013181 0"></polygon>
                    <rect id="Rectangle-path" x="14.8314971" y="40.8561398" width="29.6629943" height="7.97192972"></rect>
                    <rect id="Rectangle-path" x="14.8314971" y="25.9087716" width="29.6629943" height="7.97192972"></rect>
                    <rect id="Rectangle-path" x="14.8314971" y="10.9614034" width="29.6629943" height="7.97192972"></rect>
                </g>
            </g>
        </g>
    </g>
</svg>
