<svg xmlns="http://www.w3.org/2000/svg" viewBox="0 0 492.149 98.119"><path d="M32.239 46.836a11.57 11.57 0 0 1 2.32-7.172 15.57 15.57 0 0 1 6.4-4.85 23.28 23.28 0 0 1 9.359-1.773 28.83 28.83 0 0 1 5.04.439 19.47 19.47 0 0 1 4.321 1.24v-1.836a6.345 6.345 0 0 0-2.081-5.1q-2.081-1.782-6.32-1.781a18 18 0 0 0-6.6 1.2 36.13 36.13 0 0 0-6.521 3.439l-3.84-8.16a33.447 33.447 0 0 1 8.68-4.08 33.03 33.03 0 0 1 9.56-1.359q9.438 0 14.68 4.429 5.242 4.429 5.242 12.818v10.74a4.31 4.31 0 0 0 .6 2.629 3 3 0 0 0 2.12.9v10.642l-3 .48a21.85 21.85 0 0 1-2.439.158 8.89 8.89 0 0 1-5.481-1.439 6.23 6.23 0 0 1-2.359-3.92l-.24-1.84a18.77 18.77 0 0 1-6.681 5.481A18.413 18.413 0 0 1 46.88 60a15.93 15.93 0 0 1-7.481-1.733 13.51 13.51 0 0 1-5.24-4.73 12.17 12.17 0 0 1-1.92-6.701zm25.441 1.5a6.63 6.63 0 0 0 1.439-1.546 2.967 2.967 0 0 0 .561-1.62v-3.62a19.5 19.5 0 0 0-3.561-.963 21.11 21.11 0 0 0-3.64-.347 10.53 10.53 0 0 0-5.839 1.5 4.55 4.55 0 0 0-2.321 3.968 4.38 4.38 0 0 0 .8 2.545 5.68 5.68 0 0 0 2.2 1.85 7.39 7.39 0 0 0 3.321.693 11.23 11.23 0 0 0 3.839-.693 10.403 10.403 0 0 0 3.201-1.769zM153.04 60a25.01 25.01 0 0 1-9.521-1.7 21.18 21.18 0 0 1-7.08-4.627A19.8 19.8 0 0 1 132 46.91a21.58 21.58 0 0 1-1.521-8.03 22.33 22.33 0 0 1 2.68-10.88 20.74 20.74 0 0 1 7.721-7.934 26 26 0 0 1 24.279-.033 20.45 20.45 0 0 1 7.641 7.836 21.632 21.632 0 0 1 2.639 10.515 19.11 19.11 0 0 1-.12 2.166q-.12 1.064-.2 1.85h-31.04a9.2 9.2 0 0 0 1.561 4.59 8.48 8.48 0 0 0 3.4 2.838 10.26 10.26 0 0 0 4.4.972 11.21 11.21 0 0 0 5.4-1.359 7.36 7.36 0 0 0 3.479-3.682l10.88 3.041a18.13 18.13 0 0 1-4.519 5.8 21.827 21.827 0 0 1-6.88 3.959A25.46 25.46 0 0 1 153.04 60zm-9.28-25.44H162a10.477 10.477 0 0 0-1.521-4.389 8.2 8.2 0 0 0-3.2-2.9 9.99 9.99 0 0 0-8.84 0 8.27 8.27 0 0 0-3.16 2.9 10.456 10.456 0 0 0-1.519 4.389zm61.677 12.276a11.56 11.56 0 0 1 2.321-7.172 15.57 15.57 0 0 1 6.4-4.85 23.28 23.28 0 0 1 9.359-1.773 28.84 28.84 0 0 1 5.041.439 19.44 19.44 0 0 1 4.32 1.24v-1.836a6.35 6.35 0 0 0-2.08-5.1q-2.082-1.782-6.321-1.781a17.99 17.99 0 0 0-6.6 1.2 36.13 36.13 0 0 0-6.521 3.439l-3.84-8.16a33.447 33.447 0 0 1 8.68-4.08 33.03 33.03 0 0 1 9.561-1.359q9.438 0 14.679 4.429t5.242 12.818v10.74a4.313 4.313 0 0 0 .6 2.629 3.01 3.01 0 0 0 2.12.9v10.642l-3 .48a21.85 21.85 0 0 1-2.439.158 8.89 8.89 0 0 1-5.481-1.439 6.24 6.24 0 0 1-2.359-3.92l-.24-1.84a18.76 18.76 0 0 1-6.681 5.481A18.413 18.413 0 0 1 220.079 60a15.93 15.93 0 0 1-7.48-1.733 13.52 13.52 0 0 1-5.241-4.73 12.17 12.17 0 0 1-1.921-6.701zm25.441 1.5a6.627 6.627 0 0 0 1.439-1.541 2.967 2.967 0 0 0 .561-1.62V41.55a19.5 19.5 0 0 0-3.561-.963 21.09 21.09 0 0 0-3.639-.347 10.535 10.535 0 0 0-5.84 1.5 4.55 4.55 0 0 0-2.321 3.968 4.38 4.38 0 0 0 .8 2.545 5.68 5.68 0 0 0 2.2 1.85 7.4 7.4 0 0 0 3.321.693c1.311-.005 2.61-.24 3.84-.693a10.4 10.4 0 0 0 3.2-1.769z" fill="#1d1d1b"/><path d="M273.358 60a24.9 24.9 0 0 1-9.56-1.733 20.54 20.54 0 0 1-7.08-4.73 20.265 20.265 0 0 1-4.36-6.858 23.23 23.23 0 0 1 0-16.318 20.29 20.29 0 0 1 4.36-6.858 20.56 20.56 0 0 1 7.08-4.728 24.87 24.87 0 0 1 9.56-1.734 24.57 24.57 0 0 1 9.52 1.734 20.475 20.475 0 0 1 11.44 11.586 22.654 22.654 0 0 1 0 16.318 20.48 20.48 0 0 1-11.44 11.588 24.6 24.6 0 0 1-9.52 1.733zm-9.36-21.44a12.03 12.03 0 0 0 1.24 5.592 9.38 9.38 0 0 0 3.32 3.728 8.77 8.77 0 0 0 4.8 1.321 8.63 8.63 0 0 0 4.76-1.36 9.29 9.29 0 0 0 3.32-3.767 12.2 12.2 0 0 0 1.2-5.514 12.38 12.38 0 0 0-1.2-5.592 9.034 9.034 0 0 0-3.32-3.728 9.31 9.31 0 0 0-9.56 0 9.4 9.4 0 0 0-3.32 3.728 12.035 12.035 0 0 0-1.24 5.592zM349.837 60a25.01 25.01 0 0 1-9.521-1.7 21.167 21.167 0 0 1-7.08-4.627 19.783 19.783 0 0 1-4.439-6.763 21.58 21.58 0 0 1-1.521-8.03 22.33 22.33 0 0 1 2.68-10.88 20.74 20.74 0 0 1 7.721-7.934 26 26 0 0 1 24.279-.033 20.45 20.45 0 0 1 7.641 7.836 21.632 21.632 0 0 1 2.639 10.515 19.11 19.11 0 0 1-.12 2.166q-.12 1.064-.2 1.85h-31.04a9.207 9.207 0 0 0 1.56 4.59 8.49 8.49 0 0 0 3.4 2.838 10.26 10.26 0 0 0 4.4.972 11.21 11.21 0 0 0 5.4-1.359 7.36 7.36 0 0 0 3.479-3.682l10.88 3.041a18.12 18.12 0 0 1-4.52 5.8 21.82 21.82 0 0 1-6.879 3.959A25.455 25.455 0 0 1 349.837 60zm-9.28-25.44h18.24a10.477 10.477 0 0 0-1.521-4.389 8.2 8.2 0 0 0-3.2-2.9 9.99 9.99 0 0 0-8.84 0 8.27 8.27 0 0 0-3.16 2.9 10.43 10.43 0 0 0-1.519 4.389z" fill="#d41120"/><g fill="#1d1d1b"><path d="M464.742 41.184a9.8 9.8 0 0 1-4.945-1.206 8.776 8.776 0 0 1-3.311-3.288v14.237h-7.681V15.79h6.672v4.11a9.59 9.59 0 0 1 8.448-4.493 10.97 10.97 0 0 1 4.681.993 11.575 11.575 0 0 1 3.72 2.743 12.52 12.52 0 0 1 2.448 4.067 14.26 14.26 0 0 1 .863 5.013 15.26 15.26 0 0 1-1.391 6.622 11.466 11.466 0 0 1-3.865 4.635 9.7 9.7 0 0 1-5.639 1.704zm-2.592-6.481a4.877 4.877 0 0 0 2.279-.535 6.05 6.05 0 0 0 1.8-1.422 6.22 6.22 0 0 0 1.176-2.073 7.65 7.65 0 0 0 .408-2.493 6.485 6.485 0 0 0-.456-2.47 6.35 6.35 0 0 0-1.273-1.98 5.61 5.61 0 0 0-1.919-1.328 6.11 6.11 0 0 0-2.4-.466 5.633 5.633 0 0 0-1.559.229 5.88 5.88 0 0 0-1.489.666c-.464.292-.891.64-1.271 1.035-.39.407-.713.872-.96 1.379v5.108a8 8 0 0 0 1.391 2.222 6.92 6.92 0 0 0 1.968 1.55 4.9 4.9 0 0 0 2.305.578zm16.32-29.04h7.68v26.108c-.073.797.13 1.595.576 2.26a2.03 2.03 0 0 0 1.632.672 5.28 5.28 0 0 0 1.465-.215 8.076 8.076 0 0 0 1.319-.5l1.008 5.76c-1.059.48-2.171.834-3.312 1.055a17.5 17.5 0 0 1-3.5.385 6.95 6.95 0 0 1-5.064-1.755 6.625 6.625 0 0 1-1.8-4.975zm-41.9 35.04v-7.824h6.288v7.824zM12.328 7.848a2.2 2.2 0 0 1 1.562 1.6h4.27V4.32h-5.832zM9.608 9.451a2.2 2.2 0 0 1 1.561-1.6V4.32H5.36v5.131zM27.44 46.8a17.5 17.5 0 0 1-2.679 1.039 9.94 9.94 0 0 1-2.921.481 3.883 3.883 0 0 1-2.64-.9 3.69 3.69 0 0 1-1.04-2.93v-6.161h-4.29a2.2 2.2 0 0 1-1.543 1.542v19.462a16.32 16.32 0 0 0 4.712.667 24.47 24.47 0 0 0 4.56-.44 32.706 32.706 0 0 0 4.44-1.16q2.119-.721 3.88-1.439zM26.721 17.681H18.16v-7.07h-4.29a2.2 2.2 0 0 1-1.538 1.541v23.474a2.2 2.2 0 0 1 1.538 1.543h4.29v-9.808h8.561zM5.36 37.169h4.266a2.2 2.2 0 0 1 1.544-1.543V12.155a2.2 2.2 0 0 1-1.548-1.544H5.36v7.07H0v9.68h5.36zm5.81 2.702a2.2 2.2 0 0 1-1.543-1.542H5.36v10.633a11.87 11.87 0 0 0 1.56 6.465 8.747 8.747 0 0 0 4.24 3.51h.009z"/></g><path d="M419.644 7.848a2.2 2.2 0 0 1 1.561 1.6h4.27V4.32h-5.831zm-2.721 1.603a2.2 2.2 0 0 1 1.561-1.6V4.32h-5.809v5.131zM434.756 46.8c-.863.419-1.76.767-2.68 1.039a9.94 9.94 0 0 1-2.921.481 3.89 3.89 0 0 1-2.64-.9 3.69 3.69 0 0 1-1.04-2.933v-6.158h-4.289a2.2 2.2 0 0 1-1.542 1.542v19.462a16.31 16.31 0 0 0 4.711.667 24.49 24.49 0 0 0 4.561-.44 32.74 32.74 0 0 0 4.439-1.16q2.12-.721 3.88-1.439zm-.72-29.119h-8.561v-7.07h-4.294a2.2 2.2 0 0 1-1.537 1.541v23.474a2.2 2.2 0 0 1 1.542 1.543h4.289v-9.808h8.561zm-21.361 19.488h4.267a2.2 2.2 0 0 1 1.542-1.543V12.155a2.2 2.2 0 0 1-1.548-1.544h-4.261v7.07h-5.36v9.68h5.36zm5.809 2.702a2.2 2.2 0 0 1-1.542-1.542h-4.267v10.633a11.87 11.87 0 0 0 1.56 6.465 8.747 8.747 0 0 0 4.24 3.51h.009z" fill="#d41120"/><path d="M125.199 30.244a22.09 22.09 0 0 0-3.8-6.858 18.09 18.09 0 0 0-5.759-4.65 15.863 15.863 0 0 0-7.321-1.7 16.19 16.19 0 0 0-8.2 2 14.8 14.8 0 0 0-5.56 5.679V10.611h-4.151a2.2 2.2 0 0 1-4.245 0h-4.4v48.59h11.119V52.24a14.813 14.813 0 0 0 5.68 5.721 16.76 16.76 0 0 0 8.4 2.039 18.463 18.463 0 0 0 14-6.147 21.4 21.4 0 0 0 4.12-6.781 23.18 23.18 0 0 0 1.48-8.354 25.596 25.596 0 0 0-1.363-8.474zM112.72 42.871a9.5 9.5 0 0 1-2.08 3.3 10.137 10.137 0 0 1-7.281 3.03 8.46 8.46 0 0 1-2.6-.426 11.8 11.8 0 0 1-2.481-1.127 9.62 9.62 0 0 1-2.12-1.748 9.81 9.81 0 0 1-1.6-2.369V34.99a13.2 13.2 0 0 1 2.32-3.611 11.27 11.27 0 0 1 3.28-2.524 8.68 8.68 0 0 1 8.76.543 10.046 10.046 0 0 1 3.32 3.961 12.156 12.156 0 0 1 1.2 5.357 11.67 11.67 0 0 1-.718 4.155zM88.87 7.909a2.2 2.2 0 0 1 1.543 1.542h4.151V.8H88.87zm-2.707 1.542a2.2 2.2 0 0 1 1.543-1.542V.8H81.76v8.651zm100.396-1.542a2.2 2.2 0 0 1 1.543 1.542h4.216V.8h-5.759zm-2.702 1.542a2.2 2.2 0 0 1 1.543-1.542V.8h-5.882v8.651zM200.639 48c-.706.346-1.443.627-2.2.839a8.7 8.7 0 0 1-2.44.362 3.39 3.39 0 0 1-2.72-1.121 5.814 5.814 0 0 1-.96-3.768v-33.7h-4.216a2.2 2.2 0 0 1-4.245 0h-4.339V48.79q0 5.37 3 8.291 3 2.921 8.44 2.924a29.2 29.2 0 0 0 5.84-.639 24.93 24.93 0 0 0 5.52-1.76z" fill="#1d1d1b"/><path d="M309.031 52.97a2.2 2.2 0 0 1-1.543-1.543h-4.212v7.774h5.755zm2.702-1.543a2.2 2.2 0 0 1-1.543 1.543v6.231h5.886v-7.774zm5.543-39.146a4.263 4.263 0 0 1 3.52-1.481 13.5 13.5 0 0 1 2.96.36c.963.207 1.902.516 2.8.92l2.319-9.6a33.73 33.73 0 0 0-5.52-1.84 23.73 23.73 0 0 0-5.44-.64 14.04 14.04 0 0 0-7.72 2.121 13.855 13.855 0 0 0-5.12 5.959 21.32 21.32 0 0 0-1.8 9.121v3.439h-5.36v9.68h5.36v19.947h4.212a2.2 2.2 0 0 1 4.245 0h4.343V30.32h9.76v-9.68h-9.76v-3.92a6.946 6.946 0 0 1 1.201-4.439zm64.941 40.689a2.2 2.2 0 0 1-1.543-1.543h-4.2v7.774h5.742zm20.138-36.41h-1.32a12.91 12.91 0 0 0-7.2 2.481 17.652 17.652 0 0 0-5.6 6.64v-8h-11.76v32.586h4.2a2.2 2.2 0 0 1 4.245 0h4.356V34a10.43 10.43 0 0 1 5.44-4.36 22.776 22.776 0 0 1 8.4-1.48V16.64a3.196 3.196 0 0 0-.761-.08zm-17.436 34.867a2.2 2.2 0 0 1-1.542 1.543v6.231h5.9v-7.774z" fill="#d41120"/><path d="M253.155 97.816h-4.435l-10.883-17.635h-.122l.077.985q.211 2.815.212 5.146v11.5h-3.285V75.69h4.389l10.854 17.544h.09q-.03-.348-.121-2.536t-.091-3.413V75.69h3.315zm5.844 0V75.69h3.617v22.13zm21.977 0h-12.517V75.69h12.517v3.058h-8.9v6.024h8.34V87.8h-8.34v6.948h8.9zm8.401-8.84v8.84h-3.618V75.69h6.251q4.284 0 6.343 1.605a5.76 5.76 0 0 1 2.059 4.843q0 4.132-4.3 5.889l6.251 9.793h-4.117l-5.3-8.84zm0-3h2.512a5.73 5.73 0 0 0 3.663-.938 3.4 3.4 0 0 0 1.135-2.785 3 3 0 0 0-1.225-2.7 6.726 6.726 0 0 0-3.694-.817h-2.391zM322.92 75.69v14.32a8.5 8.5 0 0 1-1.05 4.287 7.017 7.017 0 0 1-3.042 2.831 10.57 10.57 0 0 1-4.761.991 8.904 8.904 0 0 1-6.4-2.18 7.89 7.89 0 0 1-2.285-5.994V75.69h3.632v14a5.594 5.594 0 0 0 1.272 4.042 5.24 5.24 0 0 0 3.9 1.3q5.117 0 5.116-5.373V75.69zm15.076 2.781a5.97 5.97 0 0 0-4.9 2.21 9.454 9.454 0 0 0-1.785 6.1q0 4.073 1.718 6.161a6.07 6.07 0 0 0 4.972 2.089 13.03 13.03 0 0 0 2.724-.28q1.318-.281 2.741-.719v3.1a16.59 16.59 0 0 1-5.9.985q-4.859 0-7.462-2.944-2.603-2.944-2.6-8.423a13.62 13.62 0 0 1 1.263-6.04 9.01 9.01 0 0 1 3.656-3.966 11.06 11.06 0 0 1 5.616-1.377 13.93 13.93 0 0 1 6.266 1.422l-1.3 3.012a19.45 19.45 0 0 0-2.369-.93 8.52 8.52 0 0 0-2.64-.4zm27.685 19.345h-3.633v-9.974h-10.2v9.974h-3.617V75.69h3.617v9.052h10.2V75.69h3.633zm25.475-11.096q0 5.406-2.7 8.4-2.7 2.994-7.653 3-5.009 0-7.7-2.975t-2.683-8.455q0-5.48 2.7-8.416t7.713-2.937q4.933 0 7.629 2.982 2.696 2.982 2.694 8.401zm-16.893 0q0 4.087 1.651 6.2a6.716 6.716 0 0 0 9.756.022q1.641-2.088 1.642-6.222 0-4.07-1.628-6.175a5.75 5.75 0 0 0-4.85-2.1 5.87 5.87 0 0 0-4.912 2.1q-1.659 2.104-1.659 6.175zm31.213 11.096-6.418-18.482h-.121q.256 4.117.257 7.72v10.762h-3.284V75.69h5.1l6.146 17.605h.091l6.323-17.605h5.116v22.13h-3.481V86.873q0-1.652.083-4.3.083-2.648.143-3.209h-.121l-6.64 18.452zM444.17 86.72q0 5.406-2.7 8.4-2.7 2.994-7.652 3-5.01 0-7.7-2.975-2.69-2.975-2.687-8.453 0-5.48 2.7-8.416t7.712-2.937q4.934 0 7.629 2.982 2.695 2.982 2.698 8.399zm-16.893 0q0 4.087 1.65 6.2a6.716 6.716 0 0 0 9.756.022q1.643-2.088 1.643-6.222 0-4.07-1.628-6.175a5.75 5.75 0 0 0-4.851-2.1 5.87 5.87 0 0 0-4.912 2.1q-1.665 2.104-1.665 6.175zm34.401 5.086a5.57 5.57 0 0 1-2.134 4.633 9.29 9.29 0 0 1-5.888 1.68 14.05 14.05 0 0 1-6.146-1.166v-3.42c1.031.482 2.109.857 3.217 1.119a13.62 13.62 0 0 0 3.171.409 5.047 5.047 0 0 0 3.171-.817 2.66 2.66 0 0 0 1.021-2.2 2.75 2.75 0 0 0-.937-2.1 14.15 14.15 0 0 0-3.875-2.043 10.27 10.27 0 0 1-4.27-2.8 5.926 5.926 0 0 1-1.24-3.784 5.3 5.3 0 0 1 1.967-4.359 8.16 8.16 0 0 1 5.283-1.589c2.183.014 4.339.488 6.327 1.392l-1.15 2.952a13.82 13.82 0 0 0-5.268-1.242 4.04 4.04 0 0 0-2.664.765 2.51 2.51 0 0 0-.908 2.021 2.84 2.84 0 0 0 .363 1.475 3.71 3.71 0 0 0 1.2 1.158 20.04 20.04 0 0 0 3 1.438 16.42 16.42 0 0 1 3.572 1.892 5.56 5.56 0 0 1 1.666 1.983 5.97 5.97 0 0 1 .522 2.603zm-9.021-17.89v-.379q.863-1.059 1.778-2.362.915-1.303 1.446-2.224h4.132v.317a30.953 30.953 0 0 1-2.353 2.384 32.917 32.917 0 0 1-2.642 2.264zm22.72 4.555a5.966 5.966 0 0 0-4.905 2.21 9.454 9.454 0 0 0-1.785 6.1q0 4.073 1.718 6.161a6.07 6.07 0 0 0 4.972 2.089 13.03 13.03 0 0 0 2.724-.28q1.319-.281 2.74-.719v3.1a16.58 16.58 0 0 1-5.9.985q-4.858 0-7.462-2.944t-2.6-8.423a13.62 13.62 0 0 1 1.263-6.04 9.01 9.01 0 0 1 3.656-3.966 11.06 11.06 0 0 1 5.616-1.377 13.92 13.92 0 0 1 6.256 1.423l-1.3 3.012a19.45 19.45 0 0 0-2.369-.93 8.52 8.52 0 0 0-2.624-.401zm10.233 19.345V75.69h3.617v22.13z" fill="#1d1d1b"/></svg>