<svg width="18" height="18" viewBox="0 0 18 18" fill="none" xmlns="http://www.w3.org/2000/svg">
<path d="M2.59961 4.19922H15.3996L14.1356 15.5753C14.0923 15.9668 13.9061 16.3286 13.6126 16.5913C13.3192 16.8541 12.9391 16.9994 12.5452 16.9993H5.45401C5.06012 16.9994 4.68006 16.8541 4.38661 16.5913C4.09316 16.3286 3.90694 15.9668 3.86361 15.5753L2.59961 4.19922Z" stroke="#FF0000" stroke-width="2" stroke-linecap="round" stroke-linejoin="round"/>
<path d="M5.27717 1.91761C5.40657 1.64318 5.61134 1.4112 5.86758 1.24873C6.12381 1.08626 6.42097 0.999996 6.72437 1H11.278C11.5815 0.999845 11.8788 1.08604 12.1352 1.24852C12.3916 1.411 12.5965 1.64306 12.726 1.91761L13.8012 4.20003H4.20117L5.27717 1.91761Z" stroke="#FF0000" stroke-width="2" stroke-linecap="round" stroke-linejoin="round"/>
<path d="M1 4.19922H17" stroke="#FF0000" stroke-width="2" stroke-linecap="round" stroke-linejoin="round"/>
<path d="M7.40039 8.19922V12.1993" stroke="#FF0000" stroke-width="2" stroke-linecap="round" stroke-linejoin="round"/>
<path d="M10.5996 8.19922V12.1993" stroke="#FF0000" stroke-width="2" stroke-linecap="round" stroke-linejoin="round"/>
</svg>
