<svg id="Layer_1" data-name="Layer 1" xmlns="http://www.w3.org/2000/svg" viewBox="0 0 1920 1920"><defs><clipPath id="clip-path"><path class="cls-1" d="M0 0h1920v1920H0z"/></clipPath><style>.cls-1{fill:#4285f4}.cls-3{fill:#1a73e8}</style></defs><path class="cls-1" d="M0 0h1920v1920H0z"/><g clip-path="url(#clip-path)"><rect class="cls-3" x="372.73" y="419.23" width="145.31" height="145.31" rx="19.91" transform="rotate(-15 445.407 491.876)"/><rect class="cls-3" x="763.25" y="314.59" width="145.31" height="145.31" rx="19.91" transform="rotate(.53 838.544 388.55)"/><rect class="cls-3" x="1153.76" y="209.95" width="145.31" height="145.31" rx="19.91" transform="rotate(30 1226.423 282.601)"/><rect class="cls-3" x="1544.28" y="105.32" width="145.31" height="145.31" rx="19.91" transform="rotate(-39.64 1616.856 178)"/><rect class="cls-3" x="25.35" y="837.98" width="145.31" height="145.31" rx="19.91" transform="rotate(30 98.005 910.64)"/><rect class="cls-3" x="300.87" y="769.34" width="145.31" height="145.31" rx="19.91" transform="rotate(-27.61 373.535 842.004)"/><rect class="cls-3" x="691.39" y="664.7" width="145.31" height="145.31" rx="19.91" transform="rotate(50.36 764.06 737.404)"/><rect class="cls-3" x="1081.91" y="560.06" width="145.31" height="145.31" rx="19.91" transform="rotate(8.21 1154.348 632.552)"/><rect class="cls-3" x="1472.42" y="455.43" width="145.31" height="145.31" rx="19.91" transform="rotate(-19.92 1545.375 528.139)"/><rect class="cls-3" x="-56.42" y="398.77" width="145.31" height="145.31" rx="19.91" transform="rotate(-60 16.24 471.43)"/><rect class="cls-3" x="135.61" y="152.56" width="145.31" height="145.31" rx="19.91" transform="rotate(-27.61 208.27 225.218)"/><rect class="cls-3" x="526.12" y="47.92" width="145.31" height="145.31" rx="19.91" transform="rotate(50.36 598.801 120.588)"/><rect class="cls-3" x="916.64" y="-56.72" width="145.31" height="145.31" rx="19.91" transform="rotate(8.21 989.086 15.918)"/><rect class="cls-3" x="147.49" y="1140.67" width="145.31" height="145.31" rx="19.91" transform="rotate(-45 220.145 1213.323)"/><rect class="cls-3" x="538" y="1036.03" width="145.31" height="145.31" rx="19.91" transform="rotate(-68.55 610.696 1108.703)"/><rect class="cls-3" x="928.52" y="931.39" width="145.31" height="145.31" rx="19.91" transform="rotate(50.36 1001.19 1004.107)"/><rect class="cls-3" x="1319.04" y="826.75" width="145.31" height="145.31" rx="19.91" transform="rotate(30 1391.698 899.416)"/><rect class="cls-3" x="1709.55" y="722.12" width="145.31" height="145.31" rx="19.91" transform="rotate(-2.94 1779.396 793.564)"/><rect class="cls-3" x="466.15" y="1386.14" width="145.31" height="145.31" rx="19.91" transform="rotate(-19.92 538.95 1459.039)"/><rect class="cls-3" x="856.66" y="1281.5" width="145.31" height="145.31" rx="19.91" transform="rotate(25.66 929.198 1353.884)"/><rect class="cls-3" x="1247.18" y="1176.86" width="145.31" height="145.31" rx="19.91" transform="rotate(-19.92 1320.103 1249.7)"/><rect class="cls-3" x="1637.7" y="1072.23" width="145.31" height="145.31" rx="19.91" transform="rotate(12.31 1710.631 1145.116)"/><rect class="cls-3" x="1368.31" y="-132.27" width="145.31" height="145.31" rx="19.91" transform="rotate(7.55 1441.138 -59.622)"/><rect class="cls-3" x="-116.55" y="1688.44" width="145.31" height="145.31" rx="19.91" transform="rotate(-19.92 -43.84 1761.413)"/><rect class="cls-3" x="290.77" y="-139.89" width="145.31" height="145.31" rx="19.91" transform="rotate(-36.78 363.398 -67.228)"/><rect class="cls-3" x="916.64" y="1863.28" width="145.31" height="145.31" rx="19.91" transform="rotate(8.21 989.108 1935.502)"/><rect class="cls-3" x="1368.31" y="1787.73" width="145.31" height="145.31" rx="19.91" transform="rotate(7.55 1441.117 1860.597)"/><rect class="cls-3" x="290.77" y="1780.11" width="145.31" height="145.31" rx="19.91" transform="rotate(-36.78 363.35 1852.642)"/><rect class="cls-3" x="703.27" y="1652.83" width="145.31" height="145.31" rx="19.91" transform="rotate(-23.71 776.024 1725.614)"/><rect class="cls-3" x="1093.79" y="1548.19" width="145.31" height="145.31" rx="19.91"/><rect class="cls-3" x="1484.31" y="1443.56" width="145.31" height="145.31" rx="19.91" transform="rotate(30 1556.968 1516.212)"/><rect class="cls-3" x="-44.53" y="1338.92" width="145.31" height="145.31" rx="19.91" transform="rotate(-36.52 28.16 1411.67)"/><rect class="cls-3" x="1863.58" y="398.77" width="145.31" height="145.31" rx="19.91" transform="rotate(-60 1936.242 471.43)"/><rect class="cls-3" x="1803.45" y="1688.44" width="145.31" height="145.31" rx="19.91" transform="rotate(-19.92 1876.499 1761.34)"/><rect class="cls-3" x="1875.47" y="1338.92" width="145.31" height="145.31" rx="19.91" transform="rotate(-36.52 1948.276 1411.63)"/></g></svg>