<svg version="1.1" id="Layer_1" xmlns="http://www.w3.org/2000/svg" xmlns:xlink="http://www.w3.org/1999/xlink" x="0" y="0" viewBox="0 0 1920 1920" xml:space="preserve"><style>.st11{fill:#fbbc04}</style><g><defs><path id="SVGID_11_" d="M0 0h1920v1920H0z"/></defs><use xlink:href="#SVGID_11_" overflow="visible" fill="#fcc934"/><clipPath id="SVGID_2_"><use xlink:href="#SVGID_11_" overflow="visible"/></clipPath><g clip-path="url(#SVGID_2_)"><path class="st11" d="M562.71 1154.27c-50.26 0-91.01 40.75-91.01 91.01 0 50.26 40.75 91.01 91.01 91.01s91.01-40.75 91.01-91.01c0-50.27-40.75-91.01-91.01-91.01zm0 109.74c-10.35 0-18.74-8.39-18.74-18.74s8.39-18.74 18.74-18.74 18.74 8.39 18.74 18.74-8.4 18.74-18.74 18.74zM233.48 1063.26c-50.26 0-91.01 40.75-91.01 91.01 0 50.26 40.75 91.01 91.01 91.01s91.01-40.75 91.01-91.01c0-50.27-40.74-91.01-91.01-91.01zm0 109.74c-10.35 0-18.74-8.39-18.74-18.74 0-10.35 8.39-18.74 18.74-18.74 10.35 0 18.74 8.39 18.74 18.74 0 10.35-8.39 18.74-18.74 18.74zM358.28 606.85c-50.26 0-91.01 40.75-91.01 91.01 0 50.26 40.75 91.01 91.01 91.01s91.01-40.75 91.01-91.01c0-50.27-40.74-91.01-91.01-91.01zm0 109.74c-10.35 0-18.74-8.39-18.74-18.74s8.39-18.74 18.74-18.74c10.35 0 18.74 8.39 18.74 18.74s-8.39 18.74-18.74 18.74zM177.26 14.01c-50.26 0-91.01 40.75-91.01 91.01 0 50.26 40.75 91.01 91.01 91.01s91.01-40.75 91.01-91.01c0-50.26-40.74-91.01-91.01-91.01zm0 109.75c-10.35 0-18.74-8.39-18.74-18.74s8.39-18.74 18.74-18.74c10.35 0 18.74 8.39 18.74 18.74s-8.39 18.74-18.74 18.74zM525.33 43.9c-50.26 0-91.01 40.75-91.01 91.01 0 50.26 40.75 91.01 91.01 91.01s91.01-40.75 91.01-91.01c0-50.26-40.74-91.01-91.01-91.01zm0 109.75c-10.35 0-18.74-8.39-18.74-18.74s8.39-18.74 18.74-18.74 18.74 8.39 18.74 18.74-8.39 18.74-18.74 18.74zM839.38 302.75c-50.26 0-91.01 40.75-91.01 91.01 0 50.26 40.75 91.01 91.01 91.01s91.01-40.75 91.01-91.01c0-50.26-40.75-91.01-91.01-91.01zm0 109.75c-10.35 0-18.74-8.39-18.74-18.74 0-10.35 8.39-18.74 18.74-18.74s18.74 8.39 18.74 18.74c0 10.35-8.39 18.74-18.74 18.74zM993.38-91.25c-50.26 0-91.01 40.75-91.01 91.01 0 50.26 40.75 91.01 91.01 91.01 50.26 0 91.01-40.75 91.01-91.01 0-50.26-40.75-91.01-91.01-91.01zm0 109.75c-10.35 0-18.74-8.39-18.74-18.74s8.39-18.74 18.74-18.74 18.74 8.39 18.74 18.74-8.39 18.74-18.74 18.74zM993.38 1828.75c-50.26 0-91.01 40.75-91.01 91.01 0 50.26 40.75 91.01 91.01 91.01 50.26 0 91.01-40.75 91.01-91.01 0-50.26-40.75-91.01-91.01-91.01zm0 109.75c-10.35 0-18.74-8.39-18.74-18.74s8.39-18.74 18.74-18.74 18.74 8.39 18.74 18.74-8.39 18.74-18.74 18.74zM781.11 676.47c-50.26 0-91.01 40.75-91.01 91.01 0 50.26 40.75 91.01 91.01 91.01s91.01-40.75 91.01-91.01c0-50.26-40.75-91.01-91.01-91.01zm0 109.75c-10.35 0-18.74-8.39-18.74-18.74s8.39-18.74 18.74-18.74 18.74 8.39 18.74 18.74-8.4 18.74-18.74 18.74zM963.13 1044.65c-50.26 0-91.01 40.75-91.01 91.01 0 50.26 40.75 91.01 91.01 91.01s91.01-40.75 91.01-91.01c0-50.26-40.75-91.01-91.01-91.01zm0 109.75c-10.35 0-18.74-8.39-18.74-18.74s8.39-18.74 18.74-18.74 18.74 8.39 18.74 18.74-8.4 18.74-18.74 18.74zM1270.56 281.49c-50.26 0-91.01 40.75-91.01 91.01 0 50.26 40.75 91.01 91.01 91.01s91.01-40.75 91.01-91.01c0-50.26-40.74-91.01-91.01-91.01zm0 109.75c-10.35 0-18.74-8.39-18.74-18.74s8.39-18.74 18.74-18.74 18.74 8.39 18.74 18.74-8.39 18.74-18.74 18.74zM1616.01 81.74c-50.26 0-91.01 40.75-91.01 91.01 0 50.26 40.75 91.01 91.01 91.01 50.26 0 91.01-40.75 91.01-91.01 0-50.26-40.74-91.01-91.01-91.01zm0 109.75c-10.35 0-18.74-8.39-18.74-18.74s8.39-18.74 18.74-18.74 18.74 8.39 18.74 18.74-8.39 18.74-18.74 18.74zM1920.6 1409.98c-50.26 0-91.01 40.75-91.01 91.01 0 50.26 40.75 91.01 91.01 91.01s91.01-40.75 91.01-91.01c0-50.26-40.75-91.01-91.01-91.01zm0 109.75c-10.35 0-18.74-8.39-18.74-18.74s8.39-18.74 18.74-18.74 18.74 8.39 18.74 18.74-8.39 18.74-18.74 18.74zM.6 1409.98c-50.26 0-91.01 40.75-91.01 91.01 0 50.26 40.75 91.01 91.01 91.01s91.01-40.75 91.01-91.01c0-50.26-40.75-91.01-91.01-91.01zm0 109.75c-10.35 0-18.74-8.39-18.74-18.74s8.39-18.74 18.74-18.74 18.74 8.39 18.74 18.74-8.39 18.74-18.74 18.74zM1653.59 1619.69c-50.26 0-91.01 40.75-91.01 91.01 0 50.26 40.75 91.01 91.01 91.01s91.01-40.75 91.01-91.01c0-50.27-40.75-91.01-91.01-91.01zm0 109.75c-10.35 0-18.74-8.39-18.74-18.74s8.39-18.74 18.74-18.74 18.74 8.39 18.74 18.74-8.39 18.74-18.74 18.74zM1308.98 1236.05c-50.26 0-91.01 40.75-91.01 91.01 0 50.26 40.75 91.01 91.01 91.01s91.01-40.75 91.01-91.01c0-50.27-40.75-91.01-91.01-91.01zm0 109.75c-10.35 0-18.74-8.39-18.74-18.74s8.39-18.74 18.74-18.74 18.74 8.39 18.74 18.74-8.39 18.74-18.74 18.74zM872.12 1483.69c-50.26 0-91.01 40.75-91.01 91.01 0 50.26 40.75 91.01 91.01 91.01 50.26 0 91.01-40.75 91.01-91.01 0-50.27-40.75-91.01-91.01-91.01zm0 109.75c-10.35 0-18.74-8.39-18.74-18.74s8.39-18.74 18.74-18.74c10.35 0 18.74 8.39 18.74 18.74s-8.4 18.74-18.74 18.74zM490.43 1704.02c-50.26 0-91.01 40.75-91.01 91.01 0 50.26 40.75 91.01 91.01 91.01s91.01-40.75 91.01-91.01c0-50.26-40.74-91.01-91.01-91.01zm0 109.75c-10.35 0-18.74-8.39-18.74-18.74s8.39-18.74 18.74-18.74 18.74 8.39 18.74 18.74-8.39 18.74-18.74 18.74zM1227.79 1638.02c-50.26 0-91.01 40.75-91.01 91.01 0 50.26 40.75 91.01 91.01 91.01s91.01-40.75 91.01-91.01c0-50.26-40.74-91.01-91.01-91.01zm0 109.75c-10.35 0-18.74-8.39-18.74-18.74 0-10.35 8.39-18.74 18.74-18.74s18.74 8.39 18.74 18.74c0 10.35-8.39 18.74-18.74 18.74zM1947.72 296.56c-50.26 0-91.01 40.75-91.01 91.01 0 50.26 40.75 91.01 91.01 91.01s91.01-40.75 91.01-91.01c0-50.27-40.75-91.01-91.01-91.01zm0 109.75c-10.35 0-18.74-8.39-18.74-18.74 0-10.35 8.39-18.74 18.74-18.74s18.74 8.39 18.74 18.74c0 10.35-8.39 18.74-18.74 18.74zM1452.58 645.04c-50.26 0-91.01 40.75-91.01 91.01 0 50.26 40.75 91.01 91.01 91.01 50.26 0 91.01-40.75 91.01-91.01 0-50.27-40.74-91.01-91.01-91.01zm0 109.75c-10.35 0-18.74-8.39-18.74-18.74 0-10.35 8.39-18.74 18.74-18.74s18.74 8.39 18.74 18.74c0 10.35-8.39 18.74-18.74 18.74zM1642.87 1010.59c-50.26 0-91.01 40.75-91.01 91.01 0 50.26 40.75 91.01 91.01 91.01s91.01-40.75 91.01-91.01c0-50.26-40.75-91.01-91.01-91.01zm0 109.75c-10.35 0-18.74-8.39-18.74-18.74 0-10.35 8.39-18.74 18.74-18.74s18.74 8.39 18.74 18.74c0 10.35-8.39 18.74-18.74 18.74zM1875.45 717.31c-50.26 0-91.01 40.75-91.01 91.01 0 50.26 40.75 91.01 91.01 91.01s91.01-40.75 91.01-91.01c0-50.26-40.75-91.01-91.01-91.01zm0 109.75c-10.35 0-18.74-8.39-18.74-18.74 0-10.35 8.39-18.74 18.74-18.74s18.74 8.39 18.74 18.74c0 10.35-8.39 18.74-18.74 18.74zM27.72 296.56c-50.26 0-91.01 40.75-91.01 91.01 0 50.26 40.75 91.01 91.01 91.01s91.01-40.75 91.01-91.01c0-50.27-40.75-91.01-91.01-91.01zm0 109.75c-10.35 0-18.74-8.39-18.74-18.74 0-10.35 8.39-18.74 18.74-18.74s18.74 8.39 18.74 18.74c0 10.35-8.39 18.74-18.74 18.74zM-44.55 717.31c-50.26 0-91.01 40.75-91.01 91.01 0 50.26 40.75 91.01 91.01 91.01s91.01-40.75 91.01-91.01c0-50.26-40.75-91.01-91.01-91.01zm0 109.75c-10.35 0-18.74-8.39-18.74-18.74 0-10.35 8.39-18.74 18.74-18.74s18.74 8.39 18.74 18.74c0 10.35-8.39 18.74-18.74 18.74z"/></g></g></svg>