<svg height="21" width="16" xmlns="http://www.w3.org/2000/svg"><g fill="none"><path d="M8.267 1.236c-3.916 0-7.104 3.273-7.104 7.296 0 1.657.532 3.22 1.533 4.52l5.57 7.199 5.573-7.199a7.342 7.342 0 001.53-4.52c0-4.023-3.185-7.296-7.102-7.296zm0 10.339c-1.68 0-3.044-1.404-3.044-3.128 0-1.726 1.365-3.13 3.044-3.13 1.68 0 3.045 1.404 3.045 3.13 0 1.725-1.364 3.128-3.045 3.128z" fill="#ea4335" stroke="#fff" stroke-width=".5"/><path d="M8.267 5.317c-1.68 0-3.044 1.404-3.044 3.13 0 1.725 1.365 3.128 3.044 3.128 1.68 0 3.045-1.404 3.045-3.128 0-1.726-1.364-3.13-3.045-3.13z" fill="#fff"/></g></svg>