<svg xmlns="http://www.w3.org/2000/svg" width="25.1" height="25.1" viewBox="0 0 25.1 25.1"><defs><style>.a{fill:none;stroke:#002349;}</style></defs><path class="a" d="M24.1,4.832V23.768a2.583,2.583,0,0,1-2.582,2.582H8.306A13.784,13.784,0,0,0,9.78,23.16c.161-.619.823-3.142.823-3.142a3.532,3.532,0,0,0,3.029,1.517c3.986,0,6.853-3.663,6.853-8.214,0-4.363-3.561-7.628-8.144-7.628-5.7,0-8.725,3.825-8.725,7.994,0,1.937,1.033,4.347,2.679,5.116.253.118.382.065.441-.178.043-.183.269-1.081.366-1.5a.39.39,0,0,0-.091-.377,5.149,5.149,0,0,1-.984-3.012,5.718,5.718,0,0,1,5.966-5.734A5.216,5.216,0,0,1,17.51,13.38c0,3.572-1.8,6.046-4.153,6.046A1.921,1.921,0,0,1,11.4,17.038c.371-1.571,1.092-3.265,1.092-4.4,0-2.851-4.061-2.458-4.061,1.345a4.827,4.827,0,0,0,.393,1.963C7.133,23.09,6.88,23.181,7.23,26.307l.118.043H2.582A2.583,2.583,0,0,1,0,23.768V4.832A2.583,2.583,0,0,1,2.582,2.25H21.518A2.583,2.583,0,0,1,24.1,4.832Z" transform="translate(0.5 -1.75)"/></svg>