<svg width="99" height="70" viewBox="0 0 99 70" fill="none" xmlns="http://www.w3.org/2000/svg">
<path d="M96.921 10.8879C95.7825 6.61191 92.4165 3.23089 88.1595 2.0873C80.4375 -0.000976562 49.5 -0.000976562 49.5 -0.000976562C49.5 -0.000976562 18.5625 -0.000976562 10.8405 2.0873C6.5835 3.23089 3.2175 6.61191 2.079 10.8879C0 18.6444 0 34.8037 0 34.8037C0 34.8037 0 50.963 2.079 58.7195C3.2175 62.9955 6.5835 66.3765 10.8405 67.5201C18.5625 69.6084 49.5 69.6084 49.5 69.6084C49.5 69.6084 80.4375 69.6084 88.1595 67.5201C92.4165 66.3765 95.7825 62.9955 96.921 58.7195C99 50.963 99 34.8037 99 34.8037C99 34.8037 99 18.6444 96.921 10.8879Z" fill="#202124"/>
<path d="M38.6719 49.499V20.1084L64.9688 34.8037L38.6719 49.499Z" fill="white"/>
</svg>
