<svg width="283" height="499" xmlns="http://www.w3.org/2000/svg"><g fill="none" fill-rule="evenodd"><path d="M76.003 246.441c3.399 4.63 1.421 11.467-4.588 15.785-6.01 4.317-12.505 3.763-15.605-1.113-3.1-4.876-.76-11.512 4.553-15.603 5.314-4.09 11.957-4.086 15.64.931" fill="#FABB05" style="mix-blend-mode:multiply"/><path d="M208.182 197.077s-13.78 4.222-19.05-15.65c0 0-4.848-37.147 18.188 1.202 7.837 13.048.862 14.448.862 14.448" fill="#3E82F7" style="mix-blend-mode:multiply"/><path stroke="#9AA0A6" d="M95 404.059h93.296V313H95zM1 498h94v-94H1zm234.671-185c25.776 0 46.671 20.38 46.671 45.52 0 25.14-20.895 45.52-46.67 45.52-25.776 0-46.672-20.38-46.672-45.52 0-25.14 20.896-45.52 46.671-45.52zM95.492 165.066l17.38-81.766 81.822 17.391"/><path d="M95.576 164.669c45.19 9.605 89.603-19.217 99.202-64.375 9.6-45.16-19.252-89.553-64.442-99.159L95.576 164.67z" stroke="#9AA0A6"/><path d="M165.002 26.286c4.3-14.35 18.013-19.623 31.787-14.192 13.775 5.431 18.366 19.798 13.069 31.187-5.299 11.388-18.366 15.768-32.847 10.512-14.481-5.256-13.952-21.024-12.009-27.507" fill="#E44335" style="mix-blend-mode:multiply"/><path d="M122.317 426.253c.01-.9.067-1.804.133-2.706.177-2.423.86-5.42 3.137-6.743.839-.486 1.863-.587 2.841-.5 6.469.567 13.285 5.242 15.249 11.484 1.334 4.24-.382 10.477-5.565 10.667-5.513.203-12.354-.87-14.818-6.53-.799-1.836-.997-3.746-.977-5.672" fill="#34A253" style="mix-blend-mode:multiply"/></g></svg>