<?xml version="1.0" encoding="utf-8"?>
<!-- Generator: Adobe Illustrator 21.0.2, SVG Export Plug-In . SVG Version: 6.00 Build 0)  -->
<svg version="1.1" id="Layer_1" xmlns="http://www.w3.org/2000/svg" xmlns:xlink="http://www.w3.org/1999/xlink" x="0px" y="0px"
	 viewBox="0 0 48 48" style="enable-background:new 0 0 48 48;" xml:space="preserve">
<style type="text/css">
	.st0{fill:none;}
	.st1{fill:#3287E4;}
</style>
<path class="st0" d="M0,0h48v48H0V0z"/>
<path class="st1" d="M38.7,20.1C37.3,13.2,31.3,8,24,8c-5.8,0-10.8,3.3-13.3,8.1C4.7,16.7,0,21.8,0,28c0,6.6,5.4,12,12,12h26
	c5.5,0,10-4.5,10-10C48,24.7,43.9,20.4,38.7,20.1z M20,34l-7-7l2.8-2.8l4.2,4.2L30.4,18l2.8,2.8L20,34z"/>
</svg>