<?xml version="1.0" encoding="UTF-8" standalone="no"?>
<svg width="26px" height="26px" viewBox="0 0 26 26" version="1.1" xmlns="http://www.w3.org/2000/svg" xmlns:xlink="http://www.w3.org/1999/xlink">
    <!-- Generator: Sketch 39.1 (31720) - http://www.bohemiancoding.com/sketch -->
    <title>pubsub copy</title>
    <desc>Created with Sketch.</desc>
    <defs></defs>
    <g id="Page-1" stroke="none" stroke-width="1" fill="none" fill-rule="evenodd">
        <g id="pubsub-logo-copy-2" transform="translate(2.000000, 1.000000)">
            <path d="M17.9573816,6.08014412 C18.9222739,5.52546348 20.1562446,5.85449853 20.7133506,6.81556764 C21.2704565,7.77625942 20.9399828,9.00485817 19.9750904,9.55953881 C19.0098191,10.1142195 17.7758484,9.78518441 17.2187425,8.82449263 C16.6616365,7.86342352 16.9921102,6.63482476 17.9573816,6.08014412" id="Fill-4" fill="#FFFFFF"></path>
            <path d="M1.64592593,9.55953881 C0.681033592,9.00485817 0.350559862,7.77625942 0.907665805,6.81556764 C1.46477175,5.85449853 2.69874246,5.52546348 3.6636348,6.08014412 C4.62890612,6.63482476 4.95937984,7.86342352 4.4022739,8.82449263 C3.84516796,9.78518441 2.61119724,10.1142195 1.64592593,9.55953881" id="Fill-5" fill="#FFFFFF"></path>
            <path d="M12.828596,21.8843917 C12.828596,22.993753 11.9250991,23.8933167 10.8105082,23.8933167 C9.69591731,23.8933167 8.79242033,22.993753 8.79242033,21.8843917 C8.79242033,20.7746531 9.69591731,19.8750894 10.8105082,19.8750894 C11.9250991,19.8750894 12.828596,20.7746531 12.828596,21.8843917" id="Fill-6" fill="#FFFFFF"></path>
            <path d="M14.8167442,13.7400197 C14.6287683,14.3456404 14.3066322,14.892397 13.8840655,15.3459522 L18.5004651,17.9993632 L19.4316279,16.3930534 L14.8167442,13.7400197" id="Fill-7" fill="#FFFFFF"></path>
            <polyline id="Fill-8" fill="#FFFFFF" points="6.13536606 14.1245228 2.18938846 16.3930534 2.82342808 17.486944 6.55035314 14.5377032 6.13536606 14.1245228"></polyline>
            <path d="M6.80427218,13.7400197 L6.13536606,14.1245228 L6.55035314,14.5377032 L2.82342808,17.486944 L3.12055125,17.9993632 L7.7369509,15.3459522 C7.31438415,14.892397 6.99224806,14.3456404 6.80427218,13.7400197" id="Fill-9" fill="#FFFFFF"></path>
            <path d="M11.6419983,3.13165804 L9.87896641,3.13165804 L9.87896641,8.43810285 C9.88048234,8.43772552 9.88237726,8.43734818 9.8838932,8.43697085 L9.88199828,8.43508418 L10.8427218,4.6206171 L11.6419983,3.13165804" id="Fill-10" fill="#FFFFFF"></path>
            <path d="M11.74205,3.13165804 L11.6419983,3.13165804 L10.8427218,4.6206171 L9.88199828,8.43508418 L9.8838932,8.43697085 C10.1821533,8.36980544 10.4921619,8.3347134 10.8105082,8.3347134 C11.1307494,8.3347134 11.4422739,8.3705601 11.74205,8.43810285 L11.74205,3.13165804" id="Fill-11" fill="#FFFFFF"></path>
            <path d="M11.74205,11.9725883 L11.74205,12.5080249 L10.8105082,12.5080249 L11.2762791,13.3113685 L10.8105082,13.5788981 L13.8840655,15.3459522 C14.3066322,14.892397 14.6287683,14.3456404 14.8167442,13.7400197 L11.74205,11.9725883" id="Fill-12" fill="#EDEDED"></path>
            <path d="M9.87896641,11.9725883 L6.80427218,13.7400197 C6.99224806,14.3456404 7.31438415,14.892397 7.7369509,15.3459522 L11.2762791,13.3113685 L10.8105082,12.5080249 L9.87896641,12.5080249 L9.87896641,11.9725883" id="Fill-13" fill="#EDEDED"></path>
            <path d="M9.8838932,8.43697085 C9.88237726,8.43734818 9.88048234,8.43772552 9.87896641,8.43810285 L9.87896641,10.3847678 L11.5074591,10.0534687 L9.8838932,8.43697085" id="Fill-14" fill="#FFFFFF"></path>
            <path d="M10.8105082,8.3347134 C10.4921619,8.3347134 10.1821533,8.36980544 9.8838932,8.43697085 L11.5074591,10.0534687 L9.87896641,10.3847678 L9.87896641,12.5080249 L11.74205,12.5080249 L11.74205,8.43810285 C11.4422739,8.3705601 11.1307494,8.3347134 10.8105082,8.3347134" id="Fill-15" fill="#EDEDED"></path>
            <path d="M14.0705254,12.5080249 C14.0705254,14.3007376 12.6110594,15.75385 10.8105082,15.75385 C9.00995693,15.75385 7.55049096,14.3007376 7.55049096,12.5080249 C7.55049096,10.7153122 9.00995693,9.2621998 10.8105082,9.2621998 C12.6110594,9.2621998 14.0705254,10.7153122 14.0705254,12.5080249" id="Fill-16" fill="#FFFFFF"></path>
            <path d="M1.37457364,14.9878624 C2.59944875,14.2837576 4.16578811,14.7014661 4.87297158,15.9210088 C5.58015504,17.1409289 5.16062016,18.7004494 3.93536606,19.4045542 C2.71049096,20.108659 1.14415159,19.6909505 0.436968131,18.4710305 C-0.270215332,17.2514877 0.149319552,15.6919672 1.37457364,14.9878624" id="Fill-17" fill="#FFFFFF"></path>
            <path d="M17.6856503,19.4045542 C16.4603962,18.7004494 16.0408613,17.1409289 16.7480448,15.9210088 C17.4552283,14.7014661 19.0215676,14.2837576 20.2464427,14.9878624 C21.4716968,15.6919672 21.8912317,17.2514877 21.1840482,18.4710305 C20.4768648,19.6909505 18.9105254,20.108659 17.6856503,19.4045542" id="Fill-18" fill="#FFFFFF"></path>
            <path d="M13.3720586,3.13165804 C13.3720586,4.540245 12.2252541,5.68205699 10.8105082,5.68205699 C9.39576227,5.68205699 8.2489578,4.540245 8.2489578,3.13165804 C8.2489578,1.72344841 9.39576227,0.581259089 10.8105082,0.581259089 C12.2252541,0.581259089 13.3720586,1.72344841 13.3720586,3.13165804" id="Fill-19" fill="#FFFFFF"></path>
        </g>
    </g>
</svg>