<?xml version="1.0" encoding="UTF-8"?>
<svg xmlns="http://www.w3.org/2000/svg" xmlns:xlink="http://www.w3.org/1999/xlink" width="183px" height="45px" viewBox="0 0 183 45" version="1.1">
<g id="surface1">
<path style=" stroke:none;fill-rule:nonzero;fill:rgb(78.431373%,14.509804%,14.509804%);fill-opacity:1;" d="M 149.671875 21.292969 C 150.0625 20.90625 150.519531 20.527344 151.035156 20.15625 C 151.550781 19.78125 152.144531 19.410156 152.824219 19.035156 C 153.503906 18.664062 154.261719 18.253906 155.105469 17.8125 C 155.699219 17.480469 156.316406 17.09375 156.957031 16.652344 C 157.59375 16.210938 158.183594 15.707031 158.726562 15.140625 C 159.269531 14.574219 159.714844 13.917969 160.070312 13.171875 C 160.421875 12.425781 160.597656 11.570312 160.597656 10.605469 C 160.597656 9.203125 160.253906 7.980469 159.5625 6.933594 C 158.871094 5.890625 157.871094 5.070312 156.570312 4.480469 C 155.265625 3.890625 153.691406 3.59375 151.847656 3.59375 C 150.625 3.59375 149.480469 3.722656 148.410156 3.980469 C 147.335938 4.238281 146.359375 4.566406 145.476562 4.960938 C 144.597656 5.351562 143.835938 5.773438 143.199219 6.222656 C 142.5625 6.671875 142.050781 7.085938 141.671875 7.464844 L 145.132812 11.457031 C 145.457031 11.050781 145.824219 10.664062 146.230469 10.296875 C 146.636719 9.929688 147.078125 9.597656 147.554688 9.296875 C 148.027344 9 148.542969 8.769531 149.101562 8.605469 C 149.65625 8.441406 150.261719 8.359375 150.910156 8.359375 C 151.726562 8.359375 152.402344 8.5 152.945312 8.78125 C 153.488281 9.0625 153.910156 9.433594 154.207031 9.894531 C 154.507812 10.355469 154.65625 10.867188 154.65625 11.429688 C 154.65625 11.949219 154.507812 12.410156 154.207031 12.808594 C 153.910156 13.207031 153.46875 13.601562 152.886719 13.984375 C 152.300781 14.371094 151.589844 14.789062 150.75 15.242188 C 149.90625 15.695312 148.929688 16.226562 147.820312 16.828125 C 146.542969 17.542969 145.492188 18.28125 144.664062 19.035156 C 143.835938 19.792969 143.183594 20.59375 142.710938 21.445312 C 142.234375 22.300781 141.902344 23.21875 141.714844 24.210938 C 141.671875 24.425781 141.636719 24.652344 141.605469 24.882812 L 157.304688 24.882812 C 157.394531 24.550781 157.65625 24.296875 157.992188 24.21875 L 157.992188 22.621094 L 148.632812 22.621094 C 148.929688 22.121094 149.277344 21.679688 149.671875 21.292969 "/>
<path style=" stroke:none;fill-rule:nonzero;fill:rgb(78.431373%,14.509804%,14.509804%);fill-opacity:1;" d="M 157.300781 25.367188 L 141.546875 25.367188 C 141.46875 26.046875 141.429688 26.769531 141.429688 27.550781 L 157.992188 27.550781 L 157.992188 26.035156 C 157.65625 25.957031 157.390625 25.699219 157.300781 25.367188 "/>
<path style=" stroke:none;fill-rule:nonzero;fill:rgb(78.431373%,14.509804%,14.509804%);fill-opacity:1;" d="M 175.679688 22.65625 L 175.679688 5.039062 L 173.179688 5.039062 L 173.179688 24.230469 C 173.496094 24.316406 173.742188 24.5625 173.828125 24.882812 L 179.289062 24.882812 L 179.289062 22.65625 L 175.679688 22.65625 "/>
<path style=" stroke:none;fill-rule:nonzero;fill:rgb(78.431373%,14.509804%,14.509804%);fill-opacity:1;" d="M 172.035156 25.367188 L 159.101562 25.367188 C 159.011719 25.699219 158.75 25.957031 158.414062 26.035156 L 158.414062 27.585938 L 170.179688 27.585938 L 170.179688 33.117188 L 172.695312 33.117188 L 172.695312 26.027344 C 172.371094 25.941406 172.121094 25.6875 172.035156 25.367188 "/>
<path style=" stroke:none;fill-rule:nonzero;fill:rgb(78.431373%,14.509804%,14.509804%);fill-opacity:1;" d="M 173.179688 26.023438 L 173.179688 33.117188 L 175.679688 33.117188 L 175.679688 27.585938 L 179.289062 27.585938 L 179.289062 25.367188 L 173.832031 25.367188 C 173.746094 25.6875 173.496094 25.9375 173.179688 26.023438 "/>
<path style=" stroke:none;fill-rule:nonzero;fill:rgb(78.431373%,14.509804%,14.509804%);fill-opacity:1;" d="M 170.1875 13.386719 L 170.1875 22.65625 L 163.089844 22.65625 L 170.1875 13.375 Z M 158.414062 22.425781 L 158.414062 24.21875 C 158.746094 24.296875 159.007812 24.550781 159.097656 24.882812 L 172.035156 24.882812 C 172.125 24.5625 172.375 24.3125 172.695312 24.226562 L 172.695312 5.039062 L 171.945312 5.039062 L 158.414062 22.425781 "/>
<path style=" stroke:none;fill-rule:nonzero;fill:rgb(78.431373%,14.509804%,14.509804%);fill-opacity:1;" d="M 28.554688 36.933594 L 29.480469 36.933594 C 30.101562 36.933594 30.550781 36.816406 30.828125 36.585938 C 31.109375 36.355469 31.246094 36.015625 31.246094 35.5625 C 31.246094 35.101562 31.097656 34.769531 30.796875 34.566406 C 30.496094 34.367188 30.042969 34.265625 29.4375 34.265625 L 28.554688 34.265625 Z M 28.554688 38.039062 L 28.554688 41.296875 L 27.222656 41.296875 L 27.222656 33.140625 L 29.523438 33.140625 C 30.578125 33.140625 31.355469 33.335938 31.859375 33.730469 C 32.367188 34.125 32.617188 34.71875 32.617188 35.515625 C 32.617188 36.53125 32.089844 37.253906 31.035156 37.6875 L 33.335938 41.296875 L 31.820312 41.296875 L 29.871094 38.039062 L 28.554688 38.039062 "/>
<path style=" stroke:none;fill-rule:nonzero;fill:rgb(78.431373%,14.509804%,14.509804%);fill-opacity:1;" d="M 39.128906 41.296875 L 34.519531 41.296875 L 34.519531 33.140625 L 39.128906 33.140625 L 39.128906 34.265625 L 35.851562 34.265625 L 35.851562 36.488281 L 38.921875 36.488281 L 38.921875 37.601562 L 35.851562 37.601562 L 35.851562 40.164062 L 39.128906 40.164062 L 39.128906 41.296875 "/>
<path style=" stroke:none;fill-rule:nonzero;fill:rgb(78.431373%,14.509804%,14.509804%);fill-opacity:1;" d="M 44.777344 37.882812 L 44.015625 35.660156 C 43.960938 35.511719 43.882812 35.277344 43.785156 34.957031 C 43.683594 34.636719 43.617188 34.40625 43.582031 34.253906 C 43.480469 34.714844 43.332031 35.214844 43.140625 35.757812 L 42.40625 37.882812 Z M 45.941406 41.296875 L 45.128906 39.03125 L 42.015625 39.03125 L 41.21875 41.296875 L 39.8125 41.296875 L 42.859375 33.105469 L 44.308594 33.105469 L 47.359375 41.296875 L 45.941406 41.296875 "/>
<path style=" stroke:none;fill-rule:nonzero;fill:rgb(78.431373%,14.509804%,14.509804%);fill-opacity:1;" d="M 48.433594 41.296875 L 48.433594 33.140625 L 49.765625 33.140625 L 49.765625 40.152344 L 53.214844 40.152344 L 53.214844 41.296875 L 48.433594 41.296875 "/>
<path style=" stroke:none;fill-rule:nonzero;fill:rgb(78.431373%,14.509804%,14.509804%);fill-opacity:1;" d="M 62.195312 41.296875 L 57.585938 41.296875 L 57.585938 33.140625 L 62.195312 33.140625 L 62.195312 34.265625 L 58.917969 34.265625 L 58.917969 36.488281 L 61.988281 36.488281 L 61.988281 37.601562 L 58.917969 37.601562 L 58.917969 40.164062 L 62.195312 40.164062 L 62.195312 41.296875 "/>
<path style=" stroke:none;fill-rule:nonzero;fill:rgb(78.431373%,14.509804%,14.509804%);fill-opacity:1;" d="M 68.652344 39.082031 C 68.652344 39.804688 68.390625 40.375 67.867188 40.789062 C 67.34375 41.199219 66.621094 41.40625 65.699219 41.40625 C 64.777344 41.40625 64.023438 41.265625 63.4375 40.976562 L 63.4375 39.71875 C 63.808594 39.890625 64.203125 40.027344 64.621094 40.128906 C 65.039062 40.230469 65.429688 40.28125 65.789062 40.28125 C 66.316406 40.28125 66.707031 40.179688 66.957031 39.980469 C 67.207031 39.777344 67.332031 39.507812 67.332031 39.171875 C 67.332031 38.863281 67.21875 38.605469 66.988281 38.394531 C 66.757812 38.183594 66.28125 37.933594 65.558594 37.640625 C 64.816406 37.339844 64.292969 36.996094 63.988281 36.609375 C 63.683594 36.222656 63.53125 35.757812 63.53125 35.214844 C 63.53125 34.535156 63.773438 34 64.257812 33.609375 C 64.738281 33.21875 65.386719 33.023438 66.203125 33.023438 C 66.980469 33.023438 67.757812 33.195312 68.53125 33.535156 L 68.109375 34.625 C 67.382812 34.320312 66.738281 34.167969 66.167969 34.167969 C 65.738281 34.167969 65.410156 34.261719 65.1875 34.449219 C 64.964844 34.636719 64.851562 34.882812 64.851562 35.191406 C 64.851562 35.40625 64.898438 35.585938 64.988281 35.738281 C 65.074219 35.886719 65.222656 36.03125 65.425781 36.164062 C 65.632812 36.296875 66 36.472656 66.53125 36.691406 C 67.128906 36.941406 67.566406 37.175781 67.847656 37.390625 C 68.125 37.605469 68.328125 37.851562 68.457031 38.121094 C 68.589844 38.394531 68.652344 38.710938 68.652344 39.082031 "/>
<path style=" stroke:none;fill-rule:nonzero;fill:rgb(78.431373%,14.509804%,14.509804%);fill-opacity:1;" d="M 73.046875 41.296875 L 71.714844 41.296875 L 71.714844 34.285156 L 69.316406 34.285156 L 69.316406 33.140625 L 75.441406 33.140625 L 75.441406 34.285156 L 73.046875 34.285156 L 73.046875 41.296875 "/>
<path style=" stroke:none;fill-rule:nonzero;fill:rgb(78.431373%,14.509804%,14.509804%);fill-opacity:1;" d="M 80.582031 37.882812 L 79.816406 35.660156 C 79.761719 35.511719 79.683594 35.277344 79.585938 34.957031 C 79.488281 34.636719 79.417969 34.40625 79.382812 34.253906 C 79.28125 34.714844 79.136719 35.214844 78.941406 35.757812 L 78.207031 37.882812 Z M 81.746094 41.296875 L 80.929688 39.03125 L 77.816406 39.03125 L 77.019531 41.296875 L 75.613281 41.296875 L 78.664062 33.105469 L 80.113281 33.105469 L 83.160156 41.296875 L 81.746094 41.296875 "/>
<path style=" stroke:none;fill-rule:nonzero;fill:rgb(78.431373%,14.509804%,14.509804%);fill-opacity:1;" d="M 87.050781 41.296875 L 85.71875 41.296875 L 85.71875 34.285156 L 83.324219 34.285156 L 83.324219 33.140625 L 89.445312 33.140625 L 89.445312 34.285156 L 87.050781 34.285156 L 87.050781 41.296875 "/>
<path style=" stroke:none;fill-rule:nonzero;fill:rgb(78.431373%,14.509804%,14.509804%);fill-opacity:1;" d="M 95.304688 41.296875 L 90.695312 41.296875 L 90.695312 33.140625 L 95.304688 33.140625 L 95.304688 34.265625 L 92.027344 34.265625 L 92.027344 36.488281 L 95.097656 36.488281 L 95.097656 37.601562 L 92.027344 37.601562 L 92.027344 40.164062 L 95.304688 40.164062 L 95.304688 41.296875 "/>
<path style=" stroke:none;fill-rule:nonzero;fill:rgb(78.431373%,14.509804%,14.509804%);fill-opacity:1;" d="M 101.363281 37.121094 L 102.070312 37.121094 C 102.753906 37.121094 103.253906 37.003906 103.574219 36.765625 C 103.894531 36.527344 104.054688 36.15625 104.054688 35.648438 C 104.054688 35.183594 103.910156 34.832031 103.625 34.601562 C 103.339844 34.371094 102.894531 34.253906 102.289062 34.253906 L 101.363281 34.253906 Z M 105.425781 35.605469 C 105.425781 36.457031 105.148438 37.109375 104.589844 37.5625 C 104.03125 38.015625 103.238281 38.246094 102.210938 38.246094 L 101.363281 38.246094 L 101.363281 41.296875 L 100.03125 41.296875 L 100.03125 33.140625 L 102.375 33.140625 C 103.394531 33.140625 104.15625 33.347656 104.664062 33.765625 C 105.171875 34.179688 105.425781 34.792969 105.425781 35.605469 "/>
<path style=" stroke:none;fill-rule:nonzero;fill:rgb(78.431373%,14.509804%,14.509804%);fill-opacity:1;" d="M 110.941406 37.882812 L 110.179688 35.660156 C 110.125 35.511719 110.046875 35.277344 109.949219 34.957031 C 109.851562 34.636719 109.78125 34.40625 109.746094 34.253906 C 109.644531 34.714844 109.496094 35.214844 109.304688 35.757812 L 108.570312 37.882812 Z M 112.109375 41.296875 L 111.292969 39.03125 L 108.179688 39.03125 L 107.382812 41.296875 L 105.976562 41.296875 L 109.023438 33.105469 L 110.472656 33.105469 L 113.523438 41.296875 L 112.109375 41.296875 "/>
<path style=" stroke:none;fill-rule:nonzero;fill:rgb(78.431373%,14.509804%,14.509804%);fill-opacity:1;" d="M 115.929688 36.933594 L 116.855469 36.933594 C 117.476562 36.933594 117.925781 36.816406 118.203125 36.585938 C 118.484375 36.355469 118.621094 36.015625 118.621094 35.5625 C 118.621094 35.101562 118.472656 34.769531 118.171875 34.566406 C 117.871094 34.367188 117.417969 34.265625 116.8125 34.265625 L 115.929688 34.265625 Z M 115.929688 38.039062 L 115.929688 41.296875 L 114.597656 41.296875 L 114.597656 33.140625 L 116.902344 33.140625 C 117.953125 33.140625 118.730469 33.335938 119.234375 33.730469 C 119.742188 34.125 119.992188 34.71875 119.992188 35.515625 C 119.992188 36.53125 119.464844 37.253906 118.410156 37.6875 L 120.710938 41.296875 L 119.195312 41.296875 L 117.246094 38.039062 L 115.929688 38.039062 "/>
<path style=" stroke:none;fill-rule:nonzero;fill:rgb(78.431373%,14.509804%,14.509804%);fill-opacity:1;" d="M 124.707031 41.296875 L 123.375 41.296875 L 123.375 34.285156 L 120.980469 34.285156 L 120.980469 33.140625 L 127.105469 33.140625 L 127.105469 34.285156 L 124.707031 34.285156 L 124.707031 41.296875 "/>
<path style=" stroke:none;fill-rule:nonzero;fill:rgb(78.431373%,14.509804%,14.509804%);fill-opacity:1;" d="M 135.140625 41.296875 L 133.507812 41.296875 L 129.5 34.796875 L 129.457031 34.796875 L 129.484375 35.160156 C 129.535156 35.851562 129.5625 36.484375 129.5625 37.054688 L 129.5625 41.296875 L 128.355469 41.296875 L 128.355469 33.140625 L 129.96875 33.140625 L 133.964844 39.605469 L 134 39.605469 C 133.992188 39.519531 133.976562 39.207031 133.953125 38.671875 C 133.933594 38.132812 133.921875 37.714844 133.921875 37.414062 L 133.921875 33.140625 L 135.140625 33.140625 L 135.140625 41.296875 "/>
<path style=" stroke:none;fill-rule:nonzero;fill:rgb(78.431373%,14.509804%,14.509804%);fill-opacity:1;" d="M 141.902344 41.296875 L 137.292969 41.296875 L 137.292969 33.140625 L 141.902344 33.140625 L 141.902344 34.265625 L 138.625 34.265625 L 138.625 36.488281 L 141.695312 36.488281 L 141.695312 37.601562 L 138.625 37.601562 L 138.625 40.164062 L 141.902344 40.164062 L 141.902344 41.296875 "/>
<path style=" stroke:none;fill-rule:nonzero;fill:rgb(78.431373%,14.509804%,14.509804%);fill-opacity:1;" d="M 144.996094 36.933594 L 145.921875 36.933594 C 146.539062 36.933594 146.988281 36.816406 147.269531 36.585938 C 147.546875 36.355469 147.6875 36.015625 147.6875 35.5625 C 147.6875 35.101562 147.535156 34.769531 147.234375 34.566406 C 146.933594 34.367188 146.480469 34.265625 145.875 34.265625 L 144.996094 34.265625 Z M 144.996094 38.039062 L 144.996094 41.296875 L 143.664062 41.296875 L 143.664062 33.140625 L 145.964844 33.140625 C 147.015625 33.140625 147.792969 33.335938 148.300781 33.730469 C 148.804688 34.125 149.058594 34.71875 149.058594 35.515625 C 149.058594 36.53125 148.53125 37.253906 147.472656 37.6875 L 149.777344 41.296875 L 148.261719 41.296875 L 146.308594 38.039062 L 144.996094 38.039062 "/>
<path style=" stroke:none;fill-rule:nonzero;fill:rgb(78.431373%,14.509804%,14.509804%);fill-opacity:1;" d="M 155.65625 39.082031 C 155.65625 39.804688 155.394531 40.375 154.871094 40.789062 C 154.347656 41.199219 153.625 41.40625 152.703125 41.40625 C 151.78125 41.40625 151.027344 41.265625 150.441406 40.976562 L 150.441406 39.71875 C 150.8125 39.890625 151.207031 40.027344 151.625 40.128906 C 152.042969 40.230469 152.429688 40.28125 152.792969 40.28125 C 153.320312 40.28125 153.707031 40.179688 153.960938 39.980469 C 154.210938 39.777344 154.335938 39.507812 154.335938 39.171875 C 154.335938 38.863281 154.21875 38.605469 153.988281 38.394531 C 153.757812 38.183594 153.285156 37.933594 152.5625 37.640625 C 151.820312 37.339844 151.296875 36.996094 150.992188 36.609375 C 150.6875 36.222656 150.535156 35.757812 150.535156 35.214844 C 150.535156 34.535156 150.777344 34 151.257812 33.609375 C 151.742188 33.21875 152.390625 33.023438 153.203125 33.023438 C 153.984375 33.023438 154.761719 33.195312 155.535156 33.535156 L 155.109375 34.625 C 154.386719 34.320312 153.738281 34.167969 153.171875 34.167969 C 152.738281 34.167969 152.414062 34.261719 152.1875 34.449219 C 151.96875 34.636719 151.855469 34.882812 151.855469 35.191406 C 151.855469 35.40625 151.898438 35.585938 151.988281 35.738281 C 152.078125 35.886719 152.226562 36.03125 152.429688 36.164062 C 152.632812 36.296875 153 36.472656 153.53125 36.691406 C 154.128906 36.941406 154.570312 37.175781 154.847656 37.390625 C 155.125 37.605469 155.332031 37.851562 155.460938 38.121094 C 155.589844 38.394531 155.65625 38.710938 155.65625 39.082031 "/>
<path style=" stroke:none;fill-rule:nonzero;fill:rgb(78.431373%,14.509804%,14.509804%);fill-opacity:1;" d="M 18.285156 18.640625 C 18.894531 18.304688 19.4375 17.894531 19.921875 17.410156 C 20.40625 16.925781 20.816406 16.382812 21.152344 15.773438 C 21.488281 15.167969 21.746094 14.519531 21.925781 13.835938 C 22.105469 13.148438 22.195312 12.433594 22.195312 11.691406 C 22.195312 10.703125 22 9.722656 21.605469 8.757812 C 21.230469 7.832031 20.710938 7 20.058594 6.261719 L 17.023438 6.261719 C 17.007812 6.308594 16.996094 6.355469 16.976562 6.398438 C 17.386719 6.65625 17.78125 6.988281 18.160156 7.40625 C 19.144531 8.484375 19.644531 9.945312 19.644531 11.75 C 19.644531 13.507812 19.210938 14.972656 18.355469 16.101562 C 17.558594 17.15625 16.609375 17.726562 15.523438 17.820312 C 15.480469 17.996094 15.394531 18.148438 15.269531 18.269531 L 20.75 27.550781 L 23.546875 27.550781 L 18.285156 18.640625 "/>
<path style=" stroke:none;fill-rule:nonzero;fill:rgb(78.431373%,14.509804%,14.509804%);fill-opacity:1;" d="M 14.617188 18.535156 C 14.183594 18.535156 13.820312 18.242188 13.714844 17.839844 L 7.253906 17.839844 C 7.167969 18.160156 6.917969 18.414062 6.59375 18.5 L 6.59375 27.550781 L 9.117188 27.550781 L 9.117188 19.824219 L 12.722656 19.824219 L 17.308594 27.550781 L 20.183594 27.550781 L 14.84375 18.503906 C 14.769531 18.523438 14.695312 18.535156 14.617188 18.535156 "/>
<path style=" stroke:none;fill-rule:nonzero;fill:rgb(78.431373%,14.509804%,14.509804%);fill-opacity:1;" d="M 7.253906 5.773438 L 15.21875 5.773438 C 15.324219 5.375 15.6875 5.078125 16.121094 5.078125 C 16.554688 5.078125 16.914062 5.375 17.023438 5.773438 L 19.589844 5.773438 C 18.976562 5.1875 18.28125 4.691406 17.492188 4.304688 C 16.539062 3.832031 15.5 3.59375 14.375 3.59375 L 6.59375 3.59375 L 6.59375 5.113281 C 6.917969 5.203125 7.167969 5.453125 7.253906 5.773438 "/>
<path style=" stroke:none;fill-rule:nonzero;fill:rgb(78.431373%,14.509804%,14.509804%);fill-opacity:1;" d="M 9.117188 8.453125 L 14.003906 8.453125 C 14.632812 8.453125 15.21875 8.746094 15.757812 9.332031 C 16.296875 9.914062 16.566406 10.703125 16.566406 11.691406 C 16.566406 12.660156 16.332031 13.453125 15.859375 14.070312 C 15.386719 14.6875 14.824219 15 14.175781 15 L 9.117188 15 Z M 7.253906 17.355469 L 13.714844 17.355469 C 13.820312 16.957031 14.183594 16.660156 14.617188 16.660156 C 15.042969 16.660156 15.398438 16.945312 15.511719 17.335938 C 16.449219 17.25 17.257812 16.75 17.96875 15.808594 C 18.757812 14.765625 19.15625 13.398438 19.15625 11.75 C 19.15625 10.070312 18.703125 8.71875 17.804688 7.734375 C 17.4375 7.332031 17.058594 7.015625 16.664062 6.777344 C 16.511719 6.890625 16.324219 6.957031 16.121094 6.957031 C 15.695312 6.957031 15.339844 6.667969 15.222656 6.28125 C 15.121094 6.269531 15.015625 6.261719 14.910156 6.261719 L 7.253906 6.261719 C 7.167969 6.582031 6.917969 6.835938 6.59375 6.921875 L 6.59375 16.695312 C 6.917969 16.78125 7.167969 17.035156 7.253906 17.355469 "/>
<path style=" stroke:none;fill-rule:nonzero;fill:rgb(78.431373%,14.509804%,14.509804%);fill-opacity:1;" d="M 6.109375 18.5 C 5.710938 18.394531 5.414062 18.03125 5.414062 17.597656 C 5.414062 17.164062 5.710938 16.804688 6.109375 16.695312 L 6.109375 6.921875 C 5.710938 6.8125 5.414062 6.453125 5.414062 6.019531 C 5.414062 5.585938 5.710938 5.222656 6.109375 5.113281 L 6.109375 3.59375 L 3.589844 3.59375 L 3.589844 27.550781 L 6.109375 27.550781 L 6.109375 18.5 "/>
<path style=" stroke:none;fill-rule:nonzero;fill:rgb(78.431373%,14.509804%,14.509804%);fill-opacity:1;" d="M 29.773438 14.453125 L 29.773438 6.921875 C 29.453125 6.835938 29.203125 6.582031 29.113281 6.261719 L 27.253906 6.261719 L 27.253906 15.113281 L 29.113281 15.113281 C 29.203125 14.789062 29.453125 14.539062 29.773438 14.453125 "/>
<path style=" stroke:none;fill-rule:nonzero;fill:rgb(78.431373%,14.509804%,14.509804%);fill-opacity:1;" d="M 30.257812 14.453125 C 30.582031 14.539062 30.832031 14.789062 30.917969 15.113281 L 42.21875 15.113281 L 42.21875 13.109375 L 32.78125 13.109375 L 32.78125 8.453125 L 43.769531 8.453125 L 43.769531 6.261719 L 30.917969 6.261719 C 30.832031 6.582031 30.582031 6.835938 30.257812 6.921875 L 30.257812 14.453125 "/>
<path style=" stroke:none;fill-rule:nonzero;fill:rgb(78.431373%,14.509804%,14.509804%);fill-opacity:1;" d="M 29.773438 24.222656 L 29.773438 16.257812 C 29.453125 16.171875 29.203125 15.917969 29.113281 15.597656 L 27.253906 15.597656 L 27.253906 24.882812 L 29.113281 24.882812 C 29.203125 24.558594 29.453125 24.308594 29.773438 24.222656 "/>
<path style=" stroke:none;fill-rule:nonzero;fill:rgb(78.431373%,14.509804%,14.509804%);fill-opacity:1;" d="M 29.773438 5.113281 L 29.773438 3.59375 L 27.253906 3.59375 L 27.253906 5.773438 L 29.113281 5.773438 C 29.203125 5.453125 29.453125 5.203125 29.773438 5.113281 "/>
<path style=" stroke:none;fill-rule:nonzero;fill:rgb(78.431373%,14.509804%,14.509804%);fill-opacity:1;" d="M 29.113281 25.367188 L 27.253906 25.367188 L 27.253906 27.550781 L 29.773438 27.550781 L 29.773438 26.027344 C 29.453125 25.941406 29.203125 25.6875 29.113281 25.367188 "/>
<path style=" stroke:none;fill-rule:nonzero;fill:rgb(78.431373%,14.509804%,14.509804%);fill-opacity:1;" d="M 32.78125 22.691406 L 32.78125 17.597656 L 42.21875 17.597656 L 42.21875 15.597656 L 30.917969 15.597656 C 30.832031 15.917969 30.582031 16.171875 30.257812 16.257812 L 30.257812 24.222656 C 30.582031 24.308594 30.832031 24.558594 30.917969 24.882812 L 44.074219 24.882812 L 44.074219 22.691406 L 32.78125 22.691406 "/>
<path style=" stroke:none;fill-rule:nonzero;fill:rgb(78.431373%,14.509804%,14.509804%);fill-opacity:1;" d="M 30.917969 5.773438 L 43.769531 5.773438 L 43.769531 3.59375 L 30.257812 3.59375 L 30.257812 5.113281 C 30.582031 5.203125 30.832031 5.453125 30.917969 5.773438 "/>
<path style=" stroke:none;fill-rule:nonzero;fill:rgb(78.431373%,14.509804%,14.509804%);fill-opacity:1;" d="M 30.257812 26.027344 L 30.257812 27.550781 L 44.074219 27.550781 L 44.074219 25.367188 L 30.917969 25.367188 C 30.832031 25.6875 30.582031 25.941406 30.257812 26.027344 "/>
<path style=" stroke:none;fill-rule:nonzero;fill:rgb(78.431373%,14.509804%,14.509804%);fill-opacity:1;" d="M 64.941406 15.597656 L 63.015625 15.597656 C 63.011719 16.609375 62.871094 17.539062 62.597656 18.390625 C 62.316406 19.253906 61.910156 20.007812 61.382812 20.648438 C 60.855469 21.289062 60.195312 21.792969 59.410156 22.152344 C 58.625 22.511719 57.726562 22.691406 56.714844 22.691406 L 53.308594 22.691406 L 53.308594 15.597656 L 51.449219 15.597656 C 51.359375 15.917969 51.109375 16.171875 50.789062 16.257812 L 50.789062 24.222656 C 51.109375 24.308594 51.359375 24.558594 51.449219 24.882812 L 57.09375 24.882812 C 58.375 24.882812 59.554688 24.65625 60.597656 24.214844 C 61.640625 23.773438 62.542969 23.140625 63.28125 22.335938 C 64.023438 21.53125 64.601562 20.542969 65 19.40625 C 65.332031 18.457031 65.519531 17.394531 65.578125 16.25 C 65.265625 16.15625 65.027344 15.910156 64.941406 15.597656 "/>
<path style=" stroke:none;fill-rule:nonzero;fill:rgb(78.431373%,14.509804%,14.509804%);fill-opacity:1;" d="M 50.304688 16.257812 C 49.980469 16.171875 49.730469 15.917969 49.644531 15.597656 L 47.78125 15.597656 L 47.78125 24.882812 L 49.644531 24.882812 C 49.730469 24.558594 49.980469 24.308594 50.304688 24.222656 L 50.304688 16.257812 "/>
<path style=" stroke:none;fill-rule:nonzero;fill:rgb(78.431373%,14.509804%,14.509804%);fill-opacity:1;" d="M 66.0625 16.265625 C 66.003906 17.457031 65.804688 18.570312 65.457031 19.566406 C 65.035156 20.765625 64.421875 21.808594 63.636719 22.664062 C 62.851562 23.519531 61.890625 24.191406 60.785156 24.660156 C 59.683594 25.128906 58.441406 25.367188 57.09375 25.367188 L 51.449219 25.367188 C 51.359375 25.6875 51.109375 25.941406 50.789062 26.027344 L 50.789062 27.550781 L 56.714844 27.550781 C 58.511719 27.550781 60.144531 27.261719 61.617188 26.6875 C 63.089844 26.113281 64.347656 25.304688 65.394531 24.257812 C 66.4375 23.214844 67.242188 21.953125 67.804688 20.480469 C 68.359375 19.023438 68.636719 17.394531 68.644531 15.597656 L 66.746094 15.597656 C 66.65625 15.929688 66.394531 16.1875 66.0625 16.265625 "/>
<path style=" stroke:none;fill-rule:nonzero;fill:rgb(78.431373%,14.509804%,14.509804%);fill-opacity:1;" d="M 49.644531 15.113281 C 49.730469 14.789062 49.980469 14.539062 50.304688 14.453125 L 50.304688 6.921875 C 49.980469 6.835938 49.730469 6.582031 49.644531 6.261719 L 47.78125 6.261719 L 47.78125 15.113281 L 49.644531 15.113281 "/>
<path style=" stroke:none;fill-rule:nonzero;fill:rgb(78.431373%,14.509804%,14.509804%);fill-opacity:1;" d="M 49.644531 25.367188 L 47.78125 25.367188 L 47.78125 27.550781 L 50.304688 27.550781 L 50.304688 26.027344 C 49.980469 25.941406 49.730469 25.6875 49.644531 25.367188 "/>
<path style=" stroke:none;fill-rule:nonzero;fill:rgb(78.431373%,14.509804%,14.509804%);fill-opacity:1;" d="M 50.304688 5.117188 L 50.304688 3.59375 L 47.78125 3.59375 L 47.78125 5.773438 L 49.644531 5.773438 C 49.730469 5.453125 49.980469 5.203125 50.304688 5.117188 "/>
<path style=" stroke:none;fill-rule:nonzero;fill:rgb(78.431373%,14.509804%,14.509804%);fill-opacity:1;" d="M 50.789062 14.453125 C 51.109375 14.539062 51.359375 14.789062 51.449219 15.113281 L 53.308594 15.113281 L 53.308594 8.453125 L 56.714844 8.453125 C 57.703125 8.453125 58.589844 8.621094 59.375 8.957031 C 60.164062 9.296875 60.828125 9.78125 61.367188 10.410156 C 61.90625 11.039062 62.316406 11.789062 62.597656 12.652344 C 62.839844 13.398438 62.96875 14.222656 63.003906 15.113281 L 64.941406 15.113281 C 65.027344 14.804688 65.253906 14.566406 65.554688 14.46875 C 65.480469 13.578125 65.316406 12.722656 65.058594 11.917969 C 64.699219 10.796875 64.15625 9.808594 63.449219 8.972656 C 62.742188 8.144531 61.851562 7.476562 60.800781 6.992188 C 59.75 6.507812 58.503906 6.261719 57.09375 6.261719 L 51.449219 6.261719 C 51.363281 6.582031 51.109375 6.835938 50.789062 6.921875 L 50.789062 14.453125 "/>
<path style=" stroke:none;fill-rule:nonzero;fill:rgb(78.431373%,14.509804%,14.509804%);fill-opacity:1;" d="M 51.445312 5.773438 L 57.09375 5.773438 C 58.574219 5.773438 59.886719 6.035156 61.003906 6.550781 C 62.117188 7.066406 63.0625 7.773438 63.816406 8.660156 C 64.570312 9.542969 65.140625 10.585938 65.519531 11.769531 C 65.789062 12.613281 65.960938 13.507812 66.039062 14.4375 C 66.382812 14.507812 66.65625 14.773438 66.746094 15.113281 L 68.644531 15.113281 C 68.605469 13.628906 68.347656 12.222656 67.886719 10.898438 C 67.382812 9.449219 66.628906 8.183594 65.628906 7.101562 C 64.628906 6.023438 63.386719 5.167969 61.90625 4.539062 C 60.421875 3.910156 58.691406 3.59375 56.714844 3.59375 L 50.789062 3.59375 L 50.789062 5.117188 C 51.109375 5.203125 51.359375 5.453125 51.445312 5.773438 "/>
<path style=" stroke:none;fill-rule:nonzero;fill:rgb(78.431373%,14.509804%,14.509804%);fill-opacity:1;" d="M 98.929688 25.367188 L 97.066406 25.367188 L 97.066406 27.550781 L 99.589844 27.550781 L 99.589844 26.027344 C 99.269531 25.941406 99.015625 25.6875 98.929688 25.367188 "/>
<path style=" stroke:none;fill-rule:nonzero;fill:rgb(78.431373%,14.509804%,14.509804%);fill-opacity:1;" d="M 99.589844 24.222656 L 99.589844 16.257812 C 99.269531 16.171875 99.015625 15.917969 98.929688 15.597656 L 97.066406 15.597656 L 97.066406 24.882812 L 98.929688 24.882812 C 99.015625 24.558594 99.269531 24.308594 99.589844 24.222656 "/>
<path style=" stroke:none;fill-rule:nonzero;fill:rgb(78.431373%,14.509804%,14.509804%);fill-opacity:1;" d="M 100.074219 26.027344 L 100.074219 27.550781 L 113.886719 27.550781 L 113.886719 25.367188 L 100.734375 25.367188 C 100.648438 25.6875 100.394531 25.941406 100.074219 26.027344 "/>
<path style=" stroke:none;fill-rule:nonzero;fill:rgb(78.431373%,14.509804%,14.509804%);fill-opacity:1;" d="M 100.074219 14.453125 C 100.394531 14.539062 100.648438 14.789062 100.734375 15.113281 L 112.035156 15.113281 L 112.035156 13.109375 L 102.597656 13.109375 L 102.597656 8.453125 L 113.585938 8.453125 L 113.585938 6.261719 L 100.734375 6.261719 C 100.648438 6.582031 100.394531 6.835938 100.074219 6.921875 L 100.074219 14.453125 "/>
<path style=" stroke:none;fill-rule:nonzero;fill:rgb(78.431373%,14.509804%,14.509804%);fill-opacity:1;" d="M 102.597656 22.691406 L 102.597656 17.597656 L 112.035156 17.597656 L 112.035156 15.597656 L 100.734375 15.597656 C 100.648438 15.917969 100.394531 16.171875 100.074219 16.257812 L 100.074219 24.222656 C 100.394531 24.308594 100.648438 24.558594 100.734375 24.882812 L 113.886719 24.882812 L 113.886719 22.691406 L 102.597656 22.691406 "/>
<path style=" stroke:none;fill-rule:nonzero;fill:rgb(78.431373%,14.509804%,14.509804%);fill-opacity:1;" d="M 99.589844 5.113281 L 99.589844 3.59375 L 97.066406 3.59375 L 97.066406 5.773438 L 98.929688 5.773438 C 99.015625 5.453125 99.269531 5.203125 99.589844 5.113281 "/>
<path style=" stroke:none;fill-rule:nonzero;fill:rgb(78.431373%,14.509804%,14.509804%);fill-opacity:1;" d="M 99.589844 14.453125 L 99.589844 6.921875 C 99.269531 6.835938 99.015625 6.582031 98.929688 6.261719 L 97.066406 6.261719 L 97.066406 15.113281 L 98.929688 15.113281 C 99.015625 14.789062 99.269531 14.539062 99.589844 14.453125 "/>
<path style=" stroke:none;fill-rule:nonzero;fill:rgb(78.431373%,14.509804%,14.509804%);fill-opacity:1;" d="M 100.734375 5.773438 L 113.585938 5.773438 L 113.585938 3.59375 L 100.074219 3.59375 L 100.074219 5.113281 C 100.394531 5.203125 100.648438 5.453125 100.734375 5.773438 "/>
<path style=" stroke:none;fill-rule:nonzero;fill:rgb(78.431373%,14.509804%,14.509804%);fill-opacity:1;" d="M 128.5625 5.773438 L 137.71875 5.773438 L 137.71875 3.59375 L 127.902344 3.59375 L 127.902344 5.113281 C 128.222656 5.203125 128.472656 5.453125 128.5625 5.773438 "/>
<path style=" stroke:none;fill-rule:nonzero;fill:rgb(78.431373%,14.509804%,14.509804%);fill-opacity:1;" d="M 127.414062 5.113281 L 127.414062 3.59375 L 117.597656 3.59375 L 117.597656 5.773438 L 126.757812 5.773438 C 126.84375 5.453125 127.09375 5.203125 127.414062 5.113281 "/>
<path style=" stroke:none;fill-rule:nonzero;fill:rgb(78.431373%,14.509804%,14.509804%);fill-opacity:1;" d="M 127.902344 6.921875 L 127.902344 14.453125 C 128.222656 14.539062 128.472656 14.789062 128.5625 15.113281 L 130.441406 15.113281 L 130.441406 8.453125 L 137.71875 8.453125 L 137.71875 6.261719 L 128.5625 6.261719 C 128.472656 6.582031 128.222656 6.835938 127.902344 6.921875 "/>
<path style=" stroke:none;fill-rule:nonzero;fill:rgb(78.431373%,14.509804%,14.509804%);fill-opacity:1;" d="M 127.414062 16.257812 C 127.09375 16.171875 126.84375 15.917969 126.757812 15.597656 L 124.910156 15.597656 L 124.910156 24.882812 L 126.757812 24.882812 C 126.84375 24.558594 127.09375 24.308594 127.414062 24.222656 L 127.414062 16.257812 "/>
<path style=" stroke:none;fill-rule:nonzero;fill:rgb(78.431373%,14.509804%,14.509804%);fill-opacity:1;" d="M 127.902344 26.027344 L 127.902344 27.550781 L 130.441406 27.550781 L 130.441406 25.367188 L 128.5625 25.367188 C 128.472656 25.6875 128.222656 25.941406 127.902344 26.027344 "/>
<path style=" stroke:none;fill-rule:nonzero;fill:rgb(78.431373%,14.509804%,14.509804%);fill-opacity:1;" d="M 126.757812 25.367188 L 124.910156 25.367188 L 124.910156 27.550781 L 127.414062 27.550781 L 127.414062 26.027344 C 127.09375 25.941406 126.84375 25.6875 126.757812 25.367188 "/>
<path style=" stroke:none;fill-rule:nonzero;fill:rgb(78.431373%,14.509804%,14.509804%);fill-opacity:1;" d="M 127.902344 16.257812 L 127.902344 24.222656 C 128.222656 24.308594 128.472656 24.558594 128.5625 24.882812 L 130.441406 24.882812 L 130.441406 15.597656 L 128.5625 15.597656 C 128.472656 15.917969 128.222656 16.171875 127.902344 16.257812 "/>
<path style=" stroke:none;fill-rule:nonzero;fill:rgb(78.431373%,14.509804%,14.509804%);fill-opacity:1;" d="M 124.910156 8.453125 L 124.910156 15.113281 L 126.757812 15.113281 C 126.84375 14.789062 127.09375 14.539062 127.414062 14.453125 L 127.414062 6.921875 C 127.09375 6.835938 126.84375 6.582031 126.757812 6.261719 L 117.597656 6.261719 L 117.597656 8.453125 L 124.910156 8.453125 "/>
<path style=" stroke:none;fill-rule:nonzero;fill:rgb(78.431373%,14.509804%,14.509804%);fill-opacity:1;" d="M 72.359375 15.113281 L 74.261719 15.113281 C 74.34375 14.804688 74.578125 14.558594 74.882812 14.464844 L 74.882812 6.910156 C 74.503906 6.789062 74.226562 6.4375 74.226562 6.019531 C 74.226562 5.597656 74.503906 5.246094 74.882812 5.128906 L 74.882812 3.59375 L 72.359375 3.59375 L 72.359375 15.113281 "/>
<path style=" stroke:none;fill-rule:nonzero;fill:rgb(78.431373%,14.509804%,14.509804%);fill-opacity:1;" d="M 74.261719 15.597656 L 72.359375 15.597656 L 72.359375 27.550781 L 74.882812 27.550781 L 74.882812 16.246094 C 74.578125 16.148438 74.34375 15.90625 74.261719 15.597656 "/>
<path style=" stroke:none;fill-rule:nonzero;fill:rgb(78.431373%,14.509804%,14.509804%);fill-opacity:1;" d="M 90.351562 14.453125 L 90.351562 3.59375 L 87.832031 3.59375 L 87.832031 15.113281 L 89.695312 15.113281 C 89.78125 14.789062 90.03125 14.539062 90.351562 14.453125 "/>
<path style=" stroke:none;fill-rule:nonzero;fill:rgb(78.431373%,14.509804%,14.509804%);fill-opacity:1;" d="M 87.832031 17.664062 L 76.675781 3.59375 L 75.367188 3.59375 L 75.367188 5.101562 C 75.785156 5.195312 76.101562 5.570312 76.101562 6.019531 C 76.101562 6.226562 76.03125 6.414062 75.917969 6.570312 L 90.214844 24.265625 C 90.257812 24.246094 90.304688 24.234375 90.351562 24.222656 L 90.351562 16.257812 C 90.03125 16.171875 89.78125 15.917969 89.695312 15.597656 L 87.832031 15.597656 L 87.832031 17.664062 "/>
<path style=" stroke:none;fill-rule:nonzero;fill:rgb(78.431373%,14.509804%,14.509804%);fill-opacity:1;" d="M 90.839844 16.257812 L 90.839844 24.222656 C 91.238281 24.328125 91.535156 24.691406 91.535156 25.125 C 91.535156 25.558594 91.238281 25.917969 90.839844 26.027344 L 90.839844 27.550781 L 93.359375 27.550781 L 93.359375 15.597656 L 91.5 15.597656 C 91.410156 15.917969 91.160156 16.171875 90.839844 16.257812 "/>
<path style=" stroke:none;fill-rule:nonzero;fill:rgb(78.431373%,14.509804%,14.509804%);fill-opacity:1;" d="M 93.359375 3.59375 L 90.839844 3.59375 L 90.839844 14.453125 C 91.160156 14.539062 91.410156 14.789062 91.5 15.113281 L 93.359375 15.113281 L 93.359375 3.59375 "/>
<path style=" stroke:none;fill-rule:nonzero;fill:rgb(78.431373%,14.509804%,14.509804%);fill-opacity:1;" d="M 89.660156 25.125 C 89.660156 24.917969 89.726562 24.726562 89.839844 24.574219 L 75.542969 6.875 C 75.484375 6.898438 75.425781 6.917969 75.367188 6.933594 L 75.367188 14.441406 C 75.707031 14.515625 75.976562 14.777344 76.066406 15.113281 L 77.886719 15.113281 L 77.886719 13.851562 L 88.910156 27.550781 L 90.351562 27.550781 L 90.351562 26.027344 C 89.953125 25.917969 89.660156 25.558594 89.660156 25.125 "/>
<path style=" stroke:none;fill-rule:nonzero;fill:rgb(78.431373%,14.509804%,14.509804%);fill-opacity:1;" d="M 75.367188 16.269531 L 75.367188 27.550781 L 77.886719 27.550781 L 77.886719 15.597656 L 76.066406 15.597656 C 75.976562 15.933594 75.707031 16.195312 75.367188 16.269531 "/>
</g>
</svg>
