<?xml version="1.0" encoding="utf-8"?>
<!-- Generator: Adobe Illustrator 26.0.1, SVG Export Plug-In . SVG Version: 6.00 Build 0)  -->
<svg version="1.1" id="Warstwa_1" xmlns="http://www.w3.org/2000/svg" xmlns:xlink="http://www.w3.org/1999/xlink" x="0px" y="0px"
	 viewBox="0 0 183 45" style="enable-background:new 0 0 183 45;" xml:space="preserve">
<style type="text/css">
	.st0{fill:#060607;}
</style>
<g id="surface1">
	<path class="st0" d="M149.7,21.3c0.4-0.4,0.8-0.8,1.4-1.1c0.5-0.4,1.1-0.7,1.8-1.1c0.7-0.4,1.4-0.8,2.3-1.2
		c0.6-0.3,1.2-0.7,1.9-1.2c0.6-0.4,1.2-0.9,1.8-1.5s1-1.2,1.3-2c0.4-0.7,0.5-1.6,0.5-2.6c0-1.4-0.3-2.6-1-3.7c-0.7-1-1.7-1.9-3-2.5
		c-1.3-0.6-2.9-0.9-4.7-0.9c-1.2,0-2.4,0.1-3.4,0.4c-1.1,0.3-2.1,0.6-2.9,1c-0.9,0.4-1.6,0.8-2.3,1.3c-0.6,0.4-1.1,0.9-1.5,1.2
		l3.5,4c0.3-0.4,0.7-0.8,1.1-1.2s0.8-0.7,1.3-1c0.5-0.3,1-0.5,1.5-0.7c0.6-0.2,1.2-0.2,1.8-0.2c0.8,0,1.5,0.1,2,0.4s1,0.7,1.3,1.1
		c0.3,0.5,0.4,1,0.4,1.5c0,0.5-0.1,1-0.4,1.4c-0.3,0.4-0.7,0.8-1.3,1.2c-0.6,0.4-1.3,0.8-2.1,1.3c-0.8,0.5-1.8,1-2.9,1.6
		c-1.3,0.7-2.3,1.5-3.2,2.2c-0.8,0.8-1.5,1.6-2,2.4c-0.5,0.9-0.8,1.8-1,2.8c0,0.2-0.1,0.4-0.1,0.7h15.7c0.1-0.3,0.4-0.6,0.7-0.7
		v-1.6h-9.4C148.9,22.1,149.3,21.7,149.7,21.3"/>
	<path class="st0" d="M157.3,25.4h-15.8c-0.1,0.7-0.1,1.4-0.1,2.2H158V26C157.7,26,157.4,25.7,157.3,25.4"/>
	<path class="st0" d="M175.7,22.7V5h-2.5v19.2c0.3,0.1,0.6,0.3,0.6,0.7h5.5v-2.2H175.7"/>
	<path class="st0" d="M172,25.4h-12.9c-0.1,0.3-0.4,0.6-0.7,0.7v1.6h11.8v5.5h2.5V26C172.4,25.9,172.1,25.7,172,25.4"/>
	<path class="st0" d="M173.2,26v7.1h2.5v-5.5h3.6v-2.2h-5.5C173.7,25.7,173.5,25.9,173.2,26"/>
	<path class="st0" d="M170.2,13.4v9.3h-7.1L170.2,13.4L170.2,13.4z M158.4,22.4v1.8c0.3,0.1,0.6,0.3,0.7,0.7H172
		c0.1-0.3,0.3-0.6,0.7-0.7V5h-0.8L158.4,22.4"/>
	<path class="st0" d="M28.6,36.9h0.9c0.6,0,1.1-0.1,1.3-0.3c0.3-0.2,0.4-0.6,0.4-1c0-0.5-0.1-0.8-0.4-1c-0.3-0.2-0.8-0.3-1.4-0.3
		h-0.9V36.9z M28.6,38v3.3h-1.3v-8.2h2.3c1.1,0,1.8,0.2,2.3,0.6c0.5,0.4,0.8,1,0.8,1.8c0,1-0.5,1.7-1.6,2.2l2.3,3.6h-1.5L29.9,38
		H28.6"/>
	<path class="st0" d="M39.1,41.3h-4.6v-8.2h4.6v1.1h-3.3v2.2h3.1v1.1h-3.1v2.6h3.3V41.3"/>
	<path class="st0" d="M44.8,37.9L44,35.7c-0.1-0.1-0.1-0.4-0.2-0.7c-0.1-0.3-0.2-0.6-0.2-0.7c-0.1,0.5-0.2,1-0.4,1.5l-0.7,2.1H44.8z
		 M45.9,41.3L45.1,39H42l-0.8,2.3h-1.4l3-8.2h1.4l3.1,8.2H45.9"/>
	<path class="st0" d="M48.4,41.3v-8.2h1.3v7h3.4v1.1H48.4"/>
	<path class="st0" d="M62.2,41.3h-4.6v-8.2h4.6v1.1h-3.3v2.2H62v1.1h-3.1v2.6h3.3V41.3"/>
	<path class="st0" d="M68.7,39.1c0,0.7-0.3,1.3-0.8,1.7c-0.5,0.4-1.2,0.6-2.2,0.6S64,41.3,63.4,41v-1.3c0.4,0.2,0.8,0.3,1.2,0.4
		s0.8,0.2,1.2,0.2c0.5,0,0.9-0.1,1.2-0.3c0.2-0.2,0.4-0.5,0.4-0.8c0-0.3-0.1-0.6-0.3-0.8s-0.7-0.5-1.4-0.8c-0.7-0.3-1.3-0.6-1.6-1
		s-0.5-0.9-0.5-1.4c0-0.7,0.2-1.2,0.7-1.6c0.5-0.4,1.1-0.6,1.9-0.6c0.8,0,1.6,0.2,2.3,0.5l-0.4,1.1c-0.7-0.3-1.4-0.5-1.9-0.5
		c-0.4,0-0.8,0.1-1,0.3s-0.3,0.4-0.3,0.7c0,0.2,0,0.4,0.1,0.5c0.1,0.1,0.2,0.3,0.4,0.4c0.2,0.1,0.6,0.3,1.1,0.5
		c0.6,0.2,1,0.5,1.3,0.7c0.3,0.2,0.5,0.5,0.6,0.7C68.6,38.4,68.7,38.7,68.7,39.1"/>
	<path class="st0" d="M73,41.3h-1.3v-7h-2.4v-1.1h6.1v1.1H73V41.3"/>
	<path class="st0" d="M80.6,37.9l-0.8-2.2c-0.1-0.1-0.1-0.4-0.2-0.7s-0.2-0.6-0.2-0.7c-0.1,0.5-0.2,1-0.4,1.5l-0.7,2.1H80.6z
		 M81.7,41.3L80.9,39h-3.1L77,41.3h-1.4l3.1-8.2h1.4l3,8.2H81.7"/>
	<path class="st0" d="M87.1,41.3h-1.3v-7h-2.4v-1.1h6.1v1.1h-2.4V41.3"/>
	<path class="st0" d="M95.3,41.3h-4.6v-8.2h4.6v1.1H92v2.2h3.1v1.1H92v2.6h3.3V41.3"/>
	<path class="st0" d="M101.4,37.1h0.7c0.7,0,1.2-0.1,1.5-0.4s0.5-0.6,0.5-1.1c0-0.5-0.1-0.8-0.4-1s-0.7-0.3-1.3-0.3h-0.9V37.1z
		 M105.4,35.6c0,0.9-0.3,1.5-0.8,2s-1.4,0.7-2.4,0.7h-0.8v3.1H100v-8.2h2.3c1,0,1.8,0.2,2.3,0.6C105.2,34.2,105.4,34.8,105.4,35.6"
		/>
	<path class="st0" d="M110.9,37.9l-0.8-2.2c-0.1-0.1-0.1-0.4-0.2-0.7s-0.2-0.6-0.2-0.7c-0.1,0.5-0.2,1-0.4,1.5l-0.7,2.1H110.9z
		 M112.1,41.3l-0.8-2.3h-3.1l-0.8,2.3H106l3-8.2h1.4l3.1,8.2H112.1"/>
	<path class="st0" d="M115.9,36.9h0.9c0.6,0,1.1-0.1,1.3-0.3c0.3-0.2,0.4-0.6,0.4-1c0-0.5-0.1-0.8-0.4-1c-0.3-0.2-0.8-0.3-1.4-0.3
		h-0.9V36.9z M115.9,38v3.3h-1.3v-8.2h2.3c1.1,0,1.8,0.2,2.3,0.6c0.5,0.4,0.8,1,0.8,1.8c0,1-0.5,1.7-1.6,2.2l2.3,3.6h-1.5l-1.9-3.3
		H115.9"/>
	<path class="st0" d="M124.7,41.3h-1.3v-7H121v-1.1h6.1v1.1h-2.4V41.3"/>
	<path class="st0" d="M135.1,41.3h-1.6l-4-6.5h0l0,0.4c0.1,0.7,0.1,1.3,0.1,1.9v4.2h-1.2v-8.2h1.6l4,6.5h0c0-0.1,0-0.4,0-0.9
		c0-0.5,0-1,0-1.3v-4.3h1.2V41.3"/>
	<path class="st0" d="M141.9,41.3h-4.6v-8.2h4.6v1.1h-3.3v2.2h3.1v1.1h-3.1v2.6h3.3V41.3"/>
	<path class="st0" d="M145,36.9h0.9c0.6,0,1.1-0.1,1.3-0.3c0.3-0.2,0.4-0.6,0.4-1c0-0.5-0.2-0.8-0.5-1c-0.3-0.2-0.8-0.3-1.4-0.3H145
		V36.9z M145,38v3.3h-1.3v-8.2h2.3c1.1,0,1.8,0.2,2.3,0.6c0.5,0.4,0.8,1,0.8,1.8c0,1-0.5,1.7-1.6,2.2l2.3,3.6h-1.5l-2-3.3H145"/>
	<path class="st0" d="M155.7,39.1c0,0.7-0.3,1.3-0.8,1.7c-0.5,0.4-1.2,0.6-2.2,0.6s-1.7-0.1-2.3-0.4v-1.3c0.4,0.2,0.8,0.3,1.2,0.4
		s0.8,0.2,1.2,0.2c0.5,0,0.9-0.1,1.2-0.3c0.2-0.2,0.4-0.5,0.4-0.8c0-0.3-0.1-0.6-0.3-0.8s-0.7-0.5-1.4-0.8c-0.7-0.3-1.3-0.6-1.6-1
		s-0.5-0.9-0.5-1.4c0-0.7,0.2-1.2,0.7-1.6c0.5-0.4,1.1-0.6,1.9-0.6c0.8,0,1.6,0.2,2.3,0.5l-0.4,1.1c-0.7-0.3-1.4-0.5-1.9-0.5
		c-0.4,0-0.8,0.1-1,0.3c-0.2,0.2-0.3,0.4-0.3,0.7c0,0.2,0,0.4,0.1,0.5c0.1,0.1,0.2,0.3,0.4,0.4s0.6,0.3,1.1,0.5
		c0.6,0.2,1,0.5,1.3,0.7s0.5,0.5,0.6,0.7C155.6,38.4,155.7,38.7,155.7,39.1"/>
	<path class="st0" d="M18.3,18.6c0.6-0.3,1.2-0.7,1.6-1.2s0.9-1,1.2-1.6c0.3-0.6,0.6-1.3,0.8-1.9c0.2-0.7,0.3-1.4,0.3-2.1
		c0-1-0.2-2-0.6-2.9c-0.4-0.9-0.9-1.8-1.5-2.5h-3c0,0,0,0.1,0,0.1c0.4,0.3,0.8,0.6,1.2,1c1,1.1,1.5,2.5,1.5,4.3
		c0,1.8-0.4,3.2-1.3,4.4c-0.8,1.1-1.7,1.6-2.8,1.7c0,0.2-0.1,0.3-0.3,0.4l5.5,9.3h2.8L18.3,18.6"/>
	<path class="st0" d="M14.6,18.5c-0.4,0-0.8-0.3-0.9-0.7H7.3c-0.1,0.3-0.3,0.6-0.7,0.7v9.1h2.5v-7.7h3.6l4.6,7.7h2.9l-5.3-9
		C14.8,18.5,14.7,18.5,14.6,18.5"/>
	<path class="st0" d="M7.3,5.8h8c0.1-0.4,0.5-0.7,0.9-0.7s0.8,0.3,0.9,0.7h2.6c-0.6-0.6-1.3-1.1-2.1-1.5c-1-0.5-2-0.7-3.1-0.7H6.6
		v1.5C6.9,5.2,7.2,5.5,7.3,5.8"/>
	<path class="st0" d="M9.1,8.5H14c0.6,0,1.2,0.3,1.8,0.9c0.5,0.6,0.8,1.4,0.8,2.4c0,1-0.2,1.8-0.7,2.4c-0.5,0.6-1,0.9-1.7,0.9H9.1
		V8.5z M7.3,17.4h6.5c0.1-0.4,0.5-0.7,0.9-0.7c0.4,0,0.8,0.3,0.9,0.7c0.9-0.1,1.7-0.6,2.5-1.5c0.8-1,1.2-2.4,1.2-4.1
		c0-1.7-0.5-3-1.4-4c-0.4-0.4-0.7-0.7-1.1-1C16.5,6.9,16.3,7,16.1,7c-0.4,0-0.8-0.3-0.9-0.7c-0.1,0-0.2,0-0.3,0H7.3
		C7.2,6.6,6.9,6.8,6.6,6.9v9.8C6.9,16.8,7.2,17,7.3,17.4"/>
	<path class="st0" d="M6.1,18.5c-0.4-0.1-0.7-0.5-0.7-0.9s0.3-0.8,0.7-0.9V6.9C5.7,6.8,5.4,6.5,5.4,6c0-0.4,0.3-0.8,0.7-0.9V3.6H3.6
		v24h2.5V18.5"/>
	<path class="st0" d="M29.8,14.5V6.9c-0.3-0.1-0.6-0.3-0.7-0.7h-1.9v8.9h1.9C29.2,14.8,29.5,14.5,29.8,14.5"/>
	<path class="st0" d="M30.3,14.5c0.3,0.1,0.6,0.3,0.7,0.7h11.3v-2h-9.4V8.5h11V6.3H30.9c-0.1,0.3-0.3,0.6-0.7,0.7V14.5"/>
	<path class="st0" d="M29.8,24.2v-8c-0.3-0.1-0.6-0.3-0.7-0.7h-1.9v9.3h1.9C29.2,24.6,29.5,24.3,29.8,24.2"/>
	<path class="st0" d="M29.8,5.1V3.6h-2.5v2.2h1.9C29.2,5.5,29.5,5.2,29.8,5.1"/>
	<path class="st0" d="M29.1,25.4h-1.9v2.2h2.5V26C29.5,25.9,29.2,25.7,29.1,25.4"/>
	<path class="st0" d="M32.8,22.7v-5.1h9.4v-2H30.9c-0.1,0.3-0.3,0.6-0.7,0.7v8c0.3,0.1,0.6,0.3,0.7,0.7h13.2v-2.2H32.8"/>
	<path class="st0" d="M30.9,5.8h12.9V3.6H30.3v1.5C30.6,5.2,30.8,5.5,30.9,5.8"/>
	<path class="st0" d="M30.3,26v1.5h13.8v-2.2H30.9C30.8,25.7,30.6,25.9,30.3,26"/>
	<path class="st0" d="M64.9,15.6H63c0,1-0.1,1.9-0.4,2.8c-0.3,0.9-0.7,1.6-1.2,2.3s-1.2,1.1-2,1.5s-1.7,0.5-2.7,0.5h-3.4v-7.1h-1.9
		c-0.1,0.3-0.3,0.6-0.7,0.7v8c0.3,0.1,0.6,0.3,0.7,0.7h5.6c1.3,0,2.5-0.2,3.5-0.7s1.9-1.1,2.7-1.9c0.7-0.8,1.3-1.8,1.7-2.9
		c0.3-0.9,0.5-2,0.6-3.2C65.3,16.2,65,15.9,64.9,15.6"/>
	<path class="st0" d="M50.3,16.3c-0.3-0.1-0.6-0.3-0.7-0.7h-1.9v9.3h1.9c0.1-0.3,0.3-0.6,0.7-0.7V16.3"/>
	<path class="st0" d="M66.1,16.3c-0.1,1.2-0.3,2.3-0.6,3.3c-0.4,1.2-1,2.2-1.8,3.1s-1.7,1.5-2.9,2c-1.1,0.5-2.3,0.7-3.7,0.7h-5.6
		c-0.1,0.3-0.3,0.6-0.7,0.7v1.5h5.9c1.8,0,3.4-0.3,4.9-0.9s2.7-1.4,3.8-2.4c1-1,1.8-2.3,2.4-3.8c0.6-1.5,0.8-3.1,0.8-4.9h-1.9
		C66.7,15.9,66.4,16.2,66.1,16.3"/>
	<path class="st0" d="M49.6,15.1c0.1-0.3,0.3-0.6,0.7-0.7V6.9c-0.3-0.1-0.6-0.3-0.7-0.7h-1.9v8.9H49.6"/>
	<path class="st0" d="M49.6,25.4h-1.9v2.2h2.5V26C50,25.9,49.7,25.7,49.6,25.4"/>
	<path class="st0" d="M50.3,5.1V3.6h-2.5v2.2h1.9C49.7,5.5,50,5.2,50.3,5.1"/>
	<path class="st0" d="M50.8,14.5c0.3,0.1,0.6,0.3,0.7,0.7h1.9V8.5h3.4c1,0,1.9,0.2,2.7,0.5c0.8,0.3,1.5,0.8,2,1.5
		c0.5,0.6,0.9,1.4,1.2,2.2c0.2,0.7,0.4,1.6,0.4,2.5h1.9c0.1-0.3,0.3-0.5,0.6-0.6c-0.1-0.9-0.2-1.7-0.5-2.6c-0.4-1.1-0.9-2.1-1.6-2.9
		c-0.7-0.8-1.6-1.5-2.6-2c-1.1-0.5-2.3-0.7-3.7-0.7h-5.6c-0.1,0.3-0.3,0.6-0.7,0.7V14.5"/>
	<path class="st0" d="M51.4,5.8h5.6c1.5,0,2.8,0.3,3.9,0.8c1.1,0.5,2.1,1.2,2.8,2.1c0.8,0.9,1.3,1.9,1.7,3.1
		c0.3,0.8,0.4,1.7,0.5,2.7c0.3,0.1,0.6,0.3,0.7,0.7h1.9c0-1.5-0.3-2.9-0.8-4.2c-0.5-1.4-1.3-2.7-2.3-3.8c-1-1.1-2.2-1.9-3.7-2.6
		c-1.5-0.6-3.2-0.9-5.2-0.9h-5.9v1.5C51.1,5.2,51.4,5.5,51.4,5.8"/>
	<path class="st0" d="M98.9,25.4h-1.9v2.2h2.5V26C99.3,25.9,99,25.7,98.9,25.4"/>
	<path class="st0" d="M99.6,24.2v-8c-0.3-0.1-0.6-0.3-0.7-0.7h-1.9v9.3h1.9C99,24.6,99.3,24.3,99.6,24.2"/>
	<path class="st0" d="M100.1,26v1.5h13.8v-2.2h-13.2C100.6,25.7,100.4,25.9,100.1,26"/>
	<path class="st0" d="M100.1,14.5c0.3,0.1,0.6,0.3,0.7,0.7H112v-2h-9.4V8.5h11V6.3h-12.9c-0.1,0.3-0.3,0.6-0.7,0.7V14.5"/>
	<path class="st0" d="M102.6,22.7v-5.1h9.4v-2h-11.3c-0.1,0.3-0.3,0.6-0.7,0.7v8c0.3,0.1,0.6,0.3,0.7,0.7h13.2v-2.2H102.6"/>
	<path class="st0" d="M99.6,5.1V3.6h-2.5v2.2h1.9C99,5.5,99.3,5.2,99.6,5.1"/>
	<path class="st0" d="M99.6,14.5V6.9c-0.3-0.1-0.6-0.3-0.7-0.7h-1.9v8.9h1.9C99,14.8,99.3,14.5,99.6,14.5"/>
	<path class="st0" d="M100.7,5.8h12.9V3.6h-13.5v1.5C100.4,5.2,100.6,5.5,100.7,5.8"/>
	<path class="st0" d="M128.6,5.8h9.2V3.6h-9.8v1.5C128.2,5.2,128.5,5.5,128.6,5.8"/>
	<path class="st0" d="M127.4,5.1V3.6h-9.8v2.2h9.2C126.8,5.5,127.1,5.2,127.4,5.1"/>
	<path class="st0" d="M127.9,6.9v7.5c0.3,0.1,0.6,0.3,0.7,0.7h1.9V8.5h7.3V6.3h-9.2C128.5,6.6,128.2,6.8,127.9,6.9"/>
	<path class="st0" d="M127.4,16.3c-0.3-0.1-0.6-0.3-0.7-0.7h-1.8v9.3h1.8c0.1-0.3,0.3-0.6,0.7-0.7V16.3"/>
	<path class="st0" d="M127.9,26v1.5h2.5v-2.2h-1.9C128.5,25.7,128.2,25.9,127.9,26"/>
	<path class="st0" d="M126.8,25.4h-1.8v2.2h2.5V26C127.1,25.9,126.8,25.7,126.8,25.4"/>
	<path class="st0" d="M127.9,16.3v8c0.3,0.1,0.6,0.3,0.7,0.7h1.9v-9.3h-1.9C128.5,15.9,128.2,16.2,127.9,16.3"/>
	<path class="st0" d="M124.9,8.5v6.7h1.8c0.1-0.3,0.3-0.6,0.7-0.7V6.9c-0.3-0.1-0.6-0.3-0.7-0.7h-9.2v2.2H124.9"/>
	<path class="st0" d="M72.4,15.1h1.9c0.1-0.3,0.3-0.6,0.6-0.6V6.9c-0.4-0.1-0.7-0.5-0.7-0.9c0-0.4,0.3-0.8,0.7-0.9V3.6h-2.5V15.1"/>
	<path class="st0" d="M74.3,15.6h-1.9v12h2.5V16.2C74.6,16.1,74.3,15.9,74.3,15.6"/>
	<path class="st0" d="M90.4,14.5V3.6h-2.5v11.5h1.9C89.8,14.8,90,14.5,90.4,14.5"/>
	<path class="st0" d="M87.8,17.7L76.7,3.6h-1.3v1.5c0.4,0.1,0.7,0.5,0.7,0.9c0,0.2-0.1,0.4-0.2,0.6l14.3,17.7c0,0,0.1,0,0.1,0v-8
		c-0.3-0.1-0.6-0.3-0.7-0.7h-1.9V17.7"/>
	<path class="st0" d="M90.8,16.3v8c0.4,0.1,0.7,0.5,0.7,0.9s-0.3,0.8-0.7,0.9v1.5h2.5v-12h-1.9C91.4,15.9,91.2,16.2,90.8,16.3"/>
	<path class="st0" d="M93.4,3.6h-2.5v10.9c0.3,0.1,0.6,0.3,0.7,0.7h1.9V3.6"/>
	<path class="st0" d="M89.7,25.1c0-0.2,0.1-0.4,0.2-0.6L75.5,6.9c-0.1,0-0.1,0-0.2,0.1v7.5c0.3,0.1,0.6,0.3,0.7,0.7h1.8v-1.3
		l11,13.7h1.4V26C90,25.9,89.7,25.6,89.7,25.1"/>
	<path class="st0" d="M75.4,16.3v11.3h2.5v-12h-1.8C76,15.9,75.7,16.2,75.4,16.3"/>
</g>
</svg>
