<?xml version="1.0" encoding="UTF-8"?>
<svg xmlns="http://www.w3.org/2000/svg" xmlns:xlink="http://www.w3.org/1999/xlink" width="141px" height="45px" viewBox="0 0 141 45" version="1.1">
<g id="surface1">
<path style=" stroke:none;fill-rule:nonzero;fill:rgb(78.431373%,14.509804%,14.509804%);fill-opacity:1;" d="M 62.863281 37.191406 C 62.863281 35.242188 61.953125 34.265625 60.136719 34.265625 L 58.984375 34.265625 L 58.984375 40.175781 L 59.929688 40.175781 C 61.886719 40.175781 62.863281 39.179688 62.863281 37.191406 Z M 64.265625 37.144531 C 64.265625 38.488281 63.890625 39.519531 63.148438 40.230469 C 62.402344 40.941406 61.332031 41.296875 59.929688 41.296875 L 57.65625 41.296875 L 57.65625 33.152344 L 60.167969 33.152344 C 61.460938 33.152344 62.46875 33.5 63.1875 34.199219 C 63.90625 34.898438 64.265625 35.878906 64.265625 37.144531 "/>
<path style=" stroke:none;fill-rule:nonzero;fill:rgb(78.431373%,14.509804%,14.509804%);fill-opacity:1;" d="M 67.078125 37.210938 C 67.078125 38.214844 67.28125 38.976562 67.683594 39.492188 C 68.085938 40.011719 68.6875 40.269531 69.480469 40.269531 C 70.269531 40.269531 70.863281 40.015625 71.265625 39.5 C 71.667969 38.988281 71.867188 38.226562 71.867188 37.210938 C 71.867188 36.214844 71.667969 35.457031 71.269531 34.9375 C 70.871094 34.421875 70.277344 34.164062 69.488281 34.164062 C 68.691406 34.164062 68.09375 34.421875 67.6875 34.9375 C 67.28125 35.457031 67.078125 36.214844 67.078125 37.210938 Z M 73.28125 37.210938 C 73.28125 38.539062 72.949219 39.570312 72.289062 40.304688 C 71.625 41.039062 70.691406 41.40625 69.480469 41.40625 C 68.253906 41.40625 67.308594 41.042969 66.652344 40.3125 C 65.996094 39.582031 65.667969 38.546875 65.667969 37.203125 C 65.667969 35.855469 65.996094 34.824219 66.660156 34.105469 C 67.320312 33.382812 68.261719 33.023438 69.488281 33.023438 C 70.699219 33.023438 71.632812 33.390625 72.292969 34.121094 C 72.949219 34.851562 73.28125 35.882812 73.28125 37.210938 "/>
<path style=" stroke:none;fill-rule:nonzero;fill:rgb(78.431373%,14.509804%,14.509804%);fill-opacity:1;" d="M 78.59375 41.296875 L 76.238281 34.492188 L 76.195312 34.492188 C 76.257812 35.503906 76.289062 36.449219 76.289062 37.335938 L 76.289062 41.296875 L 75.082031 41.296875 L 75.082031 33.152344 L 76.953125 33.152344 L 79.210938 39.628906 L 79.246094 39.628906 L 81.566406 33.152344 L 83.445312 33.152344 L 83.445312 41.296875 L 82.167969 41.296875 L 82.167969 37.269531 C 82.167969 36.863281 82.175781 36.335938 82.199219 35.6875 C 82.21875 35.035156 82.238281 34.640625 82.25 34.503906 L 82.207031 34.503906 L 79.765625 41.296875 L 78.59375 41.296875 "/>
<path style=" stroke:none;fill-rule:nonzero;fill:rgb(78.431373%,14.509804%,14.509804%);fill-opacity:1;" d="M 18.257812 18.640625 C 18.863281 18.304688 19.410156 17.894531 19.890625 17.410156 C 20.375 16.925781 20.785156 16.382812 21.121094 15.773438 C 21.457031 15.167969 21.714844 14.519531 21.894531 13.835938 C 22.074219 13.148438 22.164062 12.433594 22.164062 11.691406 C 22.164062 10.703125 21.96875 9.722656 21.574219 8.757812 C 21.199219 7.832031 20.679688 7 20.027344 6.261719 L 16.996094 6.261719 C 16.984375 6.308594 16.972656 6.355469 16.953125 6.398438 C 17.359375 6.65625 17.757812 6.988281 18.136719 7.40625 C 19.117188 8.484375 19.613281 9.945312 19.613281 11.75 C 19.613281 13.507812 19.179688 14.972656 18.328125 16.101562 C 17.535156 17.15625 16.582031 17.726562 15.5 17.820312 C 15.457031 17.996094 15.371094 18.148438 15.246094 18.269531 L 20.71875 27.550781 L 23.511719 27.550781 L 18.257812 18.640625 "/>
<path style=" stroke:none;fill-rule:nonzero;fill:rgb(78.431373%,14.509804%,14.509804%);fill-opacity:1;" d="M 14.59375 18.535156 C 14.160156 18.535156 13.800781 18.242188 13.695312 17.839844 L 7.242188 17.839844 C 7.15625 18.160156 6.90625 18.414062 6.585938 18.5 L 6.585938 27.550781 L 9.105469 27.550781 L 9.105469 19.824219 L 12.707031 19.824219 L 17.285156 27.550781 L 20.15625 27.550781 L 14.824219 18.503906 C 14.75 18.523438 14.671875 18.535156 14.59375 18.535156 "/>
<path style=" stroke:none;fill-rule:nonzero;fill:rgb(78.431373%,14.509804%,14.509804%);fill-opacity:1;" d="M 7.242188 5.773438 L 15.195312 5.773438 C 15.304688 5.375 15.664062 5.078125 16.097656 5.078125 C 16.527344 5.078125 16.890625 5.375 16.996094 5.773438 L 19.558594 5.773438 C 18.949219 5.1875 18.253906 4.691406 17.46875 4.304688 C 16.515625 3.832031 15.476562 3.59375 14.355469 3.59375 L 6.585938 3.59375 L 6.585938 5.113281 C 6.90625 5.203125 7.15625 5.453125 7.242188 5.773438 "/>
<path style=" stroke:none;fill-rule:nonzero;fill:rgb(78.431373%,14.509804%,14.509804%);fill-opacity:1;" d="M 9.105469 8.453125 L 13.984375 8.453125 C 14.613281 8.453125 15.195312 8.746094 15.734375 9.332031 C 16.273438 9.914062 16.542969 10.703125 16.542969 11.691406 C 16.542969 12.660156 16.308594 13.453125 15.835938 14.070312 C 15.363281 14.6875 14.804688 15 14.152344 15 L 9.105469 15 Z M 7.242188 17.355469 L 13.695312 17.355469 C 13.800781 16.957031 14.160156 16.660156 14.59375 16.660156 C 15.019531 16.660156 15.375 16.945312 15.488281 17.335938 C 16.425781 17.25 17.230469 16.75 17.941406 15.808594 C 18.730469 14.765625 19.128906 13.398438 19.128906 11.75 C 19.128906 10.070312 18.675781 8.71875 17.777344 7.734375 C 17.410156 7.332031 17.03125 7.015625 16.640625 6.777344 C 16.488281 6.890625 16.300781 6.957031 16.097656 6.957031 C 15.671875 6.957031 15.316406 6.667969 15.203125 6.28125 C 15.097656 6.269531 14.996094 6.261719 14.890625 6.261719 L 7.242188 6.261719 C 7.15625 6.582031 6.90625 6.835938 6.585938 6.921875 L 6.585938 16.695312 C 6.90625 16.78125 7.15625 17.035156 7.242188 17.355469 "/>
<path style=" stroke:none;fill-rule:nonzero;fill:rgb(78.431373%,14.509804%,14.509804%);fill-opacity:1;" d="M 6.101562 18.5 C 5.703125 18.394531 5.40625 18.03125 5.40625 17.597656 C 5.40625 17.164062 5.703125 16.804688 6.101562 16.695312 L 6.101562 6.921875 C 5.703125 6.8125 5.40625 6.453125 5.40625 6.019531 C 5.40625 5.585938 5.703125 5.222656 6.101562 5.113281 L 6.101562 3.59375 L 3.585938 3.59375 L 3.585938 27.550781 L 6.101562 27.550781 L 6.101562 18.5 "/>
<path style=" stroke:none;fill-rule:nonzero;fill:rgb(78.431373%,14.509804%,14.509804%);fill-opacity:1;" d="M 29.730469 14.453125 L 29.730469 6.921875 C 29.410156 6.835938 29.160156 6.582031 29.074219 6.261719 L 27.214844 6.261719 L 27.214844 15.113281 L 29.074219 15.113281 C 29.160156 14.789062 29.410156 14.539062 29.730469 14.453125 "/>
<path style=" stroke:none;fill-rule:nonzero;fill:rgb(78.431373%,14.509804%,14.509804%);fill-opacity:1;" d="M 30.214844 14.453125 C 30.535156 14.539062 30.789062 14.789062 30.875 15.113281 L 42.15625 15.113281 L 42.15625 13.109375 L 32.734375 13.109375 L 32.734375 8.453125 L 43.707031 8.453125 L 43.707031 6.261719 L 30.875 6.261719 C 30.789062 6.582031 30.535156 6.835938 30.214844 6.921875 L 30.214844 14.453125 "/>
<path style=" stroke:none;fill-rule:nonzero;fill:rgb(78.431373%,14.509804%,14.509804%);fill-opacity:1;" d="M 29.730469 24.222656 L 29.730469 16.257812 C 29.410156 16.171875 29.160156 15.917969 29.074219 15.597656 L 27.214844 15.597656 L 27.214844 24.882812 L 29.074219 24.882812 C 29.160156 24.558594 29.410156 24.308594 29.730469 24.222656 "/>
<path style=" stroke:none;fill-rule:nonzero;fill:rgb(78.431373%,14.509804%,14.509804%);fill-opacity:1;" d="M 29.730469 5.113281 L 29.730469 3.59375 L 27.214844 3.59375 L 27.214844 5.773438 L 29.074219 5.773438 C 29.160156 5.453125 29.410156 5.203125 29.730469 5.113281 "/>
<path style=" stroke:none;fill-rule:nonzero;fill:rgb(78.431373%,14.509804%,14.509804%);fill-opacity:1;" d="M 29.074219 25.367188 L 27.214844 25.367188 L 27.214844 27.550781 L 29.730469 27.550781 L 29.730469 26.027344 C 29.410156 25.941406 29.160156 25.6875 29.074219 25.367188 "/>
<path style=" stroke:none;fill-rule:nonzero;fill:rgb(78.431373%,14.509804%,14.509804%);fill-opacity:1;" d="M 32.734375 22.691406 L 32.734375 17.597656 L 42.15625 17.597656 L 42.15625 15.597656 L 30.875 15.597656 C 30.789062 15.917969 30.535156 16.171875 30.214844 16.257812 L 30.214844 24.222656 C 30.535156 24.308594 30.789062 24.558594 30.875 24.882812 L 44.007812 24.882812 L 44.007812 22.691406 L 32.734375 22.691406 "/>
<path style=" stroke:none;fill-rule:nonzero;fill:rgb(78.431373%,14.509804%,14.509804%);fill-opacity:1;" d="M 30.875 5.773438 L 43.707031 5.773438 L 43.707031 3.59375 L 30.214844 3.59375 L 30.214844 5.113281 C 30.535156 5.203125 30.789062 5.453125 30.875 5.773438 "/>
<path style=" stroke:none;fill-rule:nonzero;fill:rgb(78.431373%,14.509804%,14.509804%);fill-opacity:1;" d="M 30.214844 26.027344 L 30.214844 27.550781 L 44.007812 27.550781 L 44.007812 25.367188 L 30.875 25.367188 C 30.789062 25.6875 30.535156 25.941406 30.214844 26.027344 "/>
<path style=" stroke:none;fill-rule:nonzero;fill:rgb(78.431373%,14.509804%,14.509804%);fill-opacity:1;" d="M 64.847656 15.597656 L 62.921875 15.597656 C 62.917969 16.609375 62.777344 17.539062 62.503906 18.390625 C 62.222656 19.253906 61.820312 20.007812 61.292969 20.648438 C 60.765625 21.289062 60.109375 21.792969 59.324219 22.152344 C 58.539062 22.511719 57.640625 22.691406 56.628906 22.691406 L 53.230469 22.691406 L 53.230469 15.597656 L 51.371094 15.597656 C 51.285156 15.917969 51.035156 16.171875 50.714844 16.257812 L 50.714844 24.222656 C 51.035156 24.308594 51.285156 24.558594 51.371094 24.882812 L 57.011719 24.882812 C 58.289062 24.882812 59.464844 24.65625 60.507812 24.214844 C 61.546875 23.773438 62.449219 23.140625 63.1875 22.335938 C 63.925781 21.53125 64.503906 20.542969 64.902344 19.40625 C 65.234375 18.457031 65.421875 17.394531 65.480469 16.25 C 65.171875 16.15625 64.933594 15.910156 64.847656 15.597656 "/>
<path style=" stroke:none;fill-rule:nonzero;fill:rgb(78.431373%,14.509804%,14.509804%);fill-opacity:1;" d="M 50.230469 16.257812 C 49.90625 16.171875 49.65625 15.917969 49.570312 15.597656 L 47.710938 15.597656 L 47.710938 24.882812 L 49.570312 24.882812 C 49.65625 24.558594 49.90625 24.308594 50.230469 24.222656 L 50.230469 16.257812 "/>
<path style=" stroke:none;fill-rule:nonzero;fill:rgb(78.431373%,14.509804%,14.509804%);fill-opacity:1;" d="M 65.964844 16.265625 C 65.90625 17.457031 65.707031 18.570312 65.359375 19.566406 C 64.941406 20.765625 64.328125 21.808594 63.542969 22.664062 C 62.757812 23.519531 61.800781 24.191406 60.695312 24.660156 C 59.59375 25.128906 58.355469 25.367188 57.011719 25.367188 L 51.371094 25.367188 C 51.285156 25.6875 51.035156 25.941406 50.714844 26.027344 L 50.714844 27.550781 L 56.628906 27.550781 C 58.425781 27.550781 60.058594 27.261719 61.527344 26.6875 C 62.996094 26.113281 64.253906 25.304688 65.296875 24.257812 C 66.339844 23.214844 67.144531 21.953125 67.703125 20.480469 C 68.257812 19.023438 68.539062 17.394531 68.542969 15.597656 L 66.648438 15.597656 C 66.558594 15.929688 66.296875 16.1875 65.964844 16.265625 "/>
<path style=" stroke:none;fill-rule:nonzero;fill:rgb(78.431373%,14.509804%,14.509804%);fill-opacity:1;" d="M 49.570312 15.113281 C 49.65625 14.789062 49.90625 14.539062 50.230469 14.453125 L 50.230469 6.921875 C 49.90625 6.835938 49.65625 6.582031 49.570312 6.261719 L 47.710938 6.261719 L 47.710938 15.113281 L 49.570312 15.113281 "/>
<path style=" stroke:none;fill-rule:nonzero;fill:rgb(78.431373%,14.509804%,14.509804%);fill-opacity:1;" d="M 49.570312 25.367188 L 47.710938 25.367188 L 47.710938 27.550781 L 50.230469 27.550781 L 50.230469 26.027344 C 49.90625 25.941406 49.65625 25.6875 49.570312 25.367188 "/>
<path style=" stroke:none;fill-rule:nonzero;fill:rgb(78.431373%,14.509804%,14.509804%);fill-opacity:1;" d="M 50.230469 5.117188 L 50.230469 3.59375 L 47.710938 3.59375 L 47.710938 5.773438 L 49.570312 5.773438 C 49.65625 5.453125 49.910156 5.203125 50.230469 5.117188 "/>
<path style=" stroke:none;fill-rule:nonzero;fill:rgb(78.431373%,14.509804%,14.509804%);fill-opacity:1;" d="M 50.714844 14.453125 C 51.035156 14.539062 51.285156 14.789062 51.371094 15.113281 L 53.230469 15.113281 L 53.230469 8.453125 L 56.628906 8.453125 C 57.617188 8.453125 58.503906 8.621094 59.289062 8.957031 C 60.074219 9.296875 60.738281 9.78125 61.273438 10.410156 C 61.8125 11.039062 62.222656 11.789062 62.503906 12.652344 C 62.746094 13.398438 62.878906 14.222656 62.910156 15.113281 L 64.847656 15.113281 C 64.929688 14.804688 65.160156 14.566406 65.457031 14.46875 C 65.382812 13.578125 65.21875 12.722656 64.960938 11.917969 C 64.605469 10.796875 64.0625 9.808594 63.355469 8.972656 C 62.648438 8.144531 61.757812 7.476562 60.710938 6.992188 C 59.660156 6.507812 58.417969 6.261719 57.011719 6.261719 L 51.371094 6.261719 C 51.285156 6.582031 51.035156 6.835938 50.714844 6.921875 L 50.714844 14.453125 "/>
<path style=" stroke:none;fill-rule:nonzero;fill:rgb(78.431373%,14.509804%,14.509804%);fill-opacity:1;" d="M 51.371094 5.773438 L 57.011719 5.773438 C 58.488281 5.773438 59.800781 6.035156 60.914062 6.550781 C 62.027344 7.066406 62.972656 7.773438 63.722656 8.660156 C 64.472656 9.542969 65.046875 10.585938 65.421875 11.769531 C 65.695312 12.613281 65.863281 13.507812 65.941406 14.4375 C 66.285156 14.507812 66.558594 14.773438 66.648438 15.113281 L 68.542969 15.113281 C 68.503906 13.628906 68.25 12.222656 67.789062 10.898438 C 67.285156 9.449219 66.53125 8.183594 65.53125 7.101562 C 64.535156 6.023438 63.296875 5.167969 61.8125 4.539062 C 60.332031 3.910156 58.605469 3.59375 56.628906 3.59375 L 50.714844 3.59375 L 50.714844 5.117188 C 51.035156 5.203125 51.285156 5.453125 51.371094 5.773438 "/>
<path style=" stroke:none;fill-rule:nonzero;fill:rgb(78.431373%,14.509804%,14.509804%);fill-opacity:1;" d="M 98.785156 25.367188 L 96.925781 25.367188 L 96.925781 27.550781 L 99.441406 27.550781 L 99.441406 26.027344 C 99.121094 25.941406 98.871094 25.6875 98.785156 25.367188 "/>
<path style=" stroke:none;fill-rule:nonzero;fill:rgb(78.431373%,14.509804%,14.509804%);fill-opacity:1;" d="M 99.441406 24.222656 L 99.441406 16.257812 C 99.121094 16.171875 98.871094 15.917969 98.785156 15.597656 L 96.925781 15.597656 L 96.925781 24.882812 L 98.785156 24.882812 C 98.871094 24.558594 99.121094 24.308594 99.441406 24.222656 "/>
<path style=" stroke:none;fill-rule:nonzero;fill:rgb(78.431373%,14.509804%,14.509804%);fill-opacity:1;" d="M 99.925781 26.027344 L 99.925781 27.550781 L 113.722656 27.550781 L 113.722656 25.367188 L 100.585938 25.367188 C 100.5 25.6875 100.25 25.941406 99.925781 26.027344 "/>
<path style=" stroke:none;fill-rule:nonzero;fill:rgb(78.431373%,14.509804%,14.509804%);fill-opacity:1;" d="M 99.925781 14.453125 C 100.25 14.539062 100.5 14.789062 100.585938 15.113281 L 111.871094 15.113281 L 111.871094 13.109375 L 102.445312 13.109375 L 102.445312 8.453125 L 113.417969 8.453125 L 113.417969 6.261719 L 100.585938 6.261719 C 100.5 6.582031 100.25 6.835938 99.925781 6.921875 L 99.925781 14.453125 "/>
<path style=" stroke:none;fill-rule:nonzero;fill:rgb(78.431373%,14.509804%,14.509804%);fill-opacity:1;" d="M 102.445312 22.691406 L 102.445312 17.597656 L 111.871094 17.597656 L 111.871094 15.597656 L 100.585938 15.597656 C 100.5 15.917969 100.25 16.171875 99.925781 16.257812 L 99.925781 24.222656 C 100.25 24.308594 100.5 24.558594 100.585938 24.882812 L 113.722656 24.882812 L 113.722656 22.691406 L 102.445312 22.691406 "/>
<path style=" stroke:none;fill-rule:nonzero;fill:rgb(78.431373%,14.509804%,14.509804%);fill-opacity:1;" d="M 99.441406 5.113281 L 99.441406 3.59375 L 96.925781 3.59375 L 96.925781 5.773438 L 98.785156 5.773438 C 98.871094 5.453125 99.121094 5.203125 99.441406 5.113281 "/>
<path style=" stroke:none;fill-rule:nonzero;fill:rgb(78.431373%,14.509804%,14.509804%);fill-opacity:1;" d="M 99.441406 14.453125 L 99.441406 6.921875 C 99.121094 6.835938 98.871094 6.582031 98.785156 6.261719 L 96.925781 6.261719 L 96.925781 15.113281 L 98.785156 15.113281 C 98.871094 14.789062 99.121094 14.539062 99.441406 14.453125 "/>
<path style=" stroke:none;fill-rule:nonzero;fill:rgb(78.431373%,14.509804%,14.509804%);fill-opacity:1;" d="M 100.585938 5.773438 L 113.417969 5.773438 L 113.417969 3.59375 L 99.925781 3.59375 L 99.925781 5.113281 C 100.25 5.203125 100.5 5.453125 100.585938 5.773438 "/>
<path style=" stroke:none;fill-rule:nonzero;fill:rgb(78.431373%,14.509804%,14.509804%);fill-opacity:1;" d="M 128.371094 5.773438 L 137.519531 5.773438 L 137.519531 3.59375 L 127.714844 3.59375 L 127.714844 5.113281 C 128.035156 5.203125 128.285156 5.453125 128.371094 5.773438 "/>
<path style=" stroke:none;fill-rule:nonzero;fill:rgb(78.431373%,14.509804%,14.509804%);fill-opacity:1;" d="M 127.226562 5.113281 L 127.226562 3.59375 L 117.421875 3.59375 L 117.421875 5.773438 L 126.570312 5.773438 C 126.65625 5.453125 126.90625 5.203125 127.226562 5.113281 "/>
<path style=" stroke:none;fill-rule:nonzero;fill:rgb(78.431373%,14.509804%,14.509804%);fill-opacity:1;" d="M 127.714844 6.921875 L 127.714844 14.453125 C 128.035156 14.539062 128.285156 14.789062 128.371094 15.113281 L 130.246094 15.113281 L 130.246094 8.453125 L 137.519531 8.453125 L 137.519531 6.261719 L 128.371094 6.261719 C 128.285156 6.582031 128.035156 6.835938 127.714844 6.921875 "/>
<path style=" stroke:none;fill-rule:nonzero;fill:rgb(78.431373%,14.509804%,14.509804%);fill-opacity:1;" d="M 127.226562 16.257812 C 126.90625 16.171875 126.65625 15.917969 126.570312 15.597656 L 124.726562 15.597656 L 124.726562 24.882812 L 126.570312 24.882812 C 126.65625 24.558594 126.90625 24.308594 127.226562 24.222656 L 127.226562 16.257812 "/>
<path style=" stroke:none;fill-rule:nonzero;fill:rgb(78.431373%,14.509804%,14.509804%);fill-opacity:1;" d="M 127.714844 26.027344 L 127.714844 27.550781 L 130.246094 27.550781 L 130.246094 25.367188 L 128.371094 25.367188 C 128.285156 25.6875 128.035156 25.941406 127.714844 26.027344 "/>
<path style=" stroke:none;fill-rule:nonzero;fill:rgb(78.431373%,14.509804%,14.509804%);fill-opacity:1;" d="M 126.570312 25.367188 L 124.726562 25.367188 L 124.726562 27.550781 L 127.226562 27.550781 L 127.226562 26.027344 C 126.90625 25.941406 126.65625 25.6875 126.570312 25.367188 "/>
<path style=" stroke:none;fill-rule:nonzero;fill:rgb(78.431373%,14.509804%,14.509804%);fill-opacity:1;" d="M 127.714844 16.257812 L 127.714844 24.222656 C 128.035156 24.308594 128.285156 24.558594 128.371094 24.882812 L 130.246094 24.882812 L 130.246094 15.597656 L 128.371094 15.597656 C 128.285156 15.917969 128.035156 16.171875 127.714844 16.257812 "/>
<path style=" stroke:none;fill-rule:nonzero;fill:rgb(78.431373%,14.509804%,14.509804%);fill-opacity:1;" d="M 124.726562 8.453125 L 124.726562 15.113281 L 126.570312 15.113281 C 126.65625 14.789062 126.90625 14.539062 127.226562 14.453125 L 127.226562 6.921875 C 126.90625 6.835938 126.65625 6.582031 126.570312 6.261719 L 117.421875 6.261719 L 117.421875 8.453125 L 124.726562 8.453125 "/>
<path style=" stroke:none;fill-rule:nonzero;fill:rgb(78.431373%,14.509804%,14.509804%);fill-opacity:1;" d="M 72.253906 15.113281 L 74.152344 15.113281 C 74.234375 14.804688 74.46875 14.558594 74.769531 14.464844 L 74.769531 6.910156 C 74.390625 6.789062 74.117188 6.4375 74.117188 6.019531 C 74.117188 5.597656 74.390625 5.246094 74.769531 5.128906 L 74.769531 3.59375 L 72.253906 3.59375 L 72.253906 15.113281 "/>
<path style=" stroke:none;fill-rule:nonzero;fill:rgb(78.431373%,14.509804%,14.509804%);fill-opacity:1;" d="M 74.152344 15.597656 L 72.253906 15.597656 L 72.253906 27.550781 L 74.769531 27.550781 L 74.769531 16.246094 C 74.46875 16.148438 74.234375 15.90625 74.152344 15.597656 "/>
<path style=" stroke:none;fill-rule:nonzero;fill:rgb(78.431373%,14.509804%,14.509804%);fill-opacity:1;" d="M 90.21875 14.453125 L 90.21875 3.59375 L 87.703125 3.59375 L 87.703125 15.113281 L 89.5625 15.113281 C 89.648438 14.789062 89.898438 14.539062 90.21875 14.453125 "/>
<path style=" stroke:none;fill-rule:nonzero;fill:rgb(78.431373%,14.509804%,14.509804%);fill-opacity:1;" d="M 87.703125 17.664062 L 76.5625 3.59375 L 75.253906 3.59375 L 75.253906 5.101562 C 75.675781 5.195312 75.988281 5.570312 75.988281 6.019531 C 75.988281 6.226562 75.921875 6.414062 75.808594 6.570312 L 90.082031 24.265625 C 90.128906 24.246094 90.171875 24.234375 90.21875 24.222656 L 90.21875 16.257812 C 89.898438 16.171875 89.648438 15.917969 89.5625 15.597656 L 87.703125 15.597656 L 87.703125 17.664062 "/>
<path style=" stroke:none;fill-rule:nonzero;fill:rgb(78.431373%,14.509804%,14.509804%);fill-opacity:1;" d="M 90.703125 16.257812 L 90.703125 24.222656 C 91.105469 24.328125 91.398438 24.691406 91.398438 25.125 C 91.398438 25.558594 91.105469 25.917969 90.703125 26.027344 L 90.703125 27.550781 L 93.222656 27.550781 L 93.222656 15.597656 L 91.363281 15.597656 C 91.277344 15.917969 91.027344 16.171875 90.703125 16.257812 "/>
<path style=" stroke:none;fill-rule:nonzero;fill:rgb(78.431373%,14.509804%,14.509804%);fill-opacity:1;" d="M 93.222656 3.59375 L 90.703125 3.59375 L 90.703125 14.453125 C 91.027344 14.539062 91.277344 14.789062 91.363281 15.113281 L 93.222656 15.113281 L 93.222656 3.59375 "/>
<path style=" stroke:none;fill-rule:nonzero;fill:rgb(78.431373%,14.509804%,14.509804%);fill-opacity:1;" d="M 89.527344 25.125 C 89.527344 24.917969 89.59375 24.726562 89.707031 24.574219 L 75.429688 6.875 C 75.375 6.898438 75.316406 6.917969 75.253906 6.933594 L 75.253906 14.441406 C 75.597656 14.515625 75.863281 14.777344 75.953125 15.113281 L 77.773438 15.113281 L 77.773438 13.851562 L 88.78125 27.550781 L 90.21875 27.550781 L 90.21875 26.027344 C 89.820312 25.917969 89.527344 25.558594 89.527344 25.125 "/>
<path style=" stroke:none;fill-rule:nonzero;fill:rgb(78.431373%,14.509804%,14.509804%);fill-opacity:1;" d="M 75.253906 16.269531 L 75.253906 27.550781 L 77.773438 27.550781 L 77.773438 15.597656 L 75.953125 15.597656 C 75.863281 15.933594 75.597656 16.195312 75.253906 16.269531 "/>
</g>
</svg>
