<svg xmlns="http://www.w3.org/2000/svg" xmlns:xlink="http://www.w3.org/1999/xlink" viewBox="0 0 3437.13 745"><symbol id="c" viewBox="0 -192 192 192"><g opacity=".4"><defs><path id="a" opacity=".4" d="M0 0v-192h192V0H0z"/></defs><clipPath id="b"><use xlink:href="#a" overflow="visible"/></clipPath><g clip-path="url(#b)"><path fill="none" stroke="#000" stroke-width=".25" stroke-miterlimit="10" d="M.25-.25l191.5-191.5"/><path d="M191.75-.25v-191.5H.25V-.25h191.5M192 0H0v-192h192V0z"/><path fill="none" stroke="#000" stroke-width=".25" stroke-miterlimit="10" d="M191.75-.25L.25-191.75M124 0v-192M68 0v-192M192-124H0M192-68H0"/><circle fill="none" stroke="#000" stroke-width=".25" stroke-miterlimit="10" cx="96" cy="-96" r="40"/><path fill="none" stroke="#000" stroke-width=".25" stroke-miterlimit="10" d="M0-96h192M96 0v-192"/></g><g clip-path="url(#b)"><path d="M96-8.25c48.39 0 87.75-39.36 87.75-87.75S144.39-183.75 96-183.75 8.25-144.39 8.25-96 47.61-8.25 96-8.25M96-8C47.4-8 8-47.4 8-96s39.4-88 88-88 88 39.4 88 88S144.6-8 96-8z"/></g><g clip-path="url(#b)"><path d="M160-20.25c6.48 0 11.75-5.27 11.75-11.75v-128c0-6.48-5.27-11.75-11.75-11.75H32c-6.48 0-11.75 5.27-11.75 11.75v128c0 6.48 5.27 11.75 11.75 11.75h128m0 .25H32c-6.6 0-12-5.4-12-12v-128c0-6.6 5.4-12 12-12h128c6.6 0 12 5.4 12 12v128c0 6.6-5.4 12-12 12z"/></g><g clip-path="url(#b)"><path d="M148-8.25c6.48 0 11.75-5.27 11.75-11.75v-152c0-6.48-5.27-11.75-11.75-11.75H44c-6.48 0-11.75 5.27-11.75 11.75v152c0 6.48 5.27 11.75 11.75 11.75h104m0 .25H44c-6.6 0-12-5.4-12-12v-152c0-6.6 5.4-12 12-12h104c6.6 0 12 5.4 12 12v152c0 6.6-5.4 12-12 12z"/></g><g clip-path="url(#b)"><path d="M172-32.25c6.48 0 11.75-5.27 11.75-11.75v-104c0-6.48-5.27-11.75-11.75-11.75H20c-6.48 0-11.75 5.27-11.75 11.75v104c0 6.48 5.27 11.75 11.75 11.75h152m0 .25H20c-6.6 0-12-5.4-12-12v-104c0-6.6 5.4-12 12-12h152c6.6 0 12 5.4 12 12v104c0 6.6-5.4 12-12 12z"/></g></g></symbol><path fill="#34A853" d="M606.17 620.83h-255.5V217.29h255.49c34.29 0 62.08 27.8 62.08 62.08v279.38c.01 34.29-27.78 62.08-62.07 62.08z"/><radialGradient id="d" cx="324.706" cy="217.974" r="154.439" gradientUnits="userSpaceOnUse"><stop offset="0" stop-color="#188038"/><stop offset="1" stop-color="#34a854"/></radialGradient><path fill="url(#d)" d="M350.67 217.44l-189.61-94.99c-38.04-19.02-82.8 8.64-82.8 51.17v237.39c0 45 25.42 86.14 65.67 106.26l27.65 13.85v89.7l59.77-59.77 119.32 59.77V217.44z"/><path fill="#0D652D" d="M350.67 620.33l-120.32-60.27-57.77 57.77-1 3 59.77-59.77 119.32 59.77v-.5zM113 494.96c8.9 8.92 19.29 16.5 30.93 22.32l27.65 13.85h1l-29.65-14.85c-11.2-5.6-21.25-12.84-29.93-21.32z"/><linearGradient id="e" gradientUnits="userSpaceOnUse" x1="510.035" y1="450.399" x2="637.315" y2="577.68"><stop offset="0" stop-color="#188038"/><stop offset="1" stop-color="#34a854"/></linearGradient><path fill="url(#e)" d="M668.25 558.75V278.82l-22.68-22.68-294.9 364.69h255.49c34.3 0 62.09-27.79 62.09-62.08z"/><path fill="#0D652D" d="M649.56 234.99c10.94 11.19 17.7 26.5 17.7 43.39v279.38c0 34.29-27.8 62.08-62.08 62.08H350.67v1h255.49c34.29 0 62.08-27.8 62.08-62.08V279.37c.01-17.39-7.15-33.11-18.68-44.38z"/><path fill="#DADCE0" d="M585.41 566.66l-234.74 54.17V217.29l218.85-50.5c38.9-8.98 76.04 20.57 76.04 60.49v263.76c.01 36.14-24.94 67.5-60.15 75.62z"/><linearGradient id="f" gradientUnits="userSpaceOnUse" x1="429.664" y1="370.029" x2="605.424" y2="545.789"><stop offset="0" stop-color="#bdc1c6"/><stop offset="1" stop-color="#dadce0"/></linearGradient><path fill="url(#f)" d="M645.57 256.14l-54.92-54.92-239.98 419.61 234.74-54.17c35.21-8.13 60.15-39.48 60.15-75.62v-234.9z"/><linearGradient id="g" gradientUnits="userSpaceOnUse" x1="270.762" y1="159.414" x2="419.037" y2="332.639"><stop offset="0" stop-color="#e8eaed"/><stop offset="1" stop-color="#fff"/></linearGradient><path fill="url(#g)" d="M350.67 620.83l188.5-94.25c31.55-15.77 51.48-48.02 51.48-83.29V185.2c0-40.38-42.5-66.65-78.62-48.59l-161.36 80.68v403.54z"/><path fill="#A8DAB5" d="M171.58 620.83l1-3v-86.7h-1v89.7zm-10.52-498.38c-38.04-19.02-82.8 8.64-82.8 51.17v237.39c0 32.47 13.25 62.93 35.74 84.94-21.89-21.92-34.74-51.95-34.74-83.94V174.63c0-42.53 44.76-70.2 82.8-51.17l188.61 94.49v-.5l-189.61-95z"/><linearGradient id="h" gradientUnits="userSpaceOnUse" x1="292.086" y1="148.779" x2="292.086" y2="148.779"><stop offset="0" stop-color="#e8eaed"/><stop offset="1" stop-color="#fff"/></linearGradient><g><linearGradient id="i" gradientUnits="userSpaceOnUse" x1="511.778" y1="374.877" x2="582.648" y2="445.747"><stop offset="0" stop-color="#e8eaed"/><stop offset="1" stop-color="#fff"/></linearGradient><path fill="url(#i)" d="M590.65 443.3l-74.85-74.85h-6.15l-7.78 6.96 86.83 86.83a93.77 93.77 0 001.95-18.94z"/><linearGradient id="j" gradientUnits="userSpaceOnUse" x1="359.427" y1="241.052" x2="502.723" y2="392.669"><stop offset="0" stop-color="#fff"/><stop offset=".057" stop-color="#fef6de"/><stop offset=".155" stop-color="#fee9ab"/><stop offset=".257" stop-color="#fddd7f"/><stop offset=".363" stop-color="#fcd359"/><stop offset=".472" stop-color="#fcca3a"/><stop offset=".585" stop-color="#fbc422"/><stop offset=".705" stop-color="#fbc011"/><stop offset=".837" stop-color="#fbbd07"/><stop offset="1" stop-color="#fbbc04"/></linearGradient><path fill="url(#j)" d="M315.89 234.77c-4.29 0-7.76 3.47-7.76 7.76s3.47 7.76 7.76 7.76c82.01 0 155.41 49.85 185.98 125.12l13.93-6.96c-33.2-80.47-111.96-133.68-199.91-133.68z"/><linearGradient id="k" gradientUnits="userSpaceOnUse" x1="487.311" y1="426.38" x2="563.533" y2="502.602"><stop offset="0" stop-color="#e8eaed"/><stop offset="1" stop-color="#fff"/></linearGradient><path fill="url(#k)" d="M490.67 418.77h-7.26l-7.37 7.31 85.15 85.15c3.8-3.56 7.28-7.42 10.41-11.53l-80.93-80.93z"/><linearGradient id="l" gradientUnits="userSpaceOnUse" x1="348.147" y1="251.713" x2="491.443" y2="403.329"><stop offset="0" stop-color="#fff"/><stop offset=".057" stop-color="#fef6de"/><stop offset=".155" stop-color="#fee9ab"/><stop offset=".257" stop-color="#fddd7f"/><stop offset=".363" stop-color="#fcd359"/><stop offset=".472" stop-color="#fcca3a"/><stop offset=".585" stop-color="#fbc422"/><stop offset=".705" stop-color="#fbc011"/><stop offset=".837" stop-color="#fbbd07"/><stop offset="1" stop-color="#fbbc04"/></linearGradient><path fill="url(#l)" d="M490.65 418.79c-7.45-47.44-27.95-90.78-58.16-122.64-32.31-34.07-73.71-52.83-116.59-52.83-4.29 0-7.76 3.47-7.76 7.76s3.47 7.76 7.76 7.76c38.58 0 75.98 17.04 105.33 47.99 29.09 30.68 48.53 72.98 54.82 119.25l14.6-7.29z"/><linearGradient id="m" gradientUnits="userSpaceOnUse" x1="440.577" y1="436.062" x2="532.878" y2="528.364"><stop offset="0" stop-color="#e8eaed"/><stop offset="1" stop-color="#fff"/></linearGradient><path fill="url(#m)" d="M437.03 430.05l-6.19 7.45 95.5 95.5 12.83-6.42c.69-.34 1.36-.7 2.04-1.06l-95.47-95.47h-8.71z"/><linearGradient id="n" gradientUnits="userSpaceOnUse" x1="327.181" y1="271.529" x2="470.477" y2="423.145"><stop offset="0" stop-color="#fff"/><stop offset=".057" stop-color="#fef6de"/><stop offset=".155" stop-color="#fee9ab"/><stop offset=".257" stop-color="#fddd7f"/><stop offset=".363" stop-color="#fcd359"/><stop offset=".472" stop-color="#fcca3a"/><stop offset=".585" stop-color="#fbc422"/><stop offset=".705" stop-color="#fbc011"/><stop offset=".837" stop-color="#fbbd07"/><stop offset="1" stop-color="#fbbc04"/></linearGradient><path fill="url(#n)" d="M445.73 430.09c-4.68-46.34-17.6-88.97-37.31-122.24-24.66-41.62-57.52-64.54-92.53-64.54-4.29 0-7.76 3.47-7.76 7.76s3.47 7.76 7.76 7.76c29.31 0 57.43 20.22 79.18 56.92 19.4 32.75 31.84 75.35 35.77 121.73l14.89-7.39z"/></g><g><path fill="#FBBC04" d="M223.09 208.07l32.49 32.49a13.22 13.22 0 012.43 15.35l-20.86 40.94c-5.81 11.41 6.37 23.59 17.78 17.78l40.94-20.86c5.1-2.6 11.3-1.62 15.35 2.43l32.49 32.49c9.06 9.06 24.41 1.23 22.4-11.42l-7.19-45.38c-.9-5.66 1.95-11.25 7.06-13.85l40.94-20.86c11.41-5.81 8.71-22.83-3.93-24.84l-45.38-7.19c-5.66-.9-10.09-5.33-10.99-10.99l-7.19-45.38c-2-12.65-19.02-15.34-24.84-3.93l-20.86 40.94c-2.6 5.1-8.19 7.95-13.85 7.06l-45.38-7.19c-12.64-2-20.47 13.35-11.41 22.41z"/></g><g fill="#F29900"><path d="M338.42 147.79l7.19 45.38c.49 3.07 2.02 5.78 4.23 7.76a13.16 13.16 0 01-3.23-6.76l-7.19-45.38c-.52-3.28-2.05-5.88-4.13-7.75 1.57 1.77 2.7 4.03 3.13 6.75zM254.58 239.56l-31.49-31.49 31.49 31.49zM409.72 215.47c5.35 5.94 4.64 16.4-3.81 20.71l-40.94 20.86c-5.1 2.6-7.95 8.19-7.05 13.85l7.19 45.38c2 12.65-13.35 20.47-22.4 11.42l-32.49-32.49a13.22 13.22 0 00-15.35-2.43l-40.94 20.86c-5.45 2.78-11.07 1.44-14.83-1.95 3.71 4.11 9.87 5.99 15.83 2.95l40.94-20.86c5.1-2.6 11.3-1.62 15.35 2.43l32.49 32.49c9.06 9.06 24.41 1.23 22.4-11.42l-7.19-45.38c-.9-5.66 1.95-11.25 7.05-13.85l40.94-20.86c8.96-4.56 9.22-16.02 2.81-21.71z"/></g><g fill="#FFF"><path d="M358.6 206.16l45.38 7.19c2.73.43 4.99 1.56 6.75 3.13-1.87-2.08-4.47-3.61-7.75-4.13l-45.38-7.19a13.16 13.16 0 01-6.76-3.23c1.98 2.2 4.69 3.74 7.76 4.23zM235.51 186.66l45.38 7.19c5.66.9 11.25-1.95 13.85-7.06l20.86-40.94c4.31-8.46 14.77-9.16 20.71-3.81-5.69-6.41-17.15-6.14-21.71 2.81l-20.86 40.94c-2.6 5.1-8.19 7.95-13.85 7.06l-45.38-7.19c-12.65-2-20.47 13.35-11.42 22.41l1 1c-9.06-9.06-1.23-24.41 11.42-22.41zM238.15 297.84l20.86-40.94c2.6-5.1 1.62-11.3-2.43-15.35l-1-1a13.22 13.22 0 012.43 15.35l-20.86 40.94c-3.04 5.96-1.16 12.12 2.95 15.83-3.39-3.75-4.72-9.38-1.95-14.83z"/></g><g fill="#5F6368"><path d="M3290.04 526.03h-12.5v-7.5h33v7.5h-12.5v37.2h-8v-37.2zM3314.6 518.53h10.7l12.2 32.3 12.3-32.3h10.7v44.7h-8v-23.1l.4-8.3-12.1 31.4h-6.5l-12.1-31.4.4 8.3v23.1h-8v-44.7z"/></g><g fill="#5F6368"><path d="M904.23 563.23V212.39h119.56c29.72 0 55.45 9.88 77.17 29.65 21.72 19.77 32.58 44.67 32.58 74.72 0 24.5-8.01 46.14-24.01 64.92-16.01 18.79-35.94 30.62-59.78 35.53l-.98 1.47 98.49 142.59v1.96h-53.41l-94.57-142.1H949.3v142.1h-45.07zm45.08-184.24h72.52c17.96 0 33.4-5.88 46.3-17.64 12.9-11.76 19.36-26.62 19.36-44.59 0-15.35-5.72-29.4-17.15-42.14-11.44-12.74-26.63-19.11-45.57-19.11h-75.46v123.48zM1274.03 571.07c-36.26 0-65.74-12.08-88.44-36.26-22.71-24.17-34.06-54.71-34.06-91.63 0-34.95 11.03-65 33.08-90.16 22.05-25.15 50.22-37.73 84.53-37.73 35.6 0 64.11 11.6 85.5 34.79 21.39 23.2 32.09 54.23 32.09 93.1l-.49 8.33h-189.63c1.3 24.18 9.39 43.29 24.25 57.33 14.86 14.05 32.26 21.07 52.19 21.07 32.34 0 54.22-13.72 65.66-41.16l40.18 16.66c-7.84 18.62-20.75 34.22-38.71 46.79-17.97 12.58-40.02 18.87-66.15 18.87zm64.68-156.8c-.98-13.72-7.27-26.78-18.87-39.2-11.6-12.41-28.83-18.62-51.7-18.62-16.66 0-31.12 5.23-43.37 15.68-12.25 10.46-20.66 24.5-25.23 42.14h139.17zM1493.16 571.07c-25.48 0-46.79-7.35-63.94-22.05-17.15-14.7-25.73-34.13-25.73-58.31 0-26.13 10.12-46.63 30.38-61.5 20.25-14.86 45.24-22.29 74.97-22.29 26.46 0 48.18 4.9 65.17 14.7v-6.86c0-17.64-6.05-31.77-18.13-42.38-12.09-10.61-26.95-15.92-44.59-15.92-13.07 0-24.91 3.11-35.52 9.31-10.62 6.21-17.88 14.7-21.8 25.48l-41.16-17.64c5.55-14.37 16.49-27.68 32.83-39.93 16.33-12.25 37.89-18.38 64.68-18.38 30.7 0 56.18 8.99 76.44 26.95 20.25 17.97 30.38 43.29 30.38 75.95v145.04h-43.12v-33.32h-1.96c-17.98 27.43-44.28 41.15-78.9 41.15zm7.35-41.16c18.62 0 35.52-6.94 50.71-20.83 15.19-13.88 22.79-30.3 22.79-49.25-12.74-10.45-31.85-15.68-57.33-15.68-21.89 0-38.39 4.74-49.49 14.21-11.11 9.48-16.66 20.58-16.66 33.32 0 11.76 5.06 21.07 15.19 27.93 10.12 6.87 21.72 10.3 34.79 10.3zM1760.94 571.07c-31.04 0-57.82-12.25-80.36-36.75s-33.81-54.88-33.81-91.14 11.27-66.64 33.81-91.14 49.32-36.75 80.36-36.75c18.29 0 34.71 3.92 49.25 11.76 14.53 7.84 25.4 17.64 32.58 29.4h1.96l-1.96-33.32V212.39h45.08v350.84h-43.12v-33.32h-1.96c-7.19 11.76-18.05 21.56-32.58 29.4-14.55 7.84-30.96 11.76-49.25 11.76zm7.35-41.16c21.23 0 39.28-7.84 54.14-23.52s22.29-36.75 22.29-63.21-7.43-47.53-22.29-63.21c-14.87-15.68-32.91-23.52-54.14-23.52-20.91 0-38.88 7.92-53.9 23.76-15.03 15.85-22.54 36.83-22.54 62.96 0 26.14 7.51 47.12 22.54 62.96 15.02 15.87 32.99 23.78 53.9 23.78zM2028.96 563.23l132.3-350.84h50.96l132.3 350.84h-49.98l-33.81-95.06h-147.49l-34.3 95.06h-49.98zm99.46-137.2h116.62l-57.33-158.27h-1.96l-57.33 158.27zM2413.8 563.23h-45.08V212.39h45.08v350.84zM2481.17 351.8c23.19-24.33 52.75-36.5 88.69-36.5 35.93 0 65.49 12.17 88.69 36.5 23.19 24.34 34.79 54.8 34.79 91.38 0 36.59-11.6 67.05-34.79 91.38-23.2 24.34-52.76 36.5-88.69 36.5-35.94 0-65.5-12.17-88.69-36.5-23.2-24.33-34.79-54.8-34.79-91.38s11.59-67.04 34.79-91.38zm33.57 154.35c15.51 15.85 33.89 23.77 55.12 23.77 21.23 0 39.61-7.92 55.12-23.77 15.51-15.84 23.27-36.83 23.27-62.96 0-26.13-7.76-47.12-23.27-62.96-15.52-15.84-33.89-23.76-55.12-23.76-21.24 0-39.61 7.92-55.12 23.76-15.52 15.85-23.28 36.83-23.28 62.96 0 26.13 7.76 47.12 23.28 62.96zM2768.46 323.13v33.32h1.96c6.53-11.43 16.82-21.15 30.87-29.16 14.04-8 29.07-12 45.08-12 29.72 0 52.43 9.15 68.11 27.44 15.68 18.3 23.52 42.8 23.52 73.5v147h-45.08V423.09c0-44.42-19.77-66.64-59.29-66.64-18.62 0-33.81 7.43-45.57 22.29-11.76 14.87-17.64 32.09-17.64 51.69v132.79h-45.08v-240.1h43.12zM3086.32 676.91c-28.42 0-51.62-7.1-69.58-21.31-17.97-14.21-30.87-30.46-38.71-48.75l41.16-17.15c4.57 13.06 12.99 24.01 25.24 32.83s26.21 13.23 41.89 13.23c24.82 0 44.35-7.43 58.56-22.29 14.21-14.87 21.31-35.03 21.31-60.51v-23.03h-1.96c-7.84 11.76-18.95 21.56-33.32 29.4-14.38 7.84-30.55 11.76-48.51 11.76-31.04 0-57.82-12.25-80.36-36.75s-33.81-54.88-33.81-91.14 11.27-66.64 33.81-91.14 49.32-36.75 80.36-36.75c17.96 0 34.13 3.92 48.51 11.76 14.37 7.84 25.48 17.64 33.32 29.4h1.96v-33.32h43.12V551c0 41.16-11.93 72.44-35.77 93.83-23.85 21.38-52.92 32.08-87.22 32.08zm3.43-147c21.23 0 39.28-7.84 54.14-23.52s22.29-36.75 22.29-63.21-7.43-47.53-22.29-63.21c-14.87-15.68-32.91-23.52-54.14-23.52-20.91 0-38.88 7.92-53.9 23.76-15.03 15.85-22.54 36.83-22.54 62.96 0 26.14 7.51 47.12 22.54 62.96 15.02 15.87 32.99 23.78 53.9 23.78z"/></g></svg>