<?xml version="1.0" encoding="utf-8"?>
<!-- Generator: Adobe Illustrator 26.0.1, SVG Export Plug-In . SVG Version: 6.00 Build 0)  -->
<svg version="1.1" id="Layer_1" xmlns="http://www.w3.org/2000/svg" xmlns:xlink="http://www.w3.org/1999/xlink" x="0px" y="0px"
	 viewBox="0 0 317.7 89.5" style="enable-background:new 0 0 317.7 89.5;" xml:space="preserve">
<style type="text/css">
	.st0{fill:#C70000;}
</style>
<g>
	<g>
		<path class="st0" d="M75.7,89.2V69.9h3.2v19.3C78.9,89.2,75.7,89.2,75.7,89.2z"/>
		<path class="st0" d="M100.2,89.2h-3.9l-9.5-15.4h-0.1l0.1,0.9c0.1,1.6,0.2,3.1,0.2,4.5v10h-2.9V69.9h3.8l9.5,15.3h0.1
			c0-0.2-0.1-0.9-0.1-2.2c-0.1-1.3-0.1-2.3-0.1-3V69.9h2.9V89.2z"/>
		<path class="st0" d="M116.4,69.9h3.3l-6.8,19.3h-3.3l-6.7-19.3h3.2l4,12c0.2,0.6,0.4,1.3,0.7,2.2c0.2,0.9,0.4,1.6,0.5,2
			c0.1-0.7,0.3-1.4,0.5-2.3s0.4-1.5,0.6-1.9L116.4,69.9z"/>
		<path class="st0" d="M133.3,89.2h-10.9V69.9h10.9v2.7h-7.8v5.2h7.3v2.6h-7.3v6.1h7.8V89.2z"/>
		<path class="st0" d="M148.7,84c0,1.7-0.6,3.1-1.9,4s-2.9,1.5-5.1,1.5c-2.2,0-4-0.3-5.4-1v-3c0.9,0.4,1.8,0.7,2.8,1
			c1,0.2,1.9,0.4,2.8,0.4c1.2,0,2.2-0.2,2.8-0.7c0.6-0.5,0.9-1.1,0.9-1.9c0-0.7-0.3-1.3-0.8-1.8c-0.6-0.5-1.7-1.1-3.4-1.8
			c-1.8-0.7-3-1.5-3.7-2.4c-0.7-0.9-1.1-2-1.1-3.3c0-1.6,0.6-2.9,1.7-3.8c1.1-0.9,2.7-1.4,4.6-1.4c1.9,0,3.7,0.4,5.5,1.2l-1,2.6
			c-1.7-0.7-3.2-1.1-4.6-1.1c-1,0-1.8,0.2-2.3,0.7c-0.5,0.4-0.8,1-0.8,1.8c0,0.5,0.1,0.9,0.3,1.3s0.6,0.7,1,1s1.4,0.7,2.6,1.2
			c1.4,0.6,2.5,1.1,3.1,1.7c0.7,0.5,1.1,1.1,1.4,1.7C148.6,82.4,148.7,83.1,148.7,84z"/>
		<path class="st0" d="M159.3,89.2h-3.2V72.6h-5.7v-2.7h14.5v2.7h-5.7L159.3,89.2L159.3,89.2z"/>
		<path class="st0" d="M176.4,89.2l-5.6-16.1h-0.1c0.1,2.4,0.2,4.6,0.2,6.7v9.4H168V69.9h4.4l5.4,15.3h0.1l5.5-15.3h4.5v19.3h-3
			v-9.5c0-1,0-2.2,0.1-3.8s0.1-2.5,0.1-2.8H185l-5.8,16.1C179.1,89.2,176.4,89.2,176.4,89.2z"/>
		<path class="st0" d="M204.1,89.2h-10.9V69.9h10.9v2.7h-7.8v5.2h7.3v2.6h-7.3v6.1h7.8V89.2z"/>
		<path class="st0" d="M224.4,89.2h-3.9l-9.5-15.4H211l0.1,0.9c0.1,1.6,0.2,3.1,0.2,4.5v10h-2.9V69.9h3.8l9.5,15.3h0.1
			c0-0.2-0.1-0.9-0.1-2.2c-0.1-1.3-0.1-2.3-0.1-3V69.9h2.9L224.4,89.2L224.4,89.2z"/>
		<path class="st0" d="M236.3,89.2h-3.1V72.6h-5.7v-2.7H242v2.7h-5.7L236.3,89.2L236.3,89.2z"/>
	</g>
	<g>
		<g>
			<g>
				<path class="st0" d="M31.7,6.6c1,0.6,1.9,1.4,2.8,2.4c2.3,2.6,3.5,6,3.5,10.3c0,4.2-1,7.6-3,10.3c-1.9,2.5-4.1,3.8-6.7,4.1
					c-0.1,0.4-0.3,0.8-0.6,1.1l13,22h6.6L34.8,35.6c1.4-0.8,2.7-1.8,3.9-2.9s2.1-2.4,2.9-3.9c0.8-1.4,1.4-3,1.8-4.6
					c0.4-1.6,0.6-3.3,0.6-5.1c0-2.3-0.5-4.7-1.4-6.9C41.8,10,40.5,8.1,39,6.3h-7.2C31.8,6.4,31.8,6.5,31.7,6.6z"/>
				<path class="st0" d="M8.7,5.2h2.8h3.9h11.5h0.7c0.2-0.9,1.1-1.7,2.1-1.7c1,0,1.9,0.7,2.1,1.7h6.1c-1.5-1.4-3.1-2.6-5-3.5
					C30.7,0.6,28.2,0,25.5,0H7.1v3.6C7.8,3.8,8.5,4.4,8.7,5.2z"/>
				<path class="st0" d="M4.3,33.1c0-1,0.7-1.9,1.6-2.1V7.9C5,7.6,4.3,6.8,4.3,5.7S5,3.9,5.9,3.6V0H0v56.7h5.9V35.3
					C5,35,4.3,34.2,4.3,33.1z"/>
				<path class="st0" d="M26.1,35.4c-1,0-1.9-0.7-2.1-1.7H8.7c-0.2,0.8-0.8,1.4-1.6,1.6v21.4h6V38.4h8.5l10.9,18.3h6.8L26.7,35.3
					C26.5,35.3,26.3,35.4,26.1,35.4z"/>
				<path class="st0" d="M29.7,8c-1,0-1.9-0.7-2.1-1.6c-0.2,0-0.5,0-0.7,0H15.4h-3.9H8.7C8.5,7.1,7.9,7.7,7.1,7.9V31
					c0.8,0.2,1.4,0.8,1.6,1.6H24c0.2-1,1.1-1.6,2.1-1.6c1,0,1.9,0.7,2.1,1.6c2.2-0.2,4.1-1.4,5.8-3.6c1.9-2.5,2.8-5.7,2.8-9.6
					c0-4-1.1-7.2-3.2-9.5c-0.9-0.9-1.8-1.7-2.7-2.3C30.6,7.8,30.2,8,29.7,8z M29.1,24.8c-1.1,1.5-2.5,2.2-4,2.2h-12V11.5h11.6
					c1.5,0,2.9,0.7,4.1,2.1c1.3,1.4,1.9,3.2,1.9,5.6C30.7,21.5,30.2,23.3,29.1,24.8z"/>
			</g>
			<g>
				<path class="st0" d="M62,25.7V7.9c-0.8-0.2-1.4-0.8-1.6-1.6h-4.4v21h4.4C60.7,26.5,61.3,25.9,62,25.7z"/>
				<path class="st0" d="M63.2,25.7c0.8,0.2,1.4,0.8,1.6,1.6h26.8v-4.7H69.2v-11h26V6.3H64.7c-0.2,0.8-0.8,1.4-1.6,1.6
					C63.2,7.9,63.2,25.7,63.2,25.7z"/>
				<path class="st0" d="M62,48.8V30c-0.8-0.2-1.4-0.8-1.6-1.6h-4.4v22h4.4C60.7,49.6,61.3,49,62,48.8z"/>
				<path class="st0" d="M62,3.6V0h-6v5.2h4.4C60.7,4.4,61.3,3.8,62,3.6z"/>
				<path class="st0" d="M60.5,51.5h-4.4v5.2h6v-3.6C61.3,52.9,60.7,52.3,60.5,51.5z"/>
				<path class="st0" d="M69.2,45.2v-12h22.4v-4.7H64.7c-0.2,0.8-0.8,1.4-1.6,1.6v18.9c0.8,0.2,1.4,0.8,1.6,1.6h31.2v-5.2L69.2,45.2
					L69.2,45.2z"/>
				<path class="st0" d="M64.7,5.2h30.4V0h-32v3.6C63.9,3.8,64.5,4.4,64.7,5.2z"/>
				<path class="st0" d="M63.2,53.1v3.6h32.7v-5.2H64.7C64.5,52.3,63.9,52.9,63.2,53.1z"/>
			</g>
			<g>
				<path class="st0" d="M145.3,28.4h-4.4h-0.1c0,2.4-0.3,4.6-1,6.6c-0.7,2-1.6,3.8-2.9,5.3s-2.8,2.7-4.7,3.5s-4,1.3-6.4,1.3h-8.1
					V28.4h-4.4c-0.2,0.8-0.8,1.4-1.6,1.6v18.9c0.8,0.2,1.4,0.8,1.6,1.6h13.4c3,0,5.8-0.5,8.3-1.6c2.5-1,4.6-2.5,6.4-4.4
					c1.8-1.9,3.1-4.2,4.1-6.9c0.8-2.2,1.2-4.8,1.4-7.5C146.1,29.7,145.5,29.1,145.3,28.4z"/>
				<path class="st0" d="M110.7,30c-0.8-0.2-1.4-0.8-1.6-1.6h-4.4v22h4.4c0.2-0.8,0.8-1.4,1.6-1.6V30z"/>
				<path class="st0" d="M148,30c-0.1,2.8-0.6,5.4-1.4,7.8c-1,2.8-2.4,5.3-4.3,7.3c-1.9,2-4.1,3.6-6.8,4.7c-2.6,1.1-5.6,1.7-8.7,1.7
					h-13.4c-0.2,0.8-0.8,1.4-1.6,1.6v3.6h14c4.3,0,8.1-0.7,11.6-2s6.5-3.3,8.9-5.8c2.5-2.5,4.4-5.5,5.7-8.9c1.3-3.5,2-7.3,2-11.6
					h-4.5C149.4,29.2,148.8,29.8,148,30z"/>
				<path class="st0" d="M109.1,27.3c0.2-0.8,0.8-1.4,1.6-1.6V7.9c-0.8-0.2-1.4-0.8-1.6-1.6h-4.4v21H109.1z"/>
				<path class="st0" d="M109.1,51.5h-4.4v5.2h6v-3.6C109.9,52.9,109.3,52.3,109.1,51.5z"/>
				<path class="st0" d="M110.7,3.6V0h-6v5.2h4.4C109.3,4.4,109.9,3.8,110.7,3.6z"/>
				<path class="st0" d="M111.8,25.7c0.8,0.2,1.4,0.8,1.6,1.6h4.4V11.5h8.1c2.3,0,4.4,0.4,6.3,1.2c1.9,0.8,3.4,1.9,4.7,3.4
					c1.3,1.5,2.2,3.3,2.9,5.3c0.6,1.8,0.9,3.7,1,5.8h0.1h4.4c0.2-0.7,0.7-1.3,1.4-1.5c-0.2-2.1-0.6-4.1-1.2-6c-0.9-2.6-2.1-5-3.8-7
					c-1.7-2-3.8-3.5-6.3-4.7c-2.5-1.2-5.4-1.7-8.8-1.7h-13.4c-0.2,0.8-0.8,1.4-1.6,1.6C111.8,7.9,111.8,25.7,111.8,25.7z"/>
				<path class="st0" d="M113.4,5.2h13.4c3.5,0,6.6,0.6,9.3,1.8s4.9,2.9,6.7,5c1.8,2.1,3.1,4.6,4,7.4c0.6,2,1.1,4.1,1.2,6.3
					c0.8,0.2,1.5,0.8,1.7,1.6h4.5c-0.1-3.5-0.7-6.8-1.8-10c-1.2-3.4-3-6.4-5.4-9c-2.4-2.6-5.3-4.6-8.8-6.1
					c-3.5-1.5-7.6-2.2-12.3-2.2h-14v3.6C112.6,3.8,113.2,4.4,113.4,5.2z"/>
			</g>
			<g>
				<path class="st0" d="M225.9,51.5h-4.4v5.2h6v-3.6C226.6,52.9,226.1,52.3,225.9,51.5z"/>
				<path class="st0" d="M227.4,48.8V30c-0.8-0.2-1.4-0.8-1.6-1.6h-4.4v22h4.4C226.1,49.6,226.6,49,227.4,48.8z"/>
				<path class="st0" d="M228.6,53.1v3.6h32.7v-5.2h-31.2C229.9,52.3,229.3,52.9,228.6,53.1z"/>
				<path class="st0" d="M228.6,25.7c0.8,0.2,1.4,0.8,1.6,1.6h26.8v-4.7h-22.4v-11h26V6.3h-30.4c-0.2,0.8-0.8,1.4-1.6,1.6V25.7z"/>
				<path class="st0" d="M234.5,45.2v-12h22.4v-4.7h-26.8c-0.2,0.8-0.8,1.4-1.6,1.6v18.9c0.8,0.2,1.4,0.8,1.6,1.6h31.2v-5.2
					L234.5,45.2L234.5,45.2z"/>
				<path class="st0" d="M227.4,3.6V0h-6v5.2h4.4C226.1,4.4,226.6,3.8,227.4,3.6z"/>
				<path class="st0" d="M227.4,25.7V7.9c-0.8-0.2-1.4-0.8-1.6-1.6h-4.4v21h4.4C226.1,26.5,226.6,25.9,227.4,25.7z"/>
				<path class="st0" d="M230.1,5.2h30.4V0h-32v3.6C229.3,3.8,229.9,4.4,230.1,5.2z"/>
			</g>
			<g>
				<path class="st0" d="M296,5.2h21.7V0h-23.3v3.6C295.2,3.8,295.8,4.4,296,5.2z"/>
				<path class="st0" d="M293.3,3.6V0h-23.3v5.2h21.7C292,4.4,292.6,3.8,293.3,3.6z"/>
				<path class="st0" d="M294.5,7.9v17.8c0.8,0.2,1.4,0.8,1.6,1.6h4.5V11.5h17.2V6.3H296C295.8,7.1,295.2,7.7,294.5,7.9z"/>
				<path class="st0" d="M293.3,30c-0.8-0.2-1.4-0.8-1.6-1.6h-4.4v22h4.4c0.2-0.8,0.8-1.4,1.6-1.6V30z"/>
				<path class="st0" d="M294.5,53.1v3.6h6v-5.2H296C295.8,52.3,295.2,52.9,294.5,53.1z"/>
				<path class="st0" d="M291.8,51.5h-4.4v5.2h5.9v-3.6C292.6,52.9,292,52.3,291.8,51.5z"/>
				<path class="st0" d="M294.5,30v18.9c0.8,0.2,1.4,0.8,1.6,1.6h4.5v-22H296C295.8,29.2,295.2,29.8,294.5,30z"/>
				<path class="st0" d="M287.4,11.5v15.8h4.4c0.2-0.8,0.8-1.4,1.6-1.6V7.9c-0.8-0.2-1.4-0.8-1.6-1.6h-21.7v5.2H287.4z"/>
			</g>
			<g>
				<path class="st0" d="M162.9,27.3h4.5c0.2-0.7,0.8-1.3,1.5-1.5V7.8c-0.9-0.3-1.6-1.1-1.6-2.1s0.7-1.8,1.6-2.1V0h-6V27.3z"/>
				<path class="st0" d="M167.4,28.4h-4.5v28.3h6V29.9C168.2,29.7,167.6,29.1,167.4,28.4z"/>
				<path class="st0" d="M205.5,25.7V0h-6v27.3h4.4C204.2,26.5,204.8,25.9,205.5,25.7z"/>
				<path class="st0" d="M199.6,33.3L173.1,0H170v3.6c1,0.2,1.7,1.1,1.7,2.2c0,0.5-0.2,0.9-0.4,1.3l33.9,41.9c0.1,0,0.2-0.1,0.3-0.1
					V30c-0.8-0.2-1.4-0.8-1.6-1.6h-4.4L199.6,33.3L199.6,33.3z"/>
				<path class="st0" d="M206.7,30v18.9c0.9,0.2,1.6,1.1,1.6,2.1s-0.7,1.9-1.6,2.1v3.6h6V28.4h-4.4C208,29.2,207.4,29.8,206.7,30z"
					/>
				<path class="st0" d="M212.6,0h-6v25.7c0.8,0.2,1.4,0.8,1.6,1.6h4.4V0z"/>
				<path class="st0" d="M203.9,51c0-0.5,0.2-0.9,0.4-1.3L170.4,7.8c-0.1,0.1-0.3,0.1-0.4,0.1v17.8c0.8,0.2,1.4,0.8,1.7,1.6h4.3v-3
					l26.1,32.4h3.4v-3.6C204.6,52.8,203.9,52,203.9,51z"/>
				<path class="st0" d="M170,30v26.7h6V28.4h-4.3C171.5,29.2,170.8,29.8,170,30z"/>
			</g>
		</g>
	</g>
</g>
<g>
	<g>
		<path class="st0" d="M75.7,89.2V69.9h3.2v19.3C78.9,89.2,75.7,89.2,75.7,89.2z"/>
		<path class="st0" d="M100.2,89.2h-3.9l-9.5-15.4h-0.1l0.1,0.9c0.1,1.6,0.2,3.1,0.2,4.5v10h-2.9V69.9h3.8l9.5,15.3h0.1
			c0-0.2-0.1-0.9-0.1-2.2c-0.1-1.3-0.1-2.3-0.1-3V69.9h2.9V89.2z"/>
		<path class="st0" d="M116.4,69.9h3.3l-6.8,19.3h-3.3l-6.7-19.3h3.2l4,12c0.2,0.6,0.4,1.3,0.7,2.2c0.2,0.9,0.4,1.6,0.5,2
			c0.1-0.7,0.3-1.4,0.5-2.3s0.4-1.5,0.6-1.9L116.4,69.9z"/>
		<path class="st0" d="M133.3,89.2h-10.9V69.9h10.9v2.7h-7.8v5.2h7.3v2.6h-7.3v6.1h7.8V89.2z"/>
		<path class="st0" d="M148.7,84c0,1.7-0.6,3.1-1.9,4s-2.9,1.5-5.1,1.5c-2.2,0-4-0.3-5.4-1v-3c0.9,0.4,1.8,0.7,2.8,1
			c1,0.2,1.9,0.4,2.8,0.4c1.2,0,2.2-0.2,2.8-0.7c0.6-0.5,0.9-1.1,0.9-1.9c0-0.7-0.3-1.3-0.8-1.8c-0.6-0.5-1.7-1.1-3.4-1.8
			c-1.8-0.7-3-1.5-3.7-2.4c-0.7-0.9-1.1-2-1.1-3.3c0-1.6,0.6-2.9,1.7-3.8c1.1-0.9,2.7-1.4,4.6-1.4c1.9,0,3.7,0.4,5.5,1.2l-1,2.6
			c-1.7-0.7-3.2-1.1-4.6-1.1c-1,0-1.8,0.2-2.3,0.7c-0.5,0.4-0.8,1-0.8,1.8c0,0.5,0.1,0.9,0.3,1.3s0.6,0.7,1,1s1.4,0.7,2.6,1.2
			c1.4,0.6,2.5,1.1,3.1,1.7c0.7,0.5,1.1,1.1,1.4,1.7C148.6,82.4,148.7,83.1,148.7,84z"/>
		<path class="st0" d="M159.3,89.2h-3.2V72.6h-5.7v-2.7h14.5v2.7h-5.7L159.3,89.2L159.3,89.2z"/>
		<path class="st0" d="M176.4,89.2l-5.6-16.1h-0.1c0.1,2.4,0.2,4.6,0.2,6.7v9.4H168V69.9h4.4l5.4,15.3h0.1l5.5-15.3h4.5v19.3h-3
			v-9.5c0-1,0-2.2,0.1-3.8s0.1-2.5,0.1-2.8H185l-5.8,16.1C179.1,89.2,176.4,89.2,176.4,89.2z"/>
		<path class="st0" d="M204.1,89.2h-10.9V69.9h10.9v2.7h-7.8v5.2h7.3v2.6h-7.3v6.1h7.8V89.2z"/>
		<path class="st0" d="M224.4,89.2h-3.9l-9.5-15.4H211l0.1,0.9c0.1,1.6,0.2,3.1,0.2,4.5v10h-2.9V69.9h3.8l9.5,15.3h0.1
			c0-0.2-0.1-0.9-0.1-2.2c-0.1-1.3-0.1-2.3-0.1-3V69.9h2.9L224.4,89.2L224.4,89.2z"/>
		<path class="st0" d="M236.3,89.2h-3.1V72.6h-5.7v-2.7H242v2.7h-5.7L236.3,89.2L236.3,89.2z"/>
	</g>
</g>
<g>
	<g>
		<g>
			<path class="st0" d="M31.7,6.6c1,0.6,1.9,1.4,2.8,2.4c2.3,2.6,3.5,6,3.5,10.3c0,4.2-1,7.6-3,10.3c-1.9,2.5-4.1,3.8-6.7,4.1
				c-0.1,0.4-0.3,0.8-0.6,1.1l13,22h6.6L34.8,35.6c1.4-0.8,2.7-1.8,3.9-2.9s2.1-2.4,2.9-3.9c0.8-1.4,1.4-3,1.8-4.6
				c0.4-1.6,0.6-3.3,0.6-5.1c0-2.3-0.5-4.7-1.4-6.9C41.8,10,40.5,8.1,39,6.3h-7.2C31.8,6.4,31.8,6.5,31.7,6.6z"/>
			<path class="st0" d="M8.7,5.2h2.8h3.9h11.5h0.7c0.2-0.9,1.1-1.7,2.1-1.7c1,0,1.9,0.7,2.1,1.7h6.1c-1.5-1.4-3.1-2.6-5-3.5
				C30.7,0.6,28.2,0,25.5,0H7.1v3.6C7.8,3.8,8.5,4.4,8.7,5.2z"/>
			<path class="st0" d="M4.3,33.1c0-1,0.7-1.9,1.6-2.1V7.9C5,7.6,4.3,6.8,4.3,5.7S5,3.9,5.9,3.6V0H0v56.7h5.9V35.3
				C5,35,4.3,34.2,4.3,33.1z"/>
			<path class="st0" d="M26.1,35.4c-1,0-1.9-0.7-2.1-1.7H8.7c-0.2,0.8-0.8,1.4-1.6,1.6v21.4h6V38.4h8.5l10.9,18.3h6.8L26.7,35.3
				C26.5,35.3,26.3,35.4,26.1,35.4z"/>
			<path class="st0" d="M29.7,8c-1,0-1.9-0.7-2.1-1.6c-0.2,0-0.5,0-0.7,0H15.4h-3.9H8.7C8.5,7.1,7.9,7.7,7.1,7.9V31
				c0.8,0.2,1.4,0.8,1.6,1.6H24c0.2-1,1.1-1.6,2.1-1.6c1,0,1.9,0.7,2.1,1.6c2.2-0.2,4.1-1.4,5.8-3.6c1.9-2.5,2.8-5.7,2.8-9.6
				c0-4-1.1-7.2-3.2-9.5c-0.9-0.9-1.8-1.7-2.7-2.3C30.6,7.8,30.2,8,29.7,8z M29.1,24.8c-1.1,1.5-2.5,2.2-4,2.2h-12V11.5h11.6
				c1.5,0,2.9,0.7,4.1,2.1c1.3,1.4,1.9,3.2,1.9,5.6C30.7,21.5,30.2,23.3,29.1,24.8z"/>
		</g>
		<g>
			<path class="st0" d="M62,25.7V7.9c-0.8-0.2-1.4-0.8-1.6-1.6h-4.4v21h4.4C60.7,26.5,61.3,25.9,62,25.7z"/>
			<path class="st0" d="M63.2,25.7c0.8,0.2,1.4,0.8,1.6,1.6h26.8v-4.7H69.2v-11h26V6.3H64.7c-0.2,0.8-0.8,1.4-1.6,1.6
				C63.2,7.9,63.2,25.7,63.2,25.7z"/>
			<path class="st0" d="M62,48.8V30c-0.8-0.2-1.4-0.8-1.6-1.6h-4.4v22h4.4C60.7,49.6,61.3,49,62,48.8z"/>
			<path class="st0" d="M62,3.6V0h-6v5.2h4.4C60.7,4.4,61.3,3.8,62,3.6z"/>
			<path class="st0" d="M60.5,51.5h-4.4v5.2h6v-3.6C61.3,52.9,60.7,52.3,60.5,51.5z"/>
			<path class="st0" d="M69.2,45.2v-12h22.4v-4.7H64.7c-0.2,0.8-0.8,1.4-1.6,1.6v18.9c0.8,0.2,1.4,0.8,1.6,1.6h31.2v-5.2L69.2,45.2
				L69.2,45.2z"/>
			<path class="st0" d="M64.7,5.2h30.4V0h-32v3.6C63.9,3.8,64.5,4.4,64.7,5.2z"/>
			<path class="st0" d="M63.2,53.1v3.6h32.7v-5.2H64.7C64.5,52.3,63.9,52.9,63.2,53.1z"/>
		</g>
		<g>
			<path class="st0" d="M145.3,28.4h-4.4h-0.1c0,2.4-0.3,4.6-1,6.6c-0.7,2-1.6,3.8-2.9,5.3s-2.8,2.7-4.7,3.5s-4,1.3-6.4,1.3h-8.1
				V28.4h-4.4c-0.2,0.8-0.8,1.4-1.6,1.6v18.9c0.8,0.2,1.4,0.8,1.6,1.6h13.4c3,0,5.8-0.5,8.3-1.6c2.5-1,4.6-2.5,6.4-4.4
				c1.8-1.9,3.1-4.2,4.1-6.9c0.8-2.2,1.2-4.8,1.4-7.5C146.1,29.7,145.5,29.1,145.3,28.4z"/>
			<path class="st0" d="M110.7,30c-0.8-0.2-1.4-0.8-1.6-1.6h-4.4v22h4.4c0.2-0.8,0.8-1.4,1.6-1.6V30z"/>
			<path class="st0" d="M148,30c-0.1,2.8-0.6,5.4-1.4,7.8c-1,2.8-2.4,5.3-4.3,7.3c-1.9,2-4.1,3.6-6.8,4.7c-2.6,1.1-5.6,1.7-8.7,1.7
				h-13.4c-0.2,0.8-0.8,1.4-1.6,1.6v3.6h14c4.3,0,8.1-0.7,11.6-2s6.5-3.3,8.9-5.8c2.5-2.5,4.4-5.5,5.7-8.9c1.3-3.5,2-7.3,2-11.6
				h-4.5C149.4,29.2,148.8,29.8,148,30z"/>
			<path class="st0" d="M109.1,27.3c0.2-0.8,0.8-1.4,1.6-1.6V7.9c-0.8-0.2-1.4-0.8-1.6-1.6h-4.4v21H109.1z"/>
			<path class="st0" d="M109.1,51.5h-4.4v5.2h6v-3.6C109.9,52.9,109.3,52.3,109.1,51.5z"/>
			<path class="st0" d="M110.7,3.6V0h-6v5.2h4.4C109.3,4.4,109.9,3.8,110.7,3.6z"/>
			<path class="st0" d="M111.8,25.7c0.8,0.2,1.4,0.8,1.6,1.6h4.4V11.5h8.1c2.3,0,4.4,0.4,6.3,1.2c1.9,0.8,3.4,1.9,4.7,3.4
				c1.3,1.5,2.2,3.3,2.9,5.3c0.6,1.8,0.9,3.7,1,5.8h0.1h4.4c0.2-0.7,0.7-1.3,1.4-1.5c-0.2-2.1-0.6-4.1-1.2-6c-0.9-2.6-2.1-5-3.8-7
				c-1.7-2-3.8-3.5-6.3-4.7c-2.5-1.2-5.4-1.7-8.8-1.7h-13.4c-0.2,0.8-0.8,1.4-1.6,1.6C111.8,7.9,111.8,25.7,111.8,25.7z"/>
			<path class="st0" d="M113.4,5.2h13.4c3.5,0,6.6,0.6,9.3,1.8s4.9,2.9,6.7,5c1.8,2.1,3.1,4.6,4,7.4c0.6,2,1.1,4.1,1.2,6.3
				c0.8,0.2,1.5,0.8,1.7,1.6h4.5c-0.1-3.5-0.7-6.8-1.8-10c-1.2-3.4-3-6.4-5.4-9c-2.4-2.6-5.3-4.6-8.8-6.1c-3.5-1.5-7.6-2.2-12.3-2.2
				h-14v3.6C112.6,3.8,113.2,4.4,113.4,5.2z"/>
		</g>
		<g>
			<path class="st0" d="M225.9,51.5h-4.4v5.2h6v-3.6C226.6,52.9,226.1,52.3,225.9,51.5z"/>
			<path class="st0" d="M227.4,48.8V30c-0.8-0.2-1.4-0.8-1.6-1.6h-4.4v22h4.4C226.1,49.6,226.6,49,227.4,48.8z"/>
			<path class="st0" d="M228.6,53.1v3.6h32.7v-5.2h-31.2C229.9,52.3,229.3,52.9,228.6,53.1z"/>
			<path class="st0" d="M228.6,25.7c0.8,0.2,1.4,0.8,1.6,1.6h26.8v-4.7h-22.4v-11h26V6.3h-30.4c-0.2,0.8-0.8,1.4-1.6,1.6V25.7z"/>
			<path class="st0" d="M234.5,45.2v-12h22.4v-4.7h-26.8c-0.2,0.8-0.8,1.4-1.6,1.6v18.9c0.8,0.2,1.4,0.8,1.6,1.6h31.2v-5.2
				L234.5,45.2L234.5,45.2z"/>
			<path class="st0" d="M227.4,3.6V0h-6v5.2h4.4C226.1,4.4,226.6,3.8,227.4,3.6z"/>
			<path class="st0" d="M227.4,25.7V7.9c-0.8-0.2-1.4-0.8-1.6-1.6h-4.4v21h4.4C226.1,26.5,226.6,25.9,227.4,25.7z"/>
			<path class="st0" d="M230.1,5.2h30.4V0h-32v3.6C229.3,3.8,229.9,4.4,230.1,5.2z"/>
		</g>
		<g>
			<path class="st0" d="M296,5.2h21.7V0h-23.3v3.6C295.2,3.8,295.8,4.4,296,5.2z"/>
			<path class="st0" d="M293.3,3.6V0h-23.3v5.2h21.7C292,4.4,292.6,3.8,293.3,3.6z"/>
			<path class="st0" d="M294.5,7.9v17.8c0.8,0.2,1.4,0.8,1.6,1.6h4.5V11.5h17.2V6.3H296C295.8,7.1,295.2,7.7,294.5,7.9z"/>
			<path class="st0" d="M293.3,30c-0.8-0.2-1.4-0.8-1.6-1.6h-4.4v22h4.4c0.2-0.8,0.8-1.4,1.6-1.6V30z"/>
			<path class="st0" d="M294.5,53.1v3.6h6v-5.2H296C295.8,52.3,295.2,52.9,294.5,53.1z"/>
			<path class="st0" d="M291.8,51.5h-4.4v5.2h5.9v-3.6C292.6,52.9,292,52.3,291.8,51.5z"/>
			<path class="st0" d="M294.5,30v18.9c0.8,0.2,1.4,0.8,1.6,1.6h4.5v-22H296C295.8,29.2,295.2,29.8,294.5,30z"/>
			<path class="st0" d="M287.4,11.5v15.8h4.4c0.2-0.8,0.8-1.4,1.6-1.6V7.9c-0.8-0.2-1.4-0.8-1.6-1.6h-21.7v5.2H287.4z"/>
		</g>
		<g>
			<path class="st0" d="M162.9,27.3h4.5c0.2-0.7,0.8-1.3,1.5-1.5V7.8c-0.9-0.3-1.6-1.1-1.6-2.1s0.7-1.8,1.6-2.1V0h-6V27.3z"/>
			<path class="st0" d="M167.4,28.4h-4.5v28.3h6V29.9C168.2,29.7,167.6,29.1,167.4,28.4z"/>
			<path class="st0" d="M205.5,25.7V0h-6v27.3h4.4C204.2,26.5,204.8,25.9,205.5,25.7z"/>
			<path class="st0" d="M199.6,33.3L173.1,0H170v3.6c1,0.2,1.7,1.1,1.7,2.2c0,0.5-0.2,0.9-0.4,1.3l33.9,41.9c0.1,0,0.2-0.1,0.3-0.1
				V30c-0.8-0.2-1.4-0.8-1.6-1.6h-4.4L199.6,33.3L199.6,33.3z"/>
			<path class="st0" d="M206.7,30v18.9c0.9,0.2,1.6,1.1,1.6,2.1s-0.7,1.9-1.6,2.1v3.6h6V28.4h-4.4C208,29.2,207.4,29.8,206.7,30z"/>
			<path class="st0" d="M212.6,0h-6v25.7c0.8,0.2,1.4,0.8,1.6,1.6h4.4V0z"/>
			<path class="st0" d="M203.9,51c0-0.5,0.2-0.9,0.4-1.3L170.4,7.8c-0.1,0.1-0.3,0.1-0.4,0.1v17.8c0.8,0.2,1.4,0.8,1.7,1.6h4.3v-3
				l26.1,32.4h3.4v-3.6C204.6,52.8,203.9,52,203.9,51z"/>
			<path class="st0" d="M170,30v26.7h6V28.4h-4.3C171.5,29.2,170.8,29.8,170,30z"/>
		</g>
	</g>
</g>
</svg>
