<?xml version="1.0" encoding="utf-8"?>
<!-- Generator: Adobe Illustrator 23.0.5, SVG Export Plug-In . SVG Version: 6.00 Build 0)  -->
<svg version="1.1" baseProfile="basic" id="Layer_1"
	 xmlns="http://www.w3.org/2000/svg" xmlns:xlink="http://www.w3.org/1999/xlink" x="0px" y="0px" viewBox="0 0 317.74 89.49"
	 xml:space="preserve">
<g>
	<g>
		<path d="M143.95,79.4c0,3.18-0.88,5.61-2.65,7.3c-1.77,1.68-4.31,2.52-7.63,2.52h-5.39V69.95h5.96c3.07,0,5.45,0.83,7.16,2.48
			C143.1,74.08,143.95,76.41,143.95,79.4z M140.63,79.51c0-4.61-2.16-6.92-6.47-6.92h-2.73v13.99h2.24
			C138.31,86.58,140.63,84.22,140.63,79.51z"/>
		<path d="M165.34,79.56c0,3.14-0.78,5.58-2.35,7.32s-3.79,2.61-6.66,2.61c-2.91,0-5.14-0.86-6.7-2.59
			c-1.56-1.73-2.34-4.18-2.34-7.36s0.78-5.63,2.35-7.33c1.57-1.71,3.81-2.56,6.72-2.56c2.87,0,5.08,0.87,6.64,2.6
			C164.56,73.98,165.34,76.42,165.34,79.56z M150.63,79.56c0,2.37,0.48,4.17,1.44,5.4s2.38,1.84,4.26,1.84
			c1.87,0,3.28-0.61,4.24-1.82s1.43-3.02,1.43-5.42c0-2.36-0.47-4.16-1.42-5.38c-0.95-1.22-2.35-1.83-4.23-1.83
			c-1.89,0-3.32,0.61-4.28,1.83C151.11,75.4,150.63,77.2,150.63,79.56z"/>
		<path d="M177.95,89.23l-5.59-16.1h-0.1c0.15,2.39,0.22,4.63,0.22,6.72v9.37h-2.86V69.95h4.44l5.35,15.33h0.08L185,69.95h4.46
			v19.28h-3.03V79.7c0-0.96,0.02-2.21,0.07-3.74c0.05-1.54,0.09-2.47,0.12-2.79h-0.1l-5.79,16.07L177.95,89.23L177.95,89.23z"/>
	</g>
	<g>
		<g>
			<g>
				<path d="M31.71,6.63c0.97,0.61,1.91,1.4,2.81,2.39c2.33,2.55,3.51,6,3.51,10.28c0,4.16-1.03,7.63-3.05,10.31
					c-1.88,2.49-4.14,3.84-6.7,4.07c-0.1,0.41-0.31,0.78-0.6,1.06L40.66,56.7h6.63L34.81,35.61c1.44-0.8,2.73-1.77,3.87-2.91
					s2.12-2.44,2.91-3.87c0.8-1.44,1.41-2.97,1.84-4.59c0.42-1.62,0.64-3.31,0.64-5.07c0-2.34-0.47-4.66-1.4-6.95
					c-0.89-2.19-2.12-4.15-3.67-5.91h-7.19C31.79,6.42,31.76,6.53,31.71,6.63z"/>
				<path d="M8.67,5.16h2.8h3.89h11.47h0.73c0.25-0.95,1.11-1.65,2.14-1.65c1.03,0,1.88,0.7,2.14,1.65h6.08
					c-1.45-1.39-3.09-2.56-4.96-3.48C30.67,0.56,28.21,0,25.55,0H7.07v3.59C7.85,3.78,8.46,4.39,8.67,5.16z"/>
				<path d="M4.31,33.14c0-1.01,0.68-1.86,1.61-2.12V7.86C4.99,7.59,4.31,6.75,4.31,5.74s0.68-1.86,1.61-2.12V0H0v56.69h5.92V35.27
					C4.99,35,4.31,34.15,4.31,33.14z"/>
				<path d="M26.12,35.36c-1.03,0-1.88-0.7-2.14-1.65H8.67c-0.21,0.77-0.82,1.38-1.6,1.57v21.4h6.03V38.41h8.54L32.5,56.69h6.81
					l-12.65-21.4C26.49,35.33,26.31,35.36,26.12,35.36z"/>
				<path d="M29.68,7.96c-1.01,0-1.85-0.68-2.12-1.6c-0.25-0.02-0.49-0.04-0.74-0.04H15.35h-3.89h-2.8c-0.2,0.76-0.8,1.36-1.56,1.56
					v23.13c0.76,0.2,1.36,0.8,1.56,1.56h15.32c0.25-0.95,1.11-1.65,2.14-1.65c1.01,0,1.85,0.68,2.12,1.6
					c2.22-0.21,4.13-1.39,5.81-3.61c1.87-2.48,2.82-5.71,2.82-9.61c0-3.98-1.08-7.17-3.21-9.5c-0.87-0.95-1.77-1.7-2.7-2.26
					C30.61,7.8,30.17,7.96,29.68,7.96z M29.06,24.79c-1.12,1.46-2.45,2.2-3.99,2.2H13.09V11.5h11.58c1.49,0,2.87,0.69,4.15,2.08
					c1.28,1.38,1.92,3.25,1.92,5.59C30.74,21.45,30.18,23.33,29.06,24.79z"/>
			</g>
			<g>
				<path d="M62.03,25.7V7.87c-0.76-0.2-1.36-0.8-1.56-1.56h-4.41v20.95h4.41C60.67,26.5,61.27,25.9,62.03,25.7z"/>
				<path d="M63.18,25.7c0.76,0.2,1.36,0.8,1.56,1.56h26.77v-4.74H69.15V11.5h26.03V6.31H64.74c-0.21,0.76-0.8,1.36-1.56,1.56
					C63.18,7.87,63.18,25.7,63.18,25.7z"/>
				<path d="M62.03,48.82V29.97c-0.76-0.2-1.36-0.8-1.56-1.56h-4.41v21.97h4.41C60.67,49.62,61.27,49.02,62.03,48.82z"/>
				<path d="M62.03,3.6V0h-5.97v5.16h4.41C60.67,4.4,61.27,3.8,62.03,3.6z"/>
				<path d="M60.47,51.53h-4.41v5.17h5.97v-3.6C61.27,52.88,60.67,52.29,60.47,51.53z"/>
				<path d="M69.15,45.19V33.14h22.36v-4.73H64.74c-0.2,0.76-0.8,1.36-1.56,1.56v18.85c0.76,0.2,1.36,0.8,1.56,1.56H95.9V45.2H69.15
					V45.19z"/>
				<path d="M64.74,5.16h30.44V0h-32v3.6C63.94,3.8,64.53,4.4,64.74,5.16z"/>
				<path d="M63.18,53.09v3.6H95.9v-5.17H64.74C64.53,52.29,63.94,52.88,63.18,53.09z"/>
			</g>
			<g>
				<path d="M145.34,28.41h-4.44h-0.12c-0.01,2.39-0.34,4.6-0.99,6.61c-0.67,2.05-1.63,3.83-2.88,5.35s-2.81,2.7-4.67,3.55
					s-3.99,1.28-6.39,1.28h-8.06V28.41h-4.41c-0.2,0.76-0.8,1.36-1.56,1.56v18.85c0.76,0.2,1.36,0.8,1.56,1.56h13.38
					c3.03,0,5.82-0.53,8.3-1.58c2.47-1.05,4.61-2.54,6.36-4.44c1.75-1.91,3.12-4.24,4.07-6.93c0.79-2.25,1.24-4.76,1.37-7.47
					C146.11,29.73,145.54,29.15,145.34,28.41z"/>
				<path d="M110.66,29.97c-0.76-0.2-1.36-0.8-1.56-1.56h-4.41v21.97h4.41c0.2-0.76,0.8-1.36,1.56-1.56V29.97z"/>
				<path d="M147.99,29.99c-0.14,2.82-0.61,5.45-1.43,7.81c-1,2.84-2.44,5.31-4.3,7.33c-1.86,2.02-4.14,3.61-6.76,4.73
					c-2.62,1.11-5.56,1.67-8.74,1.67h-13.38c-0.2,0.76-0.8,1.36-1.56,1.56v3.6h14.04c4.26,0,8.13-0.68,11.62-2.04
					s6.47-3.27,8.94-5.75c2.48-2.48,4.38-5.46,5.71-8.94c1.32-3.45,1.98-7.3,1.99-11.56h-4.49C149.4,29.19,148.78,29.8,147.99,29.99
					z"/>
				<path d="M109.09,27.26c0.2-0.76,0.8-1.36,1.56-1.56V7.88c-0.76-0.21-1.36-0.8-1.56-1.57h-4.41v20.95H109.09z"/>
				<path d="M109.09,51.53h-4.41v5.17h5.97v-3.6C109.89,52.88,109.3,52.29,109.09,51.53z"/>
				<path d="M110.66,3.6V0h-5.97v5.16h4.41C109.3,4.4,109.9,3.81,110.66,3.6z"/>
				<path d="M111.81,25.7c0.76,0.2,1.36,0.8,1.56,1.56h4.41V11.5h8.06c2.34,0,4.44,0.4,6.31,1.2c1.86,0.8,3.43,1.94,4.71,3.43
					c1.28,1.49,2.25,3.26,2.92,5.31c0.57,1.77,0.88,3.71,0.96,5.82h0.15h4.44c0.19-0.72,0.74-1.29,1.45-1.53
					c-0.18-2.1-0.56-4.12-1.17-6.03c-0.85-2.65-2.13-5-3.81-6.97c-1.68-1.96-3.79-3.54-6.27-4.69c-2.49-1.15-5.44-1.73-8.78-1.73
					h-13.38c-0.2,0.76-0.8,1.36-1.56,1.57C111.81,7.88,111.81,25.7,111.81,25.7z"/>
				<path d="M113.37,5.16h13.38c3.5,0,6.62,0.62,9.26,1.84s4.88,2.9,6.67,4.99c1.78,2.09,3.14,4.56,4.03,7.36
					c0.64,2,1.05,4.11,1.23,6.31c0.82,0.17,1.46,0.8,1.68,1.6h4.49c-0.1-3.51-0.7-6.84-1.79-9.97c-1.2-3.43-2.98-6.43-5.35-8.98
					c-2.37-2.55-5.31-4.58-8.82-6.07C134.63,0.75,130.53,0,125.84,0H111.8v3.6C112.57,3.81,113.16,4.4,113.37,5.16z"/>
			</g>
			<g>
				<path d="M225.85,51.53h-4.41v5.17h5.97v-3.6C226.65,52.88,226.05,52.29,225.85,51.53z"/>
				<path d="M227.41,48.82V29.97c-0.76-0.2-1.36-0.8-1.56-1.56h-4.41v21.97h4.41C226.05,49.62,226.65,49.02,227.41,48.82z"/>
				<path d="M228.56,53.09v3.6h32.72v-5.17h-31.16C229.92,52.29,229.32,52.88,228.56,53.09z"/>
				<path d="M228.56,25.7c0.76,0.2,1.36,0.8,1.56,1.56h26.77v-4.74h-22.36V11.5h26.03V6.31h-30.44c-0.2,0.76-0.8,1.36-1.56,1.56
					V25.7z"/>
				<path d="M234.53,45.19V33.14h22.36v-4.73h-26.77c-0.2,0.76-0.8,1.36-1.56,1.56v18.85c0.76,0.2,1.36,0.8,1.56,1.56h31.16V45.2
					h-26.75V45.19z"/>
				<path d="M227.41,3.6V0h-5.97v5.16h4.41C226.05,4.4,226.65,3.8,227.41,3.6z"/>
				<path d="M227.41,25.7V7.87c-0.76-0.2-1.36-0.8-1.56-1.56h-4.41v20.95h4.41C226.05,26.5,226.65,25.9,227.41,25.7z"/>
				<path d="M230.12,5.16h30.44V0h-32v3.6C229.32,3.8,229.92,4.4,230.12,5.16z"/>
			</g>
			<g>
				<path d="M296.04,5.16h21.7V0h-23.26v3.6C295.24,3.8,295.83,4.4,296.04,5.16z"/>
				<path d="M293.33,3.6V0h-23.26v5.16h21.7C291.97,4.4,292.56,3.8,293.33,3.6z"/>
				<path d="M294.47,7.87V25.7c0.76,0.2,1.36,0.8,1.56,1.56h4.45V11.5h17.25V6.31h-21.7C295.83,7.07,295.24,7.67,294.47,7.87z"/>
				<path d="M293.33,29.97c-0.76-0.2-1.36-0.8-1.56-1.56h-4.37v21.97h4.37c0.2-0.76,0.8-1.36,1.56-1.56V29.97z"/>
				<path d="M294.47,53.09v3.6h6.01v-5.17h-4.45C295.83,52.29,295.24,52.88,294.47,53.09z"/>
				<path d="M291.76,51.53h-4.37v5.17h5.93v-3.6C292.56,52.88,291.97,52.29,291.76,51.53z"/>
				<path d="M294.47,29.97v18.85c0.76,0.2,1.36,0.8,1.56,1.56h4.45V28.41h-4.45C295.83,29.17,295.24,29.76,294.47,29.97z"/>
				<path d="M287.39,11.5v15.76h4.37c0.2-0.76,0.8-1.36,1.56-1.56V7.87c-0.76-0.2-1.36-0.8-1.56-1.56h-21.7v5.19H287.39z"/>
			</g>
			<g>
				<path d="M162.91,27.26h4.5c0.2-0.73,0.75-1.31,1.47-1.53V7.84c-0.9-0.28-1.55-1.12-1.55-2.11s0.66-1.82,1.55-2.11V0h-5.97V27.26
					z"/>
				<path d="M167.41,28.41h-4.5V56.7h5.97V29.94C168.16,29.71,167.61,29.14,167.41,28.41z"/>
				<path d="M205.53,25.7V0h-5.97v27.26h4.41C204.17,26.5,204.77,25.9,205.53,25.7z"/>
				<path d="M199.56,33.3L173.13,0h-3.1v3.57c0.99,0.22,1.74,1.1,1.74,2.17c0,0.49-0.16,0.94-0.43,1.3l33.87,41.88
					c0.1-0.05,0.21-0.08,0.33-0.11V29.97c-0.76-0.2-1.36-0.8-1.56-1.56h-4.41v4.89H199.56z"/>
				<path d="M206.68,29.97v18.85c0.95,0.25,1.65,1.11,1.65,2.14s-0.7,1.88-1.65,2.14v3.6h5.97V28.41h-4.41
					C208.04,29.17,207.44,29.76,206.68,29.97z"/>
				<path d="M212.65,0h-5.97v25.7c0.76,0.2,1.36,0.8,1.56,1.56h4.41V0z"/>
				<path d="M203.88,50.95c0-0.49,0.16-0.94,0.43-1.3L170.44,7.76c-0.13,0.06-0.27,0.1-0.42,0.14v17.77
					c0.81,0.18,1.44,0.8,1.66,1.59H176v-2.98l26.11,32.42h3.42v-3.6C204.58,52.83,203.88,51.98,203.88,50.95z"/>
				<path d="M170.03,30v26.7H176V28.41h-4.32C171.47,29.2,170.83,29.82,170.03,30z"/>
			</g>
		</g>
	</g>
</g>
</svg>
