<svg id="Warstwa_1" data-name="Warstwa 1" xmlns="http://www.w3.org/2000/svg" xmlns:xlink="http://www.w3.org/1999/xlink" viewBox="0 0 123.41 32.52"><defs><style>.cls-1{fill:none;}.cls-2{opacity:0.8;}.cls-3{clip-path:url(#clip-path);}.cls-4{fill:#fff;}</style><clipPath id="clip-path" transform="translate(-861.3 -776.55)"><rect class="cls-1" x="860.3" y="775.56" width="125.41" height="34.52"/></clipPath></defs><title>rn</title><g class="cls-2"><g class="cls-3"><path class="cls-4" d="M922.92,805.37h1.41V809h0.56v-3.61h1.41v-0.45h-3.39v0.45Zm8,1.75h2.2v-0.45h-2.2v-1.29h2.36v-0.45h-2.92V809h2.94v-0.46h-2.38v-1.41Zm-13.64.18,0.72-1.89h0l0.71,1.89h-1.43Zm0.42-2.38L916,809h0.58l0.47-1.23h1.79l0.46,1.23h0.62l-1.65-4.06h-0.62Zm-33.61,0h-0.57V809h2.81v-0.46h-2.24v-3.61Zm-7.23,2.38,0.72-1.89h0l0.71,1.89h-1.43Zm0.42-2.38L875.6,809h0.58l0.47-1.23h1.79L878.9,809h0.62l-1.65-4.06h-0.62Zm18.86,2.2h2.2v-0.45h-2.2v-1.29h2.36v-0.45h-2.92V809h2.94v-0.46h-2.38v-1.41Zm13.55-1.75h1.41V809h0.57v-3.61H913v-0.45h-3.39v0.45Zm72.81,1.48-1.27-1.93h-0.67l1.64,2.4V809h0.56v-1.66l1.62-2.4h-0.64Zm-6.41,1.07a1.1,1.1,0,0,1-.25.37,1.14,1.14,0,0,1-.37.24,1.3,1.3,0,0,1-.5.09,1.45,1.45,0,0,1-.65-0.14,1.28,1.28,0,0,1-.45-0.37,1.54,1.54,0,0,1-.26-0.54,2.5,2.5,0,0,1-.08-0.66,2.24,2.24,0,0,1,.08-0.62,1.55,1.55,0,0,1,.26-0.53,1.26,1.26,0,0,1,.44-0.37,1.42,1.42,0,0,1,.65-0.14,1.34,1.34,0,0,1,.77.22,1,1,0,0,1,.42.65h0.56a1.47,1.47,0,0,0-.2-0.57,1.41,1.41,0,0,0-.39-0.41,1.72,1.72,0,0,0-.53-0.25,2.25,2.25,0,0,0-.63-0.09,2.11,2.11,0,0,0-.86.17,1.79,1.79,0,0,0-.63.46,2,2,0,0,0-.38.68,2.61,2.61,0,0,0-.13.83,2.77,2.77,0,0,0,.12.83,1.91,1.91,0,0,0,.37.67,1.7,1.7,0,0,0,.61.45,2.12,2.12,0,0,0,.86.16,1.68,1.68,0,0,0,1.83-1.62h-0.56a1.51,1.51,0,0,1-.11.47m-32.63-.62,0.72-1.89h0l0.71,1.89h-1.43Zm0.42-2.38L942.2,809h0.57l0.48-1.23H945L945.5,809h0.62l-1.65-4.06h-0.62Zm8.06,2.38h1.35a1.33,1.33,0,0,1-.08.52,1.17,1.17,0,0,1-.26.42,1.25,1.25,0,0,1-.43.28,1.57,1.57,0,0,1-.59.1,1.39,1.39,0,0,1-.62-0.13,1.36,1.36,0,0,1-.45-0.36,1.59,1.59,0,0,1-.28-0.52,2,2,0,0,1-.09-0.61,2.46,2.46,0,0,1,.08-0.63,1.68,1.68,0,0,1,.26-0.55,1.33,1.33,0,0,1,.45-0.39,1.39,1.39,0,0,1,.66-0.15,1.75,1.75,0,0,1,.45.05,1.23,1.23,0,0,1,.38.16,1,1,0,0,1,.28.27,1,1,0,0,1,.15.4h0.56a1.59,1.59,0,0,0-.22-0.61,1.46,1.46,0,0,0-.4-0.42,1.68,1.68,0,0,0-.55-0.24,2.66,2.66,0,0,0-.65-0.08,2,2,0,0,0-.88.18,1.83,1.83,0,0,0-.63.48,2,2,0,0,0-.38.7,2.78,2.78,0,0,0-.13.85,2.2,2.2,0,0,0,.14.77,2,2,0,0,0,.4.65,1.91,1.91,0,0,0,.64.45,2,2,0,0,0,.85.17,2.08,2.08,0,0,0,.74-0.14,1.39,1.39,0,0,0,.62-0.46l0.15,0.51h0.36v-2.14h-1.86v0.45Zm6.8-.18h2.2v-0.45h-2.2v-1.29h2.36v-0.45h-2.93V809h2.94v-0.46h-2.38v-1.41Zm9.44,1.09h0l-2.23-3.3h-0.6V809h0.54v-3.26h0l2.21,3.26h0.62v-4.06h-0.53v3.3ZM905.45,807a1.67,1.67,0,0,0-.44-0.21l-0.49-.13-0.49-.11a2.71,2.71,0,0,1-.44-0.12,0.87,0.87,0,0,1-.31-0.19,0.42,0.42,0,0,1-.11-0.31,0.63,0.63,0,0,1,.08-0.33,0.61,0.61,0,0,1,.21-0.21,1,1,0,0,1,.31-0.11,1.78,1.78,0,0,1,.35,0,1.23,1.23,0,0,1,.72.2,0.84,0.84,0,0,1,.33.64h0.53a1.39,1.39,0,0,0-.13-0.58,1.14,1.14,0,0,0-.33-0.4,1.38,1.38,0,0,0-.49-0.23,2.32,2.32,0,0,0-.6-0.08,2.23,2.23,0,0,0-.57.07,1.61,1.61,0,0,0-.49.22,1.12,1.12,0,0,0-.35.37,1,1,0,0,0-.13.53,0.86,0.86,0,0,0,.12.46,0.92,0.92,0,0,0,.31.3,1.85,1.85,0,0,0,.43.19l0.49,0.13,0.49,0.1a2.37,2.37,0,0,1,.43.13,0.85,0.85,0,0,1,.31.21,0.5,0.5,0,0,1,.11.34,0.64,0.64,0,0,1-.1.36,0.66,0.66,0,0,1-.25.23,1.15,1.15,0,0,1-.35.12,2.15,2.15,0,0,1-.38,0,1.87,1.87,0,0,1-.46-0.06,1.14,1.14,0,0,1-.39-0.18,0.91,0.91,0,0,1-.27-0.3,0.89,0.89,0,0,1-.1-0.44h-0.53a1.38,1.38,0,0,0,.14.64,1.24,1.24,0,0,0,.38.44,1.68,1.68,0,0,0,.56.26,2.53,2.53,0,0,0,.67.09,2.65,2.65,0,0,0,.58-0.07,1.73,1.73,0,0,0,.53-0.21,1.23,1.23,0,0,0,.39-0.38,1.12,1.12,0,0,0,0-1.06,1,1,0,0,0-.31-0.33m-41.72-.38a0.83,0.83,0,0,1-.31.11,2.34,2.34,0,0,1-.37,0h-1.17v-1.42h1.4a0.74,0.74,0,0,1,.57.19,0.71,0.71,0,0,1,.18.5,0.73,0.73,0,0,1-.08.36,0.62,0.62,0,0,1-.21.22m0.8,1.81a2.5,2.5,0,0,1,0-.3c0-.1,0-0.2,0-0.3a2.48,2.48,0,0,0-.05-0.29,0.83,0.83,0,0,0-.1-0.25,0.64,0.64,0,0,0-.18-0.19,0.76,0.76,0,0,0-.3-0.11h0a0.9,0.9,0,0,0,.56-0.38,1.2,1.2,0,0,0,.17-0.65,1,1,0,0,0-.34-0.78,1.43,1.43,0,0,0-.95-0.28h-2V809h0.56v-1.74h1.37a0.77,0.77,0,0,1,.33.06,0.55,0.55,0,0,1,.2.16,0.65,0.65,0,0,1,.11.23c0,0.09,0,.18.06,0.28a1.9,1.9,0,0,1,0,.3v0.29a1.83,1.83,0,0,0,0,.24,0.33,0.33,0,0,0,.08.17h0.63a0.68,0.68,0,0,1-.13-0.24,1.78,1.78,0,0,1-.07-0.28m5-1.34h2.2v-0.45h-2.2v-1.29h2.36v-0.45h-2.92V809h2.94v-0.46h-2.38v-1.41Zm110.22-30.57H961c-4.14,0-4.94.7-5,4.42v3.08h0.54V781c0.06-3.38.64-3.89,4.46-3.89h18.73c4.13,0,4.46.67,4.46,4.46v19.77h-4.81V790a0.27,0.27,0,0,0-.27-0.27h-3.86a0.27,0.27,0,0,0-.27.27v9.47h-1.6V782.21a0.27,0.27,0,0,0-.27-0.27h-5.25a0.27,0.27,0,0,0-.27.27v19.14h-1.37v-3.2a0.27,0.27,0,0,0-.12-0.23L963.16,796a0.27,0.27,0,0,0-.3,0L960,798a0.27,0.27,0,0,0-.12.22v3.16H861.3v0.54h98.84a0.27,0.27,0,0,0,.27-0.27v-3.29l2.6-1.78,2.65,1.75v3.33a0.27,0.27,0,0,0,.27.27h1.91a0.27,0.27,0,0,0,.27-0.27V782.48h4.71v17.28a0.27,0.27,0,0,0,.27.27h2.14a0.27,0.27,0,0,0,.27-0.27v-9.47h3.32V801.6a0.27,0.27,0,0,0,.27.27h5.35a0.27,0.27,0,0,0,.27-0.27v-20c0-4-.49-5-5-5m-36.32,16.32a11.39,11.39,0,0,0,.2,2.63,3.87,3.87,0,0,0,.48,1.12,3.35,3.35,0,0,0,.73.77,5.5,5.5,0,0,0,3.55,1.13,8.46,8.46,0,0,0,3.91-.91V795a7.52,7.52,0,0,1-3.53,1q-2.23,0-2.23-2.44v-7h5V784h-5v-3l-5.84,5.24v0.28h2.73v6.33Zm-13-5.8a4,4,0,0,1,2.74-.92,3.48,3.48,0,0,1,3.77,3.53H929a4.41,4.41,0,0,1,1.39-2.61m-1,10.43a8,8,0,0,0,4.2,1,13,13,0,0,0,3.3-.37,10.85,10.85,0,0,0,2.84-1.24v-2.76a10,10,0,0,1-5.67,1.72,5.28,5.28,0,0,1-3.59-1.21,4.47,4.47,0,0,1-1.51-3.26h11V791a7.47,7.47,0,0,0-1.86-5.32,6.5,6.5,0,0,0-5-2,7.11,7.11,0,0,0-5.27,2,7.19,7.19,0,0,0-2,5.3,7.46,7.46,0,0,0,1,3.83,7.38,7.38,0,0,0,2.57,2.63M909.28,781.6l11.9,16.68H924V776.6h-3v16.82l-12-16.82h-2.7v21.68h3.09V781.6Zm-15.56,5.91a5,5,0,0,1,3.7-1.38,7,7,0,0,1,2.94.67v9.05H898a11.29,11.29,0,0,1-2.89-.25,3.75,3.75,0,0,1-1.52-1,4.6,4.6,0,0,1-1.2-3.4,5,5,0,0,1,1.38-3.73m3.12,10.77h6.64V776.6h-3.12v7.68a11.11,11.11,0,0,0-3.42-.6,7.83,7.83,0,0,0-5.56,2,6.79,6.79,0,0,0-2.18,5.19,7.12,7.12,0,0,0,2.08,5.37,7.66,7.66,0,0,0,5.56,2m-19-11.2a4,4,0,0,1,2.74-.92,3.48,3.48,0,0,1,3.77,3.53h-7.89a4.41,4.41,0,0,1,1.39-2.61m-1,10.43a8,8,0,0,0,4.2,1,13,13,0,0,0,3.3-.37,10.86,10.86,0,0,0,2.84-1.24v-2.76a10,10,0,0,1-5.66,1.72,5.28,5.28,0,0,1-3.59-1.21,4.47,4.47,0,0,1-1.51-3.26h11V791a7.47,7.47,0,0,0-1.86-5.32,6.5,6.5,0,0,0-5-2,7.11,7.11,0,0,0-5.27,2,7.19,7.19,0,0,0-2,5.3,7.32,7.32,0,0,0,3.53,6.46m-12.36-6.71a4.64,4.64,0,0,1,1.1-3.09,3.32,3.32,0,0,1,2.61-1.3,4.79,4.79,0,0,1,3,1.4l1.64-2.48a5.81,5.81,0,0,0-3.67-1.61q-2.26,0-4.51,3.3l-0.17.25V784h-3.12v14.28h3.12V790.8Zm99,0.05h-2.33l2.33-3.17v3.17Zm0.14-5-3.69,5a1.89,1.89,0,0,1,.57.91h3V793h-0.94v1h2.91v-1h-0.81v-1.19H966v-1h-1.41v-5h-1Zm-6.51,3.83a13.77,13.77,0,0,0-1.82,1.38A4,4,0,0,0,954,794h5.67l0.08-2.88h-1.08L958.61,793h-3.34a2.12,2.12,0,0,1,.46-0.92,7.15,7.15,0,0,1,1.67-1.34,8.57,8.57,0,0,0,1.78-1.38,2,2,0,0,0,.47-1.31,2,2,0,0,0-.71-1.55,3,3,0,0,0-2-.63,2.59,2.59,0,0,0-2,.74,2.89,2.89,0,0,0-.68,2c0,0.09,0,.2,0,0.34h1.18c0-.14,0-0.28,0-0.44a1.94,1.94,0,0,1,.37-1.33,1.51,1.51,0,0,1,1.17-.4,1.53,1.53,0,0,1,1.07.36,1.19,1.19,0,0,1,.39.92,1.26,1.26,0,0,1-.27.8,4.87,4.87,0,0,1-1,.86" transform="translate(-861.3 -776.55)"/></g></g></svg>