<svg height="740" viewBox="0 0 92 740" width="92" xmlns="http://www.w3.org/2000/svg"><g fill="none" fill-rule="evenodd"><path d="m0 0h92v740h-92z" fill="#fff"/><path d="m33.5667968 740.21544-.7487277-5.529498c-.8903516-1.365238-.7333039-5.862497.4711432-13.491776 1.8066708-11.44392-1.3180777-2.547552-3.165702-10.616949s.069799-1.998782.2442964-6.995736c.1744975-4.996954-.702132-4.026957 2.8073605-19.413851s1.5972737-5.447574-.3954381-13.021733-1.2427892-1.044009-4.8795324-8.175273c-2.4244954-4.754177-3.4891195-7.481364-3.1938721-8.181561 0 0-.0005533-1.827139.7770652-7.308009s4.1535687-8.523729 6.4897437-14.003504c2.3361749-5.479775 2.8538496-11.569874 5.1900245-17.049649 2.3361749-5.479774 2.334884-9.743099 2.3328554-16.44261-.0020286-6.69951.7761432-10.353241 3.3718931-16.44188 2.5957499-6.088638 1.0368246-7.307826 1.0357181-10.962105-.0011065-3.654278 1.5578188-2.43509 1.5559746-8.525554-.0018441-6.090464.2571776-8.526467 2.8538496-11.569874s7.2710505-7.303446 9.0880755-11.565493c1.8170249-4.262047 1.2969528-6.089551 2.8544028-9.742734 1.55745-3.653184 1.036087-9.744013 1.0331363-19.488755-.0029507-9.744743 2.5955655-6.697685 2.5935369-13.397196-.0020286-6.69951 1.036087-9.744012 2.3339619-12.788331 1.297875-3.04432 3.3757659-3.651906 3.373184-12.178556-.0025818-8.526649.5156461-12.789609 1.0336896-17.661615.5180434-4.872006-1.5615072-9.745838-1.5627981-14.009163 1.0370091-6.69878-.2632633-11.572064-.2647387-16.444435.5161993-10.96247-.261788-6.699693-1.5631669-15.227255s-4.1592856-10.35671-8.0584431-19.495144c-3.8991574-9.138434-2.6025733-16.446078-3.6436396-23.146318-1.0410662-6.700241-2.601098-11.573707-5.7193174-15.230176-3.1182195-3.656469-2.8591977-6.092472-4.6788045-10.357074-1.8196068-4.264603-2.8599354-8.528658-5.7172889-8.530666s-4.1581791-6.702431-5.9777859-10.967033c-1.8196068-4.264603-1.5613228-9.136792-1.0442014-17.05403s-.2627101-9.744925-.2645542-15.835389c-.0018442-6.090464.2575464-7.308374-1.3032231-14.618026s-2.0812104-10.355249-2.0837922-18.881899c-.0025819-8.526649 1.0364558-8.525919 2.3321177-18.878795 1.295662-10.352877 4.6703213-17.65906 6.4873463-21.921108 1.8170249-4.262047 4.6721654-11.568596 5.1903933-15.831555.5182279-4.26296 1.0359026-10.353059 2.3328555-16.44261 1.2969528-6.089552 1.8153652-9.743465 1.8142587-13.397744-.0011066-3.654278 1.2976905-3.653365 2.3359905-6.088821 1.0382999-2.435455.5176746-6.090099 2.3356217-7.306914 1.817947-1.216815 3.8952846-3.65154 3.8936249-9.132958-.0016598-5.481417-1.0399598-3.045962-1.8208978-8.527927-.7809379-5.481965-.0014753-4.872371 1.0357182-10.962105 1.0371934-6.089734-.7827822-11.57243-1.8225575-14.009345-1.0397753-2.436916.2577308-6.699328.2564399-10.962653-.0012909-4.2633248-.7827822-11.5724293-.0040572-13.3990209s-.5221007-8.5270147-1.3019321-10.3547015c-.7798315-1.8276868 1.0362713-9.1349659 2.5929836-15.2243347s2.8558782-4.8703634 3.632759-12.787419 1.8140743-14.0067895 2.5913239-20.7057524c.7772497-6.6989628.7772497-6.6989628.7755899-12.1803804-.0016597-5.4814176-.7825977-10.96338285-.7825977-10.96338285-.6243574-1.13270128-1.0197689-3.53640931-1.1862344-7.21112408" stroke="#ddd" transform="matrix(.99939083 -.0348995 .0348995 .99939083 -12.880162 1.889419)"/></g></svg>