<?xml version="1.0" encoding="utf-8"?>
<!-- Generator: Adobe Illustrator 18.1.1, SVG Export Plug-In . SVG Version: 6.00 Build 0)  -->
<svg version="1.1" xmlns="http://www.w3.org/2000/svg" xmlns:xlink="http://www.w3.org/1999/xlink" x="0px" y="0px" width="128px"
   height="128px" viewBox="0 0 128 128" style="enable-background:new 0 0 128 128;" xml:space="preserve">
<g id="BASE">
  <linearGradient id="SVGID_1_" gradientUnits="userSpaceOnUse" x1="63.9997" y1="7.0336" x2="63.9997" y2="120.7894">
    <stop  offset="0" style="stop-color:#4387FD"/>
    <stop  offset="1" style="stop-color:#4683EA"/>
  </linearGradient>
  <path style="fill:url(#SVGID_1_);" d="M27.7906,115.2166L1.54,69.7493c-2.0541-3.5578-2.0541-7.9412,0-11.499l26.2506-45.4672
    c2.0541-3.5578,5.8503-5.7495,9.9585-5.7495h52.5012c4.1082,0,7.9044,2.1917,9.9585,5.7495l26.2506,45.4672
    c2.0541,3.5578,2.0541,7.9412,0,11.499l-26.2506,45.4672c-2.0541,3.5578-5.8503,5.7495-9.9585,5.7495H37.7491
    C33.6409,120.9661,29.8448,118.7744,27.7906,115.2166z"/>
</g>
<g id="shadow">
  <g>
    <defs>
      <path id="SVGID_5_" d="M126.4743,58.3011l-26.3044-45.5995c-2.1084-3.6542-5.9312-5.6978-9.8641-5.7017H37.6976
        c-4.2153,0-7.8957,2.2923-9.8656,5.6983L1.528,58.2981c-2.1079,3.6538-1.965,7.9897-0.002,11.4001l26.3044,45.5999
        c2.1079,3.6538,5.9312,5.6979,9.8637,5.7018l29.5939-0.0039l0,0l23.0149,0.0039c4.2152,0,7.8957-2.2923,9.8646-5.6988
        l26.3049-45.5994C128.5797,66.0479,128.4368,61.7115,126.4743,58.3011z"/>
    </defs>
    <clipPath id="SVGID_2_">
      <use xlink:href="#SVGID_5_"  style="overflow:visible;"/>
    </clipPath>
    <polygon style="opacity:0.07;clip-path:url(#SVGID_2_);" points="46.295,41.6763 48.6875,46.6249 41.1042,50.2499 43.5,54.8124
      36.2813,60.3645 43.4583,67.5416 44.4754,70.5803 49.4788,75.5803 47.0105,78.532 90.6179,122.132 97.75,122.0833
      120.6558,82.3441 74.5938,36.2812 66.6336,39.3211 64.1336,36.8211 57.9665,40.471 53.9325,36.437"/>
  </g>
</g>
<g id="art">
  <g>
    <g>
      <path style="fill:#FFFFFF;" d="M72.3296,46.5005l3.468,6.0067c1.0738-1.2552,2.5599-2.1439,4.2482-2.4568l-3.4429-5.9631
        C75.5171,45.3311,74.0232,46.2049,72.3296,46.5005z"/>
      <path style="fill:#FFFFFF;" d="M75.7975,62.0579l-3.4861,6.0382c1.6948,0.2914,3.1905,1.1616,4.2793,2.4026l3.4549-5.984
        C78.3573,64.2019,76.8713,63.3131,75.7975,62.0579z"/>
      <path style="fill:#FFFFFF;" d="M56.9823,37.0929c0.2808,0.7784,0.4419,1.6135,0.4419,2.4875c0,0.8485-0.1516,1.6605-0.417,2.4195
        h6.9678c-0.2654-0.7591-0.417-1.5711-0.417-2.4195c0-0.874,0.1611-1.7091,0.4419-2.4875H56.9823z"/>
      <path style="fill:#FFFFFF;" d="M63.9928,77.9071c-0.273-0.7688-0.4294-1.5922-0.4294-2.4535
        c0-0.8613,0.1564-1.6849,0.4295-2.4536H57c0.2731,0.7688,0.4295,1.5923,0.4295,2.4536c0,0.8612-0.1564,1.6847-0.4294,2.4535
        H63.9928z"/>
      <path style="fill:#FFFFFF;" d="M45.2705,52.507l3.4844-6.0349c-1.6804-0.3378-3.1552-1.2489-4.2112-2.5206l-3.5214,6.099
        C42.7106,50.363,44.1967,51.2518,45.2705,52.507z"/>
      <path style="fill:#FFFFFF;" d="M80.1472,86.1704l-3.4943-6.0523c-1.0737,1.2551-2.5596,2.1437-4.2477,2.4565l3.4942,6.0522
        C76.9733,87.3717,78.4591,86.4831,80.1472,86.1704z"/>
      <path style="fill:#FFFFFF;" d="M48.7731,68.1245l-3.5024-6.0665c-1.0739,1.2551-2.5599,2.1439-4.2482,2.4567l3.5334,6.12
        C45.6147,69.3657,47.0915,68.4582,48.7731,68.1245z"/>
    </g>
    <g>
      <g>
        <circle style="fill:#FFFFFF;" cx="81.4896" cy="93.4025" r="4.6004"/>
      </g>
      <g>
        <circle style="fill:#FFFFFF;" cx="50.2075" cy="39.2568" r="4.6004"/>
      </g>
      <g>
        <circle style="fill:#FFFFFF;" cx="71.0626" cy="39.2568" r="4.6004"/>
      </g>
      <g>
        <circle style="fill:#FFFFFF;" cx="81.388" cy="57.2826" r="4.6004"/>
      </g>
      <g>
        <circle style="fill:#FFFFFF;" cx="39.6804" cy="57.2826" r="4.6004"/>
      </g>
      <g>
        <circle style="fill:#FFFFFF;" cx="50.2075" cy="75.3425" r="4.6004"/>
      </g>
      <g>
        <circle style="fill:#FFFFFF;" cx="71.0626" cy="75.3425" r="4.6004"/>
      </g>
    </g>
  </g>
</g>
<g id="Guides">
</g>
</svg>
