<?xml version="1.0" encoding="UTF-8"?>
<svg width="128px" height="114px" viewBox="0 0 128 114" version="1.1" xmlns="http://www.w3.org/2000/svg" xmlns:xlink="http://www.w3.org/1999/xlink">
    <!-- Generator: Sketch 42 (36781) - http://www.bohemiancoding.com/sketch -->
    <title>SKE</title>
    <desc>Created with Sketch.</desc>
    <defs>
        <path d="M28.7908,108.2166 L2.54,62.7494 C0.485901491,59.191597 0.485901491,54.808203 2.54,51.2504 L28.79,5.7832 C30.8439668,2.22521265 34.6401092,0.0333124623 38.7484,0.0332 L91.25,0.0332 C95.3582908,0.0333124623 99.1544332,2.22521265 101.2084,5.7832 L127.4591,51.25 C129.513199,54.807803 129.513199,59.191197 127.4591,62.749 L101.2086,108.2162 C99.1546332,111.774187 95.3584908,113.966088 91.2502,113.9662 L38.7492,113.9662 C34.6409917,113.96617 30.8448684,111.774433 28.7908,108.2166 L28.7908,108.2166 Z" id="path-1"></path>
        <path d="M14.77,8.6719 C12.6629583,2.9407807 6.62561415,-0.332097393 0.6733,1.03 C5.70690094,2.18315794 9.46042633,6.39393515 10.0299212,11.5264382 C10.599416,16.6589412 7.86027008,21.5901355 3.2019,23.8187 C2.35907238,24.1102769 1.84526341,24.9627671 1.9811,25.8442 C2.0245,31.7962 2.0025,37.7486 2.0025,43.701 L2.0025,45.2828 L7.4156,45.2828 L7.4156,43.7008 C7.4156,37.7485 7.4376,31.796 7.3942,25.844 C7.25833939,24.9626221 7.77205203,24.1101521 8.6148,23.8185 C14.3004402,21.1453619 16.9792755,14.5533347 14.77,8.6719 L14.77,8.6719 Z" id="path-3"></path>
    </defs>
    <g id="Page-1" stroke="none" stroke-width="1" fill="none" fill-rule="evenodd">
        <g id="Product-Logos" transform="translate(-679.000000, -170.000000)">
            <g id="SKE" transform="translate(678.000000, 170.000000)">
                <g id="SKE-128px">
                    <path d="M28.7906,108.2166 L2.54,62.7493 C0.485880864,59.1915025 0.485880864,54.8080975 2.54,51.2503 L28.7906,5.7831 C30.8447419,2.22530436 34.6408876,0.0336148576 38.7491,0.0336 L91.25,0.0336 C95.3582179,0.0335942312 99.1543732,2.22528926 101.2085,5.7831 L127.4594,51.25 C129.513499,54.807803 129.513499,59.191197 127.4594,62.749 L101.2088,108.2163 C99.1546732,111.774111 95.3585179,113.965806 91.2503,113.9658 L38.7491,113.9658 C34.6409495,113.965847 30.8448181,111.77428 28.7906,108.2166 L28.7906,108.2166 Z" id="Shape" fill="#4285F4" fill-rule="nonzero"></path>
                    <g id="Clipped">
                        <mask id="mask-2" fill="white">
                            <use xlink:href="#path-1"></use>
                        </mask>
                        <g id="Shape"></g>
                        <path d="M80.9894,40.3058 L80.7522,40.5544 C82.7750304,43.8982533 83.0816798,48.00639 81.5777,51.6135 L67.6733,37.7092 L59.6562,66.6249 L59.6562,79.2826 L55.6329,79.2826 L55.6329,75.3639 L47.5529,75.3639 L91.5643,119.3753 L141.4579,119.3753 L141.4579,100.7742 L80.9894,40.3058 Z" id="Shape" fill="#000000" fill-rule="nonzero" opacity="0.07" mask="url(#mask-2)"></path>
                    </g>
                    <path d="M55.5989,67.2315 C55.5989,64.3293 55.6375,61.5893 55.5489,58.8535 C55.5381,58.5207 54.8899,58.1142 54.4582,57.9035 C49.4908916,55.5544432 46.7124282,50.1694827 47.6765778,44.7599877 C48.6407273,39.3504927 53.1085518,35.2570586 58.5815613,34.7688091 C64.0545708,34.2805597 69.1764297,37.5184942 71.0829,42.6719 C73.2920722,48.5533333 70.6132653,55.1452908 64.9277,57.8185 C64.0849392,58.1101478 63.5711935,58.9626029 63.707,59.844 C63.7504,65.796 63.7284,71.7485 63.7284,77.7008 L63.7284,79.2825 L55.6329,79.2825 L55.6329,75.3639 L47.5529,75.3639 L47.5529,67.2315 L55.5989,67.2315 Z M63.7242,46.9015 C63.7371822,45.2586935 62.7584185,43.7701248 61.2449949,43.1309607 C59.7315714,42.4917965 57.9820901,42.8281456 56.8135651,43.9829317 C55.6450401,45.1377178 55.2880241,46.8830988 55.9092449,48.4039757 C56.5304657,49.9248525 58.0073549,50.9211525 59.6502,50.9276 C61.8798579,50.9230599 63.6935124,49.1305514 63.7242,46.9011 L63.7242,46.9015 Z" id="Shape" fill="#FFFFFF" fill-rule="nonzero"></path>
                    <path d="M81.77,42.6719 C79.6629583,36.9407807 73.6256142,33.6679026 67.6733,35.03 C72.7069009,36.1831579 76.4604263,40.3939352 77.0299212,45.5264382 C77.599416,50.6589412 74.8602701,55.5901355 70.2019,57.8187 C69.3590724,58.1102769 68.8452634,58.9627671 68.9811,59.8442 C69.0245,65.7962 69.0025,71.7486 69.0025,77.701 L69.0025,79.2828 L74.4156,79.2828 L74.4156,77.7008 C74.4156,71.7485 74.4376,65.796 74.3942,59.844 C74.2583394,58.9626221 74.772052,58.1101521 75.6148,57.8185 C81.3004402,55.1453619 83.9792755,48.5533347 81.77,42.6719 L81.77,42.6719 Z" id="Shape" fill="#FFFFFF" fill-rule="nonzero"></path>
                    <g id="Clipped" transform="translate(67.000000, 34.000000)">
                        <mask id="mask-4" fill="white">
                            <use xlink:href="#path-3"></use>
                        </mask>
                        <g id="Shape"></g>
                        <path d="M-0.714,33.2315 C-0.714,30.3293 -0.6754,27.5893 -0.764,24.8535 C-0.7748,24.5207 -1.423,24.1142 -1.8547,23.9035 C-6.82200841,21.5544432 -9.60047181,16.1694827 -8.63632224,10.7599877 C-7.67217267,5.35049271 -3.20434823,1.25705856 2.26866128,0.768809108 C7.74167079,0.280559661 12.8635297,3.51849419 14.77,8.6719 C16.9791722,14.5533333 14.3003653,21.1452908 8.6148,23.8185 C7.77203919,24.1101478 7.25829346,24.9626029 7.3941,25.844 C7.4375,31.796 7.4155,37.7485 7.4155,43.7008 L7.4155,45.2825 L-0.68,45.2825 L-0.68,41.3639 L-8.76,41.3639 L-8.76,33.2315 L-0.714,33.2315 Z M7.4113,12.9015 C7.42428221,11.2586935 6.44551848,9.7701248 4.93209493,9.13096066 C3.41867138,8.49179652 1.66919015,8.8281456 0.500665132,9.9829317 C-0.667859886,11.1377178 -1.02487586,12.8830988 -0.403655073,14.4039757 C0.217565713,15.9248525 1.69445488,16.9211525 3.3373,16.9276 C5.56695795,16.9230599 7.38061242,15.1305514 7.4113,12.9011 L7.4113,12.9015 Z" id="Shape" mask="url(#mask-4)"></path>
                    </g>
                </g>
            </g>
        </g>
    </g>
</svg>
