<?xml version="1.0" encoding="UTF-8"?>
<svg width="18px" height="22px" viewBox="0 0 18 22" version="1.1" xmlns="http://www.w3.org/2000/svg" xmlns:xlink="http://www.w3.org/1999/xlink">
    <!-- Generator: Sketch 42 (36781) - http://www.bohemiancoding.com/sketch -->
    <title>SKE</title>
    <desc>Created with Sketch.</desc>
    <defs>
        <path d="M7.2311381,3.92689524 C6.19104064,1.09771902 3.21075452,-0.517996318 0.272380952,0.154314286 C2.75723113,0.723609068 4.61015542,2.80228788 4.8912837,5.33596976 C5.17241197,7.86965163 3.8202323,10.3039573 1.52061905,11.404119 C1.10464724,11.5480687 0.850989702,11.9687373 0.917819048,12.4038095 C0.939242857,15.3420667 0.928295238,18.2805333 0.928295238,21.2188952 L0.928295238,22 L3.60050952,22 L3.60050952,21.2191571 C3.60050952,18.2805857 3.61140476,15.3422762 3.59003333,12.4040714 C3.52304413,11.9690421 3.776521,11.5482925 4.19241429,11.4041714 C6.99919297,10.0845513 8.32167685,6.8303637 7.2311381,3.92689524 L7.2311381,3.92689524 Z" id="path-1"></path>
    </defs>
    <g id="Page-1" stroke="none" stroke-width="1" fill="none" fill-rule="evenodd">
        <g id="Product_SecurityKey-Copy" transform="translate(-191.000000, -261.000000)">
            <g id="hero-content" transform="translate(169.000000, 140.000000)">
                <g id="CTA" transform="translate(1.000000, 108.000000)">
                    <g id="SKE" transform="translate(21.000000, 13.000000)">
                        <g id="SKE-42px">
                            <path d="M4.26380952,16.0509381 C4.26380952,14.6182667 4.28282381,13.2656333 4.2391381,11.9150952 C4.2339,11.7507762 3.91385238,11.5501048 3.70071429,11.4462857 C1.24873391,10.2865426 -0.122701553,7.62827606 0.353294792,4.95795037 C0.829291137,2.28762467 3.03476557,0.266956778 5.73644864,0.0258749931 C8.43813171,-0.215206792 10.966536,1.38303852 11.9078143,3.92689524 C12.9983501,6.83029366 11.6759707,10.0844257 8.8693,11.404119 C8.45340671,11.5482401 8.19992984,11.9689897 8.26691905,12.404019 C8.28834286,15.3422762 8.27739524,18.2807429 8.27739524,21.2191571 L8.27739524,22 L4.28072857,22 L4.28072857,20.065519 L0.291919048,20.065519 L0.291919048,16.0509381 L4.26380952,16.0509381 Z M8.27493333,6.01474762 C8.28133099,5.20378749 7.79816287,4.46897176 7.05106882,4.15345988 C6.30397476,3.83794801 5.44035715,4.00399078 4.86352599,4.57404612 C4.28669483,5.14410145 4.11045948,6.00569689 4.41712195,6.75646675 C4.72378443,7.50723662 5.45283993,7.99905331 6.26381905,8.0022381 C7.36450365,8.00008377 8.25989778,7.11527637 8.27514286,6.01469524 L8.27493333,6.01474762 Z" id="Shape" fill="#FFFFFF" fill-rule="nonzero"></path>
                            <path d="M17.183519,3.92689524 C16.1434216,1.09771902 13.1631355,-0.517996318 10.2247619,0.154314286 C12.7096121,0.723609068 14.5625364,2.80228788 14.8436646,5.33596976 C15.1247929,7.86965163 13.7726133,10.3039573 11.473,11.404119 C11.0570282,11.5480687 10.8033707,11.9687373 10.8702,12.4038095 C10.8916238,15.3420667 10.8806762,18.2805333 10.8806762,21.2188952 L10.8806762,22 L13.5528905,22 L13.5528905,21.2191571 C13.5528905,18.2805857 13.5637857,15.3422762 13.5424143,12.4040714 C13.4754251,11.9690421 13.7289019,11.5482925 14.1447952,11.4041714 C16.9515739,10.0845513 18.2740578,6.8303637 17.183519,3.92689524 L17.183519,3.92689524 Z" id="Shape" fill="#FFFFFF" fill-rule="nonzero"></path>
                            <g id="Clipped" transform="translate(9.952381, 0.000000)">
                                <mask id="mask-2" fill="white">
                                    <use xlink:href="#path-1"></use>
                                </mask>
                                <g id="Shape"></g>
                                <path d="M-0.412657143,16.0509381 C-0.412657143,14.6182667 -0.393642857,13.2656333 -0.437328571,11.9150952 C-0.442566667,11.7507762 -0.762614286,11.5501048 -0.975752381,11.4462857 C-3.42783275,10.2866355 -4.79939221,7.62835962 -4.32345122,4.95797261 C-3.84751023,2.2875856 -1.64201341,0.266845614 1.05971978,0.0257556129 C3.76145297,-0.215334389 6.28989641,1.38297096 7.2311381,3.92689524 C8.32167387,6.83029366 6.99929446,10.0844257 4.19262381,11.404119 C3.77673052,11.5482401 3.52325365,11.9689897 3.59024286,12.404019 C3.61166667,15.3422762 3.60071905,18.2807429 3.60071905,21.2191571 L3.60071905,22 L-0.395947619,22 L-0.395947619,20.065519 L-4.38475714,20.065519 L-4.38475714,16.0509381 L-0.412657143,16.0509381 Z M3.59846667,6.01474762 C3.60488508,5.20380207 3.12175294,4.46898405 2.37468652,4.1534438 C1.6276201,3.83790354 0.764010829,4.00389512 0.187152726,4.57390268 C-0.389705378,5.14391023 -0.566001899,6.00547492 -0.259408712,6.75625752 C0.0471844755,7.50704011 0.776178495,7.99891601 1.58714286,8.00218571 C2.68784816,8.00008897 3.58329735,7.11529656 3.59857143,6.01469524 L3.59846667,6.01474762 Z" id="Shape" fill="#FFFFFF" fill-rule="nonzero" mask="url(#mask-2)"></path>
                            </g>
                        </g>
                    </g>
                </g>
            </g>
        </g>
    </g>
</svg>