<?xml version="1.0" encoding="UTF-8" standalone="no"?>
<svg width="30px" height="37px" viewBox="0 0 30 37" version="1.1" xmlns="http://www.w3.org/2000/svg" xmlns:xlink="http://www.w3.org/1999/xlink">
    <!-- Generator: Sketch 41 (35326) - http://www.bohemiancoding.com/sketch -->
    <title>security</title>
    <desc>Created with Sketch.</desc>
    <defs></defs>
    <g id="Page-1" stroke="none" stroke-width="1" fill="none" fill-rule="evenodd">
        <g id="Pricing_list" transform="translate(-1086.000000, -1121.000000)" fill="#2B85E7">
            <path d="M1100.8768,1121 L1086,1127.71978 L1086,1137.82971 C1086,1147.15264 1092.36727,1155.87019 1100.8768,1157.98904 C1109.38633,1155.87019 1115.7536,1147.15264 1115.7536,1137.82971 L1115.7536,1127.71978 L1100.8768,1121 L1100.8768,1121 Z M1100.8768,1128.14355 C1103.49512,1128.14355 1105.63738,1130.32293 1105.63738,1132.98663 C1105.63738,1135.65032 1103.49512,1137.82971 1100.8768,1137.82971 C1098.25848,1137.82971 1096.11622,1135.65032 1096.11622,1132.98663 C1096.11622,1130.32293 1098.25848,1128.14355 1100.8768,1128.14355 L1100.8768,1128.14355 Z M1109.80288,1148.1818 C1109.80288,1148.30287 1109.74337,1148.42395 1109.68387,1148.54503 C1109.56485,1148.72664 1109.44584,1148.84772 1109.32682,1149.02933 C1107.12506,1152.05626 1104.09019,1154.23565 1100.81729,1155.20426 C1097.5444,1154.23565 1094.56904,1152.05626 1092.30776,1149.02933 C1092.18875,1148.84772 1092.06973,1148.72664 1091.95072,1148.54503 C1091.89121,1148.42395 1091.83171,1148.30287 1091.83171,1148.1818 L1091.83171,1145.5181 C1091.83171,1141.82525 1097.78243,1139.94856 1100.75779,1139.94856 C1103.73315,1139.94856 1109.68387,1141.82525 1109.68387,1145.5181 L1109.68387,1148.1818 L1109.80288,1148.1818 Z" id="security"></path>
        </g>
    </g>
</svg>