<svg class="common-header__svg" xmlns="http://www.w3.org/2000/svg" viewBox="0 0 79.5 17.281"><path id="biznes" fill="#048169" class="common-header__svg-path" d="M114.644,36.856h7.423c3.652,0,6.063-1.7,6.063-4.584V32.224c0-2.3-1.6-3.456-3.58-4.056a4.055,4.055,0,0,0,2.649-3.888V24.231a3.743,3.743,0,0,0-1.074-2.688,6.118,6.118,0,0,0-4.368-1.488h-7.113v16.8ZM125.29,24.543c0,1.968-1.576,3-3.844,3h-4.941V21.759h5.085c2.387,0,3.7,1.08,3.7,2.736v0.048Zm0.93,7.56v0.048c0,1.872-1.575,3-4.105,3h-5.61V29.223h5.276C124.693,29.223,126.22,30.279,126.22,32.1Zm4.6,4.752h1.886v-16.8h-1.886v16.8Zm4.058,0h13.39v-1.7H137.436l10.836-13.824V20.055H135.24v1.7H145.7L134.882,35.584v1.272Zm15.5,0h1.838V23.079l10.789,13.776h1.5v-16.8h-1.838V33.52L152.146,20.055H150.38v16.8Zm17.672,0h12.2V35.128H169.938v-5.88h9.118V27.519h-9.118V21.783H180.13V20.055H168.052v16.8Zm20.4,0.24c3.318,0,5.705-1.872,5.705-4.752V32.3c0-2.568-1.719-3.936-5.443-4.752-3.676-.792-4.535-1.68-4.535-3.264V24.231c0-1.512,1.385-2.712,3.557-2.712a7.314,7.314,0,0,1,4.821,1.824l1.1-1.464a8.686,8.686,0,0,0-5.872-2.064c-3.174,0-5.49,1.944-5.49,4.584v0.048c0,2.76,1.767,4.008,5.61,4.848,3.509,0.744,4.344,1.632,4.344,3.192v0.048c0,1.656-1.48,2.856-3.724,2.856a7.933,7.933,0,0,1-5.728-2.376l-1.17,1.392A9.747,9.747,0,0,0,188.451,37.1Z" transform="translate(-114.656 -19.813)"/></svg>