<svg xmlns="http://www.w3.org/2000/svg" viewBox="0 0 432 243"><defs><style>.cls-1{fill:#f1f3f4;}.cls-2{fill:#fbbc04;}.cls-3{fill:#fff;}.cls-4{fill:#4285f4;stroke:#4285f4;stroke-miterlimit:10;stroke-width:5.97px;}</style></defs><g id="BG"><ellipse class="cls-1" cx="245.08" cy="100.46" rx="65.9" ry="66"/><ellipse class="cls-1" cx="177.82" cy="153.28" rx="55.19" ry="55.27"/><path class="cls-1" d="M138.86,70.06h0a1.12,1.12,0,0,1-.66,1l-2.66,1.21a6.8,6.8,0,0,0-3.38,3.39L131,78.34a1.14,1.14,0,0,1-1,.67h0a1.13,1.13,0,0,1-1-.67l-1.2-2.65a6.86,6.86,0,0,0-3.39-3.39l-2.65-1.21a1.12,1.12,0,0,1-.66-1h0a1.15,1.15,0,0,1,.66-1l2.65-1.2a6.9,6.9,0,0,0,3.39-3.39l1.2-2.66a1.14,1.14,0,0,1,1-.66h0a1.15,1.15,0,0,1,1,.66l1.2,2.66a6.84,6.84,0,0,0,3.38,3.39L138.2,69A1.15,1.15,0,0,1,138.86,70.06Z"/></g><g id="_04" data-name="04"><path class="cls-2" d="M244.13,103.86h43.09a18.22,18.22,0,0,1,18.22,18.22v61.43a0,0,0,0,1,0,0H244.13a18.22,18.22,0,0,1-18.22-18.22V122.08A18.22,18.22,0,0,1,244.13,103.86Z" transform="translate(531.34 287.37) rotate(180)"/><polygon class="cls-2" points="211.23 103.86 225.91 103.86 225.91 118.57 211.23 103.86"/><path class="cls-3" d="M265.67,157.4,251,166.27l3.9-16.71-13-11.25L259,136.86l6.67-15.76,6.67,15.76,17.07,1.45-13,11.25,3.89,16.71Z"/><ellipse class="cls-4" cx="143.74" cy="100.46" rx="10.71" ry="10.72"/><ellipse class="cls-4" cx="191.12" cy="73.11" rx="10.71" ry="10.72"/><ellipse class="cls-4" cx="191.12" cy="127.8" rx="10.71" ry="10.72"/><line class="cls-4" x1="153.01" y1="95.1" x2="181.85" y2="78.46"/><line class="cls-4" x1="152.12" y1="105.29" x2="182.74" y2="122.96"/></g></svg>