<svg xmlns="http://www.w3.org/2000/svg" viewBox="0 0 768 432"><defs><style>.cls-1{fill:#f1f3f4;}.cls-2{fill:#dadce0;}.cls-3,.cls-6{fill:#fff;}.cls-4{fill:#bdc1c6;}.cls-5{fill:#34a853;}.cls-6,.cls-7{stroke:#fff;stroke-miterlimit:10;stroke-width:2.4px;}.cls-7{fill:none;}.cls-8{fill:#fbbc04;}.cls-9{fill:#ea4335;}</style></defs><g id="BG"><circle class="cls-1" cx="420.13" cy="181.74" r="125.23"/><circle class="cls-1" cx="292.19" cy="211.8" r="89.1"/><circle class="cls-1" cx="253.13" cy="322.57" r="52.57"/><path class="cls-1" d="M580.86,375.14a112.35,112.35,0,1,0-204.28,0Z"/><rect class="cls-1" x="253.13" y="270" width="165.46" height="105.14"/><circle class="cls-1" cx="624.71" cy="214.92" r="3.12"/><path class="cls-1" d="M621.14,268.56h0a2.27,2.27,0,0,0,1.32,2.06l5.34,2.43a13.69,13.69,0,0,1,6.79,6.79l2.43,5.34a2.26,2.26,0,0,0,2.06,1.33h0a2.28,2.28,0,0,0,2.07-1.33l2.42-5.34a13.71,13.71,0,0,1,6.8-6.79l5.33-2.43a2.26,2.26,0,0,0,1.33-2.06h0a2.28,2.28,0,0,0-1.33-2.07l-5.33-2.42a13.73,13.73,0,0,1-6.8-6.8l-2.42-5.33a2.28,2.28,0,0,0-2.07-1.33h0a2.26,2.26,0,0,0-2.06,1.33l-2.43,5.33a13.71,13.71,0,0,1-6.79,6.8l-5.34,2.42A2.28,2.28,0,0,0,621.14,268.56Z"/></g><g id="_04" data-name="04"><rect class="cls-2" x="294.89" y="70.61" width="163.07" height="303.52" rx="17.39"/><rect class="cls-3" x="302.04" y="101.29" width="148.78" height="242.18" rx="4.5"/><rect class="cls-4" x="355.82" y="83.56" width="41.21" height="4.8" rx="2.4"/><rect class="cls-4" x="355.82" y="356.39" width="41.21" height="4.8" rx="2.4"/><circle class="cls-4" cx="411.94" cy="85.96" r="2.4"/><path class="cls-5" d="M427,133.62h46a16,16,0,0,1,16,16v62a0,0,0,0,1,0,0H427a16,16,0,0,1-16-16v-46A16,16,0,0,1,427,133.62Z" transform="translate(900.09 345.25) rotate(-180)"/><circle class="cls-6" cx="434.55" cy="172.62" r="5.92"/><circle class="cls-6" cx="460.75" cy="157.53" r="5.92"/><circle class="cls-6" cx="460.75" cy="187.72" r="5.92"/><line class="cls-7" x1="439.67" y1="169.67" x2="455.62" y2="160.48"/><line class="cls-7" x1="439.18" y1="175.3" x2="456.11" y2="185.05"/><polygon class="cls-5" points="411.2 148.03 411.2 133.63 396.81 133.63 411.2 148.03"/><path class="cls-8" d="M271,168.48h62a0,0,0,0,1,0,0v62a16,16,0,0,1-16,16H271a16,16,0,0,1-16-16v-46a16,16,0,0,1,16-16Z"/><polygon class="cls-8" points="347.42 168.48 333.02 168.48 333.02 182.88 347.42 168.48"/><path class="cls-3" d="M294,220.91l14.39,8.68-3.82-16.36,12.71-11-16.74-1.42L294,185.36l-6.54,15.43-16.74,1.42,12.71,11-3.82,16.36Z"/><path class="cls-9" d="M381.69,236.58h46a16,16,0,0,1,16,16v62a0,0,0,0,1,0,0h-62a16,16,0,0,1-16-16v-46a16,16,0,0,1,16-16Z" transform="translate(809.38 551.17) rotate(180)"/><circle class="cls-3" cx="404.69" cy="275.58" r="23.37"/><circle class="cls-9" cx="394.39" cy="272.72" r="2.86"/><circle class="cls-9" cx="414.99" cy="272.72" r="2.86"/><path class="cls-9" d="M412.58,280a7.89,7.89,0,1,1-15.77,0Z"/><polygon class="cls-9" points="351.29 236.59 365.69 236.59 365.69 250.98 351.29 236.59"/></g></svg>