<svg xmlns="http://www.w3.org/2000/svg" viewBox="0 0 289.451 61.44"><defs><style>.cls-1{fill:#1d1d1b;}.cls-2{font-size:55.577px;fill:#c81617;font-family:Raleway-ExtraBold, Raleway;font-weight:800;}.cls-3{letter-spacing:0.04em;}.cls-4{letter-spacing:-0.24em;}</style></defs><g id="Warstwa_2" data-name="Warstwa 2"><path class="cls-1" d="M127.2,77.592H114.4V54.471q0-4-1.519-5.879a4.816,4.816,0,0,0-3.921-1.881,7.916,7.916,0,0,0-5.04,2.037A11.023,11.023,0,0,0,100.4,54V77.592H87.6V54.471q0-4.075-1.52-5.916a4.85,4.85,0,0,0-3.92-1.844,7.9,7.9,0,0,0-4.96,2,11.371,11.371,0,0,0-3.6,5.158V77.592H60.8V36.072h11.52v7.082a15.582,15.582,0,0,1,6.28-5.712,20.158,20.158,0,0,1,9.24-2.01q5.2,0,8,2.4a10.746,10.746,0,0,1,3.6,5.633,16.359,16.359,0,0,1,6.36-5.949,18.816,18.816,0,0,1,8.92-2.088,12.678,12.678,0,0,1,6.48,1.459,9.846,9.846,0,0,1,3.76,3.82,16.733,16.733,0,0,1,1.76,5.082,30.591,30.591,0,0,1,.48,5.32Z" transform="translate(-17.998 -16.951)"/><path class="cls-1" d="M132.957,65.227a11.564,11.564,0,0,1,2.32-7.172,15.576,15.576,0,0,1,6.4-4.85,23.306,23.306,0,0,1,9.36-1.773,28.838,28.838,0,0,1,5.04.439,19.477,19.477,0,0,1,4.32,1.24V51.276a6.349,6.349,0,0,0-2.08-5.1q-2.082-1.78-6.32-1.781a17.993,17.993,0,0,0-6.6,1.2,36.074,36.074,0,0,0-6.52,3.439l-3.84-8.16a33.467,33.467,0,0,1,8.679-4.08,33.036,33.036,0,0,1,9.561-1.359q9.438,0,14.68,4.429t5.24,12.821v10.74a4.313,4.313,0,0,0,.6,2.629,3.007,3.007,0,0,0,2.121.9V77.592c-1.068.213-2.068.371-3,.48a22.023,22.023,0,0,1-2.44.159,8.885,8.885,0,0,1-5.48-1.44,6.236,6.236,0,0,1-2.36-3.92l-.24-1.84a18.764,18.764,0,0,1-6.681,5.481,18.414,18.414,0,0,1-8.119,1.879,15.921,15.921,0,0,1-7.48-1.733,13.511,13.511,0,0,1-5.24-4.73A12.159,12.159,0,0,1,132.957,65.227Zm25.44,1.5a6.635,6.635,0,0,0,1.439-1.541,2.957,2.957,0,0,0,.561-1.619V59.942a19.283,19.283,0,0,0-3.561-.963,21,21,0,0,0-3.639-.348,10.535,10.535,0,0,0-5.84,1.5,4.55,4.55,0,0,0-2.32,3.969,4.382,4.382,0,0,0,.8,2.545,5.691,5.691,0,0,0,2.2,1.849,7.39,7.39,0,0,0,3.32.694,11.223,11.223,0,0,0,3.84-.694A10.387,10.387,0,0,0,158.4,66.725Z" transform="translate(-17.998 -16.951)"/><path class="cls-1" d="M209.117,46.551a22.781,22.781,0,0,0-8.4,1.48,10.437,10.437,0,0,0-5.439,4.36v25.2h-12.8V36.072h11.76v8a17.653,17.653,0,0,1,5.6-6.64,12.908,12.908,0,0,1,7.2-2.481h1.32a3.246,3.246,0,0,1,.76.08Z" transform="translate(-17.998 -16.951)"/><text class="cls-2" transform="translate(228.874 47.518)"><tspan class="cls-3">f</tspan><tspan class="cls-4" x="23.62" y="0"> </tspan><tspan x="23.23" y="0">it</tspan></text><path class="cls-1" d="M224.669,28.739a2.2,2.2,0,0,1,1.562-1.6V22.711h-5.915v6.028Z" transform="translate(-17.998 -16.951)"/><path class="cls-1" d="M227.39,27.136a2.2,2.2,0,0,1,1.561,1.6h4.165V22.711H227.39Z" transform="translate(-17.998 -16.951)"/><path class="cls-1" d="M241.676,36.072h-8.56V29.9h-4.189a2.2,2.2,0,0,1-1.537,1.541V53.886a2.2,2.2,0,0,1,1.543,1.543h4.183V45.752h8.56Z" transform="translate(-17.998 -16.951)"/><path class="cls-1" d="M242.4,65.192a17.618,17.618,0,0,1-2.68,1.039,9.962,9.962,0,0,1-2.921.48,3.888,3.888,0,0,1-2.639-.9,3.689,3.689,0,0,1-1.04-2.934V56.588h-4.183a2.2,2.2,0,0,1-1.543,1.543V77.76a16.37,16.37,0,0,0,4.606.631,24.479,24.479,0,0,0,4.56-.44,32.607,32.607,0,0,0,4.44-1.16q2.119-.72,3.88-1.439Z" transform="translate(-17.998 -16.951)"/><path class="cls-1" d="M220.316,55.429h4.372a2.2,2.2,0,0,1,1.543-1.543V31.443a2.2,2.2,0,0,1-1.548-1.544h-4.367v6.173h-5.36v9.68h5.36Z" transform="translate(-17.998 -16.951)"/><path class="cls-1" d="M226.231,58.131a2.2,2.2,0,0,1-1.543-1.543h-4.372V67.354a11.871,11.871,0,0,0,1.56,6.465,8.748,8.748,0,0,0,4.24,3.509c.037.015.077.025.115.039Z" transform="translate(-17.998 -16.951)"/><path class="cls-1" d="M27.466,69.384l1.213-2.318A35.686,35.686,0,0,1,22.4,63.352l-2.169,3.984,5.155,2.7A2.2,2.2,0,0,1,27.466,69.384Z" transform="translate(-17.998 -16.951)"/><path class="cls-1" d="M25.5,73.145a2.2,2.2,0,0,1-.651-2.082l-5.173-2.708L18,71.432a21.878,21.878,0,0,0,6.187,4.218Z" transform="translate(-17.998 -16.951)"/><path class="cls-1" d="M52.517,59.039a13.011,13.011,0,0,0-5.16-3.769,67.4,67.4,0,0,0-8.64-3.022Q36.476,51.54,35,51.029a5.428,5.428,0,0,1-2.161-1.214,2.608,2.608,0,0,1-.68-1.885,2.741,2.741,0,0,1,.68-1.924,3.724,3.724,0,0,1,1.8-1.061,9.184,9.184,0,0,1,2.481-.314,14.614,14.614,0,0,1,5.439,1.121,33.836,33.836,0,0,1,6.4,3.6l4.96-8A22,22,0,0,0,46.2,36.791a26.777,26.777,0,0,0-8.44-1.359,23.014,23.014,0,0,0-9.36,1.734,13.888,13.888,0,0,0-6.04,4.848,12.643,12.643,0,0,0-2.12,7.291,9.258,9.258,0,0,0,1.6,5.637,12.231,12.231,0,0,0,4.8,3.664,72.148,72.148,0,0,0,8,3.074q2.4.63,4.04,1.183a7.678,7.678,0,0,1,2.441,1.221,2.291,2.291,0,0,1,.8,1.852,2.5,2.5,0,0,1-1.361,2.34,8.013,8.013,0,0,1-3.84.755,18.652,18.652,0,0,1-6.839-1.439c-.045-.018-.09-.041-.135-.059l-1.25,2.389a2.2,2.2,0,0,1-1.969,3.761l-1.257,2.4c.455.185.895.385,1.37.548a32,32,0,0,0,10.481,1.76q7.918,0,12.519-3.572a11.781,11.781,0,0,0,4.6-9.852A9.468,9.468,0,0,0,52.517,59.039Z" transform="translate(-17.998 -16.951)"/></g></svg>