<svg width="302" height="223" xmlns="http://www.w3.org/2000/svg"><g fill="none" fill-rule="evenodd"><path d="M56.812 172.463s-8.563 6.303-10.667-12.313c0 0-1.536-35.325 10.934-1.69 4.049 10.923-.267 14.003-.267 14.003" fill="#E44335" style="mix-blend-mode:multiply"/><path stroke="#B7B7B7" d="M45.847 0l55.94 143.706L1 99.416z"/><path d="M296.008 222.282c-.442-49.938-41.125-90.285-91.25-90.285-50.124 0-90.808 40.347-91.25 90.285h182.5z" stroke="#B7B7B7" style="mix-blend-mode:multiply"/><path d="M139.405 71.349a38.096 38.096 0 01-1.112-1.933c-.958-1.756-1.854-4.137-1.01-6.072.312-.713.91-1.242 1.561-1.621 4.306-2.507 10.643-2.326 14.631 1.112 2.708 2.337 4.385 7.422 1.22 9.877-3.367 2.612-8.13 4.936-12.174 2.124-1.311-.913-2.279-2.145-3.116-3.487z" fill="#34A253"/><path d="M280.746 138.86c-3.439-4.596-1.66-11.461 4.127-15.848 5.788-4.386 12.167-3.904 15.318.94 3.151 4.846 1.013 11.512-4.098 15.665-5.11 4.152-11.62 4.222-15.347-.758" fill="#FABB05"/><path d="M2.875 35.221c3.753-12.53 15.723-17.135 27.745-12.393 12.023 4.744 16.032 17.289 11.407 27.234s-16.03 13.77-28.67 9.18-12.178-18.36-10.482-24.02" fill="#3E82F7" style="mix-blend-mode:multiply"/></g></svg>