<?xml version="1.0" encoding="UTF-8" standalone="no"?>
<svg width="26px" height="26px" viewBox="0 0 26 26" version="1.1" xmlns="http://www.w3.org/2000/svg" xmlns:xlink="http://www.w3.org/1999/xlink">
    <!-- Generator: Sketch 42 (36781) - http://www.bohemiancoding.com/sketch -->
    <title>trace-cta copy 2</title>
    <desc>Created with Sketch.</desc>
    <defs></defs>
    <g id="Custom-Icons" stroke="none" stroke-width="1" fill="none" fill-rule="evenodd">
        <g id="Sprites-Copy" transform="translate(-267.000000, -574.000000)" fill-rule="nonzero" fill="#FFFFFF">
            <polygon id="XMLID_3_" points="288.690346 591.858115 291.748634 593.648548 292 590.323459 288.313297 588.191992 285.925319 589.769277 282.154827 587.552552 282.154827 583.1191 284.710383 581.797591 284.710383 577.449398 281.777778 576 281.777778 579.623494 280.520947 580.348193 279.264117 579.623494 279.264117 576 276.331512 577.449398 276.331512 581.797591 278.887067 583.076471 278.887067 587.552552 275.116576 589.769277 272.686703 588.149362 269 590.323459 269.251366 593.605918 272.309654 591.815486 273.566485 592.582814 273.566485 594.032212 270.508197 595.822644 273.189435 597.698335 276.876138 595.524239 276.708561 592.625443 280.520947 590.408718 284.291439 592.625443 284.123862 595.566868 287.810565 597.740964 290.491803 595.865273 287.433515 594.074841 287.433515 592.582814"></polygon>
        </g>
    </g>
</svg>