<?xml version="1.0" encoding="UTF-8" standalone="no"?>
<svg width="26px" height="26px" viewBox="0 0 26 26" version="1.1" xmlns="http://www.w3.org/2000/svg" xmlns:xlink="http://www.w3.org/1999/xlink">
    <!-- Generator: Sketch 39.1 (31720) - http://www.bohemiancoding.com/sketch -->
    <title>sql-2nd-gen copy 3</title>
    <desc>Created with Sketch.</desc>
    <defs></defs>
    <g id="Page-1" stroke="none" stroke-width="1" fill="none" fill-rule="evenodd">
        <g id="sql-2nd-gen-copy-2" transform="translate(5.000000, 1.000000)" fill="#FFFFFF">
            <path d="M12.7784,6.54559081 L12.7752,6.54352985 L8,9.38434924 L3.2248,6.54352985 L3.2216,6.54559081 L3.2216,6.5414689 L3.2248,6.54352985 L8,3.70271047 L12.7752,6.54352985 L12.7784,6.5414689 L12.7784,6.54559081 Z M8,0 L0,4.75956782 L0,8.44043218 L8,13.2 L16,8.44043218 L16,4.75956782 L8,0 Z" id="Fill-4"></path>
            <polygon id="Fill-5" points="0 10.2 0 13.8632319 8 18.6 16 13.8632319 16 10.2 8 14.9367681"></polygon>
            <polygon id="Fill-6" points="0 15.6 0 19.2632319 8 24 16 19.2632319 16 15.6 8 20.3367681"></polygon>
        </g>
    </g>
</svg>