<?xml version="1.0" encoding="UTF-8" standalone="no"?>
<svg width="36px" height="22px" viewBox="0 0 36 22" version="1.1" xmlns="http://www.w3.org/2000/svg" xmlns:xlink="http://www.w3.org/1999/xlink">
    <!-- Generator: Sketch 42 (36781) - http://www.bohemiancoding.com/sketch -->
    <title>storage-category-icon@3x</title>
    <desc>Created with Sketch.</desc>
    <defs></defs>
    <g id="Custom-Icons" stroke="none" stroke-width="1" fill="none" fill-rule="evenodd">
        <g id="Sprites-Copy" transform="translate(-1688.000000, -985.000000)" fill="#2382EA">
            <g id="storage-symbol" transform="translate(1688.000000, 985.000000)">
                <path d="M34.7847784,0.102069722 L1.27961021,0.103056468 C0.740273711,0.103056468 0.298980016,0.533869437 0.298980016,1.06039669 L0.299990766,7.82275914 C0.299990766,8.34829965 0.741284461,8.77911262 1.27961021,8.77911262 L34.7839698,8.77911262 C35.3233063,8.77911262 35.7646,8.34829965 35.7646,7.82275914 L35.7646,1.05940995 C35.7646,0.533869437 35.324317,0.102069722 34.7847784,0.102069722 M29.5967979,6.39750432 C28.4916433,6.39750432 27.5953097,5.51811697 27.5932882,4.44019647 C27.5953097,3.35734225 28.488611,2.48466477 29.5967979,2.48466477 C30.7041762,2.48466477 31.6015206,3.35536876 31.6015206,4.44019647 C31.6015206,5.52009046 30.7041762,6.39750432 29.5967979,6.39750432" id="Fill-4-Copy"></path>
                <path d="M34.7847784,13.1010567 L1.27961021,13.1020435 C0.740273711,13.1020435 0.298980016,13.5332512 0.298980016,14.0607652 L0.299990766,20.8217462 C0.299990766,21.3472867 0.741284461,21.7790864 1.27961021,21.7790864 L34.7839698,21.7790864 C35.3233063,21.7790864 35.7646,21.3472867 35.7646,20.8217462 L35.7646,14.0593837 C35.7646,13.5332512 35.324317,13.1010567 34.7847784,13.1010567 M29.5967979,19.3964913 C28.4916433,19.3964913 27.5953097,18.517696 27.5932882,17.4391835 C27.5953097,16.3563293 28.488611,15.4840465 29.5967979,15.4840465 C30.7041762,15.4840465 31.6015206,16.3557372 31.6015206,17.4391835 C31.6015206,18.5204589 30.7041762,19.3964913 29.5967979,19.3964913" id="Fill-5-Copy"></path>
            </g>
        </g>
    </g>
</svg>