<?xml version="1.0" encoding="UTF-8" standalone="no"?>
<svg width="26px" height="26px" viewBox="0 0 26 26" version="1.1" xmlns="http://www.w3.org/2000/svg" xmlns:xlink="http://www.w3.org/1999/xlink">
    <!-- Generator: Sketch 39.1 (31720) - http://www.bohemiancoding.com/sketch -->
    <title>cloud-storage copy</title>
    <desc>Created with Sketch.</desc>
    <defs></defs>
    <g id="Page-1" stroke="none" stroke-width="1" fill="none" fill-rule="evenodd">
        <g id="storage-logo-copy-3" transform="translate(1.000000, 5.000000)" fill="#FFFFFF">
            <g id="storage" transform="translate(0.000000, 0.292958)">
                <path d="M23.0007018,0.769400148 L0.846115288,0.770031727 C0.489490393,0.770031727 0.197694236,1.0457791 0.197694236,1.38278962 L0.198362573,5.71112646 C0.198362573,6.04750541 0.49015873,6.32325278 0.846115288,6.32325278 L23.0001671,6.32325278 C23.356792,6.32325278 23.6485881,6.04750541 23.6485881,5.71112646 L23.6485881,1.38215804 C23.6485881,1.0457791 23.3574603,0.769400148 23.0007018,0.769400148 M19.570259,4.79887383 C18.8394987,4.79887383 18.246817,4.23601067 18.2454804,3.54607383 C18.246817,2.8529791 18.8374937,2.29441067 19.570259,2.29441067 C20.3024896,2.29441067 20.8958396,2.85171594 20.8958396,3.54607383 C20.8958396,4.23727383 20.3024896,4.79887383 19.570259,4.79887383" id="Fill-4"></path>
                <path d="M23.0007018,9.08956857 L0.846115288,9.09020015 C0.489490393,9.09020015 0.197694236,9.36620015 0.197694236,9.70384225 L0.198362573,14.0312949 C0.198362573,14.3676738 0.49015873,14.6440528 0.846115288,14.6440528 L23.0001671,14.6440528 C23.356792,14.6440528 23.6485881,14.3676738 23.6485881,14.0312949 L23.6485881,9.70295804 C23.6485881,9.36620015 23.3574603,9.08956857 23.0007018,9.08956857 M19.570259,13.1190423 C18.8394987,13.1190423 18.246817,12.556558 18.2454804,11.8662423 C18.246817,11.1731475 18.8374937,10.6148317 19.570259,10.6148317 C20.3024896,10.6148317 20.8958396,11.1727686 20.8958396,11.8662423 C20.8958396,12.5583265 20.3024896,13.1190423 19.570259,13.1190423" id="Fill-5"></path>
            </g>
        </g>
    </g>
</svg>