<?xml version="1.0" encoding="utf-8"?>
<!-- Generator: Adobe Illustrator 19.1.0, SVG Export Plug-In . SVG Version: 6.00 Build 0)  -->
<svg version="1.1" xmlns="http://www.w3.org/2000/svg" xmlns:xlink="http://www.w3.org/1999/xlink" x="0px" y="0px" width="128px"
   height="128px" viewBox="0 0 128 128" style="enable-background:new 0 0 128 128;" xml:space="preserve">
<g id="BASE">
  <linearGradient id="SVGID_1_" gradientUnits="userSpaceOnUse" x1="63.9997" y1="7.0336" x2="63.9997" y2="120.7894">
    <stop  offset="0" style="stop-color:#4387FD"/>
    <stop  offset="1" style="stop-color:#4683EA"/>
  </linearGradient>
  <path style="fill:url(#SVGID_1_);" d="M27.7906,115.2166L1.54,69.7493c-2.0541-3.5578-2.0541-7.9412,0-11.499l26.2506-45.4672
    c2.0542-3.5578,5.8503-5.7495,9.9585-5.7495h52.5012c4.1082,0,7.9044,2.1917,9.9585,5.7495l26.2506,45.4672
    c2.0541,3.5578,2.0541,7.9412,0,11.499l-26.2506,45.4673c-2.0541,3.5578-5.8503,5.7495-9.9585,5.7495H37.7491
    C33.6409,120.9661,29.8448,118.7744,27.7906,115.2166z"/>
</g>
<g id="shadow">
  <g>
    <defs>
      <path id="SVGID_5_" d="M27.7911,115.2166L1.5406,69.7494c-2.0541-3.5578-2.0541-7.9412,0-11.499l26.2505-45.4672
        c2.0541-3.5578,5.8502-5.7495,9.9584-5.7495h52.5009c4.1082,0,7.9044,2.1917,9.9585,5.7495l26.2505,45.4672
        c2.0541,3.5578,2.0541,7.9412,0,11.499l-26.2505,45.4672c-2.0541,3.5578-5.8502,5.7495-9.9585,5.7495H37.7495
        C33.6413,120.9661,29.8452,118.7744,27.7911,115.2166z"/>
    </defs>
    <clipPath id="SVGID_2_">
      <use xlink:href="#SVGID_5_"  style="overflow:visible;"/>
    </clipPath>
    <polygon style="opacity:0.07;clip-path:url(#SVGID_2_);" points="123.1042,78.0832 93,48 82,48 70,35 59,43 65,49 35,54 58,77
      55,97 80,122 97.6671,121.9478"/>
  </g>
</g>
<g id="art">
  <path style="fill:#FFFFFF;" d="M64,31.5c3.575,0,6.5,2.925,6.5,6.5s-2.925,6.5-6.5,6.5c-3.575,0-6.5-2.925-6.5-6.5
    S60.425,31.5,64,31.5z"/>
  <polygon style="fill:#FFFFFF;" points="93,54 73,54 73,97 67,97 67,77 61,77 61,97 55,97 55,54 35,54 35,48 93,48  "/>
</g>
<g id="Guides">
</g>
</svg>
