<svg xmlns="http://www.w3.org/2000/svg" xmlns:xlink="http://www.w3.org/1999/xlink" viewBox="0 0 1644.1 314.4"><defs><path id="a" d="M0 0h1644.1v314.4H0z"/></defs><clipPath id="b"><use xlink:href="#a" overflow="visible"/></clipPath><path d="M1406.3 281.8c2.9-3.1 4.3-7.1 4.3-11.9s-1.5-8.8-4.3-11.9c-2.9-3.1-6.6-4.7-11-4.7-4.5 0-8.1 1.6-11 4.7-2.9 3.1-4.3 7.1-4.3 11.9s1.4 8.8 4.3 11.9c2.9 3.1 6.6 4.6 11 4.6s8.1-1.5 11-4.6m-269.4 0c2.9-3.1 4.3-7.1 4.3-11.9s-1.4-8.8-4.3-11.9c-2.9-3.1-6.6-4.7-11-4.7-4.5 0-8.2 1.6-11 4.7-2.9 3.1-4.3 7.1-4.3 11.9s1.4 8.8 4.3 11.9c2.9 3.1 6.6 4.6 11 4.6s8.1-1.5 11-4.6m-397.1-28h-10v32.1h10c4.6 0 8.3-1.5 11.2-4.5 2.9-3 4.3-6.9 4.3-11.6 0-4.7-1.4-8.6-4.3-11.6s-6.7-4.4-11.2-4.4M553.1 156l.1-34.7c-14.9 4.6-25.4 8.8-31.6 12.6-7 4.6-10.5 9.8-10.5 15.8 0 10.2 6 15.3 17.9 15.3 8.3-.1 16.4-3 24.1-9m47.7 121h15.9l-7.6-20.5-8.3 20.5zm80.9-126.4c6.9-6.9 10.4-16.8 10.4-29.6 0-12.5-3.3-22.3-10-29.5-6.7-7.2-15.7-10.8-27.1-10.8-8.9 0-17.7 3-26.3 9v66.6c8.4 3.2 16.4 4.7 23.9 4.7 12.5 0 22.2-3.4 29.1-10.4m71.5-42.4H816c-.7-8.6-3.8-15.5-9.3-20.7-5.5-5.3-12.4-7.9-20.6-7.9-18.5-.1-29.4 9.5-32.9 28.6m209 47.7l.1-34.7c-14.9 4.6-25.4 8.8-31.6 12.6-7 4.6-10.5 9.8-10.5 15.8 0 10.2 6 15.2 17.9 15.2 8.4 0 16.4-3 24.1-8.9M1318 281.4c2.9-3 4.3-6.9 4.3-11.6 0-4.7-1.4-8.6-4.3-11.6s-6.6-4.5-11.2-4.5h-10v32.1h10c4.6.1 8.4-1.4 11.2-4.4m267.2-172.9c3.2-3.5 4.7-8.2 4.7-14.3 0-5.9-1.6-10.7-4.7-14.3-3.1-3.6-7.2-5.4-12.3-5.4-4.4 0-8.7 1.5-12.9 4.4v30.4c3.9 3 8 4.4 12.3 4.4 5.4 0 9.7-1.7 12.9-5.2m58.9 21.3h-22.5V25.1h22.5v104.7zm-30.9-35.5c0 11.1-3.1 20-9.4 26.8-6.2 6.8-14.3 10.2-24.2 10.2-7.7 0-14.2-2.3-19.6-6.7v40h-22.2V58.7h21.5v5.8c5.8-4.9 12.6-7.4 20.4-7.4 9.9 0 18 3.4 24.2 10.3 6.2 6.9 9.3 15.9 9.3 26.9m-87.1 23.5c0 3.7-1.3 6.8-3.9 9.4-2.6 2.6-5.8 3.9-9.6 3.9s-7-1.3-9.5-3.9c-2.6-2.6-3.8-5.8-3.8-9.4 0-3.7 1.3-6.9 3.9-9.5 2.6-2.7 5.7-4 9.4-4 3.8 0 7 1.3 9.6 3.9 2.6 2.7 3.9 5.8 3.9 9.6m-189.8 152c0 9.9-4.2 17.5-12.6 22.9-2.7 1.7-5.9 2.9-9.5 3.5-2.4.4-6 .6-10.6.6h-20.2v-53.9h20.2c5 0 9 .3 11.8.9 3.9.8 7.4 2.4 10.4 4.7 7 5.3 10.5 12.4 10.5 21.3m-330.9-26.9l10.5 29.3 10.6-29.3h9l10.6 29.4 10.4-29.4h14.1l-21.8 54.3h-5.6l-12.1-33.7-12.2 33.7h-5.5l-21.8-54.3h13.8zm-1.6-71.6c-8.4 7.2-17.3 10.8-26.6 10.8-8.8 0-13.5-3.9-14.2-11.8-11.2 7.9-22.6 11.8-34.2 11.8-10.7 0-19-2.6-25-7.8-6-5.2-8.9-12.1-8.9-20.9 0-16.6 13-29.3 39.1-38.1l28.1-9.5c.2-1.2.3-2.9.3-5 0-13.3-7.4-20-22.3-20-13.5 0-27.3 5.5-41.5 16.6V74.1c12.4-10 27.3-15 44.4-15 15.4 0 26.5 3.4 33.4 10.2 6.8 6.8 10.3 17.6 10.3 32.3v50.2c0 7.7 1.6 11.6 4.7 11.6 2.6 0 6.7-2.2 12.4-6.6v14.5zm-121.6 8.9h-23.7V.7h23.7v179.5zm-33 62.7l-29.4 43.5H849v10.4h-52.4l29.7-43.8H799v-10.1h50.2zM825 225.1h10.9l-9.2 12.5h-8.8l7.1-12.5zM842 125h-88.9c.7 11.2 4.4 20 11 26.3 6.7 6.3 15.6 9.5 26.8 9.5 15.1 0 31.4-5.6 48.9-16.8v23.7c-15.6 10.2-32.3 15.2-50.2 15.2-18.7 0-33.7-5.8-44.8-17.5-11.1-11.6-16.7-27.1-16.7-46.4 0-17.7 5.3-32.1 16-43.1s24.7-16.6 42-16.6c17 0 30.5 5.6 40.6 16.7C837 87.1 842 102.3 842 121.6v3.4zm-124.7-4.2c0 19.6-5.8 34.9-17.5 45.7-11.7 10.9-28.3 16.3-49.8 16.3-14.2 0-29.3-2.7-45.2-8.1V.7h24v67.5c8.8-6.1 19.2-9.2 31.3-9.2 17.2 0 31 5.6 41.6 16.8 10.4 11.2 15.6 26.2 15.6 45M601.7 242.9h15.5l21 53.9H624l-3.9-10.5h-23.2l-4.3 10.5h-14.4l23.5-53.9zm-7-71.4c-8.4 7.2-17.3 10.8-26.6 10.8-8.8 0-13.5-3.9-14.2-11.8-11.2 7.9-22.6 11.8-34.2 11.8-10.7 0-19-2.6-25-7.8-6-5.2-8.9-12.1-8.9-20.9 0-16.6 13-29.4 39.1-38.1L553 106c.2-1.2.3-2.9.3-5 0-13.3-7.4-20-22.3-20-13.5 0-27.3 5.5-41.5 16.6V74.2c12.4-10 27.3-15 44.4-15 15.4 0 26.6 3.4 33.4 10.3 6.8 6.8 10.3 17.6 10.3 32.3V152c0 7.7 1.6 11.6 4.7 11.6 2.6 0 6.7-2.2 12.4-6.6v14.5zm-119.1 5c-7.4 4-15.9 6-25.5 6-14 0-23.7-3.5-28.9-10.5-4.9-6.5-7.4-17.7-7.4-33.6V82.1h-20.2v-2.4l41.6-45.8h2.6v27.7h37.1v20.5h-37.1v54.4c0 9.1 1 15.1 2.9 17.9 2.3 3.7 7.1 5.5 14.5 5.5 7.2 0 14-1.9 20.5-5.8v22.4zM442.2 253H415v-10.1h50.2l-29.4 43.5H465v10.4h-52.4l29.6-43.8zm97.3 43.7l-30.1-33.8v33.8h-13.3v-53.9h11.8l28.9 32.1v-32.1h13.3v53.9h-10.6zm127.9-5.5v-48.3h13.5v48.8c0 7.3-1.2 12.5-3.5 15.6-2.6 3.2-7.1 4.9-13.5 5.1l-4.8-10.7c3.6-.1 5.9-.9 6.9-2.4.9-1.3 1.4-4 1.4-8.1m48.9-48.3h20.2c5 0 9 .3 11.8.9 3.9.8 7.4 2.4 10.4 4.7 7 5.3 10.5 12.4 10.5 21.3 0 9.9-4.2 17.5-12.6 22.9-2.7 1.7-5.9 2.9-9.5 3.5-2.4.4-6 .6-10.6.6h-20.2v-53.9zm227.6 54.8c-6.7 0-12.9-1.7-18.7-5.2v-12c7.4 4.5 13.5 6.8 18.4 6.8 5.4 0 8-1.6 8-4.8 0-1.5-.6-2.7-1.8-3.5-.9-.6-2.7-1.4-5.4-2.4-7.2-2.5-12.3-5.1-15.2-7.7-3.4-2.9-5-6.7-5-11.4 0-4.6 1.9-8.3 5.6-11.2 3.7-2.9 8.7-4.3 14.7-4.3 6.2 0 12.3 1.5 18.3 4.4v11c-7-3.6-12.9-5.4-17.6-5.4-5.3 0-7.9 1.4-7.9 4.3 0 2.2 2.4 4.2 7.3 6 4.4 1.6 6.7 2.5 7 2.6 2.5 1.1 4.7 2.1 6.4 3.2 4.7 2.9 7.1 7.4 7.1 13.5 0 4.9-1.9 8.8-5.6 11.7-3.6 3-8.9 4.4-15.6 4.4m184.2-60h-8.8l7.1-12.5h10.9l-9.2 12.5zm18.6 12c5.6 5.4 8.4 12.1 8.4 20.2s-2.8 14.8-8.3 20c-5.6 5.2-12.6 7.8-21 7.8s-15.4-2.6-20.8-7.7c-5.6-5.3-8.4-12-8.4-20.1 0-8.1 2.8-14.8 8.4-20.2 5.4-5.1 12.3-7.7 20.8-7.7 8.6 0 15.6 2.6 20.9 7.7m41.8 41.5v-48.3h13.5v48.8c0 7.3-1.2 12.5-3.5 15.6-2.6 3.2-7.1 4.9-13.5 5.1l-4.8-10.7c3.6-.1 5.9-.9 6.9-2.4.9-1.3 1.4-4 1.4-8.1m227.8-1.4c-5.5 5.2-12.6 7.8-21 7.8s-15.4-2.6-20.8-7.7c-5.6-5.3-8.4-12-8.4-20.1 0-8.1 2.8-14.8 8.4-20.2 5.4-5.1 12.3-7.7 20.8-7.7 8.6 0 15.5 2.5 20.9 7.7 5.6 5.4 8.4 12.1 8.4 20.2s-2.8 14.8-8.3 20m40.6-46.9h11.9l17.3 21.7 17.3-21.7h11.9v53.9H1502v-33.4l-16 19.7-15.9-19.7v33.4h-13.3v-53.9z" clip-path="url(#b)"/><path d="M188.5 154c0 17.3-14 31.3-31.3 31.3s-31.3-14-31.3-31.3 14-31.3 31.3-31.3 31.3 14 31.3 31.3m2.9 67.1c17.6-31.5 26.1-53.4 26.1-66.8 0-33.3-27.1-60.3-60.3-60.3-33.3 0-60.3 27.1-60.3 60.3 0 13.4 8.6 35.2 26.1 66.8 12.4 22.3 24.7 40.9 25.2 41.7l9 13.6 9-13.6c.5-.8 12.7-19.4 25.2-41.7m123 67c0 14.5-11.8 26.3-26.3 26.3H26.3C11.8 314.4 0 302.6 0 288.1V128.7L156.5 0h1.4l156.5 128.7v159.4zm0-200.4L207.8 0h80.3c14.5 0 26.3 11.8 26.3 26.3v61.4zM106.6 0L0 87.7V26.3C0 11.8 11.8 0 26.3 0h80.3zm991.3 145.3c5-6.1 7.5-14.5 7.5-25 0-10.3-2.5-18.7-7.6-25-5.1-6.3-11.6-9.5-19.7-9.5-8 0-14.6 3.2-19.7 9.5s-7.6 14.6-7.6 25c0 10.5 2.5 18.8 7.5 25 5 6.1 11.6 9.2 19.8 9.2 8.2 0 14.8-3.1 19.8-9.2m150.8-37.1h47.3c-.7-7.9-3.1-14.1-7.2-18.5-4.1-4.5-9.3-6.7-15.6-6.7-14.3-.1-22.4 8.3-24.5 25.2m264.4-22.4h-41.5v44.9c0 8.8 1.1 14.7 3.4 17.9 2.4 3.7 7.4 5.5 15 5.5 6.8 0 14.5-2 23.1-6l.3 28.7c-12.3 4.6-24.5 6.8-36.8 6.8-15.9 0-27.2-4.3-33.9-12.9-6.1-8.1-9.2-21.5-9.2-40.2v-29.1c-7.4-5.8-14.1-8.7-20.2-8.7-7.2 0-13.7 3.2-19.5 9.6-5.8 6.4-10 15.2-12.6 26.4V181h-38.3V59.3h38.3v32.6c12.3-22.9 25.1-34.4 38.4-34.4 3.8 0 8 1 12.5 2.8l33.7-36.5h5.8v35.5h41.5v26.5zm-178.4 41h-86.2v.5c0 9.6 3.3 17.3 10 22.9 6.7 5.6 15.7 8.4 27.1 8.4 15.2 0 30.7-5.4 46.3-16.3v25.2c-16.5 10.7-35.1 16-55.7 16-21.2 0-37.7-5.8-49.4-17.3-11.7-11.6-17.6-27.4-17.6-47.6 0-18.7 5.8-33.7 17.5-44.9 11.7-11.2 27.1-16.8 46.4-16.8 19.1 0 34.2 6.1 45.2 18.2 11 12.2 16.6 28.9 16.6 50.3v1.4zM1223.6 34c-5.4-1.1-9.5-1.5-13.3-.9-7.6 1.1-11.2 2.4-13.8 6.3-2.6 3.9-2.2 5.6-2.2 14.2v5.8h16v26h-16V181H1156V85.3h-17.3v-26h17.3V45.9c0-17.3 16.9-42.5 50.7-42.5 5.3 0 9.1 0 16.9 1.5V34zm-97.1 40.7c12.3 11.8 18.5 27 18.5 45.6s-6.2 33.7-18.5 45.5c-12.4 11.7-28.5 17.6-48.5 17.6s-36.1-5.9-48.4-17.6c-12.3-11.7-18.4-26.9-18.4-45.5s6.2-33.8 18.5-45.6c12.3-11.8 28.4-17.7 48.2-17.7 20.1-.1 36.3 5.8 48.6 17.7" clip-path="url(#b)" fill="#d10019"/></svg>