<?xml version="1.0" encoding="utf-8"?>
<!-- Generator: Adobe Illustrator 18.1.1, SVG Export Plug-In . SVG Version: 6.00 Build 0)  -->
<svg version="1.1" xmlns="http://www.w3.org/2000/svg" xmlns:xlink="http://www.w3.org/1999/xlink" x="0px" y="0px" width="128px"
   height="128px" viewBox="0 0 128 128" style="enable-background:new 0 0 128 128;" xml:space="preserve">
<g id="BASE">
  <linearGradient id="SVGID_1_" gradientUnits="userSpaceOnUse" x1="63.9997" y1="7.0336" x2="63.9997" y2="120.7894">
    <stop  offset="0" style="stop-color:#4387FD"/>
    <stop  offset="1" style="stop-color:#4683EA"/>
  </linearGradient>
  <path style="fill:url(#SVGID_1_);" d="M27.7906,115.2166L1.54,69.7493c-2.0541-3.5578-2.0541-7.9412,0-11.499l26.2506-45.4672
    c2.0542-3.5578,5.8503-5.7495,9.9585-5.7495h52.5012c4.1082,0,7.9044,2.1917,9.9585,5.7495l26.2506,45.4672
    c2.0541,3.5578,2.0541,7.9412,0,11.499l-26.2506,45.4673c-2.0541,3.5578-5.8503,5.7495-9.9585,5.7495H37.7491
    C33.6409,120.9661,29.8448,118.7744,27.7906,115.2166z"/>
</g>
<g id="shadow">
  <g>
    <defs>
      <path id="SVGID_5_" d="M27.7911,115.2166L1.5406,69.7494c-2.0541-3.5578-2.0541-7.9412,0-11.499l26.2505-45.4672
        c2.0541-3.5578,5.8502-5.7495,9.9584-5.7495h52.5009c4.1082,0,7.9044,2.1917,9.9585,5.7495l26.2505,45.4672
        c2.0541,3.5578,2.0541,7.9412,0,11.499l-26.2505,45.4672c-2.0541,3.5578-5.8502,5.7495-9.9585,5.7495H37.7495
        C33.6413,120.9661,29.8452,118.7744,27.7911,115.2166z"/>
    </defs>
    <clipPath id="SVGID_2_">
      <use xlink:href="#SVGID_5_"  style="overflow:visible;"/>
    </clipPath>
    <polygon style="opacity:0.07;clip-path:url(#SVGID_2_);" points="123.1042,78.0832 86.4688,41.4478 80,43.7499 77.5,50.4999
      69,41.9999 60,41.7499 59.8125,50.8541 51.2083,42.2499 42.5,41.9999 40.714,49.7139 50.625,59.6249 41.25,68.2499
      50.875,77.8749 41.75,77.9999 41.6823,86.4009 77.4219,122.1405 97.6671,121.9478    "/>
  </g>
</g>
<g id="art">
  <g>
    <g>
      <g>
        <path style="fill:#FFFFFF;" d="M82,78.3998c1.985,0,3.6,1.615,3.6,3.6s-1.6149,3.6-3.6,3.6s-3.6-1.615-3.6-3.6
          S80.015,78.3998,82,78.3998 M82,75.9998c-3.3137,0-6,2.6863-6,6c0,3.3137,2.6863,6,6,6s6-2.6863,6-6
          C88,78.6862,85.3137,75.9998,82,75.9998L82,75.9998z"/>
      </g>
    </g>
    <g>
      <path style="fill:#FFFFFF;" d="M64,75.9998c-3.3137,0-6,2.6863-6,6c0,3.3137,2.6863,6,6,6c3.3137,0,6-2.6863,6-6
        C70,78.6861,67.3137,75.9998,64,75.9998L64,75.9998z"/>
    </g>
    <g>
      <g>
        <path style="fill:#FFFFFF;" d="M46,78.3998c1.985,0,3.6,1.615,3.6,3.6s-1.6149,3.6-3.6,3.6s-3.6-1.615-3.6-3.6
          S44.015,78.3998,46,78.3998 M46,75.9998c-3.3137,0-6,2.6863-6,6c0,3.3137,2.6863,6,6,6s6-2.6863,6-6
          C52,78.6862,49.3137,75.9998,46,75.9998L46,75.9998z"/>
      </g>
    </g>
    <g>
      <g>
        <path style="fill:#FFFFFF;" d="M82,60.3998c1.985,0,3.6,1.615,3.6,3.6s-1.6149,3.6-3.6,3.6s-3.6-1.615-3.6-3.6
          S80.015,60.3998,82,60.3998 M82,57.9998c-3.3137,0-6,2.6863-6,6c0,3.3137,2.6863,6,6,6s6-2.6863,6-6
          C88,60.6861,85.3137,57.9998,82,57.9998L82,57.9998z"/>
      </g>
    </g>
    <g>
      <path style="fill:#FFFFFF;" d="M64,57.9999c-3.3137,0-6,2.6863-6,6s2.6863,6,6,6c3.3137,0,6-2.6863,6-6
        S67.3137,57.9999,64,57.9999L64,57.9999z"/>
    </g>
    <g>
      <path style="fill:#FFFFFF;" d="M46,57.9999c-3.3137,0-6,2.6863-6,6s2.6863,6,6,6s6-2.6863,6-6S49.3137,57.9999,46,57.9999
        L46,57.9999z"/>
    </g>
    <g>
      <path style="fill:#FFFFFF;" d="M82,39.9999c-3.3137,0-6,2.6863-6,6c0,3.3137,2.6863,6,6,6c3.3137,0,6-2.6863,6-6
        C88,42.6861,85.3137,39.9999,82,39.9999L82,39.9999z"/>
    </g>
    <g>
      <g>
        <path style="fill:#FFFFFF;" d="M64,42.3998c1.985,0,3.6,1.615,3.6,3.6s-1.6149,3.6-3.6,3.6s-3.6-1.615-3.6-3.6
          S62.015,42.3998,64,42.3998 M64,39.9998c-3.3137,0-6,2.6863-6,6s2.6863,6,6,6s6-2.6863,6-6S67.3137,39.9998,64,39.9998
          L64,39.9998z"/>
      </g>
    </g>
    <g>
      <g>
        <path style="fill:#FFFFFF;" d="M46,42.3998c1.985,0,3.6,1.615,3.6,3.6s-1.6149,3.6-3.6,3.6s-3.6-1.615-3.6-3.6
          S44.015,42.3998,46,42.3998 M46,39.9998c-3.3137,0-6,2.6863-6,6s2.6863,6,6,6s6-2.6863,6-6S49.3137,39.9998,46,39.9998
          L46,39.9998z"/>
      </g>
    </g>
  </g>
</g>
<g id="Guides">
</g>
</svg>
