<?xml version="1.0" encoding="UTF-8"?>
<svg width="24px" height="24px" viewBox="0 0 24 24" version="1.1" xmlns="http://www.w3.org/2000/svg" xmlns:xlink="http://www.w3.org/1999/xlink">
    <!-- Generator: Sketch 43.2 (39069) - http://www.bohemiancoding.com/sketch -->
    <title>TPU White 24@3x</title>
    <desc>Created with Sketch.</desc>
    <defs></defs>
    <g id="Page-1" stroke="none" stroke-width="1" fill="none" fill-rule="evenodd">
        <g id="TPU-White-24" fill-rule="nonzero" fill="#FFFFFF">
            <g id="512px_TPU-Copy-2">
                <path d="M17.9398162,5.44595186 L18.0047965,5.45939606 C18.2626573,5.51201629 18.4641763,5.71353527 18.5167965,5.97139606 L18.5302407,6.03637637 L18.5302407,17.7529978 L18.5167965,17.8179781 C18.4641763,18.0758389 18.2626573,18.2773579 18.0047965,18.3299781 L17.9398162,18.3434223 L6.22319475,18.3434223 L6.15821444,18.3299781 C5.90035365,18.2773579 5.69883467,18.0758389 5.64621444,17.8179781 L5.63277024,17.7529978 L5.63277024,6.03637637 L5.64621444,5.97139606 C5.69883467,5.71353527 5.90035365,5.51201629 6.15821444,5.45939606 L6.22319475,5.44595186 L17.9398162,5.44595186 L17.9398162,5.44595186 Z M18.483186,0.146695842 L15.9366302,0.146695842 L15.9366302,2.98118162 L13.63207,2.98118162 L13.63207,0.146695842 L11.0855142,0.146695842 L11.0855142,2.98118162 L8.22638074,2.98118162 L8.22638074,0.146695842 L5.67982495,0.146695842 L5.67982495,3.03943982 C4.44128748,3.28631187 3.47313025,4.2544691 3.22625821,5.49300656 L0.0892778993,5.49300656 L0.0892778993,8.03956236 L3.16687965,8.03956236 L3.16687965,10.8986958 L0.0881575492,10.8986958 L0.0881575492,13.4452516 L3.1657593,13.4452516 L3.1657593,15.7531729 L0.0881575492,15.7531729 L0.0881575492,18.2963676 L3.22513786,18.2963676 C3.4720099,19.5349051 4.44016713,20.5030623 5.6787046,20.7499344 L5.6787046,23.9126827 L8.22526039,23.9126827 L8.22526039,20.8093129 L11.0855142,20.8093129 L11.0855142,23.9115624 L13.63207,23.9115624 L13.63207,20.8093129 L15.9366302,20.8093129 L15.9366302,23.9115624 L18.483186,23.9115624 L18.483186,20.7499344 C19.7217235,20.5030623 20.6898807,19.5349051 20.9367527,18.2963676 L23.849663,18.2963676 L23.849663,15.7531729 L20.9961313,15.7531729 L20.9961313,13.4452516 L23.8541444,13.4452516 L23.8541444,10.8986958 L20.9961313,10.8986958 L20.9961313,8.03956236 L23.8541444,8.03956236 L23.8541444,5.49300656 L20.9412341,5.49300656 C20.6943621,4.2544691 19.7262049,3.28631187 18.4876674,3.03943982 L18.4876674,0.146695842 L18.483186,0.146695842 Z" id="Shape"></path>
                <path d="M5.32243326,9.32796499 C5.07493235,9.34436192 4.86100087,9.15701514 4.84460394,8.90951422 C4.828207,8.66201331 5.01555379,8.44808184 5.2630547,8.4316849 L8.01911597,8.05748796 C8.17782008,8.03587378 8.33599975,8.10056908 8.43407023,8.22720377 C8.53214071,8.35383847 8.55520276,8.52317373 8.49456914,8.67142261 C8.43393551,8.81967148 8.29881789,8.92431143 8.14011379,8.9459256 L5.38293217,9.32348359 C5.36288665,9.32630887 5.34267628,9.32780594 5.32243326,9.32796499 L5.32243326,9.32796499 Z" id="Shape"></path>
                <rect id="Rectangle-path" transform="translate(11.320466, 9.299580) rotate(-71.950000) translate(-11.320466, -9.299580) " x="10.8723258" y="6.68860409" width="1" height="5.22195186"></rect>
                <path d="M8.55800438,8.77003063 C8.41668581,8.77013419 8.28359761,8.70357316 8.19891235,8.59043893 C8.11422708,8.47730471 8.08786739,8.33085333 8.12778993,8.19529103 L9.13610503,4.79278775 C9.17734673,4.63460317 9.30145062,4.51142493 9.45993952,4.47136864 C9.61842842,4.43131234 9.78615492,4.48073371 9.89760209,4.60032788 C10.0090493,4.71992206 10.0465338,4.89071304 9.99541357,5.04598687 L8.98709847,8.44849015 C8.9310372,8.638855 8.75645215,8.76967983 8.55800438,8.77003063 Z" id="Shape"></path>
                <path d="M14.6941619,10.4438337 C14.5457923,10.4438302 14.4070421,10.3703924 14.3236062,10.2477058 C14.2401703,10.1250192 14.2228658,9.96898943 14.2773917,9.83100219 L16.2861794,4.75469584 C16.3782263,4.52619464 16.6374503,4.41483124 16.8665554,4.50536469 C17.0956604,4.59589813 17.208736,4.85437992 17.1197199,5.08407877 L15.1109322,10.1603851 C15.0433389,10.3314417 14.8780891,10.4438294 14.6941619,10.4438337 Z" id="Shape"></path>
                <rect id="Rectangle-path" transform="translate(6.985291, 16.153528) rotate(-38.610000) translate(-6.985291, -16.153528) " x="3.9732299" y="15.705388" width="6.02412254" height="1"></rect>
                <rect id="Rectangle-path" transform="translate(16.814089, 11.165366) rotate(-66.450000) translate(-16.814089, -11.165366) " x="16.365949" y="8.79190437" width="1" height="4.74692341"></rect>
                <rect id="Rectangle-path" transform="translate(16.554509, 16.766284) rotate(-46.700000) translate(-16.554509, -16.766284) " x="16.106369" y="14.1088134" width="1" height="5.31494092"></rect>
                <rect id="Rectangle-path" transform="translate(9.004454, 11.000040) rotate(-11.480000) translate(-9.004454, -11.000040) " x="8.55631395" y="8.57112054" width="1" height="4.85783807"></rect>
                <rect id="Rectangle-path" transform="translate(12.241283, 12.263229) rotate(-41.310000) translate(-12.241283, -12.263229) " x="8.97322139" y="11.8150893" width="6.53612254" height="1"></rect>
                <rect id="Rectangle-path" transform="translate(14.622473, 12.490528) rotate(-86.420000) translate(-14.622473, -12.490528) " x="12.2378074" y="12.0423879" width="4.76933042" height="1"></rect>
                <circle id="Oval" cx="9.55399562" cy="14.3471335" r="1.63010941"></circle>
                <circle id="Oval" cx="14.764744" cy="10.2108009" r="1.93260394"></circle>
                <circle id="Oval" cx="14.7501794" cy="15.2109234" r="1.0127965"></circle>
                <circle id="Oval" cx="8.39107221" cy="8.18296718" r="1.18981182"></circle>
            </g>
        </g>
    </g>
</svg>