<?xml version="1.0" encoding="UTF-8" standalone="no"?>
<svg width="26px" height="26px" viewBox="0 0 26 26" version="1.1" xmlns="http://www.w3.org/2000/svg" xmlns:xlink="http://www.w3.org/1999/xlink">
    <!-- Generator: Sketch 39.1 (31720) - http://www.bohemiancoding.com/sketch -->
    <title>translate copy</title>
    <desc>Created with Sketch.</desc>
    <defs></defs>
    <g id="Page-1" stroke="none" stroke-width="1" fill="none" fill-rule="evenodd">
        <g id="art-copy-6" transform="translate(0.000000, 7.000000)" fill="#FFFFFF">
            <g id="Group">
                <path d="M20.5566561,1.10517333 L22.0951144,1.10517333 L25.7460465,11.1646016 L24.253445,11.1646016 L23.2030611,8.15134264 L19.2565755,8.15134264 L18.1655591,11.1646016 L16.7687343,11.1646016 L20.5566561,1.10517333 L20.5566561,1.10517333 Z M22.8164068,7.04229953 L21.2676291,2.59803287 L19.6584186,7.04229953 L22.8164068,7.04229953 L22.8164068,7.04229953 Z" id="Shape"></path>
                <path d="M8.56392434,3.86976744 L7.10802109,3.86976744 C6.96248558,4.19224806 6.8074369,4.50044279 6.64268155,4.79577054 C6.31039752,5.39190822 5.94860651,5.89126946 5.55727628,6.34203287 C5.14885457,5.85724775 4.76571535,5.35082419 4.40814884,4.75042977 C4.23933023,4.46674357 4.08470078,4.19224806 3.94222884,3.86976744 L2.51744496,3.86976744 C2.71522233,4.19224806 2.93499287,4.78512868 3.18252899,5.21702698 C3.61658791,5.97501767 4.08915101,6.64455194 4.59976682,7.27448558 C4.05493581,7.75949643 3.42093891,8.20916341 2.6973569,8.64731783 C1.97400062,9.08608496 1.11436403,9.46045271 0.118414884,9.78396527 L0.846285891,10.9941383 C1.76532341,10.6451498 2.61870388,10.232955 3.40600806,9.76061767 C4.19331225,9.28808682 4.90176992,8.77898667 5.53167132,8.23376868 C5.82951442,8.50655504 6.16160496,8.76789333 6.52765271,9.01891225 C6.89334574,9.26996341 7.27861333,9.51040496 7.68297178,9.74004341 C8.08713674,9.96993984 8.50020217,10.1824223 8.9214586,10.3782648 C9.34310202,10.5739138 9.76200434,10.7441513 10.1794233,10.8888806 L10.894266,9.58647814 C10.545084,9.47609302 10.1794233,9.34632682 9.79625178,9.19724403 C9.41308031,9.04822574 9.03032806,8.87802047 8.64715659,8.68662822 C8.26398512,8.49484899 7.8874245,8.28230202 7.5170555,8.04818109 C7.14713798,7.81425364 6.80417984,7.55659163 6.48921302,7.27558202 C7.02569178,6.66296558 7.50228589,6.0194555 7.91928558,5.24924279 C8.15898543,4.80628341 8.37195163,4.19224806 8.56392434,3.86976744 L8.56392434,3.86976744 Z" id="Shape"></path>
                <polygon id="Shape" points="17.0215268 6.28740465 14.7234977 4.96055814 14.7234977 5.9961724 10.2329873 5.9961724 10.2329873 6.66167566 14.7234977 6.66167566 14.7234977 7.61431566"></polygon>
                <polygon id="Shape" points="6.08891783 2.00479752 6.08891783 0.00893271318 4.74468961 0.00893271318 4.74468961 2.00479752 0.254017984 2.00479752 0.254017984 3.1690493 10.7319293 3.1690493 10.7319293 2.00479752"></polygon>
            </g>
        </g>
    </g>
</svg>