<svg width="80" height="56" viewBox="0 0 80 56" xmlns="http://www.w3.org/2000/svg"><title>vdbtn_default</title><g fill="none" fill-rule="evenodd"><path d="M31.9 39.53V16.44l21.433 11.99L31.9 39.53zm47.233-27.668s-.766-5.435-3.166-7.807c-3.034-3.162-6.434-3.162-8-3.36C56.8-.094 40 .005 40 .005s-16.733-.1-27.9.691c-1.533.197-4.933.197-7.967 3.36-2.4 2.371-3.2 7.806-3.2 7.806s-.8 6.423-.933 12.78v6.654c.133 6.39.933 12.747.933 12.747s.8 5.435 3.2 7.84c3.034 3.129 7 3.03 8.8 3.36C19.2 55.867 39.3 56 40 56c0 0 16.833.033 28-.758 1.533-.197 4.933-.197 7.967-3.36 2.4-2.371 3.2-7.806 3.2-7.806s.8-6.39.833-12.747v-6.654c-.067-6.39-.867-12.813-.867-12.813z" fill="#FFF"/><path fill="#E92706" d="M31.9 39.53V16.44l21.433 11.99z"/></g></svg>