<svg width="60" height="42" viewBox="0 0 60 42" xmlns="http://www.w3.org/2000/svg"><title>vdbtn_hover60</title><g fill="none" fill-rule="evenodd"><path d="M23.925 29.648V12.33L40 21.323l-16.075 8.325zM59.35 8.896s-.575-4.076-2.375-5.854C54.7.67 52.15.67 50.975.522 42.6-.071 30 .003 30 .003S17.45-.071 9.075.522C7.925.67 5.375.67 3.1 3.042 1.3 4.82.7 8.896.7 8.896s-.6 4.818-.7 9.586v4.99c.1 4.792.7 9.56.7 9.56s.6 4.076 2.4 5.88c2.275 2.347 5.25 2.273 6.6 2.52C14.4 41.9 29.475 42 30 42c0 0 12.625.025 21-.568 1.15-.149 3.7-.149 5.975-2.52 1.8-1.779 2.4-5.855 2.4-5.855s.6-4.793.625-9.56v-4.99c-.05-4.793-.65-9.61-.65-9.61z" fill="#E92706"/><path fill="#FFF" d="M23.925 29.648V12.33L40 21.323z"/></g></svg>