<?xml version="1.0" encoding="UTF-8"?>
<svg width="24px" height="24px" viewBox="0 0 24 24" version="1.1" xmlns="http://www.w3.org/2000/svg" xmlns:xlink="http://www.w3.org/1999/xlink">
    <!-- Generator: Sketch 42 (36781) - http://www.bohemiancoding.com/sketch -->
    <title>Artboard</title>
    <desc>Created with Sketch.</desc>
    <defs></defs>
    <g id="Page-1" stroke="none" stroke-width="1" fill="none" fill-rule="evenodd">
        <g id="VI" transform="translate(0.000000, 4.000000)" fill="#FFFFFF">
            <polygon id="Fill-1" points="10.56087 -2.85714285e-05 12.32797 3.04759048 14.79387 3.04759048 14.79387 4.57149524 11.28567 4.57149524 8.49427 -2.85714285e-05 -3e-05 -2.85714285e-05 -3e-05 4.95235238 2.39377 4.95235238 3.90517 2.28568571 6.99267 2.28568571 8.01627 3.80949524 4.93457 3.80949524 3.42307 6.4761619 -3e-05 6.4761619 -3e-05 9.42854286 3.42307 9.42854286 4.93457 12.1905429 8.01627 12.1905429 6.99267 13.7142571 3.90517 13.7142571 2.39377 11.0475905 -3e-05 11.0475905 -3e-05 15.9999714 8.49427 15.9999714 11.28567 11.8094952 14.79387 11.8094952 14.79387 13.3333048 12.32807 13.3333048 10.56077 15.9999714 17.19367 15.9999714 17.19367 8.76197143 9.49437 8.76197143 8.50627 10.285781 6.29377 10.285781 7.81137 8.00006667 6.29377 5.71425714 8.50627 5.71425714 9.46217 7.23682857 17.19367 7.23682857 17.19367 -2.85714285e-05"></polygon>
            <polygon id="Fill-2" points="19.19376 4.58251429 19.19376 11.5598476 23.98766 14.9246095 23.98766 1.26584762"></polygon>
        </g>
    </g>
</svg>