<svg xmlns="http://www.w3.org/2000/svg" viewBox="0 0 512 455.73"><defs><style>.cls-1{fill:#4285f4;}.cls-2{opacity:0.07;}.cls-3{fill:#fff;}</style></defs><title>Video_Intelligence_512px</title><g id="Layer_2" data-name="Layer 2"><g id="BASE"><path class="cls-1" d="M111.16,432.73,6.16,250.86a46,46,0,0,1,0-46L111.16,23A46,46,0,0,1,151,0H361a46,46,0,0,1,39.83,23l105,181.87a46,46,0,0,1,0,46l-105,181.87a46,46,0,0,1-39.83,23H151A46,46,0,0,1,111.16,432.73Z"/></g><g id="shadow"><path class="cls-2" d="M279.32,455.73H361a46,46,0,0,0,39.83-23l91.85-159.09L375.94,157.16,357.22,193,308,144.14l-48.63,27.76,22.15,22.18-10.47-.18-50.06-50-66.63,12-18.31,40,25.17,25-25.17,22,28,28.52-28,40.48Z"/></g><g id="art"><polygon class="cls-3" points="308 143.86 241.67 143.86 259.34 171.86 284 171.86 284 187.87 248.92 187.87 221.01 143.86 136.06 143.86 136.06 195.86 160 195.86 175.12 167.86 205.99 167.86 216.23 183.87 185.41 183.87 170.29 211.87 136.06 211.87 136.06 242.86 170.29 242.86 185.41 271.87 216.23 271.87 205.99 287.86 175.12 287.86 160 259.87 136.06 259.87 136.06 311.86 221.01 311.86 248.92 267.87 284 267.87 284 283.86 259.34 283.86 241.67 311.86 308 311.86 308 235.87 231.01 235.87 221.13 251.87 199 251.87 214.18 227.87 199 203.86 221.13 203.86 230.68 219.85 308 219.85 308 143.86"/><polygon class="cls-3" points="375.94 157.16 328 191.98 328 265.24 375.94 300.57 375.94 157.16"/></g></g></svg>