<?xml version="1.0" encoding="UTF-8" standalone="no"?>
<svg width="26px" height="26px" viewBox="0 0 26 26" version="1.1" xmlns="http://www.w3.org/2000/svg" xmlns:xlink="http://www.w3.org/1999/xlink">
    <!-- Generator: Sketch 39.1 (31720) - http://www.bohemiancoding.com/sketch -->
    <title>virtual-engine copy</title>
    <desc>Created with Sketch.</desc>
    <defs></defs>
    <g id="Page-1" stroke="none" stroke-width="1" fill="none" fill-rule="evenodd">
        <g id="Layer_1-Copy-10" transform="translate(2.000000, 1.000000)" fill="#FFFFFF">
            <rect id="Rectangle-path" x="3.32820513" y="7.5" width="2.25641026" height="9.23684211"></rect>
            <rect id="Rectangle-path" x="16.4153846" y="6.36315789" width="2.25641026" height="10.3263158"></rect>
            <rect id="Rectangle-path" x="6.66769231" y="3.94736842" width="8.66461538" height="2.36842105"></rect>
            <rect id="Rectangle-path" x="6.66769231" y="17.6842105" width="8.66461538" height="2.36842105"></rect>
            <path d="M7.38974359,8.68421053 L0.620512821,8.68421053 C0.34974359,8.68421053 0.169230769,8.49473684 0.169230769,8.21052632 L0.169230769,1.10526316 C0.169230769,0.821052632 0.34974359,0.631578947 0.620512821,0.631578947 L7.38974359,0.631578947 C7.66051282,0.631578947 7.84102564,0.821052632 7.84102564,1.10526316 L7.84102564,8.21052632 C7.84102564,8.44736842 7.66051282,8.68421053 7.38974359,8.68421053 L7.38974359,8.68421053 Z" id="Shape"></path>
            <path d="M21.3794872,8.68421053 L14.6102564,8.68421053 C14.3394872,8.68421053 14.1589744,8.49473684 14.1589744,8.21052632 L14.1589744,1.10526316 C14.1589744,0.821052632 14.3394872,0.631578947 14.6102564,0.631578947 L21.3794872,0.631578947 C21.6502564,0.631578947 21.8307692,0.821052632 21.8307692,1.10526316 L21.8307692,8.21052632 C21.8307692,8.44736842 21.6502564,8.68421053 21.3794872,8.68421053 L21.3794872,8.68421053 Z" id="Shape"></path>
            <path d="M7.38974359,23.3684211 L0.620512821,23.3684211 C0.34974359,23.3684211 0.169230769,23.1789474 0.169230769,22.8947368 L0.169230769,15.7894737 C0.169230769,15.5052632 0.34974359,15.3157895 0.620512821,15.3157895 L7.38974359,15.3157895 C7.66051282,15.3157895 7.84102564,15.5052632 7.84102564,15.7894737 L7.84102564,22.8947368 C7.84102564,23.1315789 7.66051282,23.3684211 7.38974359,23.3684211 L7.38974359,23.3684211 Z" id="Shape"></path>
            <path d="M21.3794872,23.3684211 L14.6102564,23.3684211 C14.3394872,23.3684211 14.1589744,23.1789474 14.1589744,22.8947368 L14.1589744,15.7894737 C14.1589744,15.5052632 14.3394872,15.3157895 14.6102564,15.3157895 L21.3794872,15.3157895 C21.6502564,15.3157895 21.8307692,15.5052632 21.8307692,15.7894737 L21.8307692,22.8947368 C21.8307692,23.1315789 21.6502564,23.3684211 21.3794872,23.3684211 L21.3794872,23.3684211 Z" id="Shape"></path>
        </g>
    </g>
</svg>