<svg xmlns="http://www.w3.org/2000/svg" viewBox="0 0 432 243"><defs><style>.cls-1{fill:#f1f3f4;}.cls-2{fill:#dadce0;}.cls-3{fill:#f8f9fa;}.cls-4{fill:#fbbc04;}.cls-4,.cls-5{fill-rule:evenodd;}.cls-5{fill:#4285f4;}</style></defs><g id="BG"><ellipse class="cls-1" cx="245.08" cy="102.22" rx="65.9" ry="65.84"/><ellipse class="cls-1" cx="177.82" cy="154.91" rx="55.19" ry="55.13"/><path class="cls-1" d="M138.86,71.9h0a1.12,1.12,0,0,1-.66,1l-2.66,1.2a6.86,6.86,0,0,0-3.38,3.38L131,80.16a1.13,1.13,0,0,1-1,.66h0a1.12,1.12,0,0,1-1-.66l-1.2-2.65a6.92,6.92,0,0,0-3.39-3.38l-2.65-1.2a1.12,1.12,0,0,1-.66-1h0a1.12,1.12,0,0,1,.66-1l2.65-1.21a6.86,6.86,0,0,0,3.39-3.37l1.2-2.66a1.14,1.14,0,0,1,1-.66h0a1.15,1.15,0,0,1,1,.66l1.2,2.66a6.8,6.8,0,0,0,3.38,3.37l2.66,1.21A1.12,1.12,0,0,1,138.86,71.9Z"/></g><g id="_04" data-name="04"><rect class="cls-2" x="168.14" y="39.78" width="91.57" height="170.28" rx="10.08"/><rect class="cls-3" x="174.29" y="56.99" width="79.27" height="135.86" rx="2.54"/><path class="cls-4" d="M254.07,116.62h10.32a.59.59,0,0,1,.56.56l2.63,8.81a18.81,18.81,0,0,1,4.12,1.68l8.07-4.49c.19-.19.56,0,.75.18l7.32,7.12a2.13,2.13,0,0,1,.18.94l-4.5,8.06c.56,1.31,1.13,2.62,1.69,4.12L294,146c.37.19.56.37.56.75V157.1a.6.6,0,0,1-.56.56l-8.82,2.62c-.56,1.31-1.13,2.81-1.69,4.12l4.5,8.06a1.16,1.16,0,0,1-.18.75l-7.32,7.31a1.12,1.12,0,0,1-.75.19l-8.07-4.5c-1.31.56-2.81,1.12-4.12,1.69L265,186.7a.6.6,0,0,1-.56.57H254.07c-.37,0-.56-.19-.75-.57l-2.44-8.8c-1.5-.57-2.81-1.13-4.12-1.69l-8.07,4.5a1.12,1.12,0,0,1-.75-.19l-7.32-7.31c-.18-.19-.37-.56-.18-.75l4.5-8.06a19.36,19.36,0,0,1-1.69-4.12l-8.82-2.62a.6.6,0,0,1-.56-.56V146.79c0-.38.19-.56.56-.75l8.82-2.44a16,16,0,0,1,1.69-4.12l-4.5-8.06c-.19-.19,0-.56.18-.75l7.13-7.31c.38-.18.75-.37.94-.18l8.07,4.49a15.66,15.66,0,0,1,4.12-1.68l2.44-8.81C253.51,116.8,253.7,116.62,254.07,116.62ZM259.15,137a15,15,0,1,1-14.93,14.91A15,15,0,0,1,259.15,137Z"/><path class="cls-5" d="M169.91,67.17l13.75.15a.81.81,0,0,1,.75.76l3.37,11.78a25.45,25.45,0,0,1,5.48,2.31l10.82-5.89c.25-.25.75,0,1,.26l9.65,9.6a2.68,2.68,0,0,1,.24,1.25l-6.12,10.68c.73,1.76,1.47,3.52,2.2,5.53L222.77,107c.49.25.74.51.74,1l-.15,13.74a.79.79,0,0,1-.76.74l-11.79,3.37c-.77,1.75-1.54,3.74-2.31,5.48l5.89,10.81a1.47,1.47,0,0,1-.26,1l-9.86,9.64a1.44,1.44,0,0,1-1,.24l-10.69-6.11c-1.76.73-3.77,1.46-5.53,2.19l-3.63,11.71a.78.78,0,0,1-.75.74l-13.76-.14c-.5,0-.75-.26-1-.76l-3.13-11.78c-2-.77-3.74-1.54-5.48-2.31l-10.82,5.89a1.52,1.52,0,0,1-1-.27l-9.65-9.84c-.24-.26-.49-.76-.24-1l6.12-10.68a25.37,25.37,0,0,1-2.19-5.52l-11.72-3.62a.79.79,0,0,1-.74-.76l.14-13.74c0-.5.26-.75.76-1l11.79-3.13a21.17,21.17,0,0,1,2.31-5.47l-5.89-10.81c-.24-.25,0-.75.26-1l9.61-9.64c.5-.24,1-.49,1.25-.24L160,81.81a21.35,21.35,0,0,1,5.52-2.19l3.38-11.71C169.15,67.42,169.41,67.17,169.91,67.17Zm6.48,26.56c12.09.13,22,9.37,21.84,20.74S188.05,135.09,176,135s-21.72-9.59-21.6-21S164.29,93.6,176.39,93.73Z"/></g></svg>