<svg xmlns="http://www.w3.org/2000/svg" viewBox="0 0 768 432"><defs><style>.cls-1{fill:#f1f3f4;}.cls-2{fill:#ea4335;}.cls-2,.cls-6,.cls-8{fill-rule:evenodd;}.cls-3{fill:#dadce0;}.cls-4{fill:#fff;}.cls-5{fill:#bdc1c6;}.cls-6{fill:#fbbc04;}.cls-7,.cls-9{fill:none;stroke-miterlimit:10;stroke-width:6px;}.cls-7{stroke:#f9ab00;}.cls-8{fill:#34a853;}.cls-9{stroke:#1e8e3e;}</style></defs><g id="BG"><circle class="cls-1" cx="420.13" cy="181.74" r="125.23"/><circle class="cls-1" cx="292.19" cy="211.8" r="89.1"/><circle class="cls-1" cx="253.13" cy="322.57" r="52.57"/><path class="cls-1" d="M580.86,375.14a112.35,112.35,0,1,0-204.28,0Z"/><rect class="cls-1" x="253.13" y="270" width="165.46" height="105.14"/><circle class="cls-1" cx="624.71" cy="214.92" r="3.12"/><path class="cls-1" d="M621.14,268.56h0a2.27,2.27,0,0,0,1.32,2.06l5.34,2.43a13.69,13.69,0,0,1,6.79,6.79l2.43,5.34a2.26,2.26,0,0,0,2.06,1.33h0a2.28,2.28,0,0,0,2.07-1.33l2.42-5.34a13.71,13.71,0,0,1,6.8-6.79l5.33-2.43a2.26,2.26,0,0,0,1.33-2.06h0a2.28,2.28,0,0,0-1.33-2.07l-5.33-2.42a13.73,13.73,0,0,1-6.8-6.8l-2.42-5.33a2.28,2.28,0,0,0-2.07-1.33h0a2.26,2.26,0,0,0-2.06,1.33l-2.43,5.33a13.71,13.71,0,0,1-6.79,6.8l-5.34,2.42A2.28,2.28,0,0,0,621.14,268.56Z"/></g><g id="_04" data-name="04"><path class="cls-2" d="M484.06,157.62,492.27,127a3.81,3.81,0,0,0-1-3.67l-22.42-22.43a3.8,3.8,0,0,0-3.67-1l-30.64,8.21a3.78,3.78,0,0,0-2.68,2.68l-8.21,30.64a3.78,3.78,0,0,0,1,3.67l22.43,22.42a3.8,3.8,0,0,0,3.67,1l30.63-8.21A3.81,3.81,0,0,0,484.06,157.62Zm-37.27-12.24a15.8,15.8,0,1,1,22.34,0A15.79,15.79,0,0,1,446.79,145.38Z"/><rect class="cls-3" x="294.89" y="70.61" width="163.07" height="303.52" rx="17.39"/><rect class="cls-4" x="302.04" y="101.29" width="148.78" height="242.18" rx="4.5"/><rect class="cls-5" x="355.82" y="83.56" width="41.21" height="4.8" rx="2.4"/><rect class="cls-5" x="355.82" y="356.39" width="41.21" height="4.8" rx="2.4"/><circle class="cls-5" cx="411.94" cy="85.96" r="2.4"/><path class="cls-6" d="M438.92,207.17H455.1a.94.94,0,0,1,.88.88l4.12,13.83a30.39,30.39,0,0,1,6.47,2.64l12.65-7.05c.29-.3.88,0,1.17.29l11.47,11.18a3.11,3.11,0,0,1,.3,1.47l-7.06,12.64c.88,2.06,1.76,4.12,2.65,6.47l13.82,3.83c.59.29.88.58.88,1.17V270.7a.94.94,0,0,1-.88.88l-13.82,4.12c-.89,2.06-1.77,4.41-2.65,6.47l7.06,12.65a1.72,1.72,0,0,1-.3,1.17l-11.47,11.47a1.72,1.72,0,0,1-1.17.3l-12.65-7.06c-2.06.88-4.41,1.76-6.47,2.64L456,317.17a.94.94,0,0,1-.88.88H438.92c-.58,0-.88-.29-1.17-.88l-3.82-13.83c-2.36-.88-4.42-1.76-6.48-2.64l-12.64,7.06a1.75,1.75,0,0,1-1.18-.3L402.16,296c-.29-.29-.59-.88-.29-1.17l7.06-12.65a29.93,29.93,0,0,1-2.65-6.47l-13.82-4.12a1,1,0,0,1-.89-.88V254.52c0-.59.3-.88.89-1.17l13.82-3.83a25,25,0,0,1,2.65-6.47l-7.06-12.64c-.3-.3,0-.89.29-1.18l11.18-11.47c.59-.29,1.17-.59,1.47-.29l12.64,7.05a25.22,25.22,0,0,1,6.48-2.64l3.82-13.83C438,207.47,438.34,207.17,438.92,207.17Zm8,35.3a20.14,20.14,0,1,1-20,20A20.16,20.16,0,0,1,446.9,242.47Z"/><circle class="cls-7" cx="447.01" cy="262.61" r="32.99"/><path class="cls-8" d="M307,129.58l21.57.22a1.26,1.26,0,0,1,1.16,1.19l5.3,18.49a40.19,40.19,0,0,1,8.59,3.62l17-9.23c.4-.39,1.18,0,1.57.41l15.13,15.06a4.28,4.28,0,0,1,.38,2L368,178.07c1.14,2.76,2.29,5.51,3.43,8.66l18.38,5.3c.78.4,1.17.79,1.16,1.58l-.23,21.57a1.24,1.24,0,0,1-1.19,1.16l-18.49,5.3c-1.2,2.73-2.41,5.85-3.62,8.59l9.24,17a2.35,2.35,0,0,1-.41,1.56l-15.46,15.14a2.35,2.35,0,0,1-1.57.37l-16.76-9.59c-2.76,1.15-5.91,2.29-8.67,3.44l-5.68,18.37a1.26,1.26,0,0,1-1.19,1.17l-21.57-.23c-.79,0-1.17-.4-1.56-1.19l-4.9-18.49c-3.13-1.21-5.86-2.41-8.59-3.62l-17,9.23a2.37,2.37,0,0,1-1.57-.4l-15.13-15.46c-.39-.4-.77-1.19-.38-1.57l9.59-16.77a39.69,39.69,0,0,1-3.43-8.66l-18.38-5.69a1.24,1.24,0,0,1-1.16-1.19l.23-21.56c0-.79.4-1.18,1.19-1.56l18.49-4.9a32.81,32.81,0,0,1,3.62-8.59l-9.24-17c-.39-.39,0-1.17.41-1.56l15.06-15.14c.79-.38,1.58-.77,2-.37l16.76,9.59a33.19,33.19,0,0,1,8.67-3.44l5.29-18.37C305.78,130,306.18,129.57,307,129.58Zm10.15,45.78a28.25,28.25,0,1,1-28.39,27.8A28.28,28.28,0,0,1,317.11,175.36Z"/><circle class="cls-9" cx="316.96" cy="203.61" r="44.22"/></g></svg>