<svg xmlns="http://www.w3.org/2000/svg" viewBox="0 0 432 243"><defs><style>.cls-1{fill:#f1f3f4;}.cls-2{fill:none;stroke:#dadce0;stroke-linecap:round;stroke-linejoin:round;stroke-width:5.97px;}.cls-3{fill:#a50e0e;}.cls-4{fill:#ea4335;}</style></defs><g id="BG"><ellipse class="cls-1" cx="245.08" cy="100.51" rx="65.9" ry="65.84"/><ellipse class="cls-1" cx="177.82" cy="153.2" rx="55.19" ry="55.13"/><path class="cls-1" d="M138.86,70.19h0a1.14,1.14,0,0,1-.66,1l-2.66,1.2a6.79,6.79,0,0,0-3.38,3.38L131,78.45a1.15,1.15,0,0,1-1,.66h0a1.14,1.14,0,0,1-1-.66l-1.2-2.65a6.84,6.84,0,0,0-3.39-3.38l-2.65-1.2a1.14,1.14,0,0,1-.66-1h0a1.12,1.12,0,0,1,.66-1L124.31,68a6.84,6.84,0,0,0,3.39-3.38l1.2-2.65a1.14,1.14,0,0,1,1-.66h0a1.15,1.15,0,0,1,1,.66l1.2,2.65A6.79,6.79,0,0,0,135.54,68l2.66,1.21A1.12,1.12,0,0,1,138.86,70.19Z"/></g><g id="_04" data-name="04"><path class="cls-2" d="M305.44,149.06H178a8.09,8.09,0,0,0-8.1,8.08h0a8.1,8.1,0,0,0,8.1,8.09h81.22a11.44,11.44,0,0,1,11.45,11.43h0a11.45,11.45,0,0,1-11.45,11.44H217.61"/><ellipse class="cls-3" cx="216" cy="100.43" rx="19.65" ry="19.63"/><path id="SVGID" class="cls-4" d="M216,52a48.54,48.54,0,0,1,48.57,48.53c0,29.46-19.13,41-35.45,66.19-9.83,15.26-6.89,24.38-13.12,24.38-6.39,0-3.54-9.12-13.4-24.35-16.3-25.25-35.17-36.76-35.17-66.22A48.54,48.54,0,0,1,216,52Zm0,67a18.54,18.54,0,1,0-18.56-18.54A18.55,18.55,0,0,0,216,119Z"/></g></svg>