<svg xmlns="http://www.w3.org/2000/svg" viewBox="0 0 768 432"><defs><style>.cls-1{fill:#f1f3f4;}.cls-11,.cls-12,.cls-2{fill:none;}.cls-2{stroke:#dadce0;stroke-width:12px;}.cls-10,.cls-2,.cls-6,.cls-8{stroke-linecap:round;stroke-linejoin:round;}.cls-3{fill:#a50e0e;}.cls-4{fill:#ea4335;}.cls-5,.cls-8{fill:#fbbc04;}.cls-10,.cls-6,.cls-7{fill:#fff;}.cls-11,.cls-6,.cls-8{stroke:#fff;}.cls-10,.cls-11,.cls-12,.cls-6,.cls-8{stroke-width:2.4px;}.cls-9{fill:#34a853;}.cls-10{stroke:#34a853;}.cls-11,.cls-12{stroke-miterlimit:10;}.cls-12{stroke:#ea4335;}</style></defs><g id="BG"><circle class="cls-1" cx="420.13" cy="181.74" r="125.23"/><circle class="cls-1" cx="292.19" cy="211.8" r="89.1"/><circle class="cls-1" cx="253.13" cy="322.57" r="52.57"/><path class="cls-1" d="M580.86,375.14a112.35,112.35,0,1,0-204.28,0Z"/><rect class="cls-1" x="253.13" y="270" width="165.46" height="105.14"/><circle class="cls-1" cx="624.71" cy="214.92" r="3.12"/><path class="cls-1" d="M621.14,268.56h0a2.27,2.27,0,0,0,1.32,2.06l5.34,2.43a13.69,13.69,0,0,1,6.79,6.79l2.43,5.34a2.26,2.26,0,0,0,2.06,1.33h0a2.28,2.28,0,0,0,2.07-1.33l2.42-5.34a13.71,13.71,0,0,1,6.8-6.79l5.33-2.43a2.26,2.26,0,0,0,1.33-2.06h0a2.28,2.28,0,0,0-1.33-2.07l-5.33-2.42a13.73,13.73,0,0,1-6.8-6.8l-2.42-5.33a2.28,2.28,0,0,0-2.07-1.33h0a2.26,2.26,0,0,0-2.06,1.33l-2.43,5.33a13.71,13.71,0,0,1-6.79,6.8l-5.34,2.42A2.28,2.28,0,0,0,621.14,268.56Z"/></g><g id="_04" data-name="04"><path class="cls-2" d="M203.09,290.64H459.34a16.28,16.28,0,0,1,16.27,16.27h0a16.27,16.27,0,0,1-16.27,16.27H296.05a23,23,0,0,0-23,23h0a23,23,0,0,0,23,23h83.6"/><circle class="cls-3" cx="381.08" cy="192.8" r="39.51"/><path id="SVGID" class="cls-4" d="M381.08,95.25a97.62,97.62,0,0,0-97.64,97.64c0,59.28,38.45,82.45,71.25,133.2,19.78,30.7,13.86,49.05,26.39,49.05,12.85,0,7.11-18.35,26.93-49,32.76-50.8,70.71-74,70.71-133.25A97.62,97.62,0,0,0,381.08,95.25Zm0,134.85a37.31,37.31,0,1,1,37.3-37.3A37.31,37.31,0,0,1,381.08,230.1Z"/><path class="cls-5" d="M156.2,100.5h85.34a11.59,11.59,0,0,1,11.59,11.59V172.5a0,0,0,0,1,0,0H156.2a11.59,11.59,0,0,1-11.59-11.59V112.08A11.59,11.59,0,0,1,156.2,100.5Z"/><path class="cls-6" d="M178.59,143.16A45.56,45.56,0,0,1,221,114.36v45.57Z"/><circle class="cls-5" cx="209.41" cy="128.42" r="5.99"/><rect class="cls-7" x="218.77" y="149.03" width="3.3" height="17.61" rx="1.47" transform="translate(440.83 315.68) rotate(180)"/><rect class="cls-7" x="195.19" y="144.5" width="3.3" height="13.97" rx="1.47" transform="translate(393.69 302.97) rotate(-180)"/><rect class="cls-7" x="188.8" y="145.48" width="3.3" height="16.16" rx="1.47" transform="translate(380.9 307.12) rotate(180)"/><path class="cls-5" d="M214.57,145.11a6,6,0,0,1,7.81-7.17l0,11.26A6,6,0,0,1,214.57,145.11Z"/><circle class="cls-5" cx="199.57" cy="142.16" r="5.99"/><path class="cls-8" d="M181.84,144.45A41.85,41.85,0,0,1,221,117.86v-7a48.81,48.81,0,0,0-45.62,31Z"/><polygon class="cls-5" points="265.13 172.5 253.13 172.5 253.13 160.5 265.13 172.5"/><path class="cls-9" d="M536.62,173.46H635.1a0,0,0,0,1,0,0v63.71a12,12,0,0,1-12,12H536.62a12,12,0,0,1-12-12V185.46A12,12,0,0,1,536.62,173.46Z" transform="translate(1159.72 422.63) rotate(-180)"/><rect class="cls-10" x="556.46" y="209.24" width="46.8" height="29"/><rect class="cls-10" x="561.1" y="188.7" width="9.38" height="25.1" rx="4.69"/><rect class="cls-10" x="570.48" y="188.7" width="9.38" height="25.1" rx="4.69"/><rect class="cls-10" x="579.86" y="188.7" width="9.38" height="25.1" rx="4.69"/><rect class="cls-10" x="589.24" y="188.7" width="9.38" height="25.1" rx="4.69"/><path class="cls-10" d="M603.26,213.8h0a4.64,4.64,0,0,1-4.64-4.64V189.64a.94.94,0,0,1,.94-.94h0a.94.94,0,0,1,.88.6l7.14,18.17A4.64,4.64,0,0,1,603.26,213.8Z"/><path class="cls-10" d="M556.46,213.8h0a4.64,4.64,0,0,0,4.64-4.64V189.64a.94.94,0,0,0-.94-.94h0a.94.94,0,0,0-.88.6l-7.14,18.17A4.64,4.64,0,0,0,556.46,213.8Z"/><rect class="cls-9" x="582.49" y="221.66" width="10.56" height="16.59"/><rect class="cls-9" x="564.61" y="218.43" width="10.56" height="10.56"/><path class="cls-10" d="M559.45,186.69h40.93a2.88,2.88,0,0,1,2.88,2.88v6.12a0,0,0,0,1,0,0H556.57a0,0,0,0,1,0,0v-6.12A2.88,2.88,0,0,1,559.45,186.69Z"/><polygon class="cls-9" points="524.68 237.17 524.68 249.17 512.68 249.17 524.68 237.17"/><path class="cls-4" d="M494,292.07h63.56a12,12,0,0,1,12,12v48a0,0,0,0,1,0,0H494a12,12,0,0,1-12-12v-36A12,12,0,0,1,494,292.07Z" transform="translate(1051.59 644.15) rotate(180)"/><polygon class="cls-4" points="482.07 304.07 482.07 292.07 470.07 292.07 482.07 304.07"/><rect class="cls-7" x="512.12" y="312.54" width="27.35" height="27.35"/><path class="cls-7" d="M510.87,318.16a3.41,3.41,0,0,1,0-6.82h29.85a3.41,3.41,0,0,1,0,6.82Z"/><path class="cls-4" d="M540.72,312.54a2.21,2.21,0,0,1,0,4.42H510.87a2.21,2.21,0,0,1,0-4.42h29.85m0-2.4H510.87a4.61,4.61,0,0,0,0,9.22h29.85a4.61,4.61,0,0,0,0-9.22Z"/><path class="cls-11" d="M525.79,313.75c6.22,0,11.7-5.9,8.83-8.76S525.79,308.88,525.79,313.75Z"/><path class="cls-11" d="M525.79,313.75c-6.21,0-11.69-5.9-8.82-8.76S525.79,308.88,525.79,313.75Z"/><line class="cls-12" x1="525.79" y1="339.89" x2="525.79" y2="312.54"/></g></svg>